<svg xmlns="http://www.w3.org/2000/svg" xmlns:xlink="http://www.w3.org/1999/xlink" width="406" height="228" viewBox="0 0 406 228">
  <defs>
    <filter id="長方形_2" x="36" y="32" width="336" height="53" filterUnits="userSpaceOnUse">
      <feOffset dy="3" input="SourceAlpha"/>
      <feGaussianBlur stdDeviation="3" result="blur"/>
      <feFlood flood-opacity="0.161"/>
      <feComposite operator="in" in2="blur"/>
      <feComposite in="SourceGraphic"/>
    </filter>
    <filter id="_197_500" x="73" y="111" width="253" height="88" filterUnits="userSpaceOnUse">
      <feOffset dy="3" input="SourceAlpha"/>
      <feGaussianBlur stdDeviation="3" result="blur-2"/>
      <feFlood flood-opacity="0.161"/>
      <feComposite operator="in" in2="blur-2"/>
      <feComposite in="SourceGraphic"/>
    </filter>
  </defs>
  <g id="グループ_10" data-name="グループ 10" transform="translate(-1180 -171)">
    <rect id="長方形_1" data-name="長方形 1" width="406" height="228" transform="translate(1180 171)" fill="#4e84ff"/>
    <g id="グループ_7" data-name="グループ 7" transform="translate(599.635 -301.071)">
      <path id="パス_2" data-name="パス 2" d="M1005.058,318.386c0,10.233-8.3,26.566-18.529,26.566S968,328.62,968,318.386a18.529,18.529,0,0,1,37.058,0Z" transform="translate(-24.635 289.502)" fill="#ff6584"/>
      <path id="パス_3" data-name="パス 3" d="M1023.444,504.809c-2.329.8-2.886,3.977-2.085,6.306s2.5,4.261,3.351,6.571a19.693,19.693,0,0,1,.835,3.581,29.974,29.974,0,0,1,.6,8.761,24.913,24.913,0,0,1-2.726,7.863,73.564,73.564,0,0,1-8.779,13.549" transform="translate(-60.863 130.304)" fill="none" stroke="#2f2e41" stroke-width="2"/>
      <path id="パス_4" data-name="パス 4" d="M1046.572,497.429a3.07,3.07,0,0,0-3.572,0v-3.572h3.572Z" transform="translate(-82.892 138.811)" fill="#ff6584"/>
      <path id="パス_5" data-name="パス 5" d="M1043.042,501.467a3.929,3.929,0,0,0,3.578-.015" transform="translate(-82.924 132.911)" fill="none" stroke="#2f2e41" stroke-width="2"/>
      <ellipse id="楕円形_1" data-name="楕円形 1" cx="3.907" cy="4.688" rx="3.907" ry="4.688" transform="translate(965.689 595.386)" fill="#fff" opacity="0.4"/>
    </g>
    <g id="グループ_3" data-name="グループ 3" transform="translate(138.942 -305.672)">
      <g id="グループ_1" data-name="グループ 1" transform="translate(307 -88.169)">
        <path id="パス_6" data-name="パス 6" d="M66,305.386c0,10.233,8.3,26.566,18.529,26.566s18.529-16.333,18.529-26.566a18.529,18.529,0,1,0-37.058,0Z" transform="translate(676 299.599)" fill="#ff6584"/>
        <path id="パス_7" data-name="パス 7" d="M136.063,491.809c2.329.8,2.886,3.977,2.085,6.306s-2.5,4.261-3.351,6.571a19.691,19.691,0,0,0-.835,3.581,29.97,29.97,0,0,0-.6,8.761,24.911,24.911,0,0,0,2.726,7.863,73.562,73.562,0,0,0,8.779,13.549" transform="translate(623.78 140.402)" fill="none" stroke="#2f2e41" stroke-width="2"/>
        <ellipse id="楕円形_2" data-name="楕円形 2" cx="3.907" cy="4.688" rx="3.907" ry="4.688" transform="translate(748.921 592.484)" fill="#fff" opacity="0.4"/>
      </g>
      <g id="グループ_2" data-name="グループ 2" transform="translate(307.214 -87.858)">
        <path id="パス_8" data-name="パス 8" d="M141,484.429a3.069,3.069,0,0,1,3.572,0v-3.572H141Z" transform="translate(617.743 148.909)" fill="#ff6584"/>
        <path id="パス_9" data-name="パス 9" d="M144.508,488.467a3.929,3.929,0,0,1-3.578-.015" transform="translate(617.798 143.009)" fill="none" stroke="#2f2e41" stroke-width="2"/>
      </g>
    </g>
    <g id="グループ_6" data-name="グループ 6" transform="translate(450.167 -325.672)">
      <g id="グループ_4" data-name="グループ 4" transform="translate(163 -41.629)">
        <path id="パス_20" data-name="パス 20" d="M906.444,338.809c-2.328.8-2.886,3.977-2.085,6.306s2.5,4.26,3.351,6.571a19.687,19.687,0,0,1,.835,3.581,29.968,29.968,0,0,1,.6,8.761,24.909,24.909,0,0,1-2.726,7.863,73.563,73.563,0,0,1-8.779,13.549" transform="translate(30.017 259.246)" fill="none" stroke="#2f2e41" stroke-width="2"/>
        <path id="パス_21" data-name="パス 21" d="M888.058,152.386c0,10.233-8.3,26.566-18.529,26.566S851,162.62,851,152.386a18.529,18.529,0,0,1,37.058,0Z" transform="translate(66.246 418.443)" fill="#ffed63"/>
        <ellipse id="楕円形_6" data-name="楕円形 6" cx="3.907" cy="4.688" rx="3.907" ry="4.688" transform="translate(939.57 558.328)" fill="#fff" opacity="0.4"/>
      </g>
      <g id="グループ_5" data-name="グループ 5" transform="translate(161.992 -41.317)">
        <path id="パス_22" data-name="パス 22" d="M929.572,331.429a3.07,3.07,0,0,0-3.572,0v-3.572h3.572Z" transform="translate(7.989 267.752)" fill="#6c63ff"/>
        <path id="パス_23" data-name="パス 23" d="M926.042,335.467a3.929,3.929,0,0,0,3.578-.015" transform="translate(7.956 261.853)" fill="none" stroke="#2f2e41" stroke-width="2"/>
      </g>
    </g>
    <g id="グループ_8" data-name="グループ 8">
      <g transform="matrix(1, 0, 0, 1, 1180, 171)" filter="url(#長方形_2)">
        <rect id="長方形_2-2" data-name="長方形 2" width="318" height="35" rx="15" transform="translate(45 38)" fill="#f70983"/>
      </g>
      <text id="_11月中にご契約で_" data-name="11月中にご契約で " transform="translate(1230 216)" fill="#fff" font-size="18" font-family="HiraKakuProN-W6, Hiragino Kaku Gothic ProN"><tspan x="-75.816" y="18">11月中にご契約で</tspan><tspan y="18" font-size="20"> </tspan></text>
      <text id="_50_OFF" data-name="50% OFF" transform="translate(1402 214)" fill="#fff" font-size="26" font-family="HiraKakuProN-W6, Hiragino Kaku Gothic ProN"><tspan x="0" y="23">50</tspan><tspan y="23" font-size="24">% OFF</tspan></text>
      <text id="_11月30日までにスタンダードプランにご契約の方" data-name="11月30日までにスタンダードプランにご契約の方" transform="translate(1225 256)" fill="#fff" font-size="12" font-family="HiraKakuProN-W6, Hiragino Kaku Gothic ProN"><tspan x="-136.728" y="11">11月30日までにスタンダードプランにご契約の方</tspan></text>
      <text id="_11月30日までにスタンダードプランにご契約の方-2" data-name="11月30日までにスタンダードプランにご契約の方" transform="translate(1225 256)" fill="#fff" font-size="12" font-family="HiraKakuProN-W6, Hiragino Kaku Gothic ProN"><tspan x="-136.728" y="11">11月30日までにスタンダードプランにご契約の方</tspan></text>
    </g>
    <g id="グループ_9" data-name="グループ 9">
      <circle id="楕円形_7" data-name="楕円形 7" cx="22.5" cy="22.5" r="22.5" transform="translate(1206 298)" fill="#effa00"/>
      <text id="税込" transform="translate(1209 313)" fill="#4e84ff" font-size="16" font-family="HiraKakuProN-W6, Hiragino Kaku Gothic ProN"><tspan x="-16" y="14">税込</tspan></text>
    </g>
    <g transform="matrix(1, 0, 0, 1, 1180, 171)" filter="url(#_197_500)">
      <text id="_197_500-2" data-name="197,500" transform="translate(82 117)" fill="#fff" font-size="65" font-family="ToppanBunkyuMidashiMinchoStdN-ExtraBold, Toppan Bunkyu Midashi Mincho" font-weight="800"><tspan x="-116.025" y="57">197,500</tspan></text>
    </g>
    <text id="円" transform="translate(1508 326)" fill="#fff" font-size="23" font-family="HiraKakuProN-W6, Hiragino Kaku Gothic ProN"><tspan x="0" y="20">円</tspan></text>
    <text id="_スタンダードプラン限定のキャンペーンです_2021年11月30日までに上記料金をお支払い頂くお客様限定です_" data-name="※スタンダードプラン限定のキャンペーンです。
※2021年11月30日までに上記料金をお支払い頂くお客様限定です。" transform="translate(1197 370)" fill="#fff" font-size="7" font-family="HiraKakuProN-W3, Hiragino Kaku Gothic ProN"><tspan x="0" y="6">※スタンダードプラン限定のキャンペーンです。</tspan><tspan x="0" y="18">※2021年11月30日までに上記料金をお支払い頂くお客様限定です。</tspan></text>
  </g>
</svg>
