<svg xmlns="http://www.w3.org/2000/svg" width="131.581" height="134.406" viewBox="0 0 131.581 134.406">
  <g id="Layer_4" data-name="Layer 4" transform="translate(-152.128 -151.449)">
    <g id="グループ_4376" data-name="グループ 4376" transform="translate(152.128 151.449)">
      <ellipse id="楕円形_414" data-name="楕円形 414" cx="54.366" cy="5.55" rx="54.366" ry="5.55" transform="translate(15.105 123.307)" fill="#424242" opacity="0.15" style="mix-blend-mode: multiply;isolation: isolate"/>
      <ellipse id="楕円形_415" data-name="楕円形 415" cx="60.304" cy="63.607" rx="60.304" ry="63.607" transform="translate(10.972)" fill="#86b026"/>
      <ellipse id="楕円形_416" data-name="楕円形 416" cx="60.304" cy="63.607" rx="60.304" ry="63.607" fill="#a4d72e"/>
      <path id="パス_3955" data-name="パス 3955" d="M191.317,226.512l-.02.02a10.47,10.47,0,0,0,0,14.72L210.055,259.8a9.209,9.209,0,0,0,13.177-.094l40.553-41.2a10.473,10.473,0,0,0-.094-14.627h0a9.209,9.209,0,0,0-13.208.126l-31.73,32.533a2.909,2.909,0,0,1-4.173.039L204.4,226.512A9.206,9.206,0,0,0,191.317,226.512Z" transform="translate(-164.945 -169.073)" fill="#fff"/>
    </g>
  </g>
</svg>
