<svg xmlns="http://www.w3.org/2000/svg" width="375" height="628" viewBox="0 0 375 628">
  <g id="グループ_4371" data-name="グループ 4371" transform="translate(-281 -132)">
    <g id="グループ_4370" data-name="グループ 4370">
      <rect id="背景" width="375" height="628" transform="translate(281 132)" fill="#e5f3ff" opacity="0.901"/>
      <g id="グループ_4369" data-name="グループ 4369">
        <path id="パス_2754" data-name="パス 2754" d="M0,273.261s12.4-39.786,48.57-52.531,75.724-35.944,98.785-66.569,33.825-56.032,40.538-81.938S197.576,0,197.576,0H0Z" transform="translate(656 759.231) rotate(180)" fill="#fff" opacity="0.5"/>
        <g id="多角形_11" data-name="多角形 11" transform="translate(616 436.525) rotate(97)" fill="none" opacity="0.999">
          <path d="M27.168,17.579a12,12,0,0,1,20.685,0L64.381,45.671A12,12,0,0,1,54.039,63.756H20.983A12,12,0,0,1,10.64,45.671Z" stroke="none"/>
          <path d="M 37.51079559326172 21.66441345214844 C 36.7518310546875 21.66441345214844 36.17186737060547 21.99608612060547 35.78701400756836 22.65023040771484 L 19.25919723510742 50.74221038818359 C 18.86883163452148 51.40573883056641 18.86466979980469 52.08101272583008 19.24684906005859 52.74930572509766 C 19.62903213500977 53.41757583618164 20.21315765380859 53.75641250610352 20.98299407958984 53.75641250610352 L 54.03859710693359 53.75641250610352 C 54.80843353271484 53.75641250610352 55.39255905151367 53.41757583618164 55.77474212646484 52.74930572509766 C 56.15692138671875 52.08101272583008 56.15275955200195 51.40573883056641 55.76239776611328 50.74223327636719 L 39.23459625244141 22.65024948120117 C 38.84972381591797 21.99610137939453 38.26976013183594 21.66441345214844 37.51079559326172 21.66441345214844 M 37.51078796386719 11.66441345214844 C 41.52214050292969 11.66441345214844 45.53349304199219 13.63604736328125 47.8535041809082 17.57932281494141 L 64.38132476806641 45.67132186889648 C 69.08782958984375 53.67092132568359 63.32003021240234 63.75641250610352 54.03859710693359 63.75641250610352 L 20.98299407958984 63.75641250610352 C 11.70156097412109 63.75641250610352 5.933761596679688 53.67092132568359 10.64026641845703 45.67132186889648 L 27.16808700561523 17.57932281494141 C 29.48808670043945 13.63604736328125 33.49943542480469 11.66441345214844 37.51078796386719 11.66441345214844 Z" stroke="none" fill="#d0ddff"/>
        </g>
        <ellipse id="楕円形_406" data-name="楕円形 406" cx="9.609" cy="9.609" rx="9.609" ry="9.609" transform="translate(598 728.771)" fill="#ff8369" opacity="0.622"/>
        <ellipse id="楕円形_405" data-name="楕円形 405" cx="18.849" cy="18.849" rx="18.849" ry="18.849" transform="translate(607.609 559.658)" fill="#4e84ff" opacity="0.45"/>
        <path id="パス_2755" data-name="パス 2755" d="M0,244.546s12.4-35.6,48.57-47.011,75.724-32.167,98.785-59.574,33.825-50.144,40.538-73.327S197.576,0,197.576,0H0Z" transform="translate(281 132)" fill="#fff" opacity="0.5"/>
        <g id="多角形_12" data-name="多角形 12" transform="translate(340 321.906) rotate(-83)" fill="none" opacity="0.999">
          <path d="M32.187,17.427a12,12,0,0,1,20.648,0L74.289,53.64A12,12,0,0,1,63.965,71.756H21.057A12,12,0,0,1,10.733,53.64Z" stroke="none"/>
          <path d="M 42.51079559326172 21.54325485229492 C 41.75449371337891 21.54325485229492 41.17555618286133 21.87317657470703 40.79007720947266 22.52385711669922 L 19.33625793457031 58.73701477050781 C 18.94317626953125 59.40049743652344 18.93749237060547 60.07665252685547 19.31931304931641 60.74667358398438 C 19.70115661621094 61.41669464111328 20.28577423095703 61.75641632080078 21.05695724487305 61.75641632080078 L 63.96463775634766 61.75641632080078 C 64.73581695556641 61.75641632080078 65.3204345703125 61.41669464111328 65.70227813720703 60.74667358398438 C 66.08409118652344 60.07665252685547 66.07841491699219 59.40049743652344 65.68533325195312 58.73701477050781 L 44.23149490356445 22.52385711669922 C 43.84601593017578 21.87317657470703 43.26707458496094 21.54325485229492 42.51079559326172 21.54325485229492 M 42.51079177856445 11.54325866699219 C 46.51103210449219 11.54325866699219 50.51126480102539 13.50445556640625 52.83501434326172 17.42685699462891 L 74.28885650634766 53.6400146484375 C 79.02785491943359 61.63925552368164 73.26227569580078 71.75641632080078 63.96463775634766 71.75641632080078 L 21.05695724487305 71.75641632080078 C 11.75931549072266 71.75641632080078 5.993736267089844 61.63925552368164 10.73273468017578 53.6400146484375 L 32.18655395507812 17.42685699462891 C 34.51031494140625 13.50445556640625 38.51055526733398 11.54325866699219 42.51079177856445 11.54325866699219 Z" stroke="none" fill="#d0ddff"/>
        </g>
        <ellipse id="楕円形_407" data-name="楕円形 407" cx="10" cy="10" rx="10" ry="10" transform="translate(608 244.273)" fill="#ff8369" opacity="0.622"/>
        <circle id="楕円形_408" data-name="楕円形 408" cx="22.5" cy="22.5" r="22.5" transform="translate(298.5 149.481)" fill="#4e84ff" opacity="0.45"/>
        <ellipse id="楕円形_409" data-name="楕円形 409" cx="10.349" cy="10.349" rx="10.349" ry="10.349" transform="translate(290.885 475.621)" fill="#4e84ff" opacity="0.298"/>
        <path id="多角形_7" data-name="多角形 7" d="M125,0,250,50.962H0Z" transform="translate(593.5 182.962) rotate(180)" fill="#fff" opacity="0.901"/>
      </g>
    </g>
    <text id="お申し込み" transform="translate(469 158)" fill="#4e84ff" font-size="16" font-family="HiraginoSans-W6, Hiragino Sans"><tspan x="-40" y="0">お申し込み</tspan></text>
  </g>
</svg>
