<svg id="グループ_4449" data-name="グループ 4449" xmlns="http://www.w3.org/2000/svg" xmlns:xlink="http://www.w3.org/1999/xlink" width="53.844" height="81.039" viewBox="0 0 53.844 81.039">
  <defs>
    <clipPath id="clip-path">
      <rect id="長方形_568" data-name="長方形 568" width="53.844" height="81.039" fill="none"/>
    </clipPath>
  </defs>
  <g id="グループ_4448" data-name="グループ 4448" clip-path="url(#clip-path)">
    <path id="パス_4776" data-name="パス 4776" d="M33.5,116.567H49.359c3.1,0,3.1,4.815,0,4.815H33.494q-.026,1.352-.055,2.7H48.425c3.1,0,3.1,4.815,0,4.815H33.413c0,.1,0,.195-.008.291a8.256,8.256,0,0,0,1.925,3.55c3.966,4.1,13.229,4.244,17.319.274a7.305,7.305,0,0,0,1.981-3.592c.009-.031.016-.053.025-.078s0-.05,0-.084c.012-.664,0-1.329,0-1.993v-12.4H33.425q.047.85.071,1.705" transform="translate(-17.32 -59.553)" fill="#ffe995"/>
    <path id="パス_4777" data-name="パス 4777" d="M42.613,59.472A33.2,33.2,0,0,1,49.238,46.11a20.722,20.722,0,0,0,4.934-13.425c-.1-10.023-5.916-19.105-15.8-21.845-7.661-2.125-16.441-.329-22.083,5.433a23.43,23.43,0,0,0-5.773,21.251C12.428,45.685,20.532,51,21.2,59.558c.024.307.04.616.057.924H42.486v-.2a2.538,2.538,0,0,1,.127-.813m-6.4-7.514c1.091-5.207,2.61-10.323,3.741-15.523.477-2.194,1.048-3.88.171-6.1a4.924,4.924,0,0,0-2.753-2.815,2.361,2.361,0,0,0-1.293-.028,8.445,8.445,0,0,1,1.634,5.776c-.352,3.629-2.974,7.943-7.214,6.709-5.042-1.466-5.368-8.112-2.8-11.814.054-.078.111-.156.168-.233-2.327-.011-4.269,1.968-4.532,5.019a18.72,18.72,0,0,0,.784,5.22c.978,4.622,2.269,9.171,3.259,13.787.649,3.027-3.994,4.309-4.643,1.28-.8-3.74-1.827-7.433-2.679-11.162-.847-3.709-2.131-7.772-1.121-11.56,1.367-5.123,6.074-8.836,11.438-7.119a11.546,11.546,0,0,1,1.657.681,7.913,7.913,0,0,1,7.357-.891A10.357,10.357,0,0,1,45.327,33.6c-.527,6.637-3.115,13.148-4.475,19.642-.636,3.036-5.277,1.744-4.643-1.28" transform="translate(-5.153 -5.173)" fill="#fff"/>
    <path id="パス_4778" data-name="パス 4778" d="M53.459,54.786c-.064.779.436,2.723,1.088,2.352.774-.442.981-2.2.973-2.982a3.223,3.223,0,0,0-.8-2.069,4.628,4.628,0,0,0-1.265,2.7" transform="translate(-27.714 -27.006)" fill="#fff"/>
    <path id="パス_4779" data-name="パス 4779" d="M41.281,3.929A28.451,28.451,0,0,0,15.364,2.416C7.23,6.032,1.741,13.913.373,22.621a27.93,27.93,0,0,0,.876,12.891C2.741,40.121,5.73,43.7,8.35,47.688a15.286,15.286,0,0,1,2.92,8.75v8.626c0,3.436-.26,6.355,1.647,9.381,4.028,6.391,13.089,7.719,19.887,5.761,4.71-1.356,8.993-5.268,9.345-10.39.328-4.764.013-9.652,0-14.433a27.114,27.114,0,0,1,2.643-7.044A67.831,67.831,0,0,1,49.3,42.012a24.305,24.305,0,0,0,4.51-13.027c.479-9.834-4-19.848-12.529-25.055M37.461,54.3a2.535,2.535,0,0,0-.127.812v12.6c0,.664.012,1.329,0,1.993,0,.034,0,.061,0,.084l-.024.078a7.3,7.3,0,0,1-1.981,3.592c-4.091,3.97-13.353,3.828-17.319-.274a8.253,8.253,0,0,1-1.925-3.55c0-.1.006-.195.008-.291H31.106c3.1,0,3.1-4.815,0-4.815H16.119q.026-1.349.055-2.7H32.039c3.1,0,3.1-4.815,0-4.815H16.177c-.024-.88-.061-1.758-.129-2.629-.669-8.556-8.773-13.874-10.679-22.034A23.428,23.428,0,0,1,11.141,11.1c5.642-5.762,14.423-7.558,22.083-5.433,9.88,2.74,15.7,11.822,15.8,21.846a20.721,20.721,0,0,1-4.934,13.425A33.2,33.2,0,0,0,37.461,54.3" transform="translate(0 0)" fill="#323232"/>
    <path id="パス_4780" data-name="パス 4780" d="M48.673,36.815a7.912,7.912,0,0,0-7.357.891,11.546,11.546,0,0,0-1.657-.681c-5.364-1.717-10.072,2-11.438,7.119-1.01,3.787.274,7.851,1.121,11.56.851,3.729,1.877,7.422,2.679,11.162.649,3.028,5.292,1.747,4.643-1.28-.99-4.616-2.282-9.165-3.259-13.787a18.732,18.732,0,0,1-.784-5.219c.263-3.051,2.2-5.03,4.533-5.02-.057.078-.114.156-.168.234-2.571,3.7-2.245,10.348,2.8,11.815,4.24,1.233,6.862-3.08,7.214-6.71a8.442,8.442,0,0,0-1.634-5.775,2.357,2.357,0,0,1,1.293.028,4.925,4.925,0,0,1,2.753,2.815c.876,2.217.305,3.9-.172,6.1-1.132,5.2-2.65,10.316-3.741,15.523-.633,3.024,4.007,4.316,4.643,1.28,1.361-6.494,3.948-13,4.475-19.642a10.356,10.356,0,0,0-5.941-10.408m-7.4,12.116c-.652.371-1.152-1.573-1.088-2.352a4.628,4.628,0,0,1,1.265-2.7,3.224,3.224,0,0,1,.8,2.07c.008.78-.2,2.54-.973,2.981" transform="translate(-14.44 -18.799)" fill="#323232"/>
  </g>
</svg>
