<svg xmlns="http://www.w3.org/2000/svg" xmlns:xlink="http://www.w3.org/1999/xlink" width="92.921" height="79.15" viewBox="0 0 92.921 79.15">
  <defs>
    <clipPath id="clip-path">
      <rect id="長方形_580" data-name="長方形 580" width="92.921" height="79.15" fill="none"/>
    </clipPath>
  </defs>
  <g id="グループ_4468" data-name="グループ 4468" clip-path="url(#clip-path)">
    <path id="パス_4982" data-name="パス 4982" d="M97.921,108.632H90.789a.235.235,0,0,0-.234.234V130.8a.235.235,0,0,0,.234.234h7.131a.235.235,0,0,0,.234-.234v-21.93a.235.235,0,0,0-.234-.234" transform="translate(-47.879 -57.436)" fill="#fff"/>
    <path id="パス_4983" data-name="パス 4983" d="M95.191,103.519c-2.294,0-4.7-.226-6.979,0-2.46.244-2.743,2.062-2.743,4.045v17.047c0,1.518-.415,3.865.69,5.094,1.55,1.724,5.587.925,7.64.925,2.262,0,3.9-.667,3.982-3.2.07-2.289,0-4.591,0-6.881V110.269c0-1.869.518-4.617-.924-6.06-2.148-2.147-5.481,1.184-3.333,3.333l.235.234-.69-1.666v21.93l.69-1.666-.235.234,1.666-.69H88.06l1.666.69-.234-.234.69,1.666V106.11l-.69,1.666.234-.234-1.666.69h7.131c3.033,0,3.037-4.713,0-4.713" transform="translate(-45.149 -54.68)" fill="#323232"/>
    <path id="パス_4984" data-name="パス 4984" d="M5.068,107.376a5.2,5.2,0,0,0,5.2,5.2H88.048a5.2,5.2,0,0,0,5.2-5.2v-1.883H5.068Z" transform="translate(-2.68 -55.777)" fill="#fff"/>
    <path id="パス_4985" data-name="パス 4985" d="M.062,104.732a7.764,7.764,0,0,0,7.887,7.552c1.527.031,3.058,0,4.585,0h67.7c1.649,0,3.307.053,4.955,0a7.921,7.921,0,0,0,5.086-1.811c2.373-2.037,2.676-4.7,2.676-7.624a2.39,2.39,0,0,0-2.356-2.356H2.418a2.391,2.391,0,0,0-2.356,2.356v1.883c0,3.033,4.713,3.037,4.713,0v-1.883l-2.356,2.356H90.594l-2.356-2.356c0,2.612-.522,4.664-3.458,4.722-1.556.031-3.117,0-4.673,0H9.5c-2.095,0-4.545.016-4.723-2.839-.187-3.013-4.9-3.034-4.713,0" transform="translate(-0.03 -53.133)" fill="#323232"/>
    <path id="パス_4986" data-name="パス 4986" d="M88.048,5.089H10.264a5.2,5.2,0,0,0-5.2,5.2V52.407H93.244V10.285a5.2,5.2,0,0,0-5.2-5.2" transform="translate(-2.68 -2.691)" fill="#fff"/>
    <path id="パス_4987" data-name="パス 4987" d="M85.368.042H31.318c-7.7,0-15.412-.094-23.115,0C3.537.1.123,3.215.032,7.972c-.072,3.791,0,7.592,0,11.384V49.716a2.391,2.391,0,0,0,2.356,2.356H90.564a2.391,2.391,0,0,0,2.356-2.356V9.039c0-4.744-2.383-8.676-7.552-9-3.029-.188-3.018,4.525,0,4.713,3.176.2,2.839,3.206,2.839,5.46v39.5l2.356-2.356H2.388l2.356,2.356V10.335c0-2.521-.243-5.457,3.209-5.58,7.048-.252,14.152,0,21.2,0h56.21c3.033,0,3.037-4.713,0-4.713" transform="translate(0 0)" fill="#323232"/>
    <path id="パス_4988" data-name="パス 4988" d="M56.873,52.8c2.581-.871,7.711-3.048,8.24-3.234a1.441,1.441,0,0,0,1.026-1.43,2,2,0,0,0-1.835-1.99,1.879,1.879,0,0,0-.746.186c-3.3,1.555-6.53,3.048-9.764,4.478a2.574,2.574,0,0,0-1.679,2.332,2.685,2.685,0,0,0,1.679,2.395c2.239,1.057,7.028,3.544,9.889,4.6a1.623,1.623,0,0,0,.653.124,1.941,1.941,0,0,0,1.8-1.959,1.489,1.489,0,0,0-1.026-1.462c-1.43-.528-5.939-2.425-8.209-3.3-.311-.093-.591-.218-.591-.373,0-.093.156-.217.56-.373" transform="translate(-27.554 -24.398)" fill="#323232"/>
    <path id="パス_4989" data-name="パス 4989" d="M94.905,39.647a1.473,1.473,0,0,0-1.493,1.15c-.622,2.333-4.881,13.355-5.938,16a1.578,1.578,0,0,0-.124.622,1.775,1.775,0,0,0,1.8,1.648,1.56,1.56,0,0,0,1.493-1.088c1.43-3.949,5.223-14.288,6-16.185a1.443,1.443,0,0,0,.124-.591,1.761,1.761,0,0,0-1.866-1.555" transform="translate(-46.184 -20.962)" fill="#323232"/>
    <path id="パス_4990" data-name="パス 4990" d="M126.011,50.809c-3.234-1.43-6.468-2.923-9.764-4.478a1.874,1.874,0,0,0-.747-.187,2,2,0,0,0-1.834,1.99,1.44,1.44,0,0,0,1.026,1.43c.529.186,5.66,2.363,8.24,3.234.4.156.56.279.56.373,0,.155-.28.28-.591.373-2.27.87-6.779,2.767-8.209,3.3a1.489,1.489,0,0,0-1.026,1.462,1.941,1.941,0,0,0,1.8,1.959,1.624,1.624,0,0,0,.653-.124c2.861-1.058,7.65-3.545,9.888-4.6a2.685,2.685,0,0,0,1.679-2.395,2.573,2.573,0,0,0-1.679-2.332" transform="translate(-60.098 -24.398)" fill="#323232"/>
    <path id="パス_4991" data-name="パス 4991" d="M89.17,148.521H59.324a6.8,6.8,0,0,0-6.8,6.8H95.97a6.8,6.8,0,0,0-6.8-6.8" transform="translate(-27.771 -78.527)" fill="#fff"/>
    <path id="パス_4992" data-name="パス 4992" d="M86.524,143.5H66.287c-3.048,0-6.1-.041-9.147,0a9.373,9.373,0,0,0-9.618,9.156,2.384,2.384,0,0,0,2.356,2.356H93.324a2.38,2.38,0,0,0,2.356-2.356,9.354,9.354,0,0,0-9.156-9.156c-3.032-.144-3.024,4.569,0,4.713a4.526,4.526,0,0,1,4.443,4.443l2.356-2.356H49.878l2.356,2.356c.191-4.02,3.579-4.443,6.7-4.443H86.524c3.033,0,3.037-4.713,0-4.713" transform="translate(-25.125 -75.863)" fill="#323232"/>
    <path id="パス_4993" data-name="パス 4993" d="M23.668,17.542a3.015,3.015,0,1,0,3.015,3.015,3.016,3.016,0,0,0-3.015-3.015" transform="translate(-10.92 -9.275)" fill="#3c9de8"/>
    <path id="パス_4994" data-name="パス 4994" d="M46.674,17.542a3.015,3.015,0,1,0,3.015,3.015,3.015,3.015,0,0,0-3.015-3.015" transform="translate(-23.084 -9.275)" fill="#3c9de8"/>
    <path id="パス_4995" data-name="パス 4995" d="M69.68,17.542A3.015,3.015,0,1,0,72.7,20.557a3.016,3.016,0,0,0-3.015-3.015" transform="translate(-35.247 -9.275)" fill="#3c9de8"/>
  </g>
</svg>
