<svg xmlns="http://www.w3.org/2000/svg" width="113.699" height="89.047" viewBox="0 0 113.699 89.047">
  <g id="グループ_4495" data-name="グループ 4495" transform="translate(4953.75 15568.647)">
    <path id="パス_4965" data-name="パス 4965" d="M285.921,148.311h23.022a66.9,66.9,0,0,0,8.212,0c2.207-.281,2.61-4.876,3.12-6.611,1.105-3.763,2.31-7.51,3.318-11.3.68-2.553-1.3-2.423-3.169-2.423H279.806a2.083,2.083,0,0,1-2.146-1.931h-1.25l1.068,4.218q2.79,11.017,5.579,22.033H284.5c-1.342-1.168-.867-3.986,1.422-3.986" transform="translate(-5223.158 -15668.24)" fill="#fff"/>
    <path id="パス_4973" data-name="パス 4973" d="M269.863,137.876q1.092,4.312,2.184,8.624a25.487,25.487,0,0,0,1.2,4.218c1.492,3.316,4.627,4.231,7.94,4.231H310.3c2.886,0,2.89-4.485,0-4.485H283.792c-1.546,0-4.363.483-5.693-.561-1.094-.858-1.293-2.885-1.615-4.152l-2.011-7.941q-2.8-11.066-5.6-22.133L265.2,101.193c-.708-2.8-5.035-1.611-4.325,1.193l8.987,35.49" transform="translate(-5214.547 -15653.654)" fill="#323232"/>
    <path id="パス_4974" data-name="パス 4974" d="M281.318,124.658h40.618c1.867,0,3.849-.13,3.169,2.423-1.009,3.79-2.214,7.537-3.319,11.3-.509,1.735-.913,6.33-3.12,6.611a66.9,66.9,0,0,1-8.212,0H287.432c-2.886,0-2.89,4.485,0,4.485h21.8c3.121,0,6.268.117,9.388,0,4.311-.162,5.547-3.3,6.578-6.8l3.763-12.815a13.225,13.225,0,0,0,.9-4.125,5.907,5.907,0,0,0-5.807-5.561c-6.564-.327-13.227,0-19.8,0H281.318c-2.886,0-2.891,4.485,0,4.485" transform="translate(-5224.671 -15664.921)" fill="#323232"/>
    <path id="パス_4975" data-name="パス 4975" d="M286.133,242.179c.239,5.04,7.861,5.085,7.861,0s-7.622-5.034-7.861,0" transform="translate(-5228.521 -15730.194)" fill="#ffe995"/>
    <path id="パス_4976" data-name="パス 4976" d="M284.545,228.082a8.5,8.5,0,0,0-8.353,7.742,3.679,3.679,0,0,0,0,1.345,8.4,8.4,0,1,0,8.354-9.088m-3.931,8.416c.239-5.034,7.861-5.089,7.861,0s-7.622,5.04-7.861,0" transform="translate(-5223.001 -15724.514)" fill="#323232"/>
    <path id="パス_4977" data-name="パス 4977" d="M350.45,242.179c.24,5.04,7.861,5.085,7.861,0s-7.622-5.034-7.861,0" transform="translate(-5263.993 -15730.194)" fill="#ffe995"/>
    <path id="パス_4978" data-name="パス 4978" d="M348.862,228.082a8.5,8.5,0,0,0-8.354,7.742,3.677,3.677,0,0,0,0,1.345,8.4,8.4,0,1,0,8.354-9.088m-3.931,8.416c.239-5.034,7.861-5.089,7.861,0s-7.622,5.04-7.861,0" transform="translate(-5258.474 -15724.514)" fill="#323232"/>
    <path id="パス_4979" data-name="パス 4979" d="M443.711,114.746A19.439,19.439,0,1,0,422,108.684a19.643,19.643,0,0,0,21.712,6.062m-12.77-17.72,3.8,3.008,9.738-10.774c1.941-2.146,5.1,1.035,3.171,3.171l-11.061,12.238a2.287,2.287,0,0,1-3.171,0L427.77,100.2c-2.263-1.791.932-4.944,3.171-3.171" transform="translate(-5301.086 -15641.194)" fill="#ffe995"/>
    <path id="パス_4980" data-name="パス 4980" d="M436.517,114.382c10.977-2.207,18.741-12.12,19.019-23.149.007-.085.01-.174.009-.265a23.921,23.921,0,1,0-19.028,23.413M414.846,81.16a19.439,19.439,0,1,1,1.663,22.039,19.6,19.6,0,0,1-1.663-22.039" transform="translate(-5295.596 -15635.711)" fill="#323232"/>
    <path id="パス_4981" data-name="パス 4981" d="M439.189,114.386l5.648,4.471a2.287,2.287,0,0,0,3.171,0L459.07,106.62c1.931-2.137-1.231-5.318-3.171-3.171l-9.738,10.774-3.8-3.008c-2.24-1.773-5.434,1.38-3.171,3.171" transform="translate(-5312.505 -15655.383)" fill="#fff"/>
  </g>
</svg>
