<svg id="グループ_4442" data-name="グループ 4442" xmlns="http://www.w3.org/2000/svg" xmlns:xlink="http://www.w3.org/1999/xlink" width="120.609" height="74.28" viewBox="0 0 120.609 74.28">
  <defs>
    <clipPath id="clip-path">
      <rect id="長方形_565" data-name="長方形 565" width="120.609" height="74.28" fill="none"/>
    </clipPath>
  </defs>
  <g id="グループ_4441" data-name="グループ 4441" transform="translate(0 0)" clip-path="url(#clip-path)">
    <path id="パス_4745" data-name="パス 4745" d="M16.084,40.889l13.849-29.7L20.764,6.915,6.915,36.614l9.169,4.276" transform="translate(-1.147 -1.147)" fill="#fff"/>
    <path id="パス_4746" data-name="パス 4746" d="M110.084,11.191q6.924,14.85,13.849,29.7l9.168-4.276q-6.924-14.848-13.848-29.7l-9.169,4.276" transform="translate(-18.256 -1.147)" fill="#fff"/>
    <path id="パス_4747" data-name="パス 4747" d="M67.35,71.268a2.566,2.566,0,0,1,2.5-2.5c-.691.084-.14.007.023-.036l.085-.021c-.026,0,.242-.093.3-.128.106-.061.2-.138.311-.2l-.12.067c-.1.065-.169.094,0,0a.913.913,0,0,0,.129-.1c.089-.085.171-.178.253-.269.033-.044.089-.12.139-.2.1-.165.194-.334.283-.506a2.016,2.016,0,0,1,.141-.208c-2.693-2.242-5.187-4.757-7.636-7.251-2.258-2.3,1.28-5.842,3.539-3.539q2.325,2.37,4.741,4.651a42.8,42.8,0,0,0,3.5,3.122c1.4,1.055,2.69.239,2.839-1.543-.231-.215-.46-.434-.688-.659-2.533-2.507-5-5.078-7.457-7.661-2.218-2.336,1.317-5.88,3.539-3.539q2.133,2.246,4.3,4.464c1.16,1.19,4.4,5.68,6.183,5.377a2.546,2.546,0,0,0,1.726-2.416c-.231-.958-3.046-2.918-3.806-3.652q-2.7-2.606-5.378-5.233c-2.3-2.26,1.237-5.8,3.539-3.539,2.809,2.755,6.009,5.354,8.649,8.289a2.691,2.691,0,0,1,.3.141c2.721,1.629,3.725-.446,2.767-2.4-.766-1.562-2.441-2.946-3.592-4.247q-3.845-4.344-7.832-8.564-4.712-5.014-9.56-9.9a2.507,2.507,0,0,1,1.175-4.162l-2.633-2.942c-3,5.405-7.8,12.36-15.052,9.241a7.833,7.833,0,0,1-4.4-7.215c.209-3.353,3.752-6.527,5.7-9.063.776-1.011,1.576-2.087,2.468-3.054-1.861-.333-3.72-.731-5.241.365,1.581,1.355,1.087,4.571-1.5,4.42a9.9,9.9,0,0,0-7.095,2.386,2.483,2.483,0,0,1-2.435.643L36.02,17.176q-5.444,11.67-10.886,23.342a2.641,2.641,0,0,1,.654.25L30.549,43.4c2.333,1.287,1.012,4.45-1.108,4.637l1.233,1.531a13.983,13.983,0,0,1,3.224-3.93,16.352,16.352,0,0,1,3.939-3.4,6.967,6.967,0,0,1,10.048,5.793,6.883,6.883,0,0,1,6.46,6.46A6.861,6.861,0,0,1,60.8,61.3a6.492,6.492,0,0,1,4.833,2.03c2.852,2.852,2.483,7.1-.054,9.932a2.72,2.72,0,0,0,3.227.315,2.846,2.846,0,0,1-1.46-2.312" transform="translate(-4.168 -1.911)" fill="#fff"/>
    <path id="パス_4748" data-name="パス 4748" d="M104.974,44.982l5.3-2.918L98.068,15.881A47.308,47.308,0,0,1,92.2,18.265c-5.021,1.631-8.239.465-13.1-1.215-2.92-1.011-7.965-3.675-10.776-1.628-2.243,1.632-3.954,4.959-5.615,7.127-.642.838-1.533,1.514-1.485,2.643.112,2.615,3.62,2.43,5.189,1.491,2.389-1.431,3.693-4.6,4.972-6.92,1.557-2.824,5.877-.3,4.322,2.526l-.11.2,2.633,2.942a2.263,2.263,0,0,1,2.364.622c6.911,6.927,13.83,14,20.08,21.535a15.431,15.431,0,0,1,2.2,3.411l2.492-1.566c-1.663-.733-2.443-3.319-.39-4.449" transform="translate(-10.153 -2.433)" fill="#fff"/>
    <path id="パス_4749" data-name="パス 4749" d="M95.5,11.466a3.213,3.213,0,0,1-.285-1.31c-1.315.645-2.658,1.235-4.026,1.744-4.1,1.524-6.283,1.188-10.391-.261-3.609-1.273-8.647-3.948-12.532-3.317A8.709,8.709,0,0,0,63.3,11.327a8.453,8.453,0,0,0,3.494.119,8.453,8.453,0,0,1-3.494-.119c-.893.967-1.693,2.043-2.467,3.054-1.946,2.536-5.488,5.71-5.7,9.063a7.834,7.834,0,0,0,4.394,7.215c7.25,3.119,12.051-3.835,15.052-9.241l-.794-.888.794.888.11-.2c1.556-2.823-2.765-5.35-4.322-2.526-1.28,2.321-2.583,5.49-4.972,6.919-1.569.939-5.078,1.124-5.189-1.491-.048-1.13.842-1.805,1.485-2.643,1.661-2.168,3.372-5.5,5.615-7.128,2.812-2.046,7.856.618,10.776,1.629,4.859,1.681,8.077,2.845,13.1,1.215a47.437,47.437,0,0,0,5.871-2.384L95.5,11.466" transform="translate(-9.143 -1.364)" fill="#353535"/>
    <path id="パス_4750" data-name="パス 4750" d="M104.422,53.114l-2.652,1.667,2.652-1.667a15.431,15.431,0,0,0-2.2-3.411C95.975,42.17,89.056,35.1,82.144,28.168a2.261,2.261,0,0,0-2.364-.622l3.433,3.835L79.78,27.546a2.506,2.506,0,0,0-1.174,4.161c3.24,3.247,6.418,6.559,9.56,9.9Q92.14,45.837,96,50.172c1.15,1.3,2.826,2.683,3.592,4.247.957,1.953-.047,4.028-2.767,2.4a2.681,2.681,0,0,0-.3-.141c-2.64-2.935-5.839-5.534-8.649-8.289-2.3-2.257-5.844,1.279-3.539,3.539q2.679,2.626,5.378,5.234c.761.734,3.576,2.694,3.806,3.651a2.543,2.543,0,0,1-1.726,2.416c-1.779.3-5.022-4.187-6.183-5.377q-2.162-2.218-4.3-4.464c-2.222-2.34-5.757,1.2-3.538,3.539,2.453,2.584,4.925,5.155,7.457,7.662.227.224.457.444.688.659-.15,1.781-1.439,2.6-2.84,1.542a42.764,42.764,0,0,1-3.5-3.122q-2.416-2.277-4.741-4.65c-2.259-2.3-5.8,1.236-3.539,3.539a104.669,104.669,0,0,0,7.635,7.251,2.16,2.16,0,0,0-.141.208c-.089.173-.179.342-.282.506-.051.082-.107.158-.139.2-.083.092-.163.184-.254.269a.977.977,0,0,1-.129.1l.12-.067c-.107.058-.2.136-.311.2-.062.036-.33.125-.3.129l-.085.021c-.163.043-.715.119-.025.036a2.567,2.567,0,0,0-2.5,2.5,2.847,2.847,0,0,0,1.461,2.311,26.539,26.539,0,0,1,3.024-1.528,26.539,26.539,0,0,0-3.024,1.528,1.822,1.822,0,0,0,1.042.191,7.123,7.123,0,0,0,5.731-3.87,2.719,2.719,0,0,0,.182-.445,6.674,6.674,0,0,0,7.021-4.067,5.652,5.652,0,0,0,4.937-1.047,7.775,7.775,0,0,0,3.107-4.589,6.149,6.149,0,0,0,6.307-3.489,6.833,6.833,0,0,0-.25-5.789" transform="translate(-11.705 -4.55)" fill="#353535"/>
    <path id="パス_4751" data-name="パス 4751" d="M79.447,79.769c-.169.1-.1.065,0,0" transform="translate(-13.159 -13.229)" fill="#353535"/>
    <path id="パス_4752" data-name="パス 4752" d="M26.652,50.847,29.029,53.8c2.12-.188,3.441-3.351,1.109-4.637l-4.761-2.627a2.661,2.661,0,0,0-.653-.25Q23.689,48.5,22.655,50.72c.067.045.123.1.2.136l4.761,2.626a2.443,2.443,0,0,0,1.417.316Z" transform="translate(-3.757 -7.676)" fill="#353535"/>
    <path id="パス_4753" data-name="パス 4753" d="M53.748,11.676A14.681,14.681,0,0,0,44.5,14.448l-4.218-1.756-2.1,4.506,6.036,2.512a2.484,2.484,0,0,0,2.434-.644,9.9,9.9,0,0,1,7.095-2.386c2.592.151,3.086-3.065,1.5-4.42a4.642,4.642,0,0,0-1.274,1.422,4.642,4.642,0,0,1,1.274-1.422,2.478,2.478,0,0,0-1.5-.585" transform="translate(-6.332 -1.933)" fill="#353535"/>
    <path id="パス_4754" data-name="パス 4754" d="M118.731,47.511l-5.3,2.918c-2.054,1.129-1.274,3.715.39,4.448l1.916-1.2-1.916,1.2a2.339,2.339,0,0,0,2.136-.127l4.9-2.693-2.12-4.545" transform="translate(-18.606 -7.879)" fill="#353535"/>
    <path id="パス_4755" data-name="パス 4755" d="M39.407,56.128c-1.134,1.134-3.508,2.9-1.792,4.62,1.95,1.723,3.772-.943,5.032-2.2,1.119-1.119,3.337-2.8,1.656-4.484-1.793-1.793-3.735.905-4.9,2.067" transform="translate(-6.138 -8.867)" fill="#fff"/>
    <path id="パス_4756" data-name="パス 4756" d="M47.151,63.873c-1.134,1.134-3.508,2.9-1.792,4.62,1.95,1.723,3.772-.943,5.032-2.2,1.119-1.119,3.337-2.8,1.656-4.484-1.793-1.793-3.735.905-4.9,2.067" transform="translate(-7.422 -10.151)" fill="#fff"/>
    <path id="パス_4757" data-name="パス 4757" d="M58.136,74.035c1.119-1.119,3.337-2.8,1.655-4.484-1.793-1.793-3.735.906-4.9,2.067-1.135,1.134-3.508,2.9-1.792,4.62,1.949,1.723,3.772-.942,5.032-2.2" transform="translate(-8.707 -11.435)" fill="#fff"/>
    <path id="パス_4758" data-name="パス 4758" d="M64.773,81.574c2.057,1.88,5.793-1.823,3.808-3.808S62.8,79.6,64.773,81.574" transform="translate(-10.651 -12.805)" fill="#fff"/>
    <path id="パス_4759" data-name="パス 4759" d="M66.621,69.3a6.5,6.5,0,0,0-4.833-2.031,6.861,6.861,0,0,0-6.461-6.81A6.881,6.881,0,0,0,48.868,54,6.965,6.965,0,0,0,38.82,48.205a16.318,16.318,0,0,0-3.939,3.4,13.968,13.968,0,0,0-3.224,3.93L33.9,58.31,31.657,55.53c-.05.11-.1.217-.148.331a7.076,7.076,0,0,0,1.134,6.919,2.577,2.577,0,0,0,.445.518,7.877,7.877,0,0,0,4.45,2A7.032,7.032,0,0,0,39.1,69.24a2.613,2.613,0,0,0,.446.519,7.883,7.883,0,0,0,4.45,2A7.025,7.025,0,0,0,45.563,75.7a2.612,2.612,0,0,0,.446.519,7.18,7.18,0,0,0,8.032,1.33,6.957,6.957,0,0,0,1.693,2.637c3.314,3.029,7.582,2.383,10.576-.669.09-.092.171-.189.255-.284a5.3,5.3,0,0,1-.424-.38,5.3,5.3,0,0,0,.424.38c2.538-2.832,2.907-7.08.054-9.932M36.629,59.76c-1.717-1.717.656-3.486,1.792-4.621,1.161-1.161,3.1-3.86,4.9-2.066,1.682,1.681-.536,3.365-1.655,4.484-1.26,1.261-3.083,3.926-5.032,2.2m6.46,6.46c-1.716-1.716.657-3.486,1.792-4.62,1.162-1.162,3.1-3.86,4.9-2.067,1.681,1.681-.536,3.366-1.655,4.484-1.261,1.26-3.083,3.925-5.033,2.2m11.493,4.257c-1.26,1.261-3.083,3.926-5.032,2.2-1.717-1.717.656-3.486,1.791-4.621,1.162-1.161,3.1-3.86,4.9-2.067,1.682,1.682-.536,3.366-1.655,4.484m4.693,6.169c-1.972-1.972,1.828-5.788,3.808-3.808s-1.751,5.688-3.808,3.808" transform="translate(-5.152 -7.877)" fill="#353535"/>
    <path id="パス_4760" data-name="パス 4760" d="M33.361,6.677,19.674.3c-1.135-.53-2.812-.415-3.423.9L.3,35.409c-.529,1.135-.415,2.812.9,3.424L14.88,45.216a2.769,2.769,0,0,0,.611.2,2.061,2.061,0,0,0,2.813-1.1q.3-.636.594-1.273l2.069-4.436q5.443-11.672,10.885-23.342,1.051-2.253,2.1-4.506.153-.329.307-.658c.529-1.135.415-2.812-.9-3.424M14.937,39.743,5.768,35.467l13.849-29.7,9.169,4.276-13.849,29.7" transform="translate(0 0)" fill="#3c9de8"/>
    <path id="パス_4761" data-name="パス 4761" d="M121.474,1.194c-.607-1.3-2.295-1.425-3.424-.9L104.364,6.678a2.187,2.187,0,0,0-1.183,2.114,3.213,3.213,0,0,0,.284,1.31l1.561,3.347,12.21,26.183,2.12,4.545c.022.047.043.093.066.14a2.061,2.061,0,0,0,2.81,1.1,2.735,2.735,0,0,0,.613-.2l13.686-6.381c1.3-.607,1.425-2.295.9-3.424L121.474,1.194m10.482,34.273-9.169,4.276-13.849-29.7,9.169-4.276,13.849,29.7" transform="translate(-17.112 -0.001)" fill="#3c9de8"/>
  </g>
</svg>
