<svg xmlns="http://www.w3.org/2000/svg" width="60" height="60" viewBox="0 0 60 60">
  <g id="グループ_4608" data-name="グループ 4608" transform="translate(-608.063 -9693.318)">
    <rect id="長方形_482" data-name="長方形 482" width="60" height="60" rx="10" transform="translate(608.063 9693.318)" fill="#3c9de8"/>
    <g id="グループ_4503" data-name="グループ 4503" transform="translate(5708.782 21278.727)">
      <path id="パス_5102" data-name="パス 5102" d="M28.863,22.9a3.481,3.481,0,0,0,0,1.366,7.328,7.328,0,1,0,0-1.366m4.543.686c.188-3.492,5.445-3.52,5.445,0s-5.257,3.491-5.445,0" transform="translate(-5106.848 -11586)" fill="#fff"/>
      <path id="パス_5103" data-name="パス 5103" d="M24.4,48.472c0-3.563,1.024-6.49,5.088-6.937a42.523,42.523,0,0,1,4.557,0c1.475,0,3.013-.143,4.477,0,4.108.4,5.169,3.321,5.169,6.937,0,2.967,4.611,2.972,4.611,0,0-4.132-.972-7.981-4.8-10.223-2.88-1.686-6.255-1.325-9.453-1.325s-6.573-.361-9.453,1.325c-3.832,2.243-4.8,6.091-4.8,10.223,0,2.967,4.611,2.972,4.611,0" transform="translate(-5104.764 -11590.775)" fill="#fff"/>
    </g>
  </g>
</svg>
