<svg xmlns="http://www.w3.org/2000/svg" xmlns:xlink="http://www.w3.org/1999/xlink" width="60" height="60" viewBox="0 0 60 60">
  <defs>
    <clipPath id="clip-path">
      <rect id="長方形_580" data-name="長方形 580" width="38.015" height="32.381" fill="none"/>
    </clipPath>
  </defs>
  <g id="グループ_4588" data-name="グループ 4588" transform="translate(-220 -8338)">
    <rect id="長方形_467" data-name="長方形 467" width="60" height="60" rx="10" transform="translate(220 8338)" fill="#528cc2"/>
    <g id="グループ_4470" data-name="グループ 4470" transform="translate(230.993 8351.81)">
      <g id="グループ_4468" data-name="グループ 4468" clip-path="url(#clip-path)">
        <path id="パス_4982" data-name="パス 4982" d="M93.568,108.632H90.651a.1.1,0,0,0-.1.1V117.7a.1.1,0,0,0,.1.1h2.918a.1.1,0,0,0,.1-.1v-8.972a.1.1,0,0,0-.1-.1" transform="translate(-73.096 -87.687)" fill="#fff"/>
        <path id="パス_4983" data-name="パス 4983" d="M89.4,103.46c-.938,0-1.922-.093-2.855,0-1.006.1-1.122.844-1.122,1.655v6.974c0,.621-.17,1.581.282,2.084.634.705,2.286.378,3.126.378.925,0,1.6-.273,1.629-1.311.029-.936,0-1.878,0-2.815v-4.2c0-.764.212-1.889-.378-2.479a.965.965,0,0,0-1.364,1.364l.1.1-.282-.682v8.972l.282-.682-.1.1.682-.282H86.484l.682.282-.1-.1.282.682V104.52l-.282.682.1-.1-.682.282H89.4a.965.965,0,0,0,0-1.928" transform="translate(-68.929 -83.479)" fill="#fff"/>
        <path id="パス_4984" data-name="パス 4984" d="M5.068,106.263a2.126,2.126,0,0,0,2.126,2.126H39.016a2.126,2.126,0,0,0,2.126-2.126v-.77H5.068Z" transform="translate(-4.091 -85.154)" fill="#fff"/>
        <path id="パス_4985" data-name="パス 4985" d="M.059,102.227a3.177,3.177,0,0,0,3.227,3.09c.625.013,1.251,0,1.876,0h27.7c.674,0,1.353.022,2.027,0a3.241,3.241,0,0,0,2.081-.741,3.707,3.707,0,0,0,1.095-3.119.978.978,0,0,0-.964-.964H1.023a.978.978,0,0,0-.964.964v.77a.965.965,0,0,0,1.928,0v-.77l-.964.964H37.1l-.964-.964c0,1.069-.214,1.908-1.415,1.932-.637.013-1.275,0-1.912,0H3.919c-.857,0-1.86.007-1.932-1.162-.077-1.233-2.005-1.241-1.928,0" transform="translate(-0.045 -81.118)" fill="#fff"/>
        <path id="パス_4987" data-name="パス 4987" d="M34.925.017H12.812c-3.151,0-6.305-.039-9.456,0A3.2,3.2,0,0,0,.013,3.261c-.029,1.551,0,3.106,0,4.657V20.34a.978.978,0,0,0,.964.964H37.051a.978.978,0,0,0,.964-.964V3.7c0-1.941-.975-3.55-3.09-3.681-1.239-.077-1.235,1.851,0,1.928,1.3.081,1.162,1.311,1.162,2.234V20.34l.964-.964H.977l.964.964V4.228c0-1.031-.1-2.232,1.313-2.283,2.884-.1,5.79,0,8.675,0h23a.965.965,0,0,0,0-1.928" transform="translate(0 0)" fill="#fff"/>
        <path id="パス_4988" data-name="パス 4988" d="M54.062,48.867c1.056-.356,3.155-1.247,3.371-1.323a.59.59,0,0,0,.42-.585.817.817,0,0,0-.751-.814.769.769,0,0,0-.305.076c-1.348.636-2.671,1.247-3.995,1.832a1.053,1.053,0,0,0-.687.954,1.1,1.1,0,0,0,.687.98c.916.432,2.875,1.45,4.046,1.883a.664.664,0,0,0,.267.051.794.794,0,0,0,.738-.8.609.609,0,0,0-.42-.6c-.585-.216-2.43-.992-3.358-1.348-.127-.038-.242-.089-.242-.153,0-.038.064-.089.229-.153" transform="translate(-42.067 -37.248)" fill="#fff"/>
        <path id="パス_4989" data-name="パス 4989" d="M90.441,39.647a.6.6,0,0,0-.611.471c-.255.954-2,5.464-2.429,6.545a.646.646,0,0,0-.051.254.726.726,0,0,0,.738.674.638.638,0,0,0,.611-.445c.585-1.616,2.137-5.845,2.455-6.621a.59.59,0,0,0,.051-.242.72.72,0,0,0-.763-.636" transform="translate(-70.509 -32.003)" fill="#fff"/>
        <path id="パス_4990" data-name="パス 4990" d="M118.716,48.053c-1.323-.585-2.646-1.2-3.995-1.832a.767.767,0,0,0-.305-.076.817.817,0,0,0-.75.814.589.589,0,0,0,.42.585c.216.076,2.315.967,3.371,1.323.165.064.229.114.229.153,0,.063-.115.115-.242.153-.929.356-2.773,1.132-3.358,1.348a.609.609,0,0,0-.42.6.794.794,0,0,0,.738.8.665.665,0,0,0,.267-.051c1.17-.433,3.13-1.45,4.045-1.883a1.1,1.1,0,0,0,.687-.98,1.053,1.053,0,0,0-.687-.954" transform="translate(-91.751 -37.248)" fill="#fff"/>
        <path id="パス_4991" data-name="パス 4991" d="M67.516,148.521H55.306a2.782,2.782,0,0,0-2.782,2.782H70.3a2.782,2.782,0,0,0-2.782-2.782" transform="translate(-42.397 -119.886)" fill="#fff"/>
        <path id="パス_4992" data-name="パス 4992" d="M63.477,143.49H55.2c-1.247,0-2.5-.017-3.742,0a3.835,3.835,0,0,0-3.935,3.746.975.975,0,0,0,.964.964H66.258a.974.974,0,0,0,.964-.964,3.827,3.827,0,0,0-3.746-3.746c-1.24-.059-1.237,1.869,0,1.928a1.852,1.852,0,0,1,1.818,1.818l.964-.964H48.484l.964.964c.078-1.645,1.464-1.818,2.74-1.818H63.477a.965.965,0,0,0,0-1.928" transform="translate(-38.357 -115.818)" fill="#fff"/>
        <path id="パス_4993" data-name="パス 4993" d="M21.887,17.542a1.234,1.234,0,1,0,1.234,1.234,1.234,1.234,0,0,0-1.234-1.234" transform="translate(-16.671 -14.16)" fill="#fff"/>
        <path id="パス_4994" data-name="パス 4994" d="M44.893,17.542a1.234,1.234,0,1,0,1.234,1.234,1.234,1.234,0,0,0-1.234-1.234" transform="translate(-35.241 -14.16)" fill="#fff"/>
        <path id="パス_4995" data-name="パス 4995" d="M67.9,17.542a1.234,1.234,0,1,0,1.234,1.234A1.234,1.234,0,0,0,67.9,17.542" transform="translate(-53.812 -14.16)" fill="#fff"/>
      </g>
    </g>
  </g>
</svg>
