<svg xmlns="http://www.w3.org/2000/svg" width="60" height="60" viewBox="0 0 60 60">
  <g id="グループ_4593" data-name="グループ 4593" transform="translate(-799 -8569)">
    <rect id="長方形_472" data-name="長方形 472" width="60" height="60" rx="10" transform="translate(799 8569)" fill="#2772c5"/>
    <g id="グループ_4568" data-name="グループ 4568" transform="translate(810.835 8580.834)">
      <g id="グループ_4569" data-name="グループ 4569" transform="translate(0 0)">
        <path id="パス_5218" data-name="パス 5218" d="M11.982,35.254A18.189,18.189,0,0,0,33.826,8.886,18.388,18.388,0,0,0,14.65.324,18.371,18.371,0,0,0,0,18.16,18.418,18.418,0,0,0,11.982,35.254m.853-31.738a15.772,15.772,0,0,1,17.39,4.744,15.591,15.591,0,0,1-15.056,25.2A15.763,15.763,0,0,1,2.6,18.16,15.74,15.74,0,0,1,12.835,3.515" transform="translate(0 -0.001)" fill="#fff"/>
        <path id="パス_5219" data-name="パス 5219" d="M44.383,55.261l4.062,3.216a1.326,1.326,0,0,0,1.838,0l7.955-8.8c1.119-1.238-.713-3.082-1.838-1.838l-7.188,7.953L46.22,53.423c-1.3-1.027-3.149.8-1.838,1.838" transform="translate(-32.514 -35.098)" fill="#fff"/>
      </g>
    </g>
  </g>
</svg>
