<svg xmlns="http://www.w3.org/2000/svg" width="60" height="60" viewBox="0 0 60 60">
  <g id="イラスト" transform="translate(-8113 -3646)">
    <path id="パス_2228" data-name="パス 2228" d="M30,0A30,30,0,0,1,52.554,49.782,29.747,29.747,0,0,1,30,60,30,30,0,0,1,30,0Z" transform="translate(8113 3646)" fill="#96bf46"/>
    <g id="ショッピングカートのフリーアイコン7" transform="translate(8128.399 3662.493)">
      <path id="パス_2224" data-name="パス 2224" d="M31.924,7.333a3.748,3.748,0,0,0-2.718-1.5L11.42,4.447l-.174-.975A3.874,3.874,0,0,0,7.978.335L5.758.01a.968.968,0,0,0-1.1.806A.958.958,0,0,0,5.475,1.9h0l2.22.325A1.949,1.949,0,0,1,9.338,3.8l3.008,16.825a3.337,3.337,0,0,0,3.3,2.73H28.007a.956.956,0,1,0,0-1.912H15.644A1.406,1.406,0,0,1,14.255,20.3l-.278-1.558H27.615a3.726,3.726,0,0,0,3.641-2.858l1.3-5.538a3.642,3.642,0,0,0-.628-3.009ZM20.9,12.632v4.513H16.867V12.632Zm-4.036-1.275V6.471l4.036.316v4.57H16.867Zm5.328,1.275h4.036v4.513H22.195Zm0-1.275V6.888l4.036.316v4.154H22.195ZM15.575,6.37v4.987H12.656L11.71,6.068Zm-2.691,6.262h2.691v4.513H13.691Zm16.8,2.89a2.116,2.116,0,0,1-2.068,1.623h-.092V12.632h2.836Zm1.3-5.539-.388,1.66v-.287H27.523V7.3l1.555.121a2.126,2.126,0,0,1,1.543.849,2.074,2.074,0,0,1,.412,1.238A2.121,2.121,0,0,1,30.979,9.984Z" transform="translate(-4.648 0)" fill="#fff"/>
      <path id="パス_2225" data-name="パス 2225" d="M186.084,450.165a1.65,1.65,0,1,0,1.65,1.65A1.65,1.65,0,0,0,186.084,450.165Z" transform="translate(-174.362 -425.465)" fill="#fff"/>
      <path id="パス_2226" data-name="パス 2226" d="M352.273,450.165a1.65,1.65,0,1,0,1.65,1.65A1.65,1.65,0,0,0,352.273,450.165Z" transform="translate(-331.239 -425.465)" fill="#fff"/>
    </g>
  </g>
</svg>
