<svg xmlns="http://www.w3.org/2000/svg" width="60" height="60" viewBox="0 0 60 60">
  <g id="グループ_4606" data-name="グループ 4606" transform="translate(-223.125 -9783.318)">
    <rect id="長方形_477" data-name="長方形 477" width="60" height="60" rx="10" transform="translate(223.125 9783.318)" fill="#3c9de8"/>
    <g id="グループ_4564" data-name="グループ 4564" transform="translate(234.389 9798.977)">
      <g id="グループ_4565" data-name="グループ 4565" transform="translate(0 0)">
        <path id="パス_5214" data-name="パス 5214" d="M59.254,26.3a.843.843,0,0,0-.569.139h0a1.014,1.014,0,0,0,.569,1.772c1.733.141,1.578,1.73,1.578,2.978v4.239c0,1.2.051,2.412,0,3.611-.066,1.559-.971,2.031-2.457,2.031a.967.967,0,0,0-.825,1.438l.689,1.378-2.354-1.544A11.614,11.614,0,0,0,54.145,41.2a4.476,4.476,0,0,0-1.689-.13H44.863c-1.547,0-5.519.717-5.706-1.579a1.026,1.026,0,0,0-1.656-.7v0a.8.8,0,0,0-.255.7c.24,2.953,2.55,3.49,5,3.49h8.435a14.007,14.007,0,0,0,2.685.009,5.158,5.158,0,0,0,1.114.713l5.713,3.746c.853.56,1.706-.51,1.307-1.307l-1.659-3.317a3.4,3.4,0,0,0,2.9-3.333c.069-1.347,0-2.715,0-4.063,0-3.183,1.072-8.757-3.489-9.128" transform="translate(-25.381 -17.924)" fill="#fff"/>
        <path id="パス_5215" data-name="パス 5215" d="M33.769,15.754V10.068c0-1.688.158-3.792-2.177-3.965H9.559a4.533,4.533,0,0,0-2.566.378c-1.215.8-.954,2.465-.954,3.714v5.391c0,1.457-.034,2.919,0,4.376a3.049,3.049,0,0,0,.378,1.787c.679,1.024,1.842.954,2.908.954a1.033,1.033,0,0,1,.882,1.537l-1.155,2.31c1.754-1.178,3.512-2.352,5.311-3.448a2.909,2.909,0,0,1,1.768-.4h4.627c3.422,0,6.854.08,10.275,0,1.566-.037,2.656-.762,2.737-2.473.07-1.485,0-2.99,0-4.477m-20.416.2A1.053,1.053,0,1,1,14.406,14.9a1.053,1.053,0,0,1-1.053,1.053m4.524,0A1.053,1.053,0,1,1,18.929,14.9a1.053,1.053,0,0,1-1.053,1.053m4.523,0A1.053,1.053,0,1,1,23.453,14.9,1.053,1.053,0,0,1,22.4,15.955m4.523,0A1.053,1.053,0,1,1,27.976,14.9a1.053,1.053,0,0,1-1.053,1.053" transform="translate(-4.796 -4.961)" fill="#fff"/>
        <path id="パス_5216" data-name="パス 5216" d="M29.827,8.519h0c.145-3.463.405-7.981-3.759-8.453a1.031,1.031,0,0,0-.23-.026H7.572C5.04.04,1.814-.484.436,2.247A8.046,8.046,0,0,0,.026,5.9v5.694c0,1.278-.061,2.572,0,3.849a3.876,3.876,0,0,0,3.507,3.814L1.471,23.38c-.4.8.453,1.868,1.307,1.307,2.571-1.686,5.352-3.224,7.783-5.1a2.689,2.689,0,0,1,.278-.167,7.1,7.1,0,0,0,1.281-.027v0l.064,0H23.57a13.793,13.793,0,0,0,3.173-.114c4.013-.978,3.042-6.179,3.042-9.242,0-.466.02-.978.042-1.513m-1.953,6.646a2.287,2.287,0,0,1-2.56,2.313c-3.2.075-6.41,0-9.61,0H11.377a2.718,2.718,0,0,0-1.654.374C8.039,18.877,6.4,19.975,4.755,21.077l1.081-2.161a.967.967,0,0,0-.825-1.438c-1,0-2.085.066-2.72-.892a2.852,2.852,0,0,1-.354-1.671c-.032-1.363,0-2.73,0-4.093V5.779c0-1.169-.244-2.721.893-3.474a4.24,4.24,0,0,1,2.4-.354H25.838c2.184.162,2.036,2.129,2.036,3.708v5.318c0,1.391.065,2.8,0,4.187" transform="translate(0 0)" fill="#fff"/>
      </g>
    </g>
  </g>
</svg>
