<svg xmlns="http://www.w3.org/2000/svg" width="60" height="60" viewBox="0 0 60 60">
  <g id="グループ_4610" data-name="グループ 4610" transform="translate(-928 -9693)">
    <rect id="長方形_683" data-name="長方形 683" width="60" height="60" rx="10" transform="translate(928 9693)" fill="#3c9de8"/>
    <g id="グループ_4551" data-name="グループ 4551" transform="translate(939.186 9699.982)">
      <g id="グループ_4552" data-name="グループ 4552" transform="translate(7.101 8.336)">
        <path id="パス_5194" data-name="パス 5194" d="M64.788,55.539l-3.529-3.156c-1.159-1.037-2.279-2.228-3.529-3.156a2.142,2.142,0,0,0-1.461-.293H42.684a1.015,1.015,0,0,0-1,1V77.294a1.015,1.015,0,0,0,1,1h21.4a1.015,1.015,0,0,0,1-1V56.412a.85.85,0,0,0-.293-.873m-21.1-4.6H56.643l6.437,5.757v19.6h-19.4V50.936Z" transform="translate(-41.683 -48.931)" fill="#fff"/>
        <path id="パス_5195" data-name="パス 5195" d="M70.531,104.872H80.982a1,1,0,0,0,0-2H70.531a1,1,0,0,0,0,2" transform="translate(-63.985 -92.077)" fill="#fff"/>
        <path id="パス_5196" data-name="パス 5196" d="M71.064,126.189H81.515a1,1,0,0,0,0-2H71.064a1,1,0,0,0,0,2" transform="translate(-64.411 -109.128)" fill="#fff"/>
        <path id="パス_5197" data-name="パス 5197" d="M82.048,145.505H71.6a1,1,0,0,0,0,2H82.048a1,1,0,0,0,0-2" transform="translate(-64.837 -126.179)" fill="#fff"/>
      </g>
    </g>
  </g>
</svg>
