<svg xmlns="http://www.w3.org/2000/svg" xmlns:xlink="http://www.w3.org/1999/xlink" width="60" height="60" viewBox="0 0 60 60">
  <defs>
    <clipPath id="clip-path">
      <rect id="長方形_660" data-name="長方形 660" width="60" height="60" fill="none"/>
    </clipPath>
  </defs>
  <g id="グループ_4537" data-name="グループ 4537" transform="translate(0 0.001)">
    <rect id="長方形_659" data-name="長方形 659" width="60" height="60" rx="10" transform="translate(0 -0.001)" fill="#f7df1e"/>
    <g id="グループ_4536" data-name="グループ 4536" transform="translate(0 -0.001)">
      <g id="グループ_4535" data-name="グループ 4535" clip-path="url(#clip-path)">
        <path id="パス_5118" data-name="パス 5118" d="M198.435,365.341l4.591-2.779c.886,1.571,1.692,2.9,3.625,2.9,1.853,0,3.021-.725,3.021-3.544V342.746h5.638V362c0,5.84-3.423,8.5-8.418,8.5a8.751,8.751,0,0,1-8.458-5.155m19.938-.6,4.591-2.658c1.209,1.974,2.779,3.424,5.558,3.424,2.336,0,3.826-1.168,3.826-2.779,0-1.933-1.53-2.618-4.108-3.745l-1.409-.6c-4.068-1.731-6.766-3.906-6.766-8.5,0-4.229,3.222-7.451,8.257-7.451,3.585,0,6.162,1.249,8.015,4.511l-4.39,2.82c-.967-1.732-2.014-2.416-3.625-2.416a2.453,2.453,0,0,0-2.7,2.416c0,1.691,1.047,2.377,3.464,3.424l1.41.6c4.793,2.054,7.491,4.148,7.491,8.86,0,5.075-3.987,7.854-9.344,7.854-5.236,0-8.619-2.5-10.27-5.76" transform="translate(-182.659 -315.201)"/>
      </g>
    </g>
  </g>
</svg>
