<svg xmlns="http://www.w3.org/2000/svg" width="60" height="60" viewBox="0 0 60 60">
  <g id="グループ_4589" data-name="グループ 4589" transform="translate(-220 -8565)">
    <rect id="長方形_469" data-name="長方形 469" width="60" height="60" rx="10" transform="translate(220 8565)" fill="#f86241"/>
    <g id="グループ_4527" data-name="グループ 4527" transform="translate(-62 8515)">
      <path id="パス_5107" data-name="パス 5107" d="M312.111,58.431a22.31,22.31,0,0,0-6.92,43.373c1.094.206,1.5-.483,1.5-1.071,0-.53-.02-2.284-.03-4.143-6.09,1.347-7.375-2.626-7.375-2.626a5.87,5.87,0,0,0-2.43-3.256c-1.986-1.381.15-1.353.15-1.353a4.61,4.61,0,0,1,3.355,2.294c1.952,3.4,5.121,2.419,6.37,1.85a4.771,4.771,0,0,1,1.39-2.976c-4.862-.562-9.973-2.471-9.973-11A8.693,8.693,0,0,1,300.4,73.55a8.122,8.122,0,0,1,.212-5.89s1.838-.6,6.021,2.282a20.425,20.425,0,0,1,10.963,0c4.178-2.879,6.014-2.282,6.014-2.282a8.111,8.111,0,0,1,.215,5.89,8.676,8.676,0,0,1,2.253,5.973c0,8.548-5.121,10.43-10,10.981a5.368,5.368,0,0,1,1.485,4.121c0,2.978-.025,5.374-.025,6.107,0,.593.394,1.287,1.5,1.068a22.311,22.311,0,0,0-6.933-43.37Z" transform="translate(0 0)" fill="#fff" fill-rule="evenodd"/>
      <path id="パス_5108" data-name="パス 5108" d="M311.855,144.351c-.031.071-.142.092-.243.043s-.16-.142-.127-.213.141-.093.244-.044.161.143.126.214Zm-.174-.129" transform="translate(-16.273 -53.973)" fill="#fff"/>
      <path id="パス_5109" data-name="パス 5109" d="M314.323,146.581c-.068.062-.2.033-.289-.065a.216.216,0,0,1-.041-.294c.07-.063.2-.033.29.065s.111.231.04.294Zm-.135-.145" transform="translate(-15.083 -55.231)" fill="#fff"/>
      <path id="パス_5110" data-name="パス 5110" d="M316.676,149.759c-.087.06-.229,0-.316-.122s-.087-.277,0-.338.228-.006.316.119.086.279,0,.341Zm0,0" transform="translate(-16.569 -57.136)" fill="#fff"/>
      <path id="パス_5111" data-name="パス 5111" d="M319.6,153.175c-.078.086-.243.062-.364-.054a.272.272,0,0,1-.08-.362c.079-.086.245-.061.367.054s.16.277.078.362Zm0,0" transform="translate(-18.347 -56.377)" fill="#fff"/>
      <path id="パス_5112" data-name="パス 5112" d="M323.748,155.642c-.034.111-.193.161-.354.114s-.265-.178-.233-.29.193-.164.355-.114.265.177.232.29Zm0,0" transform="translate(-20.905 -58.387)" fill="#fff"/>
      <path id="パス_5113" data-name="パス 5113" d="M328.637,156.338c0,.117-.132.214-.3.216s-.306-.091-.308-.206.133-.214.3-.217.306.091.306.206Zm0,0" transform="translate(-23.997 -58.999)" fill="#fff"/>
      <path id="パス_5114" data-name="パス 5114" d="M333.252,155.7c.02.114-.1.231-.264.262s-.316-.04-.337-.153.1-.234.263-.264.317.039.338.155Zm0,0" transform="translate(-26.929 -58.546)" fill="#fff"/>
    </g>
  </g>
</svg>
