<svg xmlns="http://www.w3.org/2000/svg" xmlns:xlink="http://www.w3.org/1999/xlink" width="60" height="60" viewBox="0 0 60 60">
  <defs>
    <clipPath id="clip-path">
      <rect id="長方形_676" data-name="長方形 676" width="32.68" height="27.837" fill="#fff"/>
    </clipPath>
  </defs>
  <g id="グループ_4607" data-name="グループ 4607" transform="translate(-223.125 -9873.318)">
    <rect id="長方形_478" data-name="長方形 478" width="60" height="60" rx="10" transform="translate(223.125 9873.318)" fill="#3c9de8"/>
    <g id="グループ_4545" data-name="グループ 4545" transform="translate(236.785 9889.9)">
      <g id="グループ_4544" data-name="グループ 4544" clip-path="url(#clip-path)">
        <path id="パス_5144" data-name="パス 5144" d="M93.145,108.632H90.637a.083.083,0,0,0-.082.082v7.713a.083.083,0,0,0,.082.082h2.508a.083.083,0,0,0,.082-.082v-7.713a.083.083,0,0,0-.082-.082" transform="translate(-75.546 -90.626)" fill="#fff"/>
        <path id="パス_5145" data-name="パス 5145" d="M88.839,103.454c-.807,0-1.652-.08-2.454,0-.865.086-.965.725-.965,1.423v6c0,.534-.146,1.359.243,1.792.545.606,1.965.325,2.687.325.8,0,1.373-.235,1.4-1.127.025-.805,0-1.615,0-2.42v-3.614c0-.657.182-1.624-.325-2.131a.829.829,0,0,0-1.172,1.172l.083.082-.243-.586v7.713l.243-.586-.083.082.586-.243H86.331l.586.243-.082-.082.243.586v-7.713l-.243.586.082-.082-.586.243h2.508a.829.829,0,0,0,0-1.657" transform="translate(-71.239 -86.277)" fill="#fff"/>
        <path id="パス_5146" data-name="パス 5146" d="M5.068,106.155A1.827,1.827,0,0,0,6.9,107.983H34.252a1.827,1.827,0,0,0,1.827-1.827v-.662H5.068Z" transform="translate(-4.228 -88.008)" fill="#fff"/>
        <path id="パス_5147" data-name="パス 5147" d="M.058,101.984a2.731,2.731,0,0,0,2.774,2.656c.537.011,1.075,0,1.612,0h23.81c.58,0,1.163.019,1.743,0A2.786,2.786,0,0,0,31.786,104a3.187,3.187,0,0,0,.941-2.681.841.841,0,0,0-.829-.829H.887a.841.841,0,0,0-.829.829v.662a.829.829,0,0,0,1.657,0v-.662l-.829.829H31.9l-.829-.829c0,.919-.184,1.64-1.216,1.661-.547.011-1.1,0-1.644,0H3.377c-.737,0-1.6.006-1.661-1-.066-1.06-1.724-1.067-1.657,0" transform="translate(-0.047 -83.837)" fill="#fff"/>
        <path id="パス_5149" data-name="パス 5149" d="M30.024.015H11.014c-2.709,0-5.42-.033-8.129,0A2.75,2.75,0,0,0,.011,2.8c-.025,1.333,0,2.67,0,4V17.485a.841.841,0,0,0,.829.829H31.851a.841.841,0,0,0,.829-.829V3.179c0-1.669-.838-3.051-2.656-3.164-1.065-.066-1.061,1.592,0,1.657,1.117.069,1,1.127,1,1.92V17.485l.829-.829H.84l.829.829V3.635c0-.887-.086-1.919,1.129-1.963,2.479-.089,4.977,0,7.458,0H30.024a.829.829,0,0,0,0-1.657" transform="translate(0 0)" fill="#fff"/>
        <path id="パス_5153" data-name="パス 5153" d="M65.413,148.521h-10.5a2.391,2.391,0,0,0-2.391,2.391H67.8a2.391,2.391,0,0,0-2.391-2.391" transform="translate(-43.818 -123.904)" fill="#fff"/>
        <path id="パス_5154" data-name="パス 5154" d="M61.237,143.489H54.12c-1.072,0-2.145-.014-3.217,0a3.3,3.3,0,0,0-3.383,3.22.838.838,0,0,0,.829.829h15.28a.837.837,0,0,0,.829-.829,3.29,3.29,0,0,0-3.22-3.22c-1.066-.051-1.064,1.607,0,1.657a1.592,1.592,0,0,1,1.563,1.563l.829-.829H48.349l.829.829c.067-1.414,1.259-1.563,2.356-1.563h9.7a.829.829,0,0,0,0-1.657" transform="translate(-39.643 -119.7)" fill="#fff"/>
      </g>
    </g>
  </g>
</svg>
