<svg id="グループ_4465" data-name="グループ 4465" xmlns="http://www.w3.org/2000/svg" xmlns:xlink="http://www.w3.org/1999/xlink" width="45" height="43.356" viewBox="0 0 45 43.356">
  <defs>
    <clipPath id="clip-path">
      <rect id="長方形_578" data-name="長方形 578" width="45" height="43.357" fill="none"/>
    </clipPath>
    <clipPath id="clip-path-2">
      <circle id="楕円形_410" data-name="楕円形 410" cx="21.678" cy="21.678" r="21.678" fill="none"/>
    </clipPath>
  </defs>
  <g id="グループ_4462" data-name="グループ 4462">
    <g id="グループ_4461" data-name="グループ 4461" clip-path="url(#clip-path)">
      <path id="パス_4936" data-name="パス 4936" d="M25.28,0A21.678,21.678,0,1,0,46.959,21.678,21.678,21.678,0,0,0,25.28,0" transform="translate(-2.734)" fill="#ebebeb"/>
    </g>
  </g>
  <g id="グループ_4464" data-name="グループ 4464" transform="translate(0.868)">
    <g id="グループ_4463" data-name="グループ 4463" clip-path="url(#clip-path-2)">
      <path id="パス_4937" data-name="パス 4937" d="M121.823,16.994c-.042-.023-.048-.008,0,0" transform="translate(-93.321 -12.891)" fill="#78c8e6"/>
      <path id="パス_4938" data-name="パス 4938" d="M78.546,59.679l.062-.027.076-.059a.9.9,0,0,1-.138.086" transform="translate(-60.494 -45.239)" fill="#78c8e6"/>
      <path id="パス_4939" data-name="パス 4939" d="M116.088,38.219a.242.242,0,0,0,.012.062l0,0a.512.512,0,0,1-.014-.064" transform="translate(-88.993 -29.013)" fill="#78c8e6"/>
      <path id="パス_4940" data-name="パス 4940" d="M58.641,23.62a13.95,13.95,0,0,0,1.941-1.7A32.209,32.209,0,0,0,62.963,19.2c1.136-1.448,1.973-3.379,3.662-4.276a3.777,3.777,0,0,1,2.923-.269,3.462,3.462,0,0,1,1.21.6c.205.177.4.364.6.545a3.712,3.712,0,0,1,1.146,1.278c.391.968.707,1.967,1,2.968.324,1.1.616,2.214.882,3.331.034-.017.071-.031.1-.048a2.456,2.456,0,0,0,.926-1.1,4.207,4.207,0,0,0,.134-3.392c-.292-1.018-.516-2.054-.863-3.057a4.188,4.188,0,0,0-1.517-2.413c-.283-.149-.6-.11-.864-.291-.306-.21-.6-.445-.9-.668-.328-.246-.559-.582-.911-.808a5.524,5.524,0,0,0-1.6-.667A8.426,8.426,0,0,0,61.7,12.115a11.879,11.879,0,0,0-2.637,2.778,9.333,9.333,0,0,0-1.745,3.752,6.483,6.483,0,0,0,.75,4c.178.33.376.652.575.972" transform="translate(-44.325 -8.051)" fill="#78c8e6"/>
      <path id="パス_4941" data-name="パス 4941" d="M107.316,125.694l-2.582.991-2.321.89a.6.6,0,0,1,.047.1l.836,2.434.256-.093,4.673-1.7-.909-2.626" transform="translate(-78.612 -95.418)" fill="#fff"/>
      <path id="パス_4942" data-name="パス 4942" d="M70.871,128.17l-4.864-1.7a.613.613,0,0,1-.313.014.465.465,0,0,1-.185-.088l-.52,2.488.389.127,4.79,1.563.7-2.405" transform="translate(-50.203 -95.952)" fill="#fff"/>
      <path id="パス_4943" data-name="パス 4943" d="M126.329,144.814a.519.519,0,0,1,.284.007l1.941.575q.191-1.5.382-2.995a.784.784,0,0,1,.036-.138q-.746-.346-1.5-.681a24.633,24.633,0,0,0-1.146,3.232" transform="translate(-96.768 -107.479)" fill="#78c8e6"/>
      <path id="パス_4944" data-name="パス 4944" d="M14.713,151.162a1.88,1.88,0,0,1-.331-1.283A1.217,1.217,0,0,1,15.4,149.1c.152-.037.3-.077.454-.117a.411.411,0,0,1-.014-.139l.041-.478.225-2.612c-.407.161-.821.308-1.223.465q-1.427.558-2.856,1.112c-.878.343-1.756.686-2.629,1.042a10.606,10.606,0,0,0-1.957.94A7.554,7.554,0,0,0,4.66,153.8H16.225c-.281-.549-.614-1.073-.929-1.6-.2-.34-.4-.681-.584-1.034" transform="translate(-4.405 -110.649)" fill="#78c8e6"/>
      <path id="パス_4945" data-name="パス 4945" d="M51.336,142.385q-.013.148-.026.3l-.271,3.145c.566-.173,1.13-.343,1.707-.483.679-.165.966.881.288,1.045-.638.155-1.264.341-1.89.537-.3.094-.607.183-.914.264-.2.053-.4.1-.6.152l-.049.014c.047.1.081.234.124.32.069.139.142.275.217.411.179.324.369.642.56.96a15.645,15.645,0,0,1,1.008,1.83.747.747,0,0,1,.026.073H55.3c-1.219-2.931-2.049-6.01-3.261-8.943-.233.129-.468.255-.7.38" transform="translate(-38.503 -107.8)" fill="#78c8e6"/>
      <path id="パス_4946" data-name="パス 4946" d="M123.718,160.5a1.745,1.745,0,0,0,.178-.4c.008-.034.014-.13.02-.138s-.029-.032-.04-.041a1.008,1.008,0,0,0-.351-.141c-.2-.062-.405-.12-.607-.18l-2.418-.716a.529.529,0,0,1-.251-.157,36.986,36.986,0,0,1-1.594,4.917h3.5a.589.589,0,0,1,.029-.073c.53-1.014,1.011-2.052,1.537-3.068" transform="translate(-90.941 -120.488)" fill="#78c8e6"/>
      <path id="パス_4947" data-name="パス 4947" d="M90.544,154.1a42.763,42.763,0,0,0-1.3,6.03h3.188c-.469-1.991-.51-4.063-1.1-6.03Z" transform="translate(-68.616 -116.982)" fill="#78c8e6"/>
      <path id="パス_4948" data-name="パス 4948" d="M70.251,143.005a.491.491,0,0,1-.385.042L69.1,142.8l-4.8-1.565c1.2,2.983,2.029,6.105,3.308,9.056a.624.624,0,0,1,.024.073H69.22a43.107,43.107,0,0,1,1.394-6.486l-.363-.87" transform="translate(-49.68 -107.213)" fill="#fff"/>
      <path id="パス_4949" data-name="パス 4949" d="M107.832,141.468l-5.053,1.837a.491.491,0,0,1-.527-.154l-.272.849c.688,2.126.676,4.388,1.233,6.54h1.608a.6.6,0,0,1,.026-.073c1.363-2.86,1.785-6.075,2.984-9" transform="translate(-78.284 -107.392)" fill="#fff"/>
      <path id="パス_4950" data-name="パス 4950" d="M146.765,150.594c-.5-.363-1.044-.669-1.572-.982-1.148-.68-2.324-1.314-3.512-1.922q-1.342-.687-2.7-1.333-.179,1.406-.359,2.812a.789.789,0,0,1-.041.155,2.056,2.056,0,0,1,.929.474,1.249,1.249,0,0,1,.233,1.284,16.348,16.348,0,0,1-.92,1.892c-.211.426-.422.853-.636,1.278h10.541a24.527,24.527,0,0,0-1.065-2.551,3.352,3.352,0,0,0-.894-1.107" transform="translate(-105.766 -111.104)" fill="#78c8e6"/>
      <path id="パス_4951" data-name="パス 4951" d="M111.9,59.859a1.075,1.075,0,0,1-.131-.088l.094.072.037.016" transform="translate(-85.712 -45.374)" fill="#78c8e6"/>
      <path id="パス_4952" data-name="パス 4952" d="M116.175,38.508a.222.222,0,0,1-.028-.023l0,.008c.037.095.118.071.026.015" transform="translate(-89.038 -29.215)" fill="#78c8e6"/>
      <path id="パス_4953" data-name="パス 4953" d="M93.077,135.084a1.855,1.855,0,0,1-1.1.018l-.542,1.858a.742.742,0,0,1,.034.068l.647,1.552h.906l.54-1.686a.585.585,0,0,1,.083-.162l-.563-1.638s0-.007,0-.01" transform="translate(-70.277 -102.546)" fill="#78c8e6"/>
      <path id="パス_4954" data-name="パス 4954" d="M65.955,52.706a7.8,7.8,0,0,0,5.165-5.542c.17-.626.265-1.27.414-1.9a.753.753,0,0,1,.391-.531,7.036,7.036,0,0,0,1.054-.7,2.619,2.619,0,0,0,.912-2.278,1.765,1.765,0,0,0-.386-1.08.593.593,0,0,0-.745-.152.564.564,0,0,1-.928-.334.461.461,0,0,1-.247-.319c-.329-1.449-.712-2.889-1.141-4.31-.149-.492-.3-.982-.472-1.467q-.12-.349-.25-.695a4.309,4.309,0,0,1-.2-.47l0-.01c-.025-.022-.049-.046-.071-.066l-.313-.283-.7-.632A3.651,3.651,0,0,0,68,31.576a2.986,2.986,0,0,0-1.368-.42,3.091,3.091,0,0,0-2.385,1.086,17.564,17.564,0,0,0-1.508,2.1c-.567.8-1.175,1.565-1.809,2.309-.081.1-.165.192-.248.288l.054-.008A3.416,3.416,0,0,1,62.2,37.1a.554.554,0,0,1,.379.667.546.546,0,0,1-.667.378,3.562,3.562,0,0,0-.533-.129,2.759,2.759,0,0,0-.574,0,1.854,1.854,0,0,0-.278.062l-.006,0c-.03.018-.047.03-.015.005l-.038.013-.014,0a.561.561,0,0,1-.234.066A.547.547,0,0,1,59.836,38a.44.44,0,0,1-.051-.061,13.689,13.689,0,0,1-2.95,2.505.548.548,0,0,1-.683-.117.861.861,0,0,0-1.079.161,2.081,2.081,0,0,0-.344,1.216,2.794,2.794,0,0,0,1.959,2.852.525.525,0,0,1,.379.379c.129.734.228,1.484.427,2.2a8.183,8.183,0,0,0,2.046,3.512,6.716,6.716,0,0,0,6.416,2.052m2.06-12.232a.542.542,0,0,1,0-1.084.542.542,0,0,1,0,1.084m-1.1-3.291a3.555,3.555,0,0,1,1.442-.191,2.54,2.54,0,0,1,.5.087,1.134,1.134,0,0,1,.385.2.521.521,0,0,1,.159.383.545.545,0,0,1-.159.383.551.551,0,0,1-.383.159.484.484,0,0,1-.23-.058l-.038-.012h0a1.446,1.446,0,0,0-.213-.054,2.706,2.706,0,0,0-.569,0,3.844,3.844,0,0,0-.6.144.542.542,0,0,1-.288-1.045m-2.33,6.777a.542.542,0,0,1,0,1.084.542.542,0,0,1,0-1.084m-2.317,3.425a.548.548,0,0,1,.742-.195,2.513,2.513,0,0,0,.356.192l.006,0,.107.038c.066.022.132.043.2.061a4.271,4.271,0,0,0,.447.093l.027,0,.1.009q.111.009.223.012a3.986,3.986,0,0,0,.471-.015l.078-.009.046-.007q.119-.02.236-.049c.069-.017.138-.037.2-.059l.088-.031.07-.028.053-.026.079-.042a2.187,2.187,0,0,0,.187-.118.547.547,0,0,1,.741.195.556.556,0,0,1-.194.741,3.489,3.489,0,0,1-2.06.532,3.888,3.888,0,0,1-2.01-.558.552.552,0,0,1-.194-.741m-.9-7.995a.542.542,0,0,1,0,1.084.542.542,0,0,1,0-1.084" transform="translate(-42.413 -23.648)" fill="#fff"/>
      <path id="パス_4955" data-name="パス 4955" d="M76.374,118.645a2.765,2.765,0,0,1,.429.15.466.466,0,0,0,.064.022c-.219-.081-.014-.019.118-.019.082,0,.168-.005.251,0,.012,0,.024-.008.035-.013a4.137,4.137,0,0,1,.42-.161l4.928-1.891c-.073-.592-.13-1.185-.178-1.78a8.12,8.12,0,0,1-3.379,2.29,7.226,7.226,0,0,1-5.614-.517,8.916,8.916,0,0,1-2.241-1.662,16.032,16.032,0,0,1-.133,1.732l1.753.612,3.548,1.239" transform="translate(-54.821 -87.263)" fill="#fff"/>
      <path id="パス_4956" data-name="パス 4956" d="M108.243,65.351a.542.542,0,0,0,0,1.084.542.542,0,0,0,0-1.084" transform="translate(-82.641 -49.61)" fill="#323264"/>
      <path id="パス_4957" data-name="パス 4957" d="M93.985,85.4a.542.542,0,0,0,0-1.084.542.542,0,0,0,0,1.084" transform="translate(-71.817 -64.011)" fill="#323264"/>
      <path id="パス_4958" data-name="パス 4958" d="M85.981,98.432a3.887,3.887,0,0,0,2.01.558,3.489,3.489,0,0,0,2.06-.532.556.556,0,0,0,.195-.742.547.547,0,0,0-.742-.194c-.061.042-.123.082-.187.118l-.079.042-.053.026-.07.028-.088.031c-.068.022-.136.041-.2.059s-.157.036-.236.049l-.046.007-.078.009a4.034,4.034,0,0,1-.471.015q-.112,0-.223-.012l-.1-.009-.027,0a4.28,4.28,0,0,1-.446-.093q-.1-.027-.2-.061l-.107-.038-.006,0a2.538,2.538,0,0,1-.356-.192.542.542,0,0,0-.547.936" transform="translate(-65.936 -73.955)" fill="#323264"/>
      <path id="パス_4959" data-name="パス 4959" d="M80.631,66.435a.542.542,0,0,0,0-1.084.542.542,0,0,0,0,1.084" transform="translate(-61.68 -49.61)" fill="#323264"/>
      <path id="パス_4960" data-name="パス 4960" d="M104.332,56.588a3.855,3.855,0,0,1,.6-.144,2.719,2.719,0,0,1,.569,0,1.442,1.442,0,0,1,.213.054h0l.038.012a.486.486,0,0,0,.23.058.552.552,0,0,0,.383-.159.546.546,0,0,0,.159-.383.523.523,0,0,0-.159-.383,1.13,1.13,0,0,0-.385-.2,2.547,2.547,0,0,0-.5-.087,3.556,3.556,0,0,0-1.441.191.542.542,0,1,0,.288,1.045m1.4-.094-.037-.016-.094-.072a1.074,1.074,0,0,0,.131.088" transform="translate(-79.545 -42.009)" fill="#323264"/>
      <path id="パス_4961" data-name="パス 4961" d="M44.973,47.651c-.428-.879-.676-1.836-1.113-2.713a5.566,5.566,0,0,0-.9-1.341,6.639,6.639,0,0,0-1.4-1.009,70.939,70.939,0,0,0-6.979-3.712q-1.428-.678-2.874-1.316a.578.578,0,0,0-.073-.024c0-.018-.007-.035-.013-.053L30.423,34a.548.548,0,0,0-.667-.379l-.052.02c-.091-.808-.164-1.619-.212-2.43a.617.617,0,0,0-.05-.208c.069-.108.142-.214.207-.324a13.351,13.351,0,0,0,1.371-4.141,5.66,5.66,0,0,0,1.591-1.22,3.625,3.625,0,0,0,.82-2.271,2.972,2.972,0,0,0-.773-2.283,1.817,1.817,0,0,0-.554-.355,4.411,4.411,0,0,0,.849-1.217,4.857,4.857,0,0,0,.557-2.037,7.023,7.023,0,0,0-.367-2.088c-.277-.967-.492-1.949-.811-2.9a6.8,6.8,0,0,0-1.5-2.785,2.433,2.433,0,0,0-1.207-.667,1.7,1.7,0,0,0-.2-.029L29.4,8.662c-.154-.14-.341-.254-.508-.379a3.735,3.735,0,0,1-.425-.317,5.268,5.268,0,0,0-.41-.438,5.391,5.391,0,0,0-1.6-.89,9.622,9.622,0,0,0-8.06.6,11.6,11.6,0,0,0-3.087,2.775,12.824,12.824,0,0,0-2.272,3.945,7.112,7.112,0,0,0,.191,4.749,10.049,10.049,0,0,0,.665,1.378,1.639,1.639,0,0,0-.933.375,2.754,2.754,0,0,0-.851,1.916,4.007,4.007,0,0,0,2.414,4.081,12.485,12.485,0,0,0,1.019,3.557,9.266,9.266,0,0,0,.635,1.063.5.5,0,0,0-.008.084c.007.4,0,.8-.011,1.2-.011.364-.029.728-.059,1.091-.008.1-.019.194-.029.29l-.143-.05a.546.546,0,0,0-.667.379l-.7,3.371a.638.638,0,0,0-.25.156c-.494.275-.987.552-1.491.8-1.027.514-2.443.969-3.615,1.424-1.326.515-2.653,1.026-3.967,1.57A8.218,8.218,0,0,0,2.253,43.24,9.814,9.814,0,0,0,0,47.724H1.122a7.554,7.554,0,0,1,2.784-4.48,10.623,10.623,0,0,1,1.957-.94c.873-.356,1.75-.7,2.628-1.042Q9.92,40.7,11.348,40.15c.4-.157.816-.3,1.223-.465q-.113,1.306-.225,2.612-.021.239-.041.478a.4.4,0,0,0,.014.139c-.151.04-.3.08-.454.117a1.217,1.217,0,0,0-1.021.776,1.882,1.882,0,0,0,.331,1.283c.18.352.382.694.584,1.034.314.528.648,1.052.928,1.6h1.188c-.008-.024-.016-.049-.026-.073a15.627,15.627,0,0,0-1.008-1.83c-.19-.318-.381-.636-.56-.96-.075-.135-.148-.272-.217-.411-.042-.086-.077-.22-.124-.32l.049-.015c.2-.056.4-.1.6-.152q.46-.121.913-.264c.627-.2,1.252-.382,1.89-.537.678-.164.391-1.21-.288-1.045-.576.139-1.141.31-1.707.483l.271-3.145.025-.3c.235-.125.47-.251.7-.38,1.212,2.933,2.042,6.011,3.261,8.943H18.82a.624.624,0,0,0-.024-.073c-1.279-2.951-2.111-6.073-3.308-9.056l4.8,1.565.768.251a.492.492,0,0,0,.385-.042l.363.87a43.114,43.114,0,0,0-1.394,6.486H21.5a42.764,42.764,0,0,1,1.3-6.03h.789c.59,1.966.631,4.039,1.1,6.03H25.8c-.557-2.152-.545-4.414-1.233-6.54l.272-.849a.492.492,0,0,0,.527.154l5.053-1.837c-1.2,2.925-1.622,6.139-2.984,9a.629.629,0,0,0-.026.073h1.175a37.035,37.035,0,0,0,1.594-4.917.53.53,0,0,0,.251.157l2.418.716c.2.06.406.118.608.18A1.01,1.01,0,0,1,33.8,44c.011.009.032.034.04.041s-.011.1-.019.138a1.756,1.756,0,0,1-.178.4c-.525,1.016-1.007,2.054-1.537,3.068a.541.541,0,0,0-.029.073h1.206c.215-.425.425-.851.636-1.278a16.313,16.313,0,0,0,.92-1.892,1.249,1.249,0,0,0-.233-1.284,2.056,2.056,0,0,0-.929-.474.787.787,0,0,0,.041-.155q.179-1.406.359-2.812,1.361.647,2.7,1.333c1.188.608,2.363,1.242,3.512,1.922.528.313,1.077.619,1.572.982a3.349,3.349,0,0,1,.894,1.107,24.576,24.576,0,0,1,1.065,2.551H45a.556.556,0,0,0-.027-.073M29.37,8.679c-.024,0-.035-.01-.034-.012s.01.008.034.012M13.858,15.169A9.332,9.332,0,0,1,15.6,11.417,11.875,11.875,0,0,1,18.24,8.639a8.426,8.426,0,0,1,7.209-1.184,5.524,5.524,0,0,1,1.6.667c.352.226.583.562.911.808.3.223.59.458.9.668.263.18.581.142.864.291A4.186,4.186,0,0,1,31.235,12.3c.347,1,.571,2.038.863,3.056a4.207,4.207,0,0,1-.134,3.392,2.455,2.455,0,0,1-.926,1.1c-.034.018-.07.032-.1.048-.266-1.117-.558-2.23-.882-3.331-.295-1-.611-2-1-2.968A3.712,3.712,0,0,0,27.9,12.321c-.2-.182-.4-.369-.6-.545a3.458,3.458,0,0,0-1.21-.6,3.777,3.777,0,0,0-2.923.269c-1.689.9-2.526,2.828-3.662,4.276a32.125,32.125,0,0,1-2.382,2.722,13.934,13.934,0,0,1-1.941,1.7c-.2-.32-.4-.641-.575-.972a6.482,6.482,0,0,1-.75-4m5.2,3.761-.076.059-.062.027a.937.937,0,0,0,.138-.086m-3.109,9.139c-.2-.719-.3-1.469-.428-2.2a.525.525,0,0,0-.379-.379,2.794,2.794,0,0,1-1.959-2.852,2.079,2.079,0,0,1,.344-1.216.861.861,0,0,1,1.079-.161.549.549,0,0,0,.684.117,13.714,13.714,0,0,0,2.95-2.505.42.42,0,0,0,.051.061.547.547,0,0,0,.383.159.556.556,0,0,0,.234-.066l.014,0,.038-.013c-.032.025-.014.012.015-.005l.006,0a1.828,1.828,0,0,1,.278-.062,2.759,2.759,0,0,1,.574,0,3.538,3.538,0,0,1,.533.13.547.547,0,0,0,.667-.379.554.554,0,0,0-.378-.667,3.414,3.414,0,0,0-1.464-.169l-.054.008c.083-.1.167-.192.248-.288.633-.744,1.241-1.513,1.808-2.309a17.541,17.541,0,0,1,1.509-2.1,3.091,3.091,0,0,1,2.384-1.086,2.98,2.98,0,0,1,1.368.42,3.671,3.671,0,0,1,.434.359l.7.632.313.283c.022.02.046.045.071.066a.251.251,0,0,1-.012-.062.463.463,0,0,0,.014.064.223.223,0,0,0,.028.023c.092.056.011.079-.026-.015a4.287,4.287,0,0,0,.2.47c.087.23.169.462.25.695.167.486.323.975.472,1.467.43,1.422.812,2.862,1.141,4.31a.461.461,0,0,0,.247.319.564.564,0,0,0,.928.334.594.594,0,0,1,.745.152,1.767,1.767,0,0,1,.386,1.08,2.62,2.62,0,0,1-.912,2.278,7.036,7.036,0,0,1-1.054.7.753.753,0,0,0-.391.531c-.148.63-.244,1.275-.413,1.9a7.8,7.8,0,0,1-5.165,5.541,6.717,6.717,0,0,1-6.416-2.052,8.181,8.181,0,0,1-2.046-3.512M20.833,39.2l-4.791-1.563-.389-.126.52-2.488a.466.466,0,0,0,.185.088.611.611,0,0,0,.313-.014l4.863,1.7-.7,2.405m3.317-.275-.54,1.686H22.7l-.647-1.552a.716.716,0,0,0-.034-.068l.542-1.858a1.857,1.857,0,0,0,1.1-.018s0,.007,0,.01l.563,1.638a.578.578,0,0,0-.083.162m-.415-2.989a4.143,4.143,0,0,0-.42.161l-.034.013c-.083,0-.169,0-.251,0-.131,0-.336-.062-.118.019a.49.49,0,0,1-.064-.023,2.732,2.732,0,0,0-.429-.149l-3.548-1.239-1.753-.612a16.027,16.027,0,0,0,.133-1.732,8.91,8.91,0,0,0,2.241,1.662,7.226,7.226,0,0,0,5.614.517,8.116,8.116,0,0,0,3.379-2.29c.047.595.105,1.188.178,1.78l-4.928,1.891m2.072,3.242-.256.093-.836-2.434a.618.618,0,0,0-.047-.1l2.321-.891,2.582-.99.909,2.626-4.673,1.7m7.229.321q-.19,1.5-.382,2.995l-1.941-.575a.517.517,0,0,0-.284-.007,24.616,24.616,0,0,1,1.146-3.232q.752.334,1.5.68a.793.793,0,0,0-.036.138" transform="translate(-0.868 -4.576)" fill="#323264"/>
      <path id="パス_4962" data-name="パス 4962" d="M116.139,38.478l0,0,0,.01,0-.008" transform="translate(-89.03 -29.208)" fill="#323264"/>
    </g>
  </g>
</svg>
