<svg xmlns="http://www.w3.org/2000/svg" xmlns:xlink="http://www.w3.org/1999/xlink" width="60" height="60" viewBox="0 0 60 60">
  <defs>
    <clipPath id="clip-path">
      <rect id="長方形_691" data-name="長方形 691" width="25.944" height="32.755" fill="none"/>
    </clipPath>
  </defs>
  <g id="グループ_4591" data-name="グループ 4591" transform="translate(-799 -8342)">
    <rect id="長方形_648" data-name="長方形 648" width="60" height="60" rx="10" transform="translate(799 8342)" fill="#95bf47"/>
    <g id="グループ_4571" data-name="グループ 4571" transform="translate(815.725 8356)">
      <g id="グループ_4570" data-name="グループ 4570" clip-path="url(#clip-path)">
        <path id="パス_5222" data-name="パス 5222" d="M21.765,22.325H10.119c-.66,0-1.886.211-2.459-.235-.472-.367-.558-1.248-.7-1.792l-.879-3.472L3.6,7.031l-1.6-6.3a1.024,1.024,0,0,0-1.972.544L3.983,16.857l.958,3.783a11.1,11.1,0,0,0,.528,1.854,3.455,3.455,0,0,0,3.475,1.876H21.765a1.023,1.023,0,0,0,0-2.045" transform="translate(0 0)" fill="#fff"/>
        <path id="パス_5224" data-name="パス 5224" d="M41.386,19.73c-2.672-.137-5.388,0-8.063,0H23.637a1.023,1.023,0,0,0,0,2.045h16.93c.793,0,1.5.011,1.227,1.035-.424,1.578-.922,3.139-1.383,4.707l-.635,2.163c-.129.438-.166.839-.687.943a16.768,16.768,0,0,1-3.064,0H26.321a1.121,1.121,0,0,0-.245.027,1.03,1.03,0,0,0,.245,2.019h9.345c1.136,0,2.289.057,3.424,0,2-.1,2.448-1.725,2.913-3.311l1.586-5.4a6.144,6.144,0,0,0,.37-1.614,2.621,2.621,0,0,0-2.573-2.613" transform="translate(-18.016 -15.646)" fill="#fff"/>
        <path id="パス_5225" data-name="パス 5225" d="M14.783,127.694a3.733,3.733,0,1,0,0-.642,1.7,1.7,0,0,0,0,.642m5.389-.32c0,2.192-3.265,2.155-3.374,0,.109-2.155,3.374-2.191,3.374,0" transform="translate(-11.733 -98.35)" fill="#fff"/>
        <path id="パス_5226" data-name="パス 5226" d="M76.677,127.694a3.733,3.733,0,1,0,0-.642,1.7,1.7,0,0,0,0,.642m5.389-.32c0,2.192-3.265,2.155-3.374,0,.109-2.155,3.374-2.191,3.374,0" transform="translate(-60.967 -98.35)" fill="#fff"/>
      </g>
    </g>
  </g>
</svg>
