<svg xmlns="http://www.w3.org/2000/svg" width="60" height="60" viewBox="0 0 60 60">
  <g id="グループ_4612" data-name="グループ 4612" transform="translate(-625 -9758)">
    <rect id="長方形_689" data-name="長方形 689" width="60" height="60" rx="10" transform="translate(625 9758)" fill="#3c9de8"/>
    <g id="グループ_4561" data-name="グループ 4561" transform="translate(637.052 9769.729)">
      <g id="グループ_4562" data-name="グループ 4562">
        <path id="パス_5211" data-name="パス 5211" d="M48.4,28.465a4.315,4.315,0,0,0,.895-2.8,4.262,4.262,0,0,0-.956-2.869,4.04,4.04,0,0,0,.956-2.745,4.067,4.067,0,0,0-.916-2.7,4.028,4.028,0,0,0,.871-2.185c.305-2.8-1.766-4.329-4.31-4.739a24.5,24.5,0,0,0-4.206-.115c-1.394.014-2.789.008-4.183,0C37.031,6.354,37.928.027,32.583,0c-6.529-.033-2.405,9.825-6.964,12.118a12.731,12.731,0,0,1-6.1,1c-1.619-.072-1.634,2.41-.059,2.542.02,0,.039,0,.059.005,3.759.168,8.966-.616,10.249-4.736a28.071,28.071,0,0,0,1.268-6.462c.088-1.312,1.036-2.6,2.479-1.69.868.548.95,1.825.891,2.745-.13,2.024-.36,4.047-.541,6.067a1.286,1.286,0,0,0,1.274,1.274c2.459,0,4.918-.049,7.374-.067,1.151-.009,3.638-.051,4.184,1.257a1.384,1.384,0,0,1-.683,1.854,21.5,21.5,0,0,1-2.477.112,1.283,1.283,0,0,0,0,2.456c1.273.187,3.211-.2,3.211,1.578s-1.939,1.391-3.211,1.579a1.283,1.283,0,0,0,0,2.456c1.39.2,3.209-.356,3.211,1.579s-1.825,1.383-3.211,1.578a1.283,1.283,0,0,0,0,2.456c.955.135,2.826-.28,3.151.9.4,1.443-.92,1.9-2.072,2.16a18.225,18.225,0,0,1-3.983.22H20.547V19.615a1.2,1.2,0,0,0-1.217-1.228A1.21,1.21,0,0,0,18,19.615V34.263a1.292,1.292,0,0,0,1.274,1.274H34.69c2.187,0,4.376-.026,6.563,0,2.077.025,4.383-.016,6.208-1.143a4,4,0,0,0,1.378-5.28,3.277,3.277,0,0,0-.44-.649" transform="translate(-13.415 0)" fill="#fff"/>
        <path id="パス_5212" data-name="パス 5212" d="M0,53.4v19.36a1.274,1.274,0,0,0,2.547,0V53.4A1.274,1.274,0,0,0,0,53.4" transform="translate(0 -38.881)" fill="#fff"/>
      </g>
    </g>
  </g>
</svg>
