<svg xmlns="http://www.w3.org/2000/svg" xmlns:xlink="http://www.w3.org/1999/xlink" width="30" height="29.928" viewBox="0 0 30 29.928">
  <defs>
    <clipPath id="clip-path">
      <rect id="長方形_582" data-name="長方形 582" width="30" height="29.928" transform="translate(0 0)" fill="none"/>
    </clipPath>
  </defs>
  <g id="グループ_4475" data-name="グループ 4475" transform="translate(0 0)">
    <g id="グループ_4474" data-name="グループ 4474" transform="translate(0 0)" clip-path="url(#clip-path)">
      <path id="パス_5066" data-name="パス 5066" d="M.517,26.153c1.4,3.677,4.9,3.71,8.17,3.71H19.6c2.66,0,5.964.5,8.17-1.295,2.909-2.369,2.143-6.769,2.143-10.1v-9.6a1.547,1.547,0,0,0-3.093,0c0,5.019.237,10.095,0,15.107-.147,3.105-3.008,2.8-5.238,2.8H7.45a8.022,8.022,0,0,1-2.4-.134c-2.49-.819-1.827-4.411-1.827-6.427V10c0-1.936-.649-5.432,1.44-6.523a7.287,7.287,0,0,1,3.214-.3H21.441a1.547,1.547,0,0,0,0-3.093H13.36c-2.605,0-5.3-.205-7.9.022A5.8,5.8,0,0,0,.208,5,18.493,18.493,0,0,0,.131,7.687V18.433c0,2.36-.476,5.453.387,7.72" transform="translate(0 0)" fill="#363636"/>
      <path id="パス_5067" data-name="パス 5067" d="M23.877,22.743A1.547,1.547,0,0,0,21.69,24.93l5.737,5.737a1.559,1.559,0,0,0,2.187,0l10.518-12.43c1.278-1.511-.9-3.709-2.187-2.187L28.429,27.3l-4.553-4.553" transform="translate(-14.667 -10.731)" fill="#4e84ff"/>
    </g>
  </g>
</svg>
