<svg xmlns="http://www.w3.org/2000/svg" width="60" height="60" viewBox="0 0 60 60">
  <g id="アイコン" transform="translate(-7995 -3824)">
    <path id="パス_2229" data-name="パス 2229" d="M30,0A30,30,0,0,1,52.554,49.782,29.747,29.747,0,0,1,30,60,30,30,0,0,1,30,0Z" transform="translate(7995 3824)" fill="#4dc1ff"/>
    <g id="石油の水滴アイコン1" transform="translate(8014 3836.895)">
      <path id="パス_2227" data-name="パス 2227" d="M94.274,11.641,86.193,0l-8.08,11.641c-3.278,5.137-4.463,11.7,0,16.161a11.428,11.428,0,0,0,16.161,0C98.737,23.339,97.552,16.778,94.274,11.641ZM78.72,23.924c-2.1-4.272,1.242-10.408,3.34-12.738a15.987,15.987,0,0,0,.7,11.652C84.249,25.859,81.061,28.695,78.72,23.924Z" transform="translate(-75.194)" fill="#fff"/>
    </g>
  </g>
</svg>
