<svg xmlns="http://www.w3.org/2000/svg" xmlns:xlink="http://www.w3.org/1999/xlink" width="39.135" height="31.001" viewBox="0 0 39.135 31.001">
  <defs>
    <clipPath id="clip-path">
      <rect id="長方形_570" data-name="長方形 570" width="39.135" height="31.001" fill="none"/>
    </clipPath>
  </defs>
  <g id="グループ_4453" data-name="グループ 4453" clip-path="url(#clip-path)">
    <path id="パス_4784" data-name="パス 4784" d="M39.785,40.38c.195,2.4,4.344,1.649,5.959,1.649h7.93a4.677,4.677,0,0,1,1.764.136,12.144,12.144,0,0,1,1.818,1.192l2.459,1.613L59,43.53a1.009,1.009,0,0,1,.861-1.5c1.552,0,2.5-.493,2.565-2.121.054-1.252,0-2.519,0-3.772V31.709c0-1.3.161-2.963-1.648-3.11a1.059,1.059,0,0,1-.594-1.85H56.549c-.024.559-.044,1.094-.044,1.581,0,3.2,1.013,8.631-3.177,9.652a14.406,14.406,0,0,1-3.314.119H38.123l-.067,0V39.65a1.072,1.072,0,0,1,1.729.73" transform="translate(-25.398 -17.852)" fill="#fff"/>
    <path id="パス_4785" data-name="パス 4785" d="M60.231,26.3a.881.881,0,0,0-.595.145h0a1.059,1.059,0,0,0,.595,1.85c1.81.147,1.648,1.806,1.648,3.11v4.427c0,1.253.054,2.519,0,3.772-.069,1.628-1.014,2.121-2.565,2.121a1.009,1.009,0,0,0-.861,1.5l.719,1.439-2.459-1.613a12.129,12.129,0,0,0-1.818-1.192,4.675,4.675,0,0,0-1.764-.136H45.2c-1.616,0-5.764.749-5.96-1.649a1.072,1.072,0,0,0-1.729-.73v0a.836.836,0,0,0-.266.73c.25,3.084,2.663,3.644,5.222,3.644h8.809a14.628,14.628,0,0,0,2.8.009,5.386,5.386,0,0,0,1.163.744l5.966,3.913c.891.584,1.782-.533,1.365-1.365l-1.732-3.465a3.55,3.55,0,0,0,3.03-3.481c.073-1.406,0-2.836,0-4.244,0-3.324,1.12-9.145-3.644-9.532" transform="translate(-24.855 -17.553)" fill="#78c8e6"/>
    <path id="パス_4786" data-name="パス 4786" d="M33.125,15.53V9.976c0-1.649.154-3.7-2.126-3.873H9.477a4.428,4.428,0,0,0-2.506.369c-1.187.786-.932,2.408-.932,3.628v5.266c0,1.423-.033,2.851,0,4.274a2.979,2.979,0,0,0,.369,1.746c.663,1,1.8.932,2.84.932a1.009,1.009,0,0,1,.861,1.5L8.98,26.076c1.714-1.151,3.43-2.3,5.188-3.368a2.841,2.841,0,0,1,1.727-.39h4.52c3.342,0,6.695.078,10.036,0,1.529-.036,2.595-.744,2.673-2.415.068-1.451,0-2.921,0-4.373m-19.943.2A1.029,1.029,0,1,1,14.211,14.7a1.029,1.029,0,0,1-1.029,1.029m4.419,0A1.029,1.029,0,1,1,18.63,14.7,1.029,1.029,0,0,1,17.6,15.726m4.418,0A1.029,1.029,0,1,1,23.048,14.7a1.029,1.029,0,0,1-1.029,1.029m4.418,0A1.029,1.029,0,1,1,27.467,14.7a1.029,1.029,0,0,1-1.029,1.029" transform="translate(-4.014 -4.065)" fill="#fff"/>
    <path id="パス_4787" data-name="パス 4787" d="M31.15,8.9h0C31.3,5.281,31.573.562,27.225.07a1.077,1.077,0,0,0-.24-.027H7.908c-2.644,0-6.013-.548-7.452,2.3A8.4,8.4,0,0,0,.028,6.16v5.947c0,1.334-.063,2.687,0,4.02A4.048,4.048,0,0,0,3.69,20.11L1.536,24.417c-.416.832.473,1.95,1.365,1.365,2.685-1.761,5.589-3.367,8.128-5.33a2.809,2.809,0,0,1,.29-.174,7.415,7.415,0,0,0,1.338-.028v0l.067,0H24.616a14.4,14.4,0,0,0,3.314-.119c4.191-1.021,3.177-6.453,3.177-9.652,0-.487.021-1.021.044-1.581m-2.04,6.941c-.078,1.671-1.144,2.38-2.673,2.415-3.341.078-6.694,0-10.036,0h-4.52a2.839,2.839,0,0,0-1.727.39C8.4,19.714,6.679,20.861,4.966,22.012l1.129-2.257a1.01,1.01,0,0,0-.861-1.5c-1.041,0-2.177.069-2.84-.932a2.978,2.978,0,0,1-.369-1.745c-.033-1.423,0-2.851,0-4.274V6.035c0-1.22-.254-2.842.932-3.628a4.428,4.428,0,0,1,2.506-.369H26.984c2.28.169,2.126,2.224,2.126,3.873v5.554c0,1.452.068,2.922,0,4.373" transform="translate(0 0)" fill="#323232"/>
    <path id="パス_4788" data-name="パス 4788" d="M25.5,30.931A1.029,1.029,0,1,0,24.47,29.9,1.029,1.029,0,0,0,25.5,30.931" transform="translate(-16.331 -19.269)" fill="#323232"/>
    <path id="パス_4789" data-name="パス 4789" d="M38.784,30.931A1.029,1.029,0,1,0,37.755,29.9a1.029,1.029,0,0,0,1.029,1.029" transform="translate(-25.197 -19.269)" fill="#323232"/>
    <path id="パス_4790" data-name="パス 4790" d="M52.068,30.931A1.029,1.029,0,1,0,51.039,29.9a1.029,1.029,0,0,0,1.029,1.029" transform="translate(-34.063 -19.269)" fill="#323232"/>
    <path id="パス_4791" data-name="パス 4791" d="M65.352,30.931A1.029,1.029,0,1,0,64.323,29.9a1.029,1.029,0,0,0,1.029,1.029" transform="translate(-42.928 -19.269)" fill="#323232"/>
  </g>
</svg>
