<svg xmlns="http://www.w3.org/2000/svg" width="60" height="60" viewBox="0 0 60 60">
  <g id="グループ_4609" data-name="グループ 4609" transform="translate(-607.938 -9873.318)">
    <rect id="長方形_688" data-name="長方形 688" width="60" height="60" rx="10" transform="translate(607.938 9873.318)" fill="#3c9de8"/>
    <g id="グループ_4556" data-name="グループ 4556" transform="translate(619.61 9888.583)">
      <g id="グループ_4559" data-name="グループ 4559">
        <path id="パス_5203" data-name="パス 5203" d="M34.154,31.234a8.589,8.589,0,0,1,2.016,1.193l3.3,2.038q-.219-2.16-.438-4.321a5.765,5.765,0,0,1-.092-.906c.056-.875,1.095-1.541,1.6-2.209a10.765,10.765,0,0,0-4.43-16.387C33.677,9.613,31.088,9.8,28.518,9.8c-5.08,0-10.987-.9-15.037,2.861a10.764,10.764,0,0,0,3.811,18.119,20.139,20.139,0,0,0,6.57.58h7.287c.237,0,.475,0,.712,0a9.907,9.907,0,0,1,2.293-.122M20.018,21.583a1.253,1.253,0,1,1,1.253-1.253,1.252,1.252,0,0,1-1.253,1.253m6.388,0a1.253,1.253,0,1,1,1.253-1.253,1.252,1.252,0,0,1-1.253,1.253m5.135-1.253a1.253,1.253,0,1,1,1.253,1.253,1.252,1.252,0,0,1-1.253-1.253" transform="translate(-8.375 -8.014)" fill="#fff"/>
        <path id="パス_5204" data-name="パス 5204" d="M35.9,12.6a1.247,1.247,0,0,0,0-.132A12.755,12.755,0,0,0,23.288.027q-5.336-.054-10.678,0A12.741,12.741,0,0,0,0,12.6,12.739,12.739,0,0,0,12.6,25.173c2.034.021,4.069,0,6.1,0a54.158,54.158,0,0,0,6.24-.127l6.425,3.968A1.091,1.091,0,0,0,33,28.078l-.681-6.725a12.833,12.833,0,0,0,3.577-8.622A1.235,1.235,0,0,0,35.9,12.6M22.587,23H15.553a19.437,19.437,0,0,1-6.341-.56,10.536,10.536,0,0,1-6.8-7.609A10.449,10.449,0,0,1,5.534,4.957C9.444,1.324,15.144,2.2,20.047,2.2c2.481,0,4.979-.178,7.323.816A10.568,10.568,0,0,1,33.728,12.6a10.568,10.568,0,0,1-2.083,6.228c-.483.645-1.485,1.288-1.54,2.132a5.616,5.616,0,0,0,.088.875q.211,2.085.422,4.17l-3.184-1.967a8.281,8.281,0,0,0-1.945-1.151A9.549,9.549,0,0,0,23.274,23c-.229,0-.458,0-.687,0" transform="translate(0 0)" fill="#fff"/>
      </g>
    </g>
  </g>
</svg>
