<svg id="グループ_4669" data-name="グループ 4669" xmlns="http://www.w3.org/2000/svg" xmlns:xlink="http://www.w3.org/1999/xlink" width="195.849" height="180" viewBox="0 0 195.849 180">
  <defs>
    <clipPath id="clip-path">
      <rect id="長方形_545" data-name="長方形 545" width="195.849" height="180" fill="none"/>
    </clipPath>
  </defs>
  <g id="グループ_4425" data-name="グループ 4425" clip-path="url(#clip-path)">
    <path id="パス_4064" data-name="パス 4064" d="M141.644,73.093a3.782,3.782,0,0,0-3.1-2.754,1.934,1.934,0,0,1-1.242.35l-.519-.057c-.026.013-.052.016-.078.029a3.923,3.923,0,0,1-4.611-2.674l.979-23.1a87.57,87.57,0,0,1-15.032-15.91l-22.677-2L84.3,41.051c-1.586,2.018-4.482-.219-4-2.327l2.14-9.327q-4.146,8.279-8.29,16.557c-1.319,2.633-4.76.61-4.372-1.843l1.41-8.921-3.57,4.419q-.729,10.745-1.459,21.49c1.248,1.84-.877,4.813-3.182,3.415-.069-.041-.131-.073-.2-.112a2.878,2.878,0,0,1-.3-.1c-.361-.167-.764-.324-1.175-.491-.179-.039-.365-.075-.581-.106-2.363-.328-3.674,1.352-4.612,3.312-1.724,3.6-1.143,10.789,2.923,12.708,2.011.948,4.174,1.6,5.717,3.309,1.476,1.63,1.507,3.79,1.82,5.851a42.6,42.6,0,0,0,3.98,12.824,34.535,34.535,0,0,0,3.823,5.926,2.443,2.443,0,0,1,1.1,1.309,29.055,29.055,0,0,0,13.655,8.8c10.611,3.075,21.393-.918,28.843-8.735a36.39,36.39,0,0,0,8.135-13.143c.81-2.4,1.389-4.9,2.049-7.354a2.465,2.465,0,0,1,2.306-1.756,20.669,20.669,0,0,0,5.254-1.084,7.93,7.93,0,0,0,5.087-4.832c.977-2.326,1.6-5.279.834-7.749m-43.359,6.43c3.083,0,3.077,4.783,0,4.783s-3.078-4.783,0-4.783m-15.8-29.907a2.392,2.392,0,0,1-2.414-4.131A9.051,9.051,0,0,1,83.787,44.1a14.65,14.65,0,0,1,9.274,1.864A2.392,2.392,0,0,1,90.645,50.1c-.385-.209-.781-.39-1.172-.587a.215.215,0,0,1-.027-.013l-.095-.038c-.195-.075-.391-.148-.589-.215a14.892,14.892,0,0,0-1.883-.479l-.013,0c-.116-.011-.233-.023-.35-.032-.264-.02-.528-.029-.793-.028-.207,0-.415.013-.621.028a2.593,2.593,0,0,1-.308.03,8.528,8.528,0,0,0-1.091.263c-.14.044-.279.095-.417.145a5.573,5.573,0,0,0-.8.45M85.831,63.78c-3.083,0-3.077-4.783,0-4.783s3.078,4.783,0,4.783M104.344,99.8a2.446,2.446,0,0,1-3.383,0l-.011-.01c-.08-.053-.159-.111-.24-.163-.219-.142-.446-.273-.678-.393-.095-.049-.191-.091-.286-.141l-.019-.011c-.207-.071-.411-.156-.622-.224a11.926,11.926,0,0,0-1.548-.384c-.079-.015-.175-.024-.268-.037a.712.712,0,0,1-.095-.019c-.233-.021-.466-.044-.7-.057a14.145,14.145,0,0,0-1.617,0c-.241.014-.48.041-.721.062-.121.021-.243.04-.365.064a10.926,10.926,0,0,0-1.365.349c-.1.033-.2.07-.3.105-.166.094-.367.166-.525.251a2.443,2.443,0,0,1-3.272-.858,2.414,2.414,0,0,1,.858-3.273c4.586-2.466,11.137-1.994,15.154,1.355a2.421,2.421,0,0,1,0,3.382m10.728-33.466c-3.084,0-3.078-4.783,0-4.783s3.077,4.783,0,4.783m7.685-13.1a2.4,2.4,0,0,1-3.149.184c-.057-.04-.114-.08-.173-.117a6.1,6.1,0,0,0-.643-.33,9.012,9.012,0,0,0-1.605-.431,11.384,11.384,0,0,0-2.3.013c-.338.055-.677.109-1.012.188a2.442,2.442,0,0,1-2.941-1.671,2.411,2.411,0,0,1,1.67-2.941,13.533,13.533,0,0,1,6.919.03,8.012,8.012,0,0,1,3.234,1.692,2.431,2.431,0,0,1,0,3.382" transform="translate(3.477 1.699)" fill="#fff"/>
    <path id="パス_4065" data-name="パス 4065" d="M83.088,47.458l-.012,0c.052-.006.105-.012.157-.016s.077,0,.115-.005a1.162,1.162,0,0,0-.26.018" transform="translate(5.233 2.988)" fill="#ffe164"/>
    <path id="パス_4066" data-name="パス 4066" d="M94.652,94.175a.379.379,0,0,0,.057.014h.014a.469.469,0,0,1-.071-.015" transform="translate(5.962 5.932)" fill="#ffe164"/>
    <path id="パス_4067" data-name="パス 4067" d="M94.774,94.194l-.056,0c.027.006.052.013.081.017.114.013.2.007-.024-.013" transform="translate(5.966 5.933)" fill="#ffe164"/>
    <path id="パス_4068" data-name="パス 4068" d="M62.176,45.1c.124-1.834-.2-4.857.854-6.466,1.44-2.189,3.361-4.17,5.006-6.206q2.408-2.983,4.817-5.964c1.683-2.083,4.322.273,4,2.327l-.4,2.518Q78.281,27.656,80.111,24a2.331,2.331,0,0,1,2.065-1.185l3.544.3a2.432,2.432,0,0,1,2.307,3.028q-.545,2.379-1.092,4.758l3.274-4.166a20.858,20.858,0,0,1,2-2.539c1.5-1.376,4.673-.46,6.468-.3l11.848,1.043c2.717.239,5.439.44,8.152.719,2.2.226,2.956,2.179,4.208,3.78a79.256,79.256,0,0,0,6.149,6.866q2.706,2.733,5.577,5.293a25.2,25.2,0,0,1,2.207,1.918c1.43,1.625.544,5.386.462,7.317q-.177,4.171-.353,8.343.593-2.529,1.186-5.057,1.132-4.83,2.265-9.658c.527-2.245,1.248-4.217.6-6.528-1.275-3.938-2.636-7.85-4.009-11.756-.894-2.542-1.584-5.23-3.482-7.237a12.9,12.9,0,0,0-2.916-2.19c-2.486-1.467-4.98-2.92-7.471-4.38A64.64,64.64,0,0,0,116.9,8.974c-2.2-.986-4.451-1.863-6.732-2.639-.917-.313-1.841-.617-2.781-.86a1.718,1.718,0,0,0-.171-.032,1.9,1.9,0,0,1-.365.114,51.664,51.664,0,0,1-13.52-.417,2.627,2.627,0,0,1-2.4,2.691A44.978,44.978,0,0,1,82.8,7.32a2.1,2.1,0,0,1-.508.807c-3.9,3.7-8.4,6.721-12.371,10.349a27.353,27.353,0,0,0-4.6,5.05,20.6,20.6,0,0,0-2.429,6.367,62.065,62.065,0,0,0-1.621,14.588c-.023,3.061.084,6.182.328,9.258l.587-8.638" transform="translate(3.859 0.324)" fill="#323232"/>
    <path id="パス_4069" data-name="パス 4069" d="M82.9,47.479l.152-.011.035-.009c-.062.007-.124.015-.187.019" transform="translate(5.222 2.989)" fill="#ffe164"/>
    <path id="パス_4070" data-name="パス 4070" d="M126.53,122.082a2.415,2.415,0,0,1-1.67,2.942,2.451,2.451,0,0,1-2.942-1.671,43.437,43.437,0,0,1-1.771-9.06c-.235-1.971-.417-3.947-.576-5.925a42.272,42.272,0,0,1-3.965,3.388,32.608,32.608,0,0,1-33.381,3.6,31.9,31.9,0,0,1-7.572-4.916c-.121,1.853-.277,3.7-.5,5.547a34.717,34.717,0,0,1-1.938,8.924,2.449,2.449,0,0,1-2.942,1.67,2.407,2.407,0,0,1-1.67-2.942,21.835,21.835,0,0,0,.9-2.841c-.52.58-1.053,1.278-1.651,1.962a2.3,2.3,0,0,1-.12,1.049,28.787,28.787,0,0,0-1.013,9.984,2.471,2.471,0,0,1,1.432.561C75.93,141.4,86.551,146.3,98,145.838c10.571-.427,20.347-5.4,28.433-11.97a2.492,2.492,0,0,1,1.155-.527c-.027-3.5-.148-7.007-.414-10.484a1.88,1.88,0,0,1,.117-.778c-.326-.186-.64-.372-.935-.567.061.189.105.383.17.57" transform="translate(4.137 6.826)" fill="#fff"/>
    <path id="パス_4071" data-name="パス 4071" d="M143.079,145.667c-2.941-6.137-5.612-12.4-8.539-18.546-2.5-5.244-5.145-10.866-10.8-13.253a2.451,2.451,0,0,1-1.671-2.941,2.583,2.583,0,0,1,.878-1.248c-.646-.427-1.317-.855-2.062-1.282.151,1.859.319,3.716.534,5.568a40.552,40.552,0,0,0,1.468,7.545c.294.195.609.381.935.567a2.52,2.52,0,0,1,2.275-1.615,2.452,2.452,0,0,1,2.392,2.392,154.4,154.4,0,0,1,.336,16.81,141.041,141.041,0,0,0,14.259,6" transform="translate(7.614 6.828)" fill="#42638f"/>
    <path id="パス_4072" data-name="パス 4072" d="M70.811,115.662c.284-2.441.441-4.893.569-7.346-1.015,1.129-2.653.98-3.955,1.277a2.247,2.247,0,0,1,.489,3.647A142.253,142.253,0,0,0,43.387,144.3c3.969-2.485,7.84-5.163,11.7-7.742a2.394,2.394,0,0,1,2.9.374c1.619,1.969,3.224,3.972,4.787,6.009-.169-2.276-.3-4.555-.359-6.829-.122-4.4-.337-9.345,1.108-13.574.861-2.524,4.463-1.9,4.732.222.6-.685,1.131-1.382,1.651-1.962a39.363,39.363,0,0,0,.909-5.132" transform="translate(2.733 6.823)" fill="#42638f"/>
    <path id="パス_4073" data-name="パス 4073" d="M175.976,150.857a25.961,25.961,0,0,0-6.017-5.016c-8.525-5.755-18.173-9.332-27.352-13.839,2.375,5.264,4.735,10.535,7.427,15.649a2.413,2.413,0,0,1-3.272,3.273c-5.888-2.745-12.164-4.664-18.051-7.414a158.856,158.856,0,0,1-3.471,18.874c-.716,3.1-1.452,6.224-2.453,9.248-.005.017-.013.036-.018.053h60.542a71.645,71.645,0,0,0-3.915-14.341,25.52,25.52,0,0,0-3.422-6.487" transform="translate(7.733 8.315)" fill="#42638f"/>
    <path id="パス_4074" data-name="パス 4074" d="M66.931,152.163c-.024-.036-.053-.064-.078-.1a111.733,111.733,0,0,0-8.6-11.818,176.939,176.939,0,0,1-17.714,11.033A2.411,2.411,0,0,1,37.271,148q4.12-7.577,8.867-14.749c-3.061,1.171-6.1,2.423-9.116,3.68-4.729,1.97-9.437,4-14.084,6.16-3.1,1.44-6.054,2.677-8.216,5.432-3.1,3.958-5.124,8.872-6.88,13.54-1.179,3.134-2.2,6.325-3.139,9.539H71.089q-2.1-9.682-4.142-19.376c0-.022-.011-.045-.015-.067" transform="translate(0.296 8.393)" fill="#42638f"/>
    <path id="パス_4075" data-name="パス 4075" d="M121.319,171.252l0,.01.005-.012c.067-.167.131-.336.189-.506q.525-1.537.964-3.1c.836-2.955,1.541-5.948,2.2-8.948.93-4.213,1.845-8.489,2.467-12.79a1.833,1.833,0,0,1-.05-.561c.216-2.7.338-5.412.416-8.129C118.9,143.7,108.928,148.361,97.987,148.8c-11.824.479-22.742-4.271-32.044-11.2.166,2.349.4,4.7.5,7.043.1.339.147.715.218,1.059q.566,2.725,1.14,5.452,2.054,9.766,4.174,19.518a2.6,2.6,0,0,1,.05.679h49.265c.01-.03.018-.049.031-.095-.107.261.118-.412,0-.01" transform="translate(4.154 8.643)" fill="#fff"/>
    <path id="パス_4076" data-name="パス 4076" d="M145.175,70.648a7.962,7.962,0,0,0-4.562-3.129q1.476-6.289,2.952-12.578l2.267-9.666c.665-2.835,1.246-5.332.422-8.293-1.382-4.27-2.863-8.507-4.355-12.74-1.077-3.056-2.089-5.968-4.366-8.364a17.718,17.718,0,0,0-3.965-2.986c-6.283-3.683-12.3-7.436-19.143-10.011-2.207-.83-4.756-1.989-7.157-2.075a2.893,2.893,0,0,0-1.806.521A42.72,42.72,0,0,1,97.105.967c-2.783-.3-5.564-.625-8.343-.955-1.59-.188-2.786,1.772-2.263,3.179a71.923,71.923,0,0,1-9.884-1.8c-1.851-.445-4,1.723-2.7,3.513A9.992,9.992,0,0,0,76.7,7.6c-3.363,2.818-6.936,5.4-10.136,8.408a28.192,28.192,0,0,0-5.093,6.027,27.49,27.49,0,0,0-2.735,7.743c-2.292,9.958-1.92,20.52-.542,30.585.022.168.04.347.06.523a7.9,7.9,0,0,0-1.554.542c-5.012,2.442-6.5,9.094-5.735,14.111A16.773,16.773,0,0,0,53.609,82.7c1.507,2.116,3.43,2.82,5.68,3.882.874.412,2,.855,2.416,1.778.544,1.218.445,3,.672,4.318a46.561,46.561,0,0,0,1.894,7.4,42.236,42.236,0,0,0,6.781,12.437c-.037.878-.092,1.755-.137,2.632a2.8,2.8,0,0,0,.437-.629,2.8,2.8,0,0,1-.437.629c-.128,2.454-.285,4.907-.569,7.346a39.41,39.41,0,0,1-.909,5.133c.106-.119.214-.247.32-.353-.106.106-.214.234-.32.353a21.939,21.939,0,0,1-.9,2.841,2.407,2.407,0,0,0,1.67,2.942,2.451,2.451,0,0,0,2.942-1.671,34.71,34.71,0,0,0,1.938-8.923c.223-1.844.379-3.694.5-5.547a31.925,31.925,0,0,0,7.572,4.915,32.6,32.6,0,0,0,33.381-3.6,42.26,42.26,0,0,0,3.965-3.387c.159,1.977.341,3.954.576,5.924a43.46,43.46,0,0,0,1.771,9.061,2.449,2.449,0,0,0,2.942,1.67,2.415,2.415,0,0,0,1.67-2.942c-.065-.187-.109-.381-.17-.569a3.132,3.132,0,0,1-1.735-2.668,3.132,3.132,0,0,0,1.735,2.668,40.587,40.587,0,0,1-1.468-7.545c-.214-1.853-.383-3.71-.534-5.568-.417-.239-.85-.477-1.328-.716.477.239.911.477,1.328.716-.137-1.683-.259-3.368-.382-5.051a41.662,41.662,0,0,0,4.507-7.5,58.846,58.846,0,0,0,3.211-9.634,23.123,23.123,0,0,0,6.772-1.914c3.666-1.724,5.755-5.159,6.853-8.948,1.076-3.708,1.247-8.249-1.084-11.533M63.543,30.218a20.6,20.6,0,0,1,2.429-6.367,27.387,27.387,0,0,1,4.6-5.05c3.971-3.628,8.467-6.649,12.371-10.348a2.112,2.112,0,0,0,.508-.808,45.075,45.075,0,0,0,8.133.512,2.628,2.628,0,0,0,2.4-2.693,51.664,51.664,0,0,0,13.52.417,1.9,1.9,0,0,0,.365-.114,1.718,1.718,0,0,1,.171.032c.94.243,1.863.547,2.781.86,2.281.776,4.534,1.653,6.732,2.639a64.873,64.873,0,0,1,6.206,3.393c2.491,1.459,4.984,2.913,7.471,4.38a12.9,12.9,0,0,1,2.916,2.19c1.9,2.007,2.588,4.7,3.482,7.238,1.372,3.905,2.734,7.816,4.009,11.755.643,2.311-.078,4.284-.6,6.528q-1.132,4.83-2.265,9.658-.595,2.527-1.186,5.057.175-4.171.353-8.343c.082-1.93.967-5.691-.462-7.315a25.03,25.03,0,0,0-2.207-1.919q-2.867-2.561-5.577-5.293a79.256,79.256,0,0,1-6.149-6.866c-1.252-1.6-2.006-3.554-4.208-3.78-2.713-.279-5.435-.478-8.152-.718L99.334,24.218c-1.8-.158-4.968-1.074-6.468.3a20.859,20.859,0,0,0-2,2.539L87.6,31.225q.547-2.379,1.092-4.758a2.432,2.432,0,0,0-2.307-3.027l-3.544-.3a2.331,2.331,0,0,0-2.065,1.185l-3.659,7.307.4-2.518c.324-2.053-2.315-4.41-4-2.327L68.7,32.754c-1.644,2.036-3.565,4.017-5.006,6.207-1.058,1.609-.729,4.631-.854,6.465l-.587,8.638c-.244-3.075-.352-6.2-.328-9.257a62.068,62.068,0,0,1,1.621-14.59m77.546,52.323A7.931,7.931,0,0,1,136,87.374a20.7,20.7,0,0,1-5.253,1.084,2.467,2.467,0,0,0-2.307,1.756c-.659,2.449-1.238,4.949-2.049,7.353a36.4,36.4,0,0,1-8.134,13.144c-7.45,7.815-18.233,11.81-28.843,8.734a29.042,29.042,0,0,1-13.655-8.8,2.45,2.45,0,0,0-1.1-1.31,34.541,34.541,0,0,1-3.824-5.926,42.617,42.617,0,0,1-3.979-12.823c-.314-2.062-.344-4.221-1.82-5.852-1.543-1.7-3.707-2.36-5.717-3.309-4.066-1.918-4.648-9.1-2.923-12.708.938-1.96,2.249-3.641,4.611-3.311.218.03.4.067.583.106.41.167.813.323,1.174.49a3.074,3.074,0,0,0,.3.1c.067.038.128.069.2.112,2.3,1.4,4.429-1.576,3.182-3.416q.729-10.745,1.459-21.49l3.57-4.419-1.41,8.921c-.388,2.453,3.052,4.477,4.371,1.843q4.146-8.279,8.29-16.557-1.068,4.664-2.139,9.327c-.483,2.109,2.413,4.344,4,2.328L95.64,28.676l22.678,2a87.52,87.52,0,0,0,15.031,15.909q-.49,11.552-.978,23.1a3.921,3.921,0,0,0,4.611,2.676c.026-.014.052-.017.078-.03l.518.057a1.928,1.928,0,0,0,1.243-.35,3.782,3.782,0,0,1,3.1,2.754c.762,2.47.142,5.423-.833,7.749" transform="translate(3.198 0)" fill="#323232"/>
    <path id="パス_4077" data-name="パス 4077" d="M111.66,59.506c-3.078,0-3.083,4.783,0,4.783s3.083-4.783,0-4.783" transform="translate(6.888 3.748)" fill="#323232"/>
    <path id="パス_4078" data-name="パス 4078" d="M95.869,81.192c3.077,0,3.083-4.783,0-4.783s-3.083,4.783,0,4.783" transform="translate(5.893 4.813)" fill="#323232"/>
    <path id="パス_4079" data-name="パス 4079" d="M94.706,94.189a.708.708,0,0,0,.095.018c-.029,0-.055-.011-.081-.017h-.014" transform="translate(5.965 5.933)" fill="#323232"/>
    <path id="パス_4080" data-name="パス 4080" d="M86.388,94.4a2.443,2.443,0,0,0,3.272.858c.158-.084.359-.157.525-.251.1-.035.2-.071.3-.1a10.794,10.794,0,0,1,1.365-.35c.121-.023.243-.043.365-.064.24-.02.479-.048.721-.062a14.394,14.394,0,0,1,1.617,0c.234.013.466.036.7.057-.019-.005-.043-.009-.057-.014a.648.648,0,0,0,.071.015l.056,0c.222.02.138.027.024.013.092.014.189.022.268.037a12.1,12.1,0,0,1,1.548.384c.21.068.415.153.622.225l.019.011c.095.049.191.092.286.141.232.12.459.25.678.392.082.053.161.109.24.164l.012.008a2.445,2.445,0,0,0,3.382,0,2.419,2.419,0,0,0,0-3.381c-4.017-3.351-10.568-3.823-15.154-1.355a2.413,2.413,0,0,0-.858,3.272" transform="translate(5.421 5.642)" fill="#323232"/>
    <path id="パス_4081" data-name="パス 4081" d="M84.153,57.1c-3.077,0-3.083,4.783,0,4.783s3.083-4.783,0-4.783" transform="translate(5.155 3.597)" fill="#323232"/>
    <path id="パス_4082" data-name="パス 4082" d="M81.085,48.609a5.574,5.574,0,0,1,.8-.45c.138-.05.275-.1.417-.145a8.709,8.709,0,0,1,1.091-.263c-.047,0-.09.007-.152.011.063,0,.125-.012.188-.019l.012,0a1.1,1.1,0,0,1,.26-.018c.206-.015.414-.027.621-.028.265,0,.529.007.793.027.117.009.234.021.35.033l.013,0a14.888,14.888,0,0,1,1.883.478q.3.1.589.216c.032.012.063.026.095.038l.027.012c.391.2.788.377,1.172.587a2.392,2.392,0,1,0,2.414-4.13,14.64,14.64,0,0,0-9.272-1.866,9.066,9.066,0,0,0-3.713,1.384,2.392,2.392,0,0,0,2.414,4.131" transform="translate(4.88 2.705)" fill="#323232"/>
    <path id="パス_4083" data-name="パス 4083" d="M83.078,47.461l-.036.009a2.556,2.556,0,0,0,.308-.03c-.038,0-.077,0-.115.005s-.1.01-.157.016" transform="translate(5.231 2.988)" fill="#323232"/>
    <path id="パス_4084" data-name="パス 4084" d="M110.579,51.518c.335-.079.674-.133,1.012-.188a11.384,11.384,0,0,1,2.3-.013,9.012,9.012,0,0,1,1.605.431,6.209,6.209,0,0,1,.643.33c.06.037.116.077.173.117a2.4,2.4,0,0,0,3.149-.184,2.431,2.431,0,0,0,0-3.382,8.012,8.012,0,0,0-3.234-1.692,13.533,13.533,0,0,0-6.919-.03,2.412,2.412,0,0,0-1.671,2.941,2.443,2.443,0,0,0,2.942,1.671" transform="translate(6.774 2.927)" fill="#323232"/>
    <path id="パス_4085" data-name="パス 4085" d="M195.834,172.841a74.446,74.446,0,0,0-2.969-12.2c-1.356-4.1-3-8.353-5.774-11.719-2.846-3.453-7.136-6.019-10.955-8.249-4.436-2.59-9.083-4.8-13.749-6.94-4.688-2.153-9.449-4.185-13.985-6.65a2.381,2.381,0,0,0-1.135-.3c-.611-1.3-1.211-2.612-1.847-3.9-2.976-6.026-6.451-10.986-12.8-13.664a2.048,2.048,0,0,0-2.064.423,40.933,40.933,0,0,0,4.583,2.786,40.933,40.933,0,0,1-4.583-2.786,2.583,2.583,0,0,0-.878,1.248,2.453,2.453,0,0,0,1.671,2.942c5.659,2.387,8.305,8.01,10.8,13.252,2.929,6.144,5.6,12.409,8.539,18.546a140.9,140.9,0,0,1-14.259-6,154.374,154.374,0,0,0-.336-16.809,2.451,2.451,0,0,0-2.392-2.392,2.521,2.521,0,0,0-2.275,1.614c1.377.782,2.925,1.58,3.708,3.144-.782-1.565-2.331-2.362-3.708-3.144a1.9,1.9,0,0,0-.117.778c.266,3.477.387,6.98.413,10.484a2.484,2.484,0,0,0-1.154.527c-8.087,6.567-17.862,11.543-28.434,11.97-11.453.465-22.073-4.439-30.857-11.491a2.476,2.476,0,0,0-1.432-.561,28.813,28.813,0,0,1,1.013-9.984,2.3,2.3,0,0,0,.12-1.049c-1.118,1.285-2.465,2.469-4.407,2.469,1.942,0,3.289-1.184,4.407-2.469-.269-2.124-3.871-2.746-4.732-.222-1.444,4.23-1.23,9.171-1.108,13.574.064,2.274.19,4.553.359,6.829-1.562-2.037-3.167-4.04-4.787-6.009a2.394,2.394,0,0,0-2.9-.374c-3.86,2.579-7.73,5.256-11.7,7.742a142.26,142.26,0,0,1,24.526-31.056,2.246,2.246,0,0,0-.489-3.647c-1.117.254-1.986.843-1.986,2.878,0-2.035.868-2.623,1.986-2.878a2.285,2.285,0,0,0-2.893.265,133.862,133.862,0,0,0-16.141,18.26,2.53,2.53,0,0,0-.4.089,284.923,284.923,0,0,0-28.8,11.823c-3.377,1.547-6.954,2.96-9.5,5.768-3.568,3.93-5.822,8.954-7.81,13.814A126.535,126.535,0,0,0,0,173.129H5c.939-3.214,1.96-6.406,3.139-9.539,1.756-4.669,3.777-9.583,6.88-13.54,2.162-2.756,5.117-3.992,8.216-5.432,4.646-2.159,9.354-4.191,14.085-6.16,3.02-1.258,6.054-2.509,9.115-3.68q-4.753,7.156-8.867,14.748a2.412,2.412,0,0,0,3.272,3.273,176.941,176.941,0,0,0,17.714-11.033,111.583,111.583,0,0,1,8.6,11.818c.024.038.053.066.078.1l.016.067q2.035,9.694,4.141,19.376h4.789a2.559,2.559,0,0,0-.05-.68Q74,162.7,71.949,152.931q-.572-2.727-1.14-5.452c-.071-.344-.115-.721-.218-1.058-.1-2.35-.33-4.7-.5-7.044,9.3,6.929,20.22,11.679,32.044,11.2,10.941-.442,20.911-5.1,29.525-11.588-.078,2.717-.2,5.43-.416,8.129a1.858,1.858,0,0,0,.05.56c-.622,4.3-1.537,8.578-2.466,12.79-.662,3-1.369,5.993-2.2,8.95q-.442,1.563-.964,3.1c-.058.17-.122.34-.189.506l-.005.012c-.013.047-.021.065-.031.1h.075a1.817,1.817,0,0,1,1.549-.625,2.275,2.275,0,0,0-1.54.625h4.98l.017-.053c1-3.024,1.738-6.146,2.454-9.248a158.929,158.929,0,0,0,3.47-18.874c5.887,2.75,12.163,4.67,18.051,7.414a2.413,2.413,0,0,0,3.273-3.273c-2.693-5.115-5.053-10.385-7.427-15.649,9.178,4.507,18.827,8.084,27.352,13.839a25.983,25.983,0,0,1,6.017,5.016,25.521,25.521,0,0,1,3.422,6.487,71.625,71.625,0,0,1,3.914,14.341h4.8a2.664,2.664,0,0,0-.015-.288" transform="translate(0 6.871)" fill="#323232"/>
    <path id="パス_4086" data-name="パス 4086" d="M16.195,20.43A5.377,5.377,0,0,1,21.147,14.9a5.38,5.38,0,0,1,5.095,4.77c.148,1.643-.7,3.206-1.386,4.639a13.045,13.045,0,0,0-1.723,5.405,14.747,14.747,0,0,0,2.351,7.194c1.575,2.642,5.712.239,4.13-2.414a9.621,9.621,0,0,1-1.694-4.914c0-.054,0-.09,0-.114l.005-.029c.033-.165.085-.326.133-.487a10.965,10.965,0,0,1,.414-1.13c.332-.779.73-1.53,1.083-2.3a13.328,13.328,0,0,0,1.48-5.381,10.307,10.307,0,0,0-4.549-8.361,9.285,9.285,0,0,0-9.495-.6,10.167,10.167,0,0,0-5.582,9.247c.124,3.068,4.907,3.084,4.783,0" transform="translate(0.718 0.64)" fill="#323232"/>
    <path id="パス_4087" data-name="パス 4087" d="M29.373,43.771c3.078,0,3.083-4.783,0-4.783s-3.083,4.783,0,4.783" transform="translate(1.705 2.456)" fill="#323232"/>
  </g>
</svg>
