<svg id="グループ_4668" data-name="グループ 4668" xmlns="http://www.w3.org/2000/svg" xmlns:xlink="http://www.w3.org/1999/xlink" width="212.499" height="180" viewBox="0 0 212.499 180">
  <defs>
    <clipPath id="clip-path">
      <rect id="長方形_542" data-name="長方形 542" width="212.499" height="180" fill="none"/>
    </clipPath>
  </defs>
  <g id="グループ_4421" data-name="グループ 4421" clip-path="url(#clip-path)">
    <path id="パス_3958" data-name="パス 3958" d="M99.552,160.5c-.038,0-.075.006-.113.013l.113-.013" transform="translate(0 -7.955)" fill="#78c8e6"/>
    <path id="パス_3959" data-name="パス 3959" d="M106.3,133.21a33.169,33.169,0,0,1-21.737-.144,35.011,35.011,0,0,1-12.339-7.451,56.155,56.155,0,0,1-.686,6.28l1.26.751,7.884,4.7A15.054,15.054,0,0,1,84.592,140c3.98,4.662,7.687,9.521,11.692,14.166q3.464-4.665,6.876-9.362,1.486-2.056,2.962-4.118a8.568,8.568,0,0,1,1.5-1.883,23.01,23.01,0,0,1,3.911-1.867c1.026-.494,2.043-1,3.049-1.532,1.644-.865,3.262-1.784,4.81-2.8.147-.1.277-.21.421-.309-.329-2.522-.525-5.067-.638-7.614A32.56,32.56,0,0,1,106.3,133.21" transform="translate(0 -6.18)" fill="#fff"/>
    <path id="パス_3960" data-name="パス 3960" d="M132.458,81.163a5.263,5.263,0,0,0-2.119.175c-.3.078-.586.183-.879.278-2.1.889-3.946-1.4-3.1-2.9-.187-.535-.367-1.073-.553-1.608a1.8,1.8,0,0,1-.714-.054l-.586-.094-2.394-.382a11.97,11.97,0,0,1-8.9,10.757c-4.778,1.2-9.478-1.144-12.14-4.9a10.917,10.917,0,0,1-1.713-3.787H93.795a12.079,12.079,0,0,1-21.639,3.742,10.266,10.266,0,0,1-2.017-5.623l-4.759.485c-.217.562-.413,1.132-.642,1.69a2.367,2.367,0,0,1-1.875,1.535,2.045,2.045,0,0,1-2.574.261,3.38,3.38,0,0,0-4.984,1.612,10.892,10.892,0,0,0-.351,6.855,7.326,7.326,0,0,0,3.785,5.367,15.1,15.1,0,0,0,4.9,1.5,2.107,2.107,0,0,1,1.571,1.494c1.1,6.686,2.813,13.439,6.943,19.073a29.181,29.181,0,0,0,16.615,10.769V124.9a2.17,2.17,0,0,1,.658-1.512,2.335,2.335,0,0,1,3.183,0,2.156,2.156,0,0,1,.659,1.512v3.266c.3.027.6.025.9.042V124.9a2.167,2.167,0,0,1,.659-1.512,2.334,2.334,0,0,1,3.182,0,2.152,2.152,0,0,1,.659,1.512v3.227c.3-.03.6-.076.9-.116V124.9a2.167,2.167,0,0,1,.659-1.512,2.334,2.334,0,0,1,3.182,0,2.152,2.152,0,0,1,.659,1.512v2.117a25.424,25.424,0,0,0,3.774-1.494c10.766-5.39,15.423-16.219,17.215-27.061a2.156,2.156,0,0,1,1.571-1.494c1.911-.508,4.339-.819,6.047-1.783,2.351-1.326,3.43-5.221,3.52-7.621.084-2.231-.975-5.984-3.731-6.4M97.428,92.274a2.139,2.139,0,1,1,0,4.277,2.139,2.139,0,1,1,0-4.277m6.432,20.585a2.292,2.292,0,0,1-2.679-1.286.378.378,0,0,1-.093-.1c-.045-.045-.087-.087-.123-.126-.111-.066-.225-.125-.341-.182-.042-.021-.129-.052-.2-.086l-.048-.016a10.356,10.356,0,0,0-1.74-.412l-.023,0c-.134-.009-.268-.027-.4-.038-.329-.026-.659-.04-.989-.045-.644-.008-1.273.07-1.912.1l.279-.013.069,0-.069,0c-.091.006-.24.016-.319.029-.165.029-.33.061-.494.1-.278.06-.553.131-.823.216-.017,0-.108.038-.2.072a.557.557,0,0,1-.189.075c-.2.1-.4.218-.6.329-.056.055-.115.108-.174.161-.048.084-.1.164-.147.25a2.347,2.347,0,0,1-3.078.767,2.123,2.123,0,0,1-.807-2.925,5.921,5.921,0,0,1,3.183-2.553,15.176,15.176,0,0,1,7.828-.651c2.3.343,4.955,1.4,5.662,3.714a2.163,2.163,0,0,1-1.572,2.631" transform="translate(0 -3.795)" fill="#fff"/>
    <path id="パス_3961" data-name="パス 3961" d="M86.347,62.475c.09-.02.18-.04.27-.063h-.026c-.164.01-.341.073-.244.062" transform="translate(0 -3.093)" fill="#78c8e6"/>
    <path id="パス_3962" data-name="パス 3962" d="M117.584,75.587c-.022-.105-.043-.211-.071-.315-.04-.15-.093-.3-.146-.444-.031-.051-.151-.311-.168-.34a4.932,4.932,0,0,0-.281-.419c-.03-.037-.065-.078-.083-.1-.164-.17-.337-.328-.516-.485-.03-.027-.107-.082-.168-.125a8.918,8.918,0,0,0-4.214-1.328,13.123,13.123,0,0,0-4.946.421,6.11,6.11,0,0,0-1.829.815l-.121.073c-.142.109-.281.224-.411.345-.1.091-.192.187-.286.283l-.068.068-.024.035c-.135.19-.247.388-.369.585a.769.769,0,0,0-.039.078,5.188,5.188,0,0,0-.255.893,1.031,1.031,0,0,0-.015.121c-.006.223-.02.443-.012.666,0,.11.012.221.021.332.007.046.03.248.042.305a7.605,7.605,0,0,0,1.825,3.6,7.36,7.36,0,0,0,3.593,2.29,6.069,6.069,0,0,0,4.08-.346,8.044,8.044,0,0,0,3.237-2.752,6.818,6.818,0,0,0,1.261-3.647c0-.075-.064-.686-.037-.615m-6.65,2.384a2.139,2.139,0,1,1,0-4.277,2.139,2.139,0,1,1,0,4.277" transform="translate(0 -3.567)" fill="#fff"/>
    <path id="パス_3963" data-name="パス 3963" d="M60.826,27.592l.03.023h.005l-.022-.02-.013,0" transform="translate(0 -1.368)" fill="#78c8e6"/>
    <path id="パス_3964" data-name="パス 3964" d="M87.011,62.418c.042.01.087.011.13.019a.851.851,0,0,0-.183-.029l.053.01" transform="translate(0 -3.093)" fill="#78c8e6"/>
    <path id="パス_3965" data-name="パス 3965" d="M86.632,62.41c.038-.01.071-.017.118-.03-.044.012-.088.02-.132.03h.014" transform="translate(0 -3.092)" fill="#78c8e6"/>
    <path id="パス_3966" data-name="パス 3966" d="M86.9,62.4h.025c.011,0,.021,0,.033,0-.08-.016-.162-.028-.239-.048l.181.046" transform="translate(0 -3.091)" fill="#78c8e6"/>
    <path id="パス_3967" data-name="パス 3967" d="M60.9,27.647c-.014-.012-.028-.02-.042-.032-.051.01-.027.022.042.032" transform="translate(0 -1.369)" fill="#78c8e6"/>
    <path id="パス_3968" data-name="パス 3968" d="M84.657,62.99c.175-.065.113-.043,0,0" transform="translate(0 -3.12)" fill="#78c8e6"/>
    <path id="パス_3969" data-name="パス 3969" d="M60.9,27.649l.015.011-.013-.011h0" transform="translate(0 -1.37)" fill="#78c8e6"/>
    <path id="パス_3970" data-name="パス 3970" d="M60.826,27.581a2.717,2.717,0,0,0-.269-.205.531.531,0,0,0,.269.205" transform="translate(0 -1.357)" fill="#78c8e6"/>
    <path id="パス_3971" data-name="パス 3971" d="M100.975,113.163c.039.042.085.092.111.116a.115.115,0,0,1-.02-.047.653.653,0,0,0-.091-.069" transform="translate(0 -5.609)" fill="#78c8e6"/>
    <path id="パス_3972" data-name="パス 3972" d="M101.066,113.235a.434.434,0,0,1,.085.084l0-.01c-.052-.078-.079-.1-.08-.073" transform="translate(0 -5.612)" fill="#78c8e6"/>
    <path id="パス_3973" data-name="パス 3973" d="M101.151,113.325l.006.014s0-.007-.006-.014" transform="translate(0 -5.617)" fill="#78c8e6"/>
    <path id="パス_3974" data-name="パス 3974" d="M93.564,112.938l.047-.026a.553.553,0,0,1-.1.029c.006.009.032,0,.05,0" transform="translate(0 -5.596)" fill="#78c8e6"/>
    <path id="パス_3975" data-name="パス 3975" d="M93.61,112.908l.142-.049c.058-.037.067-.055-.115.035l-.027.014" transform="translate(0 -5.592)" fill="#78c8e6"/>
    <path id="パス_3976" data-name="パス 3976" d="M101.217,113.423a.424.424,0,0,0,.1.064.42.42,0,0,1-.1-.069v.006" transform="translate(0 -5.622)" fill="#78c8e6"/>
    <path id="パス_3977" data-name="パス 3977" d="M101.17,113.371l.011.026a.323.323,0,0,0,.036.023l-.009-.013-.038-.035" transform="translate(0 -5.619)" fill="#78c8e6"/>
    <path id="パス_3978" data-name="パス 3978" d="M101.085,113.286l0,0c.028.029.054.051.082.077l-.013-.03c-.006,0-.028-.01-.072-.051" transform="translate(0 -5.615)" fill="#78c8e6"/>
    <path id="パス_3979" data-name="パス 3979" d="M106.213,63.24c.051-.013.076-.018.145-.038a1.617,1.617,0,0,1-.182.037c.012,0,.025,0,.037,0" transform="translate(0 -3.133)" fill="#78c8e6"/>
    <path id="パス_3980" data-name="パス 3980" d="M105.962,63.281c.03-.007.059-.006.088-.013s.083-.019.126-.026h-.005a.66.66,0,0,0-.209.04" transform="translate(0 -3.135)" fill="#78c8e6"/>
    <path id="パス_3981" data-name="パス 3981" d="M123.518,33.882c-.026-.058-.039-.085,0,0" transform="translate(0 -1.677)" fill="#78c8e6"/>
    <path id="パス_3982" data-name="パス 3982" d="M130.639,39.656c-1.149-2.508-2.821-4.247-5.508-4.831a1.878,1.878,0,0,1-1.564-1.475c-.051-.107-.107-.225-.126-.261-.273-.53-.557-1.053-.87-1.563a22.12,22.12,0,0,0-3.512-4.368,22.5,22.5,0,0,0-13.769-6.314c-4.56-.268-9.362.773-13.82,1.533q-7.2,1.226-14.327,2.783a22.929,22.929,0,0,1-7.923.637c.147.117.295.23.436.338a2.09,2.09,0,0,1-.456,3.359A22.594,22.594,0,0,1,63.609,31.5c.2.182.389.341.058.253a2.122,2.122,0,0,1,.537,3.908C60.938,37.3,59.878,42.2,59.12,45.294a40.6,40.6,0,0,0-1.484,10.649c.178,5.733,1.818,11.588,3.414,17.146l.09.019c.683-1.79,1.329-3.594,1.915-5.412a46.942,46.942,0,0,0,2.6-11.386c.111-1.85-.451-3.387,1.131-4.765,1.3-1.134,2.663-2.213,3.995-3.313Q77.9,42.347,85.056,36.5a2.225,2.225,0,0,1,3.534,2.592q-1.506,3.1-3.01,6.2c5.439-1.4,10.934-3.323,15.372-6.414,2.079-1.448,4.6,1.768,2.727,3.359-.976.828-2.08,1.716-3.047,2.7a31.263,31.263,0,0,0,8.226-1.478,71.826,71.826,0,0,0,7.626-2.5,2.361,2.361,0,0,1,2.541.982,28.9,28.9,0,0,1,4.508,8.7,26.281,26.281,0,0,1,.993,3.952c.086.508.138,1.022.213,1.531.024.115.066.329.085.4.305,1.177.62,2.348.973,3.513,1.328,4.38,2.805,8.721,4.307,13.051l.117-.054q.4-1.785.728-3.582a86.061,86.061,0,0,0,1.643-20.282,26.375,26.375,0,0,0-1.953-9.51" transform="translate(0 -1.031)" fill="#323232"/>
    <path id="パス_3983" data-name="パス 3983" d="M119.366,53.6a26.648,26.648,0,0,0-3.16-6.7,72.885,72.885,0,0,1-6.971,2.19c-3.964,1.017-9.085,2.259-13.064.7a2.368,2.368,0,0,1-1.539-1.539,85.843,85.843,0,0,1-12.448,3.543,2.2,2.2,0,0,1-2.541-3.141q.318-.653.634-1.306-5.094,4.183-10.156,8.4c.249,4.307-.986,8.711-2.228,12.8-.286.939-.606,1.87-.916,2.8l4.235-.431c.026,0,.053,0,.08,0a7.171,7.171,0,0,1,1.241-1.462c3.42-3.063,8.9-3.43,13.3-2.65,3.7.656,6.938,2.773,7.944,6.1h5.583a7.2,7.2,0,0,1,2.087-3.479c3.215-2.982,8.421-3.389,12.624-2.637a10.268,10.268,0,0,1,6.655,3.895.163.163,0,0,0,.021,0,1.8,1.8,0,0,1,.9.038l.586.094,2.028.323c-.936-2.774-1.849-5.555-2.7-8.351-.927-3.03-1.246-6.169-2.189-9.179M89.78,60.156a2.281,2.281,0,0,1-2.638,1.513c.079.024.049.038-.241-.032-.09,0-.179,0-.269.006-.154.039-.245.058-.284.063a11.541,11.541,0,0,0-1.13.285c-.206.068-.407.146-.61.222-.064.025-.132.05-.174.068-.137.06-.273.12-.409.182-.526.24-1.041.5-1.55.769a36.213,36.213,0,0,0-3.7,2.247,2.343,2.343,0,0,1-3.079-.767,2.089,2.089,0,0,1-.226-1.648A2.339,2.339,0,0,1,76.5,61.786c.31-.217.627-.423.945-.627a33.616,33.616,0,0,1,4.508-2.481c1.9-.844,4.121-1.681,6.25-1.153a2.166,2.166,0,0,1,1.572,2.631m27.112,4.555a2.333,2.333,0,0,1-3.078.767,31.8,31.8,0,0,0-3.463-1.853c-.244-.113-.491-.223-.739-.33-.117-.05-.236-.1-.353-.147l.072.031c.181.074.52.232,0,0l-.045-.018a15.81,15.81,0,0,0-1.538-.5c-.231-.062-.464-.118-.7-.164-.088-.017-.177-.031-.266-.047-.19-.011-.379-.019-.569-.013-.267.072-.321.066-.251.038a2.3,2.3,0,0,1-2.68-1.506,2.151,2.151,0,0,1,1.572-2.631c2.521-.63,5.233.458,7.476,1.466a31.373,31.373,0,0,1,3.754,1.987,2.126,2.126,0,0,1,.807,2.925" transform="translate(0 -2.324)" fill="#fff"/>
    <path id="パス_3984" data-name="パス 3984" d="M89.473,75.221c0-.014-.132-.352-.132-.383-.045-.087-.091-.176-.141-.26a3.537,3.537,0,0,0-1.144-1.187,10.014,10.014,0,0,0-4.779-1.371,14.851,14.851,0,0,0-5.017.442,6.385,6.385,0,0,0-1.928.81c-.1.062-.206.128-.306.2-.047.037-.192.147-.229.182-.075.068-.486.492-.494.473a4.677,4.677,0,0,0-.309.455c.014-.024-.143.293-.182.355-.031.106-.122.412-.172.616-.008.061-.038.247-.041.3-.007.192-.013.383-.007.575,0,.121.014.243.026.365.011.052.044.264.056.315a7.6,7.6,0,0,0,2.021,3.636,7.388,7.388,0,0,0,8,1.91A8.357,8.357,0,0,0,88.227,79.9a7.921,7.921,0,0,0,1.035-1.885,4.967,4.967,0,0,0,.344-1.812c0-.092-.031-.467-.037-.591-.029-.1-.105-.423-.1-.39m-6.987,2.75a2.139,2.139,0,1,1,0-4.277,2.139,2.139,0,1,1,0,4.277" transform="translate(0 -3.568)" fill="#fff"/>
    <path id="パス_3985" data-name="パス 3985" d="M164.877,163.185c-4.12-2.2-8.515-4-12.809-5.873q-8.908-3.878-17.9-7.576-7.853,4.593-15.706,9.186a2.337,2.337,0,0,1-3.078-.767L110.3,147.891c-1.228-2.479,2.653-4.648,3.885-2.159l4.1,8.274,12.592-7.366a129.743,129.743,0,0,1-6.119-12.1c-.821.652-1.656,1.288-2.533,1.883-1.373.932-2.808,1.781-4.27,2.581q-1.513.83-3.066,1.594a19.285,19.285,0,0,1-3.463,1.642s-.626.245-.762.189a9.141,9.141,0,0,0-.815,1.143q-1.467,2.047-2.942,4.088c-1.7,2.357-3.442,4.691-5.168,7.033.093-.016.187-.032.279-.051q.615-.127,1.214-.311.33-.1.652-.22a3.206,3.206,0,0,1,.307-.116l-.056.014c-.17.067-.453.118,0,0a.176.176,0,0,0,.024-.009,19.012,19.012,0,0,0,3.139-1.786,2.342,2.342,0,0,1,3.078.767,2.128,2.128,0,0,1-.807,2.926,17.758,17.758,0,0,1-6.249,2.836,23.66,23.66,0,0,1-2.7.38c-.321.031-.643.058-.964.091l-.253.027-.028,0c-.052.01-.1.023-.153.031a2.956,2.956,0,0,1-.806.021,2.168,2.168,0,0,1,.2.827c.109,3.618-.111,7.239,0,10.857a2.253,2.253,0,0,1-4.5,0c-.109-3.618.111-7.239,0-10.857a1.843,1.843,0,0,1,.195-.877,1.782,1.782,0,0,1-.216-.418c-2.985-3.366-5.846-6.831-8.676-10.314q-1.649-2.029-3.28-4.069c-.295-.37-.917-.927-1.257-1.437-.2-.117-.4-.248-.584-.36l-2.913-1.735-10.1-6.018q-2.463,5.971-4.927,11.94l6.891,9.506,6.117-13.323c1.157-2.519,5.032-.338,3.886,2.159q-1.3,2.827-2.6,5.654a2.761,2.761,0,0,1,.61.55l.012.009c.08.07.147.16.223.235.128.126.273.235.405.355l.137.09c.177.112.36.217.546.316s.389.2.588.285l.206.088.027.01c.426.15.853.3,1.288.424,2.009.592,4.08.978,6.1,1.523a2.169,2.169,0,0,1,1.572,2.631,2.292,2.292,0,0,1-2.768,1.493c-3.622-.975-7.959-1.433-10.851-3.867l-3.126,6.81c-.734,1.6-3.037,1.17-3.886,0l-4.208-5.806-5.02-6.926c-.1-.138-.193-.269-.286-.4-4.414,1.929-8.957,3.6-13.5,5.216-5.1,1.813-10.222,3.552-15.287,5.442-4.018,1.5-8.6,2.949-12.11,5.406C13.617,167.3,11,171.385,8.926,175.2A42.488,42.488,0,0,0,4.55,186.668H180.623a37.4,37.4,0,0,0-4.313-12.657,28.808,28.808,0,0,0-11.433-10.826" transform="translate(0 -6.668)" fill="#fff"/>
    <path id="パス_3986" data-name="パス 3986" d="M167.219,66.537a5.725,5.725,0,0,0-2.567.127,2.1,2.1,0,0,1-.877,2.787,1.877,1.877,0,0,0-.675.516,4.329,4.329,0,0,0-.308.5,4.976,4.976,0,0,0-.162.563,4.118,4.118,0,0,0,0,.566,3.5,3.5,0,0,0,.1.373c.063.114.13.225.2.334.093.1.192.184.293.271a4.97,4.97,0,0,0,.457.248,5.521,5.521,0,0,0,.6.155,5.07,5.07,0,0,0,.6,0,4.393,4.393,0,0,0,.487-.124c.1-.048.192-.1.286-.155.1-.087.2-.179.289-.275a3.984,3.984,0,0,0,.252-.416,4.294,4.294,0,0,0,.16-.566,4.5,4.5,0,0,0,0-.569,4.6,4.6,0,0,0-.155-.541,3.878,3.878,0,0,0-.312-.507l.217.265a2.351,2.351,0,0,1-.64-1.482,2.1,2.1,0,0,1,.659-1.512,2.206,2.206,0,0,1,1.085-.562" transform="translate(0 -3.292)" fill="#fff"/>
    <path id="パス_3987" data-name="パス 3987" d="M204.107,13.829a36.818,36.818,0,0,0-6.6-2.448,2.127,2.127,0,0,1-1.352-3,34.96,34.96,0,0,1-4.08-1.673,2.394,2.394,0,0,1-4.221.754c-1.712-2.49-5.467-3.462-8.435-3.018-2.682.4-5.833,2.267-5.947,5.108a2.251,2.251,0,0,1-2.25,2.138c-2.269.153-12.685,1.033-9.324,5.255,2.324,2.919,5.807,5.372,3.757,9.45a13.9,13.9,0,0,1-3.2,3.73c-.9.828-2.161,1.742-2.6,2.9-.608,1.618,1.575,2.84,2.87,3.336a16.324,16.324,0,0,0,6.722.645c5.15-.3,10.329-1.464,15.388.112,2.239.7,4.318,1.8,6.6,2.383a16.688,16.688,0,0,0,6.578.3A13.09,13.09,0,0,0,204,37.515c1.745-1.356,1.5-2.359.129-3.747-2.343-2.368-4.854-5.091-2.778-8.45a14.267,14.267,0,0,1,3.882-3.58c1.045-.781,2.6-1.739,2.783-3.1.3-2.176-2.2-3.9-3.91-4.811" transform="translate(0 -0.215)" fill="#fff"/>
    <path id="パス_3988" data-name="パス 3988" d="M175.824,53.112l-.053-.048a.456.456,0,0,1,.027.039c.021.034.041.067.06.1l.011,0c-.009-.025-.018-.048-.025-.07a.148.148,0,0,0-.02-.029" transform="translate(0 -2.63)" fill="#78c8e6"/>
    <path id="パス_3989" data-name="パス 3989" d="M175.637,52.935l.005,0,.012.007c.014,0,.025,0,.04.006l0,0a.439.439,0,0,1-.054-.012" transform="translate(0 -2.624)" fill="#78c8e6"/>
    <path id="パス_3990" data-name="パス 3990" d="M175.51,52.863c-.086-.048-.111-.036-.1-.01.038.011.072.03.111.041.022.006.061.019.1.032l0,0c-.038-.02-.076-.04-.111-.06" transform="translate(0 -2.619)" fill="#78c8e6"/>
    <path id="パス_3991" data-name="パス 3991" d="M175.621,52.922l.01.006h.007a1.46,1.46,0,0,1-.128-.116c.048.052.076.075.111.109" transform="translate(0 -2.618)" fill="#78c8e6"/>
    <path id="パス_3992" data-name="パス 3992" d="M172.927,55.471l.112.008a1.219,1.219,0,0,0-.215-.047c-.027.011-.009.031.1.039" transform="translate(0 -2.747)" fill="#78c8e6"/>
    <path id="パス_3993" data-name="パス 3993" d="M170.5,54.089c.007,0,.026.018.039.027l0,0c-.012-.008-.024-.023-.035-.023" transform="translate(0 -2.681)" fill="#78c8e6"/>
    <path id="パス_3994" data-name="パス 3994" d="M173.038,55.481a.485.485,0,0,1,.082.021.358.358,0,0,0-.05-.019l-.032,0" transform="translate(0 -2.75)" fill="#78c8e6"/>
    <path id="パス_3995" data-name="パス 3995" d="M175.984,53.594l.006.024a1.266,1.266,0,0,1-.006-.15c0,.058,0,.083,0,.126" transform="translate(0 -2.65)" fill="#78c8e6"/>
    <path id="パス_3996" data-name="パス 3996" d="M175.99,53.626c0,.063,0,.125.007.188.02.072.045.016.016-.094-.009-.031-.016-.063-.023-.094" transform="translate(0 -2.658)" fill="#78c8e6"/>
    <path id="パス_3997" data-name="パス 3997" d="M170.539,54.117l.063.093c.119.174.075.052,0-.041a.417.417,0,0,0-.065-.052" transform="translate(0 -2.682)" fill="#78c8e6"/>
    <path id="パス_3998" data-name="パス 3998" d="M175.7,52.954c.016,0,.024.006.042.007a.378.378,0,0,1-.045-.01l0,0" transform="translate(0 -2.624)" fill="#78c8e6"/>
    <path id="パス_3999" data-name="パス 3999" d="M175.764,53.051c.05.024.033-.015-.042-.061.015.021.027.041.042.061" transform="translate(0 -2.626)" fill="#78c8e6"/>
    <path id="パス_4000" data-name="パス 4000" d="M175.694,52.953c0,.01.008.014.012.023s.01.008.017.011a.256.256,0,0,1-.024-.033h-.005" transform="translate(0 -2.625)" fill="#78c8e6"/>
    <path id="パス_4001" data-name="パス 4001" d="M175.752,53.045l.02.018-.007-.01-.013-.008" transform="translate(0 -2.629)" fill="#78c8e6"/>
    <path id="パス_4002" data-name="パス 4002" d="M175.7,52.972l-.046-.025h-.006c.028.025.053.05.082.075-.008-.015-.016-.028-.025-.046l0,0" transform="translate(0 -2.624)" fill="#78c8e6"/>
    <path id="パス_4003" data-name="パス 4003" d="M170.34,53.785a.444.444,0,0,1,.032.117.314.314,0,0,0-.008-.077l-.024-.04" transform="translate(0 -2.666)" fill="#78c8e6"/>
    <path id="パス_4004" data-name="パス 4004" d="M170.16,53.161c.013-.04.019-.063.029-.093a.613.613,0,0,1,.011-.085c-.012.059-.025.118-.042.173l0,0" transform="translate(0 -2.626)" fill="#78c8e6"/>
    <path id="パス_4005" data-name="パス 4005" d="M170.763,51.951a.528.528,0,0,0,.061-.051h0c-.021.018-.036.033-.06.051" transform="translate(0 -2.572)" fill="#78c8e6"/>
    <path id="パス_4006" data-name="パス 4006" d="M170.318,53.739c.008.012.015.025.022.038a.916.916,0,0,0-.039-.14c-.032-.028-.05,0,.017.1" transform="translate(0 -2.658)" fill="#78c8e6"/>
    <path id="パス_4007" data-name="パス 4007" d="M170.752,51.962c-.193.1-.1.067,0,0" transform="translate(0 -2.576)" fill="#78c8e6"/>
    <path id="パス_4008" data-name="パス 4008" d="M170.148,53.2c.006-.016.006-.019.011-.034v0c0,.012-.005.027-.01.039" transform="translate(0 -2.635)" fill="#78c8e6"/>
    <path id="パス_4009" data-name="パス 4009" d="M170.187,53.324c0,.186.006.116,0,0" transform="translate(0 -2.643)" fill="#78c8e6"/>
    <path id="パス_4010" data-name="パス 4010" d="M175.691,52.947l.005,0c-.006-.011-.016-.021-.02-.03.005.012.01.016.015.028" transform="translate(0 -2.623)" fill="#78c8e6"/>
    <path id="パス_4011" data-name="パス 4011" d="M198.707,7.042a2.006,2.006,0,0,0-2.548,1.123,12.742,12.742,0,0,0,3.9.7,12.742,12.742,0,0,1-3.9-.7,2.126,2.126,0,0,0,1.352,3,36.808,36.808,0,0,1,6.6,2.448c1.711.909,4.211,2.636,3.91,4.811-.188,1.358-1.738,2.316-2.782,3.1a14.271,14.271,0,0,0-3.883,3.58c-2.075,3.359.436,6.082,2.779,8.45,1.373,1.389,1.615,2.39-.129,3.748a13.1,13.1,0,0,1-5.979,2.285,16.686,16.686,0,0,1-6.578-.3c-2.281-.585-4.361-1.685-6.6-2.383-5.058-1.576-10.238-.407-15.388-.111a16.342,16.342,0,0,1-6.722-.646c-1.294-.5-3.477-1.718-2.869-3.336.434-1.155,1.7-2.068,2.6-2.9a13.925,13.925,0,0,0,3.2-3.73c2.049-4.078-1.434-6.531-3.757-9.45-3.362-4.222,7.054-5.1,9.323-5.255a2.251,2.251,0,0,0,2.25-2.138c.114-2.841,3.265-4.706,5.947-5.108,2.969-.445,6.723.527,8.435,3.018a2.394,2.394,0,0,0,4.221-.754c-.34-.159-.68-.32-1.02-.482.34.162.68.323,1.02.482a1.826,1.826,0,0,0-.335-1.4c-5.123-7.45-20.188-6.733-22.479,2.256-4.573.391-9.884,1.332-11.978,5.563a5.547,5.547,0,0,0,.541,5.732c1.047,1.516,3.144,2.766,3.825,4.466.553,1.382-1.137,2.633-2.059,3.49a16.652,16.652,0,0,0-3.614,4.053c-2.4,4.516,1.75,8.511,6.1,9.8,5.828,1.72,11.867-.347,17.779-.083,3.117.139,5.726,1.468,8.585,2.486a20.889,20.889,0,0,0,8.074,1.165c4.692-.255,11.119-2.069,12.969-6.7.872-2.181.091-4.237-1.4-5.954-.8-.918-3.244-2.462-3-3.785.144-.771,1.253-1.466,1.841-1.924.908-.709,1.879-1.346,2.75-2.1a6.956,6.956,0,0,0,2.743-6.388c-.954-6.184-8.358-8.487-13.718-10.124" transform="translate(0 0)" fill="#323232"/>
    <path id="パス_4012" data-name="パス 4012" d="M175.984,53.6a1.041,1.041,0,0,0,.013.212c0-.063,0-.125-.007-.188l-.006-.024" transform="translate(0 -2.657)" fill="#323232"/>
    <path id="パス_4013" data-name="パス 4013" d="M172.823,55.432a1.2,1.2,0,0,1,.215.047l.032,0a.415.415,0,0,0-.247-.048" transform="translate(0 -2.747)" fill="#323232"/>
    <path id="パス_4014" data-name="パス 4014" d="M175.655,52.947l.046.025,0,0c0-.009-.008-.013-.012-.023s-.025,0-.039-.006" transform="translate(0 -2.624)" fill="#323232"/>
    <path id="パス_4015" data-name="パス 4015" d="M176.72,48.5a2.3,2.3,0,0,0-2.768,1.493,2.162,2.162,0,0,0,1.461,2.59c-.014-.026.011-.038.1.01.035.021.073.04.11.06-.035-.034-.063-.057-.11-.109a1.447,1.447,0,0,0,.127.116c.02.007.036.009.054.013,0-.011-.01-.015-.015-.029a.194.194,0,0,0,.02.029.253.253,0,0,0,.045.01c-.018,0-.026,0-.042-.006.007.011.015.022.023.033.075.046.092.085.042.061l.007.01.053.048c.012.011.011.017.02.027s.016.048.024.071l-.01,0,.021.035c.031.08.06.16.082.239.009.031.016.063.023.1,0-.044,0-.069,0-.126,0,.048,0,.1.006.15.007.031.014.063.023.094.029.11,0,.165-.016.093a1.343,1.343,0,0,1,.006.155.35.35,0,0,1,0,.046c-.025.1-.046.206-.076.3v0c-.032.049-.06.1-.092.15a1.535,1.535,0,0,1-.111.142c-.06.061-.123.12-.187.178-.029.026-.059.049-.088.074-.123.069-.241.148-.367.213-.064.033-.128.062-.192.093h-.005c-.3.089-.6.16-.909.221l-.158.01c-.205.01-.411.01-.616,0l-.128-.008a.264.264,0,0,1,.05.018.485.485,0,0,0-.082-.021l-.112-.008c-.112-.007-.129-.028-.1-.039a1.491,1.491,0,0,1-.179-.025c-.184-.042-.364-.092-.542-.15-.058-.018-.115-.039-.172-.059l-.012-.007c-.3-.149-.578-.344-.871-.5-.04-.034-.081-.068-.12-.1s-.208-.239-.323-.352c.073.093.116.215,0,.041l-.063-.092c-.013-.009-.032-.028-.039-.028.011,0,.023.016.035.023-.028-.041-.056-.08-.082-.122s-.06-.1-.089-.149a.3.3,0,0,1,.008.076.444.444,0,0,0-.032-.117c-.007-.012-.014-.026-.022-.037-.067-.1-.049-.129-.017-.1a2.109,2.109,0,0,1-.1-.246c-.005-.02-.01-.052-.014-.082,0-.058,0-.118,0-.176a.328.328,0,0,1,0-.034c-.009.029-.015.053-.03.092v0a1.609,1.609,0,0,0,.042-.172.613.613,0,0,0-.011.085c.051-.163.047-.2.027-.15a2.008,2.008,0,0,1,.061-.248c.011-.034.023-.067.035-.1l.23-.358c.051-.051.1-.107.151-.152.016-.014.042-.033.067-.051l0,0,.133-.071c.054-.014.11-.028.161-.043l.01,0a2.208,2.208,0,0,0,2.13-2.121,2.321,2.321,0,0,0-.43-1.212h0a2.073,2.073,0,0,0-1.82-.927,5.541,5.541,0,0,0-5.128,4.371,6.144,6.144,0,0,0,3.092,6.363A8.81,8.81,0,0,0,175.69,59.1c2.227-.58,4.31-2.238,4.7-4.489A5.229,5.229,0,0,0,176.72,48.5m-5.9,3.177h0a.534.534,0,0,1-.061.052c.024-.018.039-.033.06-.051m-.071.058c-.1.068-.194.1,0,0m-.6,1.182c.005-.012.006-.027.01-.039v0c0,.015,0,.018-.011.034m.039.112c.006.116,0,.186,0,0" transform="translate(0 -2.347)" fill="#323232"/>
    <path id="パス_4016" data-name="パス 4016" d="M175.691,52.948l0,0h.006l0,0,0,0" transform="translate(0 -2.624)" fill="#323232"/>
    <path id="パス_4017" data-name="パス 4017" d="M170.539,54.117a.417.417,0,0,1,.065.052.216.216,0,0,0-.068-.057l0,0" transform="translate(0 -2.682)" fill="#323232"/>
    <path id="パス_4018" data-name="パス 4018" d="M170.34,53.778l.024.04a.3.3,0,0,0-.063-.179.805.805,0,0,1,.039.139" transform="translate(0 -2.659)" fill="#323232"/>
    <path id="パス_4019" data-name="パス 4019" d="M175.771,53.055l-.02-.018.013.008c-.016-.02-.027-.041-.042-.061a.182.182,0,0,1-.016-.012c.008.018.016.03.024.046l-.082-.075h.006l-.012-.007-.005,0h-.007l-.01-.006,0,0c-.04-.013-.078-.028-.1-.033-.04-.01-.073-.029-.111-.041.015.028.091.065.223.086a1.107,1.107,0,0,0,.1.087.566.566,0,0,0,.123.169c-.02-.035-.039-.069-.061-.1a.285.285,0,0,0-.026-.038" transform="translate(0 -2.62)" fill="#323232"/>
    <path id="パス_4020" data-name="パス 4020" d="M169.316,67.05a2.258,2.258,0,0,0-2.1-.562,2.272,2.272,0,0,1,1.34,1.218,2.272,2.272,0,0,0-1.34-1.218,2.219,2.219,0,0,0-1.084.562,2.1,2.1,0,0,0-.659,1.512,2.355,2.355,0,0,0,.639,1.482l-.215-.265a3.927,3.927,0,0,1,.31.507,4.082,4.082,0,0,1,.155.541,2.148,2.148,0,0,1-.163,1.136,4.151,4.151,0,0,1-.252.415,3.68,3.68,0,0,1-.29.275c-.093.056-.189.107-.286.156a4.491,4.491,0,0,1-.487.123,5.054,5.054,0,0,1-.6,0,5.276,5.276,0,0,1-.6-.155,4.738,4.738,0,0,1-.456-.248c-.1-.086-.2-.176-.293-.271a3.694,3.694,0,0,1-.2-.333,3.773,3.773,0,0,1-.1-.374,4.284,4.284,0,0,1,0-.566,2.174,2.174,0,0,1,.469-1.063,4.057,4.057,0,0,1,.325-.309,3.83,3.83,0,0,1,.35-.207,2.1,2.1,0,0,0,.878-2.786,2.313,2.313,0,0,1-2.094-.336,2.313,2.313,0,0,0,2.094.336,1.439,1.439,0,0,0-.071-.141,2.373,2.373,0,0,0-3.078-.767c-3.713,1.793-4.661,7.234-1.446,9.885a7.23,7.23,0,0,0,5.989,1.5,6.064,6.064,0,0,0,4.457-3.819,6.224,6.224,0,0,0,.282-3.3,5.835,5.835,0,0,0-1.469-2.926" transform="translate(0 -3.244)" fill="#323232"/>
    <path id="パス_4021" data-name="パス 4021" d="M110.934,73.783a2.139,2.139,0,1,0,0,4.277,2.139,2.139,0,1,0,0-4.277" transform="translate(0 -3.657)" fill="#323232"/>
    <path id="パス_4022" data-name="パス 4022" d="M82.486,73.783a2.139,2.139,0,1,0,0,4.277,2.139,2.139,0,1,0,0-4.277" transform="translate(0 -3.657)" fill="#323232"/>
    <path id="パス_4023" data-name="パス 4023" d="M97.428,93.093a2.139,2.139,0,1,0,0,4.277,2.139,2.139,0,1,0,0-4.277" transform="translate(0 -4.614)" fill="#323232"/>
    <path id="パス_4024" data-name="パス 4024" d="M101.088,113.29a.365.365,0,0,0,.093.1l-.011-.026c-.027-.026-.054-.048-.082-.077" transform="translate(0 -5.615)" fill="#323232"/>
    <path id="パス_4025" data-name="パス 4025" d="M93.564,112.935a.531.531,0,0,0,.189-.075l-.142.049-.047.026" transform="translate(0 -5.594)" fill="#323232"/>
    <path id="パス_4026" data-name="パス 4026" d="M99.769,108.063a15.172,15.172,0,0,0-7.827.652,5.916,5.916,0,0,0-3.183,2.552,2.122,2.122,0,0,0,.807,2.925,2.346,2.346,0,0,0,3.078-.767c.044-.086.1-.166.147-.249.058-.053.117-.106.173-.162.2-.111.4-.224.6-.329-.018,0-.044.012-.05,0a.554.554,0,0,0,.1-.029l.026-.014c.183-.09.174-.072.116-.035l.2-.072c.271-.085.546-.155.823-.216.164-.036.329-.067.5-.1.078-.014.228-.025.319-.03l-.28.013c.64-.029,1.269-.107,1.912-.1.33,0,.66.019.989.046.134.01.268.028.4.038l.024,0a10.378,10.378,0,0,1,1.74.412l.048.017c.071.032.157.065.2.085.116.057.23.117.341.182.036.039.078.083.123.126l0,0c-.026-.023-.071-.073-.111-.116a.841.841,0,0,1,.092.069c0-.026.028,0,.08.073l0,.01.006.015.012.029.039.035.008.013c-.011-.008-.025-.014-.036-.023a2.293,2.293,0,0,0,2.68,1.286,2.163,2.163,0,0,0,1.571-2.631c-.706-2.316-3.364-3.371-5.662-3.714m1.448,5.083v-.006a.42.42,0,0,0,.1.069.424.424,0,0,1-.1-.064" transform="translate(0 -5.345)" fill="#323232"/>
    <path id="パス_4027" data-name="パス 4027" d="M101.066,113.236a.114.114,0,0,0,.019.047c.044.041.066.054.072.052l-.006-.015a.434.434,0,0,0-.085-.084" transform="translate(0 -5.613)" fill="#323232"/>
    <path id="パス_4028" data-name="パス 4028" d="M95.59,112.424h0" transform="translate(0 -5.572)" fill="#323232"/>
    <path id="パス_4029" data-name="パス 4029" d="M116.085,62.372a31.462,31.462,0,0,0-3.755-1.987c-2.242-1.007-4.954-2.095-7.476-1.466a2.151,2.151,0,0,0-1.571,2.631,2.305,2.305,0,0,0,2.68,1.507.633.633,0,0,1,.208-.04h.005a1.514,1.514,0,0,0,.181-.037c-.068.021-.092.025-.143.038.191-.006.378,0,.569.013.088.015.178.029.266.047.235.047.468.1.7.164a16.155,16.155,0,0,1,1.538.5l.045.019-.072-.032c.117.052.236.1.353.148.248.105.5.216.74.329a31.628,31.628,0,0,1,3.462,1.854,2.334,2.334,0,0,0,3.079-.768,2.128,2.128,0,0,0-.807-2.925" transform="translate(0 -2.911)" fill="#323232"/>
    <path id="パス_4030" data-name="パス 4030" d="M106.051,63.268c-.03.008-.059.007-.088.013-.07.028-.016.033.251-.038-.013,0-.025,0-.037,0q-.064.01-.126.026" transform="translate(0 -3.135)" fill="#323232"/>
    <path id="パス_4031" data-name="パス 4031" d="M109.33,64.029c.52.231.181.074,0,0" transform="translate(0 -3.174)" fill="#323232"/>
    <path id="パス_4032" data-name="パス 4032" d="M87.011,62.418l-.053-.01c-.011,0-.021,0-.033,0H86.9c.289.07.319.055.24.031-.043-.008-.088-.009-.13-.019" transform="translate(0 -3.093)" fill="#323232"/>
    <path id="パス_4033" data-name="パス 4033" d="M88.208,58.071c-2.129-.529-4.345.309-6.25,1.153A33.511,33.511,0,0,0,77.45,61.7c-.318.2-.635.411-.945.626a2.344,2.344,0,0,0-1.033,1.278,2.086,2.086,0,0,0,.226,1.647,2.342,2.342,0,0,0,3.079.768,36.051,36.051,0,0,1,3.7-2.248c.509-.271,1.024-.529,1.55-.768.136-.062.272-.123.409-.182.042-.018.11-.045.174-.069.2-.076.4-.154.61-.222.373-.123.751-.2,1.13-.284-.1.011.079-.053.244-.062h.026c.044-.01.088-.019.132-.03l-.118.029c.09,0,.179-.007.269,0l-.181-.047c.078.021.16.032.239.048a.863.863,0,0,1,.183.029A2.28,2.28,0,0,0,89.78,60.7a2.165,2.165,0,0,0-1.572-2.63M84.657,62.74c.113-.043.175-.065,0,0" transform="translate(0 -2.87)" fill="#323232"/>
    <path id="パス_4034" data-name="パス 4034" d="M86.347,62.475a2.835,2.835,0,0,0,.284-.063h-.014c-.09.023-.18.043-.27.063" transform="translate(0 -3.093)" fill="#323232"/>
    <path id="パス_4035" data-name="パス 4035" d="M60.861,27.614a.436.436,0,0,1,.051-.009.207.207,0,0,1-.074-.011l.023.02" transform="translate(0 -1.368)" fill="#323232"/>
    <path id="パス_4036" data-name="パス 4036" d="M60.856,27.616c.014.011.028.02.042.032h0c-.015-.014-.024-.021-.038-.033h-.006" transform="translate(0 -1.369)" fill="#323232"/>
    <path id="パス_4037" data-name="パス 4037" d="M60.826,27.581l.013,0c-.2-.172-.279-.223-.282-.207a2.717,2.717,0,0,1,.269.205" transform="translate(0 -1.357)" fill="#323232"/>
    <path id="パス_4038" data-name="パス 4038" d="M170.822,155.9c-4.111-2.908-8.983-4.836-13.61-6.878s-9.3-4.036-13.972-6q-3.924-1.651-7.862-3.274c-2.733-4.93-5.593-9.968-7.484-15.236a2.331,2.331,0,0,0-3.761-.943l-.177.144c-.277-3.091-.4-6.2-.416-9.3a1.971,1.971,0,0,0-.124-.638,44.9,44.9,0,0,0,5.765-16.012c2.6-.625,5.431-1.263,7.318-3.036A14.857,14.857,0,0,0,140.6,82.982c-.439-3.519-2.424-7.4-6.106-8.652.065-.3.119-.6.18-.892.652-3.038,1.164-6.1,1.584-9.176,1.117-8.163,2.046-17.558-1.064-25.437-1.426-3.613-3.939-6.775-7.817-8.027-3.009-6.342-9.394-11.263-16.252-13.342-4.938-1.5-9.541-1.078-14.577-.393C91.1,17.8,85.69,18.813,80.307,19.9c-2.292.464-4.6,1.129-6.924,1.446a9.739,9.739,0,0,1-4.428-.267c-.3-.105-.54-.244-.863-.39-.042-.019-.064-.028-.094-.04l0,0a2.362,2.362,0,0,0-3.534.433,4.854,4.854,0,0,0-.009,5.59,7.169,7.169,0,0,1-3.05.47c-.062-.006-.358-.025-.5-.047l.013.01-.015-.01c-.069-.01-.093-.022-.042-.032l-.03-.023a.531.531,0,0,1-.269-.205A2.221,2.221,0,0,0,57.379,29.7,23.668,23.668,0,0,0,59.6,33.5c-2.3,2.331-3.512,5.787-4.352,8.7A51.746,51.746,0,0,0,53.13,54.826c-.116,4.166.97,8.474,1.9,12.517.452,1.954.948,3.9,1.472,5.839a7.53,7.53,0,0,0-3.814,2.206c-2.394,2.623-2.86,6.466-2.449,9.8s1.556,6.779,4.421,8.946a16.547,16.547,0,0,0,6.421,2.819c1.105,6.211,2.851,12.427,6.428,17.792.143.215.308.413.457.624a1.9,1.9,0,0,0-.145.738c.013,1.238-.029,2.48-.091,3.716-.06,1.2-.148,2.393-.272,3.587-.022.218-.048.435-.074.652l-.073-.043a2.32,2.32,0,0,0-3.305,1.277L58.839,137.83a2.491,2.491,0,0,0-.239.086c-9.837,4.635-20.429,7.689-30.625,11.507-4.257,1.593-8.978,3.127-12.759,5.628-4.038,2.671-7.02,6.71-9.387,10.744A45.635,45.635,0,0,0,0,180.815H4.55a42.488,42.488,0,0,1,4.376-11.467c2.077-3.816,4.691-7.9,8.392-10.492,3.507-2.457,8.092-3.906,12.11-5.406,5.065-1.89,10.191-3.629,15.287-5.442,4.546-1.618,9.089-3.287,13.5-5.216.093.132.186.263.286.4l5.02,6.926,4.208,5.806c.849,1.17,3.152,1.6,3.886,0l3.126-6.81c2.892,2.434,7.229,2.893,10.851,3.867a2.292,2.292,0,0,0,2.768-1.493,2.169,2.169,0,0,0-1.572-2.631c-2.023-.545-4.094-.93-6.1-1.523-.435-.128-.862-.274-1.288-.424l-.027-.01c-.069-.029-.138-.058-.206-.088-.2-.089-.4-.183-.588-.285s-.369-.2-.546-.316l-.137-.09c-.132-.121-.277-.229-.405-.355-.076-.075-.143-.164-.223-.235l-.012-.009a2.761,2.761,0,0,0-.61-.55q1.3-2.827,2.6-5.654c1.146-2.5-2.729-4.678-3.886-2.158l-6.117,13.322-6.891-9.506q2.465-5.971,4.927-11.94l10.1,6.018,2.913,1.735c.188.112.384.243.584.36.34.51.962,1.067,1.257,1.437q1.632,2.042,3.28,4.069c2.83,3.483,5.691,6.948,8.676,10.314a1.782,1.782,0,0,0,.216.418,1.843,1.843,0,0,0-.195.877c.109,3.618-.111,7.239,0,10.857a2.253,2.253,0,0,0,4.5,0c-.109-3.618.111-7.239,0-10.857a2.168,2.168,0,0,0-.2-.827,2.956,2.956,0,0,0,.806-.021c.048-.009.1-.021.153-.031l.028,0,.253-.027c.321-.033.643-.06.964-.091a23.66,23.66,0,0,0,2.7-.38,17.758,17.758,0,0,0,6.249-2.836,2.128,2.128,0,0,0,.807-2.926,2.343,2.343,0,0,0-3.078-.767,19.012,19.012,0,0,1-3.139,1.786.176.176,0,0,1-.024.009l.056-.014a3.206,3.206,0,0,0-.307.116q-.322.118-.652.22-.6.184-1.214.311c-.092.019-.186.035-.279.051,1.726-2.342,3.464-4.676,5.168-7.033q1.475-2.042,2.942-4.088a9.141,9.141,0,0,1,.815-1.143c.136.056.757-.187.762-.189a19.285,19.285,0,0,0,3.463-1.642q1.549-.767,3.066-1.593c1.462-.8,2.9-1.65,4.27-2.582.877-.595,1.712-1.231,2.533-1.883a129.876,129.876,0,0,0,6.119,12.106l-12.592,7.365-4.1-8.274c-1.232-2.488-5.113-.319-3.885,2.159L115.38,152.3a2.337,2.337,0,0,0,3.078.767q7.854-4.592,15.706-9.186,8.989,3.705,17.9,7.576c4.294,1.87,8.689,3.672,12.809,5.873a28.808,28.808,0,0,1,11.433,10.826,37.4,37.4,0,0,1,4.313,12.657h4.521c-1.518-9.778-5.788-18.875-14.322-24.912M123.519,33.02c-.02-.042-.026-.057-.025-.053s0,.011.025.053M59.12,45.078c.759-3.095,1.818-7.992,5.084-9.627a2.123,2.123,0,0,0-.537-3.909c.332.088.146-.07-.058-.253A22.526,22.526,0,0,0,69.2,29.277a2.089,2.089,0,0,0,.455-3.359c-.14-.107-.289-.221-.435-.338a22.931,22.931,0,0,0,7.923-.636q7.124-1.56,14.326-2.784c4.458-.76,9.261-1.8,13.82-1.532a22.5,22.5,0,0,1,13.77,6.314,22.159,22.159,0,0,1,3.512,4.367c.313.51.6,1.033.869,1.563.019.036.075.154.127.262a1.876,1.876,0,0,0,1.563,1.474c2.688.584,4.359,2.324,5.508,4.831a26.376,26.376,0,0,1,1.954,9.511,86.163,86.163,0,0,1-1.643,20.281c-.222,1.2-.462,2.393-.729,3.582l-.116.054c-1.5-4.33-2.979-8.671-4.307-13.051-.353-1.165-.668-2.336-.974-3.513-.018-.071-.06-.285-.084-.4-.075-.509-.128-1.023-.213-1.53a26.226,26.226,0,0,0-.994-3.952,28.87,28.87,0,0,0-4.507-8.7,2.362,2.362,0,0,0-2.541-.983,71.843,71.843,0,0,1-7.627,2.5,31.217,31.217,0,0,1-8.225,1.478c.966-.98,2.071-1.87,3.046-2.7,1.875-1.591-.647-4.807-2.726-3.359-4.439,3.092-9.934,5.016-15.373,6.414q1.5-3.1,3.01-6.2a2.225,2.225,0,0,0-3.534-2.592q-7.147,5.855-14.273,11.733c-1.333,1.1-2.694,2.18-4,3.314-1.582,1.377-1.02,2.915-1.131,4.765a46.883,46.883,0,0,1-2.6,11.386c-.587,1.818-1.232,3.622-1.915,5.412l-.091-.019c-1.6-5.557-3.235-11.413-3.414-17.145a40.606,40.606,0,0,1,1.484-10.65m58.5,28.372A6.834,6.834,0,0,1,116.36,77.1a8.042,8.042,0,0,1-3.237,2.751,6.063,6.063,0,0,1-4.08.346,7.36,7.36,0,0,1-3.593-2.29,7.614,7.614,0,0,1-1.824-3.6c-.013-.058-.036-.26-.043-.306-.009-.11-.018-.221-.021-.332-.007-.223.006-.443.012-.666a1.031,1.031,0,0,1,.015-.121,5.154,5.154,0,0,1,.255-.892.707.707,0,0,1,.039-.079c.122-.2.234-.4.37-.585.013-.018.015-.024.023-.035s.037-.036.068-.068c.094-.1.187-.192.286-.283.13-.121.269-.236.411-.344l.121-.074a6.1,6.1,0,0,1,1.83-.815,13.116,13.116,0,0,1,4.945-.421,8.939,8.939,0,0,1,4.214,1.328c.061.044.138.1.169.125.178.157.351.315.515.485.018.019.053.061.083.1a4.931,4.931,0,0,1,.281.419c.017.029.137.288.168.339.053.146.106.294.146.445.028.1.05.208.071.314a6.166,6.166,0,0,0,.038.616m-3.55-8.176c-4.2-.752-9.409-.345-12.624,2.637a7.2,7.2,0,0,0-2.087,3.479H93.778c-1.006-3.326-4.245-5.442-7.944-6.1-4.4-.78-9.881-.413-13.3,2.65A7.171,7.171,0,0,0,71.292,69.4c-.027,0-.054-.007-.08,0l-4.235.431c.31-.932.63-1.863.916-2.8,1.242-4.087,2.477-8.49,2.228-12.8q5.056-4.223,10.156-8.4-.316.653-.634,1.306a2.2,2.2,0,0,0,2.541,3.141,85.843,85.843,0,0,0,12.448-3.543,2.368,2.368,0,0,0,1.539,1.539c3.979,1.562,9.1.319,13.064-.7a72.885,72.885,0,0,0,6.971-2.19,26.648,26.648,0,0,1,3.16,6.7c.943,3.01,1.262,6.149,2.189,9.179.855,2.8,1.768,5.577,2.7,8.351l-2.028-.323-.586-.094a1.8,1.8,0,0,0-.9-.038l-.021,0a10.264,10.264,0,0,0-6.655-3.895M89.607,73.45a4.947,4.947,0,0,1-.345,1.812,7.883,7.883,0,0,1-1.034,1.886A8.372,8.372,0,0,1,84.7,79.9a7.388,7.388,0,0,1-8-1.909,7.593,7.593,0,0,1-2.021-3.637c-.012-.05-.045-.262-.056-.315-.012-.122-.022-.243-.026-.365-.007-.192,0-.383.007-.575,0-.056.033-.242.041-.3.05-.2.14-.509.171-.615.039-.064.2-.38.183-.356a4.667,4.667,0,0,1,.308-.455c.008.019.42-.4.494-.473.038-.035.183-.144.229-.182.1-.067.2-.134.307-.2a6.388,6.388,0,0,1,1.928-.81,14.848,14.848,0,0,1,5.016-.442,10.021,10.021,0,0,1,4.779,1.371A3.548,3.548,0,0,1,89.2,71.825c.05.085.1.173.14.26,0,.032.129.369.133.383-.01-.033.067.291.1.39.006.125.035.5.037.592m9.832,79.923c.039-.009.075-.009.113-.014-.038.006-.074.006-.113.014m19.949-26.127c-1.548,1.014-3.165,1.932-4.809,2.8-1.006.53-2.024,1.038-3.049,1.532a22.973,22.973,0,0,0-3.911,1.867,8.539,8.539,0,0,0-1.5,1.883q-1.476,2.063-2.962,4.118-3.4,4.706-6.876,9.362c-4.006-4.645-7.712-9.5-11.692-14.166a15.043,15.043,0,0,0-3.913-2.661l-7.883-4.7-1.26-.751a56.155,56.155,0,0,0,.686-6.28A35,35,0,0,0,84.562,127.7a33.169,33.169,0,0,0,21.737.144,32.556,32.556,0,0,0,12.872-8.522c.114,2.547.31,5.091.639,7.614-.145.1-.274.212-.422.309m-11.552-4.7a25.451,25.451,0,0,1-3.773,1.493v-2.116a2.157,2.157,0,0,0-.66-1.513,2.336,2.336,0,0,0-3.182,0,2.17,2.17,0,0,0-.658,1.513v3.111c-.3.039-.6.086-.9.115v-3.226A2.156,2.156,0,0,0,98,120.406a2.336,2.336,0,0,0-3.182,0,2.171,2.171,0,0,0-.659,1.513v3.308c-.3-.017-.6-.016-.9-.042v-3.266a2.156,2.156,0,0,0-.659-1.513,2.336,2.336,0,0,0-3.182,0,2.171,2.171,0,0,0-.659,1.513v2.507A29.169,29.169,0,0,1,72.15,113.658c-4.13-5.634-5.839-12.387-6.943-19.074a2.109,2.109,0,0,0-1.572-1.493,15.08,15.08,0,0,1-4.895-1.5,7.321,7.321,0,0,1-3.785-5.366,10.885,10.885,0,0,1,.351-6.855,3.379,3.379,0,0,1,4.983-1.612,2.044,2.044,0,0,0,2.574-.261,2.368,2.368,0,0,0,1.876-1.535c.229-.558.424-1.128.642-1.69l4.758-.485a10.263,10.263,0,0,0,2.017,5.622,12.079,12.079,0,0,0,21.639-3.741h5.563a10.917,10.917,0,0,0,1.713,3.787c2.662,3.751,7.363,6.1,12.141,4.9a11.97,11.97,0,0,0,8.9-10.757l2.4.382.586.093a1.78,1.78,0,0,0,.713.054c.186.536.366,1.073.553,1.608-.845,1.509,1,3.792,3.1,2.9.293-.1.579-.2.878-.278a5.246,5.246,0,0,1,2.119-.176c2.756.417,3.815,4.17,3.732,6.4-.091,2.4-1.169,6.295-3.521,7.621-1.708.964-4.136,1.275-6.046,1.783a2.158,2.158,0,0,0-1.572,1.493c-1.791,10.842-6.449,21.672-17.215,27.062" transform="translate(0 -0.815)" fill="#323232"/>
    <path id="パス_4039" data-name="パス 4039" d="M104.13,155.021c-.454.118-.171.067,0,0" transform="translate(0 -7.684)" fill="#323232"/>
  </g>
</svg>
