<svg id="グループ_4667" data-name="グループ 4667" xmlns="http://www.w3.org/2000/svg" xmlns:xlink="http://www.w3.org/1999/xlink" width="187.215" height="180" viewBox="0 0 187.215 180">
  <defs>
    <clipPath id="clip-path">
      <rect id="長方形_543" data-name="長方形 543" width="187.215" height="180" fill="none"/>
    </clipPath>
  </defs>
  <g id="グループ_4423" data-name="グループ 4423" clip-path="url(#clip-path)">
    <path id="パス_4040" data-name="パス 4040" d="M110.12,52.713c-.044,0-.088-.01-.131-.016.052.007.1.014.131.016" transform="translate(4.772 3.088)" fill="#78c8e6"/>
    <path id="パス_4041" data-name="パス 4041" d="M97.619,25.33c.031-.087.025-.1,0,0" transform="translate(4.236 1.48)" fill="#78c8e6"/>
    <path id="パス_4042" data-name="パス 4042" d="M101.062,28.088c.227-.176.266-.288,0,0" transform="translate(4.385 1.635)" fill="#78c8e6"/>
    <path id="パス_4043" data-name="パス 4043" d="M120.073,118.819a2.756,2.756,0,0,1-1.72.775,2.044,2.044,0,0,1-.407-.028l-8.4,2.953L98.6,126.368a2.622,2.622,0,0,1,.126.291l4.68,14.493,1.151-.48,22.22-9.262q-2.679-6.531-5.358-13.063l-1.341.471" transform="translate(4.278 6.934)" fill="#fff"/>
    <path id="パス_4044" data-name="パス 4044" d="M129.25,25.464a2.4,2.4,0,0,1-2.264-1.749c-.967-3.708-2.511-7.821-5.3-10.5-6.42-5.734-15.551-8.27-23.946-8.656A37.581,37.581,0,0,0,75.884,10.3a44.641,44.641,0,0,0-8.729,7.162c-2.089,2.2-4.369,4.626-5.429,7.538C59.4,31.4,59.567,38.936,60.191,45.618a63.829,63.829,0,0,0,1.067,6.923q.844-4.942,1.686-9.884a2.352,2.352,0,0,1,1.64-1.664c5.6-1.821,11.193-3.674,16.752-5.626a86.1,86.1,0,0,0,12.6-5.269,25.3,25.3,0,0,0,4.508-2.958c.659-.568,1.475-1.81,2.425-1.948,1.415-.205,3.051.588,2.972,2.3a5.9,5.9,0,0,1-1.444,2.933c-.945,1.366-1.911,2.717-2.878,4.068-.039.056-.079.11-.119.165.377-.168.755-.332,1.128-.508,4.255-2.012,9.129-4.626,11.375-9.026.949-1.86,3.767-1.324,4.29.57.931,3.363,3.05,6.042,4.958,8.882a95.753,95.753,0,0,1,5.225,8.966c1.357,2.587,3.519,5.644,3.655,8.661l.394,8.8a81.576,81.576,0,0,0,4.289-14.429c.886-4.439,1.547-9.291.691-13.8-.659-3.472-2.151-7.24-6.157-7.306" transform="translate(2.594 0.265)" fill="#323232"/>
    <path id="パス_4045" data-name="パス 4045" d="M64.23,119.069a1.985,1.985,0,0,1-.731-.343l-.872-.3L59.8,129.452c-.22.864-.42,1.74-.632,2.615l1,.351,21.8,7.688,4.617-13.582-21.9-7.4a2.432,2.432,0,0,1-.458-.058" transform="translate(2.567 6.939)" fill="#fff"/>
    <path id="パス_4046" data-name="パス 4046" d="M101.482,116.338A32.883,32.883,0,0,1,79.209,114.5a35.411,35.411,0,0,1-11.4-8.164,73.908,73.908,0,0,1-.68,9.42l7.076,2.39,15.989,5.4a14.157,14.157,0,0,1,1.749.588c-.362-.158.81.036,1.205.036.484,0,1.108-.142.893-.052.027-.011.055-.017.08-.029.615-.268,1.281-.45,1.913-.672L117.153,116c-.335-2.933-.592-5.878-.792-8.825a33.608,33.608,0,0,1-14.88,9.167" transform="translate(2.912 6.231)" fill="#fff"/>
    <path id="パス_4047" data-name="パス 4047" d="M133.475,68.149a5.108,5.108,0,0,0-1.544-.032c-.36.7-.695,1.414-1.078,2.1-1.194,2.131-4.272,1.086-4.374-1.2q-.408-9.1-.816-18.2c0-.087-.025-.219-.043-.356-.032-.077-.064-.157-.1-.228q-1.642-3.466-3.453-6.848a92.582,92.582,0,0,0-5.378-8.94,48.539,48.539,0,0,1-2.978-4.773,33.233,33.233,0,0,1-10.106,6.93,61.632,61.632,0,0,1-9.7,3.792c-1.836.527-3.906-1.769-2.651-3.5.572-.789,1.138-1.58,1.709-2.37-3.284,1.5-6.669,2.768-10.065,3.961-5.082,1.785-10.2,3.483-15.316,5.154q-1.654,9.7-3.31,19.4c-.411,2.414-3.939,2.12-4.527,0-.152-.548-.3-1.1-.448-1.645a2.6,2.6,0,0,1-.32-.2c-5.46-4.206-6.967,5.273-6.542,8.774.306,2.528,1.135,4.726,3.263,6.208a14.529,14.529,0,0,0,4.923,2.164,2.441,2.441,0,0,1,1.724,2.3c.519,7.678,1.77,15.523,5.835,22.168,7.359,12.03,23.152,17.962,36.17,12.193a32.755,32.755,0,0,0,14.55-13.552,52.261,52.261,0,0,0,5.462-14.526,2.32,2.32,0,0,1,1.639-1.663c2.1-.4,4.766-.524,6.686-1.486,2.627-1.318,4.184-5.749,4.4-8.5.2-2.517-.7-6.633-3.624-7.124M96.109,77.3c3.026,0,3.021,4.764,0,4.764s-3.022-4.764,0-4.764M83.122,61.553c-3.027,0-3.022-4.764,0-4.764s3.021,4.764,0,4.764m1.915-9.926-.2-.031c-.384-.041-.767-.085-1.152-.108a16.459,16.459,0,0,0-2.439.018c-.05,0-.188.02-.3.032l-.221.037a7.9,7.9,0,0,0-.934.238,2.379,2.379,0,0,1-2.888-1.663,2.426,2.426,0,0,1,1.64-2.93,14.114,14.114,0,0,1,5.138-.5,19.85,19.85,0,0,1,5.721,1.13,2.45,2.45,0,0,1,1.639,2.93,2.355,2.355,0,0,1-2.888,1.663,16.137,16.137,0,0,0-2.44-.694c-.225-.047-.453-.088-.68-.126M102,98.766a2.376,2.376,0,0,1-3.321,0l-.01-.01c-.079-.054-.157-.11-.236-.162-.215-.142-.438-.272-.666-.392-.093-.049-.189-.091-.281-.141l-.019-.011c-.2-.071-.4-.156-.61-.223a11.74,11.74,0,0,0-1.519-.383c-.077-.014-.172-.022-.263-.036a.69.69,0,0,1-.093-.019c-.229-.021-.456-.043-.686-.057a13.684,13.684,0,0,0-1.587,0c-.237.014-.472.041-.707.061-.119.021-.239.04-.358.064a10.647,10.647,0,0,0-1.34.347c-.1.033-.2.07-.294.1-.163.093-.361.165-.515.25a2.378,2.378,0,0,1-3.212-.854,2.423,2.423,0,0,1,.842-3.259A13.871,13.871,0,0,1,102,95.4a2.436,2.436,0,0,1,0,3.368m8.229-34.807c-3.026,0-3.021-4.764,0-4.764s3.022,4.764,0,4.764m8.571-9.9a2.37,2.37,0,0,1-3.212.854c-.109-.057-.22-.109-.331-.162-.033-.014-.068-.028-.1-.039-.343-.127-.694-.235-1.048-.328s-.726-.176-1.092-.243c-.181-.034-.362-.062-.544-.092-.05-.007-.1-.013-.149-.018a19.507,19.507,0,0,0-2.524-.116c-.43.008-.861.032-1.29.073l-.257.026c-.143.024-.286.046-.429.072a2.381,2.381,0,0,1-1.248-4.594,19.681,19.681,0,0,1,5.9-.207,15.366,15.366,0,0,1,5.485,1.517,2.437,2.437,0,0,1,.842,3.258" transform="translate(2.273 1.739)" fill="#fff"/>
    <path id="パス_4048" data-name="パス 4048" d="M88.354,94.166c-.086.03-.069.025,0,0" transform="translate(3.831 5.517)" fill="#78c8e6"/>
    <path id="パス_4049" data-name="パス 4049" d="M109.949,52.692h0c-.2-.033-.113-.017,0,0" transform="translate(4.765 3.086)" fill="#78c8e6"/>
    <path id="パス_4050" data-name="パス 4050" d="M93.222,93.643c.026.006.051.013.079.017.112.014.194.007-.024-.013l-.055,0" transform="translate(4.045 5.487)" fill="#78c8e6"/>
    <path id="パス_4051" data-name="パス 4051" d="M93.211,93.643h.014a.578.578,0,0,1-.07-.015.368.368,0,0,0,.056.014" transform="translate(4.042 5.486)" fill="#78c8e6"/>
    <path id="パス_4052" data-name="パス 4052" d="M94.7,127.368a8.9,8.9,0,0,1-4.836.042q-1.6,4.7-3.192,9.394a3.313,3.313,0,0,1,.7,1.065l2.8,6.823h3.925q1.169-3.7,2.339-7.409a2.469,2.469,0,0,1,1.019-1.353L94.711,127.4c0-.011,0-.019-.006-.03" transform="translate(3.761 7.463)" fill="#94c6d5"/>
    <path id="パス_4053" data-name="パス 4053" d="M88.045,142.777a2.385,2.385,0,0,1-2.888,1.664l-3.49-1.231-22.307-7.867a23.428,23.428,0,0,1-3.374,1.447c-6.387,2.693-13.035,4.731-19.458,7.368q-5.62,2.307-11.172,4.781a40.116,40.116,0,0,0-8.6,4.639c-5.919,4.6-9.867,11.336-12.075,18.494H84.6a170.8,170.8,0,0,1,5.226-25.087l-1.756-4.277c-.008.023-.017.047-.024.07" transform="translate(0.203 7.93)" fill="#fff"/>
    <path id="パス_4054" data-name="パス 4054" d="M90.619,148.232A168.858,168.858,0,0,0,85.8,171.315H99.56c-1.963-7.675-3.139-15.513-5.5-23.083Z" transform="translate(3.723 8.685)" fill="#94c6d5"/>
    <path id="パス_4055" data-name="パス 4055" d="M157.462,149.748A282.548,282.548,0,0,0,129.284,135.5a2.18,2.18,0,0,1-.832-.626l-3.089,1.288-22.748,9.481c-1.222.509-2.53-.553-2.888-1.663q-.275-.851-.549-1.7-.707,2.239-1.414,4.477c2.652,8.115,3.82,16.567,5.988,24.809a2.722,2.722,0,0,1,.086.535h74.483a71.807,71.807,0,0,0-6.6-11.711c-3.607-4.823-9.193-7.654-14.259-10.638" transform="translate(4.242 7.903)" fill="#fff"/>
    <path id="パス_4056" data-name="パス 4056" d="M81.937,55.288c-3.021,0-3.026,4.764,0,4.764s3.026-4.764,0-4.764" transform="translate(3.457 3.239)" fill="#323232"/>
    <path id="パス_4057" data-name="パス 4057" d="M94.383,74.662c-3.022,0-3.026,4.764,0,4.764s3.026-4.764,0-4.764" transform="translate(3.997 4.375)" fill="#323232"/>
    <path id="パス_4058" data-name="パス 4058" d="M107.916,57.561c-3.022,0-3.026,4.764,0,4.764s3.026-4.764,0-4.764" transform="translate(4.584 3.373)" fill="#323232"/>
    <path id="パス_4059" data-name="パス 4059" d="M115.775,49.719A15.366,15.366,0,0,0,110.29,48.2a19.68,19.68,0,0,0-5.9.207A2.381,2.381,0,0,0,105.641,53c.142-.026.286-.048.429-.072l.257-.026c.429-.04.859-.064,1.29-.073a19.515,19.515,0,0,1,2.524.116c.049.005.1.011.149.018.181.03.362.058.544.092.366.068.731.148,1.092.243s.7.2,1.048.328c.033.012.068.025.1.039.111.053.221.1.33.162a2.37,2.37,0,0,0,3.213-.854,2.438,2.438,0,0,0-.842-3.258m-5.518,3.242h0c-.117-.017-.208-.034,0,0m.05.007c.044.006.088.013.131.016-.044,0-.088-.01-.131-.016" transform="translate(4.454 2.817)" fill="#323232"/>
    <path id="パス_4060" data-name="パス 4060" d="M88.39,46.912a19.85,19.85,0,0,0-5.721-1.13,14.119,14.119,0,0,0-5.138.5,2.426,2.426,0,0,0-1.64,2.93,2.379,2.379,0,0,0,2.888,1.663,7.911,7.911,0,0,1,.935-.238l.221-.037c.106-.012.244-.028.3-.032a16.446,16.446,0,0,1,2.438-.018c.386.023.768.067,1.152.108l.2.031c.229.038.455.079.681.126a16.207,16.207,0,0,1,2.44.694,2.356,2.356,0,0,0,2.888-1.663,2.452,2.452,0,0,0-1.64-2.93" transform="translate(3.289 2.68)" fill="#323232"/>
    <path id="パス_4061" data-name="パス 4061" d="M179.68,165.433c-3.765-5.009-9.092-8-14.364-11.159a275.9,275.9,0,0,0-28.7-14.658c-.006-.014-.006-.026-.013-.04l-7.34-17.9a2.388,2.388,0,0,0-2.888-1.664l-1.793.631c-.406-3.907-.676-7.834-.889-11.751a2.69,2.69,0,0,0-.148-.712,52.437,52.437,0,0,0,7.253-16.816c2.817-.472,5.858-.908,8.031-2.817a17.245,17.245,0,0,0,5.249-12.7c-.213-4.185-2.067-8.838-6.234-10.31a8.267,8.267,0,0,0-1.433-.347,92.657,92.657,0,0,0,4.136-11.7c2.206-7.9,4.115-17.614.864-25.531-1.468-3.577-4.129-6.108-7.737-6.8-1.205-4.026-3.095-8.191-6.071-11.051C115.007-1.137,94.594-2.944,79.774,4.406A47.26,47.26,0,0,0,61.4,20.556a23.354,23.354,0,0,0-2.953,9.167,65.462,65.462,0,0,0-.621,12.1,81.274,81.274,0,0,0,2.285,15.532,7.89,7.89,0,0,0-6.846,2.273c-2.659,2.759-3.471,6.978-3.341,10.71.129,3.716,1.078,7.694,3.887,10.28a17.417,17.417,0,0,0,6.262,3.576c.59,7.138,1.853,14.274,5.164,20.675.4.779.846,1.535,1.308,2.279A2.223,2.223,0,0,0,66,108.637c.031,1.761,0,3.526-.049,5.287-.049,1.6-.127,3.2-.255,4.794-.046.584-.11,1.168-.171,1.75l-1.353-.457a2.37,2.37,0,0,0-2.888,1.664Q59.1,130.238,56.9,138.8a2.471,2.471,0,0,0-.323.6c-7.444,3.049-15.067,5.585-22.506,8.673-4.76,1.975-9.5,4.015-14.185,6.162A32.289,32.289,0,0,0,8.4,163.373,45.566,45.566,0,0,0,0,180H4.889c2.208-7.157,6.156-13.9,12.075-18.494a40.115,40.115,0,0,1,8.6-4.639q5.553-2.469,11.172-4.781c6.423-2.637,13.072-4.676,19.458-7.369a23.249,23.249,0,0,0,3.373-1.447l22.308,7.869,3.49,1.23a2.385,2.385,0,0,0,2.888-1.663c.007-.023.016-.047.023-.07q.878,2.137,1.757,4.277A170.747,170.747,0,0,0,84.8,180h4.716a168.7,168.7,0,0,1,4.823-23.083h3.445c2.357,7.57,3.533,15.408,5.5,23.083h4.8a2.75,2.75,0,0,0-.087-.536c-2.168-8.241-3.336-16.693-5.988-24.809q.706-2.237,1.414-4.476.274.851.549,1.7c.359,1.112,1.666,2.173,2.888,1.664l22.748-9.482,3.089-1.287a2.176,2.176,0,0,0,.832.625A282.441,282.441,0,0,1,161.7,157.651c5.066,2.984,10.654,5.815,14.26,10.638a71.759,71.759,0,0,1,6.6,11.711h4.567a2.376,2.376,0,0,0-.176-1.717c-2.174-4.432-4.3-8.894-7.272-12.85M64.322,25.268c1.059-2.912,3.339-5.341,5.428-7.538a44.641,44.641,0,0,1,8.729-7.162,37.574,37.574,0,0,1,21.856-5.743c8.4.387,17.526,2.922,23.946,8.656,2.789,2.678,4.334,6.791,5.3,10.5a2.4,2.4,0,0,0,2.263,1.749c4.007.067,5.5,3.834,6.158,7.306.856,4.51.194,9.361-.692,13.8a81.56,81.56,0,0,1-4.289,14.43l-.394-8.8c-.136-3.017-2.3-6.074-3.655-8.661a95.474,95.474,0,0,0-5.224-8.966c-1.909-2.84-4.029-5.52-4.959-8.882-.524-1.894-3.341-2.429-4.29-.57-2.246,4.4-7.12,7.013-11.375,9.025-.372.176-.751.34-1.127.509l.118-.165c.966-1.351,1.932-2.7,2.878-4.068a5.9,5.9,0,0,0,1.444-2.934c.08-1.71-1.557-2.5-2.972-2.3-.948.138-1.764,1.379-2.424,1.947a25.258,25.258,0,0,1-4.51,2.959,86.211,86.211,0,0,1-12.6,5.268c-5.558,1.952-11.151,3.806-16.752,5.627a2.352,2.352,0,0,0-1.64,1.663Q64.7,47.864,63.852,52.8a63.85,63.85,0,0,1-1.067-6.922c-.624-6.682-.79-14.221,1.537-20.615m41.125,4.455c.266-.288.227-.176,0,0m-3.572-2.983a.393.393,0,0,0-.022.07.393.393,0,0,1,.022-.07M64.624,82.372a2.441,2.441,0,0,0-1.723-2.3,14.548,14.548,0,0,1-4.923-2.163c-2.129-1.482-2.957-3.681-3.263-6.208-.425-3.5,1.082-12.98,6.541-8.775a2.313,2.313,0,0,0,.321.2c.148.548.3,1.1.448,1.645.588,2.12,4.115,2.414,4.527,0q1.654-9.7,3.31-19.4c5.12-1.67,10.233-3.368,15.315-5.153,3.4-1.193,6.782-2.465,10.066-3.961-.571.79-1.137,1.582-1.709,2.369-1.255,1.73.815,4.027,2.651,3.5a61.787,61.787,0,0,0,9.7-3.792,33.26,33.26,0,0,0,10.107-6.931,48.357,48.357,0,0,0,2.978,4.774,92.234,92.234,0,0,1,5.377,8.94q1.809,3.379,3.454,6.848c.033.07.065.149.1.227.018.137.039.269.043.357q.407,9.1.816,18.194c.1,2.289,3.179,3.334,4.374,1.2.382-.681.717-1.4,1.077-2.1a5.075,5.075,0,0,1,1.544.033c2.925.49,3.826,4.607,3.625,7.123-.22,2.746-1.777,7.177-4.405,8.5-1.919.962-4.582,1.086-6.685,1.486a2.321,2.321,0,0,0-1.64,1.663,52.2,52.2,0,0,1-5.462,14.526,32.75,32.75,0,0,1-14.55,13.552c-13.017,5.77-28.81-.162-36.169-12.192-4.065-6.646-5.316-14.49-5.836-22.169m19.911,64.673-21.8-7.689-1-.351c.212-.874.412-1.751.633-2.615q1.412-5.51,2.822-11.021l.872.3a1.985,1.985,0,0,0,.731.343,2.433,2.433,0,0,0,.458.058l21.9,7.4q-2.309,6.791-4.616,13.583m15.672-2.3q-1.169,3.7-2.339,7.409H93.943l-2.8-6.823a3.31,3.31,0,0,0-.7-1.065l3.193-9.393a8.911,8.911,0,0,0,4.836-.043c0,.011,0,.02.006.03l2.755,8.532a2.472,2.472,0,0,0-1.019,1.353M98.94,129.652c-.631.222-1.3.4-1.911.672-.026.012-.053.018-.08.029.215-.09-.41.052-.893.052-.4,0-1.567-.194-1.205-.036a14.273,14.273,0,0,0-1.749-.588l-15.989-5.4-7.076-2.39a74.114,74.114,0,0,0,.68-9.42,35.411,35.411,0,0,0,11.4,8.164,32.882,32.882,0,0,0,22.273,1.836,33.608,33.608,0,0,0,14.88-9.167c.2,2.947.457,5.892.791,8.825L98.94,129.652m9.889,17.955-1.151.48L103,133.593a2.366,2.366,0,0,0-.126-.291l10.948-3.848,8.4-2.953a2.116,2.116,0,0,0,.407.028,2.753,2.753,0,0,0,1.718-.775l1.342-.471,5.357,13.063-22.22,9.262" transform="translate(0 0)" fill="#323232"/>
    <path id="パス_4062" data-name="パス 4062" d="M93.209,93.642a.685.685,0,0,0,.093.018c-.028,0-.053-.011-.079-.017h-.014" transform="translate(4.044 5.487)" fill="#323232"/>
    <path id="パス_4063" data-name="パス 4063" d="M85.727,90.571a2.422,2.422,0,0,0-.842,3.258,2.38,2.38,0,0,0,3.213.855c.154-.085.352-.158.514-.251.1-.034.2-.071.294-.1a10.836,10.836,0,0,1,1.34-.348c.119-.022.239-.042.359-.064.235-.02.471-.047.706-.061a13.928,13.928,0,0,1,1.587,0c.23.013.457.036.686.057a.368.368,0,0,1-.056-.014.428.428,0,0,0,.07.015l.055.005c.218.02.136.025.024.013.091.013.186.022.263.036a11.739,11.739,0,0,1,1.519.383c.207.067.407.151.61.223l.019.011c.093.05.188.092.281.141.227.12.451.25.666.391.079.053.157.109.236.162l.011.011a2.375,2.375,0,0,0,3.32,0,2.436,2.436,0,0,0,0-3.368,13.871,13.871,0,0,0-14.875-1.35m2.732,3.917.058-.02-.058.02" transform="translate(3.669 5.216)" fill="#323232"/>
  </g>
</svg>
