<svg xmlns="http://www.w3.org/2000/svg" width="281.847" height="337.273" viewBox="0 0 281.847 337.273">
  <g id="グループ_4520" data-name="グループ 4520" transform="translate(3148.894 12113.242)">
    <line id="線_124" data-name="線 124" x1="2.457" y2="6.639" transform="translate(-2928.841 -12110.672)" fill="none" stroke="#019ee3" stroke-linecap="round" stroke-width="4"/>
    <line id="線_132" data-name="線 132" x1="5.951" y2="0.109" transform="translate(-2922.551 -12096.575)" fill="none" stroke="#019ee3" stroke-linecap="round" stroke-width="4"/>
    <line id="線_126" data-name="線 126" x1="8.897" y2="6.748" transform="translate(-2925.497 -12107.058)" fill="none" stroke="#019ee3" stroke-linecap="round" stroke-width="4"/>
    <path id="パス_5093" data-name="パス 5093" d="M140.924,0A140.924,140.924,0,1,1,0,140.924,140.924,140.924,0,0,1,140.924,0Z" transform="translate(-3148.894 -12057.816)" fill="#d3eafd"/>
    <path id="パス_5095" data-name="パス 5095" d="M111.43,121.731,39.32.062h0c-.467,0,.185-.14,0,0C15.064,14.192,0,35.058,0,35.058Z" transform="matrix(0.616, 0.788, -0.788, 0.616, -2980.623, -12079.345)" fill="#fff"/>
    <g id="グループ_4502" data-name="グループ 4502" transform="translate(-2999.359 -12101.009)">
      <path id="パス_5102" data-name="パス 5102" d="M29.041,39.321A8.072,8.072,0,0,0,28.8,41.7a8.1,8.1,0,0,0,.232,2.36c1.722,12.742,11.676,23.113,25.24,23.113A25.8,25.8,0,0,0,79.751,41.7c.069-13.55-11.121-24.848-24.525-25.422-13.924-.6-24.4,9.984-26.185,23.038M44.82,41.7c.654-12.13,18.913-12.226,18.913,0S45.474,53.83,44.82,41.7" transform="translate(-4.754 -16.259)" fill="#019ee3"/>
      <path id="パス_5103" data-name="パス 5103" d="M35.8,77.117c0-12.376,3.558-22.541,17.675-24.095,5.16-.566,10.625,0,15.83,0,5.123,0,10.464-.5,15.55,0,14.269,1.4,17.955,11.535,17.955,24.095,0,10.307,16.017,10.323,16.017,0,0-14.354-3.377-27.72-16.687-35.51C92.139,35.75,80.417,37,69.309,37s-22.83-1.255-32.835,4.6c-13.31,7.79-16.687,21.156-16.687,35.51,0,10.307,16.017,10.323,16.017,0" transform="translate(-19.787 18.188)" fill="#019ee3"/>
    </g>
    <g id="グループ_4504" data-name="グループ 4504" transform="translate(-3133.238 -11907.732)">
      <path id="パス_5102-2" data-name="パス 5102" d="M28.884,24.8a2.99,2.99,0,0,0-.088.883,3,3,0,0,0,.086.874,9.412,9.412,0,1,0,9.7-10.289c-5.157-.22-9.038,3.7-9.7,8.533m5.844.883c.242-4.493,7-4.528,7,0s-6.763,4.491-7,0" transform="translate(-19.889 -16.259)" fill="#959595"/>
      <path id="パス_5103-2" data-name="パス 5103" d="M25.719,51.79c0-4.584,1.318-8.349,6.546-8.924a54.7,54.7,0,0,1,5.863,0c1.9,0,3.876-.184,5.759,0,5.285.518,6.65,4.272,6.65,8.924,0,3.817,5.932,3.823,5.932,0,0-5.316-1.251-10.267-6.18-13.152-3.706-2.169-8.047-1.7-12.161-1.7s-8.455-.465-12.161,1.7c-4.93,2.885-6.18,7.835-6.18,13.152,0,3.817,5.932,3.823,5.932,0" transform="translate(-19.787 -16.492)" fill="#959595"/>
    </g>
    <g id="グループ_4505" data-name="グループ 4505" transform="translate(-3091.065 -11907.732)">
      <path id="パス_5102-3" data-name="パス 5102" d="M28.884,24.8a2.99,2.99,0,0,0-.088.883,3,3,0,0,0,.086.874,9.412,9.412,0,1,0,9.7-10.289c-5.157-.22-9.038,3.7-9.7,8.533m5.844.883c.242-4.493,7-4.528,7,0s-6.763,4.491-7,0" transform="translate(-19.889 -16.259)" fill="#959595"/>
      <path id="パス_5103-3" data-name="パス 5103" d="M25.719,51.79c0-4.584,1.318-8.349,6.546-8.924a54.7,54.7,0,0,1,5.863,0c1.9,0,3.876-.184,5.759,0,5.285.518,6.65,4.272,6.65,8.924,0,3.817,5.932,3.823,5.932,0,0-5.316-1.251-10.267-6.18-13.152-3.706-2.169-8.047-1.7-12.161-1.7s-8.455-.465-12.161,1.7c-4.93,2.885-6.18,7.835-6.18,13.152,0,3.817,5.932,3.823,5.932,0" transform="translate(-19.787 -16.492)" fill="#959595"/>
    </g>
    <g id="グループ_4506" data-name="グループ 4506" transform="translate(-3048.893 -11907.732)">
      <path id="パス_5102-4" data-name="パス 5102" d="M28.884,24.8a2.99,2.99,0,0,0-.088.883,3,3,0,0,0,.086.874,9.412,9.412,0,1,0,9.7-10.289c-5.157-.22-9.038,3.7-9.7,8.533m5.844.883c.242-4.493,7-4.528,7,0s-6.763,4.491-7,0" transform="translate(-19.889 -16.259)" fill="#959595"/>
      <path id="パス_5103-4" data-name="パス 5103" d="M25.719,51.79c0-4.584,1.318-8.349,6.546-8.924a54.7,54.7,0,0,1,5.863,0c1.9,0,3.876-.184,5.759,0,5.285.518,6.65,4.272,6.65,8.924,0,3.817,5.932,3.823,5.932,0,0-5.316-1.251-10.267-6.18-13.152-3.706-2.169-8.047-1.7-12.161-1.7s-8.455-.465-12.161,1.7c-4.93,2.885-6.18,7.835-6.18,13.152,0,3.817,5.932,3.823,5.932,0" transform="translate(-19.787 -16.492)" fill="#959595"/>
    </g>
    <g id="グループ_4507" data-name="グループ 4507" transform="translate(-3006.721 -11907.732)">
      <path id="パス_5102-5" data-name="パス 5102" d="M28.884,24.8a2.99,2.99,0,0,0-.088.883,3,3,0,0,0,.086.874,9.412,9.412,0,1,0,9.7-10.289c-5.157-.22-9.038,3.7-9.7,8.533m5.844.883c.242-4.493,7-4.528,7,0s-6.763,4.491-7,0" transform="translate(-19.889 -16.259)" fill="#959595"/>
      <path id="パス_5103-5" data-name="パス 5103" d="M25.719,51.79c0-4.584,1.318-8.349,6.546-8.924a54.7,54.7,0,0,1,5.863,0c1.9,0,3.876-.184,5.759,0,5.285.518,6.65,4.272,6.65,8.924,0,3.817,5.932,3.823,5.932,0,0-5.316-1.251-10.267-6.18-13.152-3.706-2.169-8.047-1.7-12.161-1.7s-8.455-.465-12.161,1.7c-4.93,2.885-6.18,7.835-6.18,13.152,0,3.817,5.932,3.823,5.932,0" transform="translate(-19.787 -16.492)" fill="#959595"/>
    </g>
    <g id="グループ_4508" data-name="グループ 4508" transform="translate(-3102.42 -11863.021)">
      <path id="パス_5102-6" data-name="パス 5102" d="M28.884,24.8a2.99,2.99,0,0,0-.088.883,3,3,0,0,0,.086.874,9.412,9.412,0,1,0,9.7-10.289c-5.157-.22-9.038,3.7-9.7,8.533m5.844.883c.242-4.493,7-4.528,7,0s-6.763,4.491-7,0" transform="translate(-19.889 -16.259)" fill="#959595"/>
      <path id="パス_5103-6" data-name="パス 5103" d="M25.719,51.79c0-4.584,1.318-8.349,6.546-8.924a54.7,54.7,0,0,1,5.863,0c1.9,0,3.876-.184,5.759,0,5.285.518,6.65,4.272,6.65,8.924,0,3.817,5.932,3.823,5.932,0,0-5.316-1.251-10.267-6.18-13.152-3.706-2.169-8.047-1.7-12.161-1.7s-8.455-.465-12.161,1.7c-4.93,2.885-6.18,7.835-6.18,13.152,0,3.817,5.932,3.823,5.932,0" transform="translate(-19.787 -16.492)" fill="#959595"/>
    </g>
    <g id="グループ_4509" data-name="グループ 4509" transform="translate(-3060.06 -11863.021)">
      <path id="パス_5102-7" data-name="パス 5102" d="M28.884,24.8a2.99,2.99,0,0,0-.088.883,3,3,0,0,0,.086.874,9.412,9.412,0,1,0,9.7-10.289c-5.157-.22-9.038,3.7-9.7,8.533m5.844.883c.242-4.493,7-4.528,7,0s-6.763,4.491-7,0" transform="translate(-19.889 -16.259)" fill="#959595"/>
      <path id="パス_5103-7" data-name="パス 5103" d="M25.719,51.79c0-4.584,1.318-8.349,6.546-8.924a54.7,54.7,0,0,1,5.863,0c1.9,0,3.876-.184,5.759,0,5.285.518,6.65,4.272,6.65,8.924,0,3.817,5.932,3.823,5.932,0,0-5.316-1.251-10.267-6.18-13.152-3.706-2.169-8.047-1.7-12.161-1.7s-8.455-.465-12.161,1.7c-4.93,2.885-6.18,7.835-6.18,13.152,0,3.817,5.932,3.823,5.932,0" transform="translate(-19.787 -16.492)" fill="#959595"/>
    </g>
    <g id="グループ_4510" data-name="グループ 4510" transform="translate(-3017.7 -11863.021)">
      <path id="パス_5102-8" data-name="パス 5102" d="M28.884,24.8a2.99,2.99,0,0,0-.088.883,3,3,0,0,0,.086.874,9.412,9.412,0,1,0,9.7-10.289c-5.157-.22-9.038,3.7-9.7,8.533m5.844.883c.242-4.493,7-4.528,7,0s-6.763,4.491-7,0" transform="translate(-19.889 -16.259)" fill="#959595"/>
      <path id="パス_5103-8" data-name="パス 5103" d="M25.719,51.79c0-4.584,1.318-8.349,6.546-8.924a54.7,54.7,0,0,1,5.863,0c1.9,0,3.876-.184,5.759,0,5.285.518,6.65,4.272,6.65,8.924,0,3.817,5.932,3.823,5.932,0,0-5.316-1.251-10.267-6.18-13.152-3.706-2.169-8.047-1.7-12.161-1.7s-8.455-.465-12.161,1.7c-4.93,2.885-6.18,7.835-6.18,13.152,0,3.817,5.932,3.823,5.932,0" transform="translate(-19.787 -16.492)" fill="#959595"/>
    </g>
    <g id="グループ_4511" data-name="グループ 4511" transform="translate(-2975.34 -11863.021)">
      <path id="パス_5102-9" data-name="パス 5102" d="M28.884,24.8a2.99,2.99,0,0,0-.088.883,3,3,0,0,0,.086.874,9.412,9.412,0,1,0,9.7-10.289c-5.157-.22-9.038,3.7-9.7,8.533m5.844.883c.242-4.493,7-4.528,7,0s-6.763,4.491-7,0" transform="translate(-19.889 -16.259)" fill="#959595"/>
      <path id="パス_5103-9" data-name="パス 5103" d="M25.719,51.79c0-4.584,1.318-8.349,6.546-8.924a54.7,54.7,0,0,1,5.863,0c1.9,0,3.876-.184,5.759,0,5.285.518,6.65,4.272,6.65,8.924,0,3.817,5.932,3.823,5.932,0,0-5.316-1.251-10.267-6.18-13.152-3.706-2.169-8.047-1.7-12.161-1.7s-8.455-.465-12.161,1.7c-4.93,2.885-6.18,7.835-6.18,13.152,0,3.817,5.932,3.823,5.932,0" transform="translate(-19.787 -16.492)" fill="#959595"/>
    </g>
    <g id="グループ_4517" data-name="グループ 4517" transform="translate(-2964.549 -11907.732)">
      <path id="パス_5102-10" data-name="パス 5102" d="M28.884,24.8a2.99,2.99,0,0,0-.088.883,3,3,0,0,0,.086.874,9.412,9.412,0,1,0,9.7-10.289c-5.157-.22-9.038,3.7-9.7,8.533m5.844.883c.242-4.493,7-4.528,7,0s-6.763,4.491-7,0" transform="translate(-19.889 -16.259)" fill="#959595"/>
      <path id="パス_5103-10" data-name="パス 5103" d="M25.719,51.79c0-4.584,1.318-8.349,6.546-8.924a54.7,54.7,0,0,1,5.863,0c1.9,0,3.876-.184,5.759,0,5.285.518,6.65,4.272,6.65,8.924,0,3.817,5.932,3.823,5.932,0,0-5.316-1.251-10.267-6.18-13.152-3.706-2.169-8.047-1.7-12.161-1.7s-8.455-.465-12.161,1.7c-4.93,2.885-6.18,7.835-6.18,13.152,0,3.817,5.932,3.823,5.932,0" transform="translate(-19.787 -16.492)" fill="#959595"/>
    </g>
    <g id="グループ_4518" data-name="グループ 4518" transform="translate(-3091.065 -11952.445)">
      <path id="パス_5102-11" data-name="パス 5102" d="M28.884,24.8a2.99,2.99,0,0,0-.088.883,3,3,0,0,0,.086.874,9.412,9.412,0,1,0,9.7-10.289c-5.157-.22-9.038,3.7-9.7,8.533m5.844.883c.242-4.493,7-4.528,7,0s-6.763,4.491-7,0" transform="translate(-19.889 -16.259)" fill="#959595"/>
      <path id="パス_5103-11" data-name="パス 5103" d="M25.719,51.79c0-4.584,1.318-8.349,6.546-8.924a54.7,54.7,0,0,1,5.863,0c1.9,0,3.876-.184,5.759,0,5.285.518,6.65,4.272,6.65,8.924,0,3.817,5.932,3.823,5.932,0,0-5.316-1.251-10.267-6.18-13.152-3.706-2.169-8.047-1.7-12.161-1.7s-8.455-.465-12.161,1.7c-4.93,2.885-6.18,7.835-6.18,13.152,0,3.817,5.932,3.823,5.932,0" transform="translate(-19.787 -16.492)" fill="#959595"/>
    </g>
    <g id="グループ_4519" data-name="グループ 4519" transform="translate(-3133.238 -11952.445)">
      <path id="パス_5102-12" data-name="パス 5102" d="M28.884,24.8a2.99,2.99,0,0,0-.088.883,3,3,0,0,0,.086.874,9.412,9.412,0,1,0,9.7-10.289c-5.157-.22-9.038,3.7-9.7,8.533m5.844.883c.242-4.493,7-4.528,7,0s-6.763,4.491-7,0" transform="translate(-19.889 -16.259)" fill="#959595"/>
      <path id="パス_5103-12" data-name="パス 5103" d="M25.719,51.79c0-4.584,1.318-8.349,6.546-8.924a54.7,54.7,0,0,1,5.863,0c1.9,0,3.876-.184,5.759,0,5.285.518,6.65,4.272,6.65,8.924,0,3.817,5.932,3.823,5.932,0,0-5.316-1.251-10.267-6.18-13.152-3.706-2.169-8.047-1.7-12.161-1.7s-8.455-.465-12.161,1.7c-4.93,2.885-6.18,7.835-6.18,13.152,0,3.817,5.932,3.823,5.932,0" transform="translate(-19.787 -16.492)" fill="#959595"/>
    </g>
  </g>
</svg>
