<svg xmlns="http://www.w3.org/2000/svg" xmlns:xlink="http://www.w3.org/1999/xlink" width="338" height="346" viewBox="0 0 338 346">
  <defs>
    <clipPath id="clip-path">
      <rect id="長方形_598" data-name="長方形 598" width="142.342" height="143.354" fill="none"/>
    </clipPath>
  </defs>
  <g id="グループ_4576" data-name="グループ 4576" transform="translate(-209 -7455)">
    <g id="グループ_4482" data-name="グループ 4482" transform="translate(209 7455)">
      <circle id="楕円形_411" data-name="楕円形 411" cx="169" cy="169" r="169" fill="#fff"/>
      <text id="_7" data-name="7" transform="translate(61 255)" fill="#019ee3" font-size="248" font-family="Avenir-Heavy, Avenir" font-weight="800"><tspan x="0" y="0">7</tspan></text>
      <text id="倍" transform="translate(208 141)" fill="#019ee3" font-size="74" font-family="HiraginoSans-W6, Hiragino Sans"><tspan x="0" y="0">倍</tspan></text>
      <g id="グループ_4481" data-name="グループ 4481" transform="translate(195.228 194.216)">
        <g id="グループ_4480" data-name="グループ 4480" clip-path="url(#clip-path)">
          <path id="パス_5068" data-name="パス 5068" d="M17.168,70.912C24.043,76.975,30.469,83.764,37.1,90q6.2,5.832,12.4,11.662c2.615,2.46,7.859,5.883,4.475,10.031-1.849,1.849-3.772,4.619-6.313,5.455-2.917.96-3.907-.361-5.748-1.9-3.889-3.243-7.448-7-11.135-10.47L5.873,81.355a57.214,57.214,0,0,0,7.554-6.134,56.1,56.1,0,0,0,3.741-4.309" transform="translate(79.891 18.051)" fill="#fff"/>
          <path id="パス_5069" data-name="パス 5069" d="M60.207,118.258a4.034,4.034,0,0,1-.61.607c-5.136,5.119-11.12,10.629-18.721,5.845-3.484-2.194-6.457-5.791-9.42-8.577L0,86.553A56.532,56.532,0,0,0,6.775,82.6l24.912,23.425c3.687,3.469,7.246,7.227,11.135,10.472,1.842,1.536,2.832,2.858,5.748,1.9,2.54-.836,4.464-3.606,6.313-5.456,3.384-4.148-1.861-7.571-4.475-10.03l-12.4-11.662C31.372,85,24.947,78.215,18.071,72.153a56.41,56.41,0,0,0,4.186-6.112c.595.593,1.178,1.173,1.755,1.715L40.618,83.371l17.2,16.176c5.451,5.126,7.634,11.44,3.036,17.838a3.926,3.926,0,0,1-.65.872" transform="translate(78.988 16.811)" fill="#323232"/>
          <path id="パス_5070" data-name="パス 5070" d="M66.027,33.858c0-6.142,9.175-6.095,9.5,0-.329,6.092-9.5,6.15-9.5,0" transform="translate(-16.023 7.451)" fill="#fff"/>
          <path id="パス_5071" data-name="パス 5071" d="M112.791,86.43c-16.134,15.577-41.033,18.37-59.807,5.683A47.154,47.154,0,0,1,75.215,6.14a47.673,47.673,0,0,1,47.134,27.324c8.264,17.928,3.986,38.939-9.557,52.966m-32.748-32c-5.388,0-11.084-.617-15.938,2.223C57.658,60.431,56.039,66.9,56.039,73.85c0,4.851,7.527,4.844,7.527,0,0-6.2,1.859-11.2,8.9-11.888,2.48-.241,5.083,0,7.581,0,2.547,0,5.188-.241,7.718,0,6.974.662,8.759,5.832,8.759,11.888,0,4.851,7.527,4.844,7.527,0,0-6.948-1.62-13.419-8.067-17.192-4.853-2.84-10.548-2.223-15.938-2.223M91.831,39.789a3.865,3.865,0,0,0-.112-1.119c-.849-6.308-5.908-11.426-12.632-11.133a12.271,12.271,0,0,0,.464,24.533c6.55,0,11.35-5.017,12.17-11.171a3.865,3.865,0,0,0,.109-1.11m6.312-26.007c-4.289-2.253-8.089,4.245-3.8,6.5a34.745,34.745,0,0,1,14.461,14.082c2.36,4.235,8.858.437,6.5-3.8A41.914,41.914,0,0,0,98.143,13.782" transform="translate(-24.797 1.519)" fill="#fff"/>
          <path id="パス_5072" data-name="パス 5072" d="M123.487,88.963a56.374,56.374,0,0,1-3.742,4.311,57.386,57.386,0,0,1-14.33,10.09,54.453,54.453,0,0,1-78.74-53.838c2.244-22.945,19.06-42.708,41.6-48.061a55.308,55.308,0,0,1,57.831,22.147c12.523,17.9,12.275,41.173,1.562,59.24a56.517,56.517,0,0,1-4.186,6.111m.493-53.978a47.16,47.16,0,0,0-88.574,8,47.522,47.522,0,0,0,19.21,50.651c18.774,12.686,43.672,9.892,59.806-5.683,13.543-14.027,17.821-35.038,9.558-52.966" transform="translate(-26.427 0)" fill="#42638f"/>
          <path id="パス_5073" data-name="パス 5073" d="M72.3,47.694a12.271,12.271,0,0,1-.463-24.533C78.563,22.87,83.62,27.988,84.469,34.3a3.835,3.835,0,0,1,.112,1.12,3.851,3.851,0,0,1-.109,1.109c-.819,6.155-5.62,11.169-12.17,11.169M67.55,35.416c0,6.15,9.175,6.092,9.5,0-.329-6.095-9.5-6.142-9.5,0" transform="translate(-17.546 5.893)" fill="#323232"/>
          <path id="パス_5074" data-name="パス 5074" d="M98.3,64.027c0,4.844-7.527,4.851-7.527,0,0-6.054-1.785-11.224-8.759-11.888-2.53-.241-5.171,0-7.718,0-2.5,0-5.1-.241-7.581,0-7.037.684-8.9,5.684-8.9,11.888,0,4.844-7.527,4.851-7.527,0,0-6.948,1.62-13.419,8.067-17.192,4.854-2.84,10.55-2.223,15.938-2.223s11.085-.617,15.938,2.223C96.679,50.608,98.3,57.079,98.3,64.027" transform="translate(-19.047 11.342)" fill="#323232"/>
          <path id="パス_5075" data-name="パス 5075" d="M63.756,29.074c2.36,4.237-4.14,8.037-6.5,3.8A34.76,34.76,0,0,0,42.8,18.791c-4.291-2.253-.489-8.752,3.8-6.5A41.9,41.9,0,0,1,63.756,29.074" transform="translate(26.752 3.01)" fill="#42638f"/>
        </g>
      </g>
    </g>
  </g>
</svg>
