<svg id="グループ_4473" data-name="グループ 4473" xmlns="http://www.w3.org/2000/svg" xmlns:xlink="http://www.w3.org/1999/xlink" width="105.415" height="128.158" viewBox="0 0 105.415 128.158">
  <defs>
    <clipPath id="clip-path">
      <rect id="長方形_581" data-name="長方形 581" width="105.415" height="128.158" fill="none"/>
    </clipPath>
  </defs>
  <g id="グループ_4472" data-name="グループ 4472" clip-path="url(#clip-path)">
    <path id="パス_4996" data-name="パス 4996" d="M53.346,50.779q-1.455,2.147-2.94,4.271c.032-.011.063-.02.095-.033a7.509,7.509,0,0,0,1.252-.738,1.163,1.163,0,0,1,1.709,1.314,1.261,1.261,0,0,1-.534.7,7.163,7.163,0,0,1-2.4,1.171,12.651,12.651,0,0,1-1.659.237l-.078.013c-.015,0-.027,0-.042,0h0c0,.028.01.051.011.08.1,3.5,0,7,.1,10.5.044,1.5-2.284,1.494-2.327,0-.1-3.5,0-7-.1-10.5a1.177,1.177,0,0,1,.048-.365c-1.765-2.092-3.436-4.268-5.078-6.456l-.193-.121a1.436,1.436,0,0,1-.1.9q-.463,1.062-.927,2.125c.034.035.067.069.1.109-.013-.018-.014-.024.008,0s.057.066.088.1.093.086.139.129l.017.012c.069.046.141.09.215.131s.152.081.231.118l.035.016c.164.061.328.12.5.172.789.245,1.6.4,2.4.63a1.163,1.163,0,1,1-.619,2.243c-.856-.242-1.737-.405-2.582-.688a5.991,5.991,0,0,1-1.179-.534A77.478,77.478,0,0,0,45.295,68.2q1.442,2.559,2.98,5.066,1.633-2.882,3.191-5.805A105.916,105.916,0,0,0,56.282,57.6a1.166,1.166,0,0,1-1.452-.483l-2-4.245c-.635-1.348,1.372-2.528,2.009-1.174q.745,1.58,1.488,3.161l4.462-2.746c-.771-1.471-1.532-2.967-2.17-4.5a30.161,30.161,0,0,1-5.277,3.166" transform="translate(-0.436 -0.526)" fill="#fff"/>
    <path id="パス_4997" data-name="パス 4997" d="M58.182,73.609v6.444c0,.142,0,.291-.007.443a1.173,1.173,0,0,1,.55.978v3.695a2.607,2.607,0,0,0,1.368,1.086,11.676,11.676,0,0,0,3.76.173c1.276,0,2.6.152,3.6-.826a3.9,3.9,0,0,0,.9-2.916q.076-1.856.152-3.712l.22-5.365Z" transform="translate(-0.642 -0.813)" fill="#fff"/>
    <path id="パス_4998" data-name="パス 4998" d="M38.462,46.351l3.1,1.942a5.787,5.787,0,0,1,1.638,1.2c1.42,1.865,2.84,3.734,4.331,5.545.833-1.183,1.665-2.367,2.484-3.558q.583-.851,1.164-1.7a3.7,3.7,0,0,1,.66-.857,9.335,9.335,0,0,1,1.566-.793c.4-.2.8-.414,1.2-.634.646-.358,1.281-.738,1.89-1.157l.013-.01q-.141-1.185-.21-2.381a13.228,13.228,0,0,1-5.4,3.291,1.258,1.258,0,0,1-.75.293A.941.941,0,0,1,49.9,47.5a12.323,12.323,0,0,1-7.108-.5A14.055,14.055,0,0,1,38.34,44.3q-.07.929-.21,1.845l.332.209" transform="translate(-0.421 -0.485)" fill="#fff"/>
    <path id="パス_4999" data-name="パス 4999" d="M50.379,119.027c-1.57,0-3.753.164-4.09-1.892a3.8,3.8,0,0,1,.6-2.253l1.288-2.7,1.179-2.474-3.022.222c-.256.542-.511,1.083-.759,1.628a6.716,6.716,0,0,1-1.14,2.1,11.735,11.735,0,0,1-6.335,3.187,1.071,1.071,0,0,1-.192.279,1.141,1.141,0,0,1-1.108,1.048l-.47.02c-4.949.2-9.916.345-14.878.313a1.063,1.063,0,0,1,.629,1c.025,2.509.25,5.028.451,7.533l5-.018,26.4-.1,15.553-.058q.231-3.415.462-6.83a1.139,1.139,0,0,1,.709-1.007H50.379Z" transform="translate(-0.237 -1.211)" fill="#fff"/>
    <path id="パス_5000" data-name="パス 5000" d="M43.915,44.731V43.473A1.164,1.164,0,0,1,45.9,42.65a1.2,1.2,0,0,1,.341.823v1.751l.171.017V43.473A1.164,1.164,0,0,1,48.4,42.65a1.2,1.2,0,0,1,.341.823v1.7c.056-.008.114-.014.17-.024V43.473A1.164,1.164,0,0,1,50.9,42.65a1.2,1.2,0,0,1,.34.823v1c.219-.094.436-.189.649-.3,4.164-2.2,5.935-6.6,6.628-11.017a1.143,1.143,0,0,1,.813-.813,11.927,11.927,0,0,0,2.194-.645c.888-.46,1.271-1.907,1.353-2.821.076-.842-.254-2.356-1.249-2.528a1.615,1.615,0,0,0-.645.058c-.223.053-.526.2-.285.084a1.23,1.23,0,0,1-1.7-1.458c-.04-.12-.078-.24-.118-.36a.91.91,0,0,1-.15-.028l-.23-.039-.624-.1A5.177,5.177,0,0,1,54.2,28.9a4.753,4.753,0,0,1-5.086-2.153,4.857,4.857,0,0,1-.644-1.427H46.7a5.288,5.288,0,0,1-3.623,3.573,5.019,5.019,0,0,1-5.322-2.165,4.631,4.631,0,0,1-.8-2.16l-1.419.152c-.063.171-.12.345-.186.515a1.254,1.254,0,0,1-.875.813,1.028,1.028,0,0,1-1.284.1c-1.923-1.189-1.884,2.409-1.645,3.36.395,1.575,1.63,2.246,3.175,2.469a1.115,1.115,0,0,1,.813.812,18.274,18.274,0,0,0,2.754,7.9,11.057,11.057,0,0,0,5.626,4.052m4.013-14.34a1.164,1.164,0,0,1,0,2.327,1.164,1.164,0,0,1,0-2.327M44.462,36.06a1.187,1.187,0,0,1,1.646,0,.187.187,0,0,1,.023.021l.045.032a3,3,0,0,0,.266.159c.045.025.092.047.138.07.116.052.095.045-.061-.023.03.041.181.066.223.081.1.033.2.061.309.087.049.011.278.091.317.063l-.109-.014.122.013c.109.01.217.015.325.017s.226,0,.34-.007c.057,0,.115-.009.171-.016l-.138.019a1.742,1.742,0,0,0,.658-.161c.035-.011.295-.126.179-.065l.144-.075c.092-.048.183-.1.271-.159.043-.028.084-.056.126-.086l-.04.032a1.192,1.192,0,0,1,1.627.013,1.167,1.167,0,0,1,0,1.646,5.13,5.13,0,0,1-3.338,1.188,5.036,5.036,0,0,1-3.244-1.188,1.179,1.179,0,0,1,0-1.646" transform="translate(-0.347 -0.271)" fill="#fff"/>
    <path id="パス_5001" data-name="パス 5001" d="M36.83,55.659q1.108-2.54,2.217-5.08a1,1,0,0,1,.8-.547l-3.6-2.257q-.878,2.243-1.758,4.486l2.341,3.4" transform="translate(-0.381 -0.527)" fill="#fff"/>
    <path id="パス_5002" data-name="パス 5002" d="M35.165,115.279a12.444,12.444,0,0,1-.974-6.168,17.793,17.793,0,0,1,1.387-5.825l-1.1-.095-3.232-.279a1.063,1.063,0,0,1-.148.46c-.037.061-.072.124-.1.187-.018.035-.035.069-.05.1-.047.109-.033.072.046-.11-.064.035-.133.377-.152.445a10.627,10.627,0,0,0-.265,1.149q-.053.3-.1.6c-.006.04-.012.08-.017.12l0,.014c-.011.09-.023.179-.033.269-.052.448-.094.9-.129,1.347-.083,1.077-.134,2.16-.137,3.24a1.164,1.164,0,1,1-2.327,0c0-1.139.059-2.282.151-3.417a28.045,28.045,0,0,1,.362-2.873,8.128,8.128,0,0,1,.487-1.743l-12.188-1.05c-1.483-.128-1.492-2.456,0-2.327l2.525.218.5.044q-.107-.926-.215-1.849-1.667-14.389-3.312-28.781c-.167-1.488,2.162-1.472,2.327,0q.4,3.571.814,7.139,1.359,11.848,2.736,23.693L37,101.081a1.242,1.242,0,0,1,1.076,1.565,1.122,1.122,0,0,1-.071.941,14.5,14.5,0,0,0-1.485,5.523A10.682,10.682,0,0,0,37.151,114a10.311,10.311,0,0,0,5.49-2.682l.013-.015c.031-.051.063-.1.095-.153h0l.078-.187c.2-.474.406-.941.62-1.407q.445-.976.908-1.945a1.172,1.172,0,0,1,1-.576l4.662-.341a1.236,1.236,0,0,1,.259.007l1-2.1-5.645-.01a1.164,1.164,0,0,1,0-2.327h.822l5.71.011a1.137,1.137,0,0,1,.212.022l.605-1.272L52.412,101l-5.8-.294a1.189,1.189,0,0,1-1.164-1.163,1.172,1.172,0,0,1,1.164-1.164l.836.043,5.8.294a1.228,1.228,0,0,1,.709.276l.784-1.647c-.016,0-.031,0-.046,0-1.981-.159-3.936.219-5.918.059a1.192,1.192,0,0,1-1.163-1.164,1.167,1.167,0,0,1,1.163-1.163c1.982.159,3.937-.219,5.918-.059a1.24,1.24,0,0,1,.914.493c.158-.345.314-.694.5-1.026a3.728,3.728,0,0,1,.458-.648l-2.47-1.2H51.365a24.3,24.3,0,0,0-3.78,1.2,10.519,10.519,0,0,0-3.1,1.344,6.112,6.112,0,0,0-1.526,2.333c-.86,2.046-1.245,4.262-1.9,6.374-.446,1.427-2.692.814-2.244-.618a60.16,60.16,0,0,1,2.229-7.134,7.632,7.632,0,0,1,1.945-2.724,5.677,5.677,0,0,1,1.253-.776H37.232a1.179,1.179,0,0,1-1.164-1.164q.144-5.113.289-10.226a1.122,1.122,0,0,1,.255-.707,1.056,1.056,0,0,1,.908-.457h8.739V75.967a1.116,1.116,0,0,1,.151-.557q-1.9-3.051-3.657-6.19a90.457,90.457,0,0,1-5.166-10.355,1.216,1.216,0,0,1-1.893-.182l-1.654-2.4-1.946-2.825q-1.283.579-2.59,1.1c-2.878,1.147-5.811,2.148-8.693,3.284a18.339,18.339,0,0,0-6.39,3.644,18.224,18.224,0,0,0-5.2,9.544q-1.826,9.451-3.651,18.9c-1.062,5.5-2.244,11-3.19,16.523-.56,3.267,1.546,7.44,4.889,8.208a52.558,52.558,0,0,0,10.6.83c5.761.113,11.533.014,17.292-.22M14.356,101.615a1.253,1.253,0,0,1-.7.535l-.433.164-3.049,1.154a1.137,1.137,0,0,1-.9-.117,1.163,1.163,0,0,1-.417-1.592,1.261,1.261,0,0,1,.7-.535l.433-.163,3.049-1.155a1.137,1.137,0,0,1,.9.118,1.162,1.162,0,0,1,.417,1.591m.569-4.52a1.172,1.172,0,0,1-.9-.118L11.5,95.21a1.311,1.311,0,0,1-.535-.7,1.181,1.181,0,0,1,.118-.9,1.193,1.193,0,0,1,.7-.535,1.179,1.179,0,0,1,.9.118L15.2,94.97a1.311,1.311,0,0,1,.535.7,1.165,1.165,0,0,1-.813,1.431" transform="translate(-0.025 -0.59)" fill="#fff"/>
    <path id="パス_5003" data-name="パス 5003" d="M57.182,18.982c-.619-2.138-.837-4.325-1.939-6.255-.852.321-1.719.612-2.6.847-1.6.427-3.627.923-5.233.275a1.371,1.371,0,0,1-.675-.549,33.561,33.561,0,0,1-4.672,1.378,1.143,1.143,0,0,1-1.428-1.2c-1.031.892-2.067,1.78-3.091,2.68a16.388,16.388,0,0,1-.919,5.309c-.069.237-.148.471-.221.707l1.139-.123A3.239,3.239,0,0,1,38,21.515c1.422-1.34,3.666-1.509,5.5-1.167a4.116,4.116,0,0,1,3.237,2.511h1.808a3.242,3.242,0,0,1,.82-1.357A5.991,5.991,0,0,1,54.6,20.34a4.283,4.283,0,0,1,2.664,1.59.884.884,0,0,1,.312.035L57.8,22l.316.053c-.324-1.022-.641-2.045-.939-3.075M45.4,19.07a1.178,1.178,0,0,1-1.431.813,6.1,6.1,0,0,0-.626-.127,7.223,7.223,0,0,0-1.6,0,3.548,3.548,0,0,0-.781.21,1.122,1.122,0,0,1-.9-.118,1.162,1.162,0,0,1-.417-1.591,1.276,1.276,0,0,1,.7-.535,5.623,5.623,0,0,1,1.989-.342,7.918,7.918,0,0,1,2.256.261A1.186,1.186,0,0,1,45.4,19.07m10.59.081a1.186,1.186,0,0,1-.535.7,1.162,1.162,0,0,1-.9.118,3.549,3.549,0,0,0-.781-.21,7.223,7.223,0,0,0-1.6,0,6.1,6.1,0,0,0-.626.127,1.164,1.164,0,1,1-.618-2.244,7.915,7.915,0,0,1,2.255-.261,5.624,5.624,0,0,1,1.99.342,1.369,1.369,0,0,1,.7.535,1.172,1.172,0,0,1,.118.9" transform="translate(-0.402 -0.141)" fill="#fff"/>
    <path id="パス_5004" data-name="パス 5004" d="M44.649,24.352l0-.017v0a1.688,1.688,0,0,1,.01-.233c0-.037-.032-.259-.023-.261-.01-.035-.018-.066-.02-.07-.02-.074-.132-.289,0-.047-.028-.05-.049-.1-.078-.152s-.049-.077-.075-.116c-.019-.022-.077-.1-.1-.122-.051-.051-.107-.1-.161-.146l-.011-.007c-.143-.083-.3-.156-.44-.246l-.087-.033c-.081-.025-.159-.053-.24-.077-.167-.048-.338-.088-.509-.121-.04-.007-.166-.024-.193-.029-.089-.009-.178-.018-.268-.024a9.346,9.346,0,0,0-1.153.018l-.089.011-.145.024c-.171.033-.342.072-.509.121-.1.029-.191.064-.287.094l-.015,0a3.868,3.868,0,0,0-.39.208c-.034.022-.066.045-.1.067a.471.471,0,0,0-.055.045c-.056.058-.206.235-.182.189-.031.045-.062.091-.089.138,0,.007-.025.051-.044.092s-.035.1-.036.108-.009.038-.014.056-.008.038-.019.081a.478.478,0,0,0-.006.049c0,.079,0,.158,0,.237,0,.038,0,.074.007.111a.731.731,0,0,0,.015.1c.04.151.082.3.13.443.012.015.108.244.135.3.074.135.158.264.244.393l.018.026c.062.077.128.151.195.224.111.117.229.224.35.328.03.025.074.061.095.075.073.05.147.1.223.144.1.06.2.112.31.163.041.015.172.069.188.074.067.022.136.043.206.06.088.023.177.041.266.056.026,0,.053.007.068.007.166,0,.328,0,.493-.009.007-.009.276-.052.334-.068s.295-.108.325-.113a4.11,4.11,0,0,0,.461-.256c.057-.038.113-.077.168-.118.022-.018.05-.042.06-.052.127-.124.257-.237.375-.37.03-.033.058-.067.087-.1s.066-.087.085-.114A4.18,4.18,0,0,0,44.445,25l.05-.108c.012-.034.035-.094.042-.121.039-.141.076-.281.112-.422m-2.505.758a1.164,1.164,0,0,1,0-2.327,1.164,1.164,0,0,1,0,2.327" transform="translate(-0.434 -0.25)" fill="#fff"/>
    <path id="パス_5005" data-name="パス 5005" d="M84.368,91.2q-.593-3.448-1.185-6.893c-.935-5.438-1.686-10.946-2.808-16.348a13.24,13.24,0,0,0-2.788-6.091,17.134,17.134,0,0,0-5.967-3.925c-2.987-1.411-6.007-2.752-9.038-4.067l-3,1.844a85.546,85.546,0,0,1-5.894,12.768c-1.377,2.6-2.791,5.177-4.267,7.719a1.1,1.1,0,0,1-.321.343v3.538h6.643c0-.231.009-.462.009-.688V72.227a1.075,1.075,0,0,1,.315-.792l.022-.023a.457.457,0,0,1,.04-.037,1.071,1.071,0,0,1,.786-.312H69.839A1.177,1.177,0,0,1,71,72.227q-.171,4.18-.343,8.359c-.036.864-.079,1.728-.106,2.592a5.358,5.358,0,0,1-3.63,5.107,14.343,14.343,0,0,1-4.366.252,8.784,8.784,0,0,1-3.933-.6v3.545a1.122,1.122,0,0,1-.111.479l.213.1a1.047,1.047,0,0,1,.478.436,5.093,5.093,0,0,1,1.27-.213c3.841-.135,7.706-.03,11.549-.045l13.616-.052-.026-.182a.965.965,0,0,1-1.244-.806m-9.538-1.469c-.134,1.481-2.463,1.49-2.327,0L74.251,70.48c.134-1.482,2.463-1.491,2.327,0L74.831,89.736" transform="translate(-0.542 -0.595)" fill="#fff"/>
    <path id="パス_5006" data-name="パス 5006" d="M55.8,23.957c-.012-.056-.022-.113-.036-.168-.01-.039-.023-.076-.036-.114a1.326,1.326,0,0,0-.059-.144c-.019-.033-.041-.064-.061-.1-.008-.01-.023-.035-.042-.064l-.2-.2-.013-.011c-.128-.079-.254-.155-.387-.228l-.053-.031-.041-.012c-.058-.018-.117-.041-.176-.059a4.723,4.723,0,0,0-.56-.139c-.059-.012-.355-.045-.09-.019l-.2-.02a7.61,7.61,0,0,0-1.163.009l-.032,0c-.085.014-.171.028-.256.045-.141.03-.281.064-.419.107-.091.028-.18.06-.27.094l0,0c-.13.068-.251.14-.377.213l-.018.011c-.045.039-.092.077-.135.119s-.074.08-.113.117a1.9,1.9,0,0,1-.132.22c-.029.11-.059.221-.09.329,0,.089-.007.177,0,.266,0,.019,0,.038,0,.057a.814.814,0,0,1,.006.089.4.4,0,0,0,.006.043,4.812,4.812,0,0,0,.134.5s.044.1.06.149l.05.1a4.107,4.107,0,0,0,.25.421l.06.086c.009.009.064.081.089.109a4.447,4.447,0,0,0,.386.387s.1.075.134.107l.1.07a4.619,4.619,0,0,0,.422.233l.007,0c.078.027.156.053.236.076.1.029.2.049.307.069h.023c.152,0,.3,0,.451-.007.034,0,.071-.01.094-.015.081-.017.161-.038.24-.061.063-.019.126-.043.188-.062l.041-.012.045-.028c.143-.082.285-.166.427-.25l.047-.028.033-.03c.05-.045.1-.087.149-.132.123-.113.232-.234.344-.358l.024-.026c.051-.07.1-.141.147-.214.089-.138.16-.284.24-.425A.382.382,0,0,1,55.606,25l.01-.035c.021-.059.044-.119.062-.179a3.953,3.953,0,0,0,.109-.439c0-.082.011-.165.012-.248s-.066-.453,0-.141M53.45,25.109a1.164,1.164,0,0,1,0-2.327,1.164,1.164,0,0,1,0,2.327" transform="translate(-0.561 -0.25)" fill="#fff"/>
    <path id="パス_5007" data-name="パス 5007" d="M103.216,100.094c-1-.021-2.01,0-3.013,0h-.765c-.04,0-.177.025-.218.029-.092.034-.225.085-.206.066q-.083.046-.163.1c.046-.012-.194.228-.182.182-.03.046-.057.094-.084.142,0,.011-.069.171-.078.192a.5.5,0,0,1-.029.062.457.457,0,0,1,0,.057v.223c.012.141.012.146,0,.016a1.934,1.934,0,0,0,.055.207c.007.027.009.042.012.056a.64.64,0,0,1,.041.052c.024.034.045.07.067.106.009,0,.122.136.135.151s.03.037.04.048a.52.52,0,0,1,.053.027c.016.008.145.072.177.094.047.016.1.031.144.043.01,0,.177.029.211.03.329.007.661,0,.99,0h2.828c.045,0,.089,0,.134-.008a.66.66,0,0,1,.1-.022c.02-.008.15-.065.186-.076a1.148,1.148,0,0,1,.178-.112c.045-.042.087-.084.129-.128a1.127,1.127,0,0,1,.111-.179c.011-.036.069-.166.077-.186a.6.6,0,0,1,.028-.061c0-.015,0-.032,0-.058,0-.045,0-.083,0-.115s0-.065,0-.108c-.011-.141-.011-.146,0-.015a2.05,2.05,0,0,0-.055-.207.458.458,0,0,1-.012-.057.551.551,0,0,1-.041-.051c-.027-.047-.056-.092-.086-.136l-.043-.047c-.014-.012-.125-.1-.144-.128a1.5,1.5,0,0,1-.189-.114c-.045-.014-.091-.027-.135-.044a.8.8,0,0,1-.1-.023c-.045,0-.09-.007-.134-.007h-.02" transform="translate(-1.087 -1.105)" fill="#fff"/>
    <path id="パス_5008" data-name="パス 5008" d="M99.738,104.6a.985.985,0,0,1-.1-.022c-.045,0-.089-.007-.134-.007h-.019c-1-.022-2.01,0-3.013,0h-.621c-.048,0-.1,0-.144,0s-.177.025-.218.028a.925.925,0,0,1-.206.067c-.056.03-.111.062-.163.1.045-.011-.194.228-.182.183-.03.045-.058.093-.085.141,0,.012-.069.171-.077.193a.5.5,0,0,1-.029.062c0,.015,0,.031,0,.057v.223c.011.141.012.146,0,.015a2.049,2.049,0,0,0,.055.207c.007.027.01.043.013.057a.58.58,0,0,1,.04.051,1.206,1.206,0,0,1,.067.107,1.929,1.929,0,0,1,.135.15.56.56,0,0,1,.04.049c.014.006.03.013.054.026s.144.073.176.094l.047.015h2.832a4.5,4.5,0,0,1,.717.057h.577c.046,0,.09,0,.134-.007a.851.851,0,0,1,.1-.023c.019-.007.149-.065.185-.076a1.172,1.172,0,0,1,.179-.112q.067-.061.128-.128a1.268,1.268,0,0,1,.112-.179c.011-.036.069-.166.077-.185a.446.446,0,0,1,.028-.061c0-.015,0-.032,0-.058,0-.046,0-.084,0-.116s0-.064,0-.107c-.011-.141-.012-.146,0-.016-.015-.069-.034-.138-.055-.207-.007-.027-.01-.043-.013-.057a.621.621,0,0,1-.04-.051c-.027-.046-.056-.092-.086-.136-.012-.012-.016-.016-.043-.046-.015-.013-.126-.106-.144-.129a1.223,1.223,0,0,1-.189-.114,1.274,1.274,0,0,1-.135-.044" transform="translate(-1.046 -1.155)" fill="#fff"/>
    <path id="パス_5009" data-name="パス 5009" d="M98.576,108.779c-.045,0-.089-.007-.134-.007h-.02c-1-.021-2.01,0-3.013,0h-.765c-.039,0-.176.025-.217.029-.093.034-.226.085-.207.066q-.083.046-.163.1c.046-.012-.193.228-.181.182-.031.046-.058.094-.085.142,0,.011-.069.17-.077.192s-.022.048-.029.062,0,.031,0,.057c0,.045,0,.081,0,.112s0,.066,0,.111c.011.141.012.146,0,.016.015.069.034.138.055.207.007.026.01.042.013.056s.022.027.04.052.045.07.067.106c.009,0,.122.136.135.151a.584.584,0,0,1,.04.048c.014.006.029.013.054.027s.144.072.176.094c.047.016.1.031.144.043.01,0,.178.029.212.029.329.008.66,0,.99,0h2.827c.044,0,.09,0,.134-.007a.981.981,0,0,1,.1-.022c.019-.008.149-.065.185-.076a1.088,1.088,0,0,1,.179-.112c.044-.042.087-.084.128-.129a1.151,1.151,0,0,1,.112-.178c.011-.036.068-.166.076-.186a.559.559,0,0,1,.029-.061c0-.015,0-.032,0-.058V109.6c-.012-.141-.012-.146,0-.015a2.141,2.141,0,0,0-.055-.208c-.007-.026-.01-.042-.013-.056a.579.579,0,0,1-.04-.051c-.027-.047-.056-.092-.087-.136l-.043-.047c-.014-.013-.125-.106-.143-.128a1.421,1.421,0,0,1-.189-.114c-.045-.014-.092-.027-.135-.045a.736.736,0,0,1-.1-.022" transform="translate(-1.034 -1.201)" fill="#fff"/>
    <path id="パス_5010" data-name="パス 5010" d="M97.2,114.427v-.1l0-.017c0,.036,0,.08,0,.123v0" transform="translate(-1.073 -1.262)" fill="#fff"/>
    <path id="パス_5011" data-name="パス 5011" d="M97.2,114.47v.006c0,.079,0,.117,0-.006" transform="translate(-1.073 -1.264)" fill="#fff"/>
    <path id="パス_5012" data-name="パス 5012" d="M95.341,115.289a.271.271,0,0,0-.042-.016h-.02a.3.3,0,0,1,.061.017" transform="translate(-1.052 -1.273)" fill="#fff"/>
    <path id="パス_5013" data-name="パス 5013" d="M94.884,115.151a.272.272,0,0,0-.04-.043l-.006,0a.506.506,0,0,1,.046.047" transform="translate(-1.047 -1.271)" fill="#fff"/>
    <path id="パス_5014" data-name="パス 5014" d="M95.237,115.272h.042c-.035-.008-.065-.015-.1-.021-.009.008,0,.02.057.02" transform="translate(-1.051 -1.273)" fill="#fff"/>
    <path id="パス_5015" data-name="パス 5015" d="M94.837,115.1a.185.185,0,0,0-.02-.02c-.043-.034-.059-.033.02.02" transform="translate(-1.047 -1.27)" fill="#fff"/>
    <path id="パス_5016" data-name="パス 5016" d="M95.563,113.375c-.095,0-.249.022-.353.012l-.012,0c-.062.015-.123.036-.183.053-.034.017-.067.033-.1.051-.011.006-.029.02-.044.031a.185.185,0,0,1-.087.061c-.042.044-.084.087-.127.134.007,0-.015.026-.063.067-.006.008-.009.01-.015.019-.03.048-.054.1-.081.147s-.029.085-.04.126a.386.386,0,0,0-.007.039c.008.01.006.048-.017.109a1.517,1.517,0,0,1,.008.265c.015.061.035.12.051.179.017.034.034.067.051.1.007.011.02.029.032.044a.2.2,0,0,1,.06.086c.058.054.119.11.174.168a.187.187,0,0,1,.026.024l.02.014c.048.03.1.054.148.081s.084.029.125.04c.011,0,.027,0,.04.007s.052-.006.12.021l.133,0h.8c.033,0,.065,0,.1,0,.048-.01.1-.017.14-.028s.1-.039.15-.051l.008,0c.056-.03.109-.065.164-.1.068-.069.138-.151.211-.219.018-.029.036-.056.051-.085s.033-.059.047-.09l.022-.06c.013-.044.025-.087.035-.132,0-.016.007-.032.01-.047,0-.075,0-.127,0-.159s-.006-.08-.007-.121l0-.016c-.014-.061-.035-.119-.051-.179a1.934,1.934,0,0,1-.144-.242c-.037-.041-.075-.079-.114-.116a1.023,1.023,0,0,1-.125-.109c.017.022.024.029.037.044.086.061.095.112,0,0-.007,0-.01-.009-.018-.014-.049-.031-.1-.055-.15-.083-.075-.02-.191-.038-.273-.067h-.751Z" transform="translate(-1.043 -1.252)" fill="#fff"/>
    <path id="パス_5017" data-name="パス 5017" d="M94.614,113.769c.016-.016.033-.03.047-.047a.186.186,0,0,0-.047.047" transform="translate(-1.045 -1.256)" fill="#fff"/>
    <path id="パス_5018" data-name="パス 5018" d="M94.434,114.183l0,.032c.006-.032.013-.059.018-.089-.008-.009-.02,0-.02.057" transform="translate(-1.043 -1.26)" fill="#fff"/>
    <path id="パス_5019" data-name="パス 5019" d="M94.417,114.287a.41.41,0,0,0,.021-.052v-.019a.307.307,0,0,1-.02.071" transform="translate(-1.042 -1.261)" fill="#fff"/>
    <path id="パス_5020" data-name="パス 5020" d="M94.554,113.828c.021-.017.029-.025.044-.038l.016-.021a.818.818,0,0,1-.059.058" transform="translate(-1.044 -1.256)" fill="#fff"/>
    <path id="パス_5021" data-name="パス 5021" d="M94.6,114.873c.009.01.023.02.033.03-.017-.027-.03-.049-.048-.075s-.028,0,.016.045" transform="translate(-1.044 -1.268)" fill="#fff"/>
    <path id="パス_5022" data-name="パス 5022" d="M94.753,113.6a.212.212,0,0,0,.038-.015l.01-.012a.181.181,0,0,1-.047.027" transform="translate(-1.046 -1.254)" fill="#fff"/>
    <path id="パス_5023" data-name="パス 5023" d="M94.832,113.542c-.011.01-.021.023-.031.034.027-.017.05-.03.076-.049s0-.028-.045.016" transform="translate(-1.047 -1.253)" fill="#fff"/>
    <path id="パス_5024" data-name="パス 5024" d="M94.657,114.953a.15.15,0,0,0-.016-.039l-.012-.011a.169.169,0,0,1,.028.049" transform="translate(-1.045 -1.269)" fill="#fff"/>
    <path id="パス_5025" data-name="パス 5025" d="M54.9,82.739H39.055q-.113,3.949-.224,7.9H51.545a5.863,5.863,0,0,1,3.418-.026l.053.026h1.167v-7.9Z" transform="translate(-0.429 -0.914)" fill="#fff"/>
    <path id="パス_5026" data-name="パス 5026" d="M101.481,94.9c.032-.074.008-.044,0,0" transform="translate(-1.12 -1.047)" fill="#78c8e6"/>
    <path id="パス_5027" data-name="パス 5027" d="M39.326,24.31c0-.062,0-.043,0,0" transform="translate(-0.434 -0.268)" fill="#78c8e6"/>
    <path id="パス_5028" data-name="パス 5028" d="M39.893,25.615c.038.056.025.036,0,0" transform="translate(-0.44 -0.283)" fill="#78c8e6"/>
    <path id="パス_5029" data-name="パス 5029" d="M43.11,111.946c.071-.078.054-.081,0,0" transform="translate(-0.476 -1.235)" fill="#78c8e6"/>
    <path id="パス_5030" data-name="パス 5030" d="M92.241,112.191a3.131,3.131,0,0,1-.683-.638,3.277,3.277,0,0,1-.266-3.612,3.184,3.184,0,0,1,.995-1.062,3.276,3.276,0,0,1,.058-3.088,3.337,3.337,0,0,1,2.865-1.651c.208,0,.414,0,.621,0a3.273,3.273,0,0,1,.2-2.782A3.335,3.335,0,0,1,98.9,97.709c.243,0,.486,0,.728,0a28.324,28.324,0,0,1,1.2-2.651c.024-.043.039-.075.052-.1-.108-.016-.246-.034-.373-.042-.384-.024-.778,0-1.163,0l-32.175.126-5.571.022c-1.183,0-2.4-.064-3.033,1.2-2.206,4.4-4.244,8.9-6.363,13.349l-2.976,6.241c-.1.213-.2.425-.3.639,0,.006-.007.015-.012.023a.9.9,0,0,0,.213.017c.238,0,.477,0,.715,0H90.367a2.02,2.02,0,0,0,1.628-.9,3.28,3.28,0,0,1,.246-3.445" transform="translate(-0.54 -1.048)" fill="#fff4c3"/>
    <path id="パス_5031" data-name="パス 5031" d="M48.862,116.747c-.012-.022-.027-.014,0,0" transform="translate(-0.539 -1.289)" fill="#78c8e6"/>
    <path id="パス_5032" data-name="パス 5032" d="M39.79,23.187c.042-.029.032-.023,0,0" transform="translate(-0.439 -0.256)" fill="#78c8e6"/>
    <path id="パス_5033" data-name="パス 5033" d="M39.329,23.916c.006-.027.013-.053.019-.079s-.011.026-.019.079" transform="translate(-0.434 -0.263)" fill="#78c8e6"/>
    <path id="パス_5034" data-name="パス 5034" d="M39.32,23.956l.009-.037v0l-.009.039" transform="translate(-0.434 -0.264)" fill="#78c8e6"/>
    <path id="パス_5035" data-name="パス 5035" d="M20.367,118.594l-.383-.008v.306a1.057,1.057,0,0,1,.383-.3" transform="translate(-0.221 -1.309)" fill="#78c8e6"/>
    <path id="パス_5036" data-name="パス 5036" d="M34.407,20.51a22.751,22.751,0,0,0,.7-3.063c.118-.845-.194-2.05.379-2.723a19.013,19.013,0,0,1,2.059-1.8q1.159-1.006,2.318-2.009,1.512-1.305,3.023-2.61a1.169,1.169,0,0,1,1.828,1.41L43.792,11.7a17.435,17.435,0,0,0,5.393-2.458c1.079-.784,2.377.959,1.41,1.828-.214.192-.439.392-.663.6a15.611,15.611,0,0,0,2.474-.575,27.255,27.255,0,0,0,2.949-1.019,1.194,1.194,0,0,1,1.314.535,12.451,12.451,0,0,1,1.713,3.406,11.339,11.339,0,0,1,.454,1.756c.045.261.074.525.111.788l0,.036.009.037c.108.486.236.965.374,1.443.436,1.523.918,3.033,1.409,4.54a42.318,42.318,0,0,0,.737-6.163,18.327,18.327,0,0,0-.4-5.508c-.369-1.386-1.006-2.558-2.324-2.865a1,1,0,0,1-.807-.8v0l-.02-.037c-.122-.227-.231-.46-.363-.683A8.838,8.838,0,0,0,56.13,4.727a8.261,8.261,0,0,0-5.271-2.421A26.348,26.348,0,0,0,45.345,3q-2.77.506-5.513,1.14a9.365,9.365,0,0,1-2.347.266,1.2,1.2,0,0,1-.5,1.449,10.08,10.08,0,0,1-1.769.73A1.139,1.139,0,0,1,35.026,8.4c-1.236.667-1.614,2.687-1.895,3.925a16.736,16.736,0,0,0-.544,4.332,28.812,28.812,0,0,0,1.112,6.1c.254-.745.493-1.494.708-2.25" transform="translate(-0.36 -0.025)" fill="#323232"/>
    <path id="パス_5037" data-name="パス 5037" d="M55.4,23.162c-.06-.049-.142-.09,0,0" transform="translate(-0.611 -0.255)" fill="#78c8e6"/>
    <path id="パス_5038" data-name="パス 5038" d="M55.848,24.34c.03-.143.011-.065,0,0" transform="translate(-0.617 -0.268)" fill="#78c8e6"/>
    <path id="パス_5039" data-name="パス 5039" d="M55.624,23.382l0,0c.014.021.026.042.04.062s0-.023-.038-.06" transform="translate(-0.614 -0.258)" fill="#78c8e6"/>
    <path id="パス_5040" data-name="パス 5040" d="M50.84,24.349c0-.029,0-.056,0-.085a.478.478,0,0,0,0,.085" transform="translate(-0.561 -0.268)" fill="#78c8e6"/>
    <path id="パス_5041" data-name="パス 5041" d="M55.593,23.335c.013.022.018.028.027.044l0,0c-.01-.016-.02-.03-.029-.045" transform="translate(-0.614 -0.258)" fill="#78c8e6"/>
    <path id="パス_5042" data-name="パス 5042" d="M50.836,23.932c.042-.163,0-.08,0,0v0" transform="translate(-0.561 -0.263)" fill="#78c8e6"/>
    <path id="パス_5043" data-name="パス 5043" d="M50.925,23.607l0,.006c-.038.062-.039.14,0-.006" transform="translate(-0.562 -0.261)" fill="#78c8e6"/>
    <path id="パス_5044" data-name="パス 5044" d="M52.528,26.574c-.051-.019-.1-.034,0,0" transform="translate(-0.579 -0.293)" fill="#78c8e6"/>
    <path id="パス_5045" data-name="パス 5045" d="M50.843,24.389l0-.035v0c0,.013,0,.026,0,.039" transform="translate(-0.561 -0.269)" fill="#78c8e6"/>
    <path id="パス_5046" data-name="パス 5046" d="M74.512,70.653,72.765,89.909c-.135,1.491,2.193,1.482,2.327,0l1.747-19.256c.135-1.49-2.193-1.481-2.327,0" transform="translate(-0.803 -0.768)" fill="#323232"/>
    <path id="パス_5047" data-name="パス 5047" d="M53.466,22.784a1.164,1.164,0,0,0,0,2.327,1.164,1.164,0,0,0,0-2.327" transform="translate(-0.578 -0.252)" fill="#323232"/>
    <path id="パス_5048" data-name="パス 5048" d="M42.162,22.784a1.164,1.164,0,0,0,0,2.327,1.164,1.164,0,0,0,0-2.327" transform="translate(-0.453 -0.252)" fill="#323232"/>
    <path id="パス_5049" data-name="パス 5049" d="M39.348,23.837c-.006.027-.013.052-.019.079v0c.011-.044.018-.073.019-.081" transform="translate(-0.434 -0.263)" fill="#323232"/>
    <path id="パス_5050" data-name="パス 5050" d="M50.84,24.349v0a.813.813,0,0,0-.006-.089c0,.029,0,.056,0,.085" transform="translate(-0.561 -0.268)" fill="#323232"/>
    <path id="パス_5051" data-name="パス 5051" d="M55.623,23.381l0,0c.019.031.034.054.042.064-.014-.021-.025-.042-.039-.062" transform="translate(-0.614 -0.258)" fill="#323232"/>
    <path id="パス_5052" data-name="パス 5052" d="M48.1,32.784a1.164,1.164,0,0,0,0-2.327,1.164,1.164,0,0,0,0,2.327" transform="translate(-0.519 -0.336)" fill="#323232"/>
    <path id="パス_5053" data-name="パス 5053" d="M47.847,39.019a5.131,5.131,0,0,0,3.338-1.189,1.166,1.166,0,0,0,0-1.645,1.191,1.191,0,0,0-1.627-.013l.04-.033c-.041.03-.083.059-.126.087-.088.057-.179.11-.271.159l-.144.075c.116-.061-.144.053-.179.065a1.761,1.761,0,0,1-.658.161l.138-.019c-.056.006-.114.011-.171.015-.114.008-.226.01-.34.008s-.217-.008-.325-.018l-.122-.012.109.013c-.04.028-.268-.051-.317-.063-.1-.025-.207-.053-.309-.087-.043-.014-.194-.04-.223-.08.156.067.177.075.061.023l-.138-.07a3.011,3.011,0,0,1-.266-.16l-.045-.031a.187.187,0,0,0-.023-.021A1.163,1.163,0,1,0,44.6,37.83a5.042,5.042,0,0,0,3.244,1.189" transform="translate(-0.489 -0.396)" fill="#323232"/>
    <path id="パス_5054" data-name="パス 5054" d="M55.33,17.772a5.6,5.6,0,0,0-1.99-.341,7.875,7.875,0,0,0-2.255.26,1.164,1.164,0,1,0,.618,2.244,6.136,6.136,0,0,1,.625-.127,7.232,7.232,0,0,1,1.6,0,3.555,3.555,0,0,1,.78.21,1.163,1.163,0,0,0,.9-.118,1.162,1.162,0,0,0,.417-1.591,1.378,1.378,0,0,0-.7-.535" transform="translate(-0.555 -0.192)" fill="#323232"/>
    <path id="パス_5055" data-name="パス 5055" d="M44.622,17.691a7.887,7.887,0,0,0-2.256-.261,5.623,5.623,0,0,0-1.989.342,1.281,1.281,0,0,0-.7.534,1.19,1.19,0,0,0-.117.9,1.175,1.175,0,0,0,.534.7,1.125,1.125,0,0,0,.9.118,3.548,3.548,0,0,1,.781-.21,7.223,7.223,0,0,1,1.6,0,6.082,6.082,0,0,1,.625.127,1.164,1.164,0,1,0,.619-2.244" transform="translate(-0.436 -0.192)" fill="#323232"/>
    <path id="パス_5056" data-name="パス 5056" d="M104.38,97.549a3.517,3.517,0,0,0-2.472-.887h-.232c.756-1.646,1.8-3.833-.293-4.84-1.039-.5-2.583-.279-3.7-.274l-7,.028L85.1,91.6l.322,2.259L85.1,91.6l-13.617.053c-3.843.015-7.707-.09-11.548.045a5.146,5.146,0,0,0-1.271.213,1.045,1.045,0,0,0-.477-.436l-.213-.1a1.122,1.122,0,0,0,.111-.479V87.343a8.784,8.784,0,0,0,3.933.6,14.334,14.334,0,0,0,4.365-.252,5.355,5.355,0,0,0,3.63-5.107c.028-.864.071-1.728.107-2.591q.171-4.18.343-8.36A1.177,1.177,0,0,0,69.3,70.469H56.376a1.074,1.074,0,0,0-.787.312c-.014.011-.026.025-.04.037s-.015.015-.021.023a1.073,1.073,0,0,0-.316.792v7.179c0,.225,0,.456-.008.687H48.561V75.961a1.122,1.122,0,0,0,.321-.344c1.477-2.542,2.891-5.121,4.266-7.719a85.452,85.452,0,0,0,5.9-12.768l3-1.843c3.03,1.314,6.051,2.654,9.038,4.066a17.119,17.119,0,0,1,5.966,3.926,13.233,13.233,0,0,1,2.789,6.09c1.121,5.4,1.872,10.91,2.807,16.348q.593,3.446,1.185,6.893a.965.965,0,0,0,1.244.806l-.227-1.591.227,1.591a1.24,1.24,0,0,0,1-1.425q-1.417-8.239-2.832-16.479c-.344-2-.673-4.005-1.017-6.007A16.541,16.541,0,0,0,79.813,61.1a14.585,14.585,0,0,0-5.845-4.928c-3.7-1.828-7.485-3.484-11.271-5.121a43.8,43.8,0,0,1-2.875-6.159,1.159,1.159,0,0,0-1.571-.735c-.082-1.12-.123-2.245-.13-3.364a1.044,1.044,0,0,0-.026-.228A19.363,19.363,0,0,0,60.3,34.128a5.911,5.911,0,0,0,2.92-1.381,6.646,6.646,0,0,0,1.6-4.976,4.61,4.61,0,0,0-2.358-3.734c.006-.035.012-.07.018-.1.262-1.282.466-2.574.634-3.871.445-3.423.81-7.365-.448-10.663a5.537,5.537,0,0,0-3.143-3.423A10.964,10.964,0,0,0,53.176.471,11.979,11.979,0,0,0,47.489.219c-2.18.3-4.344.72-6.5,1.175-.863.183-1.721.4-2.585.575a3.6,3.6,0,0,1-1.879-.022c-.206-.073-.533-.323-.318-.128a1.184,1.184,0,0,0-1.828.236A2.266,2.266,0,0,0,34.222,4.3a3.788,3.788,0,0,1-.783.123c-.114,0-.24-.149-.011.065A1.169,1.169,0,0,0,31.6,5.9a11.346,11.346,0,0,0,.767,1.406,9.338,9.338,0,0,0-1.635,3.548,22.5,22.5,0,0,0-.84,5.29,26.57,26.57,0,0,0,1.252,7.41,3.182,3.182,0,0,0-1.337.9,5.507,5.507,0,0,0-1.054,4.216,5.765,5.765,0,0,0,1.682,3.819,6.482,6.482,0,0,0,2.62,1.311,19.679,19.679,0,0,0,2.559,7.317c.026.04.055.076.081.116a1.151,1.151,0,0,0-.029.257c0,.512-.012,1.025-.036,1.536-.022.453-.055.9-.1,1.356a1.241,1.241,0,0,0-1.356.834q-.988,2.523-1.978,5.045l-.02.008c-5.351,2.645-11.365,3.88-16.585,6.793a17.6,17.6,0,0,0-5.8,5.829,18.331,18.331,0,0,0-2.675,6.075C5.91,74.671,4.9,80.432,3.8,86.163Q1.989,95.522.181,104.883A10.631,10.631,0,0,0,4,115.165a8.954,8.954,0,0,0,4.232,1.445c1.869.268,3.754.4,5.639.5,1.963.094,3.929.145,5.9.172v0c.128,0,.254.006.382.007a1.085,1.085,0,0,0-.382.3v0a1.058,1.058,0,0,0-.245.712c.029,2.9.327,5.811.544,8.7a1.3,1.3,0,0,0,.477.929v0a1.09,1.09,0,0,0,.686.234l16.638-.062,26.4-.1,5.9-.022A2.474,2.474,0,0,0,69.4,126.3a2.474,2.474,0,0,1,.758,1.681h.175a1.19,1.19,0,0,0,1.164-1.163q.269-4,.539-7.991a.963.963,0,0,0-.571-1.006H89.827a1.281,1.281,0,0,0,.276-.031,4.563,4.563,0,0,0,3.144-1.654,3.257,3.257,0,0,0,.647.16,9.682,9.682,0,0,0,1.291.039,1.08,1.08,0,0,0,.232-.026,3.31,3.31,0,0,0,3.032-3.136,3.061,3.061,0,0,0-.332-1.49,3.322,3.322,0,0,0,2.38-2.115,3.224,3.224,0,0,0-.191-2.532,3.347,3.347,0,0,0,1.244-1.618,3.192,3.192,0,0,0-.047-2.217h.645a3.338,3.338,0,0,0,3.09-2.214,3.269,3.269,0,0,0-.857-3.433m-4-3.745a.146.146,0,0,0-.015.045.146.146,0,0,1,.015-.045M57.539,79.24V72.8H68.086q-.111,2.682-.221,5.365-.076,1.856-.152,3.713a3.9,3.9,0,0,1-.9,2.915c-.995.978-2.323.826-3.6.826a11.677,11.677,0,0,1-3.76-.173,2.607,2.607,0,0,1-1.368-1.086V80.661a1.173,1.173,0,0,0-.55-.978c0-.152.007-.3.007-.443m-3.065,2.585h1.281v7.9H54.588l-.053-.026a5.879,5.879,0,0,0-3.418.026H38.4q.111-3.949.224-7.9Zm3.713-34.738c.638,1.536,1.4,3.031,2.171,4.5l-4.463,2.746-1.487-3.161c-.638-1.355-2.644-.175-2.01,1.174q1,2.123,2,4.245a1.167,1.167,0,0,0,1.452.483,106.175,106.175,0,0,1-4.817,9.855q-1.553,2.924-3.191,5.8c-1.021-1.672-2.018-3.36-2.98-5.066a77.516,77.516,0,0,1-5.764-11.888,6.032,6.032,0,0,0,1.18.534c.845.282,1.725.446,2.581.688a1.164,1.164,0,1,0,.619-2.244c-.8-.224-1.609-.385-2.4-.629-.168-.052-.332-.111-.5-.172l-.035-.016c-.078-.037-.156-.076-.231-.118s-.145-.084-.215-.131l-.017-.012c-.046-.043-.095-.083-.139-.129s-.056-.067-.088-.1-.021-.015-.009,0c-.031-.039-.065-.073-.1-.109l.928-2.124a1.443,1.443,0,0,0,.1-.9l.192.12c1.644,2.189,3.314,4.365,5.079,6.457a1.177,1.177,0,0,0-.048.365c.1,3.5,0,7,.1,10.5.044,1.494,2.371,1.5,2.327,0-.1-3.5,0-7-.1-10.5,0-.029-.008-.052-.01-.08h0c.014,0,.027,0,.041,0l.078-.012a12.489,12.489,0,0,0,1.659-.238,7.133,7.133,0,0,0,2.4-1.17,1.26,1.26,0,0,0,.534-.7,1.163,1.163,0,0,0-1.709-1.313,7.509,7.509,0,0,1-1.252.738l-.095.033q1.483-2.126,2.94-4.271a30.161,30.161,0,0,0,5.277-3.166M38.041,45.866l-.331-.208c.092-.612.163-1.227.209-1.846a14.055,14.055,0,0,0,4.456,2.71,12.323,12.323,0,0,0,7.108.5.944.944,0,0,0,.244.027,1.253,1.253,0,0,0,.749-.293,13.236,13.236,0,0,0,5.4-3.29q.067,1.194.211,2.38l-.014.01c-.608.42-1.244.8-1.891,1.157-.395.22-.8.429-1.2.634a9.339,9.339,0,0,0-1.566.794,3.745,3.745,0,0,0-.66.856q-.58.853-1.164,1.7c-.819,1.193-1.652,2.375-2.484,3.558-1.49-1.811-2.911-3.679-4.331-5.545a5.787,5.787,0,0,0-1.638-1.2l-3.1-1.942M32.77,12.3c.282-1.238.659-3.258,1.895-3.925a1.138,1.138,0,0,0,.194-1.822,10.08,10.08,0,0,0,1.769-.731,1.2,1.2,0,0,0,.5-1.448,9.375,9.375,0,0,0,2.347-.267q2.743-.629,5.512-1.14A26.423,26.423,0,0,1,50.5,2.281,8.271,8.271,0,0,1,55.769,4.7,8.876,8.876,0,0,1,57.2,6.535c.131.224.24.456.362.684.009.016.013.024.021.037v0a1,1,0,0,0,.806.8c1.318.308,1.955,1.479,2.324,2.865a18.3,18.3,0,0,1,.4,5.508,42.318,42.318,0,0,1-.737,6.163c-.492-1.506-.973-3.016-1.409-4.539-.136-.479-.266-.958-.374-1.444a.36.36,0,0,0-.009-.036c0-.015,0-.02,0-.037-.037-.262-.064-.526-.11-.788a11.44,11.44,0,0,0-.454-1.755,12.446,12.446,0,0,0-1.714-3.407A1.194,1.194,0,0,0,55,10.053a27.244,27.244,0,0,1-2.948,1.02,15.844,15.844,0,0,1-2.475.575c.224-.207.449-.406.663-.6.967-.867-.331-2.612-1.409-1.828a17.407,17.407,0,0,1-5.394,2.458l.917-1.986a1.168,1.168,0,0,0-1.827-1.409q-1.513,1.3-3.023,2.61-1.16,1-2.318,2.009a18.922,18.922,0,0,0-2.06,1.8c-.573.672-.261,1.879-.378,2.723a22.536,22.536,0,0,1-.7,3.063c-.215.756-.454,1.505-.708,2.251a28.745,28.745,0,0,1-1.111-6.1A16.783,16.783,0,0,1,32.77,12.3M51.554,26.057l-.1-.07c-.038-.032-.135-.108-.134-.107a4.3,4.3,0,0,1-.385-.387c-.025-.029-.08-.1-.089-.109L50.78,25.3a4.5,4.5,0,0,1-.25-.421s-.026-.054-.049-.1-.06-.147-.061-.149a4.807,4.807,0,0,1-.134-.5c0-.012,0-.028-.006-.043l0,.035,0-.039a.478.478,0,0,1,0-.085c0-.02,0-.039,0-.057,0-.089,0-.177,0-.266.031-.109.06-.22.089-.329a1.9,1.9,0,0,0,.133-.22c.039-.038.073-.079.112-.117s.09-.08.135-.12l.018-.01c.126-.072.247-.145.377-.213l0,0c.09-.033.179-.065.27-.093.137-.043.278-.078.419-.107.085-.018.17-.033.256-.045l.032,0a7.6,7.6,0,0,1,1.162-.009l.206.02c-.265-.026.03.007.089.018a4.743,4.743,0,0,1,.561.14c.059.019.117.041.176.059l.041.012.053.031c.132.073.259.149.387.228l.013.011c.067.065.133.132.2.2-.009-.016-.014-.022-.027-.044.009.016.019.03.029.045h0c.039.038.063.093.038.061.022.032.044.062.062.1s.049.12.059.144.026.075.036.114c.014.055.023.112.036.168-.07-.312,0,.061,0,.141s-.008.166-.012.248a4.447,4.447,0,0,1-.109.439c-.02.06-.043.119-.062.179-.006.017-.007.023-.011.035s-.013.021-.025.042c-.079.141-.151.287-.239.424-.046.073-.1.144-.147.215l-.024.026c-.112.124-.222.245-.344.358-.049.045-.1.087-.149.131l-.033.031L54.034,26q-.212.126-.426.25l-.045.028-.041.012c-.063.02-.125.044-.188.062-.079.024-.16.044-.24.061-.024,0-.06.01-.094.014-.151.01-.3.012-.451.008h-.023c-.1-.019-.206-.041-.308-.068-.08-.023-.157-.049-.235-.076l-.007,0a4.37,4.37,0,0,1-.422-.233m.395.224c-.1-.034-.051-.019,0,0m-1.674-2.612v0c0-.075.043-.158,0,0m.084-.316,0-.006c-.043.146-.042.069,0,.006m4.428-.445c-.142-.09-.06-.049,0,0m.445,1.165c.011-.065.03-.144,0,0M54.2,20.2a5.988,5.988,0,0,0-5.233,1.162,3.243,3.243,0,0,0-.821,1.357H46.336A4.118,4.118,0,0,0,43.1,20.206c-1.834-.341-4.077-.172-5.5,1.168a3.246,3.246,0,0,0-.455.535l-1.138.122c.072-.235.151-.469.221-.706a16.391,16.391,0,0,0,.918-5.309c1.026-.9,2.061-1.788,3.092-2.681a1.143,1.143,0,0,0,1.427,1.2,33.393,33.393,0,0,0,4.672-1.379,1.374,1.374,0,0,0,.676.55c1.606.648,3.633.152,5.233-.275.877-.234,1.744-.525,2.6-.847,1.1,1.929,1.32,4.117,1.939,6.255.3,1.029.615,2.053.94,3.075l-.316-.053-.23-.039a.884.884,0,0,0-.312-.035A4.279,4.279,0,0,0,54.2,20.2m-9.978,3.886,0,.017c-.036.141-.073.281-.111.422-.008.027-.031.087-.043.121s-.033.072-.05.108a4.086,4.086,0,0,1-.286.484c-.019.028-.071.095-.085.115s-.056.068-.086.1c-.119.133-.248.246-.375.37l-.06.052c-.055.041-.112.08-.169.118a3.952,3.952,0,0,1-.461.255c-.03.006-.275.1-.324.113s-.328.06-.335.069c-.165.011-.327.01-.493.008-.015,0-.043,0-.068-.006-.089-.016-.178-.034-.266-.056-.069-.018-.137-.039-.206-.06-.016,0-.146-.059-.187-.074-.106-.051-.21-.1-.31-.163-.076-.045-.15-.094-.224-.144-.02-.014-.064-.05-.095-.075a4.759,4.759,0,0,1-.349-.328c-.068-.072-.133-.147-.2-.224l-.018-.026c-.085-.129-.169-.257-.244-.393-.028-.051-.123-.281-.135-.3-.047-.146-.09-.293-.13-.443a.942.942,0,0,1-.015-.1c0-.037-.006-.073-.007-.111,0-.079,0-.158,0-.237a.306.306,0,0,1,.006-.049l-.009.037.009-.039c.008-.053.021-.1.019-.079,0-.019.008-.038.013-.056l.036-.108c.019-.041.04-.085.044-.092.027-.047.058-.093.09-.138-.024.046.125-.131.182-.189a.387.387,0,0,1,.054-.045c.033-.023.065-.045.1-.067a3.869,3.869,0,0,1,.39-.208l.015,0c.1-.031.19-.065.287-.094.168-.048.338-.088.509-.121l.146-.025.089-.01a9.333,9.333,0,0,1,1.152-.018c.09.006.179.015.268.024.027,0,.153.022.193.029.172.033.342.072.509.121.081.024.16.052.24.077l.088.033c.136.09.3.163.439.246l.011.007c.055.047.11.094.161.146.025.025.083.1.1.122.025.039.052.076.075.116s.05.1.077.152c-.131-.241-.019-.027,0,.047,0,0,.01.036.019.07-.009,0,.023.224.023.261a1.683,1.683,0,0,0-.01.233v0m-4.742,1.282-.024-.035.024.035m-.584-1.325,0-.039,0,.039m.459-1.111.027-.019-.027.019m-4.164,9.582a1.118,1.118,0,0,0-.813-.812c-1.545-.224-2.78-.893-3.175-2.469-.239-.951-.278-4.549,1.645-3.36a1.029,1.029,0,0,0,1.284-.1A1.257,1.257,0,0,0,35,24.961c.066-.17.123-.344.186-.515l1.419-.152a4.64,4.64,0,0,0,.8,2.16,5.021,5.021,0,0,0,5.323,2.165,5.286,5.286,0,0,0,3.623-3.573h1.775a4.831,4.831,0,0,0,.644,1.427,4.75,4.75,0,0,0,5.086,2.153,5.177,5.177,0,0,0,3.666-4.395l.624.1.23.039a.891.891,0,0,0,.15.028c.04.12.078.24.118.36a1.23,1.23,0,0,0,1.7,1.458c-.241.119.062-.031.285-.084a1.615,1.615,0,0,1,.645-.058c.994.172,1.325,1.686,1.249,2.528-.082.916-.465,2.362-1.353,2.822a12.007,12.007,0,0,1-2.194.646,1.142,1.142,0,0,0-.813.812C57.473,37.3,55.7,41.7,51.539,43.9c-.213.113-.431.207-.649.3v-1a1.2,1.2,0,0,0-.341-.823,1.164,1.164,0,0,0-1.986.823v1.674c-.056.01-.114.016-.171.024V43.2a1.2,1.2,0,0,0-.34-.823,1.164,1.164,0,0,0-1.987.823v1.768l-.17-.017V43.2a1.2,1.2,0,0,0-.341-.823,1.164,1.164,0,0,0-1.986.823v1.258a11.057,11.057,0,0,1-5.626-4.052,18.274,18.274,0,0,1-2.754-7.9m.679,14.735,3.6,2.257a1,1,0,0,0-.8.547q-1.108,2.54-2.217,5.079l-2.341-3.4,1.759-4.485m-18.019,67.66a52.63,52.63,0,0,1-10.6-.83c-3.344-.769-5.449-4.943-4.889-8.208.946-5.525,2.128-11.02,3.19-16.524Q7.37,79.9,9.2,70.443A18.221,18.221,0,0,1,14.4,60.9a18.324,18.324,0,0,1,6.39-3.644c2.882-1.137,5.815-2.137,8.692-3.284q1.308-.522,2.591-1.1l1.946,2.824,1.654,2.4a1.216,1.216,0,0,0,1.893.182,90.3,90.3,0,0,0,5.166,10.355q1.759,3.133,3.657,6.19a1.119,1.119,0,0,0-.151.557V79.5H37.494a1.052,1.052,0,0,0-.908.457,1.119,1.119,0,0,0-.255.706q-.145,5.113-.289,10.227a1.178,1.178,0,0,0,1.164,1.163h7.011a5.714,5.714,0,0,0-1.253.776,7.629,7.629,0,0,0-1.945,2.724,60.218,60.218,0,0,0-2.229,7.134c-.448,1.433,1.8,2.045,2.244.619.66-2.111,1.044-4.329,1.9-6.375A6.125,6.125,0,0,1,44.464,94.6a10.513,10.513,0,0,1,3.1-1.345,24.406,24.406,0,0,1,3.78-1.2h2.727l2.47,1.2a3.721,3.721,0,0,0-.458.647c-.181.332-.337.68-.5,1.027a1.241,1.241,0,0,0-.914-.493c-1.981-.159-3.936.22-5.918.059a1.169,1.169,0,0,0-1.163,1.164,1.191,1.191,0,0,0,1.163,1.163c1.982.16,3.937-.219,5.918-.059a.363.363,0,0,0,.046,0L53.932,98.4a1.228,1.228,0,0,0-.709-.276l-5.8-.294-.836-.043a1.172,1.172,0,0,0-1.164,1.163,1.19,1.19,0,0,0,1.164,1.164l5.8.294.573.029-.605,1.272a1.228,1.228,0,0,0-.212-.023l-5.71-.01-.822,0a1.164,1.164,0,0,0,0,2.327l5.645.011-1,2.1a1.309,1.309,0,0,0-.259-.007l-4.662.341a1.17,1.17,0,0,0-1,.577q-.461.969-.908,1.945c-.214.466-.422.934-.62,1.406l-.078.188h0c-.032.048-.064.1-.095.153l-.013.014a10.3,10.3,0,0,1-5.49,2.683,10.685,10.685,0,0,1-.633-4.893A14.485,14.485,0,0,1,37.978,103a1.122,1.122,0,0,0,.071-.941,1.243,1.243,0,0,0-1.076-1.566L21.991,99.2q-1.374-11.845-2.736-23.692-.409-3.571-.814-7.14c-.165-1.471-2.494-1.487-2.327,0q1.62,14.4,3.312,28.781.107.926.215,1.85l-.5-.044-2.525-.218c-1.492-.129-1.483,2.2,0,2.327L28.8,102.113a8.144,8.144,0,0,0-.487,1.743,28.063,28.063,0,0,0-.362,2.874c-.092,1.135-.147,2.278-.151,3.417a1.164,1.164,0,0,0,2.327,0c0-1.081.054-2.163.137-3.24.035-.45.076-.9.129-1.347.01-.09.022-.18.033-.27l0-.014c0-.04.011-.079.017-.119q.043-.3.1-.6a10.628,10.628,0,0,1,.265-1.149c.02-.068.088-.41.152-.445-.079.182-.094.218-.046.109q.024-.052.05-.1c.032-.064.067-.127.1-.188a1.063,1.063,0,0,0,.148-.459l3.232.278,1.1.095a17.8,17.8,0,0,0-1.387,5.826,12.441,12.441,0,0,0,.974,6.167c-5.759.233-11.531.333-17.292.221m24.833-4.257a.279.279,0,0,0-.047.06.279.279,0,0,1,.047-.06m27.033,8.171q-.231,3.416-.462,6.831l-15.553.058-26.4.1-5,.019c-.2-2.506-.426-5.024-.451-7.533a1.062,1.062,0,0,0-.629-1c4.962.032,9.929-.112,14.878-.314l.47-.02a1.139,1.139,0,0,0,1.108-1.047,1.087,1.087,0,0,0,.192-.279,11.735,11.735,0,0,0,6.335-3.187,6.693,6.693,0,0,0,1.139-2.1c.248-.545.5-1.087.76-1.628l3.022-.222-1.179,2.474-1.288,2.7a3.793,3.793,0,0,0-.6,2.254c.337,2.056,2.52,1.892,4.09,1.892H70.423a1.138,1.138,0,0,0-.709,1.006m-21.391-3.363c-.014-.007-.017-.012-.015-.013s0,.006.015.013m22.633,5.408v0Zm20.85-18.121a3.271,3.271,0,0,0-.059,3.087,3.167,3.167,0,0,0-.995,1.063,3.279,3.279,0,0,0,.266,3.612,3.168,3.168,0,0,0,.682.637,3.284,3.284,0,0,0-.246,3.446,2.016,2.016,0,0,1-1.627.9H49.291c-.237,0-.477,0-.714,0a.886.886,0,0,1-.213-.017l.011-.023q.151-.32.3-.639,1.486-3.121,2.975-6.241c2.119-4.446,4.157-8.944,6.363-13.348.635-1.268,1.85-1.2,3.033-1.2L66.621,94,98.8,93.87c.385,0,.779-.028,1.163,0,.127.008.265.025.373.041-.014.029-.03.06-.052.1a27.954,27.954,0,0,0-1.2,2.652c-.242,0-.485,0-.728,0a3.333,3.333,0,0,0-2.864,1.651,3.276,3.276,0,0,0-.2,2.782c-.208,0-.414,0-.621,0a3.332,3.332,0,0,0-2.864,1.651m4.314,10.442c0,.016-.006.032-.01.047-.01.045-.022.088-.036.132-.006.02-.014.041-.021.06s-.031.06-.047.09-.034.056-.052.085c-.072.067-.141.149-.211.219-.054.032-.107.067-.163.1l-.008,0c-.049.013-.107.04-.15.051s-.092.018-.14.028c-.033,0-.064,0-.1,0h-.8l-.134,0a.44.44,0,0,1,.042.016.252.252,0,0,0-.061-.016h-.042c-.054,0-.066-.012-.057-.02-.013,0-.029,0-.04-.007-.041-.011-.083-.028-.125-.04s-.1-.051-.148-.081l-.02-.014a.272.272,0,0,1,.04.043c-.012-.016-.032-.031-.046-.046-.079-.052-.062-.053-.02-.02-.056-.058-.116-.114-.175-.168a.15.15,0,0,1,.016.039.169.169,0,0,0-.028-.049l-.033-.03c-.044-.046-.036-.058-.015-.045a.386.386,0,0,1-.032-.044c-.018-.032-.035-.065-.051-.1-.017-.059-.037-.118-.051-.179a1.517,1.517,0,0,0-.008-.265.336.336,0,0,1-.021.052.276.276,0,0,0,.02-.071l0-.032c0-.054.012-.066.02-.058a.384.384,0,0,1,.007-.039c.011-.041.027-.083.04-.126s.051-.1.081-.147c0-.009.009-.011.014-.019a.452.452,0,0,1-.043.038.655.655,0,0,0,.059-.058c.023-.029.043-.047.047-.046.043-.046.084-.09.127-.134a.212.212,0,0,1-.038.015.245.245,0,0,0,.048-.027l.031-.034c.046-.044.058-.037.045-.016a.531.531,0,0,1,.044-.031c.032-.019.065-.035.1-.051.061-.018.122-.039.184-.053l.012,0c.1.01.258-.012.353-.012h.75c.083.03.2.047.274.067.05.028.1.052.15.083.008,0,.011.009.018.014a.49.49,0,0,1-.037-.044,1.092,1.092,0,0,0,.124.109,1.572,1.572,0,0,1,.114.116,1.94,1.94,0,0,0,.145.242c.017.06.038.119.051.179l0,.016c0,.041,0,.081.007.121s0,.084,0,.159m0,.025v-.006c0,.122,0,.085,0,.006m0-.047v0c0-.043,0-.087,0-.123l0,.017Zm2.194-4.423c-.008.019-.065.149-.076.185a1.089,1.089,0,0,0-.112.179c-.041.045-.084.087-.128.128a1.266,1.266,0,0,0-.179.112c-.036.011-.166.069-.185.076a.848.848,0,0,0-.1.023c-.045,0-.09.007-.134.007H94.579c-.329,0-.66.008-.989,0-.034,0-.2-.033-.212-.029-.048-.013-.1-.028-.144-.044-.032-.021-.16-.085-.177-.094L93,109.259c-.009-.013-.021-.027-.04-.048a2,2,0,0,0-.135-.151c-.022-.037-.043-.072-.067-.107a.551.551,0,0,0-.041-.051.417.417,0,0,0-.012-.056,2.137,2.137,0,0,1-.055-.208c.011.132.01.127,0-.015,0-.045,0-.081,0-.112s0-.067,0-.111c0-.027,0-.043,0-.057s.016-.033.028-.062.08-.182.078-.193c.027-.048.054-.1.085-.141-.012.046.227-.194.181-.183.053-.035.108-.067.163-.1a.924.924,0,0,0,.207-.067c.041,0,.178-.028.217-.029h.765c1,0,2.011-.021,3.013,0h.02c.045,0,.09,0,.134.008a.977.977,0,0,0,.1.022c.044.018.09.03.135.044a1.314,1.314,0,0,0,.189.114c.019.023.13.116.143.129.027.031.032.035.043.046.03.044.06.09.087.136a.461.461,0,0,0,.04.051c0,.015.006.031.012.057a1.934,1.934,0,0,1,.055.207c-.01-.131-.01-.126,0,.016v.223a.467.467,0,0,0,0,.058.42.42,0,0,0-.029.061m1.053-4.15c-.008.019-.065.149-.076.185a1.088,1.088,0,0,0-.112.179q-.062.067-.128.128a1.171,1.171,0,0,0-.179.112c-.036.011-.166.069-.185.077a.739.739,0,0,0-.1.022c-.044,0-.09.007-.134.007h-.578a4.485,4.485,0,0,0-.716-.057H94.335l-.047-.015c-.032-.021-.16-.085-.176-.094s-.041-.02-.054-.026a.454.454,0,0,0-.04-.048c-.014-.016-.127-.15-.135-.151-.022-.037-.043-.072-.067-.107s-.03-.04-.04-.051-.006-.031-.013-.056a2.142,2.142,0,0,1-.055-.208c.011.132.01.127,0-.015,0-.045,0-.081,0-.112s0-.066,0-.111c0-.027,0-.043,0-.057s.016-.033.029-.062.079-.181.077-.193c.027-.048.054-.1.085-.141-.012.046.227-.194.181-.182q.08-.053.163-.1a.865.865,0,0,0,.207-.067c.041,0,.178-.028.217-.028h.765c1,0,2.011-.021,3.013,0h.02c.045,0,.09,0,.134.007a.739.739,0,0,0,.1.022c.044.018.09.031.135.044a1.286,1.286,0,0,0,.189.113c.019.023.13.116.143.129.027.031.032.035.043.046.031.045.06.09.087.136a.38.38,0,0,0,.04.051c0,.015.006.031.013.057.022.068.041.137.055.207-.011-.131-.01-.126,0,.016v.223c0,.027,0,.044,0,.058a.418.418,0,0,0-.029.061m3.687-4.433c-.008.019-.065.15-.076.186a1.058,1.058,0,0,0-.112.178q-.062.067-.128.128a1.267,1.267,0,0,0-.179.112c-.036.011-.166.069-.185.076a.846.846,0,0,0-.1.023c-.045,0-.09.007-.135.007H99.319c-.329,0-.66.008-.989,0-.034,0-.2-.032-.212-.029-.048-.013-.1-.028-.144-.043-.032-.022-.16-.086-.177-.095l-.053-.026a.624.624,0,0,0-.04-.048,2,2,0,0,0-.135-.151c-.022-.037-.044-.072-.067-.107a.551.551,0,0,0-.041-.051.417.417,0,0,0-.012-.056,2.14,2.14,0,0,1-.055-.208c.01.132.01.127,0-.015,0-.045,0-.081,0-.112s0-.066,0-.111c0-.027,0-.043,0-.057s.016-.033.028-.062.08-.181.078-.193c.027-.048.054-.1.085-.141-.012.046.227-.194.181-.183.053-.035.108-.067.163-.1a.866.866,0,0,0,.207-.067c.041,0,.178-.028.217-.028h.765c1,0,2.011-.021,3.013,0h.02c.045,0,.09,0,.135.007a.978.978,0,0,0,.1.022,1.275,1.275,0,0,0,.135.044,1.222,1.222,0,0,0,.189.114c.019.023.13.116.143.129.027.031.032.035.043.046.03.045.06.09.086.136a.587.587,0,0,0,.041.051c0,.016.006.031.012.057a1.936,1.936,0,0,1,.055.207c-.01-.131-.01-.126,0,.016v.223a.468.468,0,0,0,0,.058.335.335,0,0,0-.029.061" transform="translate(0 0)" fill="#323232"/>
    <path id="パス_5057" data-name="パス 5057" d="M96.781,113.543c.095.112.086.061,0,0" transform="translate(-1.069 -1.254)" fill="#323232"/>
    <path id="パス_5058" data-name="パス 5058" d="M94.877,113.526a.7.7,0,0,1-.076.048l-.011.013a.2.2,0,0,0,.087-.061" transform="translate(-1.047 -1.253)" fill="#323232"/>
    <path id="パス_5059" data-name="パス 5059" d="M95.18,115.252c.034.006.065.013.1.021h.02c-.067-.027-.11-.03-.12-.021" transform="translate(-1.051 -1.272)" fill="#323232"/>
    <path id="パス_5060" data-name="パス 5060" d="M94.661,113.722l-.047.047a.193.193,0,0,0-.017.021c.048-.043.071-.068.064-.068" transform="translate(-1.044 -1.256)" fill="#323232"/>
    <path id="パス_5061" data-name="パス 5061" d="M94.819,115.084l.02.02.006,0c-.01-.009-.017-.017-.026-.024" transform="translate(-1.047 -1.271)" fill="#323232"/>
    <path id="パス_5062" data-name="パス 5062" d="M94.454,114.125c0,.03-.012.057-.018.089v.019c.023-.06.025-.1.017-.108" transform="translate(-1.043 -1.26)" fill="#323232"/>
    <path id="パス_5063" data-name="パス 5063" d="M94.581,114.828c.019.026.032.048.048.075l.012.011a.193.193,0,0,0-.06-.086" transform="translate(-1.044 -1.268)" fill="#323232"/>
    <path id="パス_5064" data-name="パス 5064" d="M14.012,100.541a1.144,1.144,0,0,0-.9-.118l-3.048,1.155-.433.164a1.255,1.255,0,0,0-.7.534,1.19,1.19,0,0,0-.118.9,1.177,1.177,0,0,0,.535.7,1.142,1.142,0,0,0,.9.118l3.049-1.155.433-.164a1.256,1.256,0,0,0,.7-.535,1.162,1.162,0,0,0-.417-1.591" transform="translate(-0.097 -1.108)" fill="#323232"/>
    <path id="パス_5065" data-name="パス 5065" d="M15.834,96.106a1.311,1.311,0,0,0-.535-.7l-2.527-1.769a1.174,1.174,0,0,0-.9-.117,1.188,1.188,0,0,0-.7.534,1.176,1.176,0,0,0-.117.9,1.309,1.309,0,0,0,.534.7l2.528,1.769a1.164,1.164,0,0,0,1.709-1.314" transform="translate(-0.122 -1.032)" fill="#323232"/>
  </g>
</svg>
