<svg xmlns="http://www.w3.org/2000/svg" xmlns:xlink="http://www.w3.org/1999/xlink" width="133.167" height="114.317" viewBox="0 0 133.167 114.317">
  <defs>
    <clipPath id="clip-path">
      <rect id="長方形_566" data-name="長方形 566" width="88.114" height="108.607" fill="none"/>
    </clipPath>
    <clipPath id="clip-path-2">
      <rect id="長方形_567" data-name="長方形 567" width="54.367" height="45.184" fill="none"/>
    </clipPath>
  </defs>
  <g id="グループ_4447" data-name="グループ 4447" transform="translate(-314.127 -3997.654)">
    <g id="グループ_4444" data-name="グループ 4444" transform="translate(314.127 4003.364)">
      <g id="グループ_4443" data-name="グループ 4443" clip-path="url(#clip-path)">
        <path id="パス_4762" data-name="パス 4762" d="M30.361,31.625H61.355l3.555-4.683a3.21,3.21,0,0,1-.3-.233L45.945,10.015H10V80.352H22.258a2.626,2.626,0,0,1,1.685.555l3.643-4.8V34.4a2.815,2.815,0,0,1,2.775-2.775" transform="translate(-4.449 -4.456)" fill="#fff"/>
        <path id="パス_4763" data-name="パス 4763" d="M5.551,75.9V5.559H41.5L60.163,22.253a3.2,3.2,0,0,0,.3.233c2.639,1.856,6.2-1.857,3.629-4.157L54.3,9.575C51.085,6.7,47.979,3.393,44.511.821c-1.3-.965-2.533-.813-4.051-.813H2.775A2.816,2.816,0,0,0,0,2.783V78.671a2.816,2.816,0,0,0,2.775,2.775H17.809c2.873,0,3.437-3.591,1.685-5a2.627,2.627,0,0,0-1.685-.555Z" transform="translate(0 0)" fill="#323232"/>
        <path id="パス_4764" data-name="パス 4764" d="M51.682,129.284h53.8V74.915L87.627,58.947H51.682v70.337ZM64.289,83.328H93.278c3.577,0,3.571,5.551,0,5.551H64.289c-3.577,0-3.571-5.551,0-5.551m.3,11.832H93.574c3.577,0,3.571,5.551,0,5.551H64.584c-3.577,0-3.571-5.551,0-5.551m29.285,17.383H64.88c-3.577,0-3.571-5.551,0-5.551H93.869c3.578,0,3.572,5.551,0,5.551m-8.691-47.3c0-3.577,5.551-3.571,5.551,0V70.9h7.284c3.577,0,3.572,5.551,0,5.551H87.953a2.816,2.816,0,0,1-2.775-2.775Z" transform="translate(-22.995 -26.228)" fill="#fff"/>
        <path id="パス_4765" data-name="パス 4765" d="M105.771,67.26l-9.789-8.753c-3.215-2.875-6.321-6.181-9.788-8.754-1.3-.965-2.533-.813-4.051-.813H44.458a2.815,2.815,0,0,0-2.775,2.775V127.6a2.816,2.816,0,0,0,2.775,2.775h59.351a2.816,2.816,0,0,0,2.775-2.775V69.681a2.358,2.358,0,0,0-.813-2.421M47.234,54.491H83.178l17.855,15.968v54.369h-53.8V54.491Z" transform="translate(-18.546 -21.771)" fill="#323232"/>
        <path id="パス_4766" data-name="パス 4766" d="M72.246,108.422h28.988c3.572,0,3.577-5.551,0-5.551H72.246c-3.572,0-3.578,5.551,0,5.551" transform="translate(-30.952 -45.771)" fill="#3c9de8"/>
        <path id="パス_4767" data-name="パス 4767" d="M72.778,129.739h28.989c3.572,0,3.577-5.551,0-5.551H72.778c-3.572,0-3.577,5.551,0,5.551" transform="translate(-31.189 -55.256)" fill="#3c9de8"/>
        <path id="パス_4768" data-name="パス 4768" d="M102.3,145.505H73.311c-3.572,0-3.577,5.551,0,5.551H102.3c3.571,0,3.577-5.551,0-5.551" transform="translate(-31.426 -64.74)" fill="#3c9de8"/>
        <path id="パス_4769" data-name="パス 4769" d="M114.8,79.353h10.059c3.572,0,3.577-5.551,0-5.551h-7.284v-5.66c0-3.571-5.551-3.577-5.551,0v8.435a2.816,2.816,0,0,0,2.775,2.775" transform="translate(-49.845 -29.126)" fill="#323232"/>
      </g>
    </g>
    <g id="グループ_4446" data-name="グループ 4446" transform="translate(392.928 3997.654)">
      <g id="グループ_4445" data-name="グループ 4445" transform="translate(0 0)" clip-path="url(#clip-path-2)">
        <path id="パス_4770" data-name="パス 4770" d="M53.229,22.529V12.856c0-2.872.268-6.451-3.7-6.744H12.043c-1.449,0-3.094-.2-4.365.642-2.067,1.369-1.624,4.193-1.624,6.319v9.171c0,2.479-.058,4.965,0,7.444a5.187,5.187,0,0,0,.643,3.04c1.155,1.742,3.133,1.623,4.946,1.623a1.758,1.758,0,0,1,1.5,2.615L11.179,40.9c2.984-2,5.974-4,9.035-5.866a4.948,4.948,0,0,1,3.008-.679h7.872c5.821,0,11.659.136,17.479,0,2.663-.063,4.519-1.3,4.656-4.207.119-2.526,0-5.087,0-7.616M18.5,22.871a1.792,1.792,0,1,1,1.792-1.792A1.792,1.792,0,0,1,18.5,22.871m7.7,0a1.792,1.792,0,1,1,1.792-1.792,1.792,1.792,0,0,1-1.792,1.792m7.695,0a1.792,1.792,0,1,1,1.792-1.792,1.792,1.792,0,0,1-1.792,1.792m7.695,0a1.792,1.792,0,1,1,1.792-1.792,1.792,1.792,0,0,1-1.792,1.792" transform="translate(-2.531 -2.563)" fill="#fff"/>
        <path id="パス_4771" data-name="パス 4771" d="M54.25,15.495h0C54.513,9.2,54.986.978,47.413.121a1.876,1.876,0,0,0-.419-.047H13.772C9.167.074,3.3-.881.794,4.087-.224,6.1.048,8.54.048,10.727V21.084c0,2.324-.11,4.678,0,7,.2,4.21,2.908,6.28,6.378,6.937l-3.751,7.5c-.725,1.449.824,3.4,2.378,2.378,4.676-3.067,9.734-5.864,14.155-9.282a4.892,4.892,0,0,1,.505-.3,12.913,12.913,0,0,0,2.33-.049v0c.038,0,.08,0,.116,0H42.869a25.086,25.086,0,0,0,5.771-.207c7.3-1.778,5.533-11.238,5.533-16.809,0-.848.036-1.778.076-2.753M50.7,27.582c-.137,2.911-1.992,4.144-4.656,4.206-5.819.136-11.658,0-17.479,0H20.692a4.944,4.944,0,0,0-3.008.679c-3.061,1.865-6.051,3.863-9.035,5.866l1.965-3.93a1.758,1.758,0,0,0-1.5-2.615c-1.813,0-3.791.12-4.946-1.623a5.186,5.186,0,0,1-.643-3.039c-.058-2.478,0-4.965,0-7.444V10.511c0-2.125-.443-4.949,1.624-6.319,1.27-.842,2.916-.643,4.365-.643H46.994c3.971.294,3.7,3.873,3.7,6.744v9.673c0,2.528.119,5.089,0,7.616" transform="translate(0 0)" fill="#323232"/>
        <path id="パス_4772" data-name="パス 4772" d="M26.262,32.456a1.792,1.792,0,1,0-1.792-1.792,1.792,1.792,0,0,0,1.792,1.792" transform="translate(-10.295 -12.148)" fill="#323232"/>
        <path id="パス_4773" data-name="パス 4773" d="M39.547,32.456a1.792,1.792,0,1,0-1.792-1.792,1.792,1.792,0,0,0,1.792,1.792" transform="translate(-15.885 -12.148)" fill="#323232"/>
        <path id="パス_4774" data-name="パス 4774" d="M52.831,32.456a1.792,1.792,0,1,0-1.792-1.792,1.792,1.792,0,0,0,1.792,1.792" transform="translate(-21.474 -12.148)" fill="#323232"/>
        <path id="パス_4775" data-name="パス 4775" d="M66.115,32.456a1.792,1.792,0,1,0-1.792-1.792,1.792,1.792,0,0,0,1.792,1.792" transform="translate(-27.063 -12.148)" fill="#323232"/>
      </g>
    </g>
  </g>
</svg>
