<svg id="イラスト" xmlns="http://www.w3.org/2000/svg" width="136.73" height="111.698" viewBox="0 0 136.73 111.698">
  <path id="パス_2477" data-name="パス 2477" d="M241.956,113.266v.253q-.022,2.2-.26,4.379a.15.15,0,0,1,0,.026c-.012.121-.026.241-.04.362-.024.2-.049.408-.077.612a44.024,44.024,0,0,1-1.6,7.344h0a39.6,39.6,0,0,1-4.187,9.22q-.824,1.322-1.754,2.558h0c-.331.437-.669.864-1.018,1.284q-.367.441-.748.868l-.159.175a41.276,41.276,0,0,1-4.312,4.1A67.681,67.681,0,0,1,219.857,150c-.156.1-.313.191-.47.278a.229.229,0,0,1-.035.021,83.724,83.724,0,0,1-11.56,5.908,52.433,52.433,0,0,1-13.463,3.65A66.252,66.252,0,0,1,175,158.9a125.609,125.609,0,0,1-15.719-3.756l-.849-.266q-.659-.21-1.317-.428-3.974-1.315-7.86-2.921a103.315,103.315,0,0,1-18.548-9.959q-1.113-.748-2.194-1.53-1.511-1.088-2.985-2.24l-.606-.47a62.358,62.358,0,0,1-7.209-6.62,36.758,36.758,0,0,1-7.234-11.129q-.4-.989-.729-2.016l-.021-.068c-.111-.348-.214-.7-.309-1.057q-.209-.776-.366-1.572c-.022-.1-.042-.2-.06-.306a26.321,26.321,0,0,1-.438-5.416,25.041,25.041,0,0,1,.556-4.73h0a21.336,21.336,0,0,1,1.576-4.67h0A16.832,16.832,0,0,1,113.1,96.03h0a14.222,14.222,0,0,1,2.272-2.123,18.555,18.555,0,0,1,4.918-2.526h0c.815-.292,1.642-.548,2.472-.786.588-.17,1.18-.331,1.768-.49l1.736-.469c1.113-.3,2.226-.615,3.322-.952a37.419,37.419,0,0,0,8.625-3.664c.428-.26.865-.545,1.3-.851q.835-.58,1.647-1.26h0c.548-.459,1.085-.95,1.6-1.47.079-.081.157-.161.235-.243.417-.44.822-.9,1.2-1.379.184-.234.362-.472.531-.714.235-.335.458-.676.664-1.027h0a10.51,10.51,0,0,0,1.594-5.724,8.808,8.808,0,0,0-.09-1c-.181-1.228-.355-2.427-.483-3.6-.537-4.851-.31-9.249,3.33-13.382,4.527-5.137,11.631-6.185,18.1-5.774,18.7,1.182,35.719,11.858,50.678,24.567q1.941,1.647,3.834,3.339.477.426.956.857c2.365,2.13,4.694,4.339,6.862,6.705.175.192.351.384.523.577.106.12.213.238.317.359q1.014,1.148,1.968,2.351a44.54,44.54,0,0,1,4.5,6.816,38.7,38.7,0,0,1,3.948,12.057h0a42.97,42.97,0,0,1,.477,4.614c.024.455.039.911.047,1.366v.437C241.957,112.848,241.957,113.054,241.956,113.266Z" transform="translate(-108.551 -48.512)" fill="#899ba6" opacity="0.1"/>
  <path id="パス_2478" data-name="パス 2478" d="M380.206,445.3l-2.226,39.617,2.226.029,1.808-40.2Z" transform="translate(-325.399 -382.875)" fill="#3f3d56"/>
  <rect id="長方形_307" data-name="長方形 307" width="27.544" height="5.982" transform="translate(19.055 82.493)" fill="#899ba6"/>
  <path id="パス_2479" data-name="パス 2479" d="M261.977,679.51v3.756H233.525q-1.511-1.088-2.985-2.24V679.51Z" transform="translate(-213.57 -591.732)" fill="#3f3d56"/>
  <path id="パス_2480" data-name="パス 2480" d="M219.346,518.725c-.078.36-.179.716-.287,1.071a13.962,13.962,0,0,0-.769,3.1c-.1,1.408.278,3.045-.7,4.068-.25.264-.577.462-.8.744a1.3,1.3,0,0,0-.095.139,2.156,2.156,0,0,0-.227,1.113,19.472,19.472,0,0,0,.157,2.414c.33,2.754.981,5.514.125,8.114a12.5,12.5,0,0,1-.541,1.323,10.342,10.342,0,0,0-1.009,2.818,17.753,17.753,0,0,0-.075,2.247q-.659-.21-1.317-.428-3.974-1.314-7.86-2.921c.007-.038.014-.077.019-.114a8.862,8.862,0,0,0-.4-3.711c-.7-2.558-1.68-5.091-2.263-7.668a19.405,19.405,0,0,1-.46-3.06c-.017-.231-.026-.463-.028-.7-.007-.3,0-.607.012-.913.029-.611.056-1.335-.433-1.707a3.737,3.737,0,0,0-.936-.359,5.308,5.308,0,0,1-1.5-1.217,1.96,1.96,0,0,0-1.751-.515c-3.127.716-5.425,3.369-8.335,4.71-.113.053-.225.1-.339.15a4.937,4.937,0,0,0-1.067.545,1.216,1.216,0,0,0-.479.675,2.524,2.524,0,0,0,.026.907,4.631,4.631,0,0,1-.063,1.479,4.51,4.51,0,0,1-.149.556c-.111.33-.26.652-.4.974q-1.113-.748-2.194-1.53-1.511-1.088-2.985-2.24l-.6-.48a62.368,62.368,0,0,1-7.209-6.62,25.221,25.221,0,0,0,.931-2.466c.117-.491.16-1,.321-1.479a5.317,5.317,0,0,1,.768-1.377,18.639,18.639,0,0,1,4.276-4.279,57.963,57.963,0,0,0,5.265-3.628,8.311,8.311,0,0,0,1.61-1.907,1.191,1.191,0,0,0,.074-.139,2.886,2.886,0,0,0,.249-.8c.111-.623.095-1.308.15-1.906a20.328,20.328,0,0,0,5.722.172c2.219-.249,4.389-.865,6.608-1.1.167-.019.335-.035.5-.049.711-.057,1.423-.07,2.137-.061.6,0,1.194.026,1.79.046l6.57.223a6.45,6.45,0,0,1,2.148.319,4.7,4.7,0,0,1,1.964,1.636c.065.089.131.178.192.27a8.485,8.485,0,0,1,1.013,2c.026.072.051.139.075.218.063.193.117.388.166.586.038.154.071.309.1.465a19.954,19.954,0,0,0,.486,2.3c.017.054.035.109.054.161.291.815.773,1.546,1.138,2.329a8.651,8.651,0,0,1,.6,1.771A8.751,8.751,0,0,1,219.346,518.725Z" transform="translate(-165.257 -439.495)" fill="#35323e"/>
  <path id="パス_2481" data-name="パス 2481" d="M243.105,258.768c-.587-.467-1.438-.125-2.126.177a13.635,13.635,0,0,1-1.775.641.75.75,0,0,1-.39.04c-.278-.067-.4-.4-.6-.6a1.341,1.341,0,0,0-1.415-.077,3.229,3.229,0,0,1-1.422.417c-.531-.042-.993-.434-1.53-.447-.946-.022-1.74,1.143-2.635.835-.545-.188-.974-.9-1.511-.7-.417.159-.455.736-.707,1.113a2.686,2.686,0,0,1-1.367.758,3.928,3.928,0,0,0-2.384,4.011,13.824,13.824,0,0,0,.85,2.632c.871,2.544.572,5.414,1.669,7.868.139-.131.217-.179.352-.309a3.219,3.219,0,0,0-.188,2.309c.115.385.3.744.445,1.121a10.051,10.051,0,0,1,.356,1.294l1.21,5.339a34.669,34.669,0,0,1,1.029,6.31,18.415,18.415,0,0,1-.317,4.145c2.192-.363,4.2-1.335,6.42-1.323a17.907,17.907,0,0,1,2.432.25,50.046,50.046,0,0,0,7.113.483,2.824,2.824,0,0,0,1.091-.153,8.178,8.178,0,0,0,.846-.531,3.741,3.741,0,0,1,1.9-.417c2.976-.054,5.843,1.035,8.8,1.419a10.593,10.593,0,0,0,.341-7.946,11.865,11.865,0,0,1-.729-2.3,11.637,11.637,0,0,1-.033-1.479,10.727,10.727,0,0,0-.672-3.7,3.8,3.8,0,0,1-.362-1.429,3.246,3.246,0,0,1,.5-1.391,9.654,9.654,0,0,1,4.111-4.488l2.146-1.441A21.176,21.176,0,0,0,263.1,265.7a9.8,9.8,0,0,0-3.551-4.271,11.74,11.74,0,0,0-1.678-.835,7.8,7.8,0,0,0-2.539-.7,13.455,13.455,0,0,0-2.977.378C249.24,260.8,245.576,260.734,243.105,258.768Z" transform="translate(-208.988 -229.322)" fill="#899ba6"/>
  <path id="パス_2482" data-name="パス 2482" d="M168.928,487.653l-1.021,1.29-1.925,2.43-2.226,2.809-.622.785h-1.206L132.062,495l-18.7.021h-.835c-.111-.348-.214-.7-.309-1.057q-.209-.776-.366-1.572c-.022-.1-.042-.2-.06-.306l6.786-4.436,2.551-.014h0l7.8-.044h0l4.358-.025h1.3l2.9-.015h0l22.138-.127h0l1.132-.007h.491l1.3-.007,4.84-.028.929-.353.068.072Z" transform="translate(-111.339 -426.028)" fill="#3f3d56"/>
  <path id="パス_2483" data-name="パス 2483" d="M165.723,449.518l-.115.139-.76.894-1.564,1.846-3.279,3.866-29.046-.741-21.9-.556c-.022-.1-.042-.2-.06-.306a26.323,26.323,0,0,1-.438-5.416L110.987,448l.556-.287,4.33-2.226,3.8-1.948,9.913,1.288,2.2.285.993.128,1.454.189.122.017,22.8,2.956,2.519.327,1.479.192,4.557.593Z" transform="translate(-108.551 -388.588)" fill="#504f60"/>
  <path id="パス_2484" data-name="パス 2484" d="M461.468,534.51l-.024.547-.139,3.087-.748,16.971-.159,3.668-.417,9.437-.235,5.331-.849-.266q-.659-.21-1.317-.428l2.035-37,.043-.776.9-.278Z" transform="translate(-409.027 -466.903)" fill="#3f3d56"/>
  <path id="パス_2485" data-name="パス 2485" d="M116.023,534.22l-.063,1.429-.092,2.087q-.4-.989-.729-2.016l-.021-.068c-.111-.348-.214-.7-.309-1.057Z" transform="translate(-113.939 -466.653)" fill="#3f3d56"/>
  <ellipse id="楕円形_366" data-name="楕円形 366" cx="6.399" cy="8.625" rx="6.399" ry="8.625" transform="translate(32.062 29.284)" fill="#a1616a"/>
  <ellipse id="楕円形_367" data-name="楕円形 367" cx="6.399" cy="8.625" rx="6.399" ry="8.625" transform="translate(32.062 29.284)" opacity="0.1"/>
  <circle id="楕円形_368" data-name="楕円形 368" cx="8.903" cy="8.903" r="8.903" transform="translate(30.462 23.789)" fill="#a1616a"/>
  <path id="パス_2486" data-name="パス 2486" d="M331.9,183.654a11.4,11.4,0,0,0-1.615.246,13.077,13.077,0,0,0-3.81,1.847,4.534,4.534,0,0,0-1.408,1.177c-.593.883-.363,2.007-.7,2.988a8.606,8.606,0,0,1-.758,1.424,16.959,16.959,0,0,0-1.505,4.1c-.078.289-.1.682.216.793a.869.869,0,0,0,.54-.061,3.166,3.166,0,0,1,3,.245c.74.669.677,1.856,1.558,2.365,1.009.588,2.583-.122,3.5.572.392.3.534.775.855,1.134.748.835,2.188.794,3.386.626.687-.1,1.53-.163,1.948.32.2.228.257.541.49.747a1.278,1.278,0,0,0,1.589-.2,10.688,10.688,0,0,0,.942-1.33c.661-.835,1.822-1.29,2.5-2.114a5.094,5.094,0,0,0,.9-2.407l.58-3.115a5.13,5.13,0,0,0-.262-3.756c-.253-.4-.616-.746-.835-1.16-.146-.278-.228-.572-.4-.835a3.466,3.466,0,0,0-.714-.721l-1.373-1.137a11.541,11.541,0,0,0-1.5-1.113C337.072,183.145,334.136,183.445,331.9,183.654Z" transform="translate(-292.355 -164.684)" fill="#464353"/>
  <path id="パス_2487" data-name="パス 2487" d="M122.247,339.431c-.33.351-.634.729-.988,1.057a11.957,11.957,0,0,1-.974.779q-.818.612-1.6,1.267A8.958,8.958,0,0,0,117.22,344c-.743,1-1.095,2.238-1.79,3.269-.615.914-1.482,1.636-2.106,2.543a3.934,3.934,0,0,0-.6,1.262,5.863,5.863,0,0,0-.124,1.334,9.908,9.908,0,0,0,.127,2.2,3.331,3.331,0,0,0,1.045,1.9,4.584,4.584,0,0,0,1.865.807,1.679,1.679,0,0,0,1.038.029,1.711,1.711,0,0,0,.6-.509l1.693-1.948a13.029,13.029,0,0,1,3.863-3.408c.487-.238,1-.417,1.488-.648a8.017,8.017,0,0,0,4.1-5.265c.139-.544.228-1.1.319-1.654l.245-1.522a.485.485,0,0,0,0-.232.5.5,0,0,0-.178-.211,29.506,29.506,0,0,1-3.3-3.116,7.627,7.627,0,0,0-.748-.857c-.351-.278-.324-.257-.746,0a8.943,8.943,0,0,0-1.764,1.465Z" transform="translate(-112.03 -297.528)" fill="#a1616a"/>
  <path id="パス_2488" data-name="パス 2488" d="M261.479,421.568a.262.262,0,1,0-.47.228l-.139.068,4.148,8.5.75-.366-4.148-8.508Z" transform="translate(-239.681 -369.537)" fill="#3f3d56"/>
  <path id="パス_2489" data-name="パス 2489" d="M122.247,339.431c-.33.351-.634.729-.988,1.057a11.957,11.957,0,0,1-.974.779q-.818.612-1.6,1.267A8.958,8.958,0,0,0,117.22,344c-.743,1-1.095,2.238-1.79,3.269-.615.914-1.482,1.636-2.106,2.543a3.934,3.934,0,0,0-.6,1.262,5.863,5.863,0,0,0-.124,1.334,9.908,9.908,0,0,0,.127,2.2,3.331,3.331,0,0,0,1.045,1.9,4.584,4.584,0,0,0,1.865.807,1.679,1.679,0,0,0,1.038.029,1.711,1.711,0,0,0,.6-.509l1.693-1.948a13.029,13.029,0,0,1,3.863-3.408c.487-.238,1-.417,1.488-.648a8.017,8.017,0,0,0,4.1-5.265c.139-.544.228-1.1.319-1.654l.245-1.522a.485.485,0,0,0,0-.232.5.5,0,0,0-.178-.211,29.506,29.506,0,0,1-3.3-3.116,7.627,7.627,0,0,0-.748-.857c-.351-.278-.324-.257-.746,0a8.943,8.943,0,0,0-1.764,1.465Z" transform="translate(-112.03 -297.528)" opacity="0.04"/>
  <path id="パス_2490" data-name="パス 2490" d="M462.8,383.99a6.5,6.5,0,0,1-.417,2.611,1.391,1.391,0,0,1-.773.811,1.8,1.8,0,0,1-.68.025,24.577,24.577,0,0,0-8.137.645c.709-1.419.3-3.12.5-4.695.054-.43.153-.853.191-1.284.139-1.53-.516-3.016-.817-4.527a10.129,10.129,0,0,1,0-3.962,2.643,2.643,0,0,1,.341-.953,2.237,2.237,0,0,1,.782-.68,6.562,6.562,0,0,1,3.721-.63c.853.057,2.562-.024,3.273.5.778.575,1.024,2.5,1.234,3.4a28.715,28.715,0,0,1,.64,4.155A44.643,44.643,0,0,1,462.8,383.99Z" transform="translate(-404.631 -326.417)" fill="#a1616a"/>
  <path id="パス_2491" data-name="パス 2491" d="M59.98,436.03l5.008,3.339,22.536-.835-14.885-2.5Z" transform="translate(-51.636 -375.377)" fill="#fff"/>
  <path id="パス_2492" data-name="パス 2492" d="M180.17,285.29c-.822.725-1.519,1.579-2.3,2.351a31.614,31.614,0,0,1-3.492,2.859,2.6,2.6,0,0,1,1.808,1.822c.053.2.079.417.139.618a3.375,3.375,0,0,0,.773,1.252c1.411,1.59,3.385,2.767,4.216,4.73a.437.437,0,0,0,.167.236.366.366,0,0,0,.216.025,2.949,2.949,0,0,0,1.808-1.276,13.334,13.334,0,0,0,2.365-4.162,7.419,7.419,0,0,0,.035-4.73,12.108,12.108,0,0,0-1.095-2.133l-1.079-1.8c-.188-.316-.427-.957-.8-1.113C182.142,283.63,180.68,284.779,180.17,285.29Z" transform="translate(-165.223 -251.164)" fill="#899ba6"/>
  <path id="パス_2493" data-name="パス 2493" d="M452.911,341.035l1.184,2.782a8.6,8.6,0,0,0-7.776,1.078,4.368,4.368,0,0,0-1.6,1.86.812.812,0,0,1-.805-.316,1.615,1.615,0,0,1-.3-.851,6.708,6.708,0,0,1,.7-3.115,4.485,4.485,0,0,1,.709-1.324,4.145,4.145,0,0,1,1.21-.867,26.945,26.945,0,0,1,4.389-1.939,1.314,1.314,0,0,1,1.669.4C452.706,339.452,452.585,340.276,452.911,341.035Z" transform="translate(-396.99 -297.918)" fill="#899ba6"/>
  <path id="パス_2494" data-name="パス 2494" d="M127.252,412.583c.3.236.556.516.861.741a6.144,6.144,0,0,0,1.024.575l1.372.659a7.686,7.686,0,0,0,1.329.54c.587.157,1.2.173,1.793.319.744.184,1.424.566,2.158.787a2.494,2.494,0,0,0,2.2-.2c.383-.288.672-.764,1.146-.835a1.517,1.517,0,0,1,.874.25l3.57,1.877a2.72,2.72,0,0,1,1.242,1.017.939.939,0,0,1-.448,1.341,4.892,4.892,0,0,1-.556.032.436.436,0,0,0-.409.316.635.635,0,0,0,.088.327,1.368,1.368,0,0,1,.021,1.163.832.832,0,0,1-1.01.417c.063.538-.523.915-1.045,1.059a9.448,9.448,0,0,1-4.056-.089,5.559,5.559,0,0,1-1.547-.417c-.231-.113-.445-.257-.679-.362a4.844,4.844,0,0,0-2.071-.235,47.992,47.992,0,0,1-9.646-1.142,4.665,4.665,0,0,1-1.7-.556,3.159,3.159,0,0,1-1.175-3.088,9.273,9.273,0,0,1,1.319-3.208l.744-1.312a1.689,1.689,0,0,1,.4-.529C124.143,411.19,126.314,411.829,127.252,412.583Z" transform="translate(-118.879 -361.118)" fill="#a1616a"/>
  <path id="パス_2495" data-name="パス 2495" d="M127.252,412.583c.3.236.556.516.861.741a6.144,6.144,0,0,0,1.024.575l1.372.659a7.686,7.686,0,0,0,1.329.54c.587.157,1.2.173,1.793.319.744.184,1.424.566,2.158.787a2.494,2.494,0,0,0,2.2-.2c.383-.288.672-.764,1.146-.835a1.517,1.517,0,0,1,.874.25l3.57,1.877a2.72,2.72,0,0,1,1.242,1.017.939.939,0,0,1-.448,1.341,4.892,4.892,0,0,1-.556.032.436.436,0,0,0-.409.316.635.635,0,0,0,.088.327,1.368,1.368,0,0,1,.021,1.163.832.832,0,0,1-1.01.417c.063.538-.523.915-1.045,1.059a9.448,9.448,0,0,1-4.056-.089,5.559,5.559,0,0,1-1.547-.417c-.231-.113-.445-.257-.679-.362a4.844,4.844,0,0,0-2.071-.235,47.992,47.992,0,0,1-9.646-1.142,4.665,4.665,0,0,1-1.7-.556,3.159,3.159,0,0,1-1.175-3.088,9.273,9.273,0,0,1,1.319-3.208l.744-1.312a1.689,1.689,0,0,1,.4-.529C124.143,411.19,126.314,411.829,127.252,412.583Z" transform="translate(-118.879 -361.118)" opacity="0.04"/>
  <path id="パス_2496" data-name="パス 2496" d="M299.953,432.786a22.614,22.614,0,0,1-2.313.639,13.7,13.7,0,0,0-2.094,1.121A18.725,18.725,0,0,1,289.6,436.3a17.341,17.341,0,0,1-3.756.392,24.15,24.15,0,0,1-4.963-1.063,9.492,9.492,0,0,0-5.019-.234,5.649,5.649,0,0,0-3.686,3.538,8.148,8.148,0,0,0-.323,3.133c.342.252.821-.1,1.007-.48s.288-.851.65-1.074c.627.213.78,1.049,1.3,1.462a2.344,2.344,0,0,0,1.164.385l2.114.3a1.729,1.729,0,0,0,1.469-.238c.179-.174.278-.417.442-.6a1.641,1.641,0,0,1,1.4-.387c1.564.156,3.03,1.17,4.582.929a8.688,8.688,0,0,0,1.54-.49c3.017-1.066,6.37-.417,9.51-1.028a21.223,21.223,0,0,0,3.49-1.078,7.058,7.058,0,0,0,1.774-.879,3.734,3.734,0,0,0,1.441-3.312,3.786,3.786,0,0,0-1.337-2.454,4.729,4.729,0,0,0-.86-.739C300.979,432.135,300.429,432.562,299.953,432.786Z" transform="translate(-249.116 -378.917)" fill="#a1616a"/>
  <g id="グループ_2261" data-name="グループ 2261" transform="translate(29.979 21.124)" opacity="0.1">
    <path id="パス_2497" data-name="パス 2497" d="M340.849,215.334c-.232-.206-.289-.519-.49-.747-.417-.483-1.26-.417-1.948-.32-1.2.168-2.643.207-3.386-.626-.321-.359-.463-.835-.856-1.134-.915-.7-2.49.017-3.5-.572-.881-.513-.824-1.7-1.558-2.365a3.188,3.188,0,0,0-3-.245.87.87,0,0,1-.54.061c-.316-.111-.294-.5-.216-.793a16.961,16.961,0,0,1,1.505-4.1,8.6,8.6,0,0,0,.758-1.425c.3-.882.147-1.879.544-2.714a3.746,3.746,0,0,0-1.1.974c-.593.883-.363,2.007-.7,2.988a8.607,8.607,0,0,1-.758,1.424,16.959,16.959,0,0,0-1.505,4.1c-.078.289-.1.682.216.793a.87.87,0,0,0,.54-.061,3.166,3.166,0,0,1,3,.245c.74.669.677,1.856,1.558,2.365,1.009.588,2.583-.122,3.5.572.392.3.534.775.855,1.134.748.835,2.188.794,3.386.626.687-.1,1.53-.163,1.948.32.2.228.257.541.49.747a1.278,1.278,0,0,0,1.589-.2,4.217,4.217,0,0,0,.665-.91A1.035,1.035,0,0,1,340.849,215.334Z" transform="translate(-324.055 -200.36)"/>
    <path id="パス_2498" data-name="パス 2498" d="M461.459,289.183a3.954,3.954,0,0,0-.249.36,7.542,7.542,0,0,0,1.5-1.223,2.944,2.944,0,0,0,.278-.4A7.3,7.3,0,0,0,461.459,289.183Z" transform="translate(-442.13 -275.74)"/>
  </g>
  <path id="パス_2499" data-name="パス 2499" d="M556.48,446.53l.417,39.925,1.948-.278-.417-39.646Z" transform="translate(-479.068 -384.416)" fill="#3f3d56"/>
  <path id="パス_2500" data-name="パス 2500" d="M640.48,498.53l.417,39.925,1.947-.278-.417-39.646Z" transform="translate(-551.383 -429.183)" fill="#3f3d56"/>
  <path id="パス_2501" data-name="パス 2501" d="M997.165,567.171h0l-.008-.767v-.456l-.074-7.022-.115-10.979-.02-.947H995l.01.913.061,5.88.026,2.546h0l.022,2.062.036,3.564.022,2.1h0v.223l.029,2.763.025,2.436.159-.175q.383-.427.748-.868Z" transform="translate(-871.686 -477.655)" fill="#3f3d56"/>
  <path id="パス_2502" data-name="パス 2502" d="M618.093,545.03l-1.113,1.664,1.113,7.58,9.459,2.589h15.3l9.181.555,4.374-2.994-.757-5.141-3.339-4.253Z" transform="translate(-531.152 -469.214)" fill="#899ba6"/>
  <path id="パス_2503" data-name="パス 2503" d="M721.37,605.48l-.556,4.621s-2.921,9.06,20.588,8.505,19.475-2.4,19.475-2.4l-.139-5.361s.819,2.537-11.129,2.194-23.092-1.454-23.092-1.454S722.344,612.32,721.37,605.48Z" transform="translate(-635.542 -528)" fill="#3f3d56"/>
  <path id="パス_2504" data-name="パス 2504" d="M831.49,303.9a6.722,6.722,0,0,0-3.037,3.1,20.036,20.036,0,0,0-1.44,4.173,37.168,37.168,0,0,0-1,4.557,13.8,13.8,0,0,0,1.169,8.091,9.119,9.119,0,0,0,6.316,4.926,11.623,11.623,0,0,0,3.2.038,26.015,26.015,0,0,0,5.649-1.245c1.913-.647,3.9-1.643,4.755-3.478a7.776,7.776,0,0,0,.512-3.449,36.691,36.691,0,0,0-1.434-9.43,8.029,8.029,0,0,0-1.1-2.537,7.775,7.775,0,0,0-2.052-1.808C839.768,304.648,835.492,302.078,831.49,303.9Z" transform="translate(-726.076 -267.84)" fill="#fbbebe"/>
  <path id="パス_2505" data-name="パス 2505" d="M831.49,303.9a6.722,6.722,0,0,0-3.037,3.1,20.036,20.036,0,0,0-1.44,4.173,37.168,37.168,0,0,0-1,4.557,13.8,13.8,0,0,0,1.169,8.091,9.119,9.119,0,0,0,6.316,4.926,11.623,11.623,0,0,0,3.2.038,26.015,26.015,0,0,0,5.649-1.245c1.913-.647,3.9-1.643,4.755-3.478a7.776,7.776,0,0,0,.512-3.449,36.691,36.691,0,0,0-1.434-9.43,8.029,8.029,0,0,0-1.1-2.537,7.775,7.775,0,0,0-2.052-1.808C839.768,304.648,835.492,302.078,831.49,303.9Z" transform="translate(-726.076 -267.84)" opacity="0.05"/>
  <path id="パス_2506" data-name="パス 2506" d="M779.707,359.447a6.317,6.317,0,0,0,1.391,1.391,8.489,8.489,0,0,0,4.632,1.089c1.291.039,2.771-.035,3.581-1.042a4.17,4.17,0,0,0,.676-1.6,70.78,70.78,0,0,0,1.934-10.54l3.684.013c1.594,6.826,1.463,13.922,1.324,20.932l-.2,10.222-2.373-.252c-5.635-.6-11.279-1.194-16.945-1.3a96.946,96.946,0,0,0-9.949.328l5.168-15.366a25.431,25.431,0,0,0,1.505-6.121c.227-3.045-.627-6.26.556-9.077a1.1,1.1,0,0,1,.43-.58,1.221,1.221,0,0,1,.736-.057c.467.063,1.9,0,2.235.3.5.434.17.5-.007,1.2a14.632,14.632,0,0,0-.611,3.716A10.974,10.974,0,0,0,779.707,359.447Z" transform="translate(-675.799 -305.879)" fill="#899ba6"/>
  <path id="パス_2507" data-name="パス 2507" d="M953.955,360.349h0q.931-1.235,1.754-2.558c-.278-.6-.584-1.177-.828-1.785a17.934,17.934,0,0,1-.8-2.9q-.109-.5-.216-1a65.8,65.8,0,0,1-1.662-11q-.021-.459-.026-.918v-1.143c.017-.835.07-1.676.166-2.514.018-.164.039-.328.061-.492a.706.706,0,0,1,.014-.107l9.459-.345h0l.8-.029a2.915,2.915,0,0,0,1.576-.36,2.869,2.869,0,0,0,.835-2.5,37.177,37.177,0,0,0-.785-6.893,10.27,10.27,0,0,0-2.02-4.759c-.943-1.077-2.309-1.86-2.8-3.2a14.455,14.455,0,0,0-.465-1.52,4.736,4.736,0,0,0-1-1.192,16.6,16.6,0,0,1-3.186-4.413,13.939,13.939,0,0,0-1.91-3.172c-.036-.04-.072-.078-.11-.114a1.772,1.772,0,0,0-2.191-.469,2.8,2.8,0,0,0-.434.27h0a5.289,5.289,0,0,0-.825.785,18.782,18.782,0,0,0-2.244,3.2,17.784,17.784,0,0,0-1.146,2.5,17.3,17.3,0,0,0-.619,2.087c-.12.524-.214,1.055-.289,1.586a38.6,38.6,0,0,0-.239,6.057c.042,1.859.124,3.721.292,5.573q.063.672.139,1.342.153,1.326.378,2.643c.06.335.121.671.189,1,.017.089.035.178.053.266l.008.038a22.616,22.616,0,0,1,.427,2.352q.017.149.025.3a11.438,11.438,0,0,1-.011,1.365c-.032.537-.082,1.073-.107,1.61a2.594,2.594,0,0,1-.01.278c-.007.271,0,.543,0,.814a12.9,12.9,0,0,0,.231,1.932,12.5,12.5,0,0,0,1.2,3.4c.053.1.107.2.161.3.705,1.26,1.6,2.416,2.248,3.706a16,16,0,0,1,1.252,3.646q.139.625.264,1.252c.129.668.245,1.341.363,2.014.011.067.024.139.036.2.157.893.323,1.782.536,2.654.124.508.263,1.009.426,1.5Z" transform="translate(-828.477 -270.834)" fill="#464353"/>
  <path id="パス_2508" data-name="パス 2508" d="M837.589,571.183c0,.125-.008.25-.014.377a17.858,17.858,0,0,1-.168,1.824,11.863,11.863,0,0,1-.6,2.419,8.15,8.15,0,0,1-.718,1.476,6.8,6.8,0,0,1-.893,1.151,7.133,7.133,0,0,1-3.2,1.511,7.88,7.88,0,0,0-1.543.63c-.088.049-.174.1-.257.157l-1.455.964a4.352,4.352,0,0,0-1.228,1.053,2.266,2.266,0,0,0-.139.235,5.328,5.328,0,0,0-.428,1.285c-.757,3.152-1.515,6.307-2.034,9.507-.035.211-.068.424-.1.637l-.013.067a.371.371,0,0,0-.022-.046,83.719,83.719,0,0,1-11.56,5.908l-.864-7.234a8.755,8.755,0,0,1-.089-1.778c.082-.936.463-1.824.566-2.757a4.7,4.7,0,0,0-.5-2.653,2.9,2.9,0,0,1-.408-.983.612.612,0,0,1,.523-.715,1.285,1.285,0,0,0,.218-1.148,3.33,3.33,0,0,0-.195-.636,2.672,2.672,0,0,1-.332-1.808.677.677,0,0,0,.07-.348.06.06,0,0,0,0-.022c-.047-.156-.232-.224-.328-.356-.181-.246,0-.581.111-.865a3.3,3.3,0,0,0,.186-.947c.015-.18.026-.36.046-.538a5.426,5.426,0,0,1,.129-.715,5.643,5.643,0,0,1,2.286-3.272c.541-.365,1.144-.63,1.7-.974a15.55,15.55,0,0,0,1.616-1.252q1.838-1.53,3.821-2.885a48.258,48.258,0,0,1,4.413-2.679q.487-.263.974-.512.53-.278,1.067-.527a5.219,5.219,0,0,1,3.714.022c.531.152,1.056.333,1.562.5a7.234,7.234,0,0,1,1.419.637,5.232,5.232,0,0,1,2.436,2.863.139.139,0,0,1,0,.024A7.285,7.285,0,0,1,837.589,571.183Z" transform="translate(-713.97 -492.632)" fill="#f86d70"/>
  <path id="パス_2509" data-name="パス 2509" d="M837.589,571.183c0,.125-.008.25-.014.377a17.858,17.858,0,0,1-.168,1.824,11.863,11.863,0,0,1-.6,2.419,8.15,8.15,0,0,1-.718,1.476,6.8,6.8,0,0,1-.893,1.151,7.133,7.133,0,0,1-3.2,1.511,7.88,7.88,0,0,0-1.543.63c-.088.049-.174.1-.257.157l-1.455.964a4.352,4.352,0,0,0-1.228,1.053,2.266,2.266,0,0,0-.139.235,5.328,5.328,0,0,0-.428,1.285c-.757,3.152-1.515,6.307-2.034,9.507-.035.211-.068.424-.1.637l-.013.067a.371.371,0,0,0-.022-.046,83.719,83.719,0,0,1-11.56,5.908l-.864-7.234a8.755,8.755,0,0,1-.089-1.778c.082-.936.463-1.824.566-2.757a4.7,4.7,0,0,0-.5-2.653,2.9,2.9,0,0,1-.408-.983.612.612,0,0,1,.523-.715,1.285,1.285,0,0,0,.218-1.148,3.33,3.33,0,0,0-.195-.636,2.672,2.672,0,0,1-.332-1.808.677.677,0,0,0,.07-.348.06.06,0,0,0,0-.022c-.047-.156-.232-.224-.328-.356-.181-.246,0-.581.111-.865a3.3,3.3,0,0,0,.186-.947c.015-.18.026-.36.046-.538a5.426,5.426,0,0,1,.129-.715,5.643,5.643,0,0,1,2.286-3.272c.541-.365,1.144-.63,1.7-.974a15.55,15.55,0,0,0,1.616-1.252q1.838-1.53,3.821-2.885a48.258,48.258,0,0,1,4.413-2.679q.487-.263.974-.512.53-.278,1.067-.527a5.219,5.219,0,0,1,3.714.022c.531.152,1.056.333,1.562.5a7.234,7.234,0,0,1,1.419.637,5.232,5.232,0,0,1,2.436,2.863.139.139,0,0,1,0,.024A7.285,7.285,0,0,1,837.589,571.183Z" transform="translate(-713.97 -492.632)" opacity="0.1"/>
  <path id="パス_2510" data-name="パス 2510" d="M898.479,446.568a.262.262,0,1,0-.47.228l-.139.068,4.148,8.5.75-.366-4.148-8.508Z" transform="translate(-788.068 -391.059)" fill="#3f3d56"/>
  <circle id="楕円形_369" data-name="楕円形 369" cx="8.903" cy="8.903" r="8.903" transform="translate(106.694 28.797)" fill="#fbbebe"/>
  <path id="パス_2511" data-name="パス 2511" d="M897.466,179.237a11.825,11.825,0,0,0-.314-2.1,12.327,12.327,0,0,0-3.124-6.079,12.182,12.182,0,0,0-.363-1.167.2.2,0,0,0-.01-.028,13.064,13.064,0,0,0-2.1-3.724,2.944,2.944,0,0,0-2.03-1.313,1.645,1.645,0,0,1-.7-.075,1.253,1.253,0,0,1-.388-.4,3.643,3.643,0,0,0-3.528-1.32l-.086.018c-.049.01-.1.021-.139.033l-.175.051q.1.159.188.321.248.441.459.9.175.384.324.78a6.967,6.967,0,0,0-3.645,2.137l-2.5,2.265-.013.013-.072.07c-.018.018-.036.036-.053.056a.121.121,0,0,0-.018.019c-.021.022-.04.046-.06.07a1.047,1.047,0,0,0-.093.139.507.507,0,0,0-.036.065.144.144,0,0,0-.01.021.494.494,0,0,0-.024.058.019.019,0,0,0,0,.008.342.342,0,0,0-.01.035.417.417,0,0,0,.024.295l1.646.018h.193c.008.22.015.441.024.661a9.356,9.356,0,0,0-.751.626,8.145,8.145,0,0,0-.733.773,10.676,10.676,0,0,0-2.337,6.441v.851c0,.139.013.278.024.417a1.04,1.04,0,0,0,.139.516.481.481,0,0,0,.039.05.96.96,0,0,0,.295.217l.12.058h0c.06.029.117.057.173.089.524.3.835.868,1.312,1.235.028.021.056.042.083.06l.063.042.039.025.053.031a1.139,1.139,0,0,0,.107.057h0l.067.033h.011c.056.025.111.049.168.07l.079.028.024.008c.022.007.046.015.07.021q.071.021.139.038l.139.031c.054.01.11.019.166.026l.082.011.084.008q.2.018.4.021h0a10.019,10.019,0,0,0,1.262-.088l3.55-.417a7.65,7.65,0,0,1,2.422-.022,15.954,15.954,0,0,1,1.947.686c.148.051.3.1.444.139.054.015.11.032.166.046l.076.019.178.043c.064.015.128.031.192.043.09.019.179.036.27.053.061.013.124.022.186.033h.013l.178.028h.043l.132.018c.064.01.128.018.193.025q.213.026.426.046c.229.022.46.039.7.053l.231.014.231.011.7.031h.128a3.588,3.588,0,0,0,.865-.045c.05-.01.1-.021.147-.035s.089-.028.139-.045a2.382,2.382,0,0,0,1.167-1.153c.056-.1.107-.209.154-.316s.09-.216.129-.324c.049-.139.09-.271.127-.41.011-.038.021-.075.029-.114s.028-.115.039-.174c.035-.16.061-.321.081-.484a1.456,1.456,0,0,1,.018-.156c.013-.139.022-.268.028-.4v-.312C897.476,179.529,897.466,179.381,897.466,179.237Zm-3.567-8.3c-.113-.106-.228-.207-.345-.3a1.438,1.438,0,0,1,.344.3Z" transform="translate(-770.118 -147.049)" fill="#464353"/>
  <path id="パス_2512" data-name="パス 2512" d="M718.256,305.109a9.442,9.442,0,0,0-3.12-.363,4.325,4.325,0,0,0-1.721.954,20.927,20.927,0,0,0-4.837,5.53,2.923,2.923,0,0,0-.446,1.046,2.773,2.773,0,0,0,.192,1.291c.952,2.811,2.987,5.16,3.913,7.979a17.167,17.167,0,0,1-.082,9.245,38.638,38.638,0,0,1-4.29,10.67,6.088,6.088,0,0,1-.988,1.352c-.506.487-1.187.835-1.487,1.472a6.6,6.6,0,0,0-.278.893c-.278.835-.952,1.55-1.017,2.43a5.542,5.542,0,0,0,.463,1.948,5.367,5.367,0,0,1-.1,3.353c-.705,1.934-2.55,3.692-2.014,5.68,1.2-.344,2.519-.79,3.083-1.9a3.382,3.382,0,0,1,.633-1.146c.669-.569,1.808-.054,2.519-.577a1.593,1.593,0,0,0,.317-1.839c-.239-.626-.651-1.177-.835-1.821-.32-1.162.192-2.39.1-3.59-.045-.556-.216-1.089-.228-1.643a3.858,3.858,0,0,1,1.363-2.817,11.331,11.331,0,0,1,2.732-1.692l3.639-1.808c1.32-.654,2.767-1.451,3.2-2.859a5.79,5.79,0,0,0,.174-1.64c.124-8.418,2.233-16.665,4.329-24.819a30.749,30.749,0,0,1,1.141-3.745c.484-1.213,1.431-2.187,1.914-3.314C723.723,303.052,721.165,305.474,718.256,305.109Z" transform="translate(-619.746 -267.899)" fill="#464353"/>
  <path id="パス_2513" data-name="パス 2513" d="M778.366,565.051c.321,1.948.517,3.937.67,5.916a67.677,67.677,0,0,1-7.939,5.556c-.156.1-.313.191-.47.278l-.013.067a.342.342,0,0,0-.022-.046,2.094,2.094,0,0,0-1.046-1.032q-1.54-3.234-3.077-6.469a16.987,16.987,0,0,1-1.391-3.6.558.558,0,0,0-.017-.081c-.211-.974-.26-1.985-.4-2.971a8.581,8.581,0,0,0-.38-1.661c-.167-.48-.4-.946-.6-1.415a4.711,4.711,0,0,1-.47-1.789,1.17,1.17,0,0,0-.085-.584,1.516,1.516,0,0,0-.38-.367,1.448,1.448,0,0,1-.467-1.323c-.835.043-1.3.94-1.64,1.7a9.274,9.274,0,0,1-1.191,2.087,3.957,3.957,0,0,1-1.319,1.1c-.046.022-.092.045-.139.064a6.524,6.524,0,0,1-3.777.1,7.08,7.08,0,0,1-3.123-1.137l-.095-.075a4.086,4.086,0,0,1-.7-.743,8.083,8.083,0,0,1-1.252-3.617c-.017-.12-.033-.239-.049-.359a13.377,13.377,0,0,1-.1-2.71c.017-.223.04-.445.07-.666.019-.139.04-.289.064-.434a.039.039,0,0,1,0-.013c.036-.23.075-.46.114-.7a6.394,6.394,0,0,1,.7-2.277,4.315,4.315,0,0,1,1.024-1.1c.15-.118.3-.231.461-.339.253-.175.513-.342.778-.5a13.447,13.447,0,0,1,2.087-1.016c.172-.067.348-.129.523-.189a4.1,4.1,0,0,1,2.126-.168,11.182,11.182,0,0,0,1.9.111,47.961,47.961,0,0,0,4.9-.545c2.262-.278,4.692-.312,6.665.835.095.054.186.111.278.171a8.243,8.243,0,0,1,2.391,2.528c.139.21.26.426.38.644a16.372,16.372,0,0,1,.747,1.544,1.919,1.919,0,0,1,.207.835,1.08,1.08,0,0,1-.022.164c-.038.2-.113.389-.139.59-.088.758.556,1.391.8,2.113a10.367,10.367,0,0,1,.227,1.469,7.643,7.643,0,0,0,.773,1.948,24.348,24.348,0,0,1,1.238,3.112c.242.741.449,1.494.632,2.254q.089.366.168.733C778.132,563.728,778.256,564.388,778.366,565.051Z" transform="translate(-659.795 -475.033)" fill="#f86d70"/>
  <path id="パス_2514" data-name="パス 2514" d="M610.319,451.681v.974l-.18,0-.2,0-2.237-.028-5.512-.072-1.547-.02-.4-.006-2.322-.029-3.272-.043-6.942-.09-12.046-.156-4.347-.056-1.744-.022-1.605-.021-1-.014-.947-.013-7.024-.09-1.948-.025-.424-.006-.275-.711-2-5.162-.366-.943.278-1.113,1.252.835.771.1,12.688,1.578,2.382.3,5.05.629,4.947.615,1.939.241,11.475,1.427,3.206.4,2.654.33,9.437,1.174Z" transform="translate(-476.916 -382.264)" fill="#3f3d56"/>
  <path id="パス_2515" data-name="パス 2515" d="M555.98,444.03l2.5,6.538,53.557,1.113v-7.095Z" transform="translate(-478.638 -382.264)" fill="#504f60"/>
  <path id="パス_2516" data-name="パス 2516" d="M575.98,496.03l.417,39.925,1.948-.278-.417-39.646Z" transform="translate(-495.856 -427.031)" fill="#3f3d56"/>
  <path id="パス_2517" data-name="パス 2517" d="M1050.994,550.642h-.2a44.036,44.036,0,0,1-1.6,7.344l-.633-7.373-.026-.314,2.34-.27.078-.008Z" transform="translate(-917.77 -480.255)" fill="#3f3d56"/>
  <path id="パス_2518" data-name="パス 2518" d="M737.689,455.673l-20.38.417L710.98,454l16.971-.974Z" transform="translate(-612.076 -390.012)" fill="#fff"/>
  <path id="パス_2519" data-name="パス 2519" d="M820.71,456.95a1.365,1.365,0,0,0-.557.4,1.468,1.468,0,0,0-.207.632l-.342,2.041a.9.9,0,0,0,.026.566c.089.171.348.26.477.118a1.833,1.833,0,0,0,.25,1.15.8.8,0,0,0,1.047.27.679.679,0,0,0,1.022.159c-.2.067-.211.369-.071.522a.908.908,0,0,0,.568.227,13.883,13.883,0,0,0,7.22-.908c.216-.089-.352-2.747-.409-3.02a3.042,3.042,0,0,0-.75-1.856c-1.294-1.032-3.592-1.235-5.168-1.113A8.9,8.9,0,0,0,820.71,456.95Z" transform="translate(-720.661 -399.402)" fill="#fbbebe"/>
  <path id="パス_2520" data-name="パス 2520" d="M883.611,452.042c-5.032.1-10.168.178-14.97-1.329a10.156,10.156,0,0,1-.092,5.407l23.526,1.948c1,.082,5.133.549,6.105.314s-8.159-3.243-7.79-4.173c1.014-2.564,4.411-4.066,1.964-4.162C889.268,449.925,886.723,451.984,883.611,452.042Z" transform="translate(-762.827 -394.185)" opacity="0.1"/>
  <path id="パス_2521" data-name="パス 2521" d="M884.611,454.042c-5.032.1-10.168.178-14.97-1.329a10.155,10.155,0,0,1-.092,5.407l23.526,1.948c1,.082,5.133.556,6.106.314s.744-1.434,1.113-2.365c1.014-2.564-4.492-5.875-6.939-5.971C890.268,451.925,887.723,453.984,884.611,454.042Z" transform="translate(-763.688 -395.907)" fill="#464353"/>
  <path id="パス_2522" data-name="パス 2522" d="M861.631,463.95a1.362,1.362,0,0,1,.556.4,1.489,1.489,0,0,1,.209.632l.342,2.041a.912.912,0,0,1-.026.566c-.089.171-.349.26-.477.118a1.842,1.842,0,0,1-.25,1.15.8.8,0,0,1-1.049.27.679.679,0,0,1-1.022.159c.2.067.213.369.072.522a.912.912,0,0,1-.569.227,13.876,13.876,0,0,1-7.218-.908c-.216-.089.351-2.747.409-3.02a3.042,3.042,0,0,1,.75-1.856c1.292-1.032,3.592-1.235,5.168-1.113A8.9,8.9,0,0,1,861.631,463.95Z" transform="translate(-748.708 -405.428)" fill="#fbbebe"/>
  <path id="パス_2523" data-name="パス 2523" d="M670.9,368.681a8.909,8.909,0,0,0-1.223,1.9,9.223,9.223,0,0,0-.391,4.262,2.486,2.486,0,0,0,.278,1.189,2.008,2.008,0,0,0,.726.619,10.278,10.278,0,0,0,3.992,1.042q3.163.351,6.349.427c5.261.128,10.6-.3,15.728.89a3.94,3.94,0,0,1-.278-3.339,11.368,11.368,0,0,1,1.707-3c-2.345-.743-4.86.417-7.317.3-2.522-.118-4.856-1.576-7.381-1.575a6.718,6.718,0,0,1-1.622-.063,1.351,1.351,0,0,1-1.086-1.07,1.556,1.556,0,0,0,1.59-1.056c.278-.632.328-1.345.6-1.981.672-1.582,2.487-2.315,3.617-3.617a.886.886,0,0,0,.063-1.344c-.939-1.252-2.354-1.948-3.529-2.921-.409-.339-1.234-1.619-1.693-1.737-.851-.218-1.573,1.011-2.127,1.611Q674.711,363.778,670.9,368.681Z" transform="translate(-591.227 -314.59)" fill="#464353"/>
  <path id="パス_2524" data-name="パス 2524" d="M882.39,434.81a4.6,4.6,0,0,1,.931.922,1.589,1.589,0,0,1,.291,1.244,1.858,1.858,0,0,1,1.159-1.924Z" transform="translate(-774.742 -381.072)" opacity="0.07"/>
  <g id="グループ_2262" data-name="グループ 2262" transform="translate(106.882 15.985)" opacity="0.1">
    <path id="パス_2525" data-name="パス 2525" d="M931.841,164.693a12.053,12.053,0,0,0-.565-1.273,3.42,3.42,0,0,0-.406.1,11.748,11.748,0,0,1,.644,1.228A2.339,2.339,0,0,1,931.841,164.693Z" transform="translate(-923.359 -163.42)"/>
    <path id="パス_2526" data-name="パス 2526" d="M995.87,212c.037.031.074.065.11.1a.185.185,0,0,0-.01-.026Z" transform="translate(-979.317 -205.242)"/>
    <path id="パス_2527" data-name="パス 2527" d="M892.474,211.149c.072-.057.139-.117.217-.173l-.022-.661-1.486-.015c-.241.221-.5.538-.355.835Z" transform="translate(-888.852 -203.779)"/>
    <path id="パス_2528" data-name="パス 2528" d="M896.741,280.158a2.376,2.376,0,0,1-1.167,1.153,3.165,3.165,0,0,1-1.274.12,14.894,14.894,0,0,1-4.343-.611,15.333,15.333,0,0,0-1.948-.687,7.611,7.611,0,0,0-2.422.024l-3.55.417a4.164,4.164,0,0,1-3.051-.428c-.479-.367-.787-.939-1.312-1.234a1.667,1.667,0,0,1-.627-.417,1.043,1.043,0,0,1-.139-.516c-.011-.146-.018-.292-.024-.438a11.777,11.777,0,0,0,.024,1.273,1.043,1.043,0,0,0,.139.516,1.666,1.666,0,0,0,.627.417c.524.295.835.867,1.312,1.234a4.136,4.136,0,0,0,3.051.428l3.55-.417a7.609,7.609,0,0,1,2.422-.024,15.743,15.743,0,0,1,1.948.687,14.736,14.736,0,0,0,4.343.611,3.189,3.189,0,0,0,1.274-.12,2.376,2.376,0,0,0,1.167-1.153,5.905,5.905,0,0,0,.6-3.123A5.432,5.432,0,0,1,896.741,280.158Z" transform="translate(-876.877 -261.665)"/>
  </g>
  <path id="パス_2529" data-name="パス 2529" d="M937.56,179l1.948,1.808S937.838,180.113,937.56,179Z" transform="translate(-822.237 -160.848)" opacity="0.1"/>
</svg>
