<svg id="グループ_4436" data-name="グループ 4436" xmlns="http://www.w3.org/2000/svg" xmlns:xlink="http://www.w3.org/1999/xlink" width="128.781" height="128.314" viewBox="0 0 128.781 128.314">
  <defs>
    <clipPath id="clip-path">
      <rect id="長方形_556" data-name="長方形 556" width="128.781" height="128.314" fill="none"/>
    </clipPath>
  </defs>
  <g id="グループ_4435" data-name="グループ 4435" clip-path="url(#clip-path)">
    <path id="パス_4452" data-name="パス 4452" d="M392.389,220.02l.026-.017c.106-.074.048-.036-.021.013l0,0" transform="translate(-337.168 -189.006)" fill="#fff050"/>
    <path id="パス_4453" data-name="パス 4453" d="M337.288,27.975a20.059,20.059,0,0,0-1.33-2.556q-.359-.581-.758-1.137-.118-.165-.24-.327l-.075-.1-.05-.065-.083-.1q-.1-.13-.21-.258A18.947,18.947,0,0,0,332.7,21.5c-.329-.3-.675-.575-1.018-.857.33.272,0,0-.088-.063s-.161-.118-.242-.175q-.27-.192-.547-.373a14.9,14.9,0,0,0-2.185-1.174,12.771,12.771,0,0,0-2.849-.786,12.579,12.579,0,0,0-6.332.859,10.982,10.982,0,0,0-1.042.523q-.291.167-.571.354-.138.092-.273.19l-.065.048a8.863,8.863,0,0,0-.9.834q-.108.119-.211.242l-.047.058c-.118.166-.234.334-.339.509l0,.007c-.015.025-.032.049-.049.073l-.028.04c-.014.018-.028.034-.042.051s-.025.03-.039.045a1.3,1.3,0,0,1-.291.239,1.137,1.137,0,0,1-.531.156,1.321,1.321,0,0,1-.254,0l.043.006a6.161,6.161,0,0,0-1.426-.019,6.621,6.621,0,0,0-1.324.367,8.309,8.309,0,0,0-1.521.9l-.023.017-.126.1q-.16.133-.315.271-.344.308-.662.643t-.6.681q-.077.094-.153.189l-.024.031-.076.1q-.073.1-.145.2a16.647,16.647,0,0,0-1.734,3.076,14.512,14.512,0,0,0-.946,3.308,16.721,16.721,0,0,0-.106,1.889,51.321,51.321,0,0,0,.408,5.708,1.074,1.074,0,0,1,.56.028l.592.2.19.065c.319-.45.659-.884,1.014-1.3,1.3-1.545,2.837-2.871,4.276-4.285a22.966,22.966,0,0,0,1.95-2.125l.069-.092q.1-.13.189-.262.2-.291.39-.593a9.55,9.55,0,0,0,.556-1.051,8.116,8.116,0,0,0,.494-1.8,8.888,8.888,0,0,0-.013-1.89c-.026-.172-.053-.343-.086-.513A1.271,1.271,0,0,1,318.6,25.3c.073-.018.146-.037.22-.054a13.849,13.849,0,0,1,6.7.078,14.67,14.67,0,0,1,5.4,2.865,18.27,18.27,0,0,1,3.751,4.275,18.651,18.651,0,0,1,2.184,4.687,13.759,13.759,0,0,1,.474,2.315,6.8,6.8,0,0,1,.014,1.722,2.294,2.294,0,0,1-.087.407l.036,0a1.1,1.1,0,0,1,.61.153,23.3,23.3,0,0,0,.72-3.285,22.258,22.258,0,0,0,.008-5.563,20.812,20.812,0,0,0-1.341-4.922" transform="translate(-262.607 -15.455)" fill="#828282"/>
    <path id="パス_4454" data-name="パス 4454" d="M478.534,360.742l.015-.011.092-.07-.092.068-.015.013" transform="translate(-411.19 -309.905)" fill="#fff050"/>
    <path id="パス_4455" data-name="パス 4455" d="M477.733,361.259l.027-.022-.06.044c-.137.1-.03.028.033-.022" transform="translate(-410.416 -310.4)" fill="#fff050"/>
    <path id="パス_4456" data-name="パス 4456" d="M290.793,211.509c-.047-.328-.1-.657-.144-.985-.055,0-.11.009-.165.014a3.727,3.727,0,0,0-.562.15,3.437,3.437,0,0,0-.5.287c-.024.02-.048.04-.072.061q-.126.113-.242.238c-.04.043-.1.113-.137.166s-.081.112-.117.17a4.558,4.558,0,0,0-.273.512,5.688,5.688,0,0,0-.3,1.1,6.629,6.629,0,0,0,0,1.409,6.451,6.451,0,0,0,.349,1.294,5.61,5.61,0,0,0,.364.682c.036.057.075.113.113.169.011.009.181.23.249.3q.151.162.317.309c.04.035.081.069.122.1a4.413,4.413,0,0,0,.664.386,4.787,4.787,0,0,0,.872.239c.1.01.191.019.287.024-.146-1.559-.349-3.113-.556-4.663q-.132-.982-.272-1.963" transform="translate(-247.681 -180.897)" fill="#fff"/>
    <path id="パス_4457" data-name="パス 4457" d="M334.153,456.849a33.547,33.547,0,0,1-9.927-2.258c.159,1.694.279,3.391.384,5.089.147,2.389.262,4.78.362,7.171q.168,4.026.283,8.055.127,4.269.217,8.54.091,4.24.157,8.48.063,4.012.109,8.025.04,3.515.068,7.031.022,2.814.037,5.628.01,1.853.016,3.707,0,.674,0,1.348c0,.037,0,.074-.005.11h24.261c0-.037-.005-.073,0-.11s0-.057,0-.085c-.005-.655.015-1.31.023-1.965q.025-2.12.051-4.239.037-3,.075-6.008.047-3.68.1-7.361.056-4.09.117-8.179.064-4.3.134-8.6.069-4.239.147-8.478.073-3.981.158-7.961.075-3.453.165-6.905.044-1.622.1-3.243a25.211,25.211,0,0,1-4.988,1.574,40.9,40.9,0,0,1-12.037.637" transform="translate(-278.598 -390.617)" fill="#fff"/>
    <path id="パス_4458" data-name="パス 4458" d="M553.856,494.568c0-6.124-.035-12.249-.146-18.372-.052-2.886-.072-5.774-.15-8.66-.04-1.48-.109-2.96-.246-4.434q-.055-.591-.125-1.18-.018-.147-.036-.294a.9.9,0,0,1,0-.118c0,.018,0,.038,0,.064a2.436,2.436,0,0,0-.07-.487c-.112-.741-.247-1.479-.412-2.21s-.354-1.437-.58-2.142q-.161-.5-.346-.993c-.067-.178-.138-.354-.209-.531l-.011-.027-.009-.021-.076-.174a17.048,17.048,0,0,0-1.007-1.929q-.3-.486-.627-.951c-.069-.1-.14-.191-.211-.287-.027-.035-.091-.119-.109-.142q-.09-.112-.183-.223a15.827,15.827,0,0,0-1.564-1.606q-.464-.418-.95-.81l-.253-.2-.042-.033-.043-.032c-.144-.107-.287-.215-.432-.32a30.542,30.542,0,0,0-4.223-2.542c-.726-.365-1.463-.708-2.208-1.033l-.351-.152-.182-.077-.425-.176q-.561-.23-1.126-.45c-1.605-.626-3.23-1.2-4.852-1.782-1.8-.641-3.595-1.292-5.37-1.994q-.02.519-.038,1.038-.1,2.911-.169,5.823-.092,3.615-.165,7.229-.084,4.052-.155,8.1-.077,4.29-.144,8.58-.068,4.256-.13,8.512-.059,4.025-.113,8.051-.048,3.524-.092,7.049-.036,2.82-.07,5.641-.023,1.857-.044,3.714-.008.675-.015,1.35c0,.037,0,.074-.007.11h16.824c0-.036-.007-.073-.008-.11,0-.069,0-.138,0-.207-.012-1.077-.019-2.154-.028-3.231q-.023-2.821-.045-5.642-.024-3.048-.048-6.1-.018-2.292-.036-4.585a7.745,7.745,0,0,1,.063-1.756l.636-2.816,1.19-5.265,1.343-5.945,1.1-4.848.458-2.025a1.267,1.267,0,0,1,2.443.673l-.008.036c-.182.853-.385,1.7-.577,2.554l-1.182,5.23-1.376,6.092-1.131,5.005-.427,1.892c.025.807.011,1.618.017,2.425q.02,2.588.04,5.176.023,3.011.048,6.021.02,2.525.041,5.049c.006.753,0,1.507.021,2.26,0,.037,0,.074,0,.11h8.356c0-.036-.005-.073-.005-.11q0-.078,0-.156.033-5.309.026-10.618" transform="translate(-452.091 -378.296)" fill="#ffeda7"/>
    <path id="パス_4459" data-name="パス 4459" d="M348.03,199.338a4.878,4.878,0,0,1-2.6,3.145,6.245,6.245,0,0,1-5.487-.242,6.116,6.116,0,0,1-2.737-4.014h-1.694a8.674,8.674,0,0,1-.528,1.512,5.508,5.508,0,0,1-3.384,2.995,6.53,6.53,0,0,1-3.037.144,5.219,5.219,0,0,1-2.38-1.155,7.056,7.056,0,0,1-2.115-3.542,10.491,10.491,0,0,1-.276-1.235l-1.35-.461a1.064,1.064,0,0,1-.581.509,1.538,1.538,0,0,1,.028.2c.295,1.981.571,3.965.817,5.953.148,1.2.285,2.4.39,3.606.1,1.182.134,2.368.279,3.545a18.1,18.1,0,0,0,1.126,4.275,13.8,13.8,0,0,0,1.1,2.048q.157.239.324.47l.128.174h0q.3.384.638.744a12.79,12.79,0,0,0,1.371,1.265l0,0,.155.115q.186.135.377.263.36.242.735.459a14,14,0,0,0,1.412.712c.277.113.556.22.839.317a17.285,17.285,0,0,0,3.132.744c.266.033.533.063.8.085a14.555,14.555,0,0,0,2.905-.015,11.426,11.426,0,0,0,4.543-1.644q.382-.236.747-.5l.14-.1.076-.057c.1-.078.195-.156.29-.236a12.827,12.827,0,0,0,1.421-1.4q.168-.194.329-.394l.034-.043c.038-.05.076-.1.113-.152q.321-.437.607-.9a15.335,15.335,0,0,0,1.018-1.958,20.222,20.222,0,0,0,1.265-4.8c.131-1.044.181-2.092.244-3.142.122-2.041.311-4.077.491-6.113.093-1.052.21-2.115.245-3.177l-1.7.575a7.007,7.007,0,0,1-.254,1.42M335.271,205.7a1.3,1.3,0,0,1,1.157-.779l.094.006.655.041a1.26,1.26,0,0,1,.639.173l.256.2a1.265,1.265,0,0,1,.326.559l.045.337a1.3,1.3,0,0,1-1.267,1.267l-.094-.006-.656-.041a1.26,1.26,0,0,1-.639-.173l-.256-.2a1.266,1.266,0,0,1-.326-.559l-.045-.337a.955.955,0,0,1,.109-.488m4.819,7.484a6.577,6.577,0,0,1-6.923,0A1.267,1.267,0,1,1,334.446,211c.187.1.378.194.572.282a6,6,0,0,0,1.177.332,4.951,4.951,0,0,0,.9,0,5.856,5.856,0,0,0,1.131-.321c.2-.091.4-.188.591-.293a1.293,1.293,0,0,1,1.733.454,1.278,1.278,0,0,1-.454,1.733" transform="translate(-276.567 -168.835)" fill="#fff"/>
    <path id="パス_4460" data-name="パス 4460" d="M350.168,381.915a1.412,1.412,0,0,1-.216.028,1.281,1.281,0,0,1-1.267-1.267c0-.361-.015-.723-.024-1.084-.038-1.443-.1-2.887-.138-4.332a13.806,13.806,0,0,1-8.725,2.66,20.066,20.066,0,0,1-4.495-.669,15.32,15.32,0,0,1-4.93-2.289l0,0c-.059,1.9-.148,3.812-.151,5.716a1.289,1.289,0,0,1-1.267,1.267,1.058,1.058,0,0,1-.156-.006l-.128.068-2.85,1.5q.309.147.623.283.69.286,1.4.528a32.7,32.7,0,0,0,6.031,1.386q1.134.148,2.275.236a41.758,41.758,0,0,0,8.483-.208,27.365,27.365,0,0,0,6.657-1.719c.293-.128.585-.261.871-.4a1.46,1.46,0,0,1,.609-.157,1.27,1.27,0,0,1,.146-.228q-1.259-.542-2.495-1.14a1.006,1.006,0,0,1-.248-.172" transform="translate(-279.967 -322.192)" fill="#fff"/>
    <path id="パス_4461" data-name="パス 4461" d="M370.253,48.573h0" transform="translate(-318.148 -41.737)" fill="#fff050"/>
    <path id="パス_4462" data-name="パス 4462" d="M341.058,57.035h0" transform="translate(-293.061 -49.003)" fill="#fff050"/>
    <path id="パス_4463" data-name="パス 4463" d="M360.587,216.17l.012.014c-.05-.061-.087-.1-.012-.014" transform="translate(-309.805 -185.704)" fill="#fff050"/>
    <path id="パス_4464" data-name="パス 4464" d="M364.971,220.69c.1.075.227.16,0,0" transform="translate(-313.609 -189.632)" fill="#fff050"/>
    <path id="パス_4465" data-name="パス 4465" d="M549.378,259.573l-.006,0,.006,0" transform="translate(-472.059 -223.043)" fill="#fff050"/>
    <path id="パス_4466" data-name="パス 4466" d="M360.784,98.669a6.683,6.683,0,0,0,0-1.62,13.67,13.67,0,0,0-.9-3.149,18.318,18.318,0,0,0-1.085-2.125q-.306-.513-.645-1.006-.169-.245-.345-.485-.081-.11-.164-.219l-.03-.037a17.112,17.112,0,0,0-1.641-1.8q-.447-.424-.926-.811l-.127-.1-.032-.024-.11-.082q-.259-.191-.526-.37a13.306,13.306,0,0,0-2.074-1.134,12.139,12.139,0,0,0-2.714-.741,12.505,12.505,0,0,0-2.935.007,14.516,14.516,0,0,0-1.685.356,8.832,8.832,0,0,1-.468,2.776c-.913,2.636-2.894,4.637-4.874,6.517-.975.925-1.961,1.841-2.865,2.838q-.343.378-.667.772l-.127.157,1.467.5a1.315,1.315,0,0,1,.93,1.221c0,.1.015.2.027.306a8.976,8.976,0,0,0,.506,1.927,6.483,6.483,0,0,0,.325.645q.109.187.233.366c.03.044.084.1.115.147.089.1.182.2.28.3q.084.081.173.158l.026.021a4.782,4.782,0,0,0,.61.361,4.27,4.27,0,0,0,.721.195,5.531,5.531,0,0,0,1.092-.005,4.713,4.713,0,0,0,.856-.23,4.468,4.468,0,0,0,.587-.342l.017-.012c.044-.037.088-.075.13-.115a4.112,4.112,0,0,0,.293-.3c.03-.034.058-.069.087-.1.074-.1.144-.209.209-.317a5.3,5.3,0,0,0,.272-.525,6.568,6.568,0,0,0,.372-1.384c0-.047.009-.093.011-.14a1.291,1.291,0,0,1,1.267-1.267h3.883a1.288,1.288,0,0,1,1.267,1.267c0,.068.007.136.014.2a6.515,6.515,0,0,0,.367,1.38,5.156,5.156,0,0,0,.275.526c.061.1.126.2.194.292.027.032.053.064.081.1a4.021,4.021,0,0,0,.292.3c.04.037.082.072.123.107a3.919,3.919,0,0,0,.572.335,4.663,4.663,0,0,0,.847.229,5.91,5.91,0,0,0,1.2,0,4.351,4.351,0,0,0,.766-.206,3.438,3.438,0,0,0,.452-.265c.025-.022.051-.043.076-.066q.115-.1.22-.22c.022-.024.043-.05.065-.075.047-.067.094-.134.137-.2a4.031,4.031,0,0,0,.2-.386,5.384,5.384,0,0,0,.281-1.075,4.8,4.8,0,0,0,.021-.925,1.29,1.29,0,0,1,.93-1.221l2.164-.732a.935.935,0,0,1-.1-.484m-16.953,2.795v.006h0v.068a1.26,1.26,0,0,1-.173.639l-.2.256a1.264,1.264,0,0,1-.559.326l-.337.045a1.3,1.3,0,0,1-1.267-1.267v-.032h0v-.068a1.261,1.261,0,0,1,.173-.639l.2-.256a1.265,1.265,0,0,1,.559-.326l.337-.045a1.3,1.3,0,0,1,1.267,1.267Zm11.811,0v.006h0v.068a1.261,1.261,0,0,1-.173.639l-.2.256a1.265,1.265,0,0,1-.559.326l-.337.045a1.3,1.3,0,0,1-1.267-1.267v-.032h0v-.068a1.26,1.26,0,0,1,.173-.639l.2-.256a1.266,1.266,0,0,1,.559-.326l.337-.045a1.3,1.3,0,0,1,1.267,1.267Z" transform="translate(-288.582 -72.937)" fill="#fff"/>
    <path id="パス_4467" data-name="パス 4467" d="M537.816,219.132a4.032,4.032,0,0,0-.237-.444c-.038-.06-.08-.117-.121-.175-.025-.029-.05-.058-.076-.086a3.2,3.2,0,0,0-.23-.225l-.026-.022a2.978,2.978,0,0,0-.408-.233,3.232,3.232,0,0,0-.435-.117,3.834,3.834,0,0,0-.406-.014,1.054,1.054,0,0,1-.542.4c-.071.827-.15,1.653-.222,2.48-.106,1.206-.193,2.413-.272,3.621a1.118,1.118,0,0,1,.158-.011,4.975,4.975,0,0,0,.536-.025,4.139,4.139,0,0,0,.712-.2,3.857,3.857,0,0,0,.546-.32c.031-.026.063-.052.093-.079q.146-.13.278-.273c.043-.046.084-.093.125-.141.062-.087.124-.173.181-.264a4.979,4.979,0,0,0,.3-.563,5.828,5.828,0,0,0,.3-1.121,6.012,6.012,0,0,0,0-1.244,5.126,5.126,0,0,0-.254-.947" transform="translate(-459.572 -187.164)" fill="#fff"/>
    <path id="パス_4468" data-name="パス 4468" d="M391.655,220.463a.768.768,0,0,1,.092-.075l.012-.01-.012.008a.428.428,0,0,0-.091.077" transform="translate(-336.538 -189.364)" fill="#fff050"/>
    <path id="パス_4469" data-name="パス 4469" d="M376.75,193.9a1.409,1.409,0,0,0-.9-.371l-.337.045a1.267,1.267,0,0,0-.559.326l-.2.256a1.261,1.261,0,0,0-.173.639v.068h0v.032a1.3,1.3,0,0,0,1.267,1.267l.337-.045a1.266,1.266,0,0,0,.559-.326l.2-.256a1.261,1.261,0,0,0,.173-.639v-.068h0v-.032a1.409,1.409,0,0,0-.371-.9" transform="translate(-321.871 -166.292)" fill="#323232"/>
    <path id="パス_4470" data-name="パス 4470" d="M419.278,256.848l-.256-.2a1.26,1.26,0,0,0-.639-.173l-.655-.041-.094-.006a1.3,1.3,0,0,0-1.267,1.267l.045.337a1.265,1.265,0,0,0,.326.559l.256.2a1.261,1.261,0,0,0,.639.173l.656.041.094.006a1.3,1.3,0,0,0,1.267-1.267l-.045-.337a1.265,1.265,0,0,0-.326-.559" transform="translate(-357.771 -220.342)" fill="#323232"/>
    <path id="パス_4471" data-name="パス 4471" d="M460.677,193.9a1.408,1.408,0,0,0-.9-.371l-.337.045a1.267,1.267,0,0,0-.559.326l-.2.256a1.261,1.261,0,0,0-.173.639v.068h0v.032a1.3,1.3,0,0,0,1.267,1.267l.337-.045a1.265,1.265,0,0,0,.559-.326l.2-.256a1.261,1.261,0,0,0,.173-.639v-.068h0v-.032a1.408,1.408,0,0,0-.371-.9" transform="translate(-393.987 -166.292)" fill="#323232"/>
    <path id="パス_4472" data-name="パス 4472" d="M478.166,361.16l.015-.013-.076.057.06-.044" transform="translate(-410.822 -310.323)" fill="#323232"/>
    <path id="パス_4473" data-name="パス 4473" d="M650.716,594.892a1.286,1.286,0,0,0-1.558.885L648.7,597.8l-1.1,4.848-1.343,5.945-1.19,5.265-.636,2.816a7.733,7.733,0,0,0-.063,1.755q.018,2.292.036,4.585.024,3.048.048,6.1.022,2.821.045,5.642c.009,1.077.016,2.154.028,3.231,0,.069,0,.138,0,.207,0,.037,0,.074.008.11h2.522c0-.036,0-.073,0-.11-.019-.753-.015-1.507-.021-2.26q-.022-2.525-.041-5.049-.024-3.011-.048-6.021-.02-2.588-.04-5.176c-.006-.807.007-1.618-.017-2.425l.428-1.892,1.131-5.005,1.376-6.092,1.182-5.23c.192-.851.4-1.7.577-2.553l.008-.036a1.289,1.289,0,0,0-.885-1.558" transform="translate(-553.675 -511.145)" fill="#323232"/>
    <path id="パス_4474" data-name="パス 4474" d="M646.941,904.712a1.3,1.3,0,0,0,1.263-1.156h-2.522a1.277,1.277,0,0,0,1.258,1.156" transform="translate(-554.816 -776.399)" fill="#323232"/>
    <path id="パス_4475" data-name="パス 4475" d="M319.16,904.712a1.294,1.294,0,0,0,1.261-1.156H317.9a1.279,1.279,0,0,0,1.261,1.156" transform="translate(-273.161 -776.399)" fill="#323232"/>
    <path id="パス_4476" data-name="パス 4476" d="M509.477,904.712a1.293,1.293,0,0,0,1.26-1.156h-2.522a1.28,1.28,0,0,0,1.262,1.156" transform="translate(-436.694 -776.399)" fill="#323232"/>
    <path id="パス_4477" data-name="パス 4477" d="M724.236,904.712a1.293,1.293,0,0,0,1.26-1.156h-2.522a1.279,1.279,0,0,0,1.261,1.156" transform="translate(-621.231 -776.399)" fill="#323232"/>
    <path id="パス_4478" data-name="パス 4478" d="M173.692,90.99a63.487,63.487,0,0,0-.671-9.259,22.7,22.7,0,0,0-2.943-8.4,21.1,21.1,0,0,0-7.189-6.653,53.546,53.546,0,0,0-9.345-4.209c-1.641-.6-3.291-1.174-4.932-1.772-.839-.306-1.675-.617-2.507-.94q-.6-.234-1.2-.477l-.547-.224-.2-.085-.313-.134q-1.24-.534-2.454-1.123a1.525,1.525,0,0,0-.484-.141c-.026-1.821-.114-3.643-.162-5.463-.009-.361-.023-.723-.024-1.084a1.182,1.182,0,0,0-.029-.255,14.73,14.73,0,0,0,1.982-2.995,21.935,21.935,0,0,0,2.1-8.14,1.28,1.28,0,0,0,.32.045,5.4,5.4,0,0,0,3.614-1.306,5.957,5.957,0,0,0,1.757-2.886,7.236,7.236,0,0,0,.108-3.45,5.176,5.176,0,0,0-1.534-2.787,4.375,4.375,0,0,0-1.777-.976c-.09-.024-.18-.044-.27-.061a24.143,24.143,0,0,0,1.408-7.992,22.236,22.236,0,0,0-2.4-10.119,20.122,20.122,0,0,0-6.909-7.745A14.3,14.3,0,0,0,129.818.078a15.289,15.289,0,0,0-4.737,1.268,9.634,9.634,0,0,0-3.491,2.593q-.138.17-.27.345a7.381,7.381,0,0,0-1.935.17,8.173,8.173,0,0,0-2.348.959,12.875,12.875,0,0,0-3.838,3.72,17.79,17.79,0,0,0-2.34,4.708,16.107,16.107,0,0,0-.722,5.419c.057,2.593.47,5.159.656,7.742a1.654,1.654,0,0,0,.1.466,4.047,4.047,0,0,0-.816.451,5.638,5.638,0,0,0-2.128,3.113,7.41,7.41,0,0,0,1.714,7.059,5.935,5.935,0,0,0,4.118,1.688,20.061,20.061,0,0,0,2,8.045,13.623,13.623,0,0,0,1.872,2.756,1.239,1.239,0,0,0-.082.441c0,2.126-.114,4.255-.17,6.38l0,.057-3,1.583-.15.079a1.3,1.3,0,0,0-1.29-.02c-.752.395-1.52.753-2.3,1.092l-.046.02-.04.016-.293.12q-.244.1-.49.2-.637.249-1.282.479c-1.547.553-3.12,1.032-4.7,1.495a82.937,82.937,0,0,0-9.383,3.119,22.186,22.186,0,0,0-7.936,5.422,19.343,19.343,0,0,0-4.124,8.158,44.045,44.045,0,0,0-1.129,9.3c-.1,2.915-.1,5.836-.16,8.753-.007.343-.01.686-.016,1.029.847.261,1.689.554,2.516.886.043-2.73.095-5.461.136-8.191.022-1.485.06-2.97.15-4.453.046-.757.106-1.513.184-2.267.037-.352.079-.7.124-1.055l0-.012,0-.033c.014-.1.027-.191.041-.286q.042-.285.089-.569A26.461,26.461,0,0,1,85.373,78q.167-.485.358-.961c.028-.069.056-.139.085-.208l.04-.089q.113-.254.233-.505A16.555,16.555,0,0,1,87.178,74.3a6.424,6.424,0,0,1,.59-.836c-.227.246.124-.154.179-.221q.195-.236.4-.464A16.367,16.367,0,0,1,89.992,71.2c.158-.133.318-.261.479-.39l.034-.027.034-.025c.082-.061.163-.123.245-.183q.491-.36,1-.691c.648-.42,1.319-.805,2.006-1.16q.492-.254.994-.488.274-.128.551-.251l.278-.121.118-.051c.737-.3,1.478-.586,2.229-.849,1.524-.534,3.073-1,4.622-1.449a80.176,80.176,0,0,0,9.451-3.179q.264-.114.526-.233c0,.019,0,.037,0,.056.207,1.786.348,3.579.471,5.372.156,2.28.276,4.563.38,6.846q.18,3.954.3,7.911.136,4.218.231,8.436.1,4.283.172,8.566.069,4.076.119,8.152.045,3.669.077,7.339.026,3,.044,5.993.012,2.115.02,4.229c0,.653-.008,1.307.005,1.959,0,.028,0,.056,0,.084s0,.073.006.11h2.522c0-.036.005-.073.005-.11q0-.674,0-1.348-.006-1.853-.016-3.707-.015-2.814-.037-5.628-.028-3.515-.068-7.031-.046-4.013-.109-8.025-.067-4.24-.157-8.48-.092-4.27-.217-8.54-.12-4.028-.283-8.055c-.1-2.391-.215-4.782-.362-7.171-.1-1.7-.225-3.4-.384-5.089a33.545,33.545,0,0,0,9.927,2.258,40.9,40.9,0,0,0,12.037-.637,25.223,25.223,0,0,0,4.987-1.574q-.052,1.621-.1,3.243-.093,3.452-.165,6.905-.086,3.98-.158,7.961-.078,4.239-.147,8.478-.07,4.3-.134,8.6-.061,4.09-.117,8.179-.05,3.68-.1,7.36-.039,3-.075,6.008-.026,2.12-.051,4.24c-.008.655-.028,1.31-.023,1.965,0,.028,0,.057,0,.085s0,.073,0,.11H143.7c0-.036.006-.073.007-.11q.007-.675.015-1.35.021-1.857.044-3.714.034-2.82.07-5.641.045-3.524.092-7.049.054-4.025.113-8.051.062-4.256.129-8.512.068-4.29.145-8.58.072-4.052.155-8.1.075-3.615.164-7.229.074-2.912.169-5.823.018-.519.038-1.038c1.775.7,3.572,1.353,5.37,1.994,1.623.579,3.247,1.156,4.853,1.782q.565.22,1.127.45l.425.176.182.077.351.152c.745.325,1.482.668,2.208,1.033a30.523,30.523,0,0,1,4.223,2.541c.145.105.288.213.432.32l.043.032.042.034.253.2q.486.393.95.81a15.81,15.81,0,0,1,1.564,1.606q.092.11.183.223c.018.023.083.107.109.142.071.1.142.19.211.287q.331.463.627.95A17.071,17.071,0,0,1,169,76.695l.076.174.009.021.011.027c.07.177.142.353.209.531q.185.492.346.993c.226.7.417,1.42.58,2.142s.3,1.469.412,2.21a2.45,2.45,0,0,1,.07.487c0-.026,0-.046,0-.064a.912.912,0,0,0,0,.118q.019.147.036.294.071.589.125,1.18c.137,1.475.206,2.954.246,4.434.078,2.885.1,5.773.15,8.659.111,6.123.141,12.248.146,18.372q0,5.309-.025,10.618c0,.052,0,.1,0,.156,0,.037,0,.073.005.11h2.522c0-.036.006-.073.006-.11q.031-4.5.027-9c0-6.079-.022-12.158-.115-18.237-.045-2.94-.1-5.88-.146-8.82M146.967,36.534l.006,0-.006,0m-1.008-5.88a3.807,3.807,0,0,1,.406.014,3.239,3.239,0,0,1,.435.117,2.964,2.964,0,0,1,.408.233l.026.022a3.185,3.185,0,0,1,.23.225c.026.028.051.057.076.086.041.058.083.115.121.175a4.026,4.026,0,0,1,.237.444,5.12,5.12,0,0,1,.254.947,6,6,0,0,1,0,1.244,5.813,5.813,0,0,1-.3,1.121,4.967,4.967,0,0,1-.3.563c-.057.091-.119.177-.181.264q-.061.072-.125.141-.133.143-.278.273c-.03.027-.062.053-.093.079a3.845,3.845,0,0,1-.546.32,4.139,4.139,0,0,1-.712.2,5.011,5.011,0,0,1-.536.025,1.118,1.118,0,0,0-.158.011c.08-1.208.166-2.414.272-3.621.073-.826.151-1.653.222-2.48a1.054,1.054,0,0,0,.542-.4m-24.2-23.818h0m-4.1,1.19-.008.006.008-.006m-4.351,29.189a4.765,4.765,0,0,1-.872-.239,4.407,4.407,0,0,1-.664-.386c-.041-.034-.082-.067-.122-.1q-.166-.147-.317-.309c-.068-.072-.238-.293-.249-.3-.039-.055-.077-.111-.113-.169a5.568,5.568,0,0,1-.364-.682,6.451,6.451,0,0,1-.349-1.294,6.631,6.631,0,0,1,0-1.409,5.683,5.683,0,0,1,.3-1.1,4.545,4.545,0,0,1,.273-.512c.037-.058.078-.114.117-.17s.1-.123.137-.166c.077-.083.158-.162.242-.238.024-.021.048-.041.072-.061a3.453,3.453,0,0,1,.5-.287,3.747,3.747,0,0,1,.562-.15c.055-.005.11-.011.165-.014.048.328.1.657.144.985q.14.981.272,1.963c.208,1.549.41,3.1.556,4.663-.1,0-.192-.014-.287-.024m.917-12.681-.592-.2a1.074,1.074,0,0,0-.56-.028,51.321,51.321,0,0,1-.408-5.708,16.745,16.745,0,0,1,.106-1.889,14.51,14.51,0,0,1,.946-3.308,16.653,16.653,0,0,1,1.734-3.076q.072-.1.145-.2l.076-.1.024-.031q.076-.1.153-.189.29-.351.6-.682t.662-.642q.155-.139.316-.271l.126-.1.023-.017a8.307,8.307,0,0,1,1.521-.9,6.612,6.612,0,0,1,1.324-.367,6.161,6.161,0,0,1,1.426.019l-.043-.006a1.332,1.332,0,0,0,.254,0,1.137,1.137,0,0,0,.531-.156,1.3,1.3,0,0,0,.291-.239c.013-.014.026-.03.039-.045s.029-.034.042-.051l.028-.04c.017-.024.034-.048.049-.073l0-.007c.106-.175.221-.342.339-.509l.047-.058q.1-.123.211-.242a8.83,8.83,0,0,1,.9-.834l.065-.048q.134-.1.273-.19.279-.187.571-.354a11.033,11.033,0,0,1,1.042-.523,12.582,12.582,0,0,1,6.332-.859,12.764,12.764,0,0,1,2.849.786,14.9,14.9,0,0,1,2.185,1.174q.278.18.547.373.122.086.242.175c.083.061.418.335.088.063.343.282.688.558,1.018.857a18.925,18.925,0,0,1,1.839,1.928q.106.128.21.258l.083.1.051.065.075.1q.121.162.24.327.4.555.758,1.137a20.07,20.07,0,0,1,1.33,2.556,20.819,20.819,0,0,1,1.341,4.922A22.257,22.257,0,0,1,145.669,23a23.284,23.284,0,0,1-.72,3.285,1.1,1.1,0,0,0-.61-.153l-.036,0a2.305,2.305,0,0,0,.087-.407,6.8,6.8,0,0,0-.014-1.722A13.775,13.775,0,0,0,143.9,21.7a18.65,18.65,0,0,0-2.184-4.687,18.27,18.27,0,0,0-3.752-4.275,14.667,14.667,0,0,0-5.4-2.865,13.849,13.849,0,0,0-6.7-.078c-.074.017-.146.036-.22.054a1.271,1.271,0,0,0-2.394.835c.033.171.06.342.086.514a8.887,8.887,0,0,1,.013,1.89,8.116,8.116,0,0,1-.494,1.8,9.55,9.55,0,0,1-.556,1.051q-.185.3-.39.593-.093.132-.189.262l-.069.092a22.966,22.966,0,0,1-1.95,2.125c-1.439,1.414-2.972,2.74-4.276,4.285-.355.421-.7.855-1.014,1.3l-.19-.065m24.634,3.638a4.81,4.81,0,0,1-.021.925,5.394,5.394,0,0,1-.281,1.075,4.014,4.014,0,0,1-.2.386c-.043.07-.09.137-.137.2-.022.025-.043.051-.065.075q-.1.115-.22.22c-.025.023-.05.044-.076.066a3.428,3.428,0,0,1-.452.265,4.346,4.346,0,0,1-.765.206,5.911,5.911,0,0,1-1.2,0,4.661,4.661,0,0,1-.846-.229,3.919,3.919,0,0,1-.572-.335c-.041-.035-.083-.071-.123-.107a4.025,4.025,0,0,1-.292-.3c-.028-.031-.054-.064-.081-.1-.068-.1-.133-.192-.194-.292a5.188,5.188,0,0,1-.275-.526,6.5,6.5,0,0,1-.367-1.38c-.007-.068-.012-.136-.014-.2a1.288,1.288,0,0,0-1.267-1.267H127.52a1.291,1.291,0,0,0-1.267,1.267c0,.047-.006.094-.011.14a6.581,6.581,0,0,1-.372,1.384,5.329,5.329,0,0,1-.273.525c-.065.109-.135.214-.209.317-.029.035-.057.069-.087.1a4.113,4.113,0,0,1-.293.3c-.042.039-.086.077-.13.115.069-.05.127-.087.021-.013l-.026.017-.012.01a.786.786,0,0,0-.092.075.428.428,0,0,1,.091-.077,4.449,4.449,0,0,1-.587.342,4.708,4.708,0,0,1-.855.23,5.531,5.531,0,0,1-1.092.005,4.263,4.263,0,0,1-.721-.195,4.794,4.794,0,0,1-.61-.361l-.026-.021q-.088-.077-.172-.158c-.1-.1-.191-.2-.28-.3-.031-.051-.085-.1-.115-.147q-.124-.178-.233-.366a6.518,6.518,0,0,1-.325-.645,8.968,8.968,0,0,1-.506-1.927c-.012-.1-.022-.2-.027-.306a1.315,1.315,0,0,0-.93-1.221l-1.467-.5.127-.157q.323-.395.667-.772c.9-1,1.89-1.913,2.864-2.838,1.98-1.879,3.961-3.881,4.874-6.517a8.835,8.835,0,0,0,.468-2.776,14.51,14.51,0,0,1,1.685-.356,12.5,12.5,0,0,1,2.935-.007,12.14,12.14,0,0,1,2.714.741,13.307,13.307,0,0,1,2.074,1.134q.267.179.526.37l.11.082.032.024.127.1q.479.387.926.811a17.131,17.131,0,0,1,1.641,1.8l.03.037q.083.109.164.219.176.24.345.485.338.493.645,1.006a18.343,18.343,0,0,1,1.085,2.125,13.67,13.67,0,0,1,.9,3.149,6.683,6.683,0,0,1,0,1.62.935.935,0,0,0,.1.484l-2.164.732a1.29,1.29,0,0,0-.93,1.221m-17.842,2.887c.227.16.1.075,0,0m-.569-.578-.012-.014c-.075-.09-.038-.046.012.014m-2.859,15.261a18.107,18.107,0,0,1-1.126-4.275c-.145-1.178-.176-2.364-.279-3.545-.1-1.2-.241-2.406-.389-3.606-.245-1.988-.522-3.972-.817-5.953a1.534,1.534,0,0,0-.028-.2,1.064,1.064,0,0,0,.581-.509l1.35.461a10.494,10.494,0,0,0,.276,1.235,7.057,7.057,0,0,0,2.115,3.542,5.22,5.22,0,0,0,2.38,1.155,6.53,6.53,0,0,0,3.037-.144,5.508,5.508,0,0,0,3.384-2.995,8.676,8.676,0,0,0,.528-1.512h1.694a6.116,6.116,0,0,0,2.737,4.014,6.245,6.245,0,0,0,5.487.242,4.876,4.876,0,0,0,2.6-3.145,7.007,7.007,0,0,0,.254-1.42l1.7-.575c-.035,1.061-.152,2.125-.245,3.177-.18,2.036-.369,4.072-.491,6.113-.063,1.05-.113,2.1-.244,3.142a20.224,20.224,0,0,1-1.265,4.8,15.32,15.32,0,0,1-1.019,1.958q-.286.461-.606.9c-.037.051-.075.1-.114.152l-.034.043q-.16.2-.329.394a12.829,12.829,0,0,1-1.421,1.4c-.1.08-.193.158-.29.236l.091-.068-.092.07-.015.011-.027.022c-.063.05-.17.126-.033.022l-.14.1q-.365.263-.747.5a11.423,11.423,0,0,1-4.543,1.643,14.543,14.543,0,0,1-2.905.015c-.267-.022-.534-.052-.8-.085a17.265,17.265,0,0,1-3.132-.744c-.283-.1-.562-.2-.839-.317a13.984,13.984,0,0,1-1.412-.712q-.375-.217-.735-.459-.191-.128-.377-.263l-.155-.115,0,0a12.759,12.759,0,0,1-1.371-1.265q-.334-.359-.638-.745h0l-.128-.174q-.167-.232-.324-.47a13.783,13.783,0,0,1-1.1-2.048m24.864,15.521a1.458,1.458,0,0,0-.609.157c-.287.143-.578.276-.871.4a27.359,27.359,0,0,1-6.657,1.719,41.745,41.745,0,0,1-8.483.208q-1.141-.086-2.275-.235a32.7,32.7,0,0,1-6.031-1.386q-.707-.241-1.4-.528-.314-.137-.623-.283l2.85-1.5.128-.068a1.064,1.064,0,0,0,.156.006,1.289,1.289,0,0,0,1.267-1.267c0-1.9.092-3.812.151-5.716l0,0a15.319,15.319,0,0,0,4.93,2.289,20.056,20.056,0,0,0,4.495.669,13.8,13.8,0,0,0,8.725-2.66c.038,1.444.1,2.889.138,4.332.009.361.024.723.024,1.084a1.281,1.281,0,0,0,1.267,1.267,1.429,1.429,0,0,0,.216-.028,1.011,1.011,0,0,0,.248.172q1.234.6,2.495,1.14a1.266,1.266,0,0,0-.146.228" transform="translate(-69.654 0)" fill="#323232"/>
    <path id="パス_4479" data-name="パス 4479" d="M392.315,220.354l0,0-.017.012.012-.008" transform="translate(-337.094 -189.34)" fill="#323232"/>
    <path id="パス_4480" data-name="パス 4480" d="M404.093,298.6c-.193.105-.391.2-.591.293a5.866,5.866,0,0,1-1.131.321,4.965,4.965,0,0,1-.9,0,6,6,0,0,1-1.177-.332c-.194-.088-.384-.181-.572-.282a1.267,1.267,0,1,0-1.279,2.187,6.577,6.577,0,0,0,6.923,0,1.278,1.278,0,0,0,.454-1.733,1.293,1.293,0,0,0-1.733-.454" transform="translate(-341.848 -256.438)" fill="#323232"/>
    <path id="パス_4481" data-name="パス 4481" d="M60.54,506.16c-.014-.652,0-1.306-.005-1.959q-.007-2.114-.02-4.229-.018-3-.044-5.993-.032-3.67-.077-7.339-.05-4.076-.119-8.152-.073-4.283-.172-8.566-.1-4.218-.231-8.436-.127-3.956-.3-7.911c-.1-2.283-.224-4.566-.38-6.846-.123-1.793-.264-3.587-.471-5.372,0-.019,0-.037,0-.056q-.262.119-.526.233a80.193,80.193,0,0,1-9.451,3.178c-1.55.453-3.1.915-4.622,1.449-.751.263-1.492.549-2.229.849l-.118.051-.017.007c-1.461,2.156-4.036,3.473-6.543,4.219q-.154,2.543-.318,5.085l.671-.03a1.274,1.274,0,0,1,.9.371,1.341,1.341,0,0,1,.371.9q.068.661.136,1.321l.591,5.742.37,3.6a1.249,1.249,0,0,1-1.086,1.244,1.269,1.269,0,0,1-.181.023,1.287,1.287,0,0,1-.9-.371,1.37,1.37,0,0,1-.371-.9l-.136-1.321-.591-5.742-.234-2.274c-.383.015-.767.026-1.148.043l-4.623.209-5.323.241-4.42.2-.52.023.114,2.519.311,6.87q.192,4.239.384,8.478.187,4.14.375,8.281.143,3.154.286,6.307c.038.833.091,1.668.114,2.5l0,.025c.051.292.114.582.186.87q.16.641.381,1.265.065.184.135.366c.026.067.09.219.121.294.084.189.17.378.264.563a10.992,10.992,0,0,0,.944,1.552l.046.062c.035.043.069.087.1.13q.145.175.3.343a8.594,8.594,0,0,0,.725.706l.091.076c.015.01.056.043.14.113.115.083.229.166.348.244a7.8,7.8,0,0,0,.952.535l.065.029c.051.022.15.065.2.084q.252.1.51.174a8.589,8.589,0,0,0,1.2.272l.1.012q.139.015.279.025.347.027.7.029c.376,0,.752-.018,1.128-.034.64-.029,1.28-.06,1.918-.118q.267-.024.534-.054l.1-.012.093-.012c.317-.047.632-.1.945-.168s.62-.146.924-.239q.239-.073.474-.158.118-.043.235-.089l.01,0a9.163,9.163,0,0,0,.831-.42q.244-.142.477-.3.091-.062.18-.127l.032-.023a8.93,8.93,0,0,0,.781-.711q.2-.21.39-.434c.044-.053.088-.108.131-.162l.045-.061a10.419,10.419,0,0,0,.7-1.1q.171-.308.323-.626.079-.165.154-.333c.012-.026.03-.071.047-.115a23.322,23.322,0,0,0,.888-2.873c0-.114,0-.228,0-.342q.045-4.291-.137-8.577a1.267,1.267,0,1,1,2.533,0c.073,1.783.124,3.566.141,5.351.011,1.107,0,2.213-.008,3.319a1.435,1.435,0,0,1,0,.567v.007c-.013,1.045-.029,2.09-.04,3.135q-.045,4.29.137,8.577h5.778c0,.014,0,.027-.007.041,6.16.032,13.035.073,13.035.073,0-.037-.006-.073-.006-.11s0-.056,0-.084" transform="translate(-15.808 -379.197)" fill="#ffeda7"/>
    <path id="パス_4482" data-name="パス 4482" d="M131.978,438.97c.078.058.133.09,0,0" transform="translate(-113.405 -377.194)" fill="#fff"/>
    <path id="パス_4483" data-name="パス 4483" d="M138.491,436.779c-.1.125,0,.022.052-.053l0-.007-.007.009c-.015.018-.033.034-.049.051" transform="translate(-118.962 -375.26)" fill="#fff"/>
    <path id="パス_4484" data-name="パス 4484" d="M181.487,396.394l.024.027,0-.006-.022-.021" transform="translate(-155.946 -340.61)" fill="#fff"/>
    <path id="パス_4485" data-name="パス 4485" d="M139.164,436.143c.026-.031.051-.064.078-.095l-.065.074-.013.021" transform="translate(-119.58 -374.683)" fill="#fff"/>
    <path id="パス_4486" data-name="パス 4486" d="M26.592,276.742l.024.01-.014-.01h-.011" transform="translate(-22.85 -237.796)" fill="#fff"/>
    <path id="パス_4487" data-name="パス 4487" d="M180.962,395.686a.132.132,0,0,1,.037.021l0-.006c-.048-.083-.129-.129-.034-.015" transform="translate(-155.458 -339.943)" fill="#fff"/>
    <path id="パス_4488" data-name="パス 4488" d="M26.43,276.64h0l.02,0-.016-.009-.006.005" transform="translate(-22.711 -237.704)" fill="#fff"/>
    <path id="パス_4489" data-name="パス 4489" d="M27.655,277.467l.018.01-.02-.012,0,0" transform="translate(-23.761 -238.418)" fill="#fff"/>
    <path id="パス_4490" data-name="パス 4490" d="M45.513,251.637c-.024-.006-.049-.009-.073-.015a3.426,3.426,0,0,0-.514.014,2.078,2.078,0,0,0-.212.049,4,4,0,0,0-.424.246c-.026.023-.053.046-.079.07a3.17,3.17,0,0,0-.222.232l-.028.033-.008.012q-.093.133-.175.274a5.067,5.067,0,0,0-.237.466c-.063.161-.122.324-.175.489-.605,1.888-.71,4.006-2.072,5.563a3.684,3.684,0,0,1-1.227.913,2.361,2.361,0,0,1-.876.244,2.589,2.589,0,0,1-.31.009,3.557,3.557,0,0,1-.846-.123,3.72,3.72,0,0,1-2.24-1.982,9.871,9.871,0,0,1-.858-2.937c-.163-1.073-.254-2.153-.334-3.234-.031-.427-.062-.854-.1-1.28-.01-.1-.021-.2-.032-.3a1.288,1.288,0,0,1,.376-1c.059-.065.123-.126.185-.189q.78-.794,1.564-1.584l1.913-1.933.684-.693.139-.141c.077-.129.137-.17.121-.137a1.337,1.337,0,0,1,1.079-.353,1.249,1.249,0,0,1,.727.348,1.2,1.2,0,0,1,.326.559,7.856,7.856,0,0,0,.458,1.675,6.2,6.2,0,0,0,.383.711c.067.106.138.207.211.309l0,.005q.067.08.138.158.141.154.3.3c.031.028.063.055.095.082a3.086,3.086,0,0,0,.425.249c.058.019.116.035.175.049l.054,0c.012-.021.025-.042.036-.063a2.506,2.506,0,0,0,.072-.276,4.641,4.641,0,0,0-.015-.893,10.74,10.74,0,0,0-.612-2.145,5.94,5.94,0,0,1-.251-.716q-.085-.342-.184-.68c-.1-.346-.217-.687-.35-1.022a6.446,6.446,0,0,0-.3-.605c-.06-.1-.122-.2-.19-.3l-.033-.046c-.058-.068-.117-.135-.181-.2-.02-.019-.061-.055-.1-.088s-.066-.045-.086-.057-.047-.023-.07-.035q-.073-.023-.149-.04-.1,0-.2,0a3.2,3.2,0,0,0-.444.127,6.837,6.837,0,0,0-1.1.648c-.084.06-.166.121-.248.183l-.1.077q-.308.249-.6.512c-.43.38-.846.776-1.256,1.178-.94.923-1.847,1.879-2.761,2.827a1.288,1.288,0,0,1-1.791,0,1.18,1.18,0,0,1-.358-.984,1.6,1.6,0,0,1-.184-.649q-.163-1.629-.325-3.257-.3-3.072-.608-6.145c-.179-1.806-.317-3.623-.549-5.423a8.847,8.847,0,0,0-.458-1.9c-.058-.126-.12-.251-.191-.371q-.065-.11-.136-.215l-.006-.009c-.1-.108-.2-.207-.3-.308l-.019-.012c-.021-.013-.044-.022-.065-.033l-.034-.009h-.02l-.023.005a1.927,1.927,0,0,1-.225.133c-.049.046-.1.094-.143.144l-.035.04c-.032.046-.063.091-.093.138a3.432,3.432,0,0,0-.175.326,4.176,4.176,0,0,0-.189.7,4.541,4.541,0,0,0-.008.671,6.635,6.635,0,0,1,.674,1.709,18.371,18.371,0,0,1,.389,2.6q.131,1.305.261,2.61.566,5.694,1.13,11.388a1.267,1.267,0,0,1-2.162.9,1.369,1.369,0,0,1-.371-.9q-.164-1.629-.325-3.257-.3-3.072-.608-6.145c-.179-1.806-.317-3.623-.549-5.423a8.847,8.847,0,0,0-.458-1.9c-.058-.126-.12-.251-.191-.371q-.064-.11-.136-.215l-.006-.009c-.1-.108-.2-.207-.3-.308l-.019-.012c-.021-.013-.044-.022-.065-.033l-.034-.008h-.021l-.023,0a1.9,1.9,0,0,1-.225.133c-.05.046-.1.094-.143.144l-.035.04c-.032.046-.064.091-.093.138a3.478,3.478,0,0,0-.175.326,4.163,4.163,0,0,0-.189.7,4.513,4.513,0,0,0-.016.5,2.62,2.62,0,0,1,.517.416c1.087,1.132,1.177,2.864,1.273,4.341.146,2.237.372,4.472.556,6.706q.28,3.4.553,6.8a1.267,1.267,0,0,1-2.162.9,1.354,1.354,0,0,1-.371-.9q-.107-1.336-.216-2.673-.272-3.346-.55-6.691-.113-1.354-.23-2.707c-.076-.873-.111-1.752-.217-2.622a5.619,5.619,0,0,0-.276-1.113c-.025-.05-.051-.1-.08-.148-.017-.028-.035-.056-.053-.083l-.042-.045c-.042-.024-.073-.043-.094-.057l-.037-.011-.014.013c-.019.03-.037.06-.055.091s-.035.068-.052.1a5.281,5.281,0,0,0-.255,1.024q-.057.514-.062,1.031c-.008.7.059,1.39.114,2.083q.105,1.318.215,2.636.153,1.847.307,3.695.186,2.223.373,4.447.206,2.446.413,4.891.213,2.514.427,5.029.208,2.441.416,4.881.187,2.189.374,4.378.154,1.8.309,3.593.039.455.079.911l1.875-.085,3.405-.154,1.929-.169,3.052-.267q.112-1.763.222-3.525.053-.849.1-1.7a4.861,4.861,0,0,0,.041-.746l.013.047a1.176,1.176,0,0,1,.1-.535,1.228,1.228,0,0,1,.821-.733,17.882,17.882,0,0,0,2.463-.8,12.613,12.613,0,0,0,1.3-.657q.348-.2.68-.433c.088-.061.173-.124.259-.188l.133-.11a7.858,7.858,0,0,0,.947-.958c.043-.056.115-.149.146-.194q.114-.167.216-.34a4.257,4.257,0,0,0,.581-1.663,6.96,6.96,0,0,0-.013-1.516,4.9,4.9,0,0,1-.089-.852,5.6,5.6,0,0,1,.043-.574c.2-1.657.8-3.226,1.055-4.87a4.359,4.359,0,0,0,.025-.778c-.008-.038-.016-.077-.026-.114" transform="translate(-19.938 -195.797)" fill="#fff"/>
    <path id="パス_4491" data-name="パス 4491" d="M26.665,276.876l-.052-.017.083.048-.014-.015-.018-.016" transform="translate(-22.868 -237.897)" fill="#fff"/>
    <path id="パス_4492" data-name="パス 4492" d="M181.923,396.858l.061.061c-.018-.018-.035-.039-.052-.058l-.009,0" transform="translate(-156.321 -341.008)" fill="#fff"/>
    <path id="パス_4493" data-name="パス 4493" d="M26.564,276.833h0l-.007,0,0,0" transform="translate(-22.822 -237.872)" fill="#fff"/>
    <path id="パス_4494" data-name="パス 4494" d="M27.2,277.2l.007.008.021.012,0,0L27.2,277.2" transform="translate(-23.375 -238.189)" fill="#fff"/>
    <path id="パス_4495" data-name="パス 4495" d="M137.969,347.6a.358.358,0,0,0,.061-.075.956.956,0,0,0-.1.115l.038-.039" transform="translate(-118.52 -298.617)" fill="#fff"/>
    <path id="パス_4496" data-name="パス 4496" d="M137.337,348.475a.864.864,0,0,1,.084-.137l-.022.022a1.234,1.234,0,0,0-.062.115" transform="translate(-118.01 -299.317)" fill="#fff"/>
    <path id="パス_4497" data-name="パス 4497" d="M71.664,229.693l.043.053c-.017-.026-.034-.051-.043-.053" transform="translate(-61.579 -197.368)" fill="#fff"/>
    <path id="パス_4498" data-name="パス 4498" d="M45.465,249.446l.043.053c-.017-.026-.034-.051-.043-.053" transform="translate(-39.067 -214.342)" fill="#fff"/>
    <path id="パス_4499" data-name="パス 4499" d="M138.814,436.6l.007-.009.013-.021-.069.081c.016-.017.033-.033.049-.051" transform="translate(-119.237 -375.135)" fill="#323232"/>
    <path id="パス_4500" data-name="パス 4500" d="M137.775,347.594l.022-.022a.966.966,0,0,1,.1-.114c.016-.033-.043.008-.121.137" transform="translate(-118.386 -298.551)" fill="#323232"/>
    <path id="パス_4501" data-name="パス 4501" d="M26.592,276.852h0c.021.014.052.033.094.057l-.007-.008-.083-.048" transform="translate(-22.847 -237.89)" fill="#323232"/>
    <path id="パス_4502" data-name="パス 4502" d="M53.064,864.5c-.029-.021.041.042.091.078l.021.014,0,0-.107-.089" transform="translate(-45.59 -742.832)" fill="#fff050"/>
    <path id="パス_4503" data-name="パス 4503" d="M111.733,873.574l.03,0,.123-.016-.138.017-.015,0" transform="translate(-96.009 -750.619)" fill="#fff050"/>
    <path id="パス_4504" data-name="パス 4504" d="M110.8,873.7l.019,0-.078.009c-.156.02-.022.006.058-.006" transform="translate(-95.095 -750.739)" fill="#fff050"/>
    <path id="パス_4505" data-name="パス 4505" d="M53.9,865.18c.032.026.066.051.1.078l-.069-.057-.029-.02" transform="translate(-46.311 -743.424)" fill="#fff050"/>
    <path id="パス_4506" data-name="パス 4506" d="M111.26,873.677l.015,0-.093.012.078-.009" transform="translate(-95.535 -750.723)" fill="#323232"/>
    <path id="パス_4507" data-name="パス 4507" d="M53.212,864.609l0,0,.029.02c-.084-.07-.125-.1-.14-.113l.107.089" transform="translate(-45.632 -742.857)" fill="#323232"/>
    <path id="パス_4508" data-name="パス 4508" d="M26.4,233.771c.02-.083.038-.165.051-.248a7.6,7.6,0,0,0-.407-3.57c-.115-.347-.244-.69-.384-1.028a11.5,11.5,0,0,1-.315-1.112,11.123,11.123,0,0,0-.78-1.974,4,4,0,0,0-2.338-2.11,4.018,4.018,0,0,0-2.948.492,13.388,13.388,0,0,0-2.7,2.058c-.624.575-1.224,1.176-1.817,1.783q-.467-4.689-.93-9.378-.13-1.3-.261-2.61a18.365,18.365,0,0,0-.389-2.595,6.418,6.418,0,0,0-.888-2.052,5.425,5.425,0,0,0-.33-.445,2.9,2.9,0,0,0-2.4-1.115,3.3,3.3,0,0,0-2.459,1.56,4.9,4.9,0,0,0-.586,1.253,2.289,2.289,0,0,0-.642-.033c-2.1.2-3.26,2.37-3.285,4.322a2.79,2.79,0,0,0-1.139,1.114,5.23,5.23,0,0,0-.589,1.841,12.079,12.079,0,0,0-.134,2.058c.011.44.051.879.086,1.317q.157,1.991.326,3.981.251,3.028.507,6.055.3,3.582.605,7.165.309,3.65.62,7.3.275,3.232.552,6.464.168,1.964.338,3.928l-.224.01c-.749.034-1.5.057-2.247.1H1.267A1.284,1.284,0,0,0,0,259.572q.057,1.266.115,2.531Q.26,265.29.4,268.476q.19,4.189.379,8.378.194,4.276.387,8.551.156,3.445.312,6.89l.154,3.4a6.528,6.528,0,0,0,.132.934,13.63,13.63,0,0,0,.7,2.4,13.214,13.214,0,0,0,2.069,3.594,9.255,9.255,0,0,0,2.925,2.343c.294.152.595.294.9.418a9.76,9.76,0,0,0,2.679.607,16.173,16.173,0,0,0,2.37,0,22.641,22.641,0,0,0,4.221-.5,10.106,10.106,0,0,0,4.1-2.029,8.977,8.977,0,0,0,1.516-1.624c0,.061,0,.122,0,.183.017,1.784.068,3.568.141,5.351a1.267,1.267,0,0,0,2.533,0q-.176-4.287-.137-8.577c.011-1.045.027-2.09.04-3.135l0-.006a1.435,1.435,0,0,0,0-.567c.012-1.106.019-2.213.008-3.319-.017-1.784-.068-3.568-.141-5.351a1.267,1.267,0,1,0-2.533,0q.176,4.287.137,8.577c0,.114,0,.228,0,.343a23.327,23.327,0,0,1-.888,2.873c-.017.044-.036.089-.047.115q-.075.168-.154.333-.152.317-.323.626a10.412,10.412,0,0,1-.7,1.1l-.045.061c-.043.054-.087.108-.131.161q-.187.224-.39.435a8.92,8.92,0,0,1-.781.711l-.032.023q-.089.065-.18.127-.233.159-.477.3a9.157,9.157,0,0,1-.831.42l-.01,0q-.117.046-.235.089-.235.085-.474.158c-.3.093-.613.172-.924.239s-.628.121-.945.168l.138-.017-.123.016-.03,0-.019,0c-.08.012-.214.026-.058.006l-.1.012q-.267.031-.534.054c-.638.057-1.278.089-1.918.118-.376.017-.752.038-1.128.034q-.348,0-.7-.029-.14-.01-.279-.025l-.1-.012a8.576,8.576,0,0,1-1.2-.272q-.258-.079-.51-.174c-.05-.019-.149-.062-.2-.084l-.065-.029a7.811,7.811,0,0,1-.952-.534c-.118-.078-.233-.161-.348-.244l.069.057c-.032-.027-.065-.052-.1-.078l-.021-.015c-.05-.037-.12-.1-.091-.079l-.091-.076a8.6,8.6,0,0,1-.725-.706q-.153-.167-.3-.342c-.035-.043-.07-.086-.1-.13l-.046-.062a11,11,0,0,1-.944-1.552c-.093-.185-.179-.374-.264-.563-.031-.075-.1-.228-.121-.294q-.07-.182-.135-.366-.22-.623-.381-1.265c-.072-.288-.135-.578-.186-.87l0-.025c-.023-.834-.076-1.669-.114-2.5q-.143-3.154-.286-6.307-.188-4.14-.375-8.281-.192-4.239-.384-8.478L2.7,263.3l-.114-2.519.52-.023,4.42-.2,5.323-.241,4.623-.209c.382-.017.765-.029,1.148-.043l.234,2.274.591,5.742.136,1.322a1.37,1.37,0,0,0,.371.9,1.142,1.142,0,0,0,1.076.348,1.249,1.249,0,0,0,1.086-1.244l-.37-3.6-.591-5.742-.136-1.322a1.341,1.341,0,0,0-.371-.9,1.274,1.274,0,0,0-.9-.371l-.671.03q.162-2.542.318-5.085c2.506-.746,5.082-2.063,6.543-4.219a6.883,6.883,0,0,0,.976-2.147,8.048,8.048,0,0,0,.1-3.323,4.771,4.771,0,0,1,.027-.693c.172-1.136.527-2.238.787-3.356a5.587,5.587,0,0,0-.029-3.737,2.4,2.4,0,0,0-1.4-1.168m-.84,2.364-.024-.027.022.021,0,.006m-.026-.053,0,.006a.128.128,0,0,0-.037-.021c-.095-.114-.013-.068.034.015M10.128,212.7l-.043-.052c.009,0,.026.026.043.052m-3.687,2.78-.043-.053c.009,0,.027.027.043.053m-2.53,3.9-.018-.01,0,0,.02.012m-.158-.113.014.01-.025-.01h.011m-.028-.016.016.009-.02,0h0l.006-.005m21.85,17.8c-.253,1.644-.855,3.213-1.055,4.87a5.6,5.6,0,0,0-.043.574,4.886,4.886,0,0,0,.089.852,6.971,6.971,0,0,1,.013,1.517,5.9,5.9,0,0,1-.311,1.137,5.807,5.807,0,0,1-.271.525q-.1.174-.216.341c-.031.045-.1.138-.146.194a7.858,7.858,0,0,1-.947.958l-.133.11c-.086.063-.171.127-.259.188q-.331.23-.68.433a12.6,12.6,0,0,1-1.3.657,17.848,17.848,0,0,1-2.463.8,1.228,1.228,0,0,0-.821.733,1.177,1.177,0,0,0-.1.535l-.013-.047a4.86,4.86,0,0,1-.041.746q-.051.85-.1,1.7-.11,1.763-.222,3.525l-3.052.267-1.929.169-3.405.154-1.876.085q-.039-.456-.079-.911-.155-1.8-.309-3.592-.187-2.189-.374-4.378-.208-2.44-.416-4.881-.214-2.514-.427-5.029-.207-2.446-.413-4.891-.187-2.223-.373-4.447-.155-1.847-.307-3.695-.109-1.318-.215-2.636c-.055-.693-.122-1.387-.114-2.083q.006-.517.062-1.031a5.278,5.278,0,0,1,.255-1.024c.017-.034.034-.068.052-.1s.036-.061.055-.091l.014-.013.037.011,0,0,.007,0,.052.017.018.016.014.015.026.015,0,0-.021-.012.042.045c.018.027.037.055.053.083.028.048.055.1.08.148a5.609,5.609,0,0,1,.276,1.113c.105.87.14,1.749.217,2.622q.119,1.353.23,2.707.279,3.345.55,6.691.109,1.336.216,2.673a1.354,1.354,0,0,0,.371.9,1.267,1.267,0,0,0,2.162-.9q-.273-3.4-.553-6.8c-.184-2.235-.411-4.469-.556-6.706-.1-1.477-.186-3.209-1.273-4.341a2.624,2.624,0,0,0-.517-.416,4.51,4.51,0,0,1,.016-.5,4.161,4.161,0,0,1,.189-.7,3.5,3.5,0,0,1,.175-.326c.029-.047.061-.093.093-.138l.035-.04c.046-.05.094-.1.143-.144a1.937,1.937,0,0,0,.225-.133l.023-.005h.021l.034.009c.021.012.044.021.065.033l.019.012c.1.1.207.2.3.308l.006.009q.072.105.136.215c.071.12.132.245.191.371a8.855,8.855,0,0,1,.458,1.9c.232,1.8.37,3.617.549,5.423q.3,3.072.608,6.145.161,1.629.325,3.257a1.368,1.368,0,0,0,.371.9,1.267,1.267,0,0,0,2.162-.9q-.572-5.693-1.13-11.388-.13-1.3-.26-2.61a18.405,18.405,0,0,0-.389-2.6,6.631,6.631,0,0,0-.674-1.709,4.521,4.521,0,0,1,.008-.671,4.156,4.156,0,0,1,.189-.7,3.463,3.463,0,0,1,.175-.326c.029-.047.061-.093.093-.138l.035-.04c.046-.05.094-.1.143-.144a1.9,1.9,0,0,0,.225-.133l.023-.005h.02l.034.009c.022.012.044.021.065.033l.019.012c.1.1.207.2.3.308l.006.009q.072.105.136.215c.071.12.132.245.191.371a8.846,8.846,0,0,1,.458,1.9c.232,1.8.37,3.617.549,5.423q.3,3.072.608,6.145.162,1.629.325,3.257a1.6,1.6,0,0,0,.184.649,1.18,1.18,0,0,0,.358.984,1.287,1.287,0,0,0,1.791,0c.915-.948,1.822-1.9,2.761-2.827.409-.4.825-.8,1.256-1.177q.3-.262.6-.512l.1-.077c.082-.062.165-.123.248-.183a6.825,6.825,0,0,1,1.1-.648,3.2,3.2,0,0,1,.444-.127c.065,0,.131,0,.2,0q.075.017.149.04c.023.012.047.022.07.035s.053.034.086.057.08.069.1.088c.064.063.123.13.181.2l.033.046c.067.1.13.2.19.3a6.493,6.493,0,0,1,.3.605c.133.335.248.676.35,1.022q.1.338.184.68a5.97,5.97,0,0,0,.251.716,10.73,10.73,0,0,1,.613,2.146,4.628,4.628,0,0,1,.015.893,2.485,2.485,0,0,1-.072.276c-.011.021-.024.042-.036.063l-.054,0c-.059-.014-.117-.031-.175-.049a3.05,3.05,0,0,1-.425-.249c-.032-.027-.064-.054-.095-.082-.1-.093-.2-.192-.3-.3q-.071-.078-.138-.158l0-.005c-.073-.1-.145-.2-.211-.309a6.184,6.184,0,0,1-.383-.711,7.854,7.854,0,0,1-.458-1.675,1.2,1.2,0,0,0-.326-.559,1.249,1.249,0,0,0-.727-.348,1.336,1.336,0,0,0-1.079.353.362.362,0,0,1-.061.075l-.039.039a.877.877,0,0,0-.084.137,1.266,1.266,0,0,1,.062-.115l-.139.141-.684.693-1.913,1.933q-.783.791-1.564,1.584c-.062.063-.126.124-.185.189a1.288,1.288,0,0,0-.376,1q.018.151.032.3c.042.426.072.853.1,1.28.08,1.082.171,2.161.334,3.235a9.87,9.87,0,0,0,.858,2.937,3.72,3.72,0,0,0,2.241,1.982,3.563,3.563,0,0,0,.846.123,2.592,2.592,0,0,0,.31-.009,2.356,2.356,0,0,0,.876-.244,3.682,3.682,0,0,0,1.227-.913c1.363-1.557,1.467-3.675,2.073-5.563.053-.165.112-.328.175-.489a5.083,5.083,0,0,1,.236-.466q.082-.14.175-.274l.008-.012.028-.033a3.2,3.2,0,0,1,.223-.232c.026-.024.052-.047.079-.07a4.017,4.017,0,0,1,.424-.246,2.086,2.086,0,0,1,.212-.048,3.409,3.409,0,0,1,.514-.014c.024.005.049.008.073.015.01.038.018.076.026.114a4.359,4.359,0,0,1-.025.778m-5.913,4.632c-.027.031-.052.063-.078.095l0,.007c-.053.075-.156.178-.052.053-.048.053-.1.107-.149.157-.023.022-.046.042-.07.063q-.138.091-.282.169c-.039,0-.079,0-.118,0q-.1-.021-.2-.052c-.059-.032-.118-.066-.175-.1a.9.9,0,0,1-.075-.064c-.05-.049-.1-.1-.142-.154q-.08-.117-.151-.24c-.068-.118-.128-.24-.184-.363a10.529,10.529,0,0,1-.561-2.32c-.154-1.213-.2-2.435-.322-3.65.9-.92,1.8-1.83,2.71-2.742a6.993,6.993,0,0,0,.535.99,5.766,5.766,0,0,0,1.676,1.736c-.038.048-.077.1-.114.145a6.553,6.553,0,0,0-.884,1.825c-.428,1.275-.578,2.634-1.072,3.888-.063.137-.13.272-.206.4-.047.08-.1.159-.151.235l.065-.074m-1.09.411c.133.09.078.058,0,0m7.029-5.926.009,0c.017.02.034.04.052.058l-.061-.061" transform="translate(0 -180.324)" fill="#323232"/>
    <path id="パス_4509" data-name="パス 4509" d="M708.951,143.639a1.59,1.59,0,0,0-2.635.9l-3.879,22,8.975,9.256.263-.128,4.381-24.847-.265.134Z" transform="translate(-603.583 -123.068)" fill="#fff050"/>
    <path id="パス_4510" data-name="パス 4510" d="M781.134,165.194l-8.666,4.4-4.381,24.847,11.336-5.5,3.879-22a1.59,1.59,0,0,0-2.168-1.747" transform="translate(-659.995 -141.843)" fill="#32b4e6"/>
    <path id="パス_4511" data-name="パス 4511" d="M865.324,174.008,865.3,174h-.029l.028.011h.029" transform="translate(-743.499 -149.511)" fill="#323232"/>
    <path id="パス_4512" data-name="パス 4512" d="M865.825,174.227l-.043-.034-.049-.011c.031.014.062.03.092.046" transform="translate(-743.899 -149.669)" fill="#323232"/>
    <path id="パス_4513" data-name="パス 4513" d="M865.709,174.077l-.017-.012h-.019l.036.011" transform="translate(-743.847 -149.569)" fill="#323232"/>
    <path id="パス_4514" data-name="パス 4514" d="M864.561,174.06c.031,0,.061-.007.092-.009l-.049-.006-.043.015" transform="translate(-742.892 -149.552)" fill="#323232"/>
    <path id="パス_4515" data-name="パス 4515" d="M864.76,173.984l-.028.006.019,0,.028-.008h-.019" transform="translate(-743.039 -149.499)" fill="#323232"/>
    <path id="パス_4516" data-name="パス 4516" d="M865.466,174.07l.038.015.049.011-.022-.016-.036-.011h-.029" transform="translate(-743.67 -149.572)" fill="#323232"/>
    <path id="パス_4517" data-name="パス 4517" d="M864.925,173.991H864.9l-.028.008.049.005h.035l-.028-.011" transform="translate(-743.157 -149.505)" fill="#323232"/>
    <path id="パス_4518" data-name="パス 4518" d="M865.215,174.077l.073.014-.038-.015h-.035" transform="translate(-743.454 -149.578)" fill="#323232"/>
    <path id="パス_4519" data-name="パス 4519" d="M866.955,174.833l.031.034c0-.008,0-.015,0-.023l-.014-.024-.022-.012.007.021,0,0" transform="translate(-744.941 -150.207)" fill="#323232"/>
    <path id="パス_4520" data-name="パス 4520" d="M867.234,175.238v0l-.008-.008v0l.008.008" transform="translate(-745.182 -150.567)" fill="#323232"/>
    <path id="パス_4521" data-name="パス 4521" d="M865.5,174.015h.019l-.009-.007-.038,0,.028.009" transform="translate(-743.677 -149.518)" fill="#323232"/>
    <path id="パス_4522" data-name="パス 4522" d="M866.161,174.315l-.018-.021-.043-.028-.017,0,.043.034.034.019" transform="translate(-744.201 -149.738)" fill="#323232"/>
    <path id="パス_4523" data-name="パス 4523" d="M867.235,175.291l.014.021-.012-.052-.008-.008c0,.013,0,.026.006.039" transform="translate(-745.184 -150.589)" fill="#323232"/>
    <path id="パス_4524" data-name="パス 4524" d="M867.011,175l.028.028v0l-.031-.033,0,.01" transform="translate(-744.994 -150.362)" fill="#323232"/>
    <path id="パス_4525" data-name="パス 4525" d="M866.775,174.735l0,0-.007-.021-.029-.016.03.032.008.009" transform="translate(-744.762 -150.109)" fill="#323232"/>
    <path id="パス_4526" data-name="パス 4526" d="M866.451,174.557l-.027-.034-.034-.019.062.052" transform="translate(-744.463 -149.947)" fill="#323232"/>
    <path id="パス_4527" data-name="パス 4527" d="M866.685,174.692l0,0,0-.01-.008-.009-.03-.032-.014-.008.027.034.024.021" transform="translate(-744.672 -150.061)" fill="#323232"/>
    <path id="パス_4528" data-name="パス 4528" d="M865.324,173.884l-.031-.022-.038.01.031.01.038,0" transform="translate(-743.488 -149.395)" fill="#323232"/>
    <path id="パス_4529" data-name="パス 4529" d="M739.356,152.891l.021-.016-.017.009,0,.007" transform="translate(-635.307 -131.361)" fill="#323232"/>
    <path id="パス_4530" data-name="パス 4530" d="M739.572,152.433l-.013.023.031-.026-.018,0" transform="translate(-635.481 -130.979)" fill="#323232"/>
    <path id="パス_4531" data-name="パス 4531" d="M739.746,152.393l.006,0,.032-.012.034-.022-.048.007-.014.017-.01.012" transform="translate(-635.642 -130.916)" fill="#323232"/>
    <path id="パス_4532" data-name="パス 4532" d="M867.3,175.372l.006.008,0-.029-.013-.026-.014-.015.012.052.006.01" transform="translate(-745.233 -150.639)" fill="#323232"/>
    <path id="パス_4533" data-name="パス 4533" d="M739.231,152.94l-.015.008-.01.015.021-.016,0-.007" transform="translate(-635.178 -131.417)" fill="#323232"/>
    <path id="パス_4534" data-name="パス 4534" d="M739.3,152.744l-.012.008-.018.028.015-.008.015-.028" transform="translate(-635.236 -131.248)" fill="#323232"/>
    <path id="パス_4535" data-name="パス 4535" d="M739.4,152.653l.009-.007.025-.03-.036.018-.015.028.017-.009" transform="translate(-635.328 -131.138)" fill="#323232"/>
    <path id="パス_4536" data-name="パス 4536" d="M739.534,152.425l.014-.017-.02,0-.03.026-.01.018.036-.018.01-.012" transform="translate(-635.42 -130.96)" fill="#323232"/>
    <path id="パス_4537" data-name="パス 4537" d="M739.169,152.828l.018-.027c-.036.023-.048.04-.018.027" transform="translate(-635.131 -131.297)" fill="#323232"/>
    <path id="パス_4538" data-name="パス 4538" d="M865.094,173.965l-.014-.005-.015,0h.028" transform="translate(-743.326 -149.479)" fill="#323232"/>
    <path id="パス_4539" data-name="パス 4539" d="M864.747,173.865l-.032-.012-.03.017h.034l.027-.006" transform="translate(-742.999 -149.387)" fill="#323232"/>
    <path id="パス_4540" data-name="パス 4540" d="M864.949,173.948l.015,0-.007,0-.027.006h.019" transform="translate(-743.209 -149.462)" fill="#323232"/>
    <path id="パス_4541" data-name="パス 4541" d="M865.213,173.947l-.031-.01-.012,0,.013.005h.029" transform="translate(-743.415 -149.459)" fill="#323232"/>
    <path id="パス_4542" data-name="パス 4542" d="M863.971,174.158l-.048.025c.03-.012.06-.022.09-.032l-.041.006" transform="translate(-742.344 -149.644)" fill="#323232"/>
    <path id="パス_4543" data-name="パス 4543" d="M864.351,174.031l-.019,0-.037.009-.028.015.042-.006.043-.015" transform="translate(-742.638 -149.538)" fill="#323232"/>
    <path id="パス_4544" data-name="パス 4544" d="M864.487,174.015l-.02.011.037-.009-.017,0" transform="translate(-742.811 -149.526)" fill="#323232"/>
    <path id="パス_4545" data-name="パス 4545" d="M864.653,173.975h-.034l-.011.006.017,0,.028-.006" transform="translate(-742.932 -149.491)" fill="#323232"/>
    <path id="パス_4546" data-name="パス 4546" d="M739.075,153.111l0,.018.019-.029-.015.011" transform="translate(-635.062 -131.554)" fill="#323232"/>
    <path id="パス_4547" data-name="パス 4547" d="M867.5,176.257l-.027-.119c0,.008,0,.017,0,.025.01.031.02.061.028.093" transform="translate(-745.391 -151.35)" fill="#323232"/>
    <path id="パス_4548" data-name="パス 4548" d="M867.488,175.635v.03c.03.041.022.015,0-.03" transform="translate(-745.406 -150.918)" fill="#323232"/>
    <path id="パス_4549" data-name="パス 4549" d="M867.5,175.526h0c.006.006.006.006,0,0" transform="translate(-745.417 -150.824)" fill="#323232"/>
    <path id="パス_4550" data-name="パス 4550" d="M839.778,327.2l.808-.968-.707.343c-.033.2-.065.392-.094.588,0,.012,0,.025-.007.037" transform="translate(-721.597 -280.324)" fill="#323232"/>
    <path id="パス_4551" data-name="パス 4551" d="M738.492,153.58c.019-.028.039-.053.059-.08l.007-.023-.066.1" transform="translate(-634.565 -131.879)" fill="#323232"/>
    <path id="パス_4552" data-name="パス 4552" d="M764.349,364.347l-.549-.566-.71.344,1.259.222" transform="translate(-655.701 -312.586)" fill="#323232"/>
    <path id="パス_4553" data-name="パス 4553" d="M867.489,175.238c0,.013,0,.025,0,.038l0,0,0-.041" transform="translate(-745.404 -150.577)" fill="#323232"/>
    <path id="パス_4554" data-name="パス 4554" d="M738.871,153.067l0,0,.008-.026c-.035.034-.053.057-.012.029" transform="translate(-634.87 -131.501)" fill="#323232"/>
    <path id="パス_4555" data-name="パス 4555" d="M739.122,152.619l-.019.059.006-.006c0-.017.007-.035.013-.053" transform="translate(-635.09 -131.141)" fill="#323232"/>
    <path id="パス_4556" data-name="パス 4556" d="M708.688,303.218l.111-.63-.539-.556.428,1.186" transform="translate(-608.587 -259.527)" fill="#323232"/>
    <path id="パス_4557" data-name="パス 4557" d="M867.217,174.944l-.017-.011v0l.017.009" transform="translate(-745.16 -150.315)" fill="#323232"/>
    <path id="パス_4558" data-name="パス 4558" d="M857.675,157.148c.053-.021.106-.039.16-.057a.748.748,0,0,0-.16.057" transform="translate(-736.975 -134.984)" fill="#323232"/>
    <path id="パス_4559" data-name="パス 4559" d="M865.558,173.792l-.035.008h0l.033-.009" transform="translate(-743.719 -149.334)" fill="#323232"/>
    <path id="パス_4560" data-name="パス 4560" d="M856.222,157.6l.2-.1a1.236,1.236,0,0,0-.2.1" transform="translate(-735.727 -135.329)" fill="#323232"/>
    <path id="パス_4561" data-name="パス 4561" d="M865.362,173.745l.021.015h0l-.023-.015" transform="translate(-743.58 -149.294)" fill="#323232"/>
    <path id="パス_4562" data-name="パス 4562" d="M867.148,174.708c0,.01,0,.02,0,.03l0,0-.007-.032" transform="translate(-745.115 -150.121)" fill="#323232"/>
    <path id="パス_4563" data-name="パス 4563" d="M865.875,174.023l-.089,0,.01.006c.026,0,.052,0,.079,0" transform="translate(-743.944 -149.529)" fill="#323232"/>
    <path id="パス_4564" data-name="パス 4564" d="M866.911,174.652l.022.014c-.018-.031-.031-.045-.022-.014" transform="translate(-744.908 -150.059)" fill="#323232"/>
    <path id="パス_4565" data-name="パス 4565" d="M867.4,175.428l-.014-.014.013.026s0-.008,0-.012" transform="translate(-745.32 -150.728)" fill="#323232"/>
    <path id="パス_4566" data-name="パス 4566" d="M867.37,175.68l.01.042c0-.008,0-.016,0-.025l-.006-.008-.006-.01" transform="translate(-745.306 -150.957)" fill="#323232"/>
    <path id="パス_4567" data-name="パス 4567" d="M867.116,174.9l-.011-.006.014.024c0-.006,0-.012,0-.018" transform="translate(-745.078 -150.281)" fill="#323232"/>
    <path id="パス_4568" data-name="パス 4568" d="M739.492,152.444l.019,0v0l-.02,0" transform="translate(-635.424 -130.986)" fill="#323232"/>
    <path id="パス_4569" data-name="パス 4569" d="M866.85,174.9l-.024-.021.015.02c.009.013.018.026.026.04l-.013-.035,0,0" transform="translate(-744.838 -150.267)" fill="#323232"/>
    <path id="パス_4570" data-name="パス 4570" d="M864,173.946c.029,0,.057.007.085.01l.011-.006-.1,0" transform="translate(-742.413 -149.467)" fill="#323232"/>
    <path id="パス_4571" data-name="パス 4571" d="M867.271,175.529c0,.015,0,.03.007.044s.01.03.014.045c0-.008,0-.017,0-.025l-.01-.042-.014-.021" transform="translate(-745.221 -150.827)" fill="#323232"/>
    <path id="パス_4572" data-name="パス 4572" d="M867.06,175.084l-.028-.028.013.035.021.032c0-.013,0-.026-.006-.039" transform="translate(-745.015 -150.42)" fill="#323232"/>
    <path id="パス_4573" data-name="パス 4573" d="M867.121,175.3l.028.076c0-.015,0-.03-.007-.044l-.021-.032" transform="translate(-745.092 -150.632)" fill="#323232"/>
    <path id="パス_4574" data-name="パス 4574" d="M866.23,174.295l-.025-.006.043.028-.017-.022" transform="translate(-744.305 -149.761)" fill="#323232"/>
    <path id="パス_4575" data-name="パス 4575" d="M741.367,151.857l.027.02h0l-.03-.019" transform="translate(-637.035 -130.486)" fill="#323232"/>
    <path id="パス_4576" data-name="パス 4576" d="M739.814,152.3l.019,0c.015-.02,0-.014-.019,0" transform="translate(-635.7 -130.848)" fill="#323232"/>
    <path id="パス_4577" data-name="パス 4577" d="M863.495,174.122c.036-.008.072-.011.109-.016l.028-.015-.137.031" transform="translate(-741.976 -149.591)" fill="#323232"/>
    <path id="パス_4578" data-name="パス 4578" d="M739.651,152.245l-.018.027h0c.005-.009.009-.018.015-.027" transform="translate(-635.545 -130.82)" fill="#323232"/>
    <path id="パス_4579" data-name="パス 4579" d="M740.673,151.873c.025.008.049.02.073.03l.011,0-.085-.027" transform="translate(-636.439 -130.5)" fill="#323232"/>
    <path id="パス_4580" data-name="パス 4580" d="M741.606,151.952l-.026.006h0l.025-.007" transform="translate(-637.218 -130.568)" fill="#323232"/>
    <path id="パス_4581" data-name="パス 4581" d="M742.214,152.364l-.124-.04.024.015c.034.008.067.014.1.024" transform="translate(-637.656 -130.888)" fill="#323232"/>
    <path id="パス_4582" data-name="パス 4582" d="M741.958,152.174l-.106,0,.01.007c.032,0,.063,0,.1,0" transform="translate(-637.452 -130.755)" fill="#323232"/>
    <path id="パス_4583" data-name="パス 4583" d="M867.185,174.954l.007.012-.007-.029,0,0c0,.006,0,.012,0,.018" transform="translate(-745.144 -150.317)" fill="#323232"/>
    <path id="パス_4584" data-name="パス 4584" d="M867.422,176.007l.006.022c0-.008,0-.017,0-.025l-.005-.022c0,.009,0,.017,0,.026" transform="translate(-745.35 -151.215)" fill="#323232"/>
    <path id="パス_4585" data-name="パス 4585" d="M867.318,175.844c0,.034.007.069.009.1,0-.02,0-.04.006-.059s-.009-.03-.015-.045" transform="translate(-745.261 -151.098)" fill="#323232"/>
    <path id="パス_4586" data-name="パス 4586" d="M867.457,175.626l0,.006v-.03l0-.005c0,.01,0,.019,0,.029" transform="translate(-745.38 -150.885)" fill="#323232"/>
    <path id="パス_4587" data-name="パス 4587" d="M867.38,176.222c0,.05.006.1,0,.15q0-.094.008-.188l-.006-.022c0,.02,0,.04-.006.059" transform="translate(-745.314 -151.372)" fill="#323232"/>
    <path id="パス_4588" data-name="パス 4588" d="M867.439,175.83l.005.022,0-.041,0-.006,0,.025" transform="translate(-745.365 -151.064)" fill="#323232"/>
    <path id="パス_4589" data-name="パス 4589" d="M867.389,175.4h0l-.016-.017,0,0,.014.014" transform="translate(-745.308 -150.704)" fill="#323232"/>
    <path id="パス_4590" data-name="パス 4590" d="M867.477,175.526l0,.005s0-.01,0-.015l0,0s0,.008,0,.012" transform="translate(-745.398 -150.814)" fill="#323232"/>
    <path id="パス_4591" data-name="パス 4591" d="M867.281,175.289l.014.015,0,0-.013-.014v0" transform="translate(-745.228 -150.617)" fill="#323232"/>
    <path id="パス_4592" data-name="パス 4592" d="M867.487,175.512h0l0,0h0l0,0" transform="translate(-745.404 -150.81)" fill="#323232"/>
    <path id="パス_4593" data-name="パス 4593" d="M739.058,152.995l-.006.006-.008.026.008-.006.006-.026" transform="translate(-635.038 -131.464)" fill="#323232"/>
    <path id="パス_4594" data-name="パス 4594" d="M739.117,152.752l.01-.015c-.03.013-.018,0,.018-.027l.01-.015-.045.042-.006.026.015-.011" transform="translate(-635.089 -131.206)" fill="#323232"/>
    <path id="パス_4595" data-name="パス 4595" d="M867.266,175.183l-.017-.033,0,.019.013.014" transform="translate(-745.202 -150.501)" fill="#323232"/>
    <path id="パス_4596" data-name="パス 4596" d="M739.412,152.632l.01-.018-.013.011-.01.015.012-.008" transform="translate(-635.345 -131.137)" fill="#323232"/>
    <path id="パス_4597" data-name="パス 4597" d="M738.982,153.179l-.008.006-.011.036.015-.024,0-.018" transform="translate(-634.968 -131.622)" fill="#323232"/>
    <path id="パス_4598" data-name="パス 4598" d="M738.561,153.5l-.057.18c.018-.055.041-.108.064-.16,0-.014.007-.028.01-.043l-.017.023" transform="translate(-634.575 -131.877)" fill="#323232"/>
    <path id="パス_4599" data-name="パス 4599" d="M738.969,153.271l-.01.043c.011-.026.024-.051.037-.076l-.027.034" transform="translate(-634.966 -131.672)" fill="#323232"/>
    <path id="パス_4600" data-name="パス 4600" d="M864.546,173.715l0,0-.062-.02c.02.006.038.015.057.023" transform="translate(-742.83 -149.249)" fill="#323232"/>
    <path id="パス_4601" data-name="パス 4601" d="M738.933,153.309l-.015.024-.007.023.017-.023.006-.023" transform="translate(-634.925 -131.734)" fill="#323232"/>
    <path id="パス_4602" data-name="パス 4602" d="M865.514,173.85h0" transform="translate(-743.707 -149.383)" fill="#323232"/>
    <path id="パス_4603" data-name="パス 4603" d="M865.555,173.88h.006l-.035-.023h0l.031.022" transform="translate(-743.719 -149.39)" fill="#323232"/>
    <path id="パス_4604" data-name="パス 4604" d="M865.826,174.075l.017.005-.027-.018h-.006l.017.012" transform="translate(-743.964 -149.567)" fill="#323232"/>
    <path id="パス_4605" data-name="パス 4605" d="M865.751,174.025h.006l-.01-.006h-.006l.009.007" transform="translate(-743.907 -149.529)" fill="#323232"/>
    <path id="パス_4606" data-name="パス 4606" d="M865.949,174.167l.017,0-.022-.014-.017-.005.022.016" transform="translate(-744.066 -149.643)" fill="#323232"/>
    <path id="パス_4607" data-name="パス 4607" d="M865.252,173.852h0l-.043.01.007,0,.038-.011" transform="translate(-743.447 -149.385)" fill="#323232"/>
    <path id="パス_4608" data-name="パス 4608" d="M865.128,173.927l.012,0-.007,0-.012,0,.007,0" transform="translate(-743.373 -149.445)" fill="#323232"/>
    <path id="パス_4609" data-name="パス 4609" d="M866.1,174.209s0,0,0,0,.037.007.055.013l-.1-.033.022.014.025.006" transform="translate(-744.171 -149.675)" fill="#323232"/>
    <path id="パス_4610" data-name="パス 4610" d="M739.494,152.449h0l-.022.034.013-.011.013-.023" transform="translate(-635.404 -130.995)" fill="#323232"/>
    <path id="パス_4611" data-name="パス 4611" d="M867.183,174.925v0l0,0v0l0,0" transform="translate(-745.142 -150.304)" fill="#323232"/>
    <path id="パス_4612" data-name="パス 4612" d="M867.1,174.868v0l-.014-.009,0,.005.011.006" transform="translate(-745.059 -150.249)" fill="#323232"/>
    <path id="パス_4613" data-name="パス 4613" d="M867.205,175.085l.008.008,0-.019-.007-.012c0,.008,0,.015,0,.023" transform="translate(-745.161 -150.426)" fill="#323232"/>
    <path id="パス_4614" data-name="パス 4614" d="M866.954,174.777l0-.005-.022-.014,0,.007.022.012" transform="translate(-744.927 -150.164)" fill="#323232"/>
    <path id="パス_4615" data-name="パス 4615" d="M864.929,173.849l.012,0-.039-.012,0,0,.032.012" transform="translate(-743.181 -149.37)" fill="#323232"/>
    <path id="パス_4616" data-name="パス 4616" d="M866.377,174.318h0s0,0,0,0" transform="translate(-744.451 -149.785)" fill="#323232"/>
    <path id="パス_4617" data-name="パス 4617" d="M866.4,174.354l.013.008-.028-.029h0l.017.022" transform="translate(-744.459 -149.798)" fill="#323232"/>
    <path id="パス_4618" data-name="パス 4618" d="M866.527,174.508l.014.008-.02-.021-.013-.008.018.021" transform="translate(-744.566 -149.932)" fill="#323232"/>
    <path id="パス_4619" data-name="パス 4619" d="M866.647,174.581l0-.007-.047-.03.02.021.029.016" transform="translate(-744.642 -149.981)" fill="#323232"/>
    <path id="パス_4620" data-name="パス 4620" d="M740.975,152.141l-.037,0-.026.007.05.006H741l-.027-.011" transform="translate(-636.644 -130.729)" fill="#323232"/>
    <path id="パス_4621" data-name="パス 4621" d="M741.383,152.029l-.031-.023-.036.01.036.011h.031" transform="translate(-636.991 -130.614)" fill="#323232"/>
    <path id="パス_4622" data-name="パス 4622" d="M741.285,152.089l-.036-.011-.011,0,.018.007h.029" transform="translate(-636.924 -130.676)" fill="#323232"/>
    <path id="パス_4623" data-name="パス 4623" d="M741.6,152.168h.013l-.01-.007h-.031l.028.009" transform="translate(-637.21 -130.746)" fill="#323232"/>
    <path id="パス_4624" data-name="パス 4624" d="M741.363,152.15l.027.011h.03l-.028-.009h-.029" transform="translate(-637.031 -130.738)" fill="#323232"/>
    <path id="パス_4625" data-name="パス 4625" d="M741.611,152.23l-.025-.008h-.03l.033.013.045.011-.023-.017" transform="translate(-637.197 -130.8)" fill="#323232"/>
    <path id="パス_4626" data-name="パス 4626" d="M741.117,152.1l-.02.006h.038l-.018-.007" transform="translate(-636.803 -130.695)" fill="#323232"/>
    <path id="パス_4627" data-name="パス 4627" d="M741.795,152.228l-.011-.008h-.013l.025.008" transform="translate(-637.381 -130.798)" fill="#323232"/>
    <path id="パス_4628" data-name="パス 4628" d="M741.268,152.229l.073.012-.033-.013h-.04" transform="translate(-636.95 -130.805)" fill="#323232"/>
    <path id="パス_4629" data-name="パス 4629" d="M739.056,153l-.019.029-.006.024.027-.034.019-.035-.021.016" transform="translate(-635.028 -131.458)" fill="#323232"/>
    <path id="パス_4630" data-name="パス 4630" d="M718.981,137.715a2.809,2.809,0,0,0-2.243-.208,1.375,1.375,0,0,1,.823.1,1.279,1.279,0,0,1,.644.7,1.294,1.294,0,0,1-.044.983,1.26,1.26,0,0,1-.563.568l.039.012.043-.01-.021-.015.023.015.035-.008-.033.009.035.023.089,0c-.027,0-.053,0-.079,0l.027.018.1.033c-.018-.005-.037-.008-.055-.013l.028.03.047.03c-.009-.031,0-.016.022.014l.014.009c0-.01,0-.02,0-.03l.007.032.017.011-.017-.009.007.028.017.033.016.017c0-.013,0-.025,0-.038,0,.013,0,.027,0,.041s.006.007,0,0,0,.01,0,.015c.021.044.029.071,0,.03,0,.014,0,.027,0,.041l.027.119c-.008-.032-.018-.063-.028-.094q0,.094-.008.188c0-.051,0-.1,0-.15-.025.19-.067.379-.1.566l-.277,1.572-.926,5.253-1.124,6.375-.974,5.527c-.124.7-.262,1.405-.381,2.11l.707-.343-.808.968c0-.013,0-.025.007-.037.029-.2.061-.392.094-.588l-3.21,1.557-6.246,3.03-.728.353.549.566-1.259-.222.71-.344-2.481-2.559-4.832-4.984-.573-.591-.111.63-.428-1.186.539.556.279-1.584.936-5.307,1.125-6.378.966-5.479c.153-.866.3-1.734.458-2.6,0-.025.012-.049.017-.073-.023.052-.046.105-.064.16l.057-.18c-.02.026-.04.052-.059.08l.066-.1.011-.036,0,0c-.041.028-.023.005.012-.029l.019-.059c-.005.017-.008.035-.013.053l.045-.042.022-.034-.019,0,.02,0,.018-.027c-.005.009-.009.018-.014.027l.022-.005c.023-.018.035-.024.02,0l.064-.015.025-.016c-.018,0-.036-.005-.055-.007l.109,0,.032-.007c-.025-.01-.048-.021-.073-.03l.085.027.041-.009-.027-.02.03.019.026-.006-.025.007.037.024.106,0c-.032,0-.064,0-.1,0l.023.015.124.04c-.033-.01-.067-.016-.1-.024l.15.1c-.045-.028-.091-.052-.138-.075a7.388,7.388,0,0,1,.688.715l1.623,1.735,3.748,4.008.861.921a1.219,1.219,0,0,0,1.259.222l3.021-1.534,4.811-2.443,1.1-.558a1.288,1.288,0,0,1-1.628-.748,1.27,1.27,0,0,1,.544-1.524l-2.817,1.43-4.811,2.443-.385.2.546.584-1.259-.222.713-.362-2.5-2.674-3.69-3.946a2.868,2.868,0,0,0-4.143.147,3.416,3.416,0,0,0-.734,1.794l-.7,3.995-1.134,6.433-1.144,6.491-.737,4.179-.071.4c0,.027-.01.055-.015.082a1.347,1.347,0,0,0,.432,1.2c.293.306.59.608.884.912l4.313,4.448,3.579,3.691.193.2a1.225,1.225,0,0,0,1.259.222l2.265-1.1,4.685-2.273,3.943-1.913c.235-.114.471-.226.7-.342a1.372,1.372,0,0,0,.812-.977c0-.019.006-.038.01-.057.017-.086.031-.173.046-.26l.487-2.762.817-4.634.943-5.347.864-4.9.581-3.3c.04-.228.081-.456.121-.685a2.912,2.912,0,0,0-1.443-3.054" transform="translate(-595.878 -115.4)" fill="#323232"/>
    <path id="パス_4631" data-name="パス 4631" d="M795.473,187.727l-.546-.584-.713.362,1.259.222" transform="translate(-682.445 -160.807)" fill="#323232"/>
    <path id="パス_4632" data-name="パス 4632" d="M741.789,152.321l.079.038-.034-.027-.045-.011" transform="translate(-637.397 -130.885)" fill="#323232"/>
    <path id="パス_4633" data-name="パス 4633" d="M739.588,152.486l-.04.03,0,0c.021-.012.05-.031.083-.055l-.017.006-.023.014" transform="translate(-635.469 -131.009)" fill="#323232"/>
    <path id="パス_4634" data-name="パス 4634" d="M739.24,152.873c-.006.012-.013.023-.019.035l.045-.054-.006,0-.021.016" transform="translate(-635.191 -131.343)" fill="#323232"/>
    <path id="パス_4635" data-name="パス 4635" d="M740.451,152.15l-.021.015.051-.012-.029,0" transform="translate(-636.23 -130.738)" fill="#323232"/>
    <path id="パス_4636" data-name="パス 4636" d="M740.366,152.176l-.05.012-.019.013.034-.005.052-.017-.017,0" transform="translate(-636.115 -130.76)" fill="#323232"/>
    <path id="パス_4637" data-name="パス 4637" d="M740.137,152.336l.057-.021-.034.005-.023.016" transform="translate(-635.978 -130.88)" fill="#323232"/>
    <path id="パス_4638" data-name="パス 4638" d="M740.541,152.208c.034,0,.068-.009.1-.011l-.05-.006-.052.017" transform="translate(-636.325 -130.773)" fill="#323232"/>
    <path id="パス_4639" data-name="パス 4639" d="M739.667,152.4l.006,0-.022.005v0l.018,0" transform="translate(-635.559 -130.952)" fill="#323232"/>
    <path id="パス_4640" data-name="パス 4640" d="M740.582,152.147h0" transform="translate(-636.36 -130.735)" fill="#323232"/>
    <path id="パス_4641" data-name="パス 4641" d="M740.805,152.142l.026-.007h-.018l-.026.006.017,0" transform="translate(-636.538 -130.724)" fill="#323232"/>
    <path id="パス_4642" data-name="パス 4642" d="M851.839,158.611a1.288,1.288,0,0,0,1.628.748l.048-.025c-.036.005-.072.009-.109.016l.137-.031.02-.011c-.029,0-.056-.008-.085-.01l.1,0,.03-.017c-.019-.007-.038-.016-.057-.023l.062.02a1.261,1.261,0,0,0,.563-.568,1.294,1.294,0,0,0,.044-.983,1.277,1.277,0,0,0-.644-.7,1.376,1.376,0,0,0-.823-.1c-.054.017-.108.036-.16.057l-.2.1a1.27,1.27,0,0,0-.544,1.524" transform="translate(-731.887 -134.819)" fill="#323232"/>
    <path id="パス_4643" data-name="パス 4643" d="M740.248,152.109l.029,0,.025-.006-.109,0c.019,0,.036,0,.055.007h0" transform="translate(-636.026 -130.697)" fill="#323232"/>
    <path id="パス_4644" data-name="パス 4644" d="M740.265,152.271l.019-.013h0l-.021.013h.005" transform="translate(-636.084 -130.831)" fill="#323232"/>
    <path id="パス_4645" data-name="パス 4645" d="M739.629,152.434h0v0h0v0" transform="translate(-635.538 -130.982)" fill="#323232"/>
    <path id="パス_4646" data-name="パス 4646" d="M739.968,152.276l.021-.013-.064.015,0,.006.048-.007" transform="translate(-635.792 -130.835)" fill="#323232"/>
    <path id="パス_4647" data-name="パス 4647" d="M739.8,152.373l0-.006-.02,0-.005,0,.02,0" transform="translate(-635.668 -130.924)" fill="#323232"/>
    <path id="パス_4648" data-name="パス 4648" d="M741.876,152.226l.021.007-.023-.015h-.009l.011.008" transform="translate(-637.463 -130.796)" fill="#323232"/>
    <path id="パス_4649" data-name="パス 4649" d="M741.6,152.024h.008l-.037-.024h0l.031.023" transform="translate(-637.212 -130.61)" fill="#323232"/>
    <path id="パス_4650" data-name="パス 4650" d="M742.143,152.425c.046.024.093.047.138.075l-.15-.1-.021-.005.034.027" transform="translate(-637.672 -130.951)" fill="#323232"/>
    <path id="パス_4651" data-name="パス 4651" d="M741.8,152.175h.009l-.011-.007h-.008l.01.007" transform="translate(-637.402 -130.753)" fill="#323232"/>
    <path id="パス_4652" data-name="パス 4652" d="M741.967,152.295l.021.005-.024-.015-.021-.006.023.017" transform="translate(-637.531 -130.848)" fill="#323232"/>
    <path id="パス_4653" data-name="パス 4653" d="M741.212,152.067l-.006,0-.011,0,.006,0,.011,0" transform="translate(-636.887 -130.665)" fill="#323232"/>
    <path id="パス_4654" data-name="パス 4654" d="M741.008,152.085l-.006,0-.032.007h.018l.02-.006" transform="translate(-636.694 -130.68)" fill="#323232"/>
    <path id="パス_4655" data-name="パス 4655" d="M741.566,151.995h0" transform="translate(-637.203 -130.604)" fill="#323232"/>
    <path id="パス_4656" data-name="パス 4656" d="M741.316,152h0l-.041.009.006,0,.036-.01" transform="translate(-636.955 -130.607)" fill="#323232"/>
    <path id="パス_4657" data-name="パス 4657" d="M738.187,34.7l.672,2.34,1.065,3.71.245.855a1.056,1.056,0,0,0,2.036-.561l-.672-2.34L740.468,35l-.245-.855a1.056,1.056,0,0,0-2.036.561" transform="translate(-634.268 -28.667)" fill="#fff050"/>
    <path id="パス_4658" data-name="パス 4658" d="M810.873,30.613l-.411,2.979-.655,4.742-.149,1.082a1.165,1.165,0,0,0,.107.813,1.055,1.055,0,0,0,1.444.379,1.012,1.012,0,0,0,.485-.631L812.1,37l.655-4.742.15-1.082a1.164,1.164,0,0,0-.106-.813,1.055,1.055,0,0,0-1.444-.379,1.011,1.011,0,0,0-.485.631" transform="translate(-695.692 -25.642)" fill="#fff050"/>
    <path id="パス_4659" data-name="パス 4659" d="M867.244,61.679,865.4,63.759l-2.934,3.313-.671.758a1.055,1.055,0,0,0,1.493,1.493l1.842-2.079,2.934-3.313.671-.758a1.055,1.055,0,0,0-1.493-1.493" transform="translate(-740.258 -52.738)" fill="#fff050"/>
  </g>
</svg>
