<svg id="グループ_4434" data-name="グループ 4434" xmlns="http://www.w3.org/2000/svg" xmlns:xlink="http://www.w3.org/1999/xlink" width="165.709" height="128.314" viewBox="0 0 165.709 128.314">
  <defs>
    <clipPath id="clip-path">
      <rect id="長方形_555" data-name="長方形 555" width="165.709" height="128.314" fill="none"/>
    </clipPath>
  </defs>
  <g id="グループ_4433" data-name="グループ 4433" clip-path="url(#clip-path)">
    <path id="パス_4371" data-name="パス 4371" d="M14.482,4.994a9.609,9.609,0,0,0-7.94,4.024A9.339,9.339,0,0,0,4.973,13.8c-.015.394-.168,1.48.186,1.684.2.118.7-.014.942-.04l1.435-.152a1.154,1.154,0,0,0,.153-.052c.177-.349.042.137.154-.266a12.783,12.783,0,0,0,.125-1.486,8.761,8.761,0,0,1,.2-1.026,6.853,6.853,0,0,1,.8-1.879A6.463,6.463,0,0,1,17.6,8.575a6.24,6.24,0,0,1,2.763,4.166,6.484,6.484,0,0,1-.718,4.229c-1.38,2.835-3.65,5.471-3.588,8.777a13.1,13.1,0,0,0,.355,2.659c.055.241.066.686.258.873a.336.336,0,0,0,.283.068,10.637,10.637,0,0,0,1.907-.506.289.289,0,0,0,.244-.293,7.449,7.449,0,0,0-.242-1.474,5.63,5.63,0,0,1,.132-2.305c.568-1.96,1.813-3.679,2.738-5.479a14.7,14.7,0,0,0,1.617-4.25,8.735,8.735,0,0,0-1.1-5.6,8.9,8.9,0,0,0-7.765-4.451" transform="translate(-2.392 -2.424)" fill="#3c9de8"/>
    <path id="パス_4372" data-name="パス 4372" d="M39.442,68.152s.012.074.022.126c0-.067-.007-.12-.022-.126" transform="translate(-19.145 -33.081)" fill="#91c8d2"/>
    <path id="パス_4373" data-name="パス 4373" d="M34.837,72.677c-.077-.006-.153-.009,0,0" transform="translate(-16.867 -35.275)" fill="#91c8d2"/>
    <path id="パス_4374" data-name="パス 4374" d="M35.042,72.7a.153.153,0,0,0-.056-.009.22.22,0,0,0,.056.009" transform="translate(-16.982 -35.283)" fill="#91c8d2"/>
    <path id="パス_4375" data-name="パス 4375" d="M35.628,66.6c-.019-.089-.037-.178-.059-.266-.012-.043-.03-.149-.056-.234a.419.419,0,0,1-.03-.049c-.082-.155-.171-.3-.262-.454v0c-.022-.025-.043-.051-.065-.076-.038-.042-.077-.084-.118-.124-.063-.063-.139-.118-.2-.182-.145-.09-.287-.173-.436-.255l-.005,0h0c-.082-.026-.162-.056-.244-.079s-.166-.04-.25-.06l-.013,0a4.4,4.4,0,0,0-.466-.008l-.067,0c-.07.015-.141.028-.21.045s-.147.039-.219.062c-.022.007-.306.087-.1.029s-.057.029-.088.045c-.065.033-.129.068-.192.106s-.118.077-.179.115c-.12.112-.237.224-.351.343-.019.02-.033.033-.045.044-.026.042-.05.089-.06.1-.072.113-.122.243-.2.354-.024.077-.052.152-.074.229s-.038.167-.06.25v0c-.008.13-.018.259-.014.39,0,.016,0,.082,0,.138l.011.05c.031.165.084.322.13.483,0,.01,0,.012,0,.02l0,0c.034.065.065.131.1.2s.073.126.113.187l.035.05.08.1c.048.053.1.1.149.154s.105.1.157.144l0,0,.006,0c.133.082.266.161.4.238l.055.032c.046.014.1.027.111.031s.276.075.394.1c.08.005.158.011.238.012s.176-.007.264-.007h.009c.135-.027.269-.053.4-.094.02-.006.06-.014.1-.024l.052-.024.079-.039c.131-.066.251-.147.375-.223l.008,0,.005,0c.052-.049.107-.1.158-.145s.1-.1.148-.154c.011-.011.064-.081.091-.114l.02-.029q.069-.107.131-.219c.027-.049.051-.1.078-.151l0-.005h0c.046-.151.1-.3.129-.452l.015-.072c0-.046.005-.09.006-.1,0-.033.014-.217.012-.348l-.012-.058" transform="translate(-15.321 -31.456)" fill="#3c9de8"/>
    <path id="パス_4376" data-name="パス 4376" d="M37.059,72.371l-.107.047a.227.227,0,0,0,.107-.047" transform="translate(-17.937 -35.129)" fill="#91c8d2"/>
    <path id="パス_4377" data-name="パス 4377" d="M39.435,69.372a.455.455,0,0,0-.009.071.348.348,0,0,0,.009-.071" transform="translate(-19.138 -33.673)" fill="#91c8d2"/>
    <path id="パス_4378" data-name="パス 4378" d="M16.4.82A12.442,12.442,0,0,0,5.127,2.068,11.761,11.761,0,0,0,0,11.822,4.008,4.008,0,0,0,.833,14.77a2.943,2.943,0,0,0,2.287.886A12.943,12.943,0,0,0,5.987,15.3a2.929,2.929,0,0,0,1.927-1.992c.218-.783.107-1.631.3-2.428a3.6,3.6,0,0,1,2.131-2.706,3.707,3.707,0,0,1,4.264.8,3.761,3.761,0,0,1,.633,3.813c-.029.063-.1.225-.118.26-.064.136-.13.27-.2.4-.2.4-.416.8-.636,1.2-.5.912-1.062,1.8-1.549,2.719a12.843,12.843,0,0,0-1.638,5.2,13.452,13.452,0,0,0,.193,2.842,7.248,7.248,0,0,0,.757,2.738,2.923,2.923,0,0,0,2.5,1.343,6.525,6.525,0,0,0,1.457-.3l1.134-.3a1.434,1.434,0,0,0,.285-.109A2.924,2.924,0,0,0,19.172,26.9c.279-.975-.146-1.914-.2-2.888-.008-.155-.008-.309,0-.464,0-.03,0-.049,0-.061.01-.059.022-.117.036-.175a5.793,5.793,0,0,1,.3-.923,26.21,26.21,0,0,1,1.46-2.739,30.458,30.458,0,0,0,2.28-4.851,10.6,10.6,0,0,0,.256-5.97,11.567,11.567,0,0,0-6.9-8m4.557,11.8a14.685,14.685,0,0,1-1.617,4.251c-.924,1.8-2.17,3.519-2.737,5.479a5.614,5.614,0,0,0-.132,2.306,7.476,7.476,0,0,1,.242,1.473.289.289,0,0,1-.244.292,10.633,10.633,0,0,1-1.907.506.335.335,0,0,1-.282-.068c-.192-.187-.2-.632-.258-.873a13.112,13.112,0,0,1-.355-2.66c-.062-3.305,2.209-5.942,3.588-8.776a6.488,6.488,0,0,0,.718-4.229,6.24,6.24,0,0,0-2.763-4.167A6.463,6.463,0,0,0,6.57,8.159a6.841,6.841,0,0,0-.8,1.879,8.676,8.676,0,0,0-.2,1.026,12.68,12.68,0,0,1-.126,1.487c-.111.4.023-.084-.153.266a1.181,1.181,0,0,1-.153.052l-1.436.152c-.238.026-.738.157-.942.04-.353-.2-.2-1.291-.186-1.684A9.338,9.338,0,0,1,4.15,6.594,9.607,9.607,0,0,1,12.09,2.57,8.9,8.9,0,0,1,19.855,7.02a8.731,8.731,0,0,1,1.1,5.6" transform="translate(0 0)" fill="#353535"/>
    <path id="パス_4379" data-name="パス 4379" d="M31.538,59.816a4.588,4.588,0,0,0-4.479,2.566,4.606,4.606,0,1,0,4.479-2.566m-.618,6.613a.159.159,0,0,1,.055.01.242.242,0,0,1-.055-.01m-.034,0c-.153-.009-.077-.006,0,0m1.046-.114.107-.046a.227.227,0,0,1-.107.046M33.2,64.794a.341.341,0,0,1,.009-.071.348.348,0,0,1-.009.071m.018-.216c0,.01,0,.054-.006.1l-.015.072c-.032.154-.083.3-.129.452h0l0,.005c-.027.049-.051.1-.078.151-.041.074-.085.147-.131.218l-.02.029c-.027.033-.08.1-.091.115-.047.052-.1.1-.148.153s-.106.1-.158.145l0,0-.008,0c-.125.077-.244.157-.375.224l-.079.039-.052.024c-.04.01-.079.018-.1.024-.132.041-.266.066-.4.094h-.009c-.088,0-.175.008-.264.007s-.158-.007-.238-.012c-.118-.027-.366-.092-.395-.1s-.064-.017-.111-.031l-.055-.032c-.135-.077-.269-.156-.4-.238l-.006,0,0,0c-.052-.049-.107-.094-.157-.144s-.1-.1-.149-.154l-.08-.1-.035-.05q-.059-.092-.113-.187c-.036-.064-.067-.13-.1-.2l0,0c0-.008,0-.01,0-.02-.046-.161-.1-.317-.13-.483,0-.022-.008-.035-.011-.05,0-.057,0-.122,0-.138,0-.131.006-.259.015-.39v0c.022-.083.037-.167.06-.25s.049-.152.074-.229c.073-.111.124-.241.2-.354.01-.015.034-.062.06-.1.012-.011.026-.024.045-.044.115-.118.231-.231.351-.343.06-.037.118-.078.179-.115s.127-.073.192-.106c.031-.016.285-.1.089-.045s.077-.022.1-.029q.109-.035.219-.062c.07-.017.14-.03.21-.045l.067,0a4.4,4.4,0,0,1,.466.008l.013,0c.084.02.167.037.25.06s.162.053.244.079h0l.005,0c.149.082.292.166.436.255.062.064.138.119.2.182.041.04.08.082.118.124.022.025.043.05.065.076v0c.092.15.18.3.262.454a.447.447,0,0,0,.03.049c.026.085.044.191.057.234.022.089.039.177.058.266l.012.058c0,.131-.01.315-.012.348m-.01-.483c.014.005.02.058.022.126-.01-.051-.024-.127-.022-.126" transform="translate(-12.915 -29.025)" fill="#2e2e2e"/>
    <path id="パス_4380" data-name="パス 4380" d="M296.793,121.743a.321.321,0,0,0-.084-.108l.084.108" transform="translate(-144.023 -59.042)" fill="#91c8d2"/>
    <path id="パス_4381" data-name="パス 4381" d="M289.876,122.635s.013-.042.027-.08a.184.184,0,0,0-.027.08" transform="translate(-140.706 -59.488)" fill="#91c8d2"/>
    <path id="パス_4382" data-name="パス 4382" d="M292.016,120.41l.13-.055a.3.3,0,0,0-.13.055" transform="translate(-141.745 -58.421)" fill="#91c8d2"/>
    <path id="パス_4383" data-name="パス 4383" d="M290.326,126.366a.376.376,0,0,0,.094.122c-.013-.015-.044-.056-.094-.122" transform="translate(-140.925 -61.338)" fill="#91c8d2"/>
    <path id="パス_4384" data-name="パス 4384" d="M293.637,122.7c.022-.08.032-.163.048-.244a3.346,3.346,0,0,0,.017-.413c0-.045-.005-.091-.009-.136s-.018-.093-.029-.138c-.023-.1-.057-.2-.084-.3q-.02-.063-.043-.124c.021.049.042.1.064.146.005-.125-.183-.36-.246-.457l-.047-.072-.045-.065c-.017-.017-.037-.035-.048-.048-.057-.062-.258-.329-.345-.328q.221.166.053.043c-.047-.033-.1-.065-.146-.1s-.1-.061-.151-.089c-.023-.013-.169-.078-.213-.1l-.049-.017a1.593,1.593,0,0,0-.5-.126c.074,0,.241.018.035.015-.092,0-.183-.009-.274-.008-.06,0-.12.005-.18.007h-.023c-.14.031-.279.059-.416.1l-.083.028c-.048.018-.068.025-.076.027s-.042.026-.056.033c-.116.06-.223.133-.334.2l-.017.01c-.042.038-.085.074-.127.113s-.3.237-.3.315q.166-.221.044-.052c-.033.048-.066.1-.1.146s-.06.1-.089.151c-.012.023-.043.068-.07.115,0,.015-.01.034-.019.062-.044.145-.091.287-.122.435-.008.037-.021.311-.021.1s0,.08,0,.1c0,.091,0,.182,0,.273a.724.724,0,0,0,.021.129c.02.07.012.05,0,0-.007-.026-.017-.06-.033-.114.042.139.053.29.094.43.016.056.038.111.054.167l0,.02c.066.127.129.253.207.374.023.037.047.073.073.108s.029.042.024.037c.028.028.056.054.073.072.085.091.2.167.274.26.058.037.113.076.172.112s.126.074.191.108l.114.05.156.053c.058.017.116.033.175.047s.109.029.17.041a.235.235,0,0,1,.035,0h.475c.055-.012.109-.021.164-.034.1-.023.2-.057.3-.084.042-.013.083-.028.124-.044l-.146.064a1.21,1.21,0,0,0,.384-.2,1.954,1.954,0,0,1,.174-.114c.1-.093.2-.184.3-.286.039-.043.077-.086.114-.131l-.094.123c.049-.023.118-.17.147-.216.053-.085.218-.291.207-.388,0,.007-.1.3-.03.06.026-.086.057-.17.08-.258" transform="translate(-140.586 -58.315)" fill="#3c9de8"/>
    <path id="パス_4385" data-name="パス 4385" d="M294.513,59.874a9.693,9.693,0,0,0-9.432.855A9.309,9.309,0,0,0,282.2,64.2c-.2.407-.7,1.342-.609,1.7.069.259.41.288.659.358l1.421.4c.269.076.48.178.664-.085a10.369,10.369,0,0,0,.506-1.074,8.214,8.214,0,0,1,.567-.92,7.518,7.518,0,0,1,1.677-1.73A6.445,6.445,0,0,1,295.5,63.9,6.308,6.308,0,0,1,296.78,69.2a6.183,6.183,0,0,1-2.106,3.5c-2.307,2.1-5.526,3.746-6.677,6.817a14.32,14.32,0,0,0-.66,2.479,3.873,3.873,0,0,0-.145.985c.02.165.062.134.131.264,0,.007.107.04.156.059l.093.012c.219.029.437.055.656.082l1.042.13c.676.046.564-.642.684-1.187a7,7,0,0,1,2.334-3.834c1.376-1.244,2.9-2.316,4.247-3.592a10.46,10.46,0,0,0,2.516-3.17,8.885,8.885,0,0,0-4.538-11.863" transform="translate(-136.681 -28.658)" fill="#3c9de8"/>
    <path id="パス_4386" data-name="パス 4386" d="M296.24,57.108a12.627,12.627,0,0,0-10.721-2.816,11.67,11.67,0,0,0-8.319,7.037,4.434,4.434,0,0,0-.486,2.838A2.981,2.981,0,0,0,278.73,66.2a15.59,15.59,0,0,0,2.5.667,2.87,2.87,0,0,0,2.633-1.015c.582-.708.818-1.647,1.368-2.391a3.553,3.553,0,0,1,2.979-1.552,3.664,3.664,0,0,1,3.483,2.11,3.964,3.964,0,0,1,.09,2.576,4.575,4.575,0,0,1-.473,1,.2.2,0,0,0-.012.026l-.056.057c-.1.105-.2.213-.3.316-2.5,2.509-5.938,4.155-7.459,7.522a13.767,13.767,0,0,0-.9,2.724,7.294,7.294,0,0,0-.293,2.917,2.887,2.887,0,0,0,1.866,2.122,7.353,7.353,0,0,0,1.488.248l1.224.153a2.914,2.914,0,0,0,2.618-1.313,11.179,11.179,0,0,0,.8-2.693,3.863,3.863,0,0,1,1.051-1.423c.748-.728,1.588-1.349,2.4-2.007,2.775-2.261,5.5-4.817,6.1-8.531a11.6,11.6,0,0,0-3.583-10.6m.405,12.209a10.467,10.467,0,0,1-2.517,3.17c-1.352,1.276-2.871,2.348-4.247,3.592a7,7,0,0,0-2.334,3.834c-.12.545-.008,1.233-.684,1.188l-1.042-.13c-.219-.027-.438-.053-.656-.082l-.093-.012c-.048-.019-.152-.052-.155-.059-.069-.13-.111-.1-.131-.264a3.873,3.873,0,0,1,.145-.985,14.365,14.365,0,0,1,.659-2.48c1.151-3.072,4.369-4.722,6.677-6.817a6.18,6.18,0,0,0,2.106-3.5,6.306,6.306,0,0,0-1.281-5.292,6.445,6.445,0,0,0-8.411-1.054,7.541,7.541,0,0,0-1.677,1.73,8.218,8.218,0,0,0-.567.92,10.482,10.482,0,0,1-.506,1.074c-.185.263-.4.161-.664.085l-1.421-.4c-.249-.07-.59-.1-.659-.358-.1-.356.409-1.29.608-1.7a9.316,9.316,0,0,1,2.88-3.476,9.693,9.693,0,0,1,9.432-.855,8.941,8.941,0,0,1,5.267,6.945,8.852,8.852,0,0,1-.73,4.918" transform="translate(-134.275 -26.239)" fill="#353535"/>
    <path id="パス_4387" data-name="パス 4387" d="M289.692,124.623c.012.05.02.07,0,0" transform="translate(-140.617 -60.492)" fill="#2e2e2e"/>
    <path id="パス_4388" data-name="パス 4388" d="M291.412,115.7a4.6,4.6,0,0,0-6.305,6.024,4.6,4.6,0,0,0,8.7-1.19c.01-.073.017-.142.023-.212.008-.043.019-.085.024-.13a4.6,4.6,0,0,0-2.445-4.492m-.452,2.917-.084-.108a.316.316,0,0,1,.084.108m-2.369-.767-.13.055a.314.314,0,0,1,.13-.055m-1.2,1.133c-.013.038-.027.077-.026.079a.178.178,0,0,1,.026-.079m.205,1.961c.05.066.081.107.094.122a.371.371,0,0,1-.094-.122m3.6-.445c.011.1-.154.3-.207.388-.028.046-.1.193-.147.216l.094-.124c-.037.045-.075.089-.114.131-.094.1-.2.193-.3.286a1.812,1.812,0,0,0-.174.114,1.221,1.221,0,0,1-.384.2l.146-.064c-.041.016-.082.03-.124.044-.1.026-.2.061-.295.084-.055.012-.11.022-.164.033h-.476a.236.236,0,0,0-.035,0c-.061-.013-.124-.03-.169-.041s-.117-.03-.175-.047l-.156-.053-.114-.05q-.1-.051-.191-.108c-.058-.035-.114-.075-.171-.111-.079-.094-.19-.17-.275-.261-.017-.018-.045-.044-.073-.072.005.005,0,0-.024-.037s-.049-.071-.073-.108c-.077-.121-.141-.247-.207-.374l0-.02c-.015-.056-.037-.111-.053-.167-.041-.141-.052-.291-.095-.431.016.055.026.089.033.115a.774.774,0,0,1-.021-.129c0-.091,0-.182,0-.273,0-.025,0-.324,0-.1s.014-.066.022-.1c.031-.148.078-.29.122-.435l.018-.061c.027-.047.058-.093.071-.115.028-.051.058-.1.089-.151s.063-.1.1-.146c.082-.113.067-.095-.043.052,0-.078.242-.265.3-.315s.085-.075.128-.113l.017-.009c.112-.066.219-.139.335-.2l.056-.033.076-.027.083-.028c.137-.044.276-.072.416-.1h.023c.06,0,.12-.007.181-.007.092,0,.182.006.274.008.206,0,.039-.012-.035-.015a1.582,1.582,0,0,1,.5.126l.049.017c.043.023.189.088.213.1.051.028.1.058.151.089s.1.063.146.1q.168.123-.053-.043c.087,0,.289.267.345.328.012.013.031.031.048.048s.016.025.045.064l.048.072c.062.1.251.333.245.458l-.064-.146c.015.041.03.082.044.124.026.1.061.2.084.3.011.046.019.092.028.138s.007.091.009.136a3.356,3.356,0,0,1-.017.413c-.015.081-.026.164-.048.244s-.054.171-.08.258c-.073.24.03-.053.03-.06" transform="translate(-138.19 -55.914)" fill="#2e2e2e"/>
    <path id="パス_4389" data-name="パス 4389" d="M189.661,184.691c.016.042.082.174,0,0" transform="translate(-92.062 -89.649)" fill="#91c8d2"/>
    <path id="パス_4390" data-name="パス 4390" d="M203.732,182.8l-.038.033c-.02.039-.038.08-.05.1l0,0c.045-.058-.044.086-.059.137s-.028.116-.044.173v0c0,.05-.006.1-.007.15,0,.02-.006.084-.006.14,0,.009,0,.015.007.028.032.142.079.277.114.417v0l0,.008c.032.06.062.12.1.179s.094.141.138.212c.063.073.126.146.194.214s.113.1.17.153c.12.069.236.144.357.211l.015.009.022.005c.059.017.116.038.175.054s.118.028.176.042l.032.008c.085,0,.2,0,.269-.008.049-.012.1-.022.146-.036s.071-.021.105-.033l.036-.021c-.113.027-.321.059.111-.062l.121-.1.586-.487,1.592-1.323c.328-.273.643-.578.976-.843.026-.048.058-.1.087-.149l.013-.021c.012-.041.022-.081.022-.08.016-.057.027-.116.043-.173l.012-.043c0-.079-.007-.167-.01-.216a.308.308,0,0,1-.009-.067c0-.033-.009-.067-.013-.083a2.311,2.311,0,0,0-.068-.287.311.311,0,0,1-.033-.046c-.034-.058-.062-.119-.1-.177-.047-.081-.278-.359-.1-.163-.08-.086-.155-.175-.241-.257-.064-.062-.2-.158-.159-.131-.08-.052-.158-.106-.243-.152-.011-.006-.045-.027-.08-.047l-.038-.01c-.118-.034-.244-.06-.362-.1-.043,0-.086-.005-.129-.006s-.087,0-.131,0h-.021l-.23.058-.008,0-.115.061-.071.038-.008.007-.526.428-2.53,2.055c-.07.059-.133.125-.2.186" transform="translate(-98.791 -87.355)" fill="#fff"/>
    <path id="パス_4391" data-name="パス 4391" d="M207.527,189.677a.285.285,0,0,0,.058-.017.153.153,0,0,1,.026-.022l.006-.005a.514.514,0,0,0-.062.028l-.028.016" transform="translate(-100.734 -92.048)" fill="#91c8d2"/>
    <path id="パス_4392" data-name="パス 4392" d="M187.827,202.812a11.547,11.547,0,0,0-1.4-5.167c-.423-.868-1.337-1.894-1.168-2.9.162-.963.363-1.922.539-2.883.266-1.447.529-2.9.756-4.349.025-.157.048-.315.072-.473.007-.047.013-.1.021-.143.019-.157.041-.314.051-.472a3.883,3.883,0,0,0-.206-1.493c-.031-.1-.065-.19-.1-.284l0-.007-.019-.038c-.9.048-1.787.051-2.687.028q-.317,3.53-.635,7.059a1.634,1.634,0,0,1-.116.477,1.927,1.927,0,0,1,.5.748c.056.171.093.352.139.526l.673,2.548,1.144,4.332a1.316,1.316,0,0,1,.034.525,25.643,25.643,0,0,1,2.4,1.967" transform="translate(-88.798 -89.606)" fill="#fff"/>
    <path id="パス_4393" data-name="パス 4393" d="M203.945,185.368a.121.121,0,0,0-.044.046l.044-.046" transform="translate(-98.974 -89.978)" fill="#91c8d2"/>
    <path id="パス_4394" data-name="パス 4394" d="M211.119,179.942c.046,0,.093-.006.092-.017a.382.382,0,0,0-.092.017" transform="translate(-102.478 -87.336)" fill="#91c8d2"/>
    <path id="パス_4395" data-name="パス 4395" d="M220.492,219.578c0-.011,0-.017-.007-.026l0,0c0,.01.006.02.009.03" transform="translate(-107.023 -106.569)" fill="#91c8d2"/>
    <path id="パス_4396" data-name="パス 4396" d="M214.433,183.394c-.009.043-.021.094-.019.093s.017-.047.019-.093" transform="translate(-104.077 -89.02)" fill="#91c8d2"/>
    <path id="パス_4397" data-name="パス 4397" d="M214.421,182.793c0-.109-.009-.085-.007-.038,0,.017.005.032.008.047v-.01" transform="translate(-104.077 -88.69)" fill="#91c8d2"/>
    <path id="パス_4398" data-name="パス 4398" d="M207.727,189.581l-.005,0-.021.017c.07-.028.148-.053.026-.019" transform="translate(-100.819 -92.015)" fill="#91c8d2"/>
    <path id="パス_4399" data-name="パス 4399" d="M214.445,182.939a.169.169,0,0,1-.016-.055s0,.014,0,.021a.093.093,0,0,0,.014.034" transform="translate(-104.084 -88.772)" fill="#91c8d2"/>
    <path id="パス_4400" data-name="パス 4400" d="M232.934,213.253c-.019.057-.03.115,0,0" transform="translate(-113.058 -103.513)" fill="#91c8d2"/>
    <path id="パス_4401" data-name="パス 4401" d="M211.42,193.8l-.31-.092-.019-.006h0c-.07,0-.139-.008-.208-.008s-.215.022-.229.02c-.1.025-.2.05-.306.078l-.015.007a.366.366,0,0,1-.076.04c-.03.015-.06.03-.089.047s-.163.109-.175.112l-.113.093-.629.52-2.8,2.309a3.129,3.129,0,0,0-.329.332c-.016.037-.117.191-.146.241-.011.02-.017.028-.025.04s0,.02-.01.038c-.015.05-.032.1-.046.149s-.019.081-.027.122c0,.013-.008.041-.02.09v.009c0,.086,0,.173,0,.259,0,.012,0,.038,0,.064.01.052.026.141.031.161.017.068.04.134.059.2,0,.012.005.018.008.027l.007.009c.029.044.05.1.076.143.01.017.087.13.11.168.086.1.177.189.27.282l.018.019.015.006c.061.031.119.074.179.11.042.025.074.041.094.052.04.014.08.03.12.042.072.023.231.05.264.061.118.007.236.013.356.009l.036,0c.06-.014.121-.026.181-.042l.107-.031,1.767-1.5a13.064,13.064,0,0,1,1.837-1.476c.04-.023.082-.04.122-.061.149-.13.3-.257.448-.389l.033-.028,0,0c.037-.06.078-.117.114-.178s.084-.179.1-.207c.031-.1.06-.2.089-.307v0c0-.089.006-.114.008-.106a.075.075,0,0,0,0-.011c0-.086,0-.172,0-.258v0c-.027-.124-.058-.245-.095-.367l0-.008c-.044-.076-.052-.1-.044-.087l-.017-.033c-.021-.038-.119-.177-.133-.206a3.554,3.554,0,0,0-.249-.257l-.028-.022-.1-.062c-.065-.039-.214-.1-.21-.105" transform="translate(-99.92 -94.02)" fill="#fff"/>
    <path id="パス_4402" data-name="パス 4402" d="M220.46,219.471c-.007-.027-.015-.054-.024-.081a.209.209,0,0,0,.024.081" transform="translate(-107 -106.492)" fill="#91c8d2"/>
    <path id="パス_4403" data-name="パス 4403" d="M226.856,211.711c0-.017.022-.092.036-.146,0-.035.007-.073.008-.089s0-.05,0-.084-.014-.085-.019-.1-.016-.056-.027-.093-.041-.089-.05-.1-.051-.078-.074-.113l-.037-.04c-.118-.12-.233-.244-.351-.365-.034-.036-.068-.073-.1-.108s-.073-.069-.109-.1a.5.5,0,0,0-.065-.045c-.051-.027-.344-.144-.085-.061-.069-.022-.136-.046-.207-.065-.049-.013-.1-.022-.149-.032l-.042,0c-.063,0-.131,0-.195,0l-.207.055-.016.007c-.1.065-.339.238-.175.091l-.021.019-.136.119-3.35,2.941-.63.553c-.049.043-.1.085-.147.129l-.016.014c-.034.032-.144.134-.13.124a.127.127,0,0,1-.017.01l-.08.135c0,.01-.019.033-.036.06,0,.007-.006.013-.008.021-.007.027-.015.057-.022.087a.391.391,0,0,1-.02.081s0,.009,0,.013c0,.026,0,.055,0,.082a.356.356,0,0,1,0,.1v0c.009.031.019.064.028.1a.585.585,0,0,1,.025.084l.01.02c.019.03.166.226.1.164.013.014.025.029.038.042.049.048.1.1.144.149l.307.319c.054.053.2.159.139.124l.129.079c.022.013.032.021.045.03s.026,0,.048.011l.209.056.018.005.014,0a1.109,1.109,0,0,1,.215,0l.015,0,.017,0,.208-.056.044-.01c.012-.009.024-.018.046-.033l.138-.087.131-.115,1.718-1.508,1.823-1.6c.171-.15.343-.3.514-.451l.083-.073c.056-.052.108-.108.163-.161-.035.034-.124.205,0,0,.033-.055.063-.111.1-.167l0-.014" transform="translate(-106.969 -102.012)" fill="#fff"/>
    <path id="パス_4404" data-name="パス 4404" d="M220.473,218.375l.035-.059c.015-.031-.016.008-.035.059" transform="translate(-107.018 -105.965)" fill="#91c8d2"/>
    <path id="パス_4405" data-name="パス 4405" d="M220.438,218.471c.01-.015.011-.018.017-.029v0l-.018.03" transform="translate(-107.001 -106.032)" fill="#91c8d2"/>
    <path id="パス_4406" data-name="パス 4406" d="M220.379,219.215v-.029l0-.008c0,.012,0,.025,0,.037" transform="translate(-106.972 -106.389)" fill="#91c8d2"/>
    <path id="パス_4407" data-name="パス 4407" d="M220.371,219.09c0-.031,0-.062,0-.094-.005-.006-.01.043,0,.094" transform="translate(-106.965 -106.301)" fill="#91c8d2"/>
    <path id="パス_4408" data-name="パス 4408" d="M220.377,218.724c.007-.025.013-.048.019-.074s-.015.024-.019.074" transform="translate(-106.971 -106.132)" fill="#91c8d2"/>
    <path id="パス_4409" data-name="パス 4409" d="M220.354,218.842c.006-.019.007-.023.011-.038V218.8c0,.015-.007.032-.012.046" transform="translate(-106.96 -106.204)" fill="#91c8d2"/>
    <path id="パス_4410" data-name="パス 4410" d="M117.386,168.265l-.006-.007c-.072-.094-.023-.029.006.007" transform="translate(-56.958 -81.649)" fill="#91c8d2"/>
    <path id="パス_4411" data-name="パス 4411" d="M230.144,210.143c.07-.012.173-.044,0,0" transform="translate(-111.712 -101.993)" fill="#91c8d2"/>
    <path id="パス_4412" data-name="パス 4412" d="M229.6,210.3c-.063.025-.109.065,0,0" transform="translate(-111.417 -102.08)" fill="#91c8d2"/>
    <path id="パス_4413" data-name="パス 4413" d="M214.825,204.354s-.058-.235-.1-.351a2.714,2.714,0,0,1-.132-.239.686.686,0,0,0-.049-.071,2.248,2.248,0,0,0-.273-.278,1.5,1.5,0,0,0-.666-.275l-.011,0-.122-.006c-.079,0-.157,0-.236.006a2.219,2.219,0,0,1-.289.075l-.926.781a19.522,19.522,0,0,1-2.693,2.152l-2.817,2.39a1.525,1.525,0,0,0-.537.814.9.9,0,0,0-.042.422,1.094,1.094,0,0,1,0,.112c.007.019.015.048.029.1s.037.138.059.2c.031.093-.01.011.071.156.048.087.1.166.156.25-.206-.323.142.153.213.219a1.334,1.334,0,0,0,.747.338c-.182-.035.246,0,.323,0a.56.56,0,0,1,.1,0,.534.534,0,0,1,.092-.038c.086-.029.173-.045.259-.08-.145.059.263-.167.284-.173l.008-.007c.189-.148.365-.314.547-.47l4.513-3.885a8.159,8.159,0,0,0,1.252-1.125,1.846,1.846,0,0,0,.253-.672,2.825,2.825,0,0,1-.005-.356" transform="translate(-99.956 -98.601)" fill="#fff"/>
    <path id="パス_4414" data-name="パス 4414" d="M206.324,189.894a.472.472,0,0,0-.09-.014c0,.009.04.013.09.014" transform="translate(-100.106 -92.168)" fill="#91c8d2"/>
    <path id="パス_4415" data-name="パス 4415" d="M205.856,201.831c.006-.028.013-.056.019-.084s-.016.03-.019.084" transform="translate(-99.923 -97.924)" fill="#91c8d2"/>
    <path id="パス_4416" data-name="パス 4416" d="M218.206,195.419c-.006-.009-.01-.02-.015-.029l0,.007.012.022" transform="translate(-105.91 -94.843)" fill="#91c8d2"/>
    <path id="パス_4417" data-name="パス 4417" d="M218.374,196.9c0-.016,0-.032,0-.049l0,.011c0,.013,0,.023,0,.038" transform="translate(-105.999 -95.551)" fill="#91c8d2"/>
    <path id="パス_4418" data-name="パス 4418" d="M218.386,196.665c0,.031,0,.063-.006.095a.317.317,0,0,0,.006-.095" transform="translate(-106.002 -95.462)" fill="#91c8d2"/>
    <path id="パス_4419" data-name="パス 4419" d="M205.835,201.967c0-.017.007-.028.01-.042v0c0,.015-.007.031-.011.047" transform="translate(-99.913 -98.012)" fill="#91c8d2"/>
    <path id="パス_4420" data-name="パス 4420" d="M214.411,193.942l.069-.037a.265.265,0,0,0-.069.037" transform="translate(-104.076 -94.122)" fill="#91c8d2"/>
    <path id="パス_4421" data-name="パス 4421" d="M214.58,193.871l-.033.017.007,0,.026-.015" transform="translate(-104.142 -94.105)" fill="#91c8d2"/>
    <path id="パス_4422" data-name="パス 4422" d="M207.037,189.886l.026,0s-.011,0-.026,0" transform="translate(-100.496 -92.17)" fill="#91c8d2"/>
    <path id="パス_4423" data-name="パス 4423" d="M207.323,189.811l-.04.016a.109.109,0,0,0,.04-.016" transform="translate(-100.616 -92.135)" fill="#91c8d2"/>
    <path id="パス_4424" data-name="パス 4424" d="M214.253,184.008c-.013.024-.022.043-.019.041a.107.107,0,0,0,.019-.041" transform="translate(-103.99 -89.318)" fill="#91c8d2"/>
    <path id="パス_4425" data-name="パス 4425" d="M222.608,204.138c-.027-.033-.038-.045,0,0" transform="translate(-108.042 -99.075)" fill="#91c8d2"/>
    <path id="パス_4426" data-name="パス 4426" d="M209.054,205.066c.106-.008.114-.027,0,0" transform="translate(-101.475 -99.533)" fill="#91c8d2"/>
    <path id="パス_4427" data-name="パス 4427" d="M218.111,195.236l.042.08a.4.4,0,0,0-.042-.08" transform="translate(-105.872 -94.768)" fill="#91c8d2"/>
    <path id="パス_4428" data-name="パス 4428" d="M205.68,208.862a5.033,5.033,0,0,1-1.22-1.7,2.9,2.9,0,0,1-.111-.367c-.3.257-.61.513-.919.763a4.02,4.02,0,0,1-5.264-6.075l.659-.558a4.113,4.113,0,0,1-1.813-2.164,4.005,4.005,0,0,1,1.137-4.31l1.031-.851c-.046-.007-.092-.007-.138-.015a3.98,3.98,0,0,1-2.187-1.234l-2.853,2.5a1.405,1.405,0,0,1-.89.362c-.2,1.136-.41,2.27-.625,3.4a14.346,14.346,0,0,1,2.411,9.265,1.024,1.024,0,0,1-.524.721c.028.034.059.068.087.1a1.641,1.641,0,0,1,.335.68,11.728,11.728,0,0,1,2.453,1.867A20.038,20.038,0,0,1,200.9,216.6c1.158-1.079,2.426-2.04,3.521-3.186a6.3,6.3,0,0,0,1.968-4.01,3.631,3.631,0,0,1-.706-.54" transform="translate(-93.434 -93.366)" fill="#fff"/>
    <path id="パス_4429" data-name="パス 4429" d="M126.448,191.621c2.453.288,4.889.713,7.3,1.24a79.685,79.685,0,0,1,15.2,4.871,51.18,51.18,0,0,1,4.71,2.353l-1.3-4.906a29.676,29.676,0,0,0-5.706-3.671c-6.4-3.174-13.62-4.092-20.7-4.395a1.462,1.462,0,0,1-.966.449c-.033,0-.064-.006-.1-.007q-.526,2.366-1.052,4.733a11.107,11.107,0,0,1,1.625-.2,1.1,1.1,0,0,1,.973-.465" transform="translate(-60.117 -90.826)" fill="#fff"/>
    <path id="パス_4430" data-name="パス 4430" d="M135.835,207.733A56.893,56.893,0,0,0,121.8,201.7q-3.565-1.066-7.214-1.828-1.579-.33-3.169-.6-.788-.131-1.578-.245l-.313-.044-.031,0-.056-.007q-.354-.046-.709-.087a1.317,1.317,0,0,1-1.286-1.286,1.366,1.366,0,0,1,.313-.822,11.23,11.23,0,0,0-1.625.2q-.073.325-.145.649a1.306,1.306,0,0,1-1.582.9,1.286,1.286,0,0,1-.921-1.409,23.886,23.886,0,0,0-3.176,3.356c.425-.4.845-.809,1.28-1.2,1.23-1.1,3.055.712,1.819,1.819a63.418,63.418,0,0,0-4.522,4.475,61.63,61.63,0,0,0-11.536,18.26h32.775a22.512,22.512,0,0,1,5.86-9.62,15.264,15.264,0,0,1,4.84-2.856,21.7,21.7,0,0,1,5.722-1.458,11.5,11.5,0,0,1,2.334.028,27.953,27.953,0,0,0-3.048-2.191" transform="translate(-42.401 -95.516)" fill="#fff"/>
    <path id="パス_4431" data-name="パス 4431" d="M167.809,127.273q-.076-.648-.152-1.294a1.623,1.623,0,0,1-.183.14c-.844.552-1.814.889-2.659,1.442a1.286,1.286,0,0,1-1.76-.462,1.313,1.313,0,0,1-.13-.992,1.357,1.357,0,0,1,.591-.769c.844-.552,1.814-.889,2.659-1.441a1.3,1.3,0,0,1,.991-.13.987.987,0,0,1,.241.09q-.1-.856-.2-1.721a1.259,1.259,0,0,1-1.169-1.226,17.579,17.579,0,0,1-.2-3.593,5.33,5.33,0,0,1,.561-1.6c.2-.385.945-1.183.85-1.638-.073-.35-.773-.614-1.046-.754-.5-.258-1.013-.5-1.51-.775a18.116,18.116,0,0,1-2.945-1.968,10.506,10.506,0,0,1-3.483-5.7c-.486-2.067-.609-4.2-1.051-6.279a17.73,17.73,0,0,0-.972-3.149,11.576,11.576,0,0,1-5.318,5.166,1.357,1.357,0,0,1-1.427-.1,13.913,13.913,0,0,1-4.624,3.885c.506,2.914.786,5.884,1.087,8.82a1.3,1.3,0,0,1-1.286,1.286,1.282,1.282,0,0,1-1.247-1.063,1.209,1.209,0,0,1-1.047-.338,1.973,1.973,0,0,0-3.277.321,3.258,3.258,0,0,0-.378,1.56,5.581,5.581,0,0,0,.326,1.981,10.727,10.727,0,0,0,2.31,3.908,9.915,9.915,0,0,0,1.533,1.383,5.2,5.2,0,0,0,1.719.846,1.287,1.287,0,0,1-.684,2.481,9.549,9.549,0,0,1-4.282-2.776,15.01,15.01,0,0,1-1.578-2,1.166,1.166,0,0,1-.906,1.3c-.278.072-.556.148-.828.239-.127.042-.252.086-.377.134l-.076.029-.079.04c-.2.1-.38.206-.567.318-.039.025-.076.051-.113.077-.067.057-.133.115-.2.177s-.116.122-.172.186c-.028.039-.111.145-.122.163-.061.1-.119.2-.177.3-.015.027-.078.17-.1.206a6.536,6.536,0,0,0-.33,1.3c-.227,1.59-.125,3.237-.236,4.839-.056.809-.122,1.619-.223,2.423a1.34,1.34,0,0,1-.945,1.241c-1.672.471-3.343.955-5.024,1.4,0,.03,0,.06.007.09l.367,4.774c2.817.128,5.627.352,8.42.758a40.513,40.513,0,0,1,17.342,6.311q.319-3.55.639-7.1a1.314,1.314,0,0,1,1.286-1.286,31.666,31.666,0,0,0,4.739-.043,13.951,13.951,0,0,0,4.945-1.086,3.023,3.023,0,0,0,1.856-3.1,25.353,25.353,0,0,0-.612-2.685,15.706,15.706,0,0,1-.47-3.378,1.246,1.246,0,0,1,1.694-1.177m-14.834-22.989a1.287,1.287,0,0,1-1.453-1.89,1.332,1.332,0,0,1,.769-.591l.357-.1,2.494-.7a1.287,1.287,0,0,1,1.453,1.89,1.332,1.332,0,0,1-.769.591l-.357.1-2.494.7m3.278,5.209a1.287,1.287,0,0,1,0-2.573,1.287,1.287,0,0,1,0,2.573" transform="translate(-61.936 -46.334)" fill="#fff"/>
    <path id="パス_4432" data-name="パス 4432" d="M138,82.9a1.312,1.312,0,0,1,0-1.82c.005-.005.012-.009.017-.014-.374-.257-.756-.5-1.144-.727a1.188,1.188,0,0,1-1.209-.02,29.282,29.282,0,0,0-9.691-3.121,32.27,32.27,0,0,0-10.108-.175,27.51,27.51,0,0,0-15.951,8.4,19.954,19.954,0,0,0-4.077,7.621,32.413,32.413,0,0,0-1.458,8.232,16.282,16.282,0,0,0,1.311,7.757,8.838,8.838,0,0,0,2.227,2.907c1.407,1.206,2.846,2.36,4.2,3.63a57.192,57.192,0,0,1,5.875,6.377c.51.651,1.023,1.31,1.5,1.994,1.836-.46,3.658-.978,5.478-1.495q.1-1.01.158-2.022a39.618,39.618,0,0,1,.342-5.213,5.568,5.568,0,0,1,1.628-3.121,7.62,7.62,0,0,1,3.249-1.561,1.2,1.2,0,0,1,.961.128,9.314,9.314,0,0,1-1.215-5.613,4.96,4.96,0,0,1,2.629-3.9,4.543,4.543,0,0,1,4.228.217c-.038-.324-.069-.648-.108-.972q-.094-.8-.195-1.593c-.033-.259-.067-.518-.1-.778-.007-.055-.015-.111-.022-.166l0-.024q-.024-.174-.048-.349c-.125-.9-.257-1.8-.433-2.694a1.312,1.312,0,0,1,.9-1.582,1.2,1.2,0,0,1,.36-.035c.031-.021.058-.044.093-.063a13.323,13.323,0,0,0,2.562-1.732,10.351,10.351,0,0,0,1.019-1.046c.062-.073.122-.148.182-.224.022-.031.1-.141.124-.17.125-.176.244-.357.357-.54a11.922,11.922,0,0,0,.663-1.265.2.2,0,0,1,.017-.033l.02-.052c.045-.115.091-.23.134-.346q.132-.356.244-.719a22.768,22.768,0,0,0,.722-3.267,1.3,1.3,0,0,1,1.583-.9,1.328,1.328,0,0,1,.9,1.582,21.411,21.411,0,0,1-1,4.091c.05-.034.1-.066.153-.1.075-.053.149-.108.223-.162l.034-.025.053-.045a11.251,11.251,0,0,0,1.582-1.611l.1-.132q.081-.112.158-.226.171-.251.327-.511a10.3,10.3,0,0,0,.538-1.024c.021-.045.04-.088.05-.112.032-.08.065-.161.1-.241q.1-.258.179-.521c.029-.094.052-.19.079-.285-.154-.2-.31-.4-.479-.6" transform="translate(-45.801 -37.234)" fill="#828282"/>
    <path id="パス_4433" data-name="パス 4433" d="M177.572,229.67a10.315,10.315,0,0,0-3.859-2.119,9.665,9.665,0,0,0-4.47-.22,15.8,15.8,0,0,0-8.879,4.357,20.309,20.309,0,0,0-4.03,6.895h26.409c-.321-.87-.664-1.714-1-2.462a19.418,19.418,0,0,0-4.17-6.449" transform="translate(-75.885 -110.268)" fill="#fff"/>
    <path id="パス_4434" data-name="パス 4434" d="M182.112,120.306a1.287,1.287,0,0,0,0-2.573,1.287,1.287,0,0,0,0,2.573" transform="translate(-87.794 -57.148)" fill="#323232"/>
    <path id="パス_4435" data-name="パス 4435" d="M178.229,108.671a1.336,1.336,0,0,0,.769-.591,1.287,1.287,0,0,0-1.453-1.89l-2.494.7-.357.1a1.338,1.338,0,0,0-.769.591,1.287,1.287,0,0,0,1.453,1.89l2.494-.7.357-.1" transform="translate(-84.338 -51.522)" fill="#323232"/>
    <path id="パス_4436" data-name="パス 4436" d="M99.126,201.309c-.435.39-.855.8-1.28,1.2-.137.174-.274.348-.411.53.136-.182.273-.356.411-.53a64.345,64.345,0,0,0-12.761,16.842c-1.018,1.947-1.926,3.949-2.747,5.987a.951.951,0,0,0-.048.526h2.6A61.611,61.611,0,0,1,96.423,207.6a63.419,63.419,0,0,1,4.522-4.475c1.236-1.107-.589-2.922-1.819-1.819" transform="translate(-39.936 -97.549)" fill="#323232"/>
    <path id="パス_4437" data-name="パス 4437" d="M205.619,152.141a1.315,1.315,0,0,0-.13-.991,1.433,1.433,0,0,0-.527-.5q.124,1.061.249,2.121a1.292,1.292,0,0,0,.408-.629" transform="translate(-99.489 -73.125)" fill="#323232"/>
    <path id="パス_4438" data-name="パス 4438" d="M200.692,150.524a.986.986,0,0,0-.241-.09,1.3,1.3,0,0,0-.991.13c-.845.552-1.814.889-2.659,1.441a1.357,1.357,0,0,0-.591.769,1.314,1.314,0,0,0,.13.992,1.287,1.287,0,0,0,1.76.461c.845-.552,1.814-.889,2.659-1.441a1.624,1.624,0,0,0,.183-.14q-.124-1.061-.249-2.121" transform="translate(-95.219 -73.001)" fill="#323232"/>
    <path id="パス_4439" data-name="パス 4439" d="M218.153,195.321l0-.007c-.014-.027-.028-.053-.042-.08-.008-.009,0,.011.044.087" transform="translate(-105.869 -94.766)" fill="#323232"/>
    <path id="パス_4440" data-name="パス 4440" d="M205.856,201.84v.005c.012-.048.018-.077.02-.09-.006.028-.013.056-.019.084" transform="translate(-99.922 -97.933)" fill="#323232"/>
    <path id="パス_4441" data-name="パス 4441" d="M214.481,193.9l-.069.037a.362.362,0,0,0,.076-.04l-.007,0" transform="translate(-104.076 -94.119)" fill="#323232"/>
    <path id="パス_4442" data-name="パス 4442" d="M218.375,196.77l0-.011c0-.032.005-.063.006-.095,0-.009-.007.018-.008.106" transform="translate(-106 -95.46)" fill="#323232"/>
    <path id="パス_4443" data-name="パス 4443" d="M214.422,182.84l-.008-.047a.311.311,0,0,0,.009.067c0-.007,0-.016,0-.021" transform="translate(-104.077 -88.728)" fill="#323232"/>
    <path id="パス_4444" data-name="パス 4444" d="M207.385,189.661l.028-.016a.511.511,0,0,1,.062-.028l.021-.017c-.432.121-.224.089-.111.062" transform="translate(-100.592 -92.032)" fill="#323232"/>
    <path id="パス_4445" data-name="パス 4445" d="M209.878,218.5c-.01,0-.02.006-.03.009s.011,0,.03-.009" transform="translate(-101.861 -106.062)" fill="#323232"/>
    <path id="パス_4446" data-name="パス 4446" d="M171.737,80.994l.566.284a.637.637,0,0,0-.566-.284" transform="translate(-83.362 -39.315)" fill="#323232"/>
    <path id="パス_4447" data-name="パス 4447" d="M165.752,143.373a4.246,4.246,0,0,0-1.14-1.749,3.715,3.715,0,0,0-3.809-1.036,3.9,3.9,0,0,0-.534-1.827,3.972,3.972,0,0,0-2.114-1.72,4.174,4.174,0,0,0,.1-1.874,3.992,3.992,0,0,0-3.109-3.146c-.118-.022-.234-.032-.349-.045.111-.093.223-.183.333-.277a3.606,3.606,0,0,0,1.05-3.569,4.374,4.374,0,0,0-2.938-3.1,3.514,3.514,0,0,0-2.264.05,4.683,4.683,0,0,0,.257-1.734c-.1-2.18-1.079-4.209-1.109-6.4a1.192,1.192,0,0,0-.879-1.177c.171,1.463.342,2.943.513,4.482-.171-1.539-.342-3.019-.513-4.482a1.246,1.246,0,0,0-1.694,1.177,15.705,15.705,0,0,0,.47,3.378,25.227,25.227,0,0,1,.612,2.685,3.024,3.024,0,0,1-1.856,3.1,13.954,13.954,0,0,1-4.945,1.086,31.67,31.67,0,0,1-4.739.043,1.314,1.314,0,0,0-1.286,1.286l-.639,7.1a40.509,40.509,0,0,0-17.341-6.311c-2.794-.406-5.6-.63-8.421-.758q-.183-2.387-.367-4.774c0-.03,0-.06-.007-.09,1.68-.447,3.352-.931,5.024-1.4a1.339,1.339,0,0,0,.944-1.241c.1-.8.167-1.614.224-2.423.111-1.6.008-3.249.236-4.839a6.535,6.535,0,0,1,.33-1.3c.018-.036.081-.179.1-.206.058-.1.116-.2.177-.3.012-.019.1-.125.123-.163.056-.063.112-.127.172-.186s.129-.119.2-.177c.038-.026.075-.052.113-.077.187-.112.37-.221.567-.318l.08-.04.076-.029c.125-.048.251-.092.376-.134.274-.091.55-.167.829-.238a1.165,1.165,0,0,0,.907-1.3,15,15,0,0,0,1.578,2,9.556,9.556,0,0,0,4.282,2.776,1.288,1.288,0,0,0,.684-2.481,5.2,5.2,0,0,1-1.72-.846,9.96,9.96,0,0,1-1.533-1.383,10.717,10.717,0,0,1-2.31-3.908,5.569,5.569,0,0,1-.325-1.981,3.258,3.258,0,0,1,.377-1.56,1.973,1.973,0,0,1,3.277-.321,1.209,1.209,0,0,0,1.047.338,1.282,1.282,0,0,0,1.247,1.063,1.3,1.3,0,0,0,1.286-1.286c-.3-2.936-.58-5.906-1.086-8.82a13.913,13.913,0,0,0,4.624-3.885,1.356,1.356,0,0,0,1.427.1,11.576,11.576,0,0,0,5.318-5.166,17.731,17.731,0,0,1,.972,3.149c.443,2.076.565,4.212,1.051,6.279a10.51,10.51,0,0,0,3.483,5.7,18.136,18.136,0,0,0,2.944,1.968c.5.271,1.007.517,1.51.775.273.139.973.4,1.046.754.1.455-.653,1.254-.85,1.638a5.33,5.33,0,0,0-.561,1.6,17.58,17.58,0,0,0,.2,3.593,1.26,1.26,0,0,0,1.169,1.226c-.143-1.229-.286-2.475-.429-3.762.143,1.287.286,2.533.429,3.762a1.174,1.174,0,0,0,1.4-1.226,23.046,23.046,0,0,1-.263-3.123c-.018.182.074-.3.105-.391a3.45,3.45,0,0,1,.254-.55,9.269,9.269,0,0,0,1.016-1.983c.427-1.578-.6-2.86-1.9-3.589-1.053-.589-2.15-1.077-3.168-1.732a8.472,8.472,0,0,1-3.784-4.853c-.582-2.089-.681-4.288-1.1-6.41a18.051,18.051,0,0,0-2.444-6.264,1.249,1.249,0,0,0-.844-1.179c-.171-.219-.341-.439-.525-.65a1.3,1.3,0,0,0-1.8-.014c1.93,1.327,3.569,3.064,3.881,5.561-.312-2.5-1.951-4.234-3.881-5.561a.149.149,0,0,0-.017.014,1.311,1.311,0,0,0,0,1.819c.168.194.325.394.479.6-.027.1-.05.19-.079.285q-.083.262-.179.521c-.03.081-.063.161-.1.241-.01.024-.029.067-.05.112a10.2,10.2,0,0,1-.538,1.024c-.1.173-.213.344-.326.511-.052.076-.1.151-.158.226l-.1.132a11.256,11.256,0,0,1-1.582,1.611l-.053.045-.033.025c-.075.055-.149.109-.224.162-.05.035-.1.066-.152.1a21.411,21.411,0,0,0,1-4.091,1.327,1.327,0,0,0-.9-1.582,1.3,1.3,0,0,0-1.582.9,22.9,22.9,0,0,1-.722,3.267q-.113.363-.245.719c-.042.116-.089.231-.133.346-.01.023-.015.039-.021.052a.231.231,0,0,0-.017.033A11.777,11.777,0,0,1,129.2,87c-.113.184-.232.364-.357.54-.021.029-.1.139-.123.17-.06.076-.12.151-.183.224a10.4,10.4,0,0,1-1.018,1.046,13.326,13.326,0,0,1-2.563,1.732,1.113,1.113,0,0,0-.092.063,1.18,1.18,0,0,0-.36.034,1.313,1.313,0,0,0-.9,1.582c.177.892.308,1.794.433,2.694.016.116.032.233.049.349l0,.024c.007.056.014.111.022.166q.051.389.1.778.1.8.195,1.593c.039.324.071.648.109.972a4.542,4.542,0,0,0-4.228-.217,4.958,4.958,0,0,0-2.63,3.9,9.318,9.318,0,0,0,1.215,5.613,1.2,1.2,0,0,0-.961-.128,7.622,7.622,0,0,0-3.25,1.561,5.576,5.576,0,0,0-1.628,3.121,39.711,39.711,0,0,0-.342,5.213c-.039.675-.094,1.349-.158,2.022-1.82.517-3.642,1.035-5.477,1.495-.472-.683-.985-1.343-1.5-1.994a57.151,57.151,0,0,0-5.875-6.378c-1.352-1.271-2.791-2.424-4.2-3.63a8.838,8.838,0,0,1-2.227-2.907,16.281,16.281,0,0,1-1.311-7.757,32.435,32.435,0,0,1,1.459-8.231,19.94,19.94,0,0,1,4.077-7.621,27.509,27.509,0,0,1,15.951-8.4,32.255,32.255,0,0,1,10.108.175,29.287,29.287,0,0,1,9.691,3.122,1.191,1.191,0,0,0,1.209.02c-.714-.42-1.438-.8-2.128-1.148.294.419.235,1.116.977.745-.742.371-.683-.326-.977-.745l-.567-.284a.639.639,0,0,1,.567.284c.69.348,1.414.727,2.128,1.148a1.276,1.276,0,0,0,.09-2.242,30.273,30.273,0,0,0-9.041-3.155,38.75,38.75,0,0,0-10.1-.706,30.691,30.691,0,0,0-17.863,7.507A21.488,21.488,0,0,0,91.816,87.4a35.942,35.942,0,0,0-2.2,8.668,23.866,23.866,0,0,0,.341,8.953,13.6,13.6,0,0,0,1.648,3.925,13.943,13.943,0,0,0,3.087,3.255,62.182,62.182,0,0,1,7.572,7.376q.613.712,1.2,1.446l.237.3.1.133q.224.29.442.585.517.7,1,1.426c.043.065.085.132.126.2a1.311,1.311,0,0,0,1.136.625q.164,2.132.328,4.265a1.177,1.177,0,0,0-.747,1.06,1.079,1.079,0,0,0-.235.471l-1.372,6.175a1.229,1.229,0,0,0-.022.173c.49-.426,1.005-.843,1.56-1.259-.555.416-1.07.833-1.56,1.259a1.285,1.285,0,0,0,.92,1.409,1.305,1.305,0,0,0,1.583-.9q.073-.324.145-.649a13.374,13.374,0,0,0-1.6.424,13.374,13.374,0,0,1,1.6-.424l1.051-4.733c.033,0,.063.008.1.007a1.461,1.461,0,0,0,.967-.449c7.076.3,14.294,1.221,20.7,4.395a29.679,29.679,0,0,1,5.707,3.671q.648,2.453,1.3,4.906a51.235,51.235,0,0,0-4.71-2.353,79.676,79.676,0,0,0-15.2-4.871c-2.413-.526-4.849-.952-7.3-1.24a1.1,1.1,0,0,0-.973.464,6.356,6.356,0,0,1,5.521,2.171,6.356,6.356,0,0,0-5.521-2.171,1.366,1.366,0,0,0-.314.822A1.318,1.318,0,0,0,109.7,138.2q.355.041.709.087l.056.007.031,0,.314.044q.79.113,1.578.245,1.591.266,3.169.6,3.643.761,7.214,1.828a56.9,56.9,0,0,1,14.034,6.035,27.833,27.833,0,0,1,3.048,2.191,11.5,11.5,0,0,0-2.334-.028,21.675,21.675,0,0,0-5.722,1.458,15.247,15.247,0,0,0-4.84,2.856,22.508,22.508,0,0,0-5.86,9.62h2.724a20.3,20.3,0,0,1,4.029-6.9,15.794,15.794,0,0,1,8.88-4.356,9.655,9.655,0,0,1,4.469.22,10.309,10.309,0,0,1,3.859,2.119,19.434,19.434,0,0,1,4.17,6.449c.336.748.68,1.592,1,2.462h2.722c-.3-.869-.637-1.728-.991-2.576,1.479-1.53,3.274-2.735,4.656-4.361a8.671,8.671,0,0,0,2.22-4.922,3.707,3.707,0,0,0,1.671-.814c.425-.361.839-.736,1.259-1.1l2.152-1.889a7.552,7.552,0,0,0,1.464-1.471,3.3,3.3,0,0,0,.368-2.638m-45.325-34.956a25.088,25.088,0,0,0-3.6,1.544,25.088,25.088,0,0,1,3.6-1.544M103.8,121.441l.006.007c-.028-.037-.078-.1-.006-.007m58.01,21.541c.172-.044.07-.012,0,0m-.249.069c-.109.065-.063.025,0,0M157.94,139.9a.22.22,0,0,1-.024-.029.22.22,0,0,0,.024.029m-4.128-5.3-.026.015.015-.007c.1-.028.2-.054.306-.078.014,0,.154-.02.23-.02s.139.009.208.008h0l.019.006.309.092s.145.066.21.105l.1.062.029.022c.087.081.169.168.248.257.015.03.113.169.133.206a.3.3,0,0,1,.017.033.378.378,0,0,1,.042.08c.005.01.01.02.015.029l-.012-.022,0,.008c.037.122.067.243.095.367v0c0,.086,0,.172,0,.258v.011a.317.317,0,0,1-.006.095c0,.016,0,.033,0,.049,0-.015,0-.025,0-.038v0c-.029.1-.058.205-.089.307-.014.029-.067.153-.1.207s-.078.118-.114.178l0,0-.033.028c-.147.132-.3.259-.448.389-.041.021-.082.039-.122.061A13.043,13.043,0,0,0,153,138.794l-1.767,1.5-.107.031c-.06.016-.121.028-.181.042l-.036,0c-.12,0-.238,0-.357-.009-.032-.011-.192-.039-.264-.061-.041-.012-.08-.028-.12-.042-.021-.011-.051-.027-.094-.052-.059-.036-.117-.079-.179-.11l-.015-.006-.018-.019c-.093-.093-.184-.184-.269-.282-.022-.038-.1-.151-.11-.168-.027-.046-.047-.1-.077-.143l-.007-.009c0-.009,0-.014-.007-.027-.021-.067-.042-.133-.06-.2-.005-.02-.021-.109-.031-.161,0-.027,0-.052,0-.064,0-.086,0-.173,0-.259v-.009c0,.013-.006.025-.01.042,0-.015.008-.031.011-.047,0-.055.024-.118.019-.084.009-.041.016-.082.028-.122s.03-.1.045-.149c.006-.018.007-.025.01-.038s.013-.021.025-.04c.029-.049.131-.2.146-.241a3.231,3.231,0,0,1,.329-.332l2.8-2.309.629-.52.113-.093c.012,0,.14-.092.175-.112s.059-.032.088-.047a.265.265,0,0,1,.069-.037l.033-.017m-2.859,5.768c.114-.027.106-.008,0,0m-1.451-7.821a.438.438,0,0,1,.09.014c-.05,0-.086-.006-.09-.014m.413.005c.015,0,.027,0,.027,0s-.012,0-.027,0m.127-.024.04-.016-.04.016m3.577-2.962a.191.191,0,0,1,.019-.041.107.107,0,0,1-.019.041m.093-.264s.01-.05.019-.093c0,.046-.006.084-.019.093m-1.6-1.878c0,.011-.045.015-.092.017a.394.394,0,0,1,.092-.017m-3.762,2.8s-.02.022-.044.046a.123.123,0,0,1,.044-.046m-.232.652c0-.05.005-.1.007-.15v0c.016-.057.028-.115.045-.173s.1-.2.059-.137l0,0c.012-.02.03-.061.051-.1l.037-.033c.067-.061.13-.127.2-.186l2.53-2.055.527-.428.008-.007.071-.038c.037-.02.077-.04.114-.062l.009,0c.014,0,.136-.036.23-.058h.021c.044,0,.087,0,.131,0s.085,0,.128.006c.118.036.244.062.363.1l.037.01c.035.02.069.041.08.047.085.045.163.1.243.151-.046-.027.1.07.16.131.085.082.16.171.24.258-.182-.2.05.082.1.163.034.058.062.119.1.177a.4.4,0,0,0,.033.046,2.179,2.179,0,0,1,.068.287c0,.017.009.05.013.084,0-.048.006-.072.007.038v.009a.158.158,0,0,0,.016.055.085.085,0,0,1-.014-.034c0,.049.01.136.01.216,0,.011-.007.023-.013.043-.016.057-.026.116-.043.172,0,0-.01.04-.022.08l-.013.021c-.03.047-.061.1-.087.149-.332.265-.647.57-.975.843l-1.592,1.323-.586.487-.122.1.006,0c.121-.033.043-.009-.027.019l-.006.005a.161.161,0,0,0-.027.022.272.272,0,0,1-.057.017l-.037.021c-.034.012-.07.024-.105.033s-.1.024-.146.036c-.071,0-.184.009-.27.007l-.032-.008c-.059-.014-.118-.026-.177-.042s-.116-.037-.175-.054l-.021-.005-.015-.009c-.121-.067-.238-.142-.357-.212-.058-.05-.116-.1-.17-.153s-.132-.14-.194-.214c-.045-.071-.1-.14-.139-.213s-.064-.118-.1-.178l-.005-.008v0c-.036-.14-.082-.276-.114-.418a.221.221,0,0,0-.007-.028c0-.057.006-.121.006-.14m-2.138-1.749a3.42,3.42,0,0,0-.375,2.322l-1.925,1.684a8.654,8.654,0,0,0-.1-3.566,19.817,19.817,0,0,0,2.4-.441m-5,.748c.083.174.016.042,0,0m-.973,16.2a1.32,1.32,0,0,0-.034-.525q-.571-2.166-1.144-4.332-.337-1.274-.673-2.548c-.046-.174-.083-.355-.139-.526a1.936,1.936,0,0,0-.5-.748,1.642,1.642,0,0,0,.116-.476q.318-3.53.635-7.059c.9.023,1.791.02,2.687-.028.006.013.013.026.019.039l0,.007c.036.093.07.188.1.284a3.873,3.873,0,0,1,.206,1.493c-.011.158-.032.315-.051.472-.007.047-.013.1-.021.142q-.035.237-.072.473c-.227,1.454-.49,2.9-.755,4.349-.176.961-.378,1.919-.54,2.883-.169,1.009.745,2.035,1.168,2.9a11.546,11.546,0,0,1,1.4,5.167,25.514,25.514,0,0,0-2.4-1.967m14.358,8.808c-1.1,1.147-2.363,2.107-3.521,3.186a20.024,20.024,0,0,0-3.648-5.353,11.754,11.754,0,0,0-2.452-1.867,1.64,1.64,0,0,0-.335-.679c-.028-.035-.059-.068-.086-.1a1.026,1.026,0,0,0,.523-.721,14.344,14.344,0,0,0-2.411-9.265q.323-1.7.624-3.4a1.4,1.4,0,0,0,.89-.362l2.853-2.5a3.98,3.98,0,0,0,2.187,1.234c.046.008.092.008.137.015l-1.03.851a4,4,0,0,0-1.137,4.31,4.107,4.107,0,0,0,1.813,2.164l-.659.559a4.02,4.02,0,0,0,5.264,6.075c.309-.25.614-.506.919-.763a2.988,2.988,0,0,0,.11.367,5.056,5.056,0,0,0,1.22,1.7,3.627,3.627,0,0,0,.706.54,6.3,6.3,0,0,1-1.968,4.011m-2.128-8.256c-.181.156-.358.323-.546.47l-.009.007a2.609,2.609,0,0,0-.314.183c.01,0,.02-.005.03-.009-.01,0-.02.006-.03.009-.076.027-.153.045-.23.071a.52.52,0,0,0-.091.037.572.572,0,0,0-.1,0c-.076,0-.5-.037-.322,0a1.324,1.324,0,0,1-.746-.338c-.072-.066-.419-.542-.214-.219-.053-.084-.108-.163-.155-.25-.081-.145-.04-.063-.071-.155-.022-.067-.042-.136-.059-.205s-.024-.085-.03-.1a.839.839,0,0,0,0-.112.894.894,0,0,1,.042-.422,1.524,1.524,0,0,1,.537-.814l2.818-2.39a19.578,19.578,0,0,0,2.693-2.152l.926-.781a2.206,2.206,0,0,0,.289-.074c.079-.005.156,0,.236-.007l.122.006.011,0a1.5,1.5,0,0,1,.667.276,2.276,2.276,0,0,1,.273.277.614.614,0,0,1,.049.071s.131.255.132.239c.042.116.1.355.1.35a2.821,2.821,0,0,0,.005.356,1.863,1.863,0,0,1-.253.673,8.136,8.136,0,0,1-1.252,1.125l-4.513,3.885m11.021-2.052c-.03.115-.019.057,0,0m.047-.187c-.014.054-.032.129-.037.146l0,.014c-.031.056-.062.112-.095.167-.128.209-.039.038,0,0-.056.053-.107.109-.164.16-.027.025-.055.049-.083.073-.171.151-.343.3-.514.451l-1.822,1.6-1.719,1.508-.131.115-.139.087-.046.033-.044.01-.208.056-.016,0-.015,0a1.116,1.116,0,0,0-.216,0l-.014,0-.018-.005-.209-.056c-.023-.006-.034-.008-.049-.011s-.022-.016-.044-.03l-.13-.079c.061.035-.085-.07-.139-.123l-.307-.319c-.048-.05-.094-.1-.143-.149-.014-.013-.026-.028-.039-.042.061.062-.086-.134-.1-.164a.1.1,0,0,1-.01-.02l.006.026-.009-.03a.193.193,0,0,1-.023-.081c-.01-.032-.02-.065-.028-.1v.024c0-.011,0-.024,0-.037-.012-.051-.007-.1,0-.094,0-.028,0-.057,0-.082a.06.06,0,0,1,0-.013c0,.014-.005.02-.011.039,0-.015.007-.031.011-.046,0-.049.018-.084.019-.074.007-.03.015-.06.022-.087,0-.008.006-.013.008-.021l-.017.029c.007-.01.012-.021.018-.03.019-.051.049-.09.035-.059.026-.046.054-.091.08-.135l.017-.01c-.015.01.1-.092.13-.124l.016-.014c.048-.044.1-.086.148-.129l.63-.553,3.351-2.941.135-.119.021-.019c-.164.148.078-.026.175-.091l.017-.007.206-.055c.064,0,.132,0,.2,0l.042,0c.05.01.1.019.149.032.07.019.137.043.207.065-.259-.083.034.034.085.061a.5.5,0,0,1,.064.045c.037.033.074.067.11.1s.068.072.1.108c.118.121.233.244.351.365.011.01.024.025.037.04.023.036.065.1.074.114s.032.067.05.1l.028.093c0,.018.011.065.018.1s0,.069,0,.084,0,.054-.007.089" transform="translate(-43.374 -34.832)" fill="#323232"/>
    <path id="パス_4448" data-name="パス 4448" d="M220.473,218.385h0c.016-.026.031-.05.036-.06l-.035.059" transform="translate(-107.018 -105.976)" fill="#323232"/>
    <path id="パス_4449" data-name="パス 4449" d="M220.461,219.472l0,0a.539.539,0,0,0-.026-.084c.009.027.016.054.024.081" transform="translate(-107.001 -106.493)" fill="#323232"/>
    <path id="パス_4450" data-name="パス 4450" d="M220.395,218.653c-.006.025-.012.049-.019.074v.008a.391.391,0,0,0,.02-.081" transform="translate(-106.971 -106.135)" fill="#323232"/>
    <path id="パス_4451" data-name="パス 4451" d="M220.375,219c0,.032,0,.062,0,.094l0,.008a.356.356,0,0,0,0-.1" transform="translate(-106.971 -106.302)" fill="#323232"/>
  </g>
</svg>
