<svg xmlns="http://www.w3.org/2000/svg" width="140.491" height="99" viewBox="0 0 140.491 99">
  <g id="イラスト" transform="translate(-101.745 -5163.178)">
    <g id="undraw_Scrum_board_re_wk7v_1_" data-name="undraw_Scrum_board_re_wk7v (1)" transform="translate(101.745 5163.178)">
      <path id="パス_2401" data-name="パス 2401" d="M260.656,170.41H251.7a3.252,3.252,0,0,0-3.249,3.249v9.713c-.115-.007-.229-.017-.342-.031a11.456,11.456,0,1,1,12.5-13.273C260.624,170.181,260.641,170.3,260.656,170.41Z" transform="translate(-229.525 -160.493)" fill="#f2f2f2"/>
      <path id="パス_2402" data-name="パス 2402" d="M416.157,216.5H301.429a3.6,3.6,0,0,0-3.591,3.591v60.527a3.6,3.6,0,0,0,3.591,3.591H416.157a3.6,3.6,0,0,0,3.591-3.591V220.086A3.594,3.594,0,0,0,416.157,216.5Zm3.249,64.118a3.252,3.252,0,0,1-3.249,3.249H301.429a3.252,3.252,0,0,1-3.249-3.249V220.086a3.252,3.252,0,0,1,3.249-3.249H416.157a3.252,3.252,0,0,1,3.249,3.249Z" transform="translate(-279.257 -206.92)" fill="#3f3d56"/>
      <path id="パス_2403" data-name="パス 2403" d="M454.452,272.207H351.009a.171.171,0,1,1,0-.342H454.452a.171.171,0,1,1,0,.342Z" transform="translate(-323.195 -252.822)" fill="#3f3d56"/>
      <path id="パス_2404" data-name="パス 2404" d="M522.009,295.09a.171.171,0,0,1-.171-.171V238.666a.171.171,0,0,1,.342,0v56.253A.171.171,0,0,1,522.009,295.09Z" transform="translate(-464.957 -225.158)" fill="#3f3d56"/>
      <path id="パス_2405" data-name="パス 2405" d="M673.009,295.09a.171.171,0,0,1-.171-.171V238.666a.171.171,0,0,1,.342,0v56.253A.171.171,0,0,1,673.009,295.09Z" transform="translate(-590.139 -225.158)" fill="#3f3d56"/>
      <path id="パス_2406" data-name="パス 2406" d="M824.009,295.09a.171.171,0,0,1-.171-.171V238.666a.171.171,0,0,1,.342,0v56.253A.171.171,0,0,1,824.009,295.09Z" transform="translate(-715.321 -225.158)" fill="#3f3d56"/>
      <path id="パス_2407" data-name="パス 2407" d="M391.731,333.874h-6.248a.77.77,0,0,1-.769-.769v-7.373a.77.77,0,0,1,.769-.769h6.248a.77.77,0,0,1,.769.769v7.373A.77.77,0,0,1,391.731,333.874Z" transform="translate(-351.278 -296.842)" fill="#4e84ff"/>
      <path id="パス_2408" data-name="パス 2408" d="M443.731,456.874h-6.248a.77.77,0,0,1-.769-.769v-7.373a.77.77,0,0,1,.769-.769h6.248a.77.77,0,0,1,.769.769v7.373A.77.77,0,0,1,443.731,456.874Z" transform="translate(-394.387 -398.811)" fill="#4e84ff"/>
      <path id="パス_2409" data-name="パス 2409" d="M561.731,359.874h-6.248a.77.77,0,0,1-.769-.769v-7.373a.77.77,0,0,1,.769-.769h6.248a.77.77,0,0,1,.769.769v7.373A.77.77,0,0,1,561.731,359.874Z" transform="translate(-492.212 -318.396)" fill="#4e84ff"/>
      <path id="パス_2410" data-name="パス 2410" d="M714.731,312.874h-6.248a.77.77,0,0,1-.769-.769v-7.373a.77.77,0,0,1,.769-.769h6.248a.77.77,0,0,1,.769.769v7.373A.77.77,0,0,1,714.731,312.874Z" transform="translate(-619.052 -279.432)" fill="#4e84ff"/>
      <path id="パス_2411" data-name="パス 2411" d="M855.731,312.874h-6.248a.77.77,0,0,1-.769-.769v-7.373a.77.77,0,0,1,.769-.769h6.248a.77.77,0,0,1,.769.769v7.373A.77.77,0,0,1,855.731,312.874Z" transform="translate(-720.249 -252.529)" fill="#4e84ff"/>
      <path id="パス_2412" data-name="パス 2412" d="M920.731,324.874h-6.248a.77.77,0,0,1-.769-.769v-7.373a.77.77,0,0,1,.769-.769h6.248a.77.77,0,0,1,.769.769v7.373A.77.77,0,0,1,920.731,324.874Z" transform="translate(-798.945 -257.172)" fill="#e6e6e6"/>
      <path id="パス_2414" data-name="パス 2414" d="M767.731,385.874h-6.248a.77.77,0,0,1-.769-.769v-7.373a.77.77,0,0,1,.769-.769h6.248a.77.77,0,0,1,.769.769v7.373A.77.77,0,0,1,767.731,385.874Z" transform="translate(-662.99 -339.951)" fill="#ff6584"/>
      <path id="パス_2415" data-name="パス 2415" d="M696.731,401.874h-6.248a.77.77,0,0,1-.769-.769v-7.373a.77.77,0,0,1,.769-.769h6.248a.77.77,0,0,1,.769.769v7.373A.77.77,0,0,1,696.731,401.874Z" transform="translate(-604.129 -353.215)" fill="#e6e6e6"/>
      <path id="パス_2416" data-name="パス 2416" d="M543.731,469.874h-6.248a.77.77,0,0,1-.769-.769v-7.373a.77.77,0,0,1,.769-.769h6.248a.77.77,0,0,1,.769.769v7.373A.77.77,0,0,1,543.731,469.874Z" transform="translate(-477.289 -409.588)" fill="#e6e6e6"/>
      <path id="パス_2417" data-name="パス 2417" d="M358.731,412.874h-6.248a.77.77,0,0,1-.769-.769v-7.373a.77.77,0,0,1,.769-.769h6.248a.77.77,0,0,1,.769.769v7.373A.77.77,0,0,1,358.731,412.874Z" transform="translate(-323.921 -362.334)" fill="#ff6584"/>
      <path id="パス_2418" data-name="パス 2418" d="M461.731,333.874h-6.248a.77.77,0,0,1-.769-.769v-7.373a.77.77,0,0,1,.769-.769h6.248a.77.77,0,0,1,.769.769v7.373A.77.77,0,0,1,461.731,333.874Z" transform="translate(-409.31 -296.842)" fill="#e6e6e6"/>
      <path id="パス_2419" data-name="パス 2419" d="M415.268,250.863h-9.746a.684.684,0,1,1,0-1.368h9.746a.684.684,0,1,1,0,1.368Z" transform="translate(-367.962 -234.278)" fill="#ccc"/>
      <path id="パス_2420" data-name="パス 2420" d="M576.268,250.863h-9.746a.684.684,0,0,1,0-1.368h9.746a.684.684,0,0,1,0,1.368Z" transform="translate(-501.434 -234.278)" fill="#ccc"/>
      <path id="パス_2421" data-name="パス 2421" d="M727.268,250.863h-9.746a.684.684,0,0,1,0-1.368h9.746a.684.684,0,0,1,0,1.368Z" transform="translate(-626.616 -234.278)" fill="#ccc"/>
      <path id="パス_2422" data-name="パス 2422" d="M868.268,250.863h-9.746a.684.684,0,1,1,0-1.368h9.746a.684.684,0,1,1,0,1.368Z" transform="translate(-743.507 -234.278)" fill="#ccc"/>
      <path id="パス_2423" data-name="パス 2423" d="M309.708,517.2a1.719,1.719,0,0,1-1.488-2.177l-4.383-4.08,2.317-.588,4.31,3.5a1.729,1.729,0,0,1-.757,3.349Z" transform="translate(-284.231 -450.537)" fill="#ffb8b8"/>
      <path id="パス_2424" data-name="パス 2424" d="M184.4,527.05h2.1l1-8.085H184.4Z" transform="translate(-152.873 -430.232)" fill="#ffb8b8"/>
      <path id="パス_2425" data-name="パス 2425" d="M0,0H6.588V2.545H2.545A2.545,2.545,0,0,1,0,0H0Z" transform="translate(37.668 98.765) rotate(179.997)" fill="#2f2e41"/>
      <path id="パス_2426" data-name="パス 2426" d="M100.345,519.518l2.026.539,3.044-7.557-2.99-.8Z" transform="translate(-83.188 -424.213)" fill="#ffb8b8"/>
      <path id="パス_2427" data-name="パス 2427" d="M0,0H6.588V2.545H2.545A2.545,2.545,0,0,1,0,0H0Z" transform="matrix(-0.966, -0.257, 0.257, -0.966, 22.589, 98.766)" fill="#2f2e41"/>
      <path id="パス_2428" data-name="パス 2428" d="M304.742,537.208h-3.2a.809.809,0,0,1-.808-.734l-1.942-20.164a.641.641,0,0,0-1.252-.122L291.9,535.03a.811.811,0,0,1-.975.555l-2.976-.744a.812.812,0,0,1-.589-.99c.049-.19,4.858-18.984,4.9-19.177,1.09-8.031,2.393-10.182,3.094-11.338.058-.1.111-.184.159-.267.06-.1.43-1.136.664-1.806a.819.819,0,0,1,.416-.509c2.943-1.5,6.386-.463,7.371-.108a.8.8,0,0,1,.4.31c2.955,4.458,1.505,30.348,1.184,35.492A.812.812,0,0,1,304.742,537.208Z" transform="translate(-270.553 -441.92)" fill="#7e9d8b"/>
      <circle id="楕円形_356" data-name="楕円形 356" cx="4.199" cy="4.199" r="4.199" transform="translate(21.736 35.815)" fill="#ffb8b8"/>
      <path id="パス_2429" data-name="パス 2429" d="M313.891,441.1l-.03-.029c-.057-.055-5.652-5.536-4.928-10.6.31-2.168,2.064-3.553,5.073-4.006a4.64,4.64,0,0,1,5.129,3.269L322.11,439.9Z" transform="translate(-288.401 -380.944)" fill="#fffca7"/>
      <path id="パス_2430" data-name="パス 2430" d="M298.971,461.051l-3.987-3.962a2.246,2.246,0,0,1-.595-2.119l1.93-7.851a1.77,1.77,0,1,1,3.418.922l-2.032,6.907,3.286,3.528Z" transform="translate(-276.344 -396.994)" fill="#fffca7"/>
      <path id="パス_2431" data-name="パス 2431" d="M408.42,444.111a1.719,1.719,0,0,1-2.545.689l-5.323,2.759.235-2.343,4.719-2.92a1.729,1.729,0,0,1,2.914,1.816Z" transform="translate(-364.409 -393.575)" fill="#ffb8b8"/>
      <path id="パス_2432" data-name="パス 2432" d="M357.206,437.555l-5.189,2.242a2.19,2.19,0,0,1-2.133-.229l-6.6-4.727a1.77,1.77,0,1,1,2.126-2.83l5.657,4.453,4.5-1.74Z" transform="translate(-316.321 -385.275)" fill="#fffca7"/>
      <path id="パス_2433" data-name="パス 2433" d="M295.931,370.634c.518-.649,1.486-.684,2.2-1.112a2.568,2.568,0,0,0,1.017-2.86,3.588,3.588,0,0,0-2.2-2.25,6.077,6.077,0,0,0-3.217-.206,6.532,6.532,0,0,0-4.139,2.32,4.09,4.09,0,0,0-.339,4.55,6.334,6.334,0,0,1,1.193,1.867,2.88,2.88,0,0,1-1.174,2.538,26.657,26.657,0,0,0-2.469,2.244,3.422,3.422,0,0,0-.866,3.083,3.117,3.117,0,0,0,1.943,1.878,8.234,8.234,0,0,0,2.756.395,4.657,4.657,0,0,0,2.631-.493,3.059,3.059,0,0,0,1.285-2.484,5.882,5.882,0,0,0-.726-2.786,10.709,10.709,0,0,1-.731-1.57,2.2,2.2,0,0,1,.074-1.686,2.1,2.1,0,0,1,1.471-.974l.1-.016a1.265,1.265,0,0,0,1.083-1.475A1.235,1.235,0,0,1,295.931,370.634Z" transform="translate(-269.3 -329.275)" fill="#2f2e41"/>
      <path id="パス_2434" data-name="パス 2434" d="M468.23,528.1h-2.1l-1-8.085h3.094Z" transform="translate(-385.608 -431.1)" fill="#a0616a"/>
      <path id="パス_2435" data-name="パス 2435" d="M449.87,563.8h4.043v2.545h-6.588A2.545,2.545,0,0,1,449.87,563.8Z" transform="translate(-370.841 -467.398)" fill="#2f2e41"/>
      <path id="パス_2436" data-name="パス 2436" d="M542.252,517.754l-1.907.871-4.267-6.94,2.814-1.285Z" transform="translate(-444.42 -423.13)" fill="#a0616a"/>
      <path id="パス_2437" data-name="パス 2437" d="M2.545,0H6.588V2.545H0A2.545,2.545,0,0,1,2.545,0Z" transform="translate(91.999 96.63) rotate(-24.548)" fill="#2f2e41"/>
      <path id="パス_2438" data-name="パス 2438" d="M712.179,528.478a1.719,1.719,0,0,0,.137-2.633l2.464-5.591-3.13.531-1.86,5.228a1.729,1.729,0,0,0,2.389,2.465Z" transform="translate(-620.451 -458.742)" fill="#a0616a"/>
      <path id="パス_2439" data-name="パス 2439" d="M652.874,566.469h-2a.772.772,0,0,1-.767-.714l-1.092-29.162a.769.769,0,0,1,.842-.822L661.436,537a.77.77,0,0,1,.695.751l.243,12.864a.6.6,0,0,0,.04.2l4.751,12.32a.769.769,0,0,1-.452,1l-2.029.748a.77.77,0,0,1-.95-.37L657.9,553.169a.763.763,0,0,1-.069-.2l-1-4.8a.6.6,0,0,0-1.18.053l-2.011,17.564a.769.769,0,0,1-.764.682Z" transform="translate(-570.385 -471.603)" fill="#b7b7b7"/>
      <circle id="楕円形_357" data-name="楕円形 357" cx="4.199" cy="4.199" r="4.199" transform="translate(79.287 33.789)" fill="#a0616a"/>
      <path id="パス_2440" data-name="パス 2440" d="M655.228,441.55a14.989,14.989,0,0,1-8.014-2.428l-.041-.028,0-.049,1.606-18.708a2.637,2.637,0,0,1,2.5-2.4c2.082-.1,4.878.025,6.375,1.14a7.3,7.3,0,0,1,2.991,6.961,68.849,68.849,0,0,0,.2,14.2l.007.062-.056.026A13.21,13.21,0,0,1,655.228,441.55Z" transform="translate(-568.862 -373.893)" fill="#003cc4"/>
      <path id="パス_2441" data-name="パス 2441" d="M712.592,461.206a.856.856,0,0,1-.629-.277l-.919-1a.859.859,0,0,1-.19-.82l2.095-7.09-3.187-6.693a1.506,1.506,0,0,1,2.686-1.362l4.325,7.017a2.043,2.043,0,0,1,.123,1.915l-3.524,7.808a.853.853,0,0,1-.644.492A.863.863,0,0,1,712.592,461.206Z" transform="translate(-620.628 -394.838)" fill="#003cc4"/>
      <path id="パス_2442" data-name="パス 2442" d="M550.476,454.307a1.719,1.719,0,0,0,2.565-.612l6.059.786-1.392-2.853-5.54-.309a1.729,1.729,0,0,0-1.691,2.988Z" transform="translate(-488.113 -401.482)" fill="#a0616a"/>
      <path id="パス_2443" data-name="パス 2443" d="M580.291,427.546a2.3,2.3,0,0,1-.315-.022l-9.532-1.322a.948.948,0,0,1-.727-.532.964.964,0,0,1-.054-.142h0a.951.951,0,0,1,.1-.758l.789-1.308a.955.955,0,0,1,.813-.459h0l8.309.01,6.206-5.56a1.682,1.682,0,0,1,2.3,2.448l-6.192,6.887a2.285,2.285,0,0,1-1.7.758Z" transform="translate(-504.572 -373.162)" fill="#003cc4"/>
      <path id="パス_2444" data-name="パス 2444" d="M651.267,357.92c.384-.888.708-2.071-.028-2.7a2.728,2.728,0,0,0-1.6-.41,4.926,4.926,0,0,1-3.969-2.234,2.954,2.954,0,0,1,1.113-4.057,4.753,4.753,0,0,1,3.128.157l3.079.873a5.431,5.431,0,0,1,2.534,1.231,3.483,3.483,0,0,1,.138,4.209,7.553,7.553,0,0,1-3.529,3.068Z" transform="translate(-567.303 -316.195)" fill="#523c1a"/>
      <path id="パス_2445" data-name="パス 2445" d="M315.6,737.531H189.365a.2.2,0,1,1,0-.407H315.6a.2.2,0,1,1,0,.407Z" transform="translate(-189.162 -638.531)" fill="#3f3d56"/>
    </g>
    <g id="グループ_2259" data-name="グループ 2259" transform="translate(213.284 5166.943)">
      <circle id="楕円形_358" data-name="楕円形 358" cx="3.323" cy="3.323" r="3.323" transform="translate(6.588 31.355)" fill="#899ba6"/>
      <circle id="楕円形_365" data-name="楕円形 365" cx="1.734" cy="1.734" r="1.734" transform="translate(6.732 21.53)" fill="#f2f2f2"/>
      <path id="パス_2447" data-name="パス 2447" d="M481.858,220.369a9.617,9.617,0,0,0-9.52,9.451c0,.048,0,.385,0,.826a2.438,2.438,0,0,0,2.438,2.438h0a2.439,2.439,0,0,0,2.439-2.441c0-.3,0-.508,0-.521a4.624,4.624,0,1,1,7.118,3.893h0s-3.47,2.234-4.528,5.3h0a6.791,6.791,0,0,0-.28,1.934c0,.269.016,2.624.046,4.535a2.513,2.513,0,0,0,2.513,2.472h0a2.514,2.514,0,0,0,2.514-2.529c-.011-1.75-.016-3.789-.016-3.937,0-1.882,1.815-3.756,3.306-4.979a10.028,10.028,0,0,0,3.449-5.491,6.267,6.267,0,0,0,.181-1.361,9.591,9.591,0,0,0-9.66-9.59Z" transform="translate(-472.303 -220.369)" fill="#899ba6"/>
      <path id="パス_2461" data-name="パス 2461" d="M475.025,282.911h0a2.438,2.438,0,0,1-2.438-2.438c0-.441,0-.778,0-.826a9.5,9.5,0,0,1,1.11-4.328,9.522,9.522,0,0,0-1.832,5.484c0,.048,0,.385,0,.826a2.438,2.438,0,0,0,2.438,2.438h0a2.44,2.44,0,0,0,2.347-1.777A2.429,2.429,0,0,1,475.025,282.911Z" transform="translate(-471.865 -271.349)" fill="#3f3d56"/>
      <path id="パス_2462" data-name="パス 2462" d="M558.388,276.566a4.624,4.624,0,0,1,4.021,6.46,4.624,4.624,0,1,0-7.761-4.839A4.614,4.614,0,0,1,558.388,276.566Z" transform="translate(-548.668 -271.429)" fill="#3f3d56"/>
      <path id="パス_2463" data-name="パス 2463" d="M574.647,463.8h0a2.513,2.513,0,0,1-2.513-2.473c-.031-1.911-.046-4.266-.046-4.535a6.793,6.793,0,0,1,.28-1.934h0a6.864,6.864,0,0,1,.4-.918,7.95,7.95,0,0,0-1.119,2.074h0a6.791,6.791,0,0,0-.28,1.934c0,.269.016,2.624.046,4.535a2.513,2.513,0,0,0,2.513,2.472h0a2.514,2.514,0,0,0,2.413-1.809A2.5,2.5,0,0,1,574.647,463.8Z" transform="translate(-564.176 -437.062)" fill="#3f3d56"/>
      <path id="パス_2476" data-name="パス 2476" d="M565.572,668.825a3.323,3.323,0,0,1-1.233-5.165,3.323,3.323,0,1,0,4.52,4.8A3.321,3.321,0,0,1,565.572,668.825Z" transform="translate(-556.393 -631.634)" fill="#3f3d56"/>
    </g>
  </g>
</svg>
