<svg id="イラスト" xmlns="http://www.w3.org/2000/svg" width="113.52" height="90.203" viewBox="0 0 113.52 90.203">
  <path id="パス_2355" data-name="パス 2355" d="M748.862,590.971a6.342,6.342,0,0,1-2.275-5.467,5.127,5.127,0,0,1,3.811-4.353,4.315,4.315,0,0,1,4.914,2.731c.336-3.787.724-7.733,2.737-10.958a11.606,11.606,0,0,1,8.4-5.384,10.413,10.413,0,0,1,9.16,3.739,9.45,9.45,0,0,1,1.162,9.73,14.061,14.061,0,0,1-5.256,5.368,33.921,33.921,0,0,1-23.2,5.075" transform="translate(-664.18 -501.852)" fill="#f2f2f2"/>
  <path id="パス_2356" data-name="パス 2356" d="M815.73,573.842a55.973,55.973,0,0,0-16.446,22.238c-.157.384.467.552.622.172a55.348,55.348,0,0,1,16.28-21.953C816.508,574.036,816.049,573.582,815.73,573.842Z" transform="translate(-707.682 -507.037)" fill="#fff"/>
  <path id="パス_2357" data-name="パス 2357" d="M386.547,608.909h-8.911a1.137,1.137,0,0,1-1.136-1.136V589.252a1.137,1.137,0,0,1,1.136-1.136h8.911a1.137,1.137,0,0,1,1.136,1.136v18.522a1.137,1.137,0,0,1-1.136,1.136Z" transform="translate(-358.793 -518.881)" fill="#96bf46"/>
  <path id="パス_2358" data-name="パス 2358" d="M506.722,525.732h-8.911a1.312,1.312,0,0,1-1.31-1.311V488.426a1.312,1.312,0,0,1,1.31-1.311h8.911a1.312,1.312,0,0,1,1.311,1.311v35.995A1.312,1.312,0,0,1,506.722,525.732Zm-8.911-38.267a.962.962,0,0,0-.961.961v35.995a.962.962,0,0,0,.961.961h8.911a.962.962,0,0,0,.961-.961V488.426a.962.962,0,0,0-.961-.961Z" transform="translate(-457.825 -435.529)" fill="#3f3d56"/>
  <path id="パス_2359" data-name="パス 2359" d="M627.722,417.622h-8.911a1.312,1.312,0,0,1-1.31-1.31V357.426a1.312,1.312,0,0,1,1.31-1.31h8.911a1.312,1.312,0,0,1,1.31,1.31v58.885A1.312,1.312,0,0,1,627.722,417.622Zm-8.911-61.157a.962.962,0,0,0-.961.961v58.885a.962.962,0,0,0,.961.961h8.911a.962.962,0,0,0,.961-.961V357.426a.962.962,0,0,0-.961-.961Z" transform="translate(-557.682 -327.419)" fill="#3f3d56"/>
  <path id="パス_2360" data-name="パス 2360" d="M750.677,304.885h-8.911a1.137,1.137,0,0,1-1.136-1.136v-83a1.137,1.137,0,0,1,1.136-1.136h8.911a1.137,1.137,0,0,1,1.136,1.136v83A1.137,1.137,0,0,1,750.677,304.885Z" transform="translate(-659.297 -214.77)" fill="#96bf46"/>
  <path id="パス_2361" data-name="パス 2361" d="M454.32,378a1.757,1.757,0,0,0-1.832-1.976l-3.106-5.7-.7,2.446,2.128,5.222a1.767,1.767,0,0,0,3.509.006Z" transform="translate(-418.363 -339.145)" fill="#a0616a"/>
  <path id="パス_2362" data-name="パス 2362" d="M68.816,319.594l1.73,1.263,5.7-6.072-2.554-1.864Z" transform="translate(-56.792 -258.243)" fill="#a0616a"/>
  <path id="パス_2363" data-name="パス 2363" d="M0,0H6.733V2.6H2.6A2.6,2.6,0,0,1,0,0H0Z" transform="matrix(-0.808, -0.59, 0.59, -0.808, 15.918, 66.656)" fill="#2f2e41"/>
  <path id="パス_2364" data-name="パス 2364" d="M121.2,350.351h2.142l1.019-8.263H121.2Z" transform="translate(-100.022 -282.314)" fill="#a0616a"/>
  <path id="パス_2365" data-name="パス 2365" d="M0,0H6.733V2.6H2.6A2.6,2.6,0,0,1,0,0Z" transform="translate(27.451 70.026) rotate(179.997)" fill="#2f2e41"/>
  <path id="パス_2366" data-name="パス 2366" d="M396.871,385.886s1.048,10.134-1.573,17.124l-1.922,13.28h-3.32l.349-15.726-1.223-13.979S391.629,380.295,396.871,385.886Z" transform="translate(-369.26 -350.076)" fill="#2f2e41"/>
  <path id="パス_2367" data-name="パス 2367" d="M77.341,203.163l3.495,12.057-6.815,10.833,3.407,2.883L85.2,216.792,82.932,201.94Z" transform="translate(-61.087 -166.654)" fill="#2f2e41"/>
  <circle id="楕円形_344" data-name="楕円形 344" cx="4.292" cy="4.292" r="4.292" transform="translate(20.874 0.89)" fill="#a0616a"/>
  <path id="パス_2368" data-name="パス 2368" d="M365.971,253.453s2.621-1.747,5.591,2.1l.786,24.2s-2.272-3.145-6.989-.175-5.766-.349-5.766-.349S356.273,254.24,365.971,253.453Z" transform="translate(-344.388 -242.368)" fill="#ccc"/>
  <path id="パス_2369" data-name="パス 2369" d="M414.246,266.954h0a3.059,3.059,0,0,1,2.89,2.894l.554,10.534,3.669,9.96-2.1,1.747-6.815-11.882-1.4-9.766a3.059,3.059,0,0,1,3.193-3.487Z" transform="translate(-387.283 -253.833)" fill="#ccc"/>
  <path id="パス_2370" data-name="パス 2370" d="M392.655,200.285a1.215,1.215,0,0,0,2.1-.675,1.232,1.232,0,0,0,0-.238,5.522,5.522,0,0,1-.246-1.34.7.7,0,0,1,.129-.329c.559-.749,1.872.335,2.4-.343.324-.416-.057-1.07.191-1.534.328-.613,1.3-.311,1.907-.646.677-.374.637-1.413.191-2.045a3.216,3.216,0,0,0-2.438-1.241,6.54,6.54,0,0,0-2.755.538,5.506,5.506,0,0,0-2.6,1.8,4.406,4.406,0,0,0-.445,3.752A7.072,7.072,0,0,0,392.655,200.285Z" transform="translate(-370.643 -191.884)" fill="#2f2e41"/>
  <path id="パス_2371" data-name="パス 2371" d="M388.474,705.726H275.37a.208.208,0,1,1,0-.416h113.1a.208.208,0,1,1,0,.416Z" transform="translate(-275.162 -615.598)" fill="#3f3d56"/>
</svg>
