<svg id="グループ_4428" data-name="グループ 4428" xmlns="http://www.w3.org/2000/svg" xmlns:xlink="http://www.w3.org/1999/xlink" width="180" height="199.881" viewBox="0 0 180 199.881">
  <defs>
    <clipPath id="clip-path">
      <rect id="長方形_546" data-name="長方形 546" width="180" height="199.881" fill="none"/>
    </clipPath>
  </defs>
  <g id="グループ_4427" data-name="グループ 4427" clip-path="url(#clip-path)">
    <path id="パス_4088" data-name="パス 4088" d="M362.656,246.23a2.4,2.4,0,0,0,.207-.653,1.9,1.9,0,0,1,0-.4c-.02-.075-.083-.314-.132-.473-.01-.011-.1-.224-.136-.291-.137-.257-.3-.5-.439-.755a6.28,6.28,0,0,0-.574-.976,1.682,1.682,0,0,0-.233-.209c.056.039-.222-.076-.186-.088a3.764,3.764,0,0,0-.8.015,1.457,1.457,0,0,1-1.444-1.276,1.439,1.439,0,0,1,.2-1.075,1.74,1.74,0,0,1,.481-.509,4.814,4.814,0,0,0,1.847-2.021.342.342,0,0,0,.012-.317,1.857,1.857,0,0,0-.4-.511,18.885,18.885,0,0,0-1.612-1.386c-1.05-.841-1.976-1.782-2.98-2.674a5.538,5.538,0,0,0-3.339-1.527c-1.564-.118-3.148-.094-4.716-.129-1.448-.033-2.921-.147-4.368-.06a2.551,2.551,0,0,0-1.424.423,1.617,1.617,0,0,0-.4.445c-.1.166-.049.077-.021.149.375.956,1.968,1.239,2.873,1.448,3.14.727,6.284,1.439,9.426,2.159a1.372,1.372,0,0,1,.8,2.149,1.455,1.455,0,0,1-.762.635c.664.1,1.325.214,1.984.343a1.478,1.478,0,0,1,1.022,1.8,1.5,1.5,0,0,1-1.8,1.023,76.381,76.381,0,0,0-7.6-.977c-.329-.03-.659-.056-.988-.085-.472-.041-.944-.085-1.416-.121l-.053,0c-.147.055-.382.092-.462.117-1.923.615-3.834,1.274-5.719,2-1.061.408-2.115.835-3.138,1.332-1.076.522-2.634.921-3.379,1.916a1.42,1.42,0,0,0-.345,1.131,2.1,2.1,0,0,0,1.137,1.05,2.536,2.536,0,0,0,1.937-.163c1.626-.578,3.233-1.215,4.839-1.845l.272-.108q2.022-.793,4.039-1.6a4.5,4.5,0,0,1,2.1-.165l8.1.471c1.876.109,1.882,3.038,0,2.928l-4.165-.242c-1.62-.094-3.32-.053-4.929-.282-.1.043-.226.072-.3.1q-.984.394-1.969.784c-1.839.729-3.679,1.454-5.529,2.157a14.015,14.015,0,0,1-3.146.946,1.932,1.932,0,0,1-.164.233,1.357,1.357,0,0,0,.126,1.772,2.773,2.773,0,0,0,1.737.556,7.656,7.656,0,0,0,2.346-.4,21.99,21.99,0,0,0,3.148-1.105c.966-.432,1.827-1.077,2.833-1.421a5.015,5.015,0,0,1,2.823.04c2.528.562,5.041,1.2,7.546,1.852a1.465,1.465,0,0,1-.778,2.823q-1.977-.516-3.961-1-1.373-.338-2.75-.659a3.379,3.379,0,0,0-2.269-.151c-1.118.514-2.141,1.151-3.3,1.607a24.661,24.661,0,0,1-2.68.886c0,.035.01.066.01.1,0,.236.013.469.03.7a.111.111,0,0,1,0,.016l.01.035c.028.1.044.2.073.3.022.077.048.153.076.228a1.174,1.174,0,0,0,.063.1l.065.1.1.1c.058.039.161.113.179.125l.082.05.047.015a2.934,2.934,0,0,0,.663.157,4.363,4.363,0,0,0,.723.011c.109-.006.217-.016.326-.026l.083-.007.023,0a29.649,29.649,0,0,0,4.648-1.14,1.473,1.473,0,0,1,1.424.377,18.045,18.045,0,0,0,3.5,2.649c1.649.916.171,3.445-1.478,2.529a19.638,19.638,0,0,1-3.412-2.5,21.978,21.978,0,0,1-5.11,1.049,4.939,4.939,0,0,1-3.9-1.357,4.852,4.852,0,0,1-1.124-3.175,5.682,5.682,0,0,1-3.609-1.181,4.067,4.067,0,0,1-.638-.649,1.932,1.932,0,0,1-.975.1l-.474-.067-1.591-.224v1.289a1.431,1.431,0,0,1,2.385,1.078,30.068,30.068,0,0,0,.021,3.393,11.029,11.029,0,0,0,.244,1.94c.115.511.354.981.443,1.495a12.112,12.112,0,0,1-.209,4.041c-.244,1.461-.582,2.9-.922,4.345-.136.575-.275,1.149-.4,1.726-.054.243-.1.486-.152.73-.011.058-.02.118-.03.176,0,.023-.007.045-.01.063a1.471,1.471,0,0,1-1.444,1.341,1.543,1.543,0,0,1-1.028-.43,6.665,6.665,0,0,0,.174.851,1.347,1.347,0,0,1,.1.318,5.866,5.866,0,0,0,.224.566,1.408,1.408,0,0,1,2.526-.12,6.623,6.623,0,0,0,.371.641c.052.079.108.156.163.233.028.039.061.082.08.1a8.879,8.879,0,0,0,1.1,1.065c.065.046.238.174.268.195.107.073.215.144.324.211q.4.25.824.46a8.788,8.788,0,0,0,1.739.64c3.559.974,7.5.3,11.069-.808a1.193,1.193,0,0,1-.269-.849q.067-.609.134-1.218l.777-7.057c-1.349.605-2.931-1.189-1.66-2.332a14.86,14.86,0,0,1,4.826-2.709,11.093,11.093,0,0,0,3.862-2,12.824,12.824,0,0,0,2.528-3.094c.725-1.258.862-2.768,1.672-3.983a7,7,0,0,1,1.508-1.535A3.59,3.59,0,0,0,361.792,254a1.254,1.254,0,0,0,.05-.5c.006-.36-.016-.722-.041-1.081-.037-.528-.043-1.088-.1-1.6a.721.721,0,0,1-.008-.141c-.008,0-.024-.023-.057-.086-.048-.09-.11-.17-.166-.254a3.627,3.627,0,0,1-.229-.371,2.012,2.012,0,0,1,.074-1.946c.378-.652,1.012-1.093,1.341-1.784" transform="translate(-191.417 -134.576)" fill="#fff"/>
    <path id="パス_4089" data-name="パス 4089" d="M212.876,95.848l.025.009-.063-.025.038.015" transform="translate(-124.06 -55.859)" fill="#94c6d5"/>
    <path id="パス_4090" data-name="パス 4090" d="M16.79,62.047a5.143,5.143,0,0,1-.556.647,5,5,0,0,1-1.245.883,5.314,5.314,0,0,1,1.545,1.5c.1.143.169.3.249.445.1-.216.209-.431.332-.639a4.97,4.97,0,0,1,1.226-1.394,5.422,5.422,0,0,1-1.1-.9,6.166,6.166,0,0,1-.452-.55" transform="translate(-8.737 -36.166)" fill="#f9e26b"/>
    <path id="パス_4091" data-name="パス 4091" d="M212.817,95.824l.009,0-.009,0" transform="translate(-124.047 -55.854)" fill="#94c6d5"/>
    <path id="パス_4092" data-name="パス 4092" d="M211.661,268.478l0,0-.006,0c-.206.139-.079.053,0,0" transform="translate(-123.307 -156.489)" fill="#94c6d5"/>
    <path id="パス_4093" data-name="パス 4093" d="M162.909,258.152c0-.007.009-.015.014-.023-.032.043-.1.138-.014.023" transform="translate(-94.933 -150.46)" fill="#94c6d5"/>
    <path id="パス_4094" data-name="パス 4094" d="M164.742,462.609c-.043.033-.034.027,0,0" transform="translate(-96.008 -269.647)" fill="#94c6d5"/>
    <path id="パス_4095" data-name="パス 4095" d="M144.249,108.491h0c.051.006.151.014,0,0" transform="translate(-84.078 -63.238)" fill="#94c6d5"/>
    <path id="パス_4096" data-name="パス 4096" d="M331.546,98.677a5.109,5.109,0,0,1-.735.471,4.982,4.982,0,0,1,.979.83,4.787,4.787,0,0,1,.562.8,6.316,6.316,0,0,1,.545-.872,4.8,4.8,0,0,1,.81-.826,5.819,5.819,0,0,1-.738-.532,5.275,5.275,0,0,1-.643-.653,4.783,4.783,0,0,1-.779.786" transform="translate(-192.824 -57.059)" fill="#f9e26b"/>
    <path id="パス_4097" data-name="パス 4097" d="M223.3,171.44a.468.468,0,0,0-.1.076c.061-.039.1-.069.1-.076" transform="translate(-130.103 -99.93)" fill="#94c6d5"/>
    <path id="パス_4098" data-name="パス 4098" d="M334.323,335.559c0,.008,0,.016,0,.024l0-.008,0-.016" transform="translate(-194.869 -195.592)" fill="#94c6d5"/>
    <path id="パス_4099" data-name="パス 4099" d="M218.806,171.938c.067.062.058.048.026.015l-.032-.02.006.005" transform="translate(-127.535 -100.217)" fill="#94c6d5"/>
    <path id="パス_4100" data-name="パス 4100" d="M214.25,162.334c.062.305.123.611.2.912.1.354.206.7.335,1.046.028.074.058.146.086.22h0c.074.14.134.288.207.429a6.854,6.854,0,0,0,.426.715c.024.035.049.069.073.1.065.073.126.15.192.221.084.089.171.176.262.258l.018.015a.487.487,0,0,1,.128.1c.118.069.274.152.335.185l.03.008.23.063h0c.07,0,.14.009.21.008.02,0,.083-.01.134-.014s.082-.016.122-.027c.074-.02.163-.062.241-.078l.023-.011c.033-.018.314-.178.471-.278l.01-.009c.043-.039.089-.075.133-.114.091-.081.178-.164.264-.25.157-.159.3-.331.442-.5.042-.057.128-.171.157-.214q.126-.185.244-.375c.179-.29.343-.589.5-.894q.115-.232.221-.467l.058-.132.059-.144c.078-.2.142-.4.213-.6l-6.025-.175" transform="translate(-124.883 -94.622)" fill="#fff"/>
    <path id="パス_4101" data-name="パス 4101" d="M154.015,291.615a7.848,7.848,0,0,0,3.516,2.5,18.975,18.975,0,0,0,5.131,1.094,29.928,29.928,0,0,0,9.426-.755l1.3-3.379.893-2.322a9.153,9.153,0,0,1,.521-1.322,4.317,4.317,0,0,1,1.314-1.059,22.865,22.865,0,0,0,1.864-1.424c.388-.329.766-.669,1.123-1.032.15-.152.3-.308.437-.47.053-.061.106-.124.157-.187l.07-.1a4.3,4.3,0,0,0,.282-.476,5.351,5.351,0,0,1,.168-.6q.287-1.02.582-2.037c.632-2.189,1.314-4.371,1.819-6.594.108-.476.207-.955.292-1.436.069-.394.128-.706.142-.93a13.556,13.556,0,0,0-.083-2.023c-.159-1.835-.4-3.664-.634-5.491-.04-.309-.081-.619-.121-.928,0-.01,0-.012,0-.019s-.012-.036-.022-.067c-.019-.062-.093-.3-.112-.375-.033-.06-.1-.193-.111-.211-.043-.07-.089-.145-.14-.212a1.259,1.259,0,0,1-.194-.184,1.74,1.74,0,0,0-.969-.352l-.042,0c-.016.053-.033.107-.046.16-.074.3-.172.895-.189,1.024.011-.085-.039.353-.048.445q-.034.327-.059.653c-.086,1.065-.131,2.136-.133,3.2a1.465,1.465,0,0,1-2.928,0c0-1.519.005-3.039.039-4.558.018-.783.11-1.579.09-2.361a1.318,1.318,0,0,0-.095-.5c.016.047-.1-.2-.1-.2.039.054-.115-.115-.206-.206,0,.01-.24-.152-.309-.188-.025-.013-.036-.019-.052-.028s-.049-.011-.093-.023c-.063-.018-.13-.033-.193-.053-.02-.007-.1-.023-.147-.035s-.1-.012-.113-.013c-.15,0-.3-.006-.447,0h-.025c-.062.012-.123.025-.184.04a.8.8,0,0,1-.148.027c-.007.006-.021.017-.035.027l0,.005c.033-.022.042-.026,0,.007l-.018.04a2.53,2.53,0,0,1-.116.237,12.251,12.251,0,0,0-.534,1.951c-.082.4-.154.8-.219,1.2q-.049.3-.093.605c-.006.043-.046.334-.055.4-.118.907-.217,1.818-.283,2.73a1.464,1.464,0,1,1-2.928,0q.17-2.511.257-5.027c.033-.985.061-1.973.032-2.959-.006-.211-.015-.423-.03-.633,0-.027-.008-.081-.012-.117-.016-.087-.032-.175-.054-.259-.08-.3-.043-.262-.23-.488.151.182-.135-.07-.123-.086-.068-.036-.158-.082-.206-.109-.075-.019-.208-.059-.2-.058l-.087-.014a1.617,1.617,0,0,0-.179-.01c-.111,0-.222.005-.333.014h-.014l-.06.016c-.093.025-.359.1-.439.123-.058.03-.22.106-.247.122-.063.036-.123.076-.184.116.044-.019-.041.069-.123.141-.008.022-.018.046-.023.065a41.6,41.6,0,0,0-.858,4.86q-.189,1.266-.364,2.534c-.037.264-.072.528-.108.792-.018.126-.007.044.005-.042a1.5,1.5,0,0,1-1.462,1.454,1.474,1.474,0,0,1-1.464-1.464c.186-1.794.361-3.59.5-5.389a21.616,21.616,0,0,0,.117-2.2,5.377,5.377,0,0,0-.433-2.008,2.569,2.569,0,0,1-.194-.508,2.052,2.052,0,0,0-.576,0,1.631,1.631,0,0,0-1.178.311,3.121,3.121,0,0,0-.911,1.152,4.2,4.2,0,0,1-.141.475c-.056.179-.116.358-.178.536-.151.438-.314.871-.482,1.3-.932,2.4-1.983,4.763-3,7.134a48.825,48.825,0,0,0-2.254,5.821,1.465,1.465,0,0,1-2.823-.778,36.082,36.082,0,0,1,1.549-4.249l-1.5-1.628a1.579,1.579,0,0,1-.429-1.035,1.473,1.473,0,0,1,.429-1.035,1.464,1.464,0,0,1,2.071,0l.708.768q.151-.345.3-.689a73.628,73.628,0,0,0,2.783-6.925,6.186,6.186,0,0,1,2.249-3.269,3.73,3.73,0,0,1,.455-.284.819.819,0,0,0-.193-.2,2.273,2.273,0,0,0-.616-.4,1.634,1.634,0,0,0-1.45.33c.011.005-.252.236-.285.274l-.053.056c-.011.02-.028.049-.055.092a5.3,5.3,0,0,0-.357.682c-.024.07-.119.315-.131.347-.047.13-.092.261-.138.392-.091.257-.184.513-.287.765a5.684,5.684,0,0,1-1.039,1.767,4.828,4.828,0,0,1-1.669,1.043,5.714,5.714,0,0,0-2.738,2.14c-.617,1.072-.463,2.4-.772,3.632a34.8,34.8,0,0,1-1.428,3.989,20.69,20.69,0,0,0-1.327,4.276,1.885,1.885,0,0,0,.073.774c.121.314.267.618.417.918a20.7,20.7,0,0,0,1.332,2.277c2,2.993,4.547,5.578,6.362,8.7a1.485,1.485,0,0,1-1.957,2.033A29.078,29.078,0,0,0,154,289.873a1.484,1.484,0,0,1-1.8,1.022,1.255,1.255,0,0,1-.48-.227,3.049,3.049,0,0,0,.392.816,1.449,1.449,0,0,1,1.908.13m6.939-22.473a2.234,2.234,0,0,0,1.834,1.178c.948.034,1.737-.848,2.673-1.154a3.329,3.329,0,0,1,3.3.834c.382.324.709.71,1.092,1.031a.815.815,0,0,0,.693.284c.732.011,1.264-.465,2.1-.789a3.347,3.347,0,0,1,3.065.236c.825.559,1,.983,1.865,1.165a1.294,1.294,0,0,0,1.493-.44c.992-1.6,3.523-.128,2.529,1.478a4.461,4.461,0,0,1-5.452,1.609,4.278,4.278,0,0,1-1.4-.8c-.14-.118-.271-.245-.405-.368-.053-.048-.308-.251-.231-.21a1.616,1.616,0,0,0-.507.083c-.114.043-.539.279-.764.388a4.88,4.88,0,0,1-2.732.543,4.377,4.377,0,0,1-2.6-1.363c-.254-.242-.571-.594-.8-.766-.267-.2-.2-.2-.5-.07-.463.2-.865.548-1.325.765a4.772,4.772,0,0,1-1.542.437,5.1,5.1,0,0,1-4.917-2.592,1.465,1.465,0,0,1,2.529-1.478" transform="translate(-86.82 -146.659)" fill="#fff"/>
    <path id="パス_4102" data-name="パス 4102" d="M328.332,338.547a6.594,6.594,0,0,1-.173-.851c-.02-.019-.035-.041-.053-.061a4.53,4.53,0,0,1-.117.445,1.423,1.423,0,0,1,.344.466" transform="translate(-191.179 -196.802)" fill="#94c6d5"/>
    <path id="パス_4103" data-name="パス 4103" d="M131.7,46.619c2.056-.665,4.062.293,5.652,1.55a1.449,1.449,0,0,1,.144,1.89,15.39,15.39,0,0,1,2.406,1.453V49.919a1.255,1.255,0,0,1-.553-.788l-.733-3.743c-.224-1.143-.477-2.285-.673-3.434-.191-1.124.758-1.974,1.362-2.827,1.072-1.515,2.1-3.063,3.045-4.664.48-.817.938-1.648,1.338-2.508.064-.137.127-.275.186-.415l.023-.057c.067-.171.132-.342.191-.516a6.99,6.99,0,0,0,.264-.99,1.477,1.477,0,0,1,1.8-1.022,1.5,1.5,0,0,1,1.022,1.8c-.473,2.568-2.14,5.029-3.534,7.184-.106.164-.22.325-.327.488a9.256,9.256,0,0,0,2.346-.974,1.468,1.468,0,0,1,.609-1.816,28.953,28.953,0,0,0,10.494-9.045,1.5,1.5,0,0,1,2-.526,1.477,1.477,0,0,1,.525,2,32.583,32.583,0,0,1-6.062,6.5c1.424-.287,2.893-.608,4.305-1.019a1.469,1.469,0,0,1,.72-1.241,22.92,22.92,0,0,0,2.562-1.6q.143-.1.284-.208l.2-.155c.166-.131.331-.264.493-.4q.566-.473,1.1-.982a22.751,22.751,0,0,0,2.045-2.222l.143-.18.145-.191q.21-.282.411-.57.442-.634.84-1.3a1.492,1.492,0,0,1,2-.525,1.388,1.388,0,0,1,.685.981,13.6,13.6,0,0,0,2.358-3.313,1.1,1.1,0,0,0,.376.664,1.482,1.482,0,0,1,2.089.868,23.281,23.281,0,0,0,3.294,7.018c.068.094.212.279.406.511s.389.453.591.672c.424.458.871.9,1.331,1.317a40.576,40.576,0,0,0,3.261,2.633,1.5,1.5,0,0,1,.526,2,1.6,1.6,0,0,1-1.156.726,3.506,3.506,0,0,0,1.563,1.112,1.141,1.141,0,0,1,.058-.5,16.259,16.259,0,0,0,.819-7.6,25.322,25.322,0,0,0-5.818-13.32A19.252,19.252,0,0,0,173.4,13.2a13.113,13.113,0,0,0-6.425-1.645,1.426,1.426,0,0,1-1.336-1.945c-.741-.352-1.483-.733-2.224-1.086A1.593,1.593,0,0,1,163,9.752a1.508,1.508,0,0,1-2.071,0,13.151,13.151,0,0,0-11.53-2.3,29.9,29.9,0,0,0-11.042,5.566,45.015,45.015,0,0,0-8.791,8.837,27.811,27.811,0,0,0-2.969,4.668A13.818,13.818,0,0,0,125.74,33c.25,4.751,1.687,9.371,3.05,13.9a1.417,1.417,0,0,1-1.615,1.791l.6,2.216c.055-.156.108-.312.171-.466a6.349,6.349,0,0,1,3.756-3.822" transform="translate(-73.267 -4.094)" fill="#323232"/>
    <path id="パス_4104" data-name="パス 4104" d="M183.9,255.6c-4.227,1.377-8.984,2.2-13.35.946a10.307,10.307,0,0,1-6.464-4.852,1.412,1.412,0,0,1,0-1.358,5.865,5.865,0,0,1-.224-.566,1.525,1.525,0,0,1-.017.6l-.39,1.741-2.739,12.217c-.413,1.841-3.235,1.057-2.823-.779l.39-1.741,2.739-12.217a1.405,1.405,0,0,1,2.4-.61,4.539,4.539,0,0,0,.117-.445,1.259,1.259,0,0,1-.382-.974,25.6,25.6,0,0,1,.754-3.663c.334-1.418.661-2.84.888-4.279.068-.432.064-.4.1-.786.03-.3.054-.607.06-.911,0-.146,0-.29,0-.436,0-.031-.01-.147-.014-.215-.009-.05-.019-.107-.025-.127-.025-.083-.05-.165-.078-.247a18.909,18.909,0,0,1-.687-7.122,1.411,1.411,0,0,1,.542-1.078v-1.289l-7.951-1.122-14.852-2.1-10.656-1.5c-.305-.043-.614-.105-.921-.13-.282-.023.253.035-.2.015a5.481,5.481,0,0,1-3.053-1.089c-1.181-.912-2-2.765-.56-3.83.326-.24.657-.474.985-.712l10.579-7.648,5.445-3.937c.429-.31.853-.646,1.284-.973v-2.483l-.749-.414a1.373,1.373,0,0,1-1.774,1.158c-4.163-1.217-8.389-2.352-12.474-3.82l.657,1.292a1.492,1.492,0,0,1-.385,1.894l-.483.863-5.036,8.989a1.465,1.465,0,0,1-1.459.7,1.5,1.5,0,0,1-1.217-1.049l-.527-1.262-3.709-8.878a1.473,1.473,0,0,1,1.023-1.8,1.513,1.513,0,0,1,1.8,1.022l.527,1.262,2.482,5.941,3.989-7.12-2.691-5.289a32.016,32.016,0,0,1-5.236,3.65,1.494,1.494,0,0,1-2-.525,1.479,1.479,0,0,1,.373-1.9c-.758.063-1.5.091-2.235.1a1.613,1.613,0,0,1,.026,1.543,1.513,1.513,0,0,1-2,.525c-.865-.37-1.725-.752-2.584-1.135q-1.244-.556-2.484-1.125h0c-3.413-1.56-6.8-3.181-10.141-4.888a97.9,97.9,0,0,1-11.9-6.858c-1.2,3.6-2.3,7.226-3.506,10.82l.573.307c.018-.038.03-.077.053-.115a1.474,1.474,0,0,1,2-.525c2.014,1.5,4.139,2.855,6.28,4.169,5.962,3.66,12.112,7.041,18.321,10.27l3.486-9.364a1.5,1.5,0,0,1,1.8-1.023,1.477,1.477,0,0,1,1.022,1.8l-4.109,11.039a1.49,1.49,0,0,1-2.151.875c-.792-.408-1.58-.823-2.368-1.239q-5.818-3.071-11.537-6.323A118.8,118.8,0,0,1,84.227,197.8a1.51,1.51,0,0,1-.578-1.889l-.573-.307c-.135.4-.265.805-.4,1.206a1.493,1.493,0,0,1-1.8,1.023,1.521,1.521,0,0,1-1.082-1.494l-1.274.92a1.526,1.526,0,0,1-.11,1.936,9.079,9.079,0,0,1-1.961,1.555c-5.81,4.038-12.042,7.476-18.03,11.238A30.232,30.232,0,0,0,50.6,218.4a22.549,22.549,0,0,0-4.94,14.032c0,.678.025,1.357.081,2.033q.019.227.042.453c.013.133-.06.7.026.273a.47.47,0,0,0,.006-.053c-.007-.022-.01-.046-.019-.068-.033-.086.043-.118.019.068.049.156.076.328.117.483.2.753.423,1.5.644,2.248.765,2.59,1.56,5.171,2.356,7.753q2.938,9.53,5.94,19.041c.822,2.615,1.583,5.257,2.526,7.833,2.182,5.962,4.473,11.86,7.038,17.517a51,51,0,0,0,4.305,8.162c.088.126.18.25.269.375l.02.027.013.015c.14.165.276.333.426.488a14.454,14.454,0,0,0,2.26,1.794,22.031,22.031,0,0,0,7.021,3.22,19.518,19.518,0,0,0,14.872-2.278c.6-.363,1.183-.76,1.755-1.169.024-.021.052-.046.084-.077.081-.08.163-.159.241-.242s.136-.157.2-.237c.029-.041.165-.214.2-.266.181-.262.35-.532.511-.806a26.963,26.963,0,0,0,1.978-4.315c2.549-6.692,4.056-13.719,6.474-20.452.082-.229.17-.455.254-.683-.3.061-.611.12-.918.169a21.065,21.065,0,0,1-9.122-.337,13.506,13.506,0,0,1-7.828-5.834c-1-1.6,1.531-3.072,2.529-1.478,3.5,5.6,10.856,5.894,16.616,4.149,1.575-3.945,3.33-7.831,5.106-11.689a31.929,31.929,0,0,1-9.643.6c-3.681-.342-7.916-1.358-10.323-4.413a1.5,1.5,0,0,1,0-2.071,1.312,1.312,0,0,1,.162-.13,3.055,3.055,0,0,1-.392-.816,1.6,1.6,0,0,1-.542-1.574c.047-.237.1-.471.167-.7a5.533,5.533,0,0,0-2.569,1.9,1.371,1.371,0,0,1,.449.156,1.51,1.51,0,0,1,.525,2l-1.508,3.391q-3.252,7.313-6.506,14.625l-4.1,9.216a1.475,1.475,0,0,1-2,.525,1.51,1.51,0,0,1-.525-2l1.508-3.391,6.506-14.625,4.1-9.215a1.407,1.407,0,0,1,1.554-.681,5.533,5.533,0,0,1,2.569-1.9c.443-1.632,1.214-3.177,1.548-4.837a1.162,1.162,0,0,1,.138-.35c-2.1-2.865-4.585-5.466-6.152-8.676a5.682,5.682,0,0,1-.858-2.881,12.292,12.292,0,0,1,.454-2.384c.481-1.672,1.177-3.271,1.785-4.9a16.992,16.992,0,0,0,.674-2.088c.012-.053.049-.246.066-.327s.018-.249.02-.28a11.723,11.723,0,0,1,.181-1.54,6.748,6.748,0,0,1,2.576-4.05,10.632,10.632,0,0,1,2.063-1.223c.2-.093.406-.179.61-.266l.174-.073a.509.509,0,0,0,.072-.065c.038-.046.086-.089.128-.133a3.44,3.44,0,0,0,.185-.3c.064-.114.12-.233.174-.352.018-.046.068-.169.084-.214.1-.28.2-.564.3-.844a7.807,7.807,0,0,1,.877-1.835,4.785,4.785,0,0,1,4.532-2.043,4.443,4.443,0,0,1,3.443,2.974,3.791,3.791,0,0,1,1.159.289,3.557,3.557,0,0,1,1.734,1.939,4.64,4.64,0,0,1,5.537.208,3.93,3.93,0,0,1,1.091,1.838,4.859,4.859,0,0,1,4.468.349,4.023,4.023,0,0,1,1.581,1.924,5.2,5.2,0,0,1,3.731,1.262c1.173,1.069,1.348,2.515,1.54,3.991.375,2.883,1.011,5.916.558,8.815a42.572,42.572,0,0,1-1.17,4.974c-.289,1.02-.588,2.037-.883,3.055a26.733,26.733,0,0,1-1.092,3.619,10.479,10.479,0,0,1-3.2,3.525q-1.067.85-2.2,1.618l-2.068,5.377c0,.006.011.012.015.018a1.52,1.52,0,0,1,.405,1.915q-.455.985-.9,1.975c-1.688,3.72-3.4,7.436-4.951,11.217a1.271,1.271,0,0,1,.073.184,1.47,1.47,0,0,1-.828,1.711c-.837,2.147-1.614,4.317-2.28,6.528-1.139,3.778-2.172,7.587-3.366,11.348H151.79c-.068-1.752-.069-3.512-.112-5.262q-.161-6.431-.321-12.862-.186-7.471-.372-14.943l-.308-12.354q-.064-2.572-.128-5.145c-.047-1.888,2.881-1.881,2.928,0,0,.031,0,.061,0,.092.12,2.1.105,4.207.157,6.3q.16,6.43.32,12.861.186,7.472.372,14.944.153,6.153.307,12.307a29.56,29.56,0,0,0,5.084,7.72,11.8,11.8,0,0,0,7.424,3.455,13.8,13.8,0,0,0,11.743-6.015,15.041,15.041,0,0,0,2.713-6.549,61.3,61.3,0,0,0,.222-6.281c.094-2.477.227-4.954.375-7.431a13.289,13.289,0,0,1-18.505-2.06,1.5,1.5,0,0,1,0-2.071,1.474,1.474,0,0,1,2.071,0,10.541,10.541,0,0,0,14.666,1.832,1.522,1.522,0,0,1,1.917-.125q.385-5.881.9-11.749a1.5,1.5,0,0,1,1.366-1.455V255.1a1.437,1.437,0,0,1-.714.5M81.41,257.028q-.83-2.482-1.657-4.965c-2.089-6.268-4.177-12.537-6.218-18.82a25.163,25.163,0,0,0-1.838-4.684,16.413,16.413,0,0,0-3.573-4.3c-2.9-2.531-6.426-4.258-9.684-6.264-1.6-.987-.131-3.519,1.478-2.528,3.855,2.373,8.043,4.421,11.279,7.657a18.091,18.091,0,0,1,3.52,4.9,39.407,39.407,0,0,1,1.8,4.942q1.6,4.93,3.241,9.851,2.226,6.719,4.47,13.431c.6,1.794-2.229,2.556-2.823.778" transform="translate(-26.614 -107.707)" fill="#fff"/>
    <path id="パス_4105" data-name="パス 4105" d="M170.91,113.337c.656-.359,1.288-.766,1.911-1.18.23-.153.456-.313.682-.471,0-.01,0-.019,0-.029l.158-2.212a21.131,21.131,0,0,1-11.985-1.33,35.742,35.742,0,0,1-8.255-5.231,28.505,28.505,0,0,1-7.031-8.453c-.91-1.654,1.62-3.13,2.528-1.478a26.265,26.265,0,0,0,7.18,8.336,26.824,26.824,0,0,0,9.436,5.058,17.811,17.811,0,0,0,8.893-.075,15.331,15.331,0,0,0,6.456-3.538c4.471-4.146,5.942-10.171,6.64-16.009.391-3.273.467-6.565.805-9.838l1.016-9.839a1.5,1.5,0,0,1,1.464-1.464,1.394,1.394,0,0,1,.483.1l.365-4.738a1.425,1.425,0,0,1-.568-.04,1.553,1.553,0,0,1-1.08-1.3,3.507,3.507,0,0,1-1.562-1.112,1.165,1.165,0,0,1-.847-.2,30.718,30.718,0,0,1-6.554-6.065,25.954,25.954,0,0,1-3.677-7.835,1.288,1.288,0,0,1,.734-1.646,1.1,1.1,0,0,1-.376-.664,13.6,13.6,0,0,1-2.358,3.314,1.454,1.454,0,0,1-.159,1.022,24.348,24.348,0,0,1-9.275,8.854,1.5,1.5,0,0,1-2-.526,1.315,1.315,0,0,1-.194-.762c-1.412.411-2.881.732-4.305,1.019a31.158,31.158,0,0,1-5.483,3.6,1.492,1.492,0,0,1-2-.525,1.371,1.371,0,0,1-.084-.187,9.287,9.287,0,0,1-2.346.974c-.771,1.172-1.571,2.327-2.409,3.452q.634,3.237,1.268,6.473a1.494,1.494,0,0,1-1.023,1.8,1.552,1.552,0,0,1-1.248-.235v1.594a15.423,15.423,0,0,0-2.406-1.453,1.308,1.308,0,0,1-.144.18,1.51,1.51,0,0,1-2.071,0,5.186,5.186,0,0,0-1.162-.7c.049.021-.333-.108-.416-.13s-.189-.047-.284-.065a3.7,3.7,0,0,0-.544-.005h-.013c-.065.014-.131.025-.195.044s-.318.119-.342.121c-.113.06-.223.123-.333.188-.254.15-.027-.023-.239.186-.1.1-.2.193-.3.3a2.178,2.178,0,0,0-.42.576,5.376,5.376,0,0,0-.7,1.76A7.5,7.5,0,0,0,136.7,77a12.738,12.738,0,0,0,2.786,4.292,12.523,12.523,0,0,0,4.3,3.337,1.5,1.5,0,0,1,1.023,1.8,1.475,1.475,0,0,1-1.8,1.022c-.155-.062-.3-.136-.456-.2,0,.072,0,.144-.007.216q-.186,6.13-.373,12.261a1.519,1.519,0,0,1-.022.168c1.381.9,2.8,1.755,4.227,2.573a209.7,209.7,0,0,0,21.647,10.614,1.074,1.074,0,0,1,.5.461c.734,0,1.477-.033,2.235-.1a1.245,1.245,0,0,1,.152-.108M164.844,71.28a1.465,1.465,0,0,1,0-2.928,1.465,1.465,0,0,1,0,2.928m16.511-.363a1.465,1.465,0,0,1,0-2.928,1.465,1.465,0,0,1,0,2.928m-2.262-8.884a1.571,1.571,0,0,1,.875-.673,21.632,21.632,0,0,1,2.268-.692,14.76,14.76,0,0,1,1.607-.286,4.754,4.754,0,0,1,1.144-.032,1.693,1.693,0,0,1,1.035.429,1.464,1.464,0,0,1,0,2.071,1.46,1.46,0,0,1-1.035.429,4.375,4.375,0,0,0-.963.016,17.516,17.516,0,0,0-3.277.889,1.464,1.464,0,0,1-1.653-2.151m-1.9,19.646a1.465,1.465,0,0,1,0,2.928,1.465,1.465,0,0,1,0-2.928m-.369,7.863a1.56,1.56,0,0,1,.316.042c.024,0,.049,0,.073.01a1.36,1.36,0,0,1,.925.8c.013.028.025.055.036.083.017.045.032.09.045.136a1.673,1.673,0,0,1,.043.185c0,.016,0,.032.006.048.007.052.019.1.021.155a1.222,1.222,0,0,1-.051.381V91.4a15.506,15.506,0,0,1-2.325,5.37,6.555,6.555,0,0,1-3.133,2.492,4.137,4.137,0,0,1-3.384-.4c-2.694-1.616-3.438-5.258-3.724-8.128a1.471,1.471,0,0,1,1.464-1.464l1.22.035,8.471.246M162.156,60.51a23.549,23.549,0,0,1,3.885.408,15.1,15.1,0,0,1,3.719,1.069,1.462,1.462,0,0,1-1.453,2.538c.02.008.04.018.06.024-.353-.111-.241-.092-.133-.052l-.01,0c-.126-.048-.253-.093-.381-.135-.267-.088-.537-.166-.809-.237-.585-.153-1.178-.275-1.773-.379-.3-.052-.6-.1-.9-.14l-.23-.028q-.211-.024-.422-.045c-.517-.051-1.036-.087-1.555-.09a1.464,1.464,0,1,1,0-2.928" transform="translate(-79.466 -24.527)" fill="#fff"/>
    <path id="パス_4106" data-name="パス 4106" d="M218.539,171.733c-.005.01.043.043.108.082-.031-.028-.063-.055-.1-.083-.005,0-.011,0-.013,0" transform="translate(-127.383 -100.099)" fill="#94c6d5"/>
    <path id="パス_4107" data-name="パス 4107" d="M413.342,275.382c.041,0,.058-.034.061-.086-.066.049-.121.085-.061.086" transform="translate(-240.915 -160.465)" fill="#94c6d5"/>
    <path id="パス_4108" data-name="パス 4108" d="M336.79,343.584h0" transform="translate(-196.306 -200.265)" fill="#94c6d5"/>
    <path id="パス_4109" data-name="パス 4109" d="M334.384,335.112c0-.035,0-.046,0,0" transform="translate(-194.907 -195.313)" fill="#94c6d5"/>
    <path id="パス_4110" data-name="パス 4110" d="M334.34,335.4c0,.023-.008.044-.011.067,0-.016.005-.031.008-.047l0-.02" transform="translate(-194.875 -195.499)" fill="#94c6d5"/>
    <path id="パス_4111" data-name="パス 4111" d="M302.273,224.45l-11.918-1.663v2.557l3.57.448,21.9,2.75,1.752.22a3.1,3.1,0,0,1-.413-2.233l-14.891-2.078" transform="translate(-169.243 -129.859)" fill="#3c9de8"/>
    <path id="パス_4112" data-name="パス 4112" d="M294.379,185.254l21.86,3.051,11.918,1.664V181c0-.774.028-1.554,0-2.327a2.037,2.037,0,0,0-1.212-1.862,5.325,5.325,0,0,0-1.339-.229c-2.166-.319-4.33-.654-6.495-.982l-22.59-3.415-3.414-.516c-.3-.046-.61-.1-.916-.138-.028,0-.058-.01-.088-.016a3.874,3.874,0,0,1-.536.181c-1.111.472-1.212,1.512-1.212,2.547v10.447l4.024.562" transform="translate(-169.243 -99.975)" fill="#3c9de8"/>
    <path id="パス_4113" data-name="パス 4113" d="M277.011,237.865l-13.071-1.676-2.1,1.517-16.066,11.615c.088.044.181.086.267.118a7.123,7.123,0,0,0,1.6.251l.48.068,2.7.381,20.019,2.825,12.713,1.793a4.663,4.663,0,0,1,.342-1.429,4.423,4.423,0,0,1-2.373-3.669,5,5,0,0,1,2.462-4,28.171,28.171,0,0,1,3.738-1.8c1.276-.564,2.574-1.077,3.883-1.559a52.708,52.708,0,0,1,5.182-1.766,2.18,2.18,0,0,1,.511-.062l-20.294-2.6" transform="translate(-143.259 -137.671)" fill="#3c9de8"/>
    <path id="パス_4114" data-name="パス 4114" d="M370.015,253.309a.248.248,0,0,1-.074.044.159.159,0,0,0,.074-.044" transform="translate(-215.632 -147.65)" fill="#fff"/>
    <path id="パス_4115" data-name="パス 4115" d="M369.548,253.452c-.236-.013-.129.015,0,0" transform="translate(-215.322 -147.731)" fill="#fff"/>
    <path id="パス_4116" data-name="パス 4116" d="M382.01,136.62l-2.8,8.487-.4,1.218a1.476,1.476,0,0,0,1.023,1.8,1.5,1.5,0,0,0,1.8-1.022l2.8-8.488.4-1.218a1.476,1.476,0,0,0-1.022-1.8,1.5,1.5,0,0,0-1.8,1.023" transform="translate(-220.763 -79.013)" fill="#323232"/>
    <path id="パス_4117" data-name="パス 4117" d="M391.812,157.558a1.486,1.486,0,0,0,2.071,0l8.328-7.967,1.191-1.139a1.464,1.464,0,1,0-2.071-2.071L393,154.348l-1.191,1.139a1.484,1.484,0,0,0,0,2.071" transform="translate(-228.136 -85.079)" fill="#323232"/>
    <path id="パス_4118" data-name="パス 4118" d="M413.747,177.119l-7.4,2.468-1.048.35a1.464,1.464,0,0,0,.779,2.823l7.4-2.468,1.048-.35a1.464,1.464,0,1,0-.778-2.823" transform="translate(-235.61 -103.202)" fill="#323232"/>
    <path id="パス_4119" data-name="パス 4119" d="M45.971,305.245c.008.021.012.046.019.068.024-.186-.052-.154-.019-.068" transform="translate(-26.791 -177.882)" fill="#323232"/>
    <path id="パス_4120" data-name="パス 4120" d="M327.4,215.986c.248.005.5.007.752.008q0-.289.008-.579l-3.934-.549-21.859-3.051-11.941-1.666q-.016,1.171-.032,2.342l3.933.549,21.86,3.051,3.176.443a6.586,6.586,0,0,1,2.414-.627c1.854-.14,3.765.038,5.622.08" transform="translate(-169.268 -122.492)" fill="#fff"/>
    <path id="パス_4121" data-name="パス 4121" d="M209.69,149.495c-4.3-1.257-8.668-2.423-12.877-3.962a1.426,1.426,0,0,0-1.585.589l-1.4-2.748-.457-.9a1.375,1.375,0,0,0-.911-.677,1.488,1.488,0,0,0-1.9.128c-.054.049-.111.1-.165.144,0-.01,0-.019,0-.028a1.193,1.193,0,0,0-.1-.51,17.932,17.932,0,0,0,3.891-1.89c5.52-3.593,8.382-9.759,9.478-16.075.747-4.3.95-8.631,1.287-12.974.277-3.571.737-7.135,1.1-10.7a1.407,1.407,0,0,0-.981-1.367l-.4,5.186.4-5.186a1.4,1.4,0,0,0-.483-.1,1.5,1.5,0,0,0-1.464,1.464l-1.016,9.839c-.338,3.273-.414,6.565-.805,9.838-.7,5.839-2.168,11.863-6.64,16.009a15.323,15.323,0,0,1-6.456,3.538,17.8,17.8,0,0,1-8.893.076,26.823,26.823,0,0,1-9.436-5.057,26.262,26.262,0,0,1-7.18-8.336c-.908-1.651-3.438-.176-2.528,1.478a28.5,28.5,0,0,0,7.032,8.453,35.72,35.72,0,0,0,8.254,5.231,21.131,21.131,0,0,0,11.985,1.329l-.158,2.212c0,.009,0,.019,0,.028-.227.159-.452.318-.682.471-.622.414-1.255.821-1.911,1.18a1.478,1.478,0,0,0-.525,2,1.5,1.5,0,0,0,2,.525,32.047,32.047,0,0,0,5.237-3.649l2.69,5.288-3.988,7.12-2.482-5.942-.527-1.261a1.514,1.514,0,0,0-1.8-1.023,1.473,1.473,0,0,0-1.022,1.8l3.709,8.878.527,1.261a1.5,1.5,0,0,0,1.217,1.049,1.466,1.466,0,0,0,1.459-.7l5.036-8.989.483-.863a1.492,1.492,0,0,0,.385-1.894l-.657-1.292c4.084,1.468,8.311,2.6,12.473,3.82a1.373,1.373,0,0,0,1.774-1.158l-3.157-1.744,3.157,1.744a1.39,1.39,0,0,0-1-1.665" transform="translate(-93.252 -57.374)" fill="#323232"/>
    <path id="パス_4122" data-name="パス 4122" d="M331.281,330.637c-.034,0-.065.008-.1.01v0a1.5,1.5,0,0,0-1.366,1.454q-.5,5.868-.9,11.749a1.521,1.521,0,0,0-1.917.126,10.542,10.542,0,0,1-14.666-1.832,1.474,1.474,0,0,0-2.071,0,1.5,1.5,0,0,0,0,2.071,13.29,13.29,0,0,0,18.505,2.06c-.147,2.476-.28,4.953-.374,7.431a61.533,61.533,0,0,1-.222,6.281,15.045,15.045,0,0,1-2.713,6.549,13.8,13.8,0,0,1-11.744,6.015,11.792,11.792,0,0,1-7.424-3.455,29.564,29.564,0,0,1-5.085-7.72l-.307-12.307q-.186-7.472-.373-14.943-.16-6.431-.321-12.862c-.052-2.1-.037-4.209-.157-6.3,0-.031,0-.061,0-.092-.047-1.881-2.975-1.888-2.928,0q.064,2.572.128,5.145.154,6.177.308,12.354.186,7.472.373,14.943.16,6.431.32,12.862c.044,1.75.045,3.51.112,5.263h0c.013.348.025.695.045,1.041,0,.031,0,.061,0,.092a1.5,1.5,0,0,0,2.765.712,25,25,0,0,0,2.275,3.064,15.166,15.166,0,0,0,7.559,4.714c5.272,1.347,10.737-.583,14.6-4.267a18.815,18.815,0,0,0,4.474-6.686,20.5,20.5,0,0,0,1.154-7.391c.095-4.944.414-9.886.756-14.818q.34-4.9.752-9.8a1.476,1.476,0,0,0-1.464-1.464" transform="translate(-173.187 -182.708)" fill="#323232"/>
    <path id="パス_4123" data-name="パス 4123" d="M320.641,338.875c-.035-.1-.066-.211-.1-.318a1.425,1.425,0,0,0-.343-.467c-.475,1.493-1.653,2.862-1.653,4.527,0-1.664,1.178-3.033,1.653-4.527a1.406,1.406,0,0,0-2.4.61l-2.739,12.217-.39,1.741c-.412,1.836,2.411,2.619,2.823.778l2.74-12.217q.2-.87.39-1.74a1.527,1.527,0,0,0,.017-.6" transform="translate(-183.393 -196.812)" fill="#323232"/>
    <path id="パス_4124" data-name="パス 4124" d="M328.907,340.139a1.34,1.34,0,0,0-.1-.318c.029.107.06.213.1.318" transform="translate(-191.659 -198.076)" fill="#323232"/>
    <path id="パス_4125" data-name="パス 4125" d="M127.628,344.984l-4.1,9.215-6.506,14.626-1.508,3.39a1.51,1.51,0,0,0,.525,2,1.475,1.475,0,0,0,2-.525l4.1-9.216,6.506-14.625,1.508-3.391a1.51,1.51,0,0,0-.526-2,1.379,1.379,0,0,0-.449-.156,18.1,18.1,0,0,0-1.168,1.589,18.1,18.1,0,0,1,1.168-1.589,1.407,1.407,0,0,0-1.554.681" transform="translate(-67.232 -200.673)" fill="#323232"/>
    <path id="パス_4126" data-name="パス 4126" d="M96.657,285.376q-1.631-4.922-3.241-9.851a39.4,39.4,0,0,0-1.8-4.942,18.086,18.086,0,0,0-3.52-4.9c-3.236-3.235-7.424-5.283-11.279-7.657-1.609-.991-3.082,1.54-1.478,2.528,3.258,2.006,6.786,3.733,9.684,6.263a16.419,16.419,0,0,1,3.573,4.3,25.175,25.175,0,0,1,1.838,4.684c2.042,6.283,4.13,12.552,6.218,18.82q.827,2.483,1.657,4.965c.595,1.778,3.424,1.016,2.823-.778q-2.245-6.713-4.47-13.431" transform="translate(-43.507 -150.265)" fill="#323232"/>
    <path id="パス_4127" data-name="パス 4127" d="M208.118,155.2a1.471,1.471,0,0,0-1.464,1.464c.286,2.869,1.03,6.512,3.724,8.128a4.136,4.136,0,0,0,3.384.4A6.556,6.556,0,0,0,216.9,162.7a15.5,15.5,0,0,0,2.325-5.37v-.008a1.223,1.223,0,0,0,.051-.381c0-.053-.014-.1-.021-.155l-.006-.048a1.551,1.551,0,0,0-.043-.185c-.013-.046-.028-.091-.044-.136-.011-.028-.023-.056-.036-.083a1.361,1.361,0,0,0-.925-.8c-.024-.005-.049-.005-.073-.01a1.582,1.582,0,0,0-.316-.043l-8.471-.245-1.22-.035m5.438,6.852a.446.446,0,0,1,.1-.075c0,.007-.038.037-.1.075m2.017-2.956-.058.132q-.106.236-.221.467c-.152.3-.316.6-.5.894q-.117.19-.243.375c-.03.043-.116.158-.157.214-.141.173-.284.345-.442.5-.086.086-.173.17-.264.25-.043.039-.09.075-.133.114l-.009.008c-.156.1-.438.259-.471.278l-.023.011c-.079.017-.167.058-.241.078-.04.011-.081.019-.122.027s-.114.013-.134.014c-.07,0-.14,0-.21-.007h0l-.23-.063-.031-.008c-.061-.033-.216-.116-.334-.185.032.033.04.047-.026-.015l-.006-.005c-.066-.04-.114-.073-.109-.082s.008,0,.013,0l-.018-.015c-.091-.082-.178-.168-.262-.258-.066-.071-.127-.148-.192-.221-.025-.035-.05-.069-.073-.1a6.84,6.84,0,0,1-.426-.715c-.073-.141-.133-.289-.207-.429h0c-.028-.074-.058-.146-.086-.22-.128-.343-.239-.692-.334-1.046-.082-.3-.142-.607-.2-.912l6.025.175c-.071.2-.135.4-.213.6l-.059.144" transform="translate(-120.452 -90.46)" fill="#323232"/>
    <path id="パス_4128" data-name="パス 4128" d="M218.571,171.734c.032.028.065.055.1.083l.032.02a.487.487,0,0,0-.128-.1" transform="translate(-127.401 -100.101)" fill="#323232"/>
    <path id="パス_4129" data-name="パス 4129" d="M40.372,118.977h2.869v2.869a1.464,1.464,0,1,0,2.928,0v-2.869h2.869a1.464,1.464,0,1,0,0-2.928H46.17v-2.869a1.464,1.464,0,1,0-2.928,0v2.869H40.372a1.464,1.464,0,1,0,0,2.928" transform="translate(-22.678 -65.116)" fill="#323232"/>
    <path id="パス_4130" data-name="パス 4130" d="M362.3,38.056h2.869v2.869a1.464,1.464,0,0,0,2.928,0V38.056h2.869a1.464,1.464,0,0,0,0-2.928H368.1V32.258a1.464,1.464,0,0,0-2.928,0v2.869H362.3a1.464,1.464,0,0,0,0,2.928" transform="translate(-210.326 -17.949)" fill="#323232"/>
    <path id="パス_4131" data-name="パス 4131" d="M15.035,50.553c-1.477-.063-3.392-.126-4.46-1.311a5.428,5.428,0,0,1-1.117-3.524c0-.07.011-.14.015-.209a1.524,1.524,0,0,0-.031-.405c0-.341,0-.679,0-1a1.465,1.465,0,0,0-2.928,0c0,.489.007.984.029,1.479-.077,1.259-.133,2.837-1.115,3.758s-2.73.919-4,1.068a1.472,1.472,0,0,0-.389,2.876c1.394.5,3.689.908,4.41,2.29.844,1.619.777,3.717,1.164,5.482a1.475,1.475,0,0,0,2.824,0,24.169,24.169,0,0,1,1.212-5.48c.776-1.761,2.686-1.882,4.387-2.1A1.51,1.51,0,0,0,16.5,52.017a1.488,1.488,0,0,0-1.464-1.464M8.379,53.6c-.123.207-.229.422-.332.639-.08-.149-.154-.3-.249-.445a5.314,5.314,0,0,0-1.545-1.5A5,5,0,0,0,7.5,51.411a5.143,5.143,0,0,0,.556-.647,6.158,6.158,0,0,0,.452.55,5.408,5.408,0,0,0,1.1.9A4.97,4.97,0,0,0,8.379,53.6" transform="translate(0 -24.882)" fill="#323232"/>
    <path id="パス_4132" data-name="パス 4132" d="M315.978,90c.907.281,1.828.516,2.722.837a3.74,3.74,0,0,1,1.764,1.035,6.075,6.075,0,0,1,.663,2.038c.184.9.3,1.813.524,2.7a1.476,1.476,0,0,0,2.824,0,16.662,16.662,0,0,1,1.331-4.884c.777-1.369,2.94-1.4,4.373-1.552a1.507,1.507,0,0,0,1.464-1.464,1.487,1.487,0,0,0-1.464-1.464c-1.417-.051-3.2-.067-4.395-.954A3.871,3.871,0,0,1,324.5,83.2c0-.047.009-.094.013-.141a1.141,1.141,0,0,0-.03-.338c-.006-.3,0-.6,0-.883a1.465,1.465,0,0,0-2.928,0c0,.414.009.833.032,1.252-.081,1.106-.173,2.454-1.152,3.158-1.087.782-2.788.744-4.062.871A1.472,1.472,0,0,0,315.978,90m7.735-1.633a5.839,5.839,0,0,0,.739.533,4.784,4.784,0,0,0-.81.826,6.4,6.4,0,0,0-.545.872,4.754,4.754,0,0,0-.562-.8,5,5,0,0,0-.979-.83,5.093,5.093,0,0,0,.734-.472,4.751,4.751,0,0,0,.779-.786,5.275,5.275,0,0,0,.643.653" transform="translate(-183.569 -46.878)" fill="#323232"/>
    <path id="パス_4133" data-name="パス 4133" d="M127.485,210.484a1.521,1.521,0,0,0,1.082,1.494,1.493,1.493,0,0,0,1.8-1.022c.138-.4.268-.8.4-1.207l-1.3-.7Z" transform="translate(-74.308 -121.853)" fill="#323232"/>
    <path id="パス_4134" data-name="パス 4134" d="M162.871,147.675a209.623,209.623,0,0,1-21.647-10.614c-1.43-.818-2.846-1.669-4.228-2.572a1.635,1.635,0,0,0,.022-.168q.187-6.13.374-12.26l.006-.216c.152.068.3.143.456.2a1.474,1.474,0,0,0,1.8-1.022,1.5,1.5,0,0,0-1.022-1.8,12.528,12.528,0,0,1-4.3-3.337,12.744,12.744,0,0,1-2.786-4.292,7.5,7.5,0,0,1-.16-4.056,5.352,5.352,0,0,1,.7-1.76,2.181,2.181,0,0,1,.42-.576c.095-.1.2-.2.3-.3.212-.21-.014-.037.239-.186.111-.065.22-.128.333-.188.025,0,.277-.1.342-.121s.13-.03.2-.044h.013a3.694,3.694,0,0,1,.544.005c.1.018.191.039.284.064s.465.151.416.13a5.175,5.175,0,0,1,1.161.7,1.511,1.511,0,0,0,2.071,0,1.336,1.336,0,0,0,.144-.181,2.285,2.285,0,0,1-1.108-2.061,2.285,2.285,0,0,0,1.108,2.061,1.449,1.449,0,0,0-.144-1.89c-1.59-1.258-3.6-2.216-5.652-1.55a6.348,6.348,0,0,0-3.756,3.822c-.064.153-.117.309-.171.466l1.312,4.854-1.312-4.854a10.556,10.556,0,0,0-.389,5.251,12.978,12.978,0,0,0,3.014,5.826,19.529,19.529,0,0,0,3.1,3.093,1.64,1.64,0,0,0-.025.193l-.372,12.218a1.508,1.508,0,0,0-1.866.6,1.438,1.438,0,0,0-.177.492,1.741,1.741,0,0,0-.147.311c-1.541,4.485-2.866,9.041-4.407,13.526a1.175,1.175,0,0,0-.059.307l1.983-1.432-.208-.111.208.111,1.526-1.1-1.526,1.1,1.3.7c1.205-3.595,2.308-7.223,3.506-10.82a97.868,97.868,0,0,0,11.9,6.858c4.15,2.121,8.367,4.113,12.623,6.013.859.384,1.719.765,2.584,1.135a1.513,1.513,0,0,0,2-.525,1.475,1.475,0,0,0-.525-2m-28.388-43.3c.147.014.047.006,0,0h0" transform="translate(-74.312 -59.121)" fill="#323232"/>
    <path id="パス_4135" data-name="パス 4135" d="M232.312,139.947a1.465,1.465,0,0,0,0-2.928,1.465,1.465,0,0,0,0,2.928" transform="translate(-134.586 -79.866)" fill="#323232"/>
    <path id="パス_4136" data-name="パス 4136" d="M242.293,107.126a1.465,1.465,0,0,0,0-2.928,1.465,1.465,0,0,0,0,2.928" transform="translate(-140.404 -60.735)" fill="#323232"/>
    <path id="パス_4137" data-name="パス 4137" d="M202.71,105.068a1.465,1.465,0,0,0,0,2.929,1.465,1.465,0,0,0,0-2.929" transform="translate(-117.332 -61.242)" fill="#323232"/>
    <path id="パス_4138" data-name="パス 4138" d="M156.9,3.5a13.225,13.225,0,0,1,2.426.932,1.185,1.185,0,0,0-.413-.841A15.773,15.773,0,0,0,146.884.125,28.64,28.64,0,0,0,134.454,5.2a48,48,0,0,0-10.166,9.363,40.832,40.832,0,0,0-3.672,5.232,14.584,14.584,0,0,0-1.9,6.737c-.3,5.8,1.511,11.57,3.163,17.054a1.366,1.366,0,0,0,1.209,1.012l-.566-2.1.566,2.1a1.417,1.417,0,0,0,1.615-1.791c-1.363-4.527-2.8-9.147-3.05-13.9a13.819,13.819,0,0,1,.856-6.481,27.836,27.836,0,0,1,2.969-4.668,45.04,45.04,0,0,1,8.791-8.837,29.909,29.909,0,0,1,11.042-5.566,13.151,13.151,0,0,1,11.53,2.3,1.508,1.508,0,0,0,2.071,0,1.59,1.59,0,0,0,.413-1.23A13.225,13.225,0,0,0,156.9,3.5" transform="translate(-69.179 0)" fill="#323232"/>
    <path id="パス_4139" data-name="パス 4139" d="M246.842,58.483a1.5,1.5,0,0,0-.525-2,40.509,40.509,0,0,1-3.261-2.633c-.461-.421-.908-.858-1.331-1.317q-.3-.328-.591-.672c-.195-.232-.338-.417-.407-.511a23.282,23.282,0,0,1-3.294-7.018,1.482,1.482,0,0,0-2.09-.868c.342.364.795.728.795,1.092,0-.364-.453-.728-.795-1.092a1.288,1.288,0,0,0-.734,1.646,25.954,25.954,0,0,0,3.677,7.835,30.719,30.719,0,0,0,6.554,6.065,1.164,1.164,0,0,0,.847.2c-.617-.7-1.163-1.585-1.935-2.356.772.772,1.318,1.656,1.935,2.356a1.6,1.6,0,0,0,1.156-.726" transform="translate(-136.705 -25.246)" fill="#323232"/>
    <path id="パス_4140" data-name="パス 4140" d="M241.529,26.044c-2.07-5.139-5.538-9.935-10.36-12.8a16.382,16.382,0,0,0-8.489-2.378,1.349,1.349,0,0,0-1.336.983,13.091,13.091,0,0,0,2.378.91,13.091,13.091,0,0,1-2.378-.91,1.426,1.426,0,0,0,1.336,1.945,13.112,13.112,0,0,1,6.425,1.645,19.258,19.258,0,0,1,5.472,4.551,25.329,25.329,0,0,1,5.818,13.32,16.269,16.269,0,0,1-.819,7.6,1.136,1.136,0,0,0-.058.5,3.485,3.485,0,0,0,1.748.049l0-.054,0,.054.025,0-.025,0-.1,1.291a1.572,1.572,0,0,0,1.233-1.063c1.843-5.01,1.086-10.781-.871-15.639" transform="translate(-128.974 -6.331)" fill="#323232"/>
    <path id="パス_4141" data-name="パス 4141" d="M265.02,84.09a1.554,1.554,0,0,0,1.081,1.3,1.423,1.423,0,0,0,.568.04l.1-1.291a3.485,3.485,0,0,1-1.748-.049" transform="translate(-154.476 -49.015)" fill="#323232"/>
    <path id="パス_4142" data-name="パス 4142" d="M157.989,72.462c.838-1.125,1.638-2.281,2.41-3.452a6.9,6.9,0,0,1-1.656.2,6.9,6.9,0,0,0,1.656-.2c.108-.163.221-.324.327-.488,1.394-2.154,3.061-4.616,3.535-7.184a1.5,1.5,0,0,0-1.023-1.8,1.477,1.477,0,0,0-1.8,1.023,7.026,7.026,0,0,1-.264.99c-.059.174-.125.345-.192.516l-.022.058c-.06.139-.123.277-.186.415-.4.859-.858,1.691-1.338,2.508-.94,1.6-1.973,3.148-3.045,4.664-.6.853-1.553,1.7-1.362,2.827.2,1.149.449,2.291.673,3.435l.733,3.742a1.252,1.252,0,0,0,.553.788v0a1.552,1.552,0,0,0,1.248.235,1.494,1.494,0,0,0,1.023-1.8l-1.268-6.473" transform="translate(-90.348 -34.675)" fill="#323232"/>
    <path id="パス_4143" data-name="パス 4143" d="M168.485,213.678a1.5,1.5,0,0,0-1.8,1.023l-3.485,9.364c-6.209-3.23-12.359-6.61-18.321-10.27-2.14-1.314-4.266-2.666-6.28-4.169a1.473,1.473,0,0,0-2,.525c-.022.038-.034.077-.053.115l1.385.742-1.385-.742a1.51,1.51,0,0,0,.578,1.889,118.85,118.85,0,0,0,12.223,7.677q5.711,3.264,11.537,6.323c.788.416,1.577.831,2.368,1.239a1.49,1.49,0,0,0,2.151-.875l4.109-11.039a1.477,1.477,0,0,0-1.023-1.8" transform="translate(-79.506 -122.062)" fill="#323232"/>
    <path id="パス_4144" data-name="パス 4144" d="M120.955,241.206c-.192-1.476-.366-2.921-1.54-3.991a5.206,5.206,0,0,0-3.731-1.261,4.031,4.031,0,0,0-1.581-1.924,4.86,4.86,0,0,0-4.468-.348,3.931,3.931,0,0,0-1.091-1.838,4.64,4.64,0,0,0-5.537-.208,3.558,3.558,0,0,0-1.734-1.939,3.8,3.8,0,0,0-1.159-.289,4.443,4.443,0,0,0-3.443-2.974,4.785,4.785,0,0,0-4.532,2.043,7.818,7.818,0,0,0-.877,1.835c-.1.28-.2.563-.3.844-.017.045-.066.168-.084.214-.054.119-.11.237-.174.352s-.118.2-.185.3c-.042.044-.09.087-.128.133a.469.469,0,0,1-.072.066l-.174.073c-.2.087-.408.174-.61.266a10.605,10.605,0,0,0-2.063,1.223,6.747,6.747,0,0,0-2.576,4.05,11.723,11.723,0,0,0-.182,1.54c0,.032-.015.2-.02.28s-.054.274-.066.327a16.991,16.991,0,0,1-.674,2.089c-.608,1.627-1.3,3.227-1.785,4.9a12.228,12.228,0,0,0-.454,2.384,5.681,5.681,0,0,0,.858,2.881c1.568,3.211,4.056,5.811,6.152,8.676a1.185,1.185,0,0,0-.138.35c-.334,1.66-1.1,3.206-1.548,4.837a2.933,2.933,0,0,1,1.533-.026,2.933,2.933,0,0,0-1.533.026c-.063.233-.12.467-.167.7a1.6,1.6,0,0,0,.543,1.574,3.14,3.14,0,0,1-.013-1.719,3.14,3.14,0,0,0,.013,1.719,1.251,1.251,0,0,0,.48.226,1.484,1.484,0,0,0,1.8-1.022,29.081,29.081,0,0,1,1.193-3.712,1.485,1.485,0,0,0,1.957-2.033c-1.815-3.12-4.366-5.7-6.362-8.7a20.711,20.711,0,0,1-1.332-2.277c-.15-.3-.3-.6-.417-.919a1.892,1.892,0,0,1-.073-.774,20.691,20.691,0,0,1,1.327-4.276,34.771,34.771,0,0,0,1.428-3.989c.309-1.231.155-2.56.772-3.632a5.713,5.713,0,0,1,2.738-2.14A4.824,4.824,0,0,0,92.6,234.08a5.684,5.684,0,0,0,1.039-1.767c.1-.252.2-.508.287-.765.046-.131.091-.262.138-.392.012-.033.107-.277.131-.347a5.3,5.3,0,0,1,.357-.682c.027-.043.044-.072.055-.092l.053-.055c.033-.037.3-.268.285-.274a1.633,1.633,0,0,1,1.45-.33,2.276,2.276,0,0,1,.617.4.823.823,0,0,1,.192.2,3.789,3.789,0,0,0-.455.284,6.186,6.186,0,0,0-2.249,3.269,73.639,73.639,0,0,1-2.783,6.925c-.1.229-.2.46-.3.689l-.708-.768a1.464,1.464,0,0,0-2.071,0,1.473,1.473,0,0,0-.429,1.035,1.578,1.578,0,0,0,.429,1.035l1.5,1.628a36.149,36.149,0,0,0-1.549,4.249,1.465,1.465,0,0,0,2.824.778,48.894,48.894,0,0,1,2.253-5.821c1.014-2.371,2.065-4.73,3-7.134.167-.431.33-.865.481-1.3.061-.178.121-.356.178-.536a4.193,4.193,0,0,0,.141-.475,3.125,3.125,0,0,1,.911-1.152,1.631,1.631,0,0,1,1.178-.311,2.052,2.052,0,0,1,.576,0,2.581,2.581,0,0,0,.194.508,5.373,5.373,0,0,1,.433,2.008,21.612,21.612,0,0,1-.116,2.2c-.142,1.8-.317,3.595-.5,5.389a1.473,1.473,0,0,0,1.464,1.464,1.5,1.5,0,0,0,1.462-1.454c-.012.086-.022.167-.005.042.036-.264.072-.528.108-.793q.176-1.268.364-2.534a41.591,41.591,0,0,1,.858-4.86c.005-.019.015-.043.023-.065.082-.071.168-.16.123-.141.06-.04.121-.081.184-.116.027-.015.189-.092.247-.122.08-.02.346-.1.439-.123l.06-.016h.014c.111-.009.222-.01.334-.013a1.53,1.53,0,0,1,.179.009l.087.014c-.005,0,.128.039.2.058.048.027.138.073.206.109-.011.015.274.268.123.086.187.226.15.189.23.488.023.085.039.172.054.259,0,.036.01.09.012.117.016.211.025.422.031.633.029.986,0,1.973-.032,2.959q-.084,2.515-.257,5.027a1.464,1.464,0,0,0,2.929,0c.066-.912.165-1.824.283-2.73.009-.063.049-.354.055-.4q.044-.3.093-.605c.065-.4.137-.805.219-1.2a12.253,12.253,0,0,1,.534-1.951,2.519,2.519,0,0,0,.116-.237l.018-.04c.045-.033.037-.028,0-.007l0-.005c.013-.01.028-.02.035-.027a.792.792,0,0,0,.148-.027c.061-.015.123-.028.184-.04h.025c.15-.005.3,0,.448,0,.018,0,.068.007.113.012s.128.028.147.035c.063.02.129.035.193.053.044.012.073.019.093.023s.027.016.052.028c.069.036.3.2.309.188.092.091.245.259.206.206,0,0,.12.249.1.2a1.315,1.315,0,0,1,.095.5c.02.782-.073,1.578-.091,2.361-.034,1.519-.042,3.039-.039,4.558a1.465,1.465,0,0,0,2.928,0c0-1.068.048-2.139.133-3.2.018-.218.037-.435.059-.653.01-.091.06-.529.048-.444.017-.129.115-.72.189-1.024.013-.053.03-.107.046-.16l.042,0a1.74,1.74,0,0,1,.969.352,1.279,1.279,0,0,0,.194.184c.05.068.1.143.14.212.011.018.078.151.111.211.019.075.093.312.112.375.01.031.015.046.022.067s0,.009,0,.02c.039.31.08.619.121.928.237,1.827.475,3.655.634,5.49a13.445,13.445,0,0,1,.083,2.023c-.015.224-.073.536-.142.93-.085.481-.184.96-.292,1.436-.5,2.223-1.187,4.405-1.819,6.594q-.294,1.018-.581,2.037a5.273,5.273,0,0,0-.169.6,4.289,4.289,0,0,1-.282.476l-.07.1q-.077.1-.157.187c-.14.161-.287.317-.437.47-.357.362-.735.7-1.123,1.032a22.788,22.788,0,0,1-1.863,1.424,4.313,4.313,0,0,0-1.314,1.059,9.159,9.159,0,0,0-.521,1.322l-.893,2.323-1.3,3.379a29.926,29.926,0,0,1-9.426.755,18.974,18.974,0,0,1-5.131-1.094,7.85,7.85,0,0,1-3.516-2.5,1.448,1.448,0,0,0-1.908-.13,8.957,8.957,0,0,0,2.523,2.151,8.957,8.957,0,0,1-2.523-2.151,1.281,1.281,0,0,0-.163.13,1.5,1.5,0,0,0,0,2.07c2.407,3.056,6.641,4.071,10.323,4.414a31.916,31.916,0,0,0,9.643-.6c-1.776,3.858-3.53,7.744-5.105,11.689-5.76,1.745-13.112,1.448-16.616-4.149-1-1.594-3.533-.126-2.529,1.478a13.5,13.5,0,0,0,7.828,5.834,21.065,21.065,0,0,0,9.122.337c.307-.049.613-.108.918-.169-.083.228-.172.455-.254.683-2.418,6.733-3.925,13.76-6.474,20.452a26.963,26.963,0,0,1-1.978,4.315c-.161.274-.329.545-.511.806-.036.051-.171.225-.2.266-.067.08-.132.161-.2.237s-.16.162-.241.242c-.032.032-.06.056-.084.077-.573.41-1.152.806-1.756,1.17a19.52,19.52,0,0,1-14.871,2.278,22.026,22.026,0,0,1-7.02-3.22,14.436,14.436,0,0,1-2.26-1.794c-.151-.156-.287-.323-.427-.488l-.013-.015-.02-.028c-.089-.125-.181-.249-.269-.375a50.972,50.972,0,0,1-4.306-8.162c-2.565-5.657-4.856-11.555-7.038-17.517-.943-2.575-1.7-5.217-2.526-7.833q-2.991-9.514-5.94-19.041c-.8-2.581-1.59-5.162-2.356-7.753-.221-.747-.443-1.495-.644-2.248-.041-.155-.068-.327-.117-.483a.46.46,0,0,1-.005.053c-.086.426-.013-.14-.026-.272q-.023-.227-.042-.454c-.056-.676-.083-1.355-.081-2.033a22.549,22.549,0,0,1,4.94-14.032,30.24,30.24,0,0,1,7.818-6.409c5.988-3.762,12.22-7.2,18.03-11.238a9.1,9.1,0,0,0,1.961-1.555,1.527,1.527,0,0,0,.109-1.937l-1.9,1.376,1.9-1.376a1.408,1.408,0,0,0-.109-.134,1.475,1.475,0,0,0-2.071,0,4.4,4.4,0,0,1-.661.6c.422-.349-.208.148-.331.236q-.35.25-.705.491c-1.272.867-2.574,1.69-3.878,2.507-3.321,2.081-6.68,4.1-10.022,6.152-2.547,1.56-5.168,3.071-7.58,4.839a25.685,25.685,0,0,0-9.176,12.656,25.4,25.4,0,0,0-1.254,8.052,14.964,14.964,0,0,0,.375,3.743c.516,1.939,1.121,3.857,1.7,5.776,1.965,6.459,3.984,12.9,6,19.345,1.1,3.522,2.136,7.08,3.329,10.574,1.739,5.091,3.781,10.108,5.872,15.062,1.4,3.32,2.848,6.639,4.572,9.807a25.123,25.123,0,0,0,2.05,3.271,16.5,16.5,0,0,0,4.585,3.8,23.311,23.311,0,0,0,15.7,3.305,22.405,22.405,0,0,0,7.86-2.813,11.051,11.051,0,0,0,4.056-3.541c2.005-3.115,3.14-6.877,4.256-10.379.018-.057.035-.115.053-.172h0c1.194-3.762,2.227-7.571,3.366-11.348.667-2.211,1.444-4.381,2.281-6.528a1.47,1.47,0,0,0,.828-1.711,1.374,1.374,0,0,0-.073-.184c1.547-3.781,3.263-7.5,4.951-11.217q.449-.988.9-1.975a1.52,1.52,0,0,0-.405-1.915c0-.007-.01-.012-.015-.018l2.068-5.377c.754-.511,1.489-1.052,2.2-1.618a10.483,10.483,0,0,0,3.2-3.525,26.722,26.722,0,0,0,1.092-3.619c.3-1.018.594-2.035.883-3.055a42.511,42.511,0,0,0,1.17-4.974c.454-2.9-.182-5.932-.557-8.815M90.5,232.052c-.083.116-.018.02.014-.023,0,.007-.009.015-.014.023m20.379,4.3c-.082.053-.209.139,0,0l.005,0,0,0m-19.65,81,.029-.023-.029.023" transform="translate(-22.522 -124.359)" fill="#323232"/>
    <path id="パス_4145" data-name="パス 4145" d="M311.268,210.534c.193-.214.367-.473.523-.684a5.055,5.055,0,0,0,.98-4.137,9.838,9.838,0,0,0-1.343-2.8,4.754,4.754,0,0,0-1.15-1.3,5.653,5.653,0,0,0,.711-1.029,3.679,3.679,0,0,0-.614-4.439c-1.112-1.2-2.534-2.063-3.694-3.212a11.477,11.477,0,0,0-4.312-3.015,8.964,8.964,0,0,0-2.013-.392V175.045a5.119,5.119,0,0,0-2.659-4.778,4.869,4.869,0,0,0-1.266-.447,5,5,0,0,0-.584-.081,1.283,1.283,0,0,0-.2,0c-.251-.026-.5-.077-.751-.114l-3.429-.518-23.028-3.481c-2.12-.32-4.238-.652-6.36-.961a4.883,4.883,0,0,0-5.357,4.445c-.073.763-.023,1.549-.023,2.313v18.731l.8.443-.8-.443v2.484c-.431.327-.856.663-1.284.972l-5.446,3.937-10.578,7.648c-.328.237-.659.471-.985.712-1.442,1.065-.621,2.918.56,3.83a5.485,5.485,0,0,0,3.053,1.089c.454.02-.081-.038.2-.015.307.025.616.086.921.13l10.656,1.5,14.852,2.1,7.951,1.122v0l1.591.224.474.067a1.932,1.932,0,0,0,.975-.1,4.08,4.08,0,0,0,.637.648,5.683,5.683,0,0,0,3.61,1.181,4.852,4.852,0,0,0,1.124,3.175,4.939,4.939,0,0,0,3.9,1.357,21.963,21.963,0,0,0,5.11-1.049,19.614,19.614,0,0,0,3.412,2.5c1.648.916,3.127-1.612,1.478-2.528a18.028,18.028,0,0,1-3.5-2.649,1.474,1.474,0,0,0-1.424-.376,29.684,29.684,0,0,1-4.647,1.14l-.023,0-.082.007c-.109.01-.217.02-.326.026a4.317,4.317,0,0,1-.723-.01,2.967,2.967,0,0,1-.664-.157l-.047-.015-.082-.05c-.019-.011-.121-.086-.179-.125-.027-.029-.066-.07-.1-.1l-.065-.1a1.16,1.16,0,0,1-.063-.1c-.028-.075-.054-.151-.076-.228-.029-.1-.045-.2-.073-.3,0-.016-.007-.023-.01-.035s0-.007,0-.016c-.018-.235-.03-.468-.03-.7,0-.036-.008-.068-.01-.1a24.563,24.563,0,0,0,2.68-.885c1.154-.455,2.177-1.093,3.3-1.607a3.379,3.379,0,0,1,2.269.151q1.378.318,2.75.659,1.984.489,3.962,1a1.465,1.465,0,0,0,.778-2.823c-2.505-.654-5.018-1.29-7.546-1.852a5.015,5.015,0,0,0-2.823-.04c-1.007.344-1.867.989-2.833,1.421a21.978,21.978,0,0,1-3.149,1.105,7.653,7.653,0,0,1-2.346.4,2.776,2.776,0,0,1-1.737-.556,1.357,1.357,0,0,1-.126-1.772,1.931,1.931,0,0,0,.164-.233,14.035,14.035,0,0,0,3.146-.946c1.85-.7,3.69-1.428,5.528-2.157l1.969-.783c.073-.029.2-.058.3-.1,1.609.229,3.309.188,4.929.282l4.165.242c1.882.11,1.876-2.819,0-2.928l-8.1-.471a4.5,4.5,0,0,0-2.1.165q-2.017.806-4.038,1.6l-.272.108c-1.607.629-3.213,1.267-4.839,1.845a2.537,2.537,0,0,1-1.937.163,2.1,2.1,0,0,1-1.136-1.05,1.421,1.421,0,0,1,.345-1.132c.746-.994,2.3-1.393,3.379-1.915,1.023-.5,2.077-.924,3.138-1.332,1.885-.724,3.8-1.383,5.719-2,.079-.025.315-.063.462-.118l.053,0c.472.036.944.08,1.416.121.329.029.659.054.988.085a76.259,76.259,0,0,1,7.6.977,1.5,1.5,0,0,0,1.8-1.023,1.477,1.477,0,0,0-1.023-1.8c-.658-.129-1.32-.241-1.983-.343a1.455,1.455,0,0,0,.762-.635,1.372,1.372,0,0,0-.8-2.149c-3.142-.72-6.286-1.433-9.426-2.159-.9-.209-2.5-.493-2.873-1.448-.028-.072-.077.018.02-.149a1.63,1.63,0,0,1,.4-.445,2.552,2.552,0,0,1,1.424-.423c1.447-.086,2.919.028,4.368.06,1.568.035,3.151.01,4.716.129a5.538,5.538,0,0,1,3.339,1.528c1,.892,1.93,1.832,2.98,2.674a18.8,18.8,0,0,1,1.612,1.386,1.853,1.853,0,0,1,.4.511.342.342,0,0,1-.012.317,4.817,4.817,0,0,1-1.847,2.021,1.735,1.735,0,0,0-.481.509,1.437,1.437,0,0,0-.2,1.075,1.458,1.458,0,0,0,1.444,1.276,3.737,3.737,0,0,1,.8-.015c-.036.013.242.127.186.088a1.7,1.7,0,0,1,.233.209,6.278,6.278,0,0,1,.574.976c.142.254.3.5.439.754.035.067.126.28.136.291.049.159.112.4.132.473a1.868,1.868,0,0,0,0,.4,2.407,2.407,0,0,1-.207.653c-.329.692-.963,1.132-1.341,1.784a2.012,2.012,0,0,0-.074,1.946,3.643,3.643,0,0,0,.229.371,2.959,2.959,0,0,1,.166.254c.033.063.049.082.057.086a.714.714,0,0,0,.007.14c.058.516.064,1.076.1,1.6.025.359.047.72.041,1.08a1.263,1.263,0,0,1-.05.5,3.6,3.6,0,0,1-1.064,1.054,6.99,6.99,0,0,0-1.508,1.535c-.81,1.215-.947,2.725-1.672,3.983a12.819,12.819,0,0,1-2.529,3.094,11.088,11.088,0,0,1-3.862,2,14.866,14.866,0,0,0-4.826,2.709c-1.271,1.144.311,2.938,1.66,2.333q-.389,3.529-.778,7.058l-.134,1.218a1.191,1.191,0,0,0,.269.849c-3.571,1.107-7.51,1.782-11.069.808a8.774,8.774,0,0,1-1.739-.64c-.282-.141-.557-.293-.824-.46q-.165-.1-.324-.212c-.03-.02-.2-.148-.268-.195a8.9,8.9,0,0,1-1.1-1.065c-.019-.021-.052-.064-.08-.1-.055-.077-.111-.154-.163-.233a6.719,6.719,0,0,1-.371-.641,1.408,1.408,0,0,0-2.526.12,4.412,4.412,0,0,0,2.955,2.59,4.412,4.412,0,0,1-2.955-2.59,1.412,1.412,0,0,0,0,1.358,10.307,10.307,0,0,0,6.464,4.852c4.366,1.253,9.122.431,13.35-.946a1.435,1.435,0,0,0,.714-.5v0a1.609,1.609,0,0,0,.012-1.844,1.661,1.661,0,0,0,.584-1.147l.932-8.463.134-1.218a1.055,1.055,0,0,0-.056-.44c.529-.228,1.069-.43,1.6-.627a13.007,13.007,0,0,0,4.22-2.277,15.371,15.371,0,0,0,3.08-3.645,10.619,10.619,0,0,0,.955-2.016,7.522,7.522,0,0,1,.872-2.227c.9-1.146,2.263-1.635,2.8-3.1a10.543,10.543,0,0,0,.06-4.349,3.773,3.773,0,0,0-.435-1.454M292.9,201.613a.244.244,0,0,1-.074.044.244.244,0,0,0,.074-.044m-33.271-12.732,11.918,1.663,14.891,2.078a3.1,3.1,0,0,0,.413,2.234l-1.752-.22-21.9-2.75-3.571-.448Zm33.114,12.793c-.129.015-.236-.013,0,0m-.18-2.926a2.178,2.178,0,0,0-.511.062,52.885,52.885,0,0,0-5.181,1.766c-1.308.483-2.607,1-3.883,1.559a28.134,28.134,0,0,0-3.737,1.8,5,5,0,0,0-2.462,4,4.425,4.425,0,0,0,2.373,3.669,4.663,4.663,0,0,0-.342,1.429L266.1,211.246l-20.019-2.824-2.7-.381-.481-.068a7.172,7.172,0,0,1-1.6-.251c-.087-.033-.179-.074-.267-.118L257.1,195.988l2.1-1.517,13.071,1.676,20.294,2.6m4.842-9.294c-.254,0-.5,0-.753-.008-1.857-.042-3.768-.22-5.622-.08a6.586,6.586,0,0,0-2.414.628l-3.176-.443-21.86-3.051-3.933-.549q.016-1.171.032-2.341l11.941,1.666,21.859,3.051,3.934.549q0,.29-.008.579m.026-12.473v8.965l-11.918-1.663-21.86-3.051-4.024-.562V170.224c0-1.034.1-2.075,1.212-2.547a3.927,3.927,0,0,0,.536-.181c.03.006.06.013.088.016.306.038.612.093.916.138l3.414.516,22.59,3.415c2.165.327,4.329.662,6.495.981a5.343,5.343,0,0,1,1.339.229,2.037,2.037,0,0,1,1.212,1.862c.028.774,0,1.554,0,2.328m13.513,33.887c-.06,0-.006-.037.06-.086,0,.052-.02.086-.06.086" transform="translate(-138.515 -95.953)" fill="#323232"/>
    <path id="パス_4146" data-name="パス 4146" d="M334.321,335.6v.008l0-.008" transform="translate(-194.869 -195.613)" fill="#323232"/>
    <path id="パス_4147" data-name="パス 4147" d="M331.981,297.52c-.089-.513-.328-.984-.443-1.495a11.031,11.031,0,0,1-.244-1.94,30.27,30.27,0,0,1-.021-3.392,1.431,1.431,0,0,0-2.386-1.078v0a1.412,1.412,0,0,0-.543,1.078,18.908,18.908,0,0,0,.687,7.122c.029.082.053.163.078.247.006.02.016.077.025.127,0,.068.014.184.014.215,0,.145.006.29,0,.435-.006.3-.03.609-.06.911-.039.39-.035.355-.1.786-.228,1.439-.555,2.861-.889,4.279a25.709,25.709,0,0,0-.754,3.663,1.26,1.26,0,0,0,.383.974c.011-.05.023-.1.031-.152a6.83,6.83,0,0,1-.044-.733,6.83,6.83,0,0,0,.044.733,3.182,3.182,0,0,0-.044-1.319,3.182,3.182,0,0,1,.044,1.319c.008.071.013.142.022.212a1.546,1.546,0,0,0,1.028.43,1.471,1.471,0,0,0,1.444-1.339c0-.006,0-.012,0-.017,0-.022.009-.044.011-.066l0,.019c.01-.058.018-.118.03-.176.048-.244.1-.487.152-.73.128-.577.267-1.151.4-1.726.341-1.441.679-2.885.923-4.346a12.133,12.133,0,0,0,.209-4.041m-1.7,10.9c0-.023,0-.032,0-.03s0,.008,0,.03" transform="translate(-190.802 -168.619)" fill="#323232"/>
    <path id="パス_4148" data-name="パス 4148" d="M328.268,337.424c.019.02.034.042.053.06-.01-.07-.015-.142-.022-.212-.008.051-.021.1-.031.152" transform="translate(-191.342 -196.59)" fill="#323232"/>
    <path id="パス_4149" data-name="パス 4149" d="M334.326,335.494l0,.016c0-.018.007-.04.01-.062,0,.015,0,.031-.008.047" transform="translate(-194.871 -195.527)" fill="#323232"/>
    <path id="パス_4150" data-name="パス 4150" d="M187.3,296.906c.135.123.265.251.405.368a4.275,4.275,0,0,0,1.4.8,4.46,4.46,0,0,0,5.452-1.609c1-1.606-1.537-3.078-2.529-1.478a1.294,1.294,0,0,1-1.492.44c-.863-.181-1.04-.605-1.865-1.165a3.344,3.344,0,0,0-3.065-.235c-.841.324-1.374.8-2.105.789a.815.815,0,0,1-.693-.284c-.384-.321-.71-.706-1.092-1.031a3.329,3.329,0,0,0-3.3-.834c-.936.305-1.725,1.188-2.673,1.154a2.232,2.232,0,0,1-1.834-1.178,1.465,1.465,0,0,0-2.529,1.478,5.1,5.1,0,0,0,4.917,2.592,4.781,4.781,0,0,0,1.542-.437c.46-.217.862-.562,1.325-.765.3-.132.233-.126.5.07.233.171.55.523.8.765a4.371,4.371,0,0,0,2.6,1.363,4.884,4.884,0,0,0,2.733-.542c.224-.109.65-.345.764-.389a1.64,1.64,0,0,1,.507-.083c-.077-.04.179.162.231.21" transform="translate(-99.777 -170.16)" fill="#323232"/>
    <path id="パス_4151" data-name="パス 4151" d="M212.676,95.784l-.009,0c-.108-.04-.221-.058.133.052-.02-.007-.04-.016-.06-.024l-.025-.009-.038-.015" transform="translate(-123.898 -55.811)" fill="#323232"/>
    <path id="パス_4152" data-name="パス 4152" d="M203.8,87.744a15.1,15.1,0,0,0-3.719-1.069,23.549,23.549,0,0,0-3.885-.408,1.464,1.464,0,1,0,0,2.928c.519,0,1.038.038,1.555.09.141.014.281.029.422.045l.23.028c.3.043.6.088.9.14.6.1,1.188.226,1.773.379.272.071.543.149.81.237.128.042.255.087.381.135l.01,0,.009,0,.063.025a1.462,1.462,0,0,0,1.453-2.537" transform="translate(-113.504 -50.284)" fill="#323232"/>
    <path id="パス_4153" data-name="パス 4153" d="M244.459,88.782a1.46,1.46,0,0,0,1.035-.429,1.464,1.464,0,0,0,0-2.071,1.694,1.694,0,0,0-1.035-.429,4.761,4.761,0,0,0-1.145.032,14.753,14.753,0,0,0-1.607.286,21.6,21.6,0,0,0-2.268.692,1.571,1.571,0,0,0-.875.673,1.464,1.464,0,0,0,1.653,2.151,17.569,17.569,0,0,1,3.278-.89,4.4,4.4,0,0,1,.964-.016" transform="translate(-138.938 -50.03)" fill="#323232"/>
    <path id="パス_4154" data-name="パス 4154" d="M212.979,47.409a1.492,1.492,0,0,0-2,.525q-.4.663-.839,1.3-.2.288-.411.57l-.145.191-.143.18a22.809,22.809,0,0,1-2.045,2.222q-.534.509-1.1.982c-.162.136-.327.269-.493.4l-.2.155q-.141.105-.284.208a23,23,0,0,1-2.562,1.6,1.469,1.469,0,0,0-.72,1.241c.783-.228,1.549-.483,2.278-.775-.729.292-1.495.547-2.278.775a1.316,1.316,0,0,0,.194.762,1.5,1.5,0,0,0,2,.525,24.34,24.34,0,0,0,9.275-8.853,1.451,1.451,0,0,0,.159-1.022,23.033,23.033,0,0,1-2.912,2.543,23.033,23.033,0,0,0,2.912-2.543,1.386,1.386,0,0,0-.684-.981" transform="translate(-117.76 -27.525)" fill="#323232"/>
    <path id="パス_4155" data-name="パス 4155" d="M178.2,61.448v0c.886-.177,1.827-.356,2.787-.549a32.582,32.582,0,0,0,6.062-6.5,1.477,1.477,0,0,0-.525-2,1.5,1.5,0,0,0-2,.525,28.953,28.953,0,0,1-10.494,9.045,1.469,1.469,0,0,0-.609,1.816c.634-.357,1.245-.761,1.855-1.167-.609.406-1.22.81-1.855,1.167a1.3,1.3,0,0,0,.084.187,1.492,1.492,0,0,0,2,.526,31.176,31.176,0,0,0,5.483-3.6c-.96.193-1.9.372-2.787.549" transform="translate(-101.025 -30.428)" fill="#323232"/>
  </g>
</svg>
