<svg xmlns="http://www.w3.org/2000/svg" width="914" height="645.47" viewBox="0 0 914 645.47">
  <g id="グループ_1273" data-name="グループ 1273" transform="translate(1902.542 -3668)">
    <g id="グループ_1272" data-name="グループ 1272">
      <g id="グループ_1271" data-name="グループ 1271">
        <g id="グループ_1270" data-name="グループ 1270">
          <g id="グループ_1269" data-name="グループ 1269">
            <path id="Path_1" data-name="Path 1" d="M789.69,223.246,266.607,127.41a8.036,8.036,0,0,0-3.22.038,6.641,6.641,0,0,0-2.642,1.234,6.214,6.214,0,0,0-1.788,2.227,6.938,6.938,0,0,0-.657,3.008V602.54a6.941,6.941,0,0,0,.655,3.009,6.215,6.215,0,0,0,1.786,2.228,6.641,6.641,0,0,0,2.641,1.236,8.034,8.034,0,0,0,3.22.04L789.69,513.216a2.474,2.474,0,0,0,1.163-.59,4.425,4.425,0,0,0,.947-1.2,6.728,6.728,0,0,0,.637-1.637,7.869,7.869,0,0,0,.234-1.9v-279.3a7.866,7.866,0,0,0-.233-1.905,6.739,6.739,0,0,0-.637-1.638,4.433,4.433,0,0,0-.947-1.2,2.478,2.478,0,0,0-1.163-.591Z" transform="translate(-2006.271 3540.735)" fill="#e4e4e4"/>
            <path id="Path_1-2" data-name="Path 1" d="M797.69,223.246,274.607,127.41a8.036,8.036,0,0,0-3.22.038,6.641,6.641,0,0,0-2.642,1.234,6.214,6.214,0,0,0-1.788,2.227,6.938,6.938,0,0,0-.657,3.008V602.54a6.941,6.941,0,0,0,.655,3.009,6.215,6.215,0,0,0,1.786,2.228,6.641,6.641,0,0,0,2.641,1.236,8.034,8.034,0,0,0,3.22.04L797.69,513.216a2.474,2.474,0,0,0,1.163-.59,4.425,4.425,0,0,0,.947-1.2,6.728,6.728,0,0,0,.637-1.637,7.866,7.866,0,0,0,.234-1.9v-279.3a7.863,7.863,0,0,0-.233-1.905,6.736,6.736,0,0,0-.637-1.638,4.434,4.434,0,0,0-.947-1.2,2.479,2.479,0,0,0-1.163-.591Z" transform="translate(-2006.271 3540.735)" fill="#fff"/>
            <path id="Path_2" data-name="Path 2" d="M797.69,223.246,274.607,127.41a8.036,8.036,0,0,0-3.22.038,6.641,6.641,0,0,0-2.642,1.234,6.214,6.214,0,0,0-1.788,2.227,6.938,6.938,0,0,0-.657,3.008V602.54a6.941,6.941,0,0,0,.655,3.009,6.215,6.215,0,0,0,1.786,2.228,6.641,6.641,0,0,0,2.641,1.236,8.034,8.034,0,0,0,3.22.04L797.69,513.216a2.474,2.474,0,0,0,1.163-.59,4.425,4.425,0,0,0,.947-1.2,6.728,6.728,0,0,0,.637-1.637,7.866,7.866,0,0,0,.234-1.9v-279.3a7.863,7.863,0,0,0-.233-1.905,6.736,6.736,0,0,0-.637-1.638,4.434,4.434,0,0,0-.947-1.2,2.479,2.479,0,0,0-1.163-.591Zm1.99,284.812a5.247,5.247,0,0,1-.156,1.272,4.494,4.494,0,0,1-.425,1.093,2.951,2.951,0,0,1-.632.8,1.649,1.649,0,0,1-.775.392l-523.08,94.773a5.348,5.348,0,0,1-2.145-.03,4.425,4.425,0,0,1-1.757-.825,4.142,4.142,0,0,1-1.188-1.484,4.627,4.627,0,0,1-.436-2V134.415a4.629,4.629,0,0,1,.435-2,4.143,4.143,0,0,1,1.187-1.486,4.423,4.423,0,0,1,1.756-.826,5.35,5.35,0,0,1,2.145-.031l523.083,94.776a1.648,1.648,0,0,1,.775.392,2.948,2.948,0,0,1,.632.8,4.491,4.491,0,0,1,.426,1.092,5.247,5.247,0,0,1,.156,1.272V508.057Z" transform="translate(-2006.271 3540.735)" fill="#cacaca"/>
            <path id="Path_3" data-name="Path 3" d="M182.271,273.534a21.866,21.866,0,0,1,1.981-9.268,19.536,19.536,0,0,1,5.372-6.926,20.088,20.088,0,0,1,7.887-3.913,23.237,23.237,0,0,1,9.529-.287,27.514,27.514,0,0,1,9.389,3.485,30.258,30.258,0,0,1,7.565,6.386,29.633,29.633,0,0,1,5.05,8.378,26.079,26.079,0,0,1,1.842,9.518,21.937,21.937,0,0,1-1.842,8.96,19.59,19.59,0,0,1-5.05,6.846,19.937,19.937,0,0,1-7.565,4.092,22.86,22.86,0,0,1-9.389.638h0a27.188,27.188,0,0,1-9.524-3.184,30.184,30.184,0,0,1-7.884-6.3,29.779,29.779,0,0,1-5.373-8.553,26.191,26.191,0,0,1-1.988-9.867Z" transform="translate(-2006.271 3540.735)" fill="#e4e4e4"/>
            <path id="Path_3-2" data-name="Path 3" d="M182.271,370.534a21.866,21.866,0,0,1,1.981-9.268,19.536,19.536,0,0,1,5.372-6.926,20.088,20.088,0,0,1,7.887-3.913,23.237,23.237,0,0,1,9.529-.287,27.513,27.513,0,0,1,9.389,3.485,30.258,30.258,0,0,1,7.565,6.386,29.631,29.631,0,0,1,5.05,8.378,26.079,26.079,0,0,1,1.842,9.518,21.937,21.937,0,0,1-1.842,8.96,19.59,19.59,0,0,1-5.05,6.846,19.938,19.938,0,0,1-7.565,4.092,22.86,22.86,0,0,1-9.389.638h0a27.188,27.188,0,0,1-9.524-3.184,30.186,30.186,0,0,1-7.884-6.3,29.778,29.778,0,0,1-5.373-8.553A26.191,26.191,0,0,1,182.271,370.534Z" transform="translate(-2006.271 3540.735)" fill="#e4e4e4"/>
            <path id="Path_3-3" data-name="Path 3" d="M182.271,467.534a21.866,21.866,0,0,1,1.981-9.268,19.536,19.536,0,0,1,5.372-6.926,20.088,20.088,0,0,1,7.887-3.913,23.237,23.237,0,0,1,9.529-.287,27.514,27.514,0,0,1,9.389,3.485,30.256,30.256,0,0,1,7.565,6.386,29.631,29.631,0,0,1,5.05,8.378,26.08,26.08,0,0,1,1.842,9.518,21.937,21.937,0,0,1-1.842,8.96,19.59,19.59,0,0,1-5.05,6.846,19.938,19.938,0,0,1-7.565,4.092,22.86,22.86,0,0,1-9.389.638h0a27.188,27.188,0,0,1-9.524-3.184,30.185,30.185,0,0,1-7.884-6.305,29.778,29.778,0,0,1-5.373-8.553,26.191,26.191,0,0,1-1.988-9.867Z" transform="translate(-2006.271 3540.735)" fill="#e4e4e4"/>
            <path id="Path_3-4" data-name="Path 3" d="M188.271,273.534a21.866,21.866,0,0,1,1.981-9.268,19.536,19.536,0,0,1,5.372-6.926,20.088,20.088,0,0,1,7.887-3.913,23.237,23.237,0,0,1,9.529-.287,27.514,27.514,0,0,1,9.389,3.485,30.257,30.257,0,0,1,7.565,6.386,29.632,29.632,0,0,1,5.05,8.378,26.08,26.08,0,0,1,1.842,9.518,21.937,21.937,0,0,1-1.842,8.96,19.59,19.59,0,0,1-5.05,6.846,19.937,19.937,0,0,1-7.565,4.092,22.86,22.86,0,0,1-9.389.638h0a27.189,27.189,0,0,1-9.524-3.184,30.184,30.184,0,0,1-7.884-6.3,29.778,29.778,0,0,1-5.373-8.553,26.191,26.191,0,0,1-1.988-9.867Z" transform="translate(-2006.271 3540.735)" fill="#4e84ff"/>
            <path id="Path_4" data-name="Path 4" d="M188.271,369.873a22.865,22.865,0,0,1,1.981-9.418,21.7,21.7,0,0,1,5.372-7.32,21.994,21.994,0,0,1,7.887-4.5,23.587,23.587,0,0,1,9.529-.991,25.758,25.758,0,0,1,9.389,2.791,27.179,27.179,0,0,1,7.565,5.827,26.864,26.864,0,0,1,5.05,8,25.028,25.028,0,0,1,1.841,9.393,22.9,22.9,0,0,1-1.842,9.1,21.766,21.766,0,0,1-12.615,11.87,23.4,23.4,0,0,1-9.389,1.331h0a25.608,25.608,0,0,1-9.524-2.48,27.214,27.214,0,0,1-13.255-13.885,25.1,25.1,0,0,1-1.989-9.718Z" transform="translate(-2006.271 3540.735)" fill="#4e84ff"/>
            <path id="Path_5" data-name="Path 5" d="M188.271,466.212a23.912,23.912,0,0,1,7.353-17.281,24.417,24.417,0,0,1,39.415,8.223,24.109,24.109,0,0,1-22,33.3h0a24.465,24.465,0,0,1-22.78-14.675,24.029,24.029,0,0,1-1.989-9.571Z" transform="translate(-2006.271 3540.735)" fill="#4e84ff"/>
            <path id="Path_6" data-name="Path 6" d="M203.38,273.424l7.262,1.116v-7.16a2.154,2.154,0,0,1,.186-.9,1.91,1.91,0,0,1,.513-.678,1.954,1.954,0,0,1,.762-.391,2.268,2.268,0,0,1,.933-.04,2.713,2.713,0,0,1,.933.334,3.009,3.009,0,0,1,.762.63,2.959,2.959,0,0,1,.515.837,2.59,2.59,0,0,1,.191.955v7.15l7.124,1.093a2.641,2.641,0,0,1,.918.327,2.947,2.947,0,0,1,1.254,1.448,2.573,2.573,0,0,1,.185.947,2.16,2.16,0,0,1-.185.891,1.917,1.917,0,0,1-.5.674,1.941,1.941,0,0,1-.749.394,2.221,2.221,0,0,1-.918.048l-7.134-1.067v7.134a2.17,2.17,0,0,1-.188.9,1.95,1.95,0,0,1-.512.683,1.99,1.99,0,0,1-.76.4,2.275,2.275,0,0,1-.932.054,2.676,2.676,0,0,1-.934-.32,2.947,2.947,0,0,1-.763-.62,2.9,2.9,0,0,1-.515-.832,2.566,2.566,0,0,1-.186-.957v-7.16l-7.262-1.09a2.75,2.75,0,0,1-.948-.331,3.023,3.023,0,0,1-.775-.631,2.95,2.95,0,0,1-.523-.838,2.58,2.58,0,0,1-.192-.967,2.16,2.16,0,0,1,.192-.907,1.941,1.941,0,0,1,.523-.684,2.005,2.005,0,0,1,.775-.4A2.324,2.324,0,0,1,203.38,273.424Z" transform="translate(-2006.271 3540.735)" fill="#fff"/>
            <path id="Path_7" data-name="Path 7" d="M208.477,378.2l20.166,1.462h.074l-9.457-17.17a.756.756,0,0,0-.245-.268.738.738,0,0,0-.161-.081.7.7,0,0,0-.177-.039.652.652,0,0,0-.176.008.614.614,0,0,0-.161.054.589.589,0,0,0-.245.227l-6.435,10.578-.31.509Z" transform="translate(-2006.271 3540.735)" fill="#fff"/>
            <path id="Path_8" data-name="Path 8" d="M196.968,377.363l17.792,1.29-3.41-5.176-.246-.374-4.472-6.789a1.021,1.021,0,0,0-.291-.262,1,1,0,0,0-.173-.082.96.96,0,0,0-.192-.047.919.919,0,0,0-.191-.007.876.876,0,0,0-.183.032.83.83,0,0,0-.169.07.808.808,0,0,0-.15.106l-.015.018-.019.018-.015.019-.015.019Z" transform="translate(-2006.271 3540.735)" fill="#fff"/>
            <path id="Ellipse_1" data-name="Ellipse 1" d="M210.423,359.664A3.219,3.219,0,0,1,211.6,360a3.416,3.416,0,0,1,.959.725,3.373,3.373,0,0,1,.646,1.008,3.119,3.119,0,0,1,.237,1.186,2.827,2.827,0,0,1-.237,1.146,2.671,2.671,0,0,1-.646.9,2.709,2.709,0,0,1-.959.563,2.92,2.92,0,0,1-1.177.139,3.216,3.216,0,0,1-1.179-.333,3.414,3.414,0,0,1-.964-.724,3.374,3.374,0,0,1-.651-1.01,3.119,3.119,0,0,1-.239-1.192,2.827,2.827,0,0,1,.239-1.15,2.672,2.672,0,0,1,.651-.9,2.71,2.71,0,0,1,.964-.558,2.924,2.924,0,0,1,1.179-.136Z" transform="translate(-2006.271 3540.735)" fill="#fff"/>
            <path id="Rectangle_2" data-name="Rectangle 2" d="M428.034,428.109l199.68-189.457.856,1.5L429.282,429.712Z" transform="translate(-2006.271 3540.735)" fill="#e6e6e6"/>
            <path id="Rectangle_3" data-name="Rectangle 3" d="M428.066,213.376l1.252-1.5L628.552,418.7l-.859,1.425Z" transform="translate(-2006.271 3540.735)" fill="#e6e6e6"/>
            <path id="Path_9" data-name="Path 9" d="M625.694,235.886l-194.1-26.666a5.967,5.967,0,0,0-2.675.228,5.75,5.75,0,0,0-2.193,1.324,6.393,6.393,0,0,0-1.485,2.2,7.6,7.6,0,0,0-.547,2.878V424.79a7.947,7.947,0,0,0,.547,2.92,7.15,7.15,0,0,0,1.484,2.328,6.422,6.422,0,0,0,2.193,1.5,6.153,6.153,0,0,0,2.675.448l194.1-10.69a3.936,3.936,0,0,0,1.845-.6,5.323,5.323,0,0,0,1.5-1.421,7.089,7.089,0,0,0,1.01-2.037,8.189,8.189,0,0,0,.371-2.446V242.772a8.5,8.5,0,0,0-.371-2.477,7.806,7.806,0,0,0-1.01-2.12,6.018,6.018,0,0,0-1.5-1.545A4.253,4.253,0,0,0,625.694,235.886Zm-194.1,193.95a4.394,4.394,0,0,1-1.909-.324,4.589,4.589,0,0,1-1.564-1.074,5.11,5.11,0,0,1-1.058-1.666,5.68,5.68,0,0,1-.39-2.083V216.109a5.431,5.431,0,0,1,.39-2.051,4.569,4.569,0,0,1,1.058-1.574,4.108,4.108,0,0,1,1.564-.945,4.259,4.259,0,0,1,1.909-.167l194.1,26.3a3.035,3.035,0,0,1,1.319.532,4.3,4.3,0,0,1,1.074,1.1,5.576,5.576,0,0,1,.723,1.515,6.068,6.068,0,0,1,.266,1.771V414.862a5.853,5.853,0,0,1-.266,1.75,5.065,5.065,0,0,1-.723,1.456,3.8,3.8,0,0,1-1.074,1.014,2.809,2.809,0,0,1-1.319.423Z" transform="translate(-2006.271 3540.735)" fill="#e6e6e6"/>
            <path id="Path_14" data-name="Path 14" d="M425.164,454.051a2.96,2.96,0,0,0-1.427.554,4.493,4.493,0,0,0-1.158,1.251,6.417,6.417,0,0,0-.772,1.758,7.543,7.543,0,0,0-.267,2.082,7.013,7.013,0,0,0,.3,1.987,5.277,5.277,0,0,0,.78,1.58,3.516,3.516,0,0,0,1.147,1.023,2.6,2.6,0,0,0,1.4.315l339.8-28.137a1.164,1.164,0,0,0,.718-.329,2.716,2.716,0,0,0,.59-.828,5.283,5.283,0,0,0,.4-1.2,7.289,7.289,0,0,0,.156-1.458,7.07,7.07,0,0,0-.132-1.445,4.807,4.807,0,0,0-.384-1.169,2.34,2.34,0,0,0-.574-.779,1.046,1.046,0,0,0-.714-.264h-.06Z" transform="translate(-2006.271 3540.735)" fill="#e6e6e6"/>
            <path id="Path_15" data-name="Path 15" d="M425.164,486.071a3.043,3.043,0,0,0-1.427.593,4.68,4.68,0,0,0-1.158,1.278,6.61,6.61,0,0,0-.772,1.779,7.621,7.621,0,0,0-.267,2.1,6.928,6.928,0,0,0,.3,1.979,5.106,5.106,0,0,0,.78,1.559,3.377,3.377,0,0,0,1.145.991,2.556,2.556,0,0,0,1.4.277l339.806-37.486a1.2,1.2,0,0,0,.718-.349,2.822,2.822,0,0,0,.59-.845,5.417,5.417,0,0,0,.4-1.216,7.347,7.347,0,0,0,.156-1.463,7.011,7.011,0,0,0-.132-1.442,4.688,4.688,0,0,0-.384-1.158,2.248,2.248,0,0,0-.577-.76,1.021,1.021,0,0,0-.714-.245h-.06Z" transform="translate(-2006.271 3540.735)" fill="#e6e6e6"/>
            <path id="Path_16" data-name="Path 16" d="M425.164,517.573a3.132,3.132,0,0,0-1.427.632,4.868,4.868,0,0,0-1.158,1.31,6.812,6.812,0,0,0-.772,1.8,7.7,7.7,0,0,0-.267,2.1,6.843,6.843,0,0,0,.3,1.97,4.944,4.944,0,0,0,.78,1.538,3.247,3.247,0,0,0,1.145.96,2.519,2.519,0,0,0,1.4.239L764.971,481.44a1.238,1.238,0,0,0,.718-.368,2.934,2.934,0,0,0,.59-.861,5.548,5.548,0,0,0,.4-1.227,7.419,7.419,0,0,0,.156-1.467,6.955,6.955,0,0,0-.132-1.438,4.575,4.575,0,0,0-.384-1.148,2.162,2.162,0,0,0-.577-.744,1,1,0,0,0-.714-.226h-.06Z" transform="translate(-2006.271 3540.735)" fill="#e6e6e6"/>
            <path id="Path_17" data-name="Path 17" d="M222.734,456.066l-19.4-.232a2.761,2.761,0,0,0-.954.135,2.727,2.727,0,0,0-.823.437,2.681,2.681,0,0,0-.624.687,2.652,2.652,0,0,0-.355.883,2.579,2.579,0,0,0,.057,1.124,2.616,2.616,0,0,0,.21.527,2.659,2.659,0,0,0,.743.873,2.694,2.694,0,0,0,1.605.547l5.834.053a1.413,1.413,0,0,1,1.29.857,1.378,1.378,0,0,1,.11.541v11.444a2.665,2.665,0,0,0,.594,1.739,2.692,2.692,0,0,0,1.579.95,2.613,2.613,0,0,0,2.8-1.472,2.581,2.581,0,0,0,.242-1.089V462.53a1.371,1.371,0,0,1,1.372-1.37h.013l5.573.044a2.629,2.629,0,0,0,2.663-2.113,2.6,2.6,0,0,0-2.531-3.025Z" transform="translate(-2006.271 3540.735)" fill="#fff"/>
            <path id="Ellipse_2" data-name="Ellipse 2" d="M222.735,471.484a2.575,2.575,0,1,1-2.371,1.573A2.575,2.575,0,0,1,222.735,471.484Z" transform="translate(-2006.271 3540.735)" fill="#fff"/>
            <path id="パス_1875" data-name="パス 1875" d="M677.383,319.825a13.383,13.383,0,0,1-.433,2.063L717.386,370.3l15.1-2.6,6.906,22.278-26.287,7.2a10.176,10.176,0,0,1-11.359-4.485l-37.581-61.139a13.352,13.352,0,1,1,13.216-11.736Z" transform="translate(-2006.271 3540.735)" fill="#ce9090"/>
            <path id="パス_1876" data-name="パス 1876" d="M719.176,367.605a5.718,5.718,0,0,1,3.966-2.643l28.369-4.524a15.9,15.9,0,1,1,9.65,30.292l-25.92,12.6a5.724,5.724,0,0,1-7.961-3.426l-8.694-27.57a5.717,5.717,0,0,1,.59-4.73Z" transform="translate(-2006.271 3540.735)" fill="#3f3d56"/>
            <path id="パス_1877" data-name="パス 1877" d="M538.487,632.518h-12.26L520.4,585.23h18.094Z" transform="translate(-1824 3668)" fill="#ce9090"/>
            <path id="パス_1878" data-name="パス 1878" d="M723.884,771.668H684.353v-.5a15.387,15.387,0,0,1,15.385-15.386h24.146Z" transform="translate(-2006.271 3540.735)" fill="#2f2e41"/>
            <path id="パス_1879" data-name="パス 1879" d="M666.487,632.518h-12.26L648.4,585.23h18.094Z" transform="translate(-1824 3668)" fill="#ce9090"/>
            <path id="パス_1880" data-name="パス 1880" d="M851.884,771.668H812.353v-.5a15.387,15.387,0,0,1,15.385-15.386h24.146Z" transform="translate(-2006.271 3540.735)" fill="#2f2e41"/>
            <path id="パス_1881" data-name="パス 1881" d="M725.544,471.735l53.125-15.352c19.353,13.727,32.715,41.24,28.388,76.839-6.974,57.368,33.4,131.13,50.811,205.869l-30.108.946-65.93-157.78L723.178,743.322l-26.9.845L714.268,522.4Z" transform="translate(-2006.271 3540.735)" fill="#e8e800"/>
            <path id="パス_1889" data-name="パス 1889" d="M27.482,0A27.482,27.482,0,1,1,0,27.482,27.482,27.482,0,0,1,27.482,0Z" transform="translate(-1284.552 3817.992)" fill="#ce9090"/>
            <path id="パス_1882" data-name="パス 1882" d="M721.238,426.942c-6.074-10.663-9.076-23.613-3.789-34.687,1.331-2.788,4.961-5.424,6.861-7.861l21.234-31.659,23.976-3.857c20.749,17.4,3.024,76.857,20.024,115.857l-71,38C723.619,483.353,730.469,443.146,721.238,426.942Z" transform="translate(-2006.271 3540.735)" fill="#3f3d56"/>
            <path id="パス_1883" data-name="パス 1883" d="M721.544,293.735s1.861-3.447,13,1c3.9,1.556,5.727,1.2,5.98,4.585a64.622,64.622,0,0,0,13.4,35.034l.085.109,5.569-5.082,7.161,5.717,30.234.635s4.774-23.5-11.139-50.186-48.533-12.07-48.533-12.07C715.02,274.749,721.544,293.735,721.544,293.735Z" transform="translate(-2006.271 3540.735)" fill="#2f2e41"/>
            <path id="Path_9-2" data-name="Path 9" d="M651.385,258.607l-194.1-26.666a5.967,5.967,0,0,0-2.675.228,5.75,5.75,0,0,0-2.193,1.324,6.393,6.393,0,0,0-1.485,2.2,7.6,7.6,0,0,0-.547,2.878v208.94a7.948,7.948,0,0,0,.547,2.92,7.15,7.15,0,0,0,1.484,2.328,6.423,6.423,0,0,0,2.193,1.5,6.153,6.153,0,0,0,2.675.448l194.1-10.69a3.936,3.936,0,0,0,1.845-.6,5.323,5.323,0,0,0,1.5-1.421,7.089,7.089,0,0,0,1.01-2.037,8.191,8.191,0,0,0,.371-2.446V265.493a8.5,8.5,0,0,0-.371-2.477,7.808,7.808,0,0,0-1.01-2.12,6.016,6.016,0,0,0-1.5-1.545,4.252,4.252,0,0,0-1.845-.744Z" transform="translate(-2006.271 3540.735)" fill="#3c6ad1"/>
            <path id="Path_9-3" data-name="Path 9" d="M651.385,258.607l-194.1-26.666a5.967,5.967,0,0,0-2.675.228,5.75,5.75,0,0,0-2.193,1.324,6.393,6.393,0,0,0-1.485,2.2,7.6,7.6,0,0,0-.547,2.878v208.94a7.948,7.948,0,0,0,.547,2.92,7.15,7.15,0,0,0,1.484,2.328,6.423,6.423,0,0,0,2.193,1.5,6.153,6.153,0,0,0,2.675.448l194.1-10.69a3.936,3.936,0,0,0,1.845-.6,5.323,5.323,0,0,0,1.5-1.421,7.089,7.089,0,0,0,1.01-2.037,8.191,8.191,0,0,0,.371-2.446V265.493a8.5,8.5,0,0,0-.371-2.477,7.808,7.808,0,0,0-1.01-2.12,6.016,6.016,0,0,0-1.5-1.545,4.252,4.252,0,0,0-1.845-.744Z" transform="translate(-2006.271 3540.735)" opacity="0.2"/>
            <path id="Path_9-4" data-name="Path 9" d="M659.385,258.607l-194.1-26.666a5.967,5.967,0,0,0-2.675.228,5.75,5.75,0,0,0-2.193,1.324,6.393,6.393,0,0,0-1.485,2.2,7.6,7.6,0,0,0-.547,2.878v208.94a7.948,7.948,0,0,0,.547,2.92,7.149,7.149,0,0,0,1.484,2.328,6.422,6.422,0,0,0,2.193,1.5,6.153,6.153,0,0,0,2.675.448l194.1-10.69a3.936,3.936,0,0,0,1.845-.6,5.323,5.323,0,0,0,1.5-1.421,7.089,7.089,0,0,0,1.01-2.037,8.191,8.191,0,0,0,.371-2.446V265.493a8.5,8.5,0,0,0-.371-2.477,7.808,7.808,0,0,0-1.01-2.12,6.016,6.016,0,0,0-1.5-1.545A4.253,4.253,0,0,0,659.385,258.607Z" transform="translate(-2006.271 3540.735)" fill="#4e84ff"/>
            <path id="パス_1884" data-name="パス 1884" d="M658.552,425.648a13.382,13.382,0,0,1,1.468,1.514l62.753-6.414,6.3-13.972L751.4,413.52l-8.741,25.817a10.176,10.176,0,0,1-10.074,6.9l-71.7-3.072a13.352,13.352,0,1,1-2.329-17.521Z" transform="translate(-2006.271 3540.735)" fill="#ce9090"/>
            <path id="パス_1885" data-name="パス 1885" d="M721.538,417.753a5.718,5.718,0,0,1,.029-4.766l12.128-26.042a15.9,15.9,0,1,1,30.5,8.956l-4.063,28.533a5.724,5.724,0,0,1-7.3,4.68l-27.714-8.225a5.717,5.717,0,0,1-3.59-3.136Z" transform="translate(-2006.271 3540.735)" fill="#3f3d56"/>
            <path id="パス_1886" data-name="パス 1886" d="M1016.729,772.735h-381a1,1,0,0,1,0-2h381a1,1,0,0,1,0,2Z" transform="translate(-2006.271 3540.735)" fill="#cacaca"/>
            <g id="グループ_1267" data-name="グループ 1267" transform="translate(-1504.559 3809.357)">
              <path id="パス_1887" data-name="パス 1887" d="M35.373,117.024a10.148,10.148,0,0,0-4.571,1.411,13.17,13.17,0,0,0-3.763,3.379,16.643,16.643,0,0,0-2.553,4.86,18.44,18.44,0,0,0-.939,5.83,17.253,17.253,0,0,0,.939,5.7,13.971,13.971,0,0,0,2.553,4.5,10.751,10.751,0,0,0,3.763,2.852,9.25,9.25,0,0,0,4.571.771A10.268,10.268,0,0,0,39.9,144.8a13.345,13.345,0,0,0,3.669-3.42,16.744,16.744,0,0,0,2.459-4.806,18.45,18.45,0,0,0,.9-5.706,17.323,17.323,0,0,0-.907-5.573,14.125,14.125,0,0,0-2.46-4.457A10.911,10.911,0,0,0,39.9,117.93a9.3,9.3,0,0,0-4.525-.906ZM0,0V15.164l12.373.537,21.552,54.44-8.9,18.216a16.372,16.372,0,0,0-.647,1.676,17.108,17.108,0,0,0-.468,1.755,17.654,17.654,0,0,0-.379,3.654A19.877,19.877,0,0,0,24.5,101.9a11.982,11.982,0,0,0,2.683,4.506,10.309,10.309,0,0,0,4.042,2.568,13.289,13.289,0,0,0,5.046.67L100.2,106.56V93.371L37.7,95.523a1.094,1.094,0,0,1-.292-.007,1.126,1.126,0,0,1-.279-.083,1.236,1.236,0,0,1-.258-.155,1.416,1.416,0,0,1-.228-.223,1.64,1.64,0,0,1-.184-.279,1.866,1.866,0,0,1-.13-.32,2.05,2.05,0,0,1-.074-.349,2.156,2.156,0,0,1-.013-.366q.058-.239.125-.475t.145-.466q.078-.23.165-.456t.184-.445l5.791-11.656,41.173-.8A8.092,8.092,0,0,0,86.65,78.9a9.4,9.4,0,0,0,2.561-1.5,11.673,11.673,0,0,0,2.163-2.334,14.382,14.382,0,0,0,1.634-3.06l18.368-42.189q.132-.4.23-.808t.161-.836q.063-.424.092-.858t.021-.871a8.826,8.826,0,0,0-.107-1.3,8.481,8.481,0,0,0-.293-1.244,7.743,7.743,0,0,0-.467-1.149,6.754,6.754,0,0,0-.631-1.018,5.7,5.7,0,0,0-.766-.834,4.758,4.758,0,0,0-.861-.612,4.057,4.057,0,0,0-.93-.374,3.666,3.666,0,0,0-.972-.121l-81.2-3.522L19.964,1.154ZM89.836,114a8.718,8.718,0,0,0-4.091,1.325,11.983,11.983,0,0,0-3.366,3.188A16.005,16.005,0,0,0,80.1,123.1a18.323,18.323,0,0,0-.838,5.51A17.2,17.2,0,0,0,80.1,134a13.5,13.5,0,0,0,2.285,4.267,9.756,9.756,0,0,0,3.368,2.712,7.907,7.907,0,0,0,4.092.747A8.826,8.826,0,0,0,93.9,140.3a12.16,12.16,0,0,0,3.287-3.222,16.117,16.117,0,0,0,2.2-4.539,18.337,18.337,0,0,0,.806-5.4,17.271,17.271,0,0,0-.813-5.283,13.662,13.662,0,0,0-2.207-4.229,9.929,9.929,0,0,0-3.287-2.764A7.961,7.961,0,0,0,89.836,114Z" transform="translate(0 0)" fill="#96bf46"/>
              <path id="パス_1888" data-name="パス 1888" d="M25.554,12.6l-9.139-.164V.494L9.446.284V12.313L0,12.144v9.108l9.446.083V33.364l6.968-.023V21.4l9.139.08Z" transform="translate(51.329 30.65)" fill="#fff"/>
            </g>
          </g>
        </g>
      </g>
    </g>
    <g id="グループ_1268" data-name="グループ 1268" transform="translate(1308.458 -2022.798)">
      <path id="パス_1850" data-name="パス 1850" d="M374.449,364.387H304.491V326.953a34.979,34.979,0,1,1,69.958,0Z" transform="translate(-3331.884 5540.474)" fill="#2f2e41"/>
      <path id="パス_1851" data-name="パス 1851" d="M232.043,503.542h15.046l7.159-58.038H232.041Z" transform="translate(-3158.25 5817.806)" fill="#ffb6b6"/>
      <path id="パス_1852" data-name="パス 1852" d="M383.808,686.316h29.634A18.885,18.885,0,0,1,432.326,705.2v.615l-48.517,0Z" transform="translate(-3313.853 5630.12)" fill="#2f2e41"/>
      <path id="パス_1853" data-name="パス 1853" d="M85.489,485.792l13.1,7.4,34.768-47.02-19.339-10.917Z" transform="translate(-3191.566 5815.476)" fill="#ffb6b6"/>
      <path id="パス_1854" data-name="パス 1854" d="M241.4,668.934l25.8,14.567h0a18.885,18.885,0,0,1,7.16,25.728l-.3.534-42.25-23.851Z" transform="translate(-3348.405 5626.169)" fill="#2f2e41"/>
      <path id="パス_1855" data-name="パス 1855" d="M336.264,486.787l-1.161,5.806s-3.483,3.483-1.742,5.225,1.161,9.87,1.161,9.87c-.974,14.821-20.34,98.107-23.8,114.374,0,0-26.707,17.417-47.608,51.672S241.629,716.7,241.629,716.7l23.223,9.87,58.058-70.25s16.256-9.87,22.062-18.579,41.8-98.7,41.8-98.7l20.32,94.054s-1.161,34.254,4.064,56.316a236.287,236.287,0,0,1,5.806,42.382l27.287-2.9s-1.742-82.442-4.645-91.151c0,0,12.192-100.44-12.192-140.5l-19.652-52.391-19.247-7.408Z" transform="translate(-3346.175 5573.542)" fill="#2f2e41"/>
      <path id="パス_1856" data-name="パス 1856" d="M337.787,299.43c36.632.626,36.626,55.115,0,55.736C301.155,354.54,301.161,300.05,337.787,299.43Z" transform="translate(-3330.56 5542.169)" fill="#ffb8b8"/>
      <path id="パス_1857" data-name="パス 1857" d="M366.142,327.085h-6.226l-1.7-4.239.848,4.239H325.018l1.108-8.869-8.277,8.869h-8.257v-4.806a28.275,28.275,0,1,1,56.55,0Z" transform="translate(-3330.725 5540.936)" fill="#2f2e41"/>
      <path id="パス_1858" data-name="パス 1858" d="M376.3,358.1l-69.227.56,14.631,148.4s80.954-4.272,81-28.982l-7.584-21.958Z" transform="translate(-3331.298 5555.508)" fill="#bc8ebe"/>
      <path id="Path_138" data-name="Path 138" d="M519.091,595.168l-241.32,49.974c-2.468.5-5.314-3.17-6.362-8.218L246.045,514.441c-1.045-5.047.111-9.55,2.575-10.069L489.94,454.4c2.468-.5,5.314,3.17,6.362,8.218L521.667,585.1C522.709,590.146,521.553,594.652,519.091,595.168Z" transform="translate(-3345.258 5577.388)" fill="#fff"/>
      <circle id="Ellipse_7" data-name="Ellipse 7" cx="21.55" cy="21.55" r="21.55" transform="translate(-3030.537 6092.632)" fill="#ffe3e3"/>
      <path id="Path_63" data-name="Path 63" d="M403.624,577.4,300.1,598.835a2.171,2.171,0,0,1-.393.048l31.4-94.944a3.5,3.5,0,0,1,5.967-1.236l44.643,50.106,2.139,2.4Z" transform="translate(-3332.971 5588.108)" fill="#adcb9b"/>
      <path id="Path_65" data-name="Path 65" d="M447.922,563.325l-89.537,18.542,12.131-28.793.872-2.074L387.2,513.476a4.672,4.672,0,0,1,6.712-1.813,4.163,4.163,0,0,1,.409.338Z" transform="translate(-3319.632 5590.245)" fill="#b4ffbc"/>
      <path id="Path_138-2" data-name="Path 138" d="M519.091,595.168l-241.32,49.974c-2.468.5-5.314-3.17-6.362-8.218L246.045,514.441c-1.045-5.047.111-9.55,2.575-10.069L489.94,454.4c2.468-.5,5.314,3.17,6.362,8.218L521.667,585.1C522.709,590.146,521.553,594.652,519.091,595.168ZM249.378,508.029c-1.48.307-2.171,3.013-1.546,6.042L273.2,636.553c.627,3.028,2.337,5.234,3.818,4.931l241.32-49.974c1.481-.307,2.171-3.012,1.546-6.042L494.515,462.986c-.627-3.028-2.337-5.234-3.818-4.931Z" transform="translate(-3345.258 5577.388)" fill="#cacaca"/>
      <path id="パス_1859" data-name="パス 1859" d="M413.7,486.186a11.509,11.509,0,0,1-4.508-17.062l-14.019-22.251,11.444-11.817,19.356,31.7A11.571,11.571,0,0,1,413.7,486.186Z" transform="translate(-3311.268 5573.001)" fill="#ffb6b6"/>
      <path id="パス_1860" data-name="パス 1860" d="M354.808,364.092l10.043-6.618s7.75,1.737,15.993,17.593S422.33,461.8,422.33,461.8l-13.664,13.872-36.451-55.609Z" transform="translate(-3320.446 5555.364)" fill="#bc8ebe"/>
      <path id="パス_1861" data-name="パス 1861" d="M308.468,500.269a11.509,11.509,0,0,0-3.32-17.332l3.008-26.127-15.431-5.7L289,488.065a11.571,11.571,0,0,0,19.473,12.2Z" transform="translate(-3335.66 5576.65)" fill="#ffb6b6"/>
      <path id="パス_1862" data-name="パス 1862" d="M320.856,371.347l-9.108-12.731s-6.233-1.383-13.6,7.208-11.66,115.983-11.66,115.983l27,6.137,15.955-76.095Z" transform="translate(-3335.976 5555.605)" fill="#bc8ebe"/>
      <path id="パス_1863" data-name="パス 1863" d="M713.844,702.929H156.356a1.246,1.246,0,1,1,0-2.455H713.844a1.246,1.246,0,1,1,0,2.455Z" transform="translate(-3365.893 5633.339)" fill="#cacaca"/>
      <path id="パス_1864" data-name="パス 1864" d="M300.715,528.923l-39.937,8.48c.449-13.061-2.773-26.4-8.48-39.937l39.937-8.48A50.754,50.754,0,0,0,300.715,528.923Z" transform="translate(-3343.749 5585.261)" fill="#4e84ff"/>
      <rect id="長方形_271" data-name="長方形 271" width="24.744" height="4.949" transform="translate(-3083.604 6089.911) rotate(-11.987)" fill="#fff"/>
      <rect id="長方形_272" data-name="長方形 272" width="24.744" height="4.949" transform="translate(-3081.548 6099.593) rotate(-11.987)" fill="#fff"/>
      <rect id="長方形_273" data-name="長方形 273" width="24.744" height="4.949" transform="translate(-3079.492 6109.274) rotate(-11.987)" fill="#fff"/>
    </g>
  </g>
</svg>
