<svg xmlns="http://www.w3.org/2000/svg" width="248.999" height="244.546" viewBox="0 0 248.999 244.546">
  <g id="装飾左" transform="translate(0 -706)">
    <path id="パス_2755" data-name="パス 2755" d="M0,244.546s12.4-35.6,48.57-47.011,75.724-32.167,98.785-59.574,33.825-50.144,40.538-73.327S197.576,0,197.576,0H0Z" transform="translate(0 706)" fill="#fff" opacity="0.5"/>
    <g id="多角形_12" data-name="多角形 12" transform="translate(57 916.821) rotate(-83)" fill="none" opacity="0.999">
      <path d="M32.187,17.427a12,12,0,0,1,20.648,0L74.289,53.64A12,12,0,0,1,63.965,71.756H21.057A12,12,0,0,1,10.733,53.64Z" stroke="none"/>
      <path d="M 42.51079559326172 21.54325485229492 C 41.75449371337891 21.54325485229492 41.17555618286133 21.87317657470703 40.79007720947266 22.52385711669922 L 19.33625793457031 58.73701477050781 C 18.94317626953125 59.40049743652344 18.93749237060547 60.07665252685547 19.31931304931641 60.74667358398438 C 19.70115661621094 61.41669464111328 20.28577423095703 61.75641632080078 21.05695724487305 61.75641632080078 L 63.96463775634766 61.75641632080078 C 64.73581695556641 61.75641632080078 65.3204345703125 61.41669464111328 65.70227813720703 60.74667358398438 C 66.08409118652344 60.07665252685547 66.07841491699219 59.40049743652344 65.68533325195312 58.73701477050781 L 44.23149490356445 22.52385711669922 C 43.84601593017578 21.87317657470703 43.26707458496094 21.54325485229492 42.51079559326172 21.54325485229492 M 42.51079177856445 11.54325866699219 C 46.51103210449219 11.54325866699219 50.51126480102539 13.50445556640625 52.83501434326172 17.42685699462891 L 74.28885650634766 53.6400146484375 C 79.02785491943359 61.63925552368164 73.26227569580078 71.75641632080078 63.96463775634766 71.75641632080078 L 21.05695724487305 71.75641632080078 C 11.75931549072266 71.75641632080078 5.993736267089844 61.63925552368164 10.73273468017578 53.6400146484375 L 32.18655395507812 17.42685699462891 C 34.51031494140625 13.50445556640625 38.51055526733398 11.54325866699219 42.51079177856445 11.54325866699219 Z" stroke="none" fill="#d0ddff"/>
    </g>
    <ellipse id="楕円形_407" data-name="楕円形 407" cx="10" cy="10" rx="10" ry="10" transform="translate(228.999 781.639)" fill="#ff8369" opacity="0.622"/>
    <circle id="楕円形_408" data-name="楕円形 408" cx="22.5" cy="22.5" r="22.5" transform="translate(177.512 738.895)" fill="#4e84ff" opacity="0.45"/>
    <ellipse id="楕円形_409" data-name="楕円形 409" cx="10.349" cy="10.349" rx="10.349" ry="10.349" transform="translate(49.302 895.802)" fill="#4e84ff" opacity="0.298"/>
  </g>
</svg>
