<svg xmlns="http://www.w3.org/2000/svg" width="107.31" height="107.784" viewBox="0 0 107.31 107.784">
  <g id="グループ_4358" data-name="グループ 4358" transform="translate(-267.69 -837.5)">
    <path id="パス_2750" data-name="パス 2750" d="M5069,964.041a38.277,38.277,0,0,1,24.67-20.512c2.921-.791,5.886-1.686,9.128-2.771,15.422-5.16,31.2-13.166,41.048-23.223,11.713-11.959,17.181-21.879,20.59-31.995s4.918-28.2,4.918-28.2H5069Z" transform="translate(5444 1802.623) rotate(180)" fill="#fff" opacity="0.5"/>
    <g id="多角形_9" data-name="多角形 9" transform="translate(375 842.756) rotate(97)" fill="none" opacity="0.999">
      <path d="M19.34,10.255a7,7,0,0,1,12.066,0L44.54,32.577a7,7,0,0,1-6.033,10.55H12.24a7,7,0,0,1-6.033-10.55Z" stroke="none"/>
      <path d="M 25.37340927124023 13.80422973632812 L 12.24007415771484 36.12673568725586 L 38.50674438476562 36.12673568725586 L 25.40123558044434 13.80740356445312 C 25.39848899841309 13.80652236938477 25.38813018798828 13.80424499511719 25.37340927124023 13.80424499511719 L 25.37340927124023 13.80422973632812 M 25.37340927124023 6.804244995117188 C 27.71336555480957 6.804244995117188 30.05332183837891 7.954364776611328 31.40666198730469 10.25460433959961 L 44.53999710083008 32.57711029052734 C 47.28546142578125 37.24353790283203 43.92090225219727 43.12673568725586 38.50674438476562 43.12673568725586 L 12.24007415771484 43.12673568725586 C 6.825901031494141 43.12673568725586 3.461357116699219 37.24353790283203 6.206821441650391 32.57711029052734 L 19.34015655517578 10.25460433959961 C 20.69349670410156 7.954364776611328 23.0334529876709 6.804244995117188 25.37340927124023 6.804244995117188 Z" stroke="none" fill="#d0ddff"/>
    </g>
    <circle id="楕円形_402" data-name="楕円形 402" cx="6.5" cy="6.5" r="6.5" transform="translate(307.19 896.429)" fill="#ff8369" opacity="0.622"/>
    <circle id="楕円形_401" data-name="楕円形 401" cx="9.5" cy="9.5" r="9.5" transform="translate(267.69 899.929)" fill="#4e84ff" opacity="0.45"/>
  </g>
</svg>
