<svg xmlns="http://www.w3.org/2000/svg" width="202.641" height="273.261" viewBox="0 0 202.641 273.261">
  <g id="装飾右" transform="translate(-1163.359 -832.739)">
    <path id="パス_2754" data-name="パス 2754" d="M5069,1130.6s12.4-39.786,48.57-52.531,75.724-35.944,98.785-66.569,33.825-56.032,40.538-81.938,9.683-72.223,9.683-72.223H5069Z" transform="translate(6435 1963.339) rotate(180)" fill="#fff" opacity="0.5"/>
    <g id="多角形_11" data-name="多角形 11" transform="translate(1326 899.662) rotate(97)" fill="none" opacity="0.999">
      <path d="M27.168,17.579a12,12,0,0,1,20.685,0L64.381,45.671A12,12,0,0,1,54.039,63.756H20.983A12,12,0,0,1,10.64,45.671Z" stroke="none"/>
      <path d="M 37.51079559326172 21.66441345214844 C 36.7518310546875 21.66441345214844 36.17186737060547 21.99608612060547 35.78701400756836 22.65023040771484 L 19.25919723510742 50.74221038818359 C 18.86883163452148 51.40573883056641 18.86466979980469 52.08101272583008 19.24684906005859 52.74930572509766 C 19.62903213500977 53.41757583618164 20.21315765380859 53.75641250610352 20.98299407958984 53.75641250610352 L 54.03859710693359 53.75641250610352 C 54.80843353271484 53.75641250610352 55.39255905151367 53.41757583618164 55.77474212646484 52.74930572509766 C 56.15692138671875 52.08101272583008 56.15275955200195 51.40573883056641 55.76239776611328 50.74223327636719 L 39.23459625244141 22.65024948120117 C 38.84972381591797 21.99610137939453 38.26976013183594 21.66441345214844 37.51079559326172 21.66441345214844 M 37.51078796386719 11.66441345214844 C 41.52214050292969 11.66441345214844 45.53349304199219 13.63604736328125 47.8535041809082 17.57932281494141 L 64.38132476806641 45.67132186889648 C 69.08782958984375 53.67092132568359 63.32003021240234 63.75641250610352 54.03859710693359 63.75641250610352 L 20.98299407958984 63.75641250610352 C 11.70156097412109 63.75641250610352 5.933761596679688 53.67092132568359 10.64026641845703 45.67132186889648 L 27.16808700561523 17.57932281494141 C 29.48808670043945 13.63604736328125 33.49943542480469 11.66441345214844 37.51078796386719 11.66441345214844 Z" stroke="none" fill="#d0ddff"/>
    </g>
    <ellipse id="楕円形_406" data-name="楕円形 406" cx="9.609" cy="9.609" rx="9.609" ry="9.609" transform="translate(1231.754 999.54)" fill="#ff8369" opacity="0.622"/>
    <ellipse id="楕円形_405" data-name="楕円形 405" cx="18.849" cy="18.849" rx="18.849" ry="18.849" transform="translate(1163.359 1009.149)" fill="#4e84ff" opacity="0.45"/>
  </g>
</svg>
