<svg xmlns="http://www.w3.org/2000/svg" width="60" height="60" viewBox="0 0 60 60">
  <g id="アイコン" transform="translate(-42 -3913)">
    <g id="グループ_205" data-name="グループ 205" transform="translate(42 3913)">
      <circle id="楕円形_220" data-name="楕円形 220" cx="30" cy="30" r="30" fill="#4e84ff"/>
    </g>
    <g id="Ebene_x0020_1" transform="translate(58.5 3934.493)">
      <path id="パス_2230" data-name="パス 2230" d="M16.253,9.234c-.969,5.689,1.252,8.523,6.3,8.576a12.056,12.056,0,0,0,4.055-.743l.465-2.524a9.2,9.2,0,0,1-3.475.693c-1.7-.032-3.4-.48-3.447-3.525-.064-4.355,1.577-7.988,5.539-8.061a7,7,0,0,1,3.225.7l.489-2.656A9.089,9.089,0,0,0,25.252.849C20.248.758,17.074,4.407,16.253,9.234ZM5.535,1.215,2.406,17.6h11.4l.486-2.64H6.751l.684-4.134h5.583l.505-2.742L8,8.078l.828-4.031h7.119l.521-2.831H5.535Z" transform="translate(-2.406 -0.847)" fill="#fff" fill-rule="evenodd"/>
    </g>
  </g>
</svg>
