<svg xmlns="http://www.w3.org/2000/svg" width="60" height="60" viewBox="0 0 60 60">
  <g id="アイコン" transform="translate(-316 -3599.494)">
    <g id="グループ_206" data-name="グループ 206" transform="translate(316 3599.494)">
      <path id="パス_2251" data-name="パス 2251" d="M30,0A30,30,0,1,1,0,30,30,30,0,0,1,30,0Z" fill="#ad4eff"/>
    </g>
    <g id="グループ_3303" data-name="グループ 3303" transform="translate(-7641.734 -551.315)">
      <path id="パス_2231" data-name="パス 2231" d="M223.572,107.165,198.9,117.719a.692.692,0,0,1-.907-.363l-6.508-15.211a.507.507,0,0,1,.266-.664l25-10.7a.515.515,0,0,1,.676.271l6.5,15.2A.692.692,0,0,1,223.572,107.165Z" transform="translate(7777.68 4071.614)" fill="#f2f2f2"/>
      <path id="パス_2232" data-name="パス 2232" d="M255.262,143.58l-22.99,9.836a.645.645,0,0,1-.856-.311l-5.667-13.246a.478.478,0,0,1,.271-.618l23.3-9.968a.486.486,0,0,1,.645.234l5.664,13.239A.645.645,0,0,1,255.262,143.58Z" transform="translate(7744.849 4034.738)" fill="#fff"/>
      <path id="パス_2233" data-name="パス 2233" d="M214.515,82.974l-25.939,11.1-.138-.323a.694.694,0,0,1,.365-.91l24.664-10.552a.694.694,0,0,1,.91.364Z" transform="translate(7780.617 4079.77)" fill="#63ff87"/>
      <circle id="楕円形_338" data-name="楕円形 338" cx="0.179" cy="0.179" r="0.179" transform="translate(7969.968 4172.687)" fill="#fff"/>
      <circle id="楕円形_339" data-name="楕円形 339" cx="0.179" cy="0.179" r="0.179" transform="translate(7970.594 4172.419)" fill="#fff"/>
      <circle id="楕円形_340" data-name="楕円形 340" cx="0.179" cy="0.179" r="0.179" transform="translate(7971.22 4172.151)" fill="#fff"/>
      <path id="パス_2234" data-name="パス 2234" d="M361.349,325.133l-3.066,1.312a.692.692,0,0,1-.907-.363l-1.692-3.956a.692.692,0,0,1,.363-.907l3.066-1.312a.692.692,0,0,1,.907.363l1.693,3.956A.692.692,0,0,1,361.349,325.133Z" transform="translate(7620.375 3852.098)" fill="#f2f2f2"/>
      <path id="パス_2235" data-name="パス 2235" d="M485.257,272.123l-3.066,1.312a.692.692,0,0,1-.907-.363l-1.692-3.956a.692.692,0,0,1,.363-.907l3.066-1.312a.692.692,0,0,1,.907.363l1.692,3.956A.692.692,0,0,1,485.257,272.123Z" transform="translate(7501.654 3902.889)" fill="#f2f2f2"/>
      <path id="パス_2236" data-name="パス 2236" d="M609.165,219.113l-3.066,1.312a.692.692,0,0,1-.907-.363L603.5,216.1a.692.692,0,0,1,.363-.907l3.066-1.312a.692.692,0,0,1,.907.363l1.692,3.956A.692.692,0,0,1,609.165,219.113Z" transform="translate(7382.934 3953.679)" fill="#f2f2f2"/>
      <path id="パス_2237" data-name="パス 2237" d="M423.888,471.317l-3.066,1.312a.692.692,0,0,1-.907-.363l-1.692-3.956a.692.692,0,0,1,.363-.907l3.066-1.312a.692.692,0,0,1,.907.363l1.692,3.956A.692.692,0,0,1,423.888,471.317Z" transform="translate(7560.454 3712.034)" fill="#f2f2f2"/>
      <path id="パス_2238" data-name="パス 2238" d="M547.8,418.307l-3.066,1.312a.692.692,0,0,1-.907-.363l-1.693-3.956a.692.692,0,0,1,.363-.907l3.066-1.312a.692.692,0,0,1,.907.363l1.692,3.956A.692.692,0,0,1,547.8,418.307Z" transform="translate(7441.732 3762.825)" fill="#f2f2f2"/>
      <path id="パス_2239" data-name="パス 2239" d="M671.706,365.3l-3.066,1.312a.692.692,0,0,1-.907-.363l-1.692-3.956a.692.692,0,0,1,.363-.907l3.066-1.312a.692.692,0,0,1,.907.363l1.693,3.956A.692.692,0,0,1,671.706,365.3Z" transform="translate(7323.012 3813.616)" fill="#f2f2f2"/>
      <path id="パス_2240" data-name="パス 2240" d="M365.3,411.77H338.472a.692.692,0,0,1-.691-.691V394.534a.507.507,0,0,1,.506-.506h27.192a.515.515,0,0,1,.515.515v16.536A.692.692,0,0,1,365.3,411.77Z" transform="translate(7637.474 3781.027)" fill="#e6e6e6"/>
      <path id="パス_2241" data-name="パス 2241" d="M386.948,442.429H361.942a.645.645,0,0,1-.665-.622V427.4a.478.478,0,0,1,.493-.462h25.342a.486.486,0,0,1,.5.469v14.4A.645.645,0,0,1,386.948,442.429Z" transform="translate(7614.961 3749.495)" fill="#fff"/>
      <path id="パス_2242" data-name="パス 2242" d="M365.763,384.267H337.55v-.352a.694.694,0,0,1,.693-.693h26.826a.694.694,0,0,1,.693.693Z" transform="translate(7637.696 3791.38)" fill="#96bf46"/>
      <circle id="楕円形_341" data-name="楕円形 341" cx="0.179" cy="0.179" r="0.179" transform="translate(7976.326 4174.946)" fill="#fff"/>
      <circle id="楕円形_342" data-name="楕円形 342" cx="0.179" cy="0.179" r="0.179" transform="translate(7977.007 4174.946)" fill="#fff"/>
      <circle id="楕円形_343" data-name="楕円形 343" cx="0.179" cy="0.179" r="0.179" transform="translate(7977.688 4174.946)" fill="#fff"/>
      <rect id="長方形_292" data-name="長方形 292" width="13.565" height="1.718" rx="0.859" transform="translate(7987.849 4180.477)" fill="#e6e6e6"/>
      <rect id="長方形_293" data-name="長方形 293" width="13.565" height="1.718" rx="0.859" transform="translate(7987.849 4183.319)" fill="#e6e6e6"/>
      <rect id="長方形_294" data-name="長方形 294" width="13.565" height="1.718" rx="0.859" transform="translate(7987.849 4186.162)" fill="#e6e6e6"/>
      <path id="パス_2243" data-name="パス 2243" d="M401.183,506.543a4.606,4.606,0,1,1-4.606-4.606A4.606,4.606,0,0,1,401.183,506.543Z" transform="translate(7585.552 3677.635)" fill="#fff"/>
      <path id="パス_2248" data-name="パス 2248" d="M393.881,508.57a4.727,4.727,0,1,1,1.465-.231A4.727,4.727,0,0,1,393.881,508.57Zm0-9.211a4.481,4.481,0,1,0,4.48,4.48A4.481,4.481,0,0,0,393.881,499.359Z" transform="translate(7588.248 3680.339)" fill="#c8c7d6"/>
      <g id="ショッピングの無料アイコン_3" data-name="ショッピングの無料アイコン　3" transform="translate(7980.131 4181.689)">
        <path id="パス_2249" data-name="パス 2249" d="M38.006,131.72H34.818l-.341,3.322h3.87Zm-2.46.772a.143.143,0,1,1,.143-.143A.143.143,0,0,1,35.546,132.492Zm1.732,0a.143.143,0,1,1,.143-.143A.143.143,0,0,1,37.278,132.492Z" transform="translate(-34.477 -130.569)" fill="#96bf46"/>
        <path id="パス_2250" data-name="パス 2250" d="M143.156.451a.761.761,0,0,1,1.3.538h.228a.99.99,0,0,0-1.979,0h.228A.759.759,0,0,1,143.156.451Z" transform="translate(-141.76)" fill="#96bf46"/>
      </g>
    </g>
  </g>
</svg>
