<svg id="イラスト" xmlns="http://www.w3.org/2000/svg" width="151.484" height="98.499" viewBox="0 0 151.484 98.499">
  <rect id="長方形_304" data-name="長方形 304" width="151.418" height="98.411" transform="translate(0.066 0.087)" fill="#e6e6e6"/>
  <rect id="長方形_305" data-name="長方形 305" width="145.657" height="86.857" transform="translate(2.946 9.143)" fill="#fff"/>
  <rect id="長方形_306" data-name="長方形 306" width="151.418" height="6.528" fill="#4e84ff"/>
  <circle id="楕円形_345" data-name="楕円形 345" cx="1.21" cy="1.21" r="1.21" transform="translate(3.641 2.128)" fill="#fff"/>
  <circle id="楕円形_346" data-name="楕円形 346" cx="1.21" cy="1.21" r="1.21" transform="translate(8.234 2.128)" fill="#fff"/>
  <circle id="楕円形_347" data-name="楕円形 347" cx="1.21" cy="1.21" r="1.21" transform="translate(12.826 2.128)" fill="#fff"/>
  <path id="パス_2372" data-name="パス 2372" d="M454.49,364.726s.555,7.664.3,8.115,4.447,8.547,4.447,8.547l7.515-7.043s-.455-9.743.029-10.182S454.49,364.726,454.49,364.726Z" transform="translate(-406.122 -331.174)" fill="#a0616a"/>
  <circle id="楕円形_348" data-name="楕円形 348" cx="8.785" cy="8.785" r="8.785" transform="translate(45.983 21.837)" fill="#a0616a"/>
  <path id="パス_2373" data-name="パス 2373" d="M446.523,406.948l-.9-.506-4.447-4.006s-.443-.165-.51,1.22l-.067,1.385-2.871,1.944-.132,31.47,19.858.959.836-31.667-4.484-2.994L452.982,403l-5.051,3.551Z" transform="translate(-392.44 -362.242)" fill="#fff"/>
  <path id="パス_2374" data-name="パス 2374" d="M414.457,409.871l-2.2,32.033H379.1c-4.226-5-7.6-30.744-4-31.506,1.177-.407,9.154-2.913,9.154-2.913a11.59,11.59,0,0,0,3.144-2.855,10.469,10.469,0,0,1,1.7-2.194l0,0,0,0c.018-.019.035-.037.053-.053a.031.031,0,0,1,.016-.014c.023-.025.046-.049.072-.072v.035l-.169,5.858,6.353,21.832s1.789-13.105,3.606-17.183a27.6,27.6,0,0,0,1.833-7.173c.21-1.579.264-2.677.264-2.677l.025.032v0h0c.028.035.072.092.136.171l0,0c.532.666,2.238,2.682,3.394,2.737,1.385.067,5.187,2.8,5.187,2.8A11.686,11.686,0,0,1,414.457,409.871Z" transform="translate(-340.512 -362.127)" fill="#2f2e41"/>
  <path id="パス_2375" data-name="パス 2375" d="M532.167,538.026s2.5-8.674,6.152-7.572-.357,7.389-.357,7.389Z" transform="translate(-469.206 -465.802)" fill="#a0616a"/>
  <path id="パス_2376" data-name="パス 2376" d="M427.329,571.5s-8.158-3.866-6.483-7.291,7.235,1.542,7.235,1.542Z" transform="translate(-378.579 -492.234)" fill="#a0616a"/>
  <path id="パス_2377" data-name="パス 2377" d="M453.555,576.967H451.6a19.841,19.841,0,0,0-2.39-.439c-.185-.009-.245-.3-.222-.756a14.369,14.369,0,0,1,.372-2.245c.28-1.248.654-2.6.895-3.458v0c.141-.5.233-.835.236-.883a6.433,6.433,0,0,1,2.171.22c.465.085.818.157.818.157l.044,4.168Z" transform="translate(-401.606 -497.19)" fill="#fff"/>
  <path id="パス_2378" data-name="パス 2378" d="M494.234,469.97c-.564,1.6-.971,2.862-1.3,3.826H467.286c-.086-.883-.194-2.092-.264-3.29-.113-1.916-.132-3.8.18-4.274a.221.221,0,0,1,.139-.109c.6-.118,7.363-.224,12.153-.287l1.861-.021c1.727-.021,2.9-.032,2.9-.032s.093-3.162.375-7.194c.5-7.088,1.584-16.864,3.8-16.906l1.618.079s.922.044,1.318,1.452S495.843,465.418,494.234,469.97Z" transform="translate(-416.344 -394.018)" fill="#2f2e41"/>
  <path id="パス_2379" data-name="パス 2379" d="M435.106,287.546l-1.636-.686a11.852,11.852,0,0,1,8.478-2.776l-1.3-1.428a6.186,6.186,0,0,1,6.262,2.275,27.074,27.074,0,0,1,4.3,6.068l1.783.086-.816,1.452,2.533,1.614-2.66-.4a7.52,7.52,0,0,1-.439,3.842l-.686,1.636a48.08,48.08,0,0,1-2.158-5.566l-.073,1.513s-1.6-1.443-1.555-2.351l-.959,1.016-.374-1.687-5.68,1.394.974-1.318-3.5.286,1.443-1.6s-4.03,1.777-4.262,3.435-2.3,3.681-2.3,3.681l-.835-1.557S430.607,289.6,435.106,287.546Z" transform="translate(-387.532 -265.154)" fill="#2f2e41"/>
  <path id="パス_2380" data-name="パス 2380" d="M399.756,333.743H286.2v-65.3H399.756Zm-113.18-.381H399.382V268.823H286.576Z" transform="translate(-269.111 -253.775)" fill="#e6e6e6"/>
  <path id="パス_2381" data-name="パス 2381" d="M740.367,302.691a4.253,4.253,0,0,0-3.261-1.936s-2.111-.27-3.465,2.548c-1.262,2.626-3,5.162-.28,5.777l.492-1.531.3,1.645a10.681,10.681,0,0,0,1.165.02c2.917-.094,5.695.028,5.605-1.019C740.809,306.8,741.421,304.472,740.367,302.691Z" transform="translate(-631.509 -279.928)" fill="#2f2e41"/>
  <path id="パス_2382" data-name="パス 2382" d="M748.728,333.443a1.153,1.153,0,0,1-.1.609c-.205.358-.706.412-1.007.694a1.692,1.692,0,0,0-.368,1.213,3.355,3.355,0,0,0,.137,1.345,3.268,3.268,0,0,0,.382.656q.276.4.557.792a3.408,3.408,0,0,0,.333.418,2.84,2.84,0,0,0,1.255.666,1.568,1.568,0,0,0,.912.06,1.746,1.746,0,0,0,.53-.326,2.84,2.84,0,0,0,.6-.582,2.71,2.71,0,0,0,.367-1.241,26.746,26.746,0,0,0,.176-3.856.946.946,0,0,0-.074-.41c-.152-.3-.561-.361-.776-.618a1.236,1.236,0,0,1-.19-.818l0-.728a.228.228,0,0,0-.244-.275,7.043,7.043,0,0,0-1.37-.092,3.383,3.383,0,0,0-1.407.187c-.292.188.074.707.141,1A6.513,6.513,0,0,1,748.728,333.443Z" transform="translate(-643.912 -304.376)" fill="#ffb8b8"/>
  <circle id="楕円形_349" data-name="楕円形 349" cx="2.944" cy="2.944" r="2.944" transform="translate(102.727 21.929)" fill="#ffb8b8"/>
  <path id="パス_2383" data-name="パス 2383" d="M741.094,349.921a.807.807,0,0,0-.982.251,1.78,1.78,0,0,0-.323,1.036,6.764,6.764,0,0,1-.079,1.1c-.177.794-.833,1.447-.882,2.259a6.032,6.032,0,0,0,.769,2.249,3.75,3.75,0,0,1,.2,1.464.587.587,0,0,0,.094.457.522.522,0,0,0,.2.11,13.256,13.256,0,0,0,4.084.532l2.277.058a.727.727,0,0,0,.4-.067c.2-.125.231-.406.235-.646.03-2.063-.058-4.127-.146-6.188a13.132,13.132,0,0,0-.223-2.23.64.64,0,0,0-.278-.475.614.614,0,0,0-.469.031c-.706.262-2.949,1.268-3.17.91C742.554,350.355,740.969,350.232,741.094,349.921Z" transform="translate(-637.113 -319.633)" fill="#fff"/>
  <path id="パス_2384" data-name="パス 2384" d="M732.122,345.075c-.058.041-.115.084-.17.13a3.287,3.287,0,0,0-.547.576,4.566,4.566,0,0,0-.619,1.169,11.321,11.321,0,0,0-.494,2.279,5.491,5.491,0,0,0-.078.859c.017,1.058.643,2.039.643,3.1,0,.04,0,.08,0,.12a3.5,3.5,0,0,1-.061.516c-.046.249-.112.494-.177.738a7.051,7.051,0,0,1-.661,1.786c-.032.055-.067.109-.1.161H727.6c.018-.054.036-.107.054-.161l1.15-3.408c.117-.347.235-.7.318-1.054a9.982,9.982,0,0,0,.194-1.337q.133-1.4.175-2.8a3.412,3.412,0,0,1,.126-1,3.265,3.265,0,0,1,.4-.73l.7-1.049a1.61,1.61,0,0,1,.465-.516c.167-.1.364-.139.54-.225a2.766,2.766,0,0,0,.317-.21c.262-.186.57-.381.8-.191a.443.443,0,0,1,.093.107.58.58,0,0,1,.035.062C733.178,344.463,732.414,344.868,732.122,345.075Z" transform="translate(-627.963 -314.736)" fill="#2f2e41"/>
  <path id="パス_2385" data-name="パス 2385" d="M745.956,397.118H735.527c.056-.051.112-.105.166-.161l.023-.024a3.785,3.785,0,0,0,.69-1.462l.451-1.218a.634.634,0,0,1,.115-.216.356.356,0,0,1,.158-.095.613.613,0,0,1,.14-.026,1.573,1.573,0,0,1,.2,0q2.807.145,5.61.353l.724.056c.2.146.392.3.577.466a5.169,5.169,0,0,1,1.427,1.894c.036.089.069.18.1.273C745.927,397.01,745.943,397.064,745.956,397.118Z" transform="translate(-634.456 -355.347)" fill="#2f2e41"/>
  <path id="パス_2386" data-name="パス 2386" d="M553.011,113.808l-2.14-1.121-2.955.458-.611,2.7,1.522-.058.425-.992v.976l.7-.027.408-1.58.255,1.682,2.5-.051Z" transform="translate(-444.636 -91.223)" fill="#2f2e41"/>
  <path id="パス_2387" data-name="パス 2387" d="M772.089,354.721h-2.355c-.017-.053-.033-.107-.048-.161a12.633,12.633,0,0,1-.365-1.824c-.025-.176-.047-.353-.067-.529-.013-.112-.025-.223-.037-.335a18.666,18.666,0,0,0-.618-3.684c-.046-.144-.1-.287-.144-.43a5.079,5.079,0,0,1-.209-.757c-.1-.589-.026-1.2-.132-1.786-.06-.328-.178-.617-.249-.918a1.86,1.86,0,0,1-.053-.556,1.2,1.2,0,0,1,.626-.31.33.33,0,0,0,.222-.089.279.279,0,0,0,.037-.164,7.864,7.864,0,0,0-.065-1.135c-.016-.132-.036-.264-.06-.395,0-.006,0-.012,0-.018a1.557,1.557,0,0,1,.63-.085l.7,0,1.286,0a2.831,2.831,0,0,1,1.174.17,1.869,1.869,0,0,1,.848.869,5,5,0,0,1,.383,1.172,1.577,1.577,0,0,1,.04.339c.018.906-.658,1.818-.726,2.743-.022.3,0,.6-.024.9s-.108.6-.122.9c0,.015,0,.031,0,.047a3.226,3.226,0,0,0,.237,1.144c.2.573.453,1.129.709,1.682.248.535.5,1.067.73,1.609a2.753,2.753,0,0,1,.237.8,1.1,1.1,0,0,1-.121.643.739.739,0,0,1-.1.136l0,0-.022.023Z" transform="translate(-660.644 -312.95)" fill="#2f2e41"/>
  <path id="パス_2388" data-name="パス 2388" d="M795.061,403.958a.891.891,0,0,1-.086.308l-.012.028c-.047.11-.094.219-.143.328l-.073.161h-1.332a1.5,1.5,0,0,0,.133-.161c.2-.284.323-.629.531-.935a.722.722,0,0,1,.1-.116C794.51,403.248,795.082,403.314,795.061,403.958Z" transform="translate(-681.388 -363.012)" fill="#ffb8b8"/>
  <path id="パス_2389" data-name="パス 2389" d="M791.39,359.78a1.62,1.62,0,0,0,.043-.161c.01-.043.018-.084.024-.127.043-.281.042-.568.109-.844.094-.395.376-.862.144-1.194a1.261,1.261,0,0,0,.5-.224.429.429,0,0,0,.135-.494c-.083-.162-.307-.269-.277-.448a.427.427,0,0,1,.079-.156,1.169,1.169,0,0,0-.02-1.282c-.073-.1-.163-.2-.23-.306a1.821,1.821,0,0,1-.166-.424,7.9,7.9,0,0,0-1.016-2.106,1.4,1.4,0,0,1-.224-.415,1.712,1.712,0,0,1-.018-.493,3.3,3.3,0,0,0-.577-1.831c-.026-.04-.052-.08-.079-.119a10.6,10.6,0,0,0-1.174-1.368.753.753,0,0,0-.413.3.892.892,0,0,0-.08.3c-.114.8-.213,1.6-.29,2.4a5.87,5.87,0,0,0-.032,1.216,1.963,1.963,0,0,0,.457,1.108c.171.188.389.328.574.5q.045.042.087.087a2.843,2.843,0,0,1,.355.466,4.016,4.016,0,0,1,.59,2.407,3.939,3.939,0,0,1-.06.454,1.873,1.873,0,0,1-.214.611c-.084.139-.2.261-.272.4a.512.512,0,0,0-.037.467.953.953,0,0,1,.332.06,1.411,1.411,0,0,1,.627.479,2.091,2.091,0,0,1,.159.245,3.015,3.015,0,0,1,.159.328c.019.044.038.09.056.136a.13.13,0,0,1,.01.025Z" transform="translate(-676.866 -318.009)" fill="#2f2e41"/>
  <path id="パス_2390" data-name="パス 2390" d="M696.983,312.037h-41.65V288.442h41.65Zm-41.269-.381H696.6V288.823H655.714Z" transform="translate(-569.679 -269.966)" fill="#e6e6e6"/>
  <circle id="楕円形_350" data-name="楕円形 350" cx="4.285" cy="4.285" r="4.285" transform="translate(71.427 83.397)" fill="#e6e6e6"/>
  <circle id="楕円形_351" data-name="楕円形 351" cx="3.285" cy="3.285" r="3.285" transform="translate(72.427 84.397)" fill="#fff"/>
  <path id="パス_2391" data-name="パス 2391" d="M593.867,645.945a.149.149,0,0,1-.106-.044l-3.292-3.292a.15.15,0,0,1,.212-.211l3.292,3.292a.15.15,0,0,1-.106.255Z" transform="translate(-516.509 -556.468)" fill="#96bf46"/>
  <path id="パス_2392" data-name="パス 2392" d="M597.253,652.626l-.484-.484a.019.019,0,0,0-.032.016.6.6,0,0,0,.5.5.019.019,0,0,0,.016-.032Z" transform="translate(-521.611 -564.384)" fill="#96bf46"/>
  <path id="パス_2393" data-name="パス 2393" d="M600.21,648.694l.485.485a.019.019,0,0,0,.022,0,.019.019,0,0,0,.01-.019.6.6,0,0,0-.5-.5.019.019,0,0,0-.016.032Z" transform="translate(-524.428 -561.573)" fill="#96bf46"/>
  <path id="パス_2394" data-name="パス 2394" d="M599.062,645.571a.3.3,0,0,0,0-.325,3.169,3.169,0,0,0-.928-.94,2.353,2.353,0,0,0-1.271-.393,2.121,2.121,0,0,0-.672.11.037.037,0,0,0-.015.062l.442.442a.037.037,0,0,0,.036.01.9.9,0,0,1,1.085,1.085.038.038,0,0,0,.01.036l.636.636a.038.038,0,0,0,.051,0A3.213,3.213,0,0,0,599.062,645.571Z" transform="translate(-521.164 -557.727)" fill="#96bf46"/>
  <path id="パス_2395" data-name="パス 2395" d="M590.3,648.911a.9.9,0,0,1-.873-1.109.038.038,0,0,0-.01-.036l-.625-.625a.038.038,0,0,0-.051,0,3.741,3.741,0,0,0-.633.708.3.3,0,0,0-.006.332,3.121,3.121,0,0,0,.919.941,2.316,2.316,0,0,0,1.275.389,2.225,2.225,0,0,0,.679-.108.037.037,0,0,0,.015-.062l-.444-.444a.037.037,0,0,0-.036-.01A.894.894,0,0,1,590.3,648.911Z" transform="translate(-514.577 -560.331)" fill="#96bf46"/>
  <circle id="楕円形_352" data-name="楕円形 352" cx="4.285" cy="4.285" r="4.285" transform="translate(55.419 83.397)" fill="#e6e6e6"/>
  <circle id="楕円形_353" data-name="楕円形 353" cx="3.285" cy="3.285" r="3.285" transform="translate(56.416 84.397)" fill="#fff"/>
  <path id="パス_2396" data-name="パス 2396" d="M506.843,644.971a1.764,1.764,0,0,1-.823-.281,5.35,5.35,0,0,1-1.293-.967,4.9,4.9,0,0,1-.971-1.292c-.345-.627-.286-.955-.22-1.1a.875.875,0,0,1,.343-.368,1.659,1.659,0,0,1,.268-.142l.026-.011a.25.25,0,0,1,.205-.019.6.6,0,0,1,.2.15,3.24,3.24,0,0,1,.488.724.722.722,0,0,1,.1.3.468.468,0,0,1-.119.279l-.036.048c-.071.093-.087.12-.077.169a1.775,1.775,0,0,0,.432.641,1.7,1.7,0,0,0,.633.422c.05.011.078-.005.174-.079l.043-.032a.472.472,0,0,1,.283-.127h0a.679.679,0,0,1,.3.1,3.567,3.567,0,0,1,.721.484.6.6,0,0,1,.15.194.253.253,0,0,1-.019.206l-.011.026a1.645,1.645,0,0,1-.143.267.875.875,0,0,1-.368.342A.633.633,0,0,1,506.843,644.971Z" transform="translate(-445.883 -555.194)" fill="#96bf46"/>
  <circle id="楕円形_354" data-name="楕円形 354" cx="4.285" cy="4.285" r="4.285" transform="translate(87.559 83.397)" fill="#e6e6e6"/>
  <circle id="楕円形_355" data-name="楕円形 355" cx="3.285" cy="3.285" r="3.285" transform="translate(88.562 84.397)" fill="#fff"/>
  <path id="パス_2397" data-name="パス 2397" d="M683.281,660.717h-1.2a.15.15,0,1,1,0-.3h1.2a.15.15,0,1,1,0,.3Z" transform="translate(-590.827 -571.089)" fill="#96bf46"/>
  <path id="パス_2398" data-name="パス 2398" d="M680.138,650.429a1.348,1.348,0,0,1-1.347-1.347v-.3a.15.15,0,1,1,.3,0v.3a1.048,1.048,0,1,0,2.1,0v-.3a.15.15,0,1,1,.3,0v.3a1.348,1.348,0,0,1-1.347,1.347Z" transform="translate(-588.285 -561.549)" fill="#96bf46"/>
  <path id="パス_2399" data-name="パス 2399" d="M685.226,657.537a.15.15,0,0,1-.15-.15v-.748a.15.15,0,1,1,.3,0v.748A.15.15,0,0,1,685.226,657.537Z" transform="translate(-593.369 -567.909)" fill="#96bf46"/>
  <path id="パス_2400" data-name="パス 2400" d="M682.682,644.106a.737.737,0,0,1-.529-.225.756.756,0,0,1-.219-.532v-1.038a.745.745,0,0,1,.742-.748h.006a.74.74,0,0,1,.748.748v1.038A.754.754,0,0,1,682.682,644.106Z" transform="translate(-590.827 -555.825)" fill="#96bf46"/>
</svg>
