<svg xmlns="http://www.w3.org/2000/svg" xmlns:xlink="http://www.w3.org/1999/xlink" width="175.193" height="107.479" viewBox="0 0 175.193 107.479">
  <defs>
    <linearGradient id="linear-gradient" x1="0.5" y1="1" x2="0.5" gradientUnits="objectBoundingBox">
      <stop offset="0" stop-color="gray" stop-opacity="0.251"/>
      <stop offset="0.54" stop-color="gray" stop-opacity="0.122"/>
      <stop offset="1" stop-color="gray" stop-opacity="0.102"/>
    </linearGradient>
  </defs>
  <g id="イラスト" transform="translate(-7985.572 -5888.684)">
    <g id="undraw_conversation_h12g_2_" data-name="undraw_conversation_h12g (2)" transform="translate(7985.572 5888.684)">
      <path id="パス_2530" data-name="パス 2530" d="M194.622,120.393c-.012.225-.029.453-.05.67a19.239,19.239,0,0,1-1.412,5.679c-2.542,6.035-7.617,10.627-13.038,14.314l-.343.231c-.981.659-1.978,1.3-2.981,1.919l-.08.05-.06.038-.183.112c-.143.091-.288.178-.432.267l-.24.151-1.1.67-.97.584h0l-1.839,1.109c-2.046,1.231-4.081,2.481-6.05,3.828l-.3.211c-.151.1-.285.2-.425.3q-1.109.779-2.182,1.61c-.14.107-.281.217-.419.33a19.458,19.458,0,0,0-3.819,3.9,9.238,9.238,0,0,0-1.685,4.163,12.224,12.224,0,0,0,1.685,7.016c.745,1.462,1.63,2.9,2.44,4.336.264.469.521.937.754,1.4a19.661,19.661,0,0,1,1.127,2.557,7.96,7.96,0,0,1,.092,5.663,9,9,0,0,1-4.421,4.527c-1.056.581-2.192,1.085-3.345,1.592a33.106,33.106,0,0,0-4.779,2.4q-.139.088-.272.181-.285.192-.558.4h0c-.3.229-.591.474-.872.727q-.249.228-.489.468c-.127.124-.253.252-.377.383-.238.249-.471.505-.7.765l-.18.208q-.25.3-.5.594c-.214.26-.424.522-.634.786-.3.377-.6.754-.9,1.132-.088.109-.174.216-.258.324-.492.6-.985,1.207-1.509,1.765l-.062.066a10.875,10.875,0,0,1-4.341,3.051c-4.169,1.449-8.3-.712-12.3-3.018h0l-.112-.066-.05-.029h0l-.344-.2-.161-.094c-.409-.238-.818-.477-1.225-.709l-.1-.057c-.575-.327-1.145-.646-1.713-.946q-.513-.272-1.037-.519a29.165,29.165,0,0,0-3.558-1.427,30.653,30.653,0,0,0-4.868-1.172q-1.008-.161-2.026-.252c-.438-.039-.878-.071-1.319-.092a31.134,31.134,0,0,0-10.576,1.286c-.466.142-.931.3-1.39.462-.086.029-.171.06-.253.09-.425.151-.846.321-1.263.5l-.151.062h0a.083.083,0,0,1-.023.012c-2.149.923-4.225,2.1-6.366,3.025-.19.081-.38.161-.573.24a16.818,16.818,0,0,1-4.161,1.156,15.542,15.542,0,0,1-4.436-.112A31.224,31.224,0,0,1,77,198.1h-.014l-.081-.026c-.119-.035-.24-.069-.359-.107l-.16-.047-.21-.065a47.523,47.523,0,0,0-9.154-2.319c-.151-.014-.3-.027-.453-.038a19.318,19.318,0,0,0-2.9.021,43.879,43.879,0,0,0-8.628,1.827l-.178.05c-.151.045-.311.089-.466.136l-.336.1-.653.187-.151.042h0c-4.717,1.358-9.385,2.518-13.995,1.174a16.719,16.719,0,0,1-5.5-2.9A30.065,30.065,0,0,1,30.43,193.1c-.973-1.012-1.9-2.073-2.8-3.131-3-3.525-5.957-7.265-7.262-11.7a22.858,22.858,0,0,1-.816-4.815c-.069-.99-.094-1.986-.092-2.983q0-.994.029-1.984c.011-.481.027-.961.041-1.441v-.231c.009-.223.015-.453.021-.67q.195-6.248.386-12.5a29.542,29.542,0,0,1,1.035-8.238c.1-.3.208-.6.324-.905.089-.226.184-.453.281-.67,1.907-4.287,5.583-7.81,8.848-11.413a42.811,42.811,0,0,0,3.344-4.086,15.067,15.067,0,0,0,2.935-7.259c.021-.222.036-.444.044-.67s.009-.453,0-.693c-.08-3.866-2.138-7.573-2.983-11.292a10.985,10.985,0,0,1-.124-5.017c.036-.161.078-.318.124-.474,1.471-5.015,7.206-7.647,12.44-8.5a54.212,54.212,0,0,1,16.389.151q.537.077,1.071.166c1.123.183,2.236.4,3.345.631,2.69.563,5.355,1.225,8.057,1.773,3.463.7,6.6.032,10.05-.453q2.648-.371,5.32-.516,2.224-.122,4.453-.088a62.578,62.578,0,0,1,17.637,2.8c3.84,1.2,7.621,2.776,11.525,3.638a25.633,25.633,0,0,0,4.056.587c.107.009.216.015.324.02,9.24.41,17.732-5.109,26.906-6.144l.309-.033a28.488,28.488,0,0,1,3.036-.151c8.552.038,16.845,3.716,24.7,7.345a25.756,25.756,0,0,1,6.773,4.018C193.5,111.227,194.881,115.829,194.622,120.393Z" transform="translate(-19.459 -93.87)" fill="#f8ff7e" opacity="0.1"/>
      <path id="パス_2531" data-name="パス 2531" d="M113.851,171V149.356h5.964c-.051-.048-.1-.1-.151-.14l-.039-.035-.088-.077c-.038-.033-.074-.065-.113-.1l-.1-.075-.1-.081q-.078-.065-.167-.127a.4.4,0,0,0-.041-.03h-5.166V147.51c-.048.024-.094.05-.14.075l-.151.094a.008.008,0,0,1-.009.008.181.181,0,0,1-.032.02l-.092.069c-.03.021-.062.044-.092.068-.092.068-.183.151-.272.222l-.089.08-.175.158c-.234.219-.463.445-.7.655-.06.053-.119.106-.181.151a4.609,4.609,0,0,1-.4.3,1.932,1.932,0,0,1-.172.11l-.1.05-.089.045h0a3.363,3.363,0,0,1-.653.235V171h-8.957a.335.335,0,0,0,.018.069c.05.2.1.4.151.6h8.792v23.2h.137l.151.011.285.024.453.053a1.379,1.379,0,0,1,.208.029l.244.035h.033l.4.068a.456.456,0,0,1,.086.017l.192.035.279.056h0l.67-.024h0l.092.021.113.026V171.679h13.827v-.05q0-.025,0-.05c.018-.186.035-.368.053-.552a.067.067,0,0,1,0-.018Zm20.686,0h-.6v.674h.688Zm-6.79,0a.069.069,0,0,0,0,.018c-.018.184-.035.367-.053.552q0,.025,0,.05v.05h5.2v-.036l.371-.631ZM34.055,108.261a10.987,10.987,0,0,0,.124,5.017v-5.5C34.132,107.938,34.091,108.095,34.055,108.261Zm85.6,40.955c-.011-.169-.023-.346-.03-.53H118.19a.816.816,0,0,0,.014.088c.018.1.032.2.047.3.011.071.021.139.029.207l.009.077h1.379Zm-11.093,22.147h0c-.106-.062-.164-.094-.164-.094.163-.1.321-.187.475-.27H76.725a1.358,1.358,0,0,0,.059.151c.012.029.027.06.042.092s.035.071.056.109.063.116.1.178.057.1.088.151h32C108.858,171.534,108.684,171.43,108.567,171.362ZM67.408,155.009l.017.039V155Zm-.02-3.246a.661.661,0,0,1-.166.151s.065.072.158.2a.4.4,0,0,1-.017.051c-.008.021-.017.044-.026.065l-.015.029a.466.466,0,0,1-.035.059.12.12,0,0,1-.018.023.6.6,0,0,1-.051.066l-.033.032a.5.5,0,0,1-.068.059l-.02.014H67.09l.009.009.014.017a3.447,3.447,0,0,1,.312.438v-1.26ZM108.319,171h-4.662a10.779,10.779,0,0,0,4.534.113l.258-.038C108.393,171.039,108.348,171.015,108.319,171Zm10.056.668a.324.324,0,0,0-.035-.042.215.215,0,0,0-.036-.038.876.876,0,0,1-.122-.151,1.072,1.072,0,0,1-.057-.092c-.036-.066-.075-.139-.115-.22,0-.009-.009-.02-.015-.03s-.03-.063-.044-.1h-4.1V149.356h4.439l-.009-.077c-.009-.066-.02-.136-.029-.207-.015-.1-.029-.193-.047-.3a.617.617,0,0,0-.014-.088h-4.341v-16.65h-.011a.207.207,0,0,0-.06.008.462.462,0,0,0-.071.015l-.053.02-.068.027-.044.018c-.109.048-.235.115-.386.187-.216.1-.436.2-.658.293l-.131.054-.163.063c-.107.044-.216.083-.324.119q-.106.038-.217.072c-.13.041-.263.078-.394.11-.065.018-.13.032-.2.045s-.13.027-.195.038-.13.023-.2.03-.118.017-.178.021v15.532H67.425V129.658l-.091.054c-.539.3-1.245.246-1.713.644-.6.508-.5,1.449-.293,2.2.018.066.038.131.054.2a.4.4,0,0,0,.017.063h0a.065.065,0,0,0,.012.045.8.8,0,0,1,.024.1l.018.086.009.056a.207.207,0,0,1,0,.029.619.619,0,0,1,.009.074.836.836,0,0,1,.011.136v.015a1.358,1.358,0,0,1-.928,1.189,1.317,1.317,0,0,1-.478.054v14.073H61.325l.062.67H64.08V171H59.229c-.018.112-.038.226-.065.341-.012.05-.024.1-.039.151s-.035.121-.053.181H64.08V176.2h.513l.317-.011h.14c.189-.009.361-.02.512-.029l.2-.015.128-.009.186-.017h.115l.1.018h.035c.066.011.158.026.272.041l.143.021.08.011.226.03h.03l.353.044v-4.614h43.078v.987c.121.092.246.19.368.288l.184.151c.219.183.436.377.644.576l.171.167c.071.071.142.151.208.216l.027.029q.081.089.158.177l.109.127c.062.077.122.151.18.228s.113.151.164.229.1.151.151.232a2.824,2.824,0,0,1,.151.287h.32l.029.06c.014.024.023.048.033.071.044.1.08.193.112.288.012.039.026.077.035.116a1.037,1.037,0,0,1,.03.118.819.819,0,0,0,.021.106c0,.035.011.071.015.1a.559.559,0,0,1,.011.086v.08a1.775,1.775,0,0,1,0,.253,2.08,2.08,0,0,0,.216-.047v-4.929h4.527ZM67.425,171V149.356h43.081V171Zm41.451,0h-5.711c.142.057.264.113.362.164,1.186.6,3.366.439,4.785.237l.253-.038c-.106-.062-.164-.094-.164-.094C108.564,171.171,108.722,171.082,108.876,171Zm-69.188,0c.14.229.288.453.441.67H59.072c.018-.06.038-.121.053-.181s.027-.1.039-.151c.027-.115.047-.229.065-.341Zm68.631,0h-4.662a10.779,10.779,0,0,0,4.534.113l.258-.038C108.393,171.039,108.348,171.015,108.319,171Zm-68.631,0c.14.229.288.453.441.67H59.072c.018-.06.038-.121.053-.181s.027-.1.039-.151c.027-.115.047-.229.065-.341Zm78.688.668a.324.324,0,0,0-.035-.042.215.215,0,0,0-.036-.038.876.876,0,0,1-.122-.151,1.072,1.072,0,0,1-.057-.092c-.036-.066-.075-.139-.115-.22,0-.009-.009-.02-.015-.03s-.03-.063-.044-.1h-4.1V149.356h4.439l-.009-.077c-.009-.066-.02-.136-.029-.207-.015-.1-.029-.193-.047-.3a.617.617,0,0,0-.014-.088h-4.341v-16.65h-.011a.207.207,0,0,0-.06.008.462.462,0,0,0-.071.015l-.053.02-.068.027-.044.018c-.109.048-.235.115-.386.187-.216.1-.436.2-.658.293l-.131.054-.163.063c-.107.044-.216.083-.324.119q-.106.038-.217.072c-.13.041-.263.078-.394.11-.065.018-.13.032-.2.045s-.13.027-.195.038-.13.023-.2.03-.118.017-.178.021v15.532H67.425V129.658l-.091.054c-.539.3-1.245.246-1.713.644-.6.508-.5,1.449-.293,2.2.018.066.038.131.054.2a.4.4,0,0,0,.017.063h0a.088.088,0,0,0,.012.045.8.8,0,0,1,.024.1l.018.086.009.056a.122.122,0,0,0,.008.051.3.3,0,0,1,0,.051.836.836,0,0,1,.011.136v.015a1.358,1.358,0,0,1-.928,1.189,1.317,1.317,0,0,1-.478.054v14.073H61.325l.062.67H64.08V171H59.229c-.018.112-.038.226-.065.341-.012.05-.024.1-.039.151s-.035.121-.053.181H64.08V176.2h.513l.317-.011h.14c.189-.009.361-.02.512-.029l.2-.015.128-.009.186-.017h.115l.1.018h.035c.066.011.158.026.272.041l.143.021.08.011.226.03h.03l.353.044v-4.614H77.537a7.245,7.245,0,0,1-.429-.67H67.422V149.356h43.084V171h-1.63c-.151.083-.312.172-.475.27,0,0,.059.032.164.094h0c.118.068.291.172.507.3H110.5v.987c.121.092.246.19.368.288l.184.151c.219.183.436.377.644.576l.171.167c.071.071.142.151.208.216l.027.029q.081.089.158.177l.109.127c.062.077.122.151.18.228s.113.151.164.229.1.151.151.232a2.829,2.829,0,0,1,.151.287h.32l.029.06c.014.024.023.048.033.071.044.1.08.193.112.288.012.039.026.077.035.116a1.033,1.033,0,0,1,.03.118.82.82,0,0,0,.021.106c0,.035.011.071.015.1a.559.559,0,0,1,.011.086v.08a1.772,1.772,0,0,1,0,.253,2.077,2.077,0,0,0,.216-.047v-4.925h4.527ZM108.319,171h-4.662a10.779,10.779,0,0,0,4.534.113l.258-.038C108.393,171.039,108.348,171.015,108.319,171Zm11.34-21.783c-.011-.169-.023-.346-.03-.53H118.19a.816.816,0,0,0,.014.088c.018.1.032.2.047.3.011.071.021.139.029.207l.009.077h1.379ZM39.691,171c.14.229.288.453.441.67H59.072c.018-.06.038-.121.053-.181s.027-.1.039-.151c.027-.115.047-.229.065-.341Zm78.688.668a.326.326,0,0,0-.035-.042.216.216,0,0,0-.036-.038.877.877,0,0,1-.122-.151,1.064,1.064,0,0,1-.057-.092c-.036-.066-.075-.139-.115-.22,0-.009-.009-.02-.015-.03s-.03-.063-.044-.1h-4.1V149.356h4.439l-.009-.077c-.009-.066-.02-.136-.029-.207-.015-.1-.029-.193-.047-.3a.617.617,0,0,0-.014-.088h-4.341v-16.65h-.011a.207.207,0,0,0-.06.008.462.462,0,0,0-.071.015l-.053.02-.068.027-.044.018c-.109.048-.235.115-.386.187-.216.1-.436.2-.658.293l-.131.054-.163.063c-.107.044-.216.083-.324.119q-.106.038-.217.072c-.13.041-.263.078-.394.11-.065.018-.13.032-.2.045s-.13.027-.195.038-.13.023-.2.03-.118.017-.178.021v15.532H67.425V129.658l-.091.054c-.539.3-1.245.246-1.713.644-.6.508-.5,1.449-.293,2.2.018.066.038.131.054.2a.4.4,0,0,0,.017.063h0a.261.261,0,0,0,.011.047.8.8,0,0,1,.024.1l.018.086.009.056a.121.121,0,0,0,.008.051.3.3,0,0,1,0,.051.835.835,0,0,1,.011.136v.015a1.358,1.358,0,0,1-.928,1.189,1.317,1.317,0,0,1-.478.054v14.073H61.325l.062.67H64.08V171H59.229c-.018.112-.038.226-.065.341-.012.05-.024.1-.039.151s-.035.121-.053.181H64.08V176.2h.513l.317-.011h.14c.189-.009.361-.02.512-.029l.2-.015.128-.009.186-.017h.115l.1.018h.035c.066.011.158.026.272.041l.143.021.08.011.226.03h.03l.353.044v-4.614H77.537a7.245,7.245,0,0,1-.429-.67H67.422V149.356h43.084V171h-1.63c-.151.083-.312.172-.475.27,0,0,.059.032.164.094h0c.118.068.291.172.507.3H110.5v.987c.121.092.246.19.368.288l.184.151c.219.183.436.377.644.576l.171.167c.071.071.142.151.208.216l.027.029q.081.089.158.177l.109.127c.062.077.122.151.18.228s.113.151.164.229.1.151.151.232a2.829,2.829,0,0,1,.151.287h.32l.029.06c.014.024.023.048.033.071.044.1.08.193.112.288.012.039.026.077.035.116a1.033,1.033,0,0,1,.03.118.82.82,0,0,0,.021.106c0,.035.011.071.015.1a.559.559,0,0,1,.011.086v.08a1.772,1.772,0,0,1,0,.253,2.077,2.077,0,0,0,.216-.047v-4.925h4.527Zm1.284-22.452c-.011-.169-.023-.346-.03-.53H118.19a.816.816,0,0,0,.014.088c.018.1.032.2.047.3.011.071.021.139.029.207l.009.077h1.379ZM39.694,171c.14.229.288.453.441.67H59.072c.018-.06.038-.121.053-.181s.027-.1.039-.151c.027-.115.047-.229.065-.341Zm78.688.668a.327.327,0,0,0-.035-.042.217.217,0,0,0-.036-.038.876.876,0,0,1-.122-.151,1.078,1.078,0,0,1-.057-.092c-.036-.066-.075-.139-.115-.22,0-.009-.009-.02-.015-.03s-.03-.063-.044-.1h-4.107V149.356h4.439l-.009-.077c-.009-.066-.02-.136-.029-.207-.015-.1-.029-.193-.047-.3a.617.617,0,0,0-.014-.088h-4.341v-16.65h-.011a.207.207,0,0,0-.06.008.462.462,0,0,0-.071.015l-.053.02-.068.027-.044.018c-.109.048-.235.115-.386.187-.216.1-.436.2-.658.293l-.131.054-.163.063c-.107.044-.216.083-.324.119q-.106.038-.217.072c-.13.041-.263.078-.394.11-.065.018-.13.032-.2.045s-.13.027-.195.038-.13.023-.2.03-.118.017-.178.021v15.532H67.425V129.658l-.091.054c-.539.3-1.245.246-1.713.644-.6.508-.5,1.449-.293,2.2.018.066.038.131.054.2a.4.4,0,0,0,.017.063h0a.261.261,0,0,0,.011.047.8.8,0,0,1,.024.1l.018.086.009.056a.121.121,0,0,0,.008.051.3.3,0,0,1,0,.051.835.835,0,0,1,.011.136v.015a1.358,1.358,0,0,1-.928,1.189,1.317,1.317,0,0,1-.478.054v14.073H61.325l.062.67H64.08V171H59.229c-.018.112-.038.226-.065.341-.012.05-.024.1-.039.151s-.035.121-.053.181H64.08V176.2h.513l.317-.011h.14c.189-.009.361-.02.512-.029l.2-.015.128-.009.186-.017h.115l.1.018h.035c.066.011.158.026.272.041l.143.021.08.011.226.03h.03l.353.044v-4.614H77.537a7.245,7.245,0,0,1-.429-.67H67.422V149.356h43.084V171h-1.63c-.151.083-.312.172-.475.27,0,0,.059.032.164.094h0c.118.068.291.172.507.3H110.5v.987c.121.092.246.19.368.288l.184.151c.219.183.436.377.644.576l.171.167c.071.071.142.151.208.216l.027.029q.081.089.158.177l.109.127c.062.077.122.151.18.228s.113.151.164.229.1.151.151.232a2.829,2.829,0,0,1,.151.287h.32l.029.06c.014.024.023.048.033.071.044.1.08.193.112.288.012.039.026.077.035.116a1.033,1.033,0,0,1,.03.118.82.82,0,0,0,.021.106c0,.035.011.071.015.1a.559.559,0,0,1,.011.086v.08a1.772,1.772,0,0,1,0,.253,2.077,2.077,0,0,0,.216-.047v-4.925h4.542Zm1.284-22.452c-.011-.169-.023-.346-.03-.53H118.19a.816.816,0,0,0,.014.088c.018.1.032.2.047.3.011.071.021.139.029.207l.009.077h1.379ZM39.7,171c.14.229.288.453.441.67H59.072c.018-.06.038-.121.053-.181s.027-.1.039-.151c.027-.115.047-.229.065-.341Zm78.688.668a.326.326,0,0,0-.035-.042.216.216,0,0,0-.036-.038.876.876,0,0,1-.122-.151,1.072,1.072,0,0,1-.057-.092c-.036-.066-.075-.139-.115-.22,0-.009-.009-.02-.015-.03s-.03-.063-.044-.1h-4.11V149.356h4.439l-.009-.077c-.009-.066-.02-.136-.029-.207-.015-.1-.029-.193-.047-.3a.617.617,0,0,0-.014-.088h-4.341v-16.65h-.011a.207.207,0,0,0-.06.008.462.462,0,0,0-.071.015l-.053.02-.068.027-.044.018c-.109.048-.235.115-.386.187-.216.1-.436.2-.658.293l-.131.054-.163.063c-.107.044-.216.083-.324.119q-.106.038-.217.072c-.13.041-.263.078-.394.11-.065.018-.13.032-.2.045s-.13.027-.195.038-.13.023-.2.03-.118.017-.178.021v15.532H67.425V129.658l-.091.054c-.539.3-1.245.246-1.713.644-.6.508-.5,1.449-.293,2.2.018.066.038.131.054.2a.4.4,0,0,0,.017.063h0a.261.261,0,0,0,.011.047.8.8,0,0,1,.024.1l.018.086.009.056a.121.121,0,0,0,.008.051.3.3,0,0,1,0,.051.835.835,0,0,1,.011.136v.015a1.358,1.358,0,0,1-.928,1.189,1.317,1.317,0,0,1-.478.054v14.073H61.325l.062.67H64.08V171H59.229c-.018.112-.038.226-.065.341-.012.05-.024.1-.039.151s-.035.121-.053.181H64.08V176.2h.513l.317-.011h.14c.189-.009.361-.02.512-.029l.2-.015.128-.009.186-.017h.115l.1.018h.035c.066.011.158.026.272.041l.143.021.08.011.226.03h.03l.353.044v-4.614H77.537a7.245,7.245,0,0,1-.429-.67H67.422V149.356h43.084V171h-1.63c-.151.083-.312.172-.475.27,0,0,.059.032.164.094h0c.118.068.291.172.507.3H110.5v.987c.121.092.246.19.368.288l.184.151c.219.183.436.377.644.576l.171.167c.071.071.142.151.208.216l.027.029q.081.089.158.177l.109.127c.062.077.122.151.18.228s.113.151.164.229.1.151.151.232a2.829,2.829,0,0,1,.151.287h.32l.029.06c.014.024.023.048.033.071.044.1.08.193.112.288.012.039.026.077.035.116a1.033,1.033,0,0,1,.03.118.82.82,0,0,0,.021.106c0,.035.011.071.015.1a.559.559,0,0,1,.011.086v.08a1.772,1.772,0,0,1,0,.253,2.077,2.077,0,0,0,.216-.047v-4.925h4.545Zm1.284-22.452c-.011-.169-.023-.346-.03-.53H118.19a.816.816,0,0,0,.014.088c.018.1.032.2.047.3.011.071.021.139.029.207l.009.077h1.379ZM39.7,171c.14.229.288.453.441.67H59.072c.018-.06.038-.121.053-.181s.027-.1.039-.151c.027-.115.047-.229.065-.341Zm78.688.668a.325.325,0,0,0-.035-.042.216.216,0,0,0-.036-.038.876.876,0,0,1-.122-.151,1.065,1.065,0,0,1-.057-.092c-.036-.066-.075-.139-.115-.22,0-.009-.009-.02-.015-.03s-.03-.063-.044-.1h-4.113V149.356h4.439l-.009-.077c-.009-.066-.02-.136-.029-.207-.015-.1-.029-.193-.047-.3a.617.617,0,0,0-.014-.088h-4.341v-16.65h-.011a.207.207,0,0,0-.06.008.462.462,0,0,0-.071.015l-.053.02-.068.027-.044.018c-.109.048-.235.115-.386.187-.216.1-.436.2-.658.293l-.131.054-.163.063c-.107.044-.216.083-.324.119q-.106.038-.217.072c-.13.041-.263.078-.394.11-.065.018-.13.032-.2.045s-.13.027-.195.038-.13.023-.2.03-.118.017-.178.021v15.532H67.425V129.658l-.091.054c-.539.3-1.245.246-1.713.644-.6.508-.5,1.449-.293,2.2.018.066.038.131.054.2a.4.4,0,0,0,.017.063h0a.261.261,0,0,0,.011.047.8.8,0,0,1,.024.1l.018.086.009.056a.121.121,0,0,0,.008.051.3.3,0,0,1,0,.051.835.835,0,0,1,.011.136v.015a1.358,1.358,0,0,1-.928,1.189,1.317,1.317,0,0,1-.478.054v14.073H61.325l.062.67H64.08V171H59.229c-.018.112-.038.226-.065.341-.012.05-.024.1-.039.151s-.035.121-.053.181H64.08V176.2h.513l.317-.011h.14c.189-.009.361-.02.512-.029l.2-.015.128-.009.186-.017h.115l.1.018h.035c.066.011.158.026.272.041l.143.021.08.011.226.03h.03l.353.044v-4.614H77.537a7.245,7.245,0,0,1-.429-.67H67.422V149.356h43.084V171h-1.63c-.151.083-.312.172-.475.27,0,0,.059.032.164.094h0c.118.068.291.172.507.3H110.5v.987c.121.092.246.19.368.288l.184.151c.219.183.436.377.644.576l.171.167c.071.071.142.151.208.216l.027.029q.081.089.158.177l.109.127c.062.077.122.151.18.228s.113.151.164.229.1.151.151.232a2.829,2.829,0,0,1,.151.287h.32l.029.06c.014.024.023.048.033.071.044.1.08.193.112.288.012.039.026.077.035.116a1.033,1.033,0,0,1,.03.118.82.82,0,0,0,.021.106c0,.035.011.071.015.1a.559.559,0,0,1,.011.086v.08a1.772,1.772,0,0,1,0,.253,2.077,2.077,0,0,0,.216-.047v-4.925h4.548Zm1.284-22.452c-.011-.169-.023-.346-.03-.53H118.19a.816.816,0,0,0,.014.088c.018.1.032.2.047.3.011.071.021.139.029.207l.009.077h1.379ZM39.7,171c.14.229.288.453.441.67H59.072c.018-.06.038-.121.053-.181s.027-.1.039-.151c.027-.115.047-.229.065-.341Zm78.688.668a.325.325,0,0,0-.035-.042.215.215,0,0,0-.036-.038.876.876,0,0,1-.122-.151,1.071,1.071,0,0,1-.057-.092c-.036-.066-.075-.139-.115-.22,0-.009-.009-.02-.015-.03s-.03-.063-.044-.1h-4.116V149.356h4.439l-.009-.077c-.009-.066-.02-.136-.029-.207-.015-.1-.029-.193-.047-.3a.617.617,0,0,0-.014-.088h-4.341v-16.65h-.011a.207.207,0,0,0-.06.008.462.462,0,0,0-.071.015l-.053.02-.068.027-.044.018c-.109.048-.235.115-.386.187-.216.1-.436.2-.658.293l-.131.054-.163.063c-.107.044-.216.083-.324.119q-.106.038-.217.072c-.13.041-.263.078-.394.11-.065.018-.13.032-.2.045s-.13.027-.195.038-.13.023-.2.03-.118.017-.178.021v15.532H67.425V129.658l-.091.054c-.539.3-1.245.246-1.713.644-.6.508-.5,1.449-.293,2.2.018.066.038.131.054.2a.4.4,0,0,0,.017.063h0a.261.261,0,0,0,.011.047.8.8,0,0,1,.024.1l.018.086.009.056a.121.121,0,0,0,.008.051.3.3,0,0,1,0,.051.835.835,0,0,1,.011.136v.015a1.358,1.358,0,0,1-.928,1.189,1.317,1.317,0,0,1-.478.054v14.073H61.325l.062.67H64.08V171H59.229c-.018.112-.038.226-.065.341-.012.05-.024.1-.039.151s-.035.121-.053.181H64.08V176.2h.513l.317-.011h.14c.189-.009.361-.02.512-.029l.2-.015.128-.009.186-.017h.115l.1.018h.035c.066.011.158.026.272.041l.143.021.08.011.226.03h.03l.353.044v-4.614H77.537a7.245,7.245,0,0,1-.429-.67H67.422V149.356h43.084V171h-1.63c-.151.083-.312.172-.475.27,0,0,.059.032.164.094h0c.118.068.291.172.507.3H110.5v.987c.121.092.246.19.368.288l.184.151c.219.183.436.377.644.576l.171.167c.071.071.142.151.208.216l.027.029q.081.089.158.177l.109.127c.062.077.122.151.18.228s.113.151.164.229.1.151.151.232a2.829,2.829,0,0,1,.151.287h.32l.029.06c.014.024.023.048.033.071.044.1.08.193.112.288.012.039.026.077.035.116a1.033,1.033,0,0,1,.03.118.82.82,0,0,0,.021.106c0,.035.011.071.015.1a.559.559,0,0,1,.011.086v.08a1.772,1.772,0,0,1,0,.253,2.077,2.077,0,0,0,.216-.047v-4.925h4.551Zm1.284-22.452c-.011-.169-.023-.346-.03-.53H118.19a.816.816,0,0,0,.014.088c.018.1.032.2.047.3.011.071.021.139.029.207l.009.077h1.379ZM39.706,171c.14.229.288.453.441.67H59.072c.018-.06.038-.121.053-.181s.027-.1.039-.151c.027-.115.047-.229.065-.341Zm78.688.668a.325.325,0,0,0-.035-.042.216.216,0,0,0-.036-.038.876.876,0,0,1-.122-.151,1.065,1.065,0,0,1-.057-.092c-.036-.066-.075-.139-.115-.22,0-.009-.009-.02-.015-.03s-.03-.063-.044-.1h-4.119V149.356h4.439l-.009-.077c-.009-.066-.02-.136-.029-.207-.015-.1-.029-.193-.047-.3a.617.617,0,0,0-.014-.088h-4.341v-16.65h-.011a.207.207,0,0,0-.06.008.462.462,0,0,0-.071.015l-.053.02-.068.027-.044.018c-.109.048-.235.115-.386.187-.216.1-.436.2-.658.293l-.131.054-.163.063c-.107.044-.216.083-.324.119q-.106.038-.217.072c-.13.041-.263.078-.394.11-.065.018-.13.032-.2.045s-.13.027-.195.038-.13.023-.2.03-.118.017-.178.021v15.532H67.425V129.658l-.091.054c-.539.3-1.245.246-1.713.644-.6.508-.5,1.449-.293,2.2.018.066.038.131.054.2a.4.4,0,0,0,.017.063h0a.261.261,0,0,0,.011.047.8.8,0,0,1,.024.1l.018.086.009.056a.121.121,0,0,0,.008.051.3.3,0,0,1,0,.051.835.835,0,0,1,.011.136v.015a1.358,1.358,0,0,1-.928,1.189,1.317,1.317,0,0,1-.478.054v14.073H61.325l.062.67H64.08V171H59.229c-.018.112-.038.226-.065.341-.012.05-.024.1-.039.151s-.035.121-.053.181H64.08V176.2h.513l.317-.011h.14c.189-.009.361-.02.512-.029l.2-.015.128-.009.186-.017h.115l.1.018h.035c.066.011.158.026.272.041l.143.021.08.011.226.03h.03l.353.044v-4.614H77.537a7.245,7.245,0,0,1-.429-.67H67.422V149.356h43.084V171h-1.63c-.151.083-.312.172-.475.27,0,0,.059.032.164.094h0c.118.068.291.172.507.3H110.5v.987c.121.092.246.19.368.288l.184.151c.219.183.436.377.644.576l.171.167c.071.071.142.151.208.216l.027.029q.081.089.158.177l.109.127c.062.077.122.151.18.228s.113.151.164.229.1.151.151.232a2.829,2.829,0,0,1,.151.287h.32l.029.06c.014.024.023.048.033.071.044.1.08.193.112.288.012.039.026.077.035.116a1.033,1.033,0,0,1,.03.118.82.82,0,0,0,.021.106c0,.035.011.071.015.1a.559.559,0,0,1,.011.086v.08a1.772,1.772,0,0,1,0,.253,2.077,2.077,0,0,0,.216-.047v-4.925h4.554Zm1.284-22.452c-.011-.169-.023-.346-.03-.53H118.19a.816.816,0,0,0,.014.088c.018.1.032.2.047.3.011.071.021.139.029.207l.009.077h1.379ZM39.709,171c.14.229.288.453.441.67H59.072c.018-.06.038-.121.053-.181s.027-.1.039-.151c.027-.115.047-.229.065-.341Zm78.688.668a.327.327,0,0,0-.035-.042.216.216,0,0,0-.036-.038.876.876,0,0,1-.122-.151,1.068,1.068,0,0,1-.057-.092c-.036-.066-.075-.139-.115-.22,0-.009-.009-.02-.015-.03s-.03-.063-.044-.1h-4.122V149.356h4.439l-.009-.077c-.009-.066-.02-.136-.029-.207-.015-.1-.029-.193-.047-.3a.617.617,0,0,0-.014-.088h-4.341v-16.65h-.011a.207.207,0,0,0-.06.008.462.462,0,0,0-.071.015l-.053.02-.068.027-.044.018c-.109.048-.235.115-.386.187-.216.1-.436.2-.658.293-.042.02-.088.038-.131.054s-.109.045-.163.063c-.107.044-.216.083-.324.119q-.106.038-.217.072c-.13.041-.263.078-.394.11-.065.018-.13.032-.2.045s-.13.027-.195.038-.13.023-.2.03-.118.017-.178.021v15.532H67.425V129.658l-.091.054c-.539.3-1.245.246-1.713.644-.6.508-.5,1.449-.293,2.2.018.066.038.131.054.2a.436.436,0,0,1,.017.063.261.261,0,0,0,.011.047.8.8,0,0,1,.024.1l.018.086.009.056a.121.121,0,0,0,.008.051.3.3,0,0,1,0,.051.835.835,0,0,1,.011.136v.015a1.358,1.358,0,0,1-.928,1.189,1.317,1.317,0,0,1-.478.054v14.073H61.325l.062.67H64.08V171H59.229c-.018.112-.038.226-.065.341-.012.05-.024.1-.039.151s-.035.121-.053.181H64.08V176.2h.513l.317-.011h.14c.189-.009.361-.02.512-.029l.2-.015.128-.009.186-.017h.115l.1.018h.035c.066.011.158.026.272.041l.143.021.08.011.226.03h.03l.353.044v-4.614H77.537a7.245,7.245,0,0,1-.429-.67H67.422V149.356h43.084V171h-1.63c-.151.083-.312.172-.475.27,0,0,.059.032.164.094h0c.118.068.291.172.507.3H110.5v.987c.121.092.246.19.368.288l.184.151c.219.183.436.377.644.576.057.054.115.11.171.167s.142.151.208.216l.027.029q.081.089.158.177l.109.127c.062.077.122.151.18.228s.113.151.164.229.1.151.151.232a2.829,2.829,0,0,1,.151.287h.32l.029.06c.014.024.023.048.033.071.044.1.08.193.112.288.012.039.026.077.035.116a1.033,1.033,0,0,1,.03.118.82.82,0,0,0,.021.106.862.862,0,0,1,.015.1.559.559,0,0,1,.011.086v.08a1.772,1.772,0,0,1,0,.253,2.077,2.077,0,0,0,.216-.047v-4.925H118.4Zm1.284-22.452c-.011-.169-.023-.346-.03-.53H118.19a.816.816,0,0,0,.014.088c.018.1.032.2.047.3.011.071.021.139.029.207l.009.077h1.379ZM159.1,125.258V101.681a28.491,28.491,0,0,0-3.036.151l-.309.033v23.393H114.839l-.1-.127.151-.192h0l.668-.833.67-.833h0l12.291-15.3a25.636,25.636,0,0,1-4.056-.587L113.845,120.6V104.68q-1.675-.326-3.345-.726v15.914L95.305,100.947q-2.224-.036-4.453.088l18.769,23.358.486.6.106.131-.106.127H67.425V100.231C66.316,100,65.2,99.778,64.08,99.6v25.65H37.157c-.008.226-.023.453-.044.67H64.08v22.765h-29.9v-15.5a42.812,42.812,0,0,1-3.344,4.086v11.413H21.988c-.1.222-.192.444-.281.67h9.129V171H19.961c0,.225-.012.453-.021.67h10.9v26.287a30.067,30.067,0,0,0,3.344,3.039V171.669h29.9v28.71a19.312,19.312,0,0,1,2.9-.021c.151.011.3.024.453.038V171.669h43.078v25.5c.441.021.881.053,1.319.092q1.018.091,2.026.252V171.669h41.895v20.822c1.153-.507,2.293-1.011,3.345-1.592V172.409a12.237,12.237,0,0,1-1.685-7.016,9.239,9.239,0,0,1,1.685-4.163V149.356H175.1l1.1-.67H159.1V125.928h35.879c.021-.223.038-.445.05-.67Zm-3.351.67v22.758H113.851V126.537l.032-.033.557-.576Zm-88.326,0h43.087v22.758H67.425ZM34.179,171V149.356h29.9V171Zm33.246,0V149.356h43.081V171Zm46.426,0V149.356h41.895V171Zm5.809-21.783c-.011-.169-.023-.346-.03-.53H118.19a.816.816,0,0,0,.014.088c.018.1.032.2.047.3.011.071.021.139.029.207l.009.077h1.379Zm-1.284,22.452a.324.324,0,0,0-.035-.042.216.216,0,0,0-.036-.038.877.877,0,0,1-.122-.151,1.074,1.074,0,0,1-.057-.092c-.036-.066-.075-.139-.115-.22,0-.009-.009-.02-.015-.03s-.03-.063-.044-.1h-4.1V149.356h4.439l-.009-.077c-.009-.066-.02-.136-.029-.207-.015-.1-.029-.193-.047-.3a.617.617,0,0,0-.014-.088h-4.341v-16.65h-.011a.207.207,0,0,0-.06.008.462.462,0,0,0-.071.015l-.053.02-.068.027-.044.018c-.109.048-.235.115-.386.187-.216.1-.436.2-.658.293l-.131.054-.163.063c-.107.044-.216.083-.324.119q-.106.038-.217.072c-.13.041-.263.078-.394.11-.065.018-.13.032-.2.045s-.13.027-.195.038-.13.023-.2.03-.118.017-.178.021v15.532H67.425V129.658l-.091.054c-.539.3-1.245.246-1.713.644-.6.508-.5,1.449-.293,2.2.018.066.038.131.054.2a.4.4,0,0,0,.017.063h0a.261.261,0,0,0,.011.047.8.8,0,0,1,.024.1l.018.086.009.056a.121.121,0,0,0,.008.051.3.3,0,0,1,0,.051.835.835,0,0,1,.011.136v.015a1.358,1.358,0,0,1-.928,1.189,1.317,1.317,0,0,1-.478.054v14.073H61.325l.062.67H64.08V171H59.229c-.018.112-.038.226-.065.341-.012.05-.024.1-.039.151s-.035.121-.053.181H64.08V176.2h.513l.317-.011h.14c.189-.009.361-.02.512-.029l.2-.015.128-.009.186-.017h.115l.1.018h.035c.066.011.158.026.272.041l.143.021.08.011.226.03h.03l.353.044v-4.614H77.537a7.245,7.245,0,0,1-.429-.67H67.422V149.356h43.084V171h-1.63c-.151.083-.312.172-.475.27,0,0,.059.032.164.094h0c.118.068.291.172.507.3H110.5v.987c.121.092.246.19.368.288l.184.151c.219.183.436.377.644.576l.171.167c.071.071.142.151.208.216l.027.029q.081.089.158.177l.109.127c.062.077.122.151.18.228s.113.151.164.229.1.151.151.232a2.829,2.829,0,0,1,.151.287h.32l.029.06c.014.024.023.048.033.071.044.1.08.193.112.288.012.039.026.077.035.116a1.033,1.033,0,0,1,.03.118.82.82,0,0,0,.021.106c0,.035.011.071.015.1a.559.559,0,0,1,.011.086v.08a1.772,1.772,0,0,1,0,.253,2.077,2.077,0,0,0,.216-.047v-4.925h4.527ZM39.688,171c.14.229.288.453.441.67H59.072c.018-.06.038-.121.053-.181s.027-.1.039-.151c.027-.115.047-.229.065-.341Zm79.969-21.783c-.011-.169-.023-.346-.03-.53H118.19a.816.816,0,0,0,.014.088c.018.1.032.2.047.3.011.071.021.139.029.207l.009.077h1.379Zm-1.284,22.452a.326.326,0,0,0-.035-.042.216.216,0,0,0-.036-.038.876.876,0,0,1-.122-.151,1.072,1.072,0,0,1-.057-.092c-.036-.066-.075-.139-.115-.22,0-.009-.009-.02-.015-.03s-.03-.063-.044-.1h-4.1V149.356h4.439l-.009-.077c-.009-.066-.02-.136-.029-.207-.015-.1-.029-.193-.047-.3a.617.617,0,0,0-.014-.088h-4.341v-16.65h-.011a.207.207,0,0,0-.06.008.462.462,0,0,0-.071.015l-.053.02-.068.027-.044.018c-.109.048-.235.115-.386.187-.216.1-.436.2-.658.293l-.131.054-.163.063c-.107.044-.216.083-.324.119q-.106.038-.217.072c-.13.041-.263.078-.394.11-.065.018-.13.032-.2.045s-.13.027-.195.038-.13.023-.2.03-.118.017-.178.021v15.532H67.425V129.658l-.091.054c-.539.3-1.245.246-1.713.644-.6.508-.5,1.449-.293,2.2.018.066.038.131.054.2a.4.4,0,0,0,.017.063h0a.261.261,0,0,0,.011.047.8.8,0,0,1,.024.1l.018.086.009.056a.121.121,0,0,0,.008.051.3.3,0,0,1,0,.051.835.835,0,0,1,.011.136v.015a1.358,1.358,0,0,1-.928,1.189,1.317,1.317,0,0,1-.478.054v14.073H61.325l.062.67H64.08V171H59.229c-.018.112-.038.226-.065.341-.012.05-.024.1-.039.151s-.035.121-.053.181H64.08V176.2h.513l.317-.011h.14c.189-.009.361-.02.512-.029l.2-.015.128-.009.186-.017h.115l.1.018h.035c.066.011.158.026.272.041l.143.021.08.011.226.03h.03l.353.044v-4.614H77.537a7.245,7.245,0,0,1-.429-.67H67.422V149.356h43.084V171h-1.63c-.151.083-.312.172-.475.27,0,0,.059.032.164.094h0c.118.068.291.172.507.3H110.5v.987c.121.092.246.19.368.288l.184.151c.219.183.436.377.644.576l.171.167c.071.071.142.151.208.216l.027.029q.081.089.158.177l.109.127c.062.077.122.151.18.228s.113.151.164.229.1.151.151.232a2.829,2.829,0,0,1,.151.287h.32l.029.06c.014.024.023.048.033.071.044.1.08.193.112.288.012.039.026.077.035.116a1.033,1.033,0,0,1,.03.118.82.82,0,0,0,.021.106c0,.035.011.071.015.1a.559.559,0,0,1,.011.086v.08a1.772,1.772,0,0,1,0,.253,2.077,2.077,0,0,0,.216-.047v-4.925h4.527ZM39.688,171c.14.229.288.453.441.67H59.072c.018-.06.038-.121.053-.181s.027-.1.039-.151c.027-.115.047-.229.065-.341Zm79.969-21.783c-.011-.169-.023-.346-.03-.53H118.19a.816.816,0,0,0,.014.088c.018.1.032.2.047.3.011.071.021.139.029.207l.009.077h1.379Zm-1.284,22.452a.326.326,0,0,0-.035-.042.216.216,0,0,0-.036-.038.876.876,0,0,1-.122-.151,1.072,1.072,0,0,1-.057-.092c-.036-.066-.075-.139-.115-.22,0-.009-.009-.02-.015-.03s-.03-.063-.044-.1h-4.1V149.356h4.439l-.009-.077c-.009-.066-.02-.136-.029-.207-.015-.1-.029-.193-.047-.3a.617.617,0,0,0-.014-.088h-4.341v-16.65h-.011a.207.207,0,0,0-.06.008.462.462,0,0,0-.071.015l-.053.02-.068.027-.044.018c-.109.048-.235.115-.386.187-.216.1-.436.2-.658.293l-.131.054-.163.063c-.107.044-.216.083-.324.119q-.106.038-.217.072c-.13.041-.263.078-.394.11-.065.018-.13.032-.2.045s-.13.027-.195.038-.13.023-.2.03-.118.017-.178.021v15.532H67.425V129.658l-.091.054c-.539.3-1.245.246-1.713.644-.6.508-.5,1.449-.293,2.2.018.066.038.131.054.2a.4.4,0,0,0,.017.063h0a.261.261,0,0,0,.011.047.8.8,0,0,1,.024.1l.018.086.009.056a.121.121,0,0,0,.008.051.3.3,0,0,1,0,.051.835.835,0,0,1,.011.136v.015a1.358,1.358,0,0,1-.928,1.189,1.317,1.317,0,0,1-.478.054v14.073H61.325l.062.67H64.08V171H59.229c-.018.112-.038.226-.065.341-.012.05-.024.1-.039.151s-.035.121-.053.181H64.08V176.2h.513l.317-.011h.14c.189-.009.361-.02.512-.029l.2-.015.128-.009.186-.017h.115l.1.018h.035c.066.011.158.026.272.041l.143.021.08.011.226.03h.03l.353.044v-4.614H77.537a7.245,7.245,0,0,1-.429-.67H67.422V149.356h43.084V171h-1.63c-.151.083-.312.172-.475.27,0,0,.059.032.164.094h0c.118.068.291.172.507.3H110.5v.987c.121.092.246.19.368.288l.184.151c.219.183.436.377.644.576l.171.167c.071.071.142.151.208.216l.027.029q.081.089.158.177l.109.127c.062.077.122.151.18.228s.113.151.164.229.1.151.151.232a2.829,2.829,0,0,1,.151.287h.32l.029.06c.014.024.023.048.033.071.044.1.08.193.112.288.012.039.026.077.035.116a1.033,1.033,0,0,1,.03.118.82.82,0,0,0,.021.106c0,.035.011.071.015.1a.559.559,0,0,1,.011.086v.08a1.772,1.772,0,0,1,0,.253,2.077,2.077,0,0,0,.216-.047v-4.925h4.527ZM39.688,171c.14.229.288.453.441.67H59.072c.018-.06.038-.121.053-.181s.027-.1.039-.151c.027-.115.047-.229.065-.341Zm79.969-21.783c-.011-.169-.023-.346-.03-.53H118.19a.816.816,0,0,0,.014.088c.018.1.032.2.047.3.011.071.021.139.029.207l.009.077h1.379Zm-1.284,22.452a.326.326,0,0,0-.035-.042.216.216,0,0,0-.036-.038.876.876,0,0,1-.122-.151,1.072,1.072,0,0,1-.057-.092c-.036-.066-.075-.139-.115-.22,0-.009-.009-.02-.015-.03s-.03-.063-.044-.1h-4.1V149.356h4.439l-.009-.077c-.009-.066-.02-.136-.029-.207-.015-.1-.029-.193-.047-.3a.617.617,0,0,0-.014-.088h-4.341v-16.65h-.011a.207.207,0,0,0-.06.008.462.462,0,0,0-.071.015l-.053.02-.068.027-.044.018c-.109.048-.235.115-.386.187-.216.1-.436.2-.658.293l-.131.054-.163.063c-.107.044-.216.083-.324.119q-.106.038-.217.072c-.13.041-.263.078-.394.11-.065.018-.13.032-.2.045s-.13.027-.195.038-.13.023-.2.03-.118.017-.178.021v15.532H67.425V129.658l-.091.054c-.539.3-1.245.246-1.713.644-.6.508-.5,1.449-.293,2.2.018.066.038.131.054.2a.4.4,0,0,0,.017.063h0a.261.261,0,0,0,.011.047.8.8,0,0,1,.024.1l.018.086.009.056a.121.121,0,0,0,.008.051.3.3,0,0,1,0,.051.835.835,0,0,1,.011.136v.015a1.358,1.358,0,0,1-.928,1.189,1.317,1.317,0,0,1-.478.054v14.073H61.325l.062.67H64.08V171H59.229c-.018.112-.038.226-.065.341-.012.05-.024.1-.039.151s-.035.121-.053.181H64.08V176.2h.513l.317-.011h.14c.189-.009.361-.02.512-.029l.2-.015.128-.009.186-.017h.115l.1.018h.035c.066.011.158.026.272.041l.143.021.08.011.226.03h.03l.353.044v-4.614H77.537a7.245,7.245,0,0,1-.429-.67H67.422V149.356h43.084V171h-1.63c-.151.083-.312.172-.475.27,0,0,.059.032.164.094h0c.118.068.291.172.507.3H110.5v.987c.121.092.246.19.368.288l.184.151c.219.183.436.377.644.576l.171.167c.071.071.142.151.208.216l.027.029q.081.089.158.177l.109.127c.062.077.122.151.18.228s.113.151.164.229.1.151.151.232a2.829,2.829,0,0,1,.151.287h.32l.029.06c.014.024.023.048.033.071.044.1.08.193.112.288.012.039.026.077.035.116a1.033,1.033,0,0,1,.03.118.82.82,0,0,0,.021.106c0,.035.011.071.015.1a.559.559,0,0,1,.011.086v.08a1.772,1.772,0,0,1,0,.253,2.077,2.077,0,0,0,.216-.047v-4.925h4.527ZM39.688,171c.14.229.288.453.441.67H59.072c.018-.06.038-.121.053-.181s.027-.1.039-.151c.027-.115.047-.229.065-.341Zm79.969-21.783c-.011-.169-.023-.346-.03-.53H118.19a.816.816,0,0,0,.014.088c.018.1.032.2.047.3.011.071.021.139.029.207l.009.077h1.379Zm-1.284,22.452a.326.326,0,0,0-.035-.042.216.216,0,0,0-.036-.038.876.876,0,0,1-.122-.151,1.072,1.072,0,0,1-.057-.092c-.036-.066-.075-.139-.115-.22,0-.009-.009-.02-.015-.03s-.03-.063-.044-.1h-4.1V149.356h4.439l-.009-.077c-.009-.066-.02-.136-.029-.207-.015-.1-.029-.193-.047-.3a.617.617,0,0,0-.014-.088h-4.341v-16.65h-.011a.207.207,0,0,0-.06.008.462.462,0,0,0-.071.015l-.053.02-.068.027-.044.018c-.109.048-.235.115-.386.187-.216.1-.436.2-.658.293l-.131.054-.163.063c-.107.044-.216.083-.324.119q-.106.038-.217.072c-.13.041-.263.078-.394.11-.065.018-.13.032-.2.045s-.13.027-.195.038-.13.023-.2.03-.118.017-.178.021v15.532H67.425V129.658l-.091.054c-.539.3-1.245.246-1.713.644-.6.508-.5,1.449-.293,2.2.018.066.038.131.054.2a.4.4,0,0,0,.017.063h0a.261.261,0,0,0,.011.047.8.8,0,0,1,.024.1l.018.086.009.056a.121.121,0,0,0,.008.051.3.3,0,0,1,0,.051.835.835,0,0,1,.011.136v.015a1.358,1.358,0,0,1-.928,1.189,1.317,1.317,0,0,1-.478.054v14.073H61.325l.062.67H64.08V171H59.229c-.018.112-.038.226-.065.341-.012.05-.024.1-.039.151s-.035.121-.053.181H64.08V176.2h.513l.317-.011h.14c.189-.009.361-.02.512-.029l.2-.015.128-.009.186-.017h.115l.1.018h.035c.066.011.158.026.272.041l.143.021.08.011.226.03h.03l.353.044v-4.614H77.537a7.245,7.245,0,0,1-.429-.67H67.422V149.356h43.084V171h-1.63c-.151.083-.312.172-.475.27,0,0,.059.032.164.094h0c.118.068.291.172.507.3H110.5v.987c.121.092.246.19.368.288l.184.151c.219.183.436.377.644.576l.171.167c.071.071.142.151.208.216l.027.029q.081.089.158.177l.109.127c.062.077.122.151.18.228s.113.151.164.229.1.151.151.232a2.829,2.829,0,0,1,.151.287h.32l.029.06c.014.024.023.048.033.071.044.1.08.193.112.288.012.039.026.077.035.116a1.033,1.033,0,0,1,.03.118.82.82,0,0,0,.021.106c0,.035.011.071.015.1a.559.559,0,0,1,.011.086v.08a1.772,1.772,0,0,1,0,.253,2.077,2.077,0,0,0,.216-.047v-4.925h4.527ZM39.688,171c.14.229.288.453.441.67H59.072c.018-.06.038-.121.053-.181s.027-.1.039-.151c.027-.115.047-.229.065-.341Zm79.969-21.783c-.011-.169-.023-.346-.03-.53H118.19a.816.816,0,0,0,.014.088c.018.1.032.2.047.3.011.071.021.139.029.207l.009.077h1.379Zm-1.284,22.452a.326.326,0,0,0-.035-.042.216.216,0,0,0-.036-.038.876.876,0,0,1-.122-.151,1.072,1.072,0,0,1-.057-.092c-.036-.066-.075-.139-.115-.22,0-.009-.009-.02-.015-.03s-.03-.063-.044-.1h-4.1V149.356h4.439l-.009-.077c-.009-.066-.02-.136-.029-.207-.015-.1-.029-.193-.047-.3a.617.617,0,0,0-.014-.088h-4.341v-16.65h-.011a.207.207,0,0,0-.06.008.462.462,0,0,0-.071.015l-.053.02-.068.027-.044.018c-.109.048-.235.115-.386.187-.216.1-.436.2-.658.293l-.131.054-.163.063c-.107.044-.216.083-.324.119q-.106.038-.217.072c-.13.041-.263.078-.394.11-.065.018-.13.032-.2.045s-.13.027-.195.038-.13.023-.2.03-.118.017-.178.021v15.532H67.425V129.658l-.091.054c-.539.3-1.245.246-1.713.644-.6.508-.5,1.449-.293,2.2.018.066.038.131.054.2a.4.4,0,0,0,.017.063h0a.261.261,0,0,0,.011.047.8.8,0,0,1,.024.1l.018.086.009.056a.121.121,0,0,0,.008.051.3.3,0,0,1,0,.051.835.835,0,0,1,.011.136v.015a1.358,1.358,0,0,1-.928,1.189,1.317,1.317,0,0,1-.478.054v14.073H61.325l.062.67H64.08V171H59.229c-.018.112-.038.226-.065.341-.012.05-.024.1-.039.151s-.035.121-.053.181H64.08V176.2h.513l.317-.011h.14c.189-.009.361-.02.512-.029l.2-.015.128-.009.186-.017h.115l.1.018h.035c.066.011.158.026.272.041l.143.021.08.011.226.03h.03l.353.044v-4.614H77.537a7.245,7.245,0,0,1-.429-.67H67.422V149.356h43.084V171h-1.63c-.151.083-.312.172-.475.27,0,0,.059.032.164.094h0c.118.068.291.172.507.3H110.5v.987c.121.092.246.19.368.288l.184.151c.219.183.436.377.644.576l.171.167c.071.071.142.151.208.216l.027.029q.081.089.158.177l.109.127c.062.077.122.151.18.228s.113.151.164.229.1.151.151.232a2.829,2.829,0,0,1,.151.287h.32l.029.06c.014.024.023.048.033.071.044.1.08.193.112.288.012.039.026.077.035.116a1.033,1.033,0,0,1,.03.118.82.82,0,0,0,.021.106c0,.035.011.071.015.1a.559.559,0,0,1,.011.086v.08a1.772,1.772,0,0,1,0,.253,2.077,2.077,0,0,0,.216-.047v-4.925h4.527ZM39.688,171c.14.229.288.453.441.67H59.072c.018-.06.038-.121.053-.181s.027-.1.039-.151c.027-.115.047-.229.065-.341Zm79.969-21.783c-.011-.169-.023-.346-.03-.53H118.19a.816.816,0,0,0,.014.088c.018.1.032.2.047.3.011.071.021.139.029.207l.009.077h1.379Zm-1.284,22.452a.326.326,0,0,0-.035-.042.216.216,0,0,0-.036-.038.876.876,0,0,1-.122-.151,1.072,1.072,0,0,1-.057-.092c-.036-.066-.075-.139-.115-.22,0-.009-.009-.02-.015-.03s-.03-.063-.044-.1h-4.1V149.356h4.439l-.009-.077c-.009-.066-.02-.136-.029-.207-.015-.1-.029-.193-.047-.3a.617.617,0,0,0-.014-.088h-4.341v-16.65h-.011a.207.207,0,0,0-.06.008.462.462,0,0,0-.071.015l-.053.02-.068.027-.044.018c-.109.048-.235.115-.386.187-.216.1-.436.2-.658.293l-.131.054-.163.063c-.107.044-.216.083-.324.119q-.106.038-.217.072c-.13.041-.263.078-.394.11-.065.018-.13.032-.2.045s-.13.027-.195.038-.13.023-.2.03-.118.017-.178.021v15.532H67.425V129.658l-.091.054c-.539.3-1.245.246-1.713.644-.6.508-.5,1.449-.293,2.2.018.066.038.131.054.2a.4.4,0,0,0,.017.063h0a.261.261,0,0,0,.011.047.8.8,0,0,1,.024.1l.018.086.009.056a.121.121,0,0,0,.008.051.3.3,0,0,1,0,.051.835.835,0,0,1,.011.136v.015a1.358,1.358,0,0,1-.928,1.189,1.317,1.317,0,0,1-.478.054v14.073H61.325l.062.67H64.08V171H59.229c-.018.112-.038.226-.065.341-.012.05-.024.1-.039.151s-.035.121-.053.181H64.08V176.2h.513l.317-.011h.14c.189-.009.361-.02.512-.029l.2-.015.128-.009.186-.017h.115l.1.018h.035c.066.011.158.026.272.041l.143.021.08.011.226.03h.03l.353.044v-4.614H77.537a7.245,7.245,0,0,1-.429-.67H67.422V149.356h43.084V171h-1.63c-.151.083-.312.172-.475.27,0,0,.059.032.164.094h0c.118.068.291.172.507.3H110.5v.987c.121.092.246.19.368.288l.184.151c.219.183.436.377.644.576l.171.167c.071.071.142.151.208.216l.027.029q.081.089.158.177l.109.127c.062.077.122.151.18.228s.113.151.164.229.1.151.151.232a2.829,2.829,0,0,1,.151.287h.32l.029.06c.014.024.023.048.033.071.044.1.08.193.112.288.012.039.026.077.035.116a1.033,1.033,0,0,1,.03.118.82.82,0,0,0,.021.106c0,.035.011.071.015.1a.559.559,0,0,1,.011.086v.08a1.772,1.772,0,0,1,0,.253,2.077,2.077,0,0,0,.216-.047v-4.925h4.527ZM39.688,171c.14.229.288.453.441.67H59.072c.018-.06.038-.121.053-.181s.027-.1.039-.151c.027-.115.047-.229.065-.341Zm79.969-21.783c-.011-.169-.023-.346-.03-.53H118.19a.816.816,0,0,0,.014.088c.018.1.032.2.047.3.011.071.021.139.029.207l.009.077h1.379Zm-1.284,22.452a.326.326,0,0,0-.035-.042.216.216,0,0,0-.036-.038.876.876,0,0,1-.122-.151,1.072,1.072,0,0,1-.057-.092c-.036-.066-.075-.139-.115-.22,0-.009-.009-.02-.015-.03s-.03-.063-.044-.1h-4.1V149.356h4.439l-.009-.077c-.009-.066-.02-.136-.029-.207-.015-.1-.029-.193-.047-.3a.617.617,0,0,0-.014-.088h-4.341v-16.65h-.011a.207.207,0,0,0-.06.008.462.462,0,0,0-.071.015l-.053.02-.068.027-.044.018c-.109.048-.235.115-.386.187-.216.1-.436.2-.658.293l-.131.054-.163.063c-.107.044-.216.083-.324.119q-.106.038-.217.072c-.13.041-.263.078-.394.11-.065.018-.13.032-.2.045s-.13.027-.195.038-.13.023-.2.03-.118.017-.178.021v15.532H67.425V129.658l-.091.054c-.539.3-1.245.246-1.713.644-.6.508-.5,1.449-.293,2.2.018.066.038.131.054.2a.4.4,0,0,0,.017.063h0a.065.065,0,0,0,.012.045.8.8,0,0,1,.024.1l.018.086.009.056a.122.122,0,0,0,.008.051.3.3,0,0,1,0,.051.836.836,0,0,1,.011.136v.015a1.358,1.358,0,0,1-.928,1.189,1.317,1.317,0,0,1-.478.054v14.073H61.325l.062.67H64.08V171H59.229c-.018.112-.038.226-.065.341-.012.05-.024.1-.039.151s-.035.121-.053.181H64.08V176.2h.513l.317-.011h.14c.189-.009.361-.02.512-.029l.2-.015.128-.009.186-.017h.115l.1.018h.035c.066.011.158.026.272.041l.143.021.08.011.226.03h.03l.353.044v-4.614H77.537a7.245,7.245,0,0,1-.429-.67H67.422V149.356h43.084V171h-7.341c.142.057.264.113.362.164,1.186.6,3.366.439,4.785.237l.253-.038h0c.118.068.291.172.507.3H110.5v.987c.121.092.246.19.368.288l.184.151c.219.183.436.377.644.576l.171.167c.071.071.142.151.208.216l.027.029q.081.089.158.177l.109.127c.062.077.122.151.18.228s.113.151.164.229.1.151.151.232a2.83,2.83,0,0,1,.151.287h.32l.029.06c.014.024.023.048.033.071.044.1.08.193.112.288.012.039.026.077.035.116a1.04,1.04,0,0,1,.03.118.816.816,0,0,0,.021.106c0,.035.011.071.015.1a.558.558,0,0,1,.011.086v.08a1.773,1.773,0,0,1,0,.253,2.088,2.088,0,0,0,.216-.047v-4.925h4.527ZM39.688,171c.14.229.288.453.441.67H59.072c.018-.06.038-.121.053-.181s.027-.1.039-.151c.027-.115.047-.229.065-.341Zm69.188,0h-5.711c.142.057.264.113.362.164,1.186.6,3.366.439,4.785.237l.253-.038c-.106-.062-.164-.094-.164-.094C108.564,171.171,108.722,171.082,108.876,171Zm4.979,0V149.356h5.964c-.051-.048-.1-.1-.151-.14l-.039-.035-.088-.077c-.038-.033-.074-.065-.113-.1l-.1-.075-.1-.081q-.078-.065-.167-.127a.4.4,0,0,0-.041-.03h-5.171V147.51c-.048.024-.094.05-.14.075l-.151.094a.008.008,0,0,1-.009.008.181.181,0,0,1-.032.02l-.092.069c-.03.021-.062.044-.092.068-.092.068-.183.151-.272.222l-.089.08-.175.158c-.234.219-.463.445-.7.655-.06.053-.119.106-.181.151a4.609,4.609,0,0,1-.4.3,1.932,1.932,0,0,1-.172.11l-.1.05-.089.045h0a3.363,3.363,0,0,1-.653.235V171h-8.957a.335.335,0,0,0,.018.069c.05.2.1.4.151.6h8.791v23.2a.532.532,0,0,1,.069,0h.068l.151.011.285.024.453.053a1.379,1.379,0,0,1,.208.029l.246.035h.033l.4.068a.456.456,0,0,1,.086.017l.192.035.279.056h0l.67-.024h0l.092.021.113.026V171.679h13.46c.021-.223.042-.453.063-.67Zm13.524,0c-.021.225-.042.453-.063.67H133.1l.4-.67Zm7.162,0h-.6v.674h.684Zm-20.686,0V149.356h5.964c-.051-.048-.1-.1-.151-.14l-.039-.035-.088-.077c-.038-.033-.074-.065-.113-.1l-.1-.075-.1-.081q-.078-.065-.167-.127a.4.4,0,0,0-.041-.03h-5.171V147.51c-.048.024-.094.05-.14.075l-.151.094a.008.008,0,0,1-.009.008.181.181,0,0,1-.032.02l-.092.069c-.03.021-.062.044-.092.068-.092.068-.183.151-.272.222l-.089.08-.175.158c-.234.219-.463.445-.7.655-.06.053-.119.106-.181.151a4.609,4.609,0,0,1-.4.3,1.932,1.932,0,0,1-.172.11l-.1.05-.089.045h0a3.363,3.363,0,0,1-.653.235V171h-8.957a.335.335,0,0,0,.018.069c.05.2.1.4.151.6h8.792v23.2h.137l.151.011.285.024.453.053a1.379,1.379,0,0,1,.208.029l.244.035h.033l.4.068a.456.456,0,0,1,.086.017l.192.035.279.056h0l.67-.024h0l.092.021.113.026V171.679h13.827v-.05q0-.025,0-.05c.018-.186.035-.368.053-.552a.067.067,0,0,1,0-.018Zm13.9,0a.068.068,0,0,0,0,.018c-.018.184-.035.367-.053.552a.5.5,0,0,1,0,.05v.05h5.2v-.036l.371-.631Zm6.79,0h-.6v.674h.682Z" transform="translate(-19.867 -98.736)" fill="#f8ff7e" opacity="0.1"/>
      <path id="パス_2532" data-name="パス 2532" d="M163.017,595.679l-4.329-.071-3.351-.057-6.85-.115h-.3l-5.765-.1h0l-11.526-.2-6.25-.1-.78-.014h-.3l-.585-.009h-.308l-3.243-.065-1.859-.032-.5-.009h-.213l-3.4-.057-3.345-.054-26.947-.453h-.368l-10.222-.17-.64-.012h0l-4.9-.08-3.345-.056-3.018-.051h-.258l-11.911-.2h0l-3.953-.081-10.773-.181L32.68,593.5h-.012l-2.238-.038-10.879-.181c-.069-.99-.094-1.986-.092-2.983q0-.994.029-1.984l10.942.238,2.112.047h.038l1.193.026,5.026.109,2.7.059,15.994.347,1.12.024,5.065.11.631.014,1.123.026,1.479.032h.113l4.8.1,6.861.151.425.009,16.406.356h.269l14.322.311,2.2.048.321.008h.32l.5.011.631.015h0l2.829.06h.312l.892.02h.367l.35.008,1.962.044,7.006.151h.315l.472.01,19.3.418h.291l7.164.151,2.989.065.356.05,2.44.343c.264.469.521.937.754,1.4A19.662,19.662,0,0,1,163.017,595.679Z" transform="translate(-19.46 -513.707)" fill="#fff"/>
      <path id="パス_2533" data-name="パス 2533" d="M163.017,606.845l-4.329-.071-3.351-.057-6.85-.115h-.3l-5.765-.1h0l-11.526-.2-6.25-.1-.78-.014h-.3l-.585-.009h-.308l-3.243-.065-1.859-.032-.5-.009h-.213l-3.4-.057-3.345-.054-26.947-.453h-.368l-10.222-.17-.64-.012h0l-4.9-.08-3.345-.056-3.018-.051h-.258l-11.911-.2h0l-3.953-.081-10.773-.181-1.091-.018h-.012l-2.238-.038-10.879-.181c-.069-.99-.094-1.986-.092-2.983l10.971.219,2.263.044h.035l1.046.021,6.351.125,3.587.072,6.058.121,6.008.119h0l3.451.068H59.3l3.786.074h.139l.453.011,3.345.066h.068l1.734.033.59.014,1.079.02,9.842.2h.4l29.37.582,3.345.068,2.855.056h.376l2.337.045.435.011h.347l7.055.14h.314l.493.009,8.389.168h0l9.183.181h0l2.589.051h.246l7.27.151,3.345.066,3.2.063A19.656,19.656,0,0,1,163.017,606.845Z" transform="translate(-19.46 -524.872)" fill="#d0d0db"/>
      <path id="パス_2534" data-name="パス 2534" d="M563.665,327.833q-.139.088-.272.181-.285.192-.558.4h0c-.3.229-.591.474-.872.727q-.249.228-.489.468c-.127.124-.253.252-.377.383-.238.249-.471.505-.7.765l-.18.208q-.25.3-.5.594c-.214.26-.424.522-.634.786-.3.377-.6.754-.9,1.132-.087.109-.173.216-.258.324-.492.6-.985,1.207-1.509,1.765l-13.192.026H539.6l-.05-.029h0l-.344-.2-.161-.094c-.409-.238-.818-.477-1.225-.709l-.1-.057c-.575-.327-1.145-.646-1.713-.946q-.513-.272-1.037-.519a29.157,29.157,0,0,0-3.558-1.427,30.654,30.654,0,0,0-4.868-1.172q-1.008-.161-2.026-.252c-.438-.039-.878-.071-1.319-.092a31.134,31.134,0,0,0-10.576,1.286c-.466.142-.931.3-1.39.462-.086.029-.17.06-.253.091.015-.077.032-.151.048-.231a3.973,3.973,0,0,1,1.367-1.842c.3-3.7,3.392-6.639,3.392-6.639l7.321-3.169.091-.06a17.746,17.746,0,0,1,3.345-1.8,2.018,2.018,0,0,1,.311-.091c1.338-.267,2.514-1.335,3.47-1.921.419-.257.495-1.177.444-2.137a1.34,1.34,0,0,0-.012-.222l-.217.012-.042-.112-.054-.151c-.009-.026-.017-.05-.026-.074h-.2c-.086-.225-.164-.439-.234-.644a12.485,12.485,0,0,1-.492-1.8.522.522,0,0,1-.012-.069,5.386,5.386,0,0,1-.088-.821,3.1,3.1,0,0,1,.036-.619,2.015,2.015,0,0,1,.062-.261l-.139.014h0l-.362.032-.11.009-.048.032-2.292.2-.219.02-.112.009a.063.063,0,0,0,0-.017v-.012l-.211.02-.113.009a1.9,1.9,0,0,0,.041-.24l-.237.023-.088.008a17.478,17.478,0,0,1-2.414-.03,68.929,68.929,0,0,1-6.93-.934s-4.288.96-7.393-.516a5.447,5.447,0,0,1-1.563-1.088h0a5.006,5.006,0,0,1-1.04-1.539,3.842,3.842,0,0,1-.232-.7,2.074,2.074,0,0,1-.056-.67c.267-3.018,8.407-.982,10.075-.128a2.615,2.615,0,0,0,.294.128,10.779,10.779,0,0,0,4.534.113l.258-.038c-.056-.035-.1-.059-.13-.075l-.038-.021a7.867,7.867,0,0,1,2.224-.948,5.385,5.385,0,0,1,1.448-.151,8.363,8.363,0,0,1,1.488.128h.035a1.753,1.753,0,0,0,.374-.1.866.866,0,0,0,.579-1.056,2.67,2.67,0,0,1,.161-1.494s.742.2.656-.754h0a3.125,3.125,0,0,0-.122-.579c-.032-.106-.059-.211-.081-.318v-.018a7.077,7.077,0,0,1,.244-3.185l.374-.48.02-.059.013-.036-.2-1.043h0l-.048-.247-.106-3.573s-.054-5.6,1.765-6.4l-.02-.254-.035-.439a4.4,4.4,0,0,1-1.246-.6,1.1,1.1,0,0,1-.261-.288h0a.486.486,0,0,1-.071-.38.755.755,0,0,1,.241-.377,3.98,3.98,0,0,0,1.177-2.134s.195-.323.513-.828c.021-.036.045-.074.069-.112-.335-1.207-.724-2.438-1.083-3.505-.033-.1-.065-.2-.1-.294-.021-.06-.041-.121-.06-.18-.036-.1-.071-.2-.1-.3l-.122.024a7.782,7.782,0,0,1-1.387.125,7.623,7.623,0,0,1-7.454-9.3c.027-.119.056-.238.089-.355.017-.065.036-.127.057-.19a1.3,1.3,0,0,0-.8.1c-.374.164-.7.439-1.067.628a2.54,2.54,0,0,1-1.159.267,2.575,2.575,0,0,1-.735-.106h0a2.577,2.577,0,0,1-.848-.425.736.736,0,0,0,.163-.012h.045l.127-.023h.036c.053-.014.106-.027.151-.044l.027-.008c.045-.015.089-.03.133-.048l.038-.015.151-.065h0a1.6,1.6,0,0,0,.151-.082l.029-.018.125-.08.024-.017c.05-.033.1-.068.151-.106a3.536,3.536,0,0,0,.493-.469,9.153,9.153,0,0,0,1.187-1.937l.905-1.8c.181-.358.37-.721.582-1.056a4.507,4.507,0,0,1,.505-.67,2.681,2.681,0,0,1,.557-.465,2.9,2.9,0,0,1,1.34-.4c.741-.053,1.524.066,2.272.042a9.237,9.237,0,0,0,2.953-.709,8.838,8.838,0,0,1,1.385-.453h0a3.046,3.046,0,0,1,.561-.065,3.621,3.621,0,0,1,1.575.389,6.155,6.155,0,0,1,1.9,1.4c.078.083.151.169.226.258.184.219.361.453.537.67.151.184.293.367.453.543.736.836,1.631,1.485,2.349,2.342a4.021,4.021,0,0,1,1.056,3.149v.026h0c-.014.08-.033.151-.054.237a.267.267,0,0,1-.021.075c-.015.054-.03.109-.048.161l-.027.085c-.02.056-.038.113-.059.17a4.086,4.086,0,0,0-.314,1.273,1.683,1.683,0,0,0,0,.195h0a7.764,7.764,0,0,0,.468,1.66,2.975,2.975,0,0,1,.142.768v.284a1.473,1.473,0,0,1-.035.219h0a.073.073,0,0,1,0,.024.138.138,0,0,1,0,.032v.017a1.046,1.046,0,0,1-.033.106.043.043,0,0,1-.012.035l-.036.083-.021.038a.666.666,0,0,1-.047.077.23.23,0,0,1-.02.033,1.008,1.008,0,0,1-.08.1c-.018.02-.036.036-.056.054l.223.136c.02.014.039.024.06.036a35.963,35.963,0,0,0,3.709.641,3.645,3.645,0,0,1,1.157.422,10.384,10.384,0,0,1,4.7,4.9,14.29,14.29,0,0,0,1.98,3.47,4.7,4.7,0,0,1,1.029,1.337c.133.231.254.462.356.67.232.465.38.821.38.821s3.47,2.346,3.046,4.64a11.424,11.424,0,0,0,1.5,3.307c.744.742,2.459,6.728,2.459,6.728a4.451,4.451,0,0,1,.588,1.971,9.582,9.582,0,0,0,.643,2.669s.151.754.347,1.509q.091.344.195.67a2.363,2.363,0,0,0,.421.905c.426.373.213,1.172.213,1.172a13.6,13.6,0,0,0,.8,1.761,1.3,1.3,0,0,1,.151.62,6.912,6.912,0,0,1-.042,1.034s-.039.3-.063.712a3.929,3.929,0,0,0,.223,1.961,1.475,1.475,0,0,1,.2.634c.125.905.023,2.293.392,2.622.481.426.269,4.32.269,4.32S563.006,325.174,563.665,327.833Z" transform="translate(-432.56 -231.681)" fill="url(#linear-gradient)"/>
      <path id="パス_2535" data-name="パス 2535" d="M581.658,658.283l-.508.416-2.453,2.011-.5.407-2.156,1.77s-6.06,3.529-12.345,6.512c-.674.32-1.358.634-2.026.937-.437-.039-.878-.071-1.319-.092a31.134,31.134,0,0,0-10.575,1.286,6.7,6.7,0,0,1-.03-1.411c.3-3.671,3.365-6.594,3.365-6.594l7.242-3.143h.008l3.336-1.447,5.037-2.186,1.595.189,2.9.346Z" transform="translate(-469.715 -571.82)" fill="#95b6f0"/>
      <path id="パス_2536" data-name="パス 2536" d="M581.658,658.283l-.508.416-2.453,2.011-.5.407-2.156,1.77s-6.06,3.529-12.345,6.512c-.674.32-1.358.634-2.026.937-.437-.039-.878-.071-1.319-.092a31.134,31.134,0,0,0-10.575,1.286,6.7,6.7,0,0,1-.03-1.411c.3-3.671,3.365-6.594,3.365-6.594l7.242-3.143h.008l3.336-1.447,5.037-2.186,1.595.189,2.9.346Z" transform="translate(-469.715 -571.82)" opacity="0.05"/>
      <path id="パス_2537" data-name="パス 2537" d="M681.231,754.1l-.02.151-.1.724-.014.115-.008.039-.036.276-.053.4-.1-.057c-.575-.327-1.145-.646-1.713-.946q-.513-.272-1.037-.519a29.176,29.176,0,0,0-3.558-1.427l.327-.6,2.026.595,2.879.848.528.151.421.124Z" transform="translate(-575.749 -652.911)" fill="#5f546f"/>
      <path id="パス_2538" data-name="パス 2538" d="M681.231,754.1l-.02.151-.1.724-.014.115-.008.039-.036.276-.053.4-.1-.057c-.575-.327-1.145-.646-1.713-.946q-.513-.272-1.037-.519a29.176,29.176,0,0,0-3.558-1.427l.327-.6,2.026.595,2.879.848.528.151.421.124Z" transform="translate(-575.749 -652.911)" opacity="0.05"/>
      <path id="パス_2539" data-name="パス 2539" d="M668.92,655.59l3.918,1.589.584,1.747-4.026-1.589Z" transform="translate(-567.993 -556.681)" fill="#ccccd8"/>
      <path id="パス_2540" data-name="パス 2540" d="M668.92,655.59l3.918,1.589.584,1.747-4.026-1.589Z" transform="translate(-567.993 -556.681)" opacity="0.05"/>
      <path id="パス_2541" data-name="パス 2541" d="M737.791,761.07c-.3.377-.6.754-.9,1.132-.088.109-.174.216-.258.324-.492.6-.985,1.207-1.509,1.765l-.062.066-16.646.032h0l-.112-.066-.05-.029h0l-.344-.2-.161-.094c-.409-.238-.818-.477-1.225-.709l-.1-.057.015-.365.012-.312h0l.023-.567h0l.009-.237.246-.009Z" transform="translate(-611.268 -660.4)" fill="#5f546f"/>
      <path id="パス_2542" data-name="パス 2542" d="M730.039,768.483h-.158l-1.492-.021h-.053l-1.981-.026-.344-.2-.029-1.224V766.7l-.012-.543,3.751-.2.16-.008.042.681.02.318.095,1.519Z" transform="translate(-619.368 -664.543)" opacity="0.1"/>
      <path id="パス_2543" data-name="パス 2543" d="M728.989,768.422h0l-1.631-.02-1.892-.026h0l-.344-.2-.161-.094-.029-1.13v-.317l-.012-.546,3.923-.211v.018l.044.676.02.318.1,1.516Z" transform="translate(-618.477 -664.484)" fill="#5f546f"/>
      <path id="パス_2544" data-name="パス 2544" d="M728.989,768.422h0l-1.631-.02-1.892-.026h0l-.344-.2-.161-.094-.029-1.13v-.317l-.012-.546,3.923-.211v.018l.044.676.02.318.1,1.516Z" transform="translate(-618.477 -664.484)" fill="#fff" opacity="0.1"/>
      <path id="パス_2545" data-name="パス 2545" d="M716.926,761.735l21.06-.665c-.3.377-.6.754-.9,1.132-.088.109-.174.216-.258.324l-14.787.272h-.151l-3.8.069h-.151l-1.077.02a.484.484,0,0,1-.068,0,.562.562,0,0,1-.136-.021l.012-.312h0l.023-.567h0l.009-.237Z" transform="translate(-611.463 -660.4)" opacity="0.1"/>
      <path id="パス_2546" data-name="パス 2546" d="M735.661,750.54l-.18.208q-.25.3-.5.595c-.214.259-.424.522-.634.786-.3.377-.6.754-.9,1.132l-15.069.278h-.151l-3.8.074h-.151l-1.056.015h-.051a.775.775,0,0,1-.134-.012h-.033a.806.806,0,0,1-.622-.895l.048-.33.045-.321.026-.18.053-.361.014-.1Z" transform="translate(-607.83 -651.459)" fill="#ccccd8"/>
      <path id="パス_2547" data-name="パス 2547" d="M732.534,734.833l.717.25q-.249.228-.489.468c-.127.124-.253.252-.377.383-.238.249-.471.505-.7.765l-.18.208q-.25.3-.5.595l-22.029.6h-.272l-.112-.427-.9-3.439,21.3.5h0l1.224.029Z" transform="translate(-603.855 -637.618)" fill="#5f546f"/>
      <path id="パス_2548" data-name="パス 2548" d="M592.473,677.01c-.3.229-.591.474-.872.727q-.249.228-.489.468c-.127.124-.253.252-.377.383-.238.249-.471.505-.7.765l-.18.208a98.892,98.892,0,0,1-15.974.625,21.763,21.763,0,0,0-6.557.575h0l-.253.065-.208.056c-.195.053-.386.109-.573.166-.453.136-.874.282-1.273.435l-.4.158a29.181,29.181,0,0,0-3.558-1.427,30.656,30.656,0,0,0-4.868-1.172q-1.008-.161-2.026-.252c-.438-.039-.878-.071-1.319-.092a31.133,31.133,0,0,0-10.576,1.285c-.466.142-.931.3-1.39.462l.009-.045a3.889,3.889,0,0,1,1.358-1.827A34.343,34.343,0,0,1,549,674.521l2.361-1h0l1.489-.634,3.345-1.418,7.07-3,.076-.032,1.637-.694,1.5-.637a11.923,11.923,0,0,1,3.182-.4h.413a2.675,2.675,0,0,1,.311.012h.193c.255.014.51.035.768.06.091.007.181.018.273.029h.048l.2.024c.084.009.169.021.253.033l.252.036c.169.026.338.053.509.083q.38.068.768.151l.379.081c.386.084.774.18,1.163.282l.362.1.243.069.3.089c.711.211,1.423.453,2.128.7l.379.142.362.136a.043.043,0,0,0,.017.008c.216.083.431.169.646.256,1.218.493,2.414,1.037,3.543,1.6l.389.195.2.1c.134.068.266.137.4.207l.394.208.193.1.193.106.19.1q.668.367,1.292.735c.119.069.237.139.353.21l.174.1c.229.139.453.276.673.415.109.066.216.134.324.2l.469.3c.1.065.2.131.3.2l.151.1c.1.065.192.128.285.193l.161.112c.107.072.213.151.314.219.051.036.1.074.151.109l.047.033.37.272h.008l.226.172.22.171c.151.11.281.22.409.327l.184.151.089.075.087.076.151.14.106.1c.039.035.074.068.107.1a4.919,4.919,0,0,1,.376.41c.089.113.171.22.246.323Z" transform="translate(-462.206 -580.274)" fill="#95b6f0"/>
      <path id="パス_2549" data-name="パス 2549" d="M528.48,570.988a3.763,3.763,0,0,1-1.289.267c-3.068.226-9.252-.957-9.252-.957s-7.786,1.747-9.9-3.125,7.838-2.437,9.693-1.483c1.184.6,3.365.439,4.785.238.8-.115,1.358-.238,1.358-.238S530.438,570.034,528.48,570.988Z" transform="translate(-434.067 -493.263)" fill="#f2d3d3"/>
      <path id="パス_2550" data-name="パス 2550" d="M620.634,510.8l-1.747,8.525-5.189.453-2.6.229c.635-2.648-4.871-5.667-4.871-5.667a6.584,6.584,0,0,1,5.029-.954.328.328,0,0,0,.115-.014c.549-.081,1.1-.407.946-1.15a2.67,2.67,0,0,1,.151-1.485s1.006.266.53-1.323a6.737,6.737,0,0,1,.158-3.5l.371-.477.582-1.8,2.383,2.435Z" transform="translate(-517.695 -441.812)" fill="#814949"/>
      <path id="パス_2551" data-name="パス 2551" d="M620.634,511.156l-1.747,8.526-5.189.453-2.6.231c.635-2.65-4.871-5.669-4.871-5.669a6.573,6.573,0,0,1,5.029-.952l.115-.015c.549-.082,1.1-.407.946-1.15a2.67,2.67,0,0,1,.151-1.485s1.006.266.53-1.323a6.737,6.737,0,0,1,.158-3.5l.371-.477.59-1.8,2.383,2.437Z" transform="translate(-512.831 -443.382)" opacity="0.05"/>
      <path id="パス_2552" data-name="パス 2552" d="M616.538,573.35c-.255.184-.5.353-.741.511l-2.6.229c.635-2.648-4.872-5.667-4.872-5.667a6.588,6.588,0,0,1,5.031-.954.331.331,0,0,0,.115-.014,9.824,9.824,0,0,0,2.112,2.186C616.538,570.12,618.6,571.867,616.538,573.35Z" transform="translate(-519.478 -495.891)" opacity="0.1"/>
      <path id="パス_2553" data-name="パス 2553" d="M611.616,579.188a3.762,3.762,0,0,1-1.289.267c.276-2.263-3.677-4.741-4.677-5.326.8-.115,1.358-.238,1.358-.238S613.575,578.234,611.616,579.188Z" transform="translate(-517.203 -501.462)" opacity="0.1"/>
      <path id="パス_2554" data-name="パス 2554" d="M614.438,573.35c-.257.184-.5.353-.741.511l-2.6.229c.635-2.648-4.871-5.667-4.871-5.667a6.584,6.584,0,0,1,5.029-.954.328.328,0,0,0,.115-.014,9.856,9.856,0,0,0,2.112,2.186C614.438,570.12,616.5,571.867,614.438,573.35Z" transform="translate(-517.695 -495.891)" fill="#9f5c5c"/>
      <path id="パス_2555" data-name="パス 2555" d="M614.438,574.052q-.385.276-.741.511l-2.6.231c.635-2.65-4.871-5.669-4.871-5.669a6.572,6.572,0,0,1,5.029-.952.731.731,0,0,0,.115-.015,9.821,9.821,0,0,0,2.112,2.186C614.438,570.821,616.5,572.568,614.438,574.052Z" transform="translate(-517.377 -496.802)" opacity="0.05"/>
      <path id="パス_2556" data-name="パス 2556" d="M663.978,339.345s-9.958,13.928-9.162,11.386c.524-1.673-.926-6.462-1.978-9.545-.548-1.6-.988-2.742-.988-2.742s5.72-4.926,5.614-3.814c-.027.29.4.754,1.056,1.269A48.165,48.165,0,0,0,663.978,339.345Z" transform="translate(-556.432 -298.164)" fill="#f2d3d3"/>
      <path id="パス_2557" data-name="パス 2557" d="M658.495,335.905a7.58,7.58,0,0,1-5.676,5.281c-.548-1.6-.988-2.742-.988-2.742s5.72-4.926,5.615-3.814C657.42,334.92,657.847,335.379,658.495,335.905Z" transform="translate(-556.415 -298.164)" opacity="0.1"/>
      <path id="パス_2558" data-name="パス 2558" d="M612.749,285.214a7.537,7.537,0,1,1-2.207-5.367A7.574,7.574,0,0,1,612.749,285.214Z" transform="translate(-510.367 -249.911)" fill="#f2d3d3"/>
      <path id="パス_2559" data-name="パス 2559" d="M718.4,676.985c-.3.229-.591.474-.872.727q-.249.228-.489.468c-.127.124-.253.252-.377.383a21.121,21.121,0,0,1-3.39-1.184h0a6.294,6.294,0,0,1-2.022-1.3c-1.358-1.489-5.827-5.365-14.636-6.536a40.966,40.966,0,0,0-6.4-.324q-.444.009-.9.029l-.137-.81.075-.032,1.637-.694,1.5-.637a11.918,11.918,0,0,1,3.182-.4h.413a2.673,2.673,0,0,1,.311.012h.193c.255.014.51.035.768.06.091.008.181.018.273.029h.048l.2.024c.084.009.169.021.253.033l.252.036c.169.026.338.053.508.083q.38.063.768.151l.379.081c.386.085.774.18,1.163.282l.362.1.243.069.3.089c.711.211,1.423.453,2.128.7l.379.142.362.136a.041.041,0,0,0,.017.008c.216.083.432.169.646.256,1.218.493,2.414,1.037,3.543,1.6l.389.195.2.1c.134.068.266.137.4.207l.394.208.193.1.193.106.19.1q.668.367,1.292.735c.119.069.237.139.353.21l.174.1c.229.14.453.276.673.415.109.066.216.134.324.2l.469.3c.1.065.2.131.3.2l.151.1c.1.065.192.128.285.193l.161.112.315.246c.051.036.1.074.151.109l.047.033.37.272h.008l.226.172.22.17c.151.112.281.222.409.327l.184.151.089.075.088.076.151.14.106.1c.039.035.074.068.107.1a4.917,4.917,0,0,1,.376.41c.089.113.171.22.246.323Z" transform="translate(-588.13 -580.248)" opacity="0.1"/>
      <path id="パス_2560" data-name="パス 2560" d="M686.454,405.865s.754,4.858,1.414,7.485q-.285.192-.558.4h0c-.3.229-.592.474-.872.727q-.249.228-.489.468a22.008,22.008,0,0,1-2.544-.773,9.172,9.172,0,0,1-3.246-1.8c-1.334-1.461-5.658-5.219-14.136-6.467a40.69,40.69,0,0,0-6.613-.4c-.386,0-.778.017-1.177.035l-.062-.365-.522-3.039-.48-2.847v-.017l-.051-.315v-.018l-.021-.13-.092-.545-.246-1.456-.115-.688s-.008-.078-.018-.219v-.2a.644.644,0,0,0-.009-.119.259.259,0,0,1,0-.084l-.009-.1a.253.253,0,0,1,0-.035c0-.048-.009-.1-.014-.151a.021.021,0,0,1,0-.009c-.009-.1-.02-.2-.03-.311-.008-.068-.015-.139-.023-.211-.03-.279-.063-.584-.1-.905-.035-.269-.071-.546-.11-.824-.011-.077-.021-.151-.033-.226a.786.786,0,0,0-.02-.131h0a.638.638,0,0,0-.017-.106c-.023-.151-.047-.287-.071-.427a.6.6,0,0,0-.015-.089c-.014-.072-.026-.151-.039-.214s-.033-.169-.05-.252a.036.036,0,0,0,0-.012.575.575,0,0,0-.023-.109c-.008-.038-.023-.1-.033-.151-.02-.089-.039-.177-.06-.258l-.029-.11c-.014-.057-.03-.115-.047-.169a2.6,2.6,0,0,0-.3-.754h0a.325.325,0,0,0-.035-.042.215.215,0,0,0-.036-.038.879.879,0,0,1-.122-.151,1.084,1.084,0,0,1-.057-.092c-.036-.066-.075-.139-.115-.22,0-.009-.009-.02-.015-.03s-.03-.063-.044-.1a45.8,45.8,0,0,1-1.66-5.82l-.6-2.9h0l-.06-.318-.183-.964v-.115h0l-.1-3.431s-.054-5.562,1.747-6.355l-.054-.688s-1.4-.415-1.56-1.047a.452.452,0,0,1,.018-.288h0a.831.831,0,0,1,.219-.3c.026-.024.051-.048.074-.074a3.94,3.94,0,0,0,1.091-2.044s.222-.368.578-.934c1.11-1.764,3.531-5.444,4.613-5.845a8.647,8.647,0,0,0,2.49-1.483l.243.053h0a36.941,36.941,0,0,0,3.674.635,3.64,3.64,0,0,1,1.145.419,10.3,10.3,0,0,1,4.677,4.868,14.28,14.28,0,0,0,1.961,3.452,3.558,3.558,0,0,1,.747.88c.14.216.275.453.4.67.358.661.6,1.258.6,1.258s3.443,2.33,3.018,4.607a11.3,11.3,0,0,0,1.483,3.285c.741.742,2.437,6.674,2.437,6.674a4.426,4.426,0,0,1,.582,1.961,9.476,9.476,0,0,0,.635,2.65s.11.563.272,1.207c.054.22.115.453.178.67a3.32,3.32,0,0,0,.5,1.189c.422.37.211,1.165.211,1.165a13.474,13.474,0,0,0,.8,1.747.88.88,0,0,1,.121.356,5.666,5.666,0,0,1-.015,1.287s-.023.184-.045.453a4.419,4.419,0,0,0,.205,2.189,1.1,1.1,0,0,1,.151.4c.186.86.029,2.474.427,2.831C686.665,402,686.454,405.865,686.454,405.865Z" transform="translate(-557.034 -317.018)" fill="#814949"/>
      <path id="パス_2561" data-name="パス 2561" d="M619.391,616.37s-.3.712-.741,1.764c-.868,2.082-2.263,5.5-2.867,7.292-.905,2.7-4.554,4.29-4.554,4.29s-7.256,2.488-9.8.635,4.766-5.933,6.09-6.2,2.49-1.326,3.443-1.907c.453-.275.5-1.325.425-2.36a19.942,19.942,0,0,0-.32-2.3Z" transform="translate(-513.168 -537.533)" fill="#f2d3d3"/>
      <path id="パス_2562" data-name="パス 2562" d="M789.1,449.23s2.754-1.219,3.923.688S789.1,449.23,789.1,449.23Z" transform="translate(-672.973 -395.286)" opacity="0.1"/>
      <path id="パス_2563" data-name="パス 2563" d="M767.209,613.91s-19.011.158-15.411,2.6,4.131,3.6,8.315,2.435S767.209,613.91,767.209,613.91Z" transform="translate(-640.913 -535.444)" opacity="0.1"/>
      <path id="パス_2564" data-name="パス 2564" d="M614.3,285.194a7.544,7.544,0,0,1-1.014,3.786,2.352,2.352,0,0,1-.78-.5,3.535,3.535,0,0,1-.558-.994,8.746,8.746,0,0,0-1.263-2.01,1.72,1.72,0,0,0-1.344-.786c-.881.085-1.509,1.439-2.352,1.153-.257-.086-.632-1.717-.777-2.017-.344-.709-.536-.5-1.163-.208a6.222,6.222,0,0,1-3.786.8,2.005,2.005,0,0,1-1.187-.625,4.145,4.145,0,0,0-.4-.493.8.8,0,0,0-.246-.14,7.574,7.574,0,0,1,14.873,2.029Z" transform="translate(-511.921 -249.892)" opacity="0.1"/>
      <path id="パス_2565" data-name="パス 2565" d="M581.7,270.967c.846.285,1.473-1.068,2.354-1.154a1.726,1.726,0,0,1,1.343.788,8.657,8.657,0,0,1,1.263,2.01,3.556,3.556,0,0,0,.558.994,2.565,2.565,0,0,0,.84.524l1.147.516c.665.3,1.509.563,2.025,0a1.922,1.922,0,0,0,.164-1.811,5.911,5.911,0,0,1-.471-1.844,13.189,13.189,0,0,1,.518-1.99,3.992,3.992,0,0,0-1.04-3.152c-.711-.851-1.6-1.5-2.327-2.325-.415-.472-.777-1-1.207-1.461a6.079,6.079,0,0,0-1.88-1.4,3.547,3.547,0,0,0-1.56-.386,5.808,5.808,0,0,0-1.928.518,9.138,9.138,0,0,1-2.926.7c-1.207.039-2.517-.3-3.577.355a5.141,5.141,0,0,0-1.628,2.18l-.905,1.786a9.311,9.311,0,0,1-1.175,1.921,2.589,2.589,0,0,1-1.83.994,2.565,2.565,0,0,0,2.716.254c.362-.187.687-.46,1.056-.623a1.084,1.084,0,0,1,1.142.069,3.783,3.783,0,0,1,.4.493,2,2,0,0,0,1.187.623,6.268,6.268,0,0,0,3.787-.8c.626-.3.819-.5,1.162.208C581.07,269.25,581.446,270.881,581.7,270.967Z" transform="translate(-486.473 -235.171)" fill="#401f3c"/>
      <path id="パス_2566" data-name="パス 2566" d="M676.665,616.37s-.3.712-.741,1.764c-.355.175-.73.368-1.091.555-.966.5-1.823.963-1.823.963l-4.341.237a19.942,19.942,0,0,0-.32-2.3Z" transform="translate(-570.442 -537.533)" opacity="0.1"/>
      <path id="パス_2567" data-name="パス 2567" d="M679.787,382.793l-1.056,3.707a7.367,7.367,0,0,0-.528,4.344,13.551,13.551,0,0,1-.318,5.349l-1.646,4.237s-2.066,4.342-2.437,4.342a19.8,19.8,0,0,0-2.68,1.261c-.966.5-1.821.963-1.821.963l-4.874.266c-1.607-4.225-.5-4.966.3-5.035a1.708,1.708,0,0,1,.6.057l1.056-6.674v-4.131s.318-3.971,1.006-5.243a11.988,11.988,0,0,0,1-2.645,10.033,10.033,0,0,1-.8-2.013,14.482,14.482,0,0,1-.211-1.694s-.742.106-.953-5.933,4.29-7.679,4.29-7.679c5.4-1.642,8.528,2.912,10.7,6.2S679.787,382.793,679.787,382.793Z" transform="translate(-566.413 -324.877)" opacity="0.1"/>
      <path id="パス_2568" data-name="パス 2568" d="M688.341,380.667l-1.056,3.706a7.379,7.379,0,0,0-.53,4.344,13.6,13.6,0,0,1-.317,5.349L684.8,398.3s-2.069,4.342-2.435,4.342a19.8,19.8,0,0,0-2.68,1.261c-.966.5-1.823.964-1.823.964l-2.173.118-.475-2.82a37.841,37.841,0,0,0-.781-5.417l.518-3.267v-4.131s.318-3.973,1.006-5.243a11.966,11.966,0,0,0,1-2.65,10.019,10.019,0,0,1-.794-2.013,14.054,14.054,0,0,1-.211-1.693s-.742.1-.954-5.934,4.29-7.679,4.29-7.679c5.4-1.642,8.528,2.912,10.7,6.2S688.341,380.667,688.341,380.667Z" transform="translate(-575.605 -323.069)" opacity="0.1"/>
      <path id="パス_2569" data-name="パス 2569" d="M677.7,380.667l-1.056,3.706a7.379,7.379,0,0,0-.53,4.344,13.585,13.585,0,0,1-.318,5.349l-1.64,4.237s-2.066,4.342-2.438,4.342a19.813,19.813,0,0,0-2.678,1.261c-.966.5-1.823.964-1.823.964l-4.874.264c-1.605-4.225-.5-4.964.294-5.035a1.707,1.707,0,0,1,.6.057l1.056-6.672v-4.131s.317-3.973,1-5.243a12.012,12.012,0,0,0,1.006-2.65,10.082,10.082,0,0,1-.8-2.013,14.4,14.4,0,0,1-.211-1.693s-.741.1-.952-5.934,4.29-7.679,4.29-7.679c5.4-1.642,8.527,2.912,10.7,6.2S677.7,380.667,677.7,380.667Z" transform="translate(-564.642 -323.069)" fill="#814949"/>
      <path id="パス_2570" data-name="パス 2570" d="M670.069,607.157c-.966.5-1.823.963-1.823.963l-4.872.266c-1.607-4.225-.5-4.966.293-5.035a12.118,12.118,0,0,1,2.779,2.387C666.542,606.125,668.512,606.73,670.069,607.157Z" transform="translate(-565.519 -526.477)" opacity="0.1"/>
      <path id="パス_2571" data-name="パス 2571" d="M669.017,608.207c-.966.5-1.823.964-1.823.964l-4.874.264c-1.605-4.225-.5-4.964.294-5.035a12.155,12.155,0,0,1,2.779,2.387C665.49,607.175,667.46,607.78,669.017,608.207Z" transform="translate(-564.625 -527.369)" fill="#a86262"/>
      <g id="グループ_2263" data-name="グループ 2263" transform="translate(83 32.049)" opacity="0.1">
        <path id="パス_2572" data-name="パス 2572" d="M591.575,312.693c-.51.566-1.358.3-2.025,0l-1.147-.516a2.517,2.517,0,0,1-.84-.524,3.559,3.559,0,0,1-.558-.994,8.762,8.762,0,0,0-1.263-2.008,1.728,1.728,0,0,0-1.344-.788c-.881.086-1.509,1.439-2.354,1.154-.255-.086-.631-1.717-.776-2.017-.344-.709-.536-.5-1.163-.208a6.221,6.221,0,0,1-3.787.8,1.994,1.994,0,0,1-1.186-.623,3.917,3.917,0,0,0-.4-.493,1.078,1.078,0,0,0-1.141-.069c-.371.164-.694.436-1.056.623a2.532,2.532,0,0,1-1.642.226,2.291,2.291,0,0,1-1.34.527,2.565,2.565,0,0,0,2.716.253c.362-.187.687-.46,1.056-.623a1.084,1.084,0,0,1,1.142.069,3.788,3.788,0,0,1,.4.493,2,2,0,0,0,1.187.623,6.268,6.268,0,0,0,3.787-.8c.626-.3.819-.5,1.162.208.151.3.521,1.931.777,2.017.847.285,1.473-1.068,2.354-1.154a1.726,1.726,0,0,1,1.343.788,8.663,8.663,0,0,1,1.263,2.011,3.557,3.557,0,0,0,.558.994,2.564,2.564,0,0,0,.84.524l1.147.516c.665.3,1.509.563,2.025,0a1.442,1.442,0,0,0,.3-1.056A.468.468,0,0,1,591.575,312.693Z" transform="translate(-569.55 -306.278)"/>
        <path id="パス_2573" data-name="パス 2573" d="M713.847,316.72a4.42,4.42,0,0,0-.267,1.012,5.357,5.357,0,0,0,.238-.819C713.83,316.85,713.839,316.785,713.847,316.72Z" transform="translate(-691.848 -315.145)"/>
      </g>
      <path id="パス_2574" data-name="パス 2574" d="M502.318,750.45s-.954,2.542-2.808,2.6Z" transform="translate(-427.078 -651.382)" opacity="0.1"/>
      <path id="パス_2576" data-name="パス 2576" d="M350.2,563.588l13.664-.318,4.766,2.648.742,6.2-12.552-3.6Z" transform="translate(-297.363 -478.29)" fill="#aea4b2"/>
      <path id="パス_2577" data-name="パス 2577" d="M350.2,563.588l13.664-.318,4.766,2.648.742,6.2-12.552-3.6Z" transform="translate(-297.363 -478.29)" opacity="0.05"/>
      <path id="パス_2578" data-name="パス 2578" d="M314.572,577.82a12.942,12.942,0,0,1,1.43,1.589s4.819.848,5.984-.211-2.284-4.608-2.284-4.608l-3.072.16-2.49,1.482Z" transform="translate(-269.677 -502.057)" fill="#ffc4d0"/>
      <path id="パス_2579" data-name="パス 2579" d="M270.3,562.66l2.331,1.056a14.026,14.026,0,0,0,2.013.371c.53,0,2.754-.266,2.754-.266l2.013.8s-1.8,3.389-.635,4.659c0,0-3.654.371-5.032-.264a12.534,12.534,0,0,0-3.23-.848Z" transform="translate(-232.452 -491.927)" fill="#575989"/>
      <path id="パス_2580" data-name="パス 2580" d="M272.41,563l2.33,1.056a14.029,14.029,0,0,0,2.013.371c.53,0,2.755-.266,2.755-.266l2.011.8s-1.8,3.389-.635,4.661c0,0-3.654.37-5.03-.266a12.522,12.522,0,0,0-3.232-.848Z" transform="translate(-234.244 -492.216)" opacity="0.05"/>
      <path id="パス_2581" data-name="パス 2581" d="M232.969,318.24s-15.352-3.5-12.6-3.973c1.756-.3,3.363-4.275,4.294-7.108.531-1.608.842-2.849.842-2.849s8.845,4.131,6.832,5.509c-.773.53-.859,1.892-.67,3.371A26.428,26.428,0,0,0,232.969,318.24Z" transform="translate(-189.772 -272.558)" fill="#ffc4d0"/>
      <path id="パス_2582" data-name="パス 2582" d="M274.36,759.58l-.011.269h0l-.03.685-.014.317-.1,2.263v.235h-.939v-.007l-.158.007v-.175l-.21-.065a47.526,47.526,0,0,0-9.154-2.319c-.151-.014-.3-.027-.453-.038a19.306,19.306,0,0,0-2.9.021,43.886,43.886,0,0,0-8.628,1.827l-.178.05c-.151.045-.311.089-.466.136l.038-2.316v-.732h1l8.219-.057,3.345-.024Z" transform="translate(-216.174 -659.135)" fill="#5f546f"/>
      <path id="パス_2583" data-name="パス 2583" d="M232.2,755.71l-.107.739h0l-.062.436-.044.314h0l-.3,2.112-.178.05c-.151.045-.311.089-.466.136v.1h-.335l-.653.187H227.49l.032-.238.318-2.414h0l.042-.315.084-.629,4.074-.453Z" transform="translate(-196.101 -655.849)" opacity="0.1"/>
      <path id="パス_2584" data-name="パス 2584" d="M231.135,755.71v.018l-.1.723-.062.432-.044.318-.326,2.174c-.151.045-.311.089-.466.136v.1H229.8l-.653.187-.151.042h0l-2.574-.042.352-2.657.038-.332.033-.264h0l.047-.364Z" transform="translate(-195.193 -655.849)" fill="#5f546f"/>
      <path id="パス_2585" data-name="パス 2585" d="M381.022,667.381l-.011.59,0,.317v0l-.038,2.239v.029l-3.227.128-.59.024-.353.014-.16.006-.006-.173v-.063l-.077-2.275v0l-.011-.318-.024-.727.16.008,1.049.048.158.009Z" transform="translate(-319.712 -566.513)" opacity="0.1"/>
      <path id="パス_2586" data-name="パス 2586" d="M382.081,667.381l-.009.593-.006.317-.056,2.241-.008.24-3.363-.032-.5,0h0l-.435-.006v-.006l-.006-.121,0-.109-.077-2.277-.009-.318-.024-.723v-.008l1.207.056Z" transform="translate(-320.612 -566.513)" fill="#5f546f"/>
      <path id="パス_2587" data-name="パス 2587" d="M231.135,755.71v.018l-.1.723-.062.432-.044.318-.326,2.174c-.151.045-.311.089-.466.136v.1H229.8l-.653.187-.151.042h0l-2.574-.042.352-2.657.038-.332.033-.264h0l.047-.364Z" transform="translate(-195.193 -655.849)" fill="#fff" opacity="0.1"/>
      <path id="パス_2588" data-name="パス 2588" d="M382.081,667.381l-.009.593-.006.317-.056,2.241-.008.24-3.363-.032-.5,0h0l-.435-.006v-.006l-.006-.121,0-.109-.077-2.277-.009-.318-.024-.723v-.008l1.207.056Z" transform="translate(-320.612 -566.513)" fill="#fff" opacity="0.1"/>
      <path id="パス_2589" data-name="パス 2589" d="M258.354,309.793c-.772.53-.859,1.892-.67,3.371a8.427,8.427,0,0,1-7-6.035c.531-1.608.842-2.849.842-2.849S260.367,308.416,258.354,309.793Z" transform="translate(-215.792 -272.532)" opacity="0.1"/>
      <path id="パス_2590" data-name="パス 2590" d="M265.479,258.319a8.412,8.412,0,1,1-.355-2.426A8.412,8.412,0,0,1,265.479,258.319Z" transform="translate(-214.072 -226.355)" fill="#ffc4d0"/>
      <path id="パス_2593" data-name="パス 2593" d="M284.687,577.05s-1.962.106-1.8.848S284.687,577.05,284.687,577.05Z" transform="translate(-243.132 -504.146)" fill="none"/>
      <path id="パス_2594" data-name="パス 2594" d="M186.393,653.011h0a.088.088,0,0,1-.023.012c-2.149.923-4.225,2.1-6.366,3.025-.19.082-.38.161-.573.24a16.82,16.82,0,0,1-4.161,1.156,15.545,15.545,0,0,1-4.436-.112,3.927,3.927,0,0,1,.433-1.753h0a6.689,6.689,0,0,1,1.387-1.144,2.63,2.63,0,0,0,.819-.8h0a1.483,1.483,0,0,0,.069-1.427,2.624,2.624,0,0,0-.151-.276,2.251,2.251,0,0,0-.32-.4h-26s-6.143-.042-8.694-.053h-.839c-1.536,0-5.139-.582-5.35-1.165s-2.806-1.907-3.76-2.173c-.477-.131-1.246-1.5-1.894-2.829-.1-.211-.2-.421-.3-.626-.048-.1-.1-.2-.139-.3v-.01c-.19-.413-.355-.789-.478-1.079l-.063-.151c-.012-.029-.024-.056-.033-.081a.888.888,0,0,0-.039-.089h0l-.035-.084c-.054-.128-.085-.2-.085-.2l23.674-9.053,1.877.477c.092.024.186.048.284.071l2.4.616c1.135.293,2.319.6,3.345.869,1.417.374,2.529.676,2.79.776.548.205,2.716.7,4.17,1.02h0c.8.178,1.387.3,1.387.3s1.871.365,4.317.862l.475.1.634.128c.127.024.255.051.383.078h0c.435.088.877.178,1.323.272l.96.2c1.026.213,2.043.429,2.984.635l.73.16.282.062.279.062c1.083.245,1.987.462,2.565.623a3.984,3.984,0,0,1,.582.214,8.563,8.563,0,0,1,3.15,2.9,16.262,16.262,0,0,1,1.4,2.381C187.018,648.424,186.84,651.7,186.393,653.011Z" transform="translate(-109.381 -552.188)" fill="#aea4b2"/>
      <path id="パス_2595" data-name="パス 2595" d="M236.354,675s-1.006,4.45-4.131,6.035S236.354,675,236.354,675Z" transform="translate(-199.456 -587.316)" opacity="0.1"/>
      <path id="パス_2596" data-name="パス 2596" d="M291.563,693.23s-3.389,1.961-2.912,3.39Z" transform="translate(-247.995 -602.796)" opacity="0.1"/>
      <path id="パス_2597" data-name="パス 2597" d="M493.768,730.44s-.954,4.026-3.018,4.074Z" transform="translate(-419.639 -634.391)" opacity="0.1"/>
      <path id="パス_2598" data-name="パス 2598" d="M239.209,662.906l-.014.91-3.322-.053-1.132-.02-21.272-.353-.751-.012-3.4-.057.125-.945,4.237-.477-.106.741,22.351-.157-.012.269Z" transform="translate(-177.74 -562.039)" opacity="0.1"/>
      <path id="パス_2599" data-name="パス 2599" d="M244.529,751.07l-32.054-.533a1.524,1.524,0,0,1-1.5-1.486l-.018-.711h35.117v1.207a1.524,1.524,0,0,1-1.548,1.523Z" transform="translate(-182.065 -649.591)" fill="#ccccd8"/>
      <path id="パス_2600" data-name="パス 2600" d="M148.919,635.764a11.745,11.745,0,0,0-1.8,1.747c-.582.794-3.765,2.218-3.765,2.218-4.032,4.2-13.447,5.281-16.883,5.537-.1-.211-.2-.421-.3-.626-.505-1.082-.878-2-.878-2l23.674-9.053,1.875.477a3.822,3.822,0,0,0,.349.53.416.416,0,0,1,.094.178C151.465,635.485,148.919,635.764,148.919,635.764Z" transform="translate(-109.322 -552.155)" opacity="0.1"/>
      <path id="パス_2601" data-name="パス 2601" d="M133.9,392.58c.177.714-2.37.988-2.37.988a11.664,11.664,0,0,0-1.8,1.747c-.582.8-3.757,2.224-3.757,2.224-4.087,4.261-13.712,5.308-17.023,5.547-.721.053-1.144.066-1.144.066s-.905-2.224-1.218-2.171-1.589-3.6-1.589-3.6.53-9.533.264-10.646.106-8.95.054-9.691a44.133,44.133,0,0,1,1.853-9.216,52.721,52.721,0,0,1,4.023-6.508l5.726-5.723s3.866-3.232,4.925-3.5,1.376-2.7,1.376-2.7c2.542-1.056,5.562,1.165,5.562,1.165,2.648-.053,2.382.424,2.382.424l1.538.318.039.427,1.913,20.751-2.263,5.734-1.08,2.745a4.327,4.327,0,0,1-.106,2.806,4.3,4.3,0,0,0,.422,3.23s.635,1.326-.211,2.112,1.43,1.056,1.43,1.056a5.923,5.923,0,0,0,.954,2.226.453.453,0,0,1,.1.189Z" transform="translate(-92.093 -310.6)" fill="#575989"/>
      <path id="パス_2602" data-name="パス 2602" d="M220.575,597.06s-1.056,2.013.846,2.33,6.832-.211,7.467-.211S220.575,597.06,220.575,597.06Z" transform="translate(-189.981 -521.136)" opacity="0.1"/>
      <path id="パス_2603" data-name="パス 2603" d="M220.81,552.48c.266.477,5.986,5.3,7.944,6.144Z" transform="translate(-190.429 -483.283)" opacity="0.1"/>
      <path id="パス_2604" data-name="パス 2604" d="M247.84,530s2.867,5.13,3.813,5.933.158-2.867.158-2.867Z" transform="translate(-213.381 -464.195)" opacity="0.1"/>
      <path id="パス_2605" data-name="パス 2605" d="M194.49,433.14s7.255,4.714,6.941,8.05S194.49,433.14,194.49,433.14Z" transform="translate(-168.081 -381.949)" opacity="0.1"/>
      <path id="パス_2606" data-name="パス 2606" d="M137.2,533.88s-1.853,14.671,12.87,14.4C150.069,548.285,138.046,543.837,137.2,533.88Z" transform="translate(-119.37 -467.489)" opacity="0.1"/>
      <path id="パス_2607" data-name="パス 2607" d="M469.012,663.049c-2.12-.054-8.1-2.226-8.1-2.226l.035-.164.97-4.659,1.207.041c1.18.039,2.926.106,3.82.172C468.377,656.321,471.131,663.1,469.012,663.049Z" transform="translate(-394.302 -571.183)" fill="#ffc4d0"/>
      <path id="パス_2608" data-name="パス 2608" d="M244.259,366.376l1.919,20.751-2.263,5.734c-1.762-2.577-3.754-5.48-4.311-6.259-1.056-1.483-3.23-8.738-3.23-8.738s-.635-6.41,3.654-9.8C241.89,366.607,243.279,366.275,244.259,366.376Z" transform="translate(-203.616 -325.245)" opacity="0.1"/>
      <path id="パス_2609" data-name="パス 2609" d="M426.1,668.194a5.362,5.362,0,0,1-1.586,1.961s-2.767-1.6-5.906-3.535C420.958,667.1,423.837,667.69,426.1,668.194Z" transform="translate(-358.384 -580.201)" opacity="0.1"/>
      <path id="パス_2610" data-name="パス 2610" d="M461.412,660.828l-.282-.164L462.1,656l1.207.041A4.882,4.882,0,0,1,461.412,660.828Z" transform="translate(-394.489 -571.183)" opacity="0.1"/>
      <path id="パス_2611" data-name="パス 2611" d="M249.337,365.263s-1.8-2.7-6.088.69-3.654,9.8-3.654,9.8,2.171,7.255,3.23,8.738,7.307,10.649,7.307,10.649,6.566,7.467,10.856,10.486,11.97,7.469,11.97,7.469a4.858,4.858,0,0,0,1.854-4.979,5.361,5.361,0,0,1-2.224-1.165c-.741-.8-1.643-1.747-1.643-1.747s-1.27-.53-1.27-1.112-2.33-2.49-2.33-2.49-.16-.8-.742-.954-1.43-2.112-1.43-2.112-1.962-2.277-2.011-3.018-.905-.794-.905-.794a9.506,9.506,0,0,1-.742-1.854c0-.371-1.112-1.112-1.112-1.112l-1.747-1.962a2.141,2.141,0,0,0-1.218-2.435c-1.694-1.059-1.907-4.074-1.907-4.074l-1.642-3.549a.932.932,0,0,0,.424-1.112,3.729,3.729,0,0,0-.742-1.378s.637-.37.106-1.218a8.119,8.119,0,0,1-.635-2.859l-1.27-3.549S251.508,366.216,249.337,365.263Z" transform="translate(-206.351 -323.448)" fill="#575989"/>
      <path id="パス_2612" data-name="パス 2612" d="M333.84,524.195s5.507-1.43,3.866-.266A4.484,4.484,0,0,1,333.84,524.195Z" transform="translate(-286.405 -458.652)" opacity="0.1"/>
      <path id="パス_2613" data-name="パス 2613" d="M328.92,566.377s4.184-.741,3.23.213S328.92,566.377,328.92,566.377Z" transform="translate(-282.227 -494.85)" opacity="0.1"/>
      <path id="パス_2614" data-name="パス 2614" d="M274.16,403.65s5.614,1.483,6.941,4.608Z" transform="translate(-235.73 -356.909)" opacity="0.1"/>
      <path id="パス_2619" data-name="パス 2619" d="M48.308,530.3a1.389,1.389,0,0,0-.183.353c-.012.03-.024.065-.035.1a.28.28,0,0,0-.065-.023.9.9,0,0,0-.3-.026v-.121c.012-.433-.039-1.037-.453-.782s-.113.656.142.922l.066.065c-.234.167-.278.554-.317.957a2.281,2.281,0,0,1-.6,1.1l-.063.071a.829.829,0,0,0-.662-.171c-.009-.036-.02-.072-.03-.112-.184-.666-.567-1.818-1.056-2.07l.063-.082c.208-.272.441-.674.1-.777s-.376.35-.356.688a.522.522,0,0,0,.009.121.507.507,0,0,0-.358.177l-.053-.063c-.279-.33-.792-.852-.948-.453-.151.368.3.846.625,1.124l.02.017c-.214.865.717,1.571,1.218,1.879l.065.039a7.562,7.562,0,0,0-1.118,2.34l1.936.346s1.283-1.106,1.118-2.146h.014a1.956,1.956,0,0,0,1.373-2.435l.023-.009a1.429,1.429,0,0,0,.593-.453A.476.476,0,0,0,48.308,530.3Z" transform="translate(-39.594 -463.933)" fill="#f8ff7e"/>
      <path id="パス_2620" data-name="パス 2620" d="M48.308,530.3a1.389,1.389,0,0,0-.183.353c-.012.03-.024.065-.035.1a.28.28,0,0,0-.065-.023.9.9,0,0,0-.3-.026v-.121c.012-.433-.039-1.037-.453-.782s-.113.656.142.922l.066.065c-.234.167-.278.554-.317.957a2.281,2.281,0,0,1-.6,1.1l-.063.071a.829.829,0,0,0-.662-.171c-.009-.036-.02-.072-.03-.112-.184-.666-.567-1.818-1.056-2.07l.063-.082c.208-.272.441-.674.1-.777s-.376.35-.356.688a.522.522,0,0,0,.009.121.507.507,0,0,0-.358.177l-.053-.063c-.279-.33-.792-.852-.948-.453-.151.368.3.846.625,1.124l.02.017c-.214.865.717,1.571,1.218,1.879l.065.039a7.562,7.562,0,0,0-1.118,2.34l1.936.346s1.283-1.106,1.118-2.146h.014a1.956,1.956,0,0,0,1.373-2.435l.023-.009a1.429,1.429,0,0,0,.593-.453A.476.476,0,0,0,48.308,530.3Z" transform="translate(-39.594 -463.933)" opacity="0.1"/>
      <path id="パス_2621" data-name="パス 2621" d="M45.141,532.762l-.225.661a3.376,3.376,0,0,1-.285-.228c-.317-.278-.768-.754-.625-1.124.151-.4.668.127.948.453C45.067,532.66,45.141,532.762,45.141,532.762Z" transform="translate(-40.279 -465.833)" fill="#f8ff7e"/>
      <path id="パス_2622" data-name="パス 2622" d="M53.359,530.486a3.136,3.136,0,0,1-.22.26,3.333,3.333,0,0,1-.041-.349c-.018-.338.017-.789.356-.688S53.566,530.214,53.359,530.486Z" transform="translate(-48.02 -463.935)" fill="#f8ff7e"/>
      <path id="パス_2623" data-name="パス 2623" d="M70.53,530.907a2.821,2.821,0,0,1-.027.392,2.655,2.655,0,0,1-.282-.252c-.257-.266-.539-.676-.142-.922S70.542,530.474,70.53,530.907Z" transform="translate(-62.273 -464.253)" fill="#f8ff7e"/>
      <path id="パス_2624" data-name="パス 2624" d="M77.056,533.259a1.447,1.447,0,0,1-.593.453,1.686,1.686,0,0,1-.2.072L76,533.407a2.564,2.564,0,0,1,.11-.364,1.39,1.39,0,0,1,.192-.353A.473.473,0,0,1,77.056,533.259Z" transform="translate(-67.469 -466.319)" fill="#f8ff7e"/>
      <path id="パス_2625" data-name="パス 2625" d="M48.623,535.9c.113.131.187.234.187.234l-.225.661a3.377,3.377,0,0,1-.285-.228,1.3,1.3,0,0,1,.257-.582C48.578,535.954,48.6,535.926,48.623,535.9Z" transform="translate(-43.948 -469.205)" opacity="0.1"/>
      <path id="パス_2626" data-name="パス 2626" d="M53.381,534.439a3.115,3.115,0,0,1-.22.26,3.335,3.335,0,0,1-.041-.349A.453.453,0,0,1,53.381,534.439Z" transform="translate(-48.041 -467.888)" opacity="0.1"/>
      <path id="パス_2627" data-name="パス 2627" d="M50.329,537.741l-.563.247a3.369,3.369,0,0,1-.3-.169c-.59-.364-1.779-1.279-.982-2.358s1.462.857,1.723,1.811C50.286,537.546,50.329,537.741,50.329,537.741Z" transform="translate(-43.877 -468.562)" fill="#f8ff7e"/>
      <path id="パス_2628" data-name="パス 2628" d="M72.13,535.77a.453.453,0,0,1,.309-.14,2.825,2.825,0,0,1-.027.392A2.643,2.643,0,0,1,72.13,535.77Z" transform="translate(-64.183 -468.975)" opacity="0.1"/>
      <path id="パス_2629" data-name="パス 2629" d="M76.469,536.755a1.654,1.654,0,0,1-.2.072l-.27-.374a2.564,2.564,0,0,1,.11-.364A.949.949,0,0,1,76.469,536.755Z" transform="translate(-67.469 -469.366)" opacity="0.1"/>
      <path id="パス_2630" data-name="パス 2630" d="M63.482,539.464l-.1.017c-1.886.287-.622-.73-.622-.73s.086-.078.2-.207a2.178,2.178,0,0,0,.6-1.1c.06-.611.128-1.185.849-1.016S65.267,539.107,63.482,539.464Z" transform="translate(-55.879 -469.63)" fill="#f8ff7e"/>
      <rect id="長方形_308" data-name="長方形 308" width="3.603" height="0.948" transform="translate(3.965 74.529)" fill="#d4dfec"/>
      <rect id="長方形_309" data-name="長方形 309" width="4.709" height="3.307" transform="translate(3.392 71.45)" fill="#d4dfec"/>
      <rect id="長方形_310" data-name="長方形 310" width="3.603" height="0.948" transform="translate(3.965 74.529)" opacity="0.1"/>
      <rect id="長方形_311" data-name="長方形 311" width="4.709" height="3.307" transform="translate(3.392 71.45)" opacity="0.1"/>
      <rect id="長方形_312" data-name="長方形 312" width="3.603" height="0.948" transform="translate(4.202 74.529)" fill="#d4dfec"/>
      <path id="パス_2631" data-name="パス 2631" d="M57.232,549.2c.08.282.122.477.122.477l-.563.247a3.341,3.341,0,0,1-.3-.169A1.449,1.449,0,0,1,57.232,549.2Z" transform="translate(-50.903 -480.498)" opacity="0.1"/>
      <path id="パス_2632" data-name="パス 2632" d="M63.482,551.52l-.1.017c-1.886.287-.622-.73-.622-.73s.086-.078.2-.207A1.249,1.249,0,0,1,63.482,551.52Z" transform="translate(-55.879 -481.687)" opacity="0.1"/>
      <path id="パス_2633" data-name="パス 2633" d="M49.53,552.693s1.056-3.772,2.536-2.615-.6,2.96-.6,2.96Z" transform="translate(-44.993 -481.056)" fill="#f8ff7e"/>
      <circle id="楕円形_370" data-name="楕円形 370" cx="0.119" cy="0.119" r="0.119" transform="translate(4.951 67.373)" opacity="0.1"/>
      <circle id="楕円形_371" data-name="楕円形 371" cx="0.119" cy="0.119" r="0.119" transform="translate(4.942 67.925)" opacity="0.1"/>
      <circle id="楕円形_372" data-name="楕円形 372" cx="0.119" cy="0.119" r="0.119" transform="translate(8.376 67.482)" opacity="0.1"/>
      <circle id="楕円形_373" data-name="楕円形 373" cx="0.119" cy="0.119" r="0.119" transform="translate(5.613 70.314)" opacity="0.1"/>
      <circle id="楕円形_374" data-name="楕円形 374" cx="0.119" cy="0.119" r="0.119" transform="translate(8.13 68.399)" opacity="0.1"/>
      <circle id="楕円形_375" data-name="楕円形 375" cx="0.119" cy="0.119" r="0.119" transform="translate(6.906 69.623)" opacity="0.1"/>
      <circle id="楕円形_376" data-name="楕円形 376" cx="0.119" cy="0.119" r="0.119" transform="translate(5.355 67.61)" opacity="0.1"/>
      <circle id="楕円形_377" data-name="楕円形 377" cx="0.119" cy="0.119" r="0.119" transform="translate(8.05 67.836)" opacity="0.1"/>
      <circle id="楕円形_378" data-name="楕円形 378" cx="0.119" cy="0.119" r="0.119" transform="translate(7.645 68.754)" opacity="0.1"/>
      <circle id="楕円形_379" data-name="楕円形 379" cx="0.119" cy="0.119" r="0.119" transform="translate(6.402 70.225)" opacity="0.1"/>
      <circle id="楕円形_380" data-name="楕円形 380" cx="0.119" cy="0.119" r="0.119" transform="translate(6.146 69.642)" opacity="0.1"/>
      <circle id="楕円形_381" data-name="楕円形 381" cx="0.119" cy="0.119" r="0.119" transform="translate(5.533 68.33)" opacity="0.1"/>
      <rect id="長方形_313" data-name="長方形 313" width="3.603" height="0.346" transform="translate(4.202 74.529)" opacity="0.1"/>
      <rect id="長方形_314" data-name="長方形 314" width="4.709" height="3.307" transform="translate(3.629 71.45)" fill="#d4dfec"/>
      <circle id="楕円形_382" data-name="楕円形 382" cx="0.119" cy="0.119" r="0.119" transform="translate(6.561 70.757)" opacity="0.1"/>
      <circle id="楕円形_383" data-name="楕円形 383" cx="0.119" cy="0.119" r="0.119" transform="translate(5.85 70.907)" opacity="0.1"/>
      <path id="パス_2634" data-name="パス 2634" d="M985.84,437.658s1.183-3.532,4.3-2.233c0,0-1.447,3.156-4.14,2.8Z" transform="translate(-840.028 -383.646)" fill="#f8ff7e"/>
      <path id="パス_2635" data-name="パス 2635" d="M982.61,415s1.313-3.543,4.422-1.977c0,0-1.811,3.259-4.272,2.515Z" transform="translate(-837.285 -364.527)" fill="#f8ff7e"/>
      <path id="パス_2636" data-name="パス 2636" d="M981.68,389.768s1.755-3.47,4.272-2.987c0,0-1.811,3.676-4.172,3.752Z" transform="translate(-836.496 -342.546)" fill="#f8ff7e"/>
      <path id="パス_2637" data-name="パス 2637" d="M982,365.7s1.975-4.2,3.983-3.547c0,0-1.415,3.226-4.015,4.243Z" transform="translate(-836.742 -321.61)" fill="#f8ff7e"/>
      <path id="パス_2638" data-name="パス 2638" d="M983.861,342.749s1.779-3.481,3.837-3.319c0,0-1.382,3.482-3.938,4.276Z" transform="translate(-838.262 -302.374)" fill="#f8ff7e"/>
      <path id="パス_2639" data-name="パス 2639" d="M986.27,319.842s2.082-3.44,3.44-3.319c0,0-1.215,3.516-3.4,3.94Z" transform="translate(-840.393 -282.925)" fill="#f8ff7e"/>
      <path id="パス_2640" data-name="パス 2640" d="M988.39,294.91s1.545-3.845,2.939-3.97c0,0-.684,3.235-2.85,4.29Z" transform="translate(-842.193 -261.205)" fill="#f8ff7e"/>
      <path id="パス_2641" data-name="パス 2641" d="M989.28,270.285s1.467-3.034,2.631-3.345c0,0-.791,3.713-2.5,4.161Z" transform="translate(-842.949 -240.826)" fill="#f8ff7e"/>
      <path id="パス_2642" data-name="パス 2642" d="M989.263,238.816l.661-5.636s1.381,4.542-.664,6.648Z" transform="translate(-842.932 -212.16)" fill="#f8ff7e"/>
      <path id="パス_2643" data-name="パス 2643" d="M978.043,206.119s-.836-4.317-1.153-4.6c0,0,2.464,3.095,1.66,6.468Z" transform="translate(-832.428 -185.277)" fill="#f8ff7e"/>
      <path id="パス_2644" data-name="パス 2644" d="M962.632,468.316q-1.109.779-2.182,1.61c-.14.107-.281.217-.419.33a4.9,4.9,0,0,1-1.331-.416A3.3,3.3,0,0,1,962.632,468.316Z" transform="translate(-816.983 -411.666)" fill="#f8ff7e"/>
      <path id="パス_2645" data-name="パス 2645" d="M959.041,443.683s-2.272-2.951-4.791-.706c0,0,2.4,2.511,4.828,1.29Z" transform="translate(-813.204 -389.587)" fill="#f8ff7e"/>
      <path id="パス_2646" data-name="パス 2646" d="M956.664,419.254s-2.28-3.018-4.8-.614c0,0,2.678,2.6,4.816,1.175Z" transform="translate(-811.175 -368.848)" fill="#f8ff7e"/>
      <path id="パス_2647" data-name="パス 2647" d="M960.5,388.215s-1.566-3.564-4.106-3.212c0,0,1.613,3.772,3.965,3.971Z" transform="translate(-815.021 -341.055)" fill="#f8ff7e"/>
      <path id="パス_2648" data-name="パス 2648" d="M962.758,363.331s-1.453-4.41-3.528-4c0,0,1.017,3.374,3.47,4.7Z" transform="translate(-817.433 -319.253)" fill="#f8ff7e"/>
      <path id="パス_2649" data-name="パス 2649" d="M964.727,340.693s-1.645-3.549-3.707-3.47c0,0,1.246,3.534,3.772,4.425Z" transform="translate(-818.953 -300.504)" fill="#f8ff7e"/>
      <path id="パス_2650" data-name="パス 2650" d="M974.084,315.194s-1.1-3.866-2.444-4.1c0,0,.246,3.71,2.241,4.694Z" transform="translate(-827.971 -278.315)" fill="#f8ff7e"/>
      <path id="パス_2651" data-name="パス 2651" d="M973.923,293.39s-1.281-3.941-2.663-4.16c0,0,.463,3.273,2.551,4.472Z" transform="translate(-827.648 -259.753)" fill="#f8ff7e"/>
      <path id="パス_2652" data-name="パス 2652" d="M979.741,269.757s-.905-3.24-2-3.757c0,0,.124,3.795,1.726,4.537Z" transform="translate(-833.15 -240.028)" fill="#f8ff7e"/>
      <path id="パス_2653" data-name="パス 2653" d="M975.02,240.63l-2.36-5.16s.08,4.745,2.672,6.121Z" transform="translate(-828.837 -214.105)" fill="#f8ff7e"/>
      <path id="パス_2654" data-name="パス 2654" d="M961.078,214.466s-3.2-3.018-3.268-3.436c0,0,1.295,3.737,4.575,4.866Z" transform="translate(-816.227 -193.352)" fill="#f8ff7e"/>
      <path id="パス_2655" data-name="パス 2655" d="M953.554,199.585s-3.5-4.579-4.554-4.735a6.775,6.775,0,0,1,4.677,4.539Z" transform="translate(-808.747 -179.614)" fill="#f8ff7e"/>
      <path id="パス_2656" data-name="パス 2656" d="M980.137,234.665h-.151c.151-6.161-.424-9.9-1.627-10.539l.071-.136C979.706,224.661,980.3,228.355,980.137,234.665Z" transform="translate(-833.676 -204.357)" fill="#444053"/>
      <path id="パス_2657" data-name="パス 2657" d="M981.709,306.786l-.229-.015c.039-.572.091-1.156.151-1.734.551-5.034.92-9.676,1.01-13.186l.151-.142c-.087,3.516-.385,8.312-.937,13.353C981.8,305.635,981.745,306.218,981.709,306.786Z" transform="translate(-836.326 -261.859)" fill="#444053"/>
      <path id="パス_2658" data-name="パス 2658" d="M982.035,398.629q.161.8.349,1.557l-.3.211q-.19-.792-.343-1.607c-.059-.314-.112-.631-.163-.948-.14-.881-.247-1.777-.326-2.681-.015-.164-.029-.33-.039-.5-.017-.193-.029-.385-.042-.579V394c-.039-.687-.063-1.378-.069-2.067,0-.478,0-.958.008-1.436.013-.513.033-1.024.062-1.535a1.031,1.031,0,0,1,.013-.2c.014-.068,0-.14.012-.213V388.5l.056.038.05.032.113.078v.107q-.071,1.086-.08,2.13a1.122,1.122,0,0,0,0,.142v1q.015,1,.086,1.961c0,.1.013.192.02.285a.472.472,0,0,0,.008.1c.009.094.017.187.026.282l.032.35v.047q.142,1.449.389,2.8Q981.958,398.253,982.035,398.629Z" transform="translate(-836.003 -344.045)" fill="#444053"/>
      <path id="パス_2659" data-name="パス 2659" d="M1065.036,406.3l-.343.231c-.981.659-1.978,1.3-2.981,1.919v.3a.407.407,0,0,1-.06-.021l-.016-.238-.015-.255h0v-.086s.041-.066.113-.175C1062.088,407.454,1063.305,405.942,1065.036,406.3Z" transform="translate(-904.374 -359.112)" fill="#f8ff7e"/>
      <path id="パス_2660" data-name="パス 2660" d="M1063.23,385.233s2.013-3.2,4.735-1.023c0,0-2.447,2.815-4.7,1.583Z" transform="translate(-905.741 -339.76)" fill="#f8ff7e"/>
      <path id="パス_2661" data-name="パス 2661" d="M1066.41,361.378s2.432-3.037,4.8-2.043c0,0-2.53,3.224-4.855,2.814Z" transform="translate(-908.39 -319.11)" fill="#f8ff7e"/>
      <path id="パス_2662" data-name="パス 2662" d="M1070.535,337.766s2.8-3.707,4.629-2.651c0,0-2.051,2.867-4.8,3.327Z" transform="translate(-911.795 -298.554)" fill="#f8ff7e"/>
      <path id="パス_2663" data-name="パス 2663" d="M1077.107,315.922s2.458-3.042,4.438-2.455c0,0-2.07,3.122-4.735,3.374Z" transform="translate(-917.272 -280.269)" fill="#f8ff7e"/>
      <path id="パス_2664" data-name="パス 2664" d="M1084.807,293.616s2.745-2.936,4.048-2.536c0,0-1.912,3.19-4.136,3.155Z" transform="translate(-923.988 -261.292)" fill="#f8ff7e"/>
      <path id="パス_2665" data-name="パス 2665" d="M1091.75,269.242s2.3-3.445,3.694-3.276c0,0-1.335,3.018-3.671,3.611Z" transform="translate(-929.958 -239.994)" fill="#f8ff7e"/>
      <path id="パス_2666" data-name="パス 2666" d="M1098.2,244.973s2.061-2.66,3.262-2.733c0,0-1.536,3.47-3.3,3.559Z" transform="translate(-935.401 -219.853)" fill="#f8ff7e"/>
      <path id="パス_2667" data-name="パス 2667" d="M1101.077,211.9l1.811-5.379s.418,4.729-2.017,6.369Z" transform="translate(-937.702 -189.523)" fill="#f8ff7e"/>
      <path id="パス_2668" data-name="パス 2668" d="M1104.5,176.839s.071-4.4-.181-4.739c0,0,1.773,3.537.293,6.672Z" transform="translate(-940.631 -160.296)" fill="#f8ff7e"/>
      <path id="パス_2669" data-name="パス 2669" d="M1029.33,434.3a4.162,4.162,0,0,1,1.9-1.065l-1.839,1.109Z" transform="translate(-876.956 -382.026)" fill="#f8ff7e"/>
      <path id="パス_2670" data-name="パス 2670" d="M1036,407.36h0l-.045.293-.041.284c-.05.014-.1.026-.151.035a2.914,2.914,0,0,1-.427.06c-2.318.173-3.885-2.351-3.885-2.351,2.334-1.34,3.836.524,4.347,1.332C1035.924,407.21,1035.989,407.343,1036,407.36Z" transform="translate(-878.756 -358.233)" fill="#f8ff7e"/>
      <path id="パス_2671" data-name="パス 2671" d="M1038.635,383.093s-1.611-3.416-4.575-1.589c0,0,2.087,3.09,4.471,2.14Z" transform="translate(-880.972 -337.648)" fill="#f8ff7e"/>
      <path id="パス_2672" data-name="パス 2672" d="M1049.817,351.558s-.8-3.81-3.357-3.988c0,0,.8,4.018,3.064,4.7Z" transform="translate(-891.501 -309.291)" fill="#f8ff7e"/>
      <path id="パス_2673" data-name="パス 2673" d="M1057.208,327.651s-.516-4.616-2.629-4.641c0,0,.3,3.51,2.434,5.311Z" transform="translate(-898.396 -288.436)" fill="#f8ff7e"/>
      <path id="パス_2674" data-name="パス 2674" d="M1063.765,305.829s-.88-3.81-2.915-4.149c0,0,.492,3.713,2.779,5.106Z" transform="translate(-903.72 -270.325)" fill="#f8ff7e"/>
      <path id="パス_2675" data-name="パス 2675" d="M1077.768,282.749s-.284-4.011-1.548-4.519c0,0-.522,3.682,1.227,5.055Z" transform="translate(-916.709 -250.413)" fill="#f8ff7e"/>
      <path id="パス_2676" data-name="パス 2676" d="M1082.461,261.379s-.441-4.121-1.749-4.619c0,0-.22,3.3,1.577,4.9Z" transform="translate(-920.578 -232.182)" fill="#f8ff7e"/>
      <path id="パス_2677" data-name="パス 2677" d="M1092.2,239.447s-.226-3.357-1.185-4.087c0,0-.661,3.739.755,4.8Z" transform="translate(-929.201 -214.011)" fill="#f8ff7e"/>
      <path id="パス_2678" data-name="パス 2678" d="M1093.44,209.966l-1.246-5.536s-.905,4.661,1.358,6.542Z" transform="translate(-930.183 -187.748)" fill="#f8ff7e"/>
      <path id="パス_2679" data-name="パス 2679" d="M1086.179,181.5s-2.508-3.612-2.49-4.036c0,0,.5,3.923,3.47,5.7Z" transform="translate(-923.113 -164.848)" fill="#f8ff7e"/>
      <path id="パス_2680" data-name="パス 2680" d="M1081.889,165.389s-2.485-5.2-3.479-5.569a6.8,6.8,0,0,1,3.648,5.406Z" transform="translate(-918.631 -149.869)" fill="#f8ff7e"/>
      <path id="パス_2681" data-name="パス 2681" d="M1097.251,205.212l-.151-.035c1.418-6,1.623-9.779.576-10.649l.1-.118C1098.886,195.339,1098.705,199.074,1097.251,205.212Z" transform="translate(-934.5 -179.24)" fill="#444053"/>
      <path id="パス_2682" data-name="パス 2682" d="M1069.912,277.644l-.222-.062c.151-.552.328-1.112.509-1.66,1.575-4.813,2.892-9.279,3.7-12.7l.181-.106c-.81,3.422-2.087,8.056-3.665,12.874C1070.236,276.54,1070.066,277.1,1069.912,277.644Z" transform="translate(-911.226 -237.583)" fill="#444053"/>
      <path id="パス_2683" data-name="パス 2683" d="M1061.843,356.2c-.011.035-.02.068-.029.1q-.3,1.046-.521,2.067c-.011.048-.02.1-.032.151-.066.3-.128.6-.187.905a.331.331,0,0,1-.012.066q-.217,1.127-.356,2.221a.653.653,0,0,1-.015.106h0c-.027.21-.051.419-.074.629v.047c-.106.963-.169,1.9-.2,2.82,0,.151,0,.315-.01.471v.3a.423.423,0,0,1-.06-.021l-.017-.238-.06.038-.041.284c-.05.014-.1.026-.151.035v-.207c0-.249.018-.5.03-.754.044-.89.122-1.791.231-2.695.042-.353.091-.711.142-1.067h0q.151-1.065.371-2.124c.094-.471.195-.935.3-1.4h0q.173-.754.376-1.492c.016-.065.036-.13.053-.195h0c.021-.074.042-.151.061-.22l.009-.026.045.048.042.042Z" transform="translate(-903.066 -316.449)" fill="#444053"/>
    </g>
    <path id="パス_2741" data-name="パス 2741" d="M287.482,270.042l-.406-.817,2.043-1.015s2.254-3.667,6.332-2.637,5.913,1.647,5.913,1.647l2.038,1.025-1.023,1.018,1.835.617-1.226.609,1.426.82-.768,4.2s-1.275-3.188-3.727-1.969-6.936-.63-6.936-.63l-3.9,7.54s-.8-2.643-2.237-1.938C286.852,278.514,283.191,272.684,287.482,270.042Z" transform="translate(7732.962 5645.21)" fill="#2f2e41"/>
    <path id="パス_2742" data-name="パス 2742" d="M287.539,270.259l-.417-.855,2.1-1.062s2.315-3.838,6.505-2.759,6.075,1.724,6.075,1.724l2.094,1.073-1.051,1.065,1.885.646-1.259.637,1.465.858-.789,4.4s-1.31-3.336-3.829-2.061-7.126-.659-7.126-.659l-4,7.891s-.826-2.766-2.3-2.029C286.892,279.126,283.13,273.024,287.539,270.259Z" transform="translate(7732.962 5645.211)" fill="rgba(47,46,65,0.28)"/>
  </g>
</svg>
