<svg xmlns="http://www.w3.org/2000/svg" width="188.215" height="187.189" viewBox="0 0 188.215 187.189">
  <g id="イラスト" transform="translate(-63.855)">
    <path id="パス_1662" data-name="パス 1662" d="M441.942,694.854H254.272c-.15,0-.272-.168-.272-.375s.122-.374.272-.374h187.67c.15,0,.272.168.272.374S442.093,694.854,441.942,694.854Z" transform="translate(-190.145 -509.1)" fill="#ccc"/>
    <path id="パス_1663" data-name="パス 1663" d="M618.673,521.7H466.638a2.434,2.434,0,1,0,0,4.868h4.306V584.8a2.434,2.434,0,1,0,4.868,0l.037-58.23H609.124V584.8a2.434,2.434,0,1,0,4.868,0V527.855l.708-1.283h3.973a2.434,2.434,0,0,0,0-4.868Z" transform="translate(-392.553 -401.258)" fill="#ccc"/>
    <path id="パス_1664" data-name="パス 1664" d="M613.247,471.514H567.194a3.367,3.367,0,0,1-3.363-3.363V442.8a3.367,3.367,0,0,1,3.363-3.363h46.053a3.367,3.367,0,0,1,3.363,3.363V468.15A3.367,3.367,0,0,1,613.247,471.514Z" transform="translate(-454.872 -349.795)" fill="#3f3d56"/>
    <path id="パス_1665" data-name="パス 1665" d="M617.571,446.345H571.518a.777.777,0,0,0-.775.775v25.355a.777.777,0,0,0,.775.775h46.053a.777.777,0,0,0,.775-.775V447.12A.777.777,0,0,0,617.571,446.345Z" transform="translate(-459.196 -354.119)" fill="#fff"/>
    <ellipse id="楕円形_266" data-name="楕円形 266" cx="4.295" cy="5.2" rx="4.295" ry="5.2" transform="translate(130.303 97.376)" fill="#a0616a"/>
    <path id="パス_1667" data-name="パス 1667" d="M618.918,451.443a2.967,2.967,0,0,1,2.823-1.818,5.218,5.218,0,0,1,1.706.578l2.808,1.326a3.156,3.156,0,0,1,1.838,1.627,4.391,4.391,0,0,1-.147,2.562l-1.051,3.967a14.108,14.108,0,0,0-.6-2.62,3.917,3.917,0,0,0-1.455-2.009,4,4,0,0,0-2.408-.4,4.277,4.277,0,0,0-3.244,1.236,4.437,4.437,0,0,0-.855,2.022,14.658,14.658,0,0,0-.179,2.289,21.044,21.044,0,0,1-1.2-3.106,9.094,9.094,0,0,1-.445-2.515,4.036,4.036,0,0,1,.669-2.392,1.726,1.726,0,0,1,1.927-.734Z" transform="translate(-487.642 -356.167)" fill="#2f2e41"/>
    <path id="パス_1670" data-name="パス 1670" d="M489.027,492.735v10.308H463.2a5.157,5.157,0,1,1,0-10.308Z" transform="translate(-388.588 -383.135)" fill="#f2f2f2"/>
    <path id="パス_1671" data-name="パス 1671" d="M488.735,502.571a.4.4,0,0,1-.4.4H461.816a5.431,5.431,0,1,1,0-10.863h26.522a.4.4,0,0,1,0,.793H461.816a4.638,4.638,0,1,0,0,9.277h26.522A.4.4,0,0,1,488.735,502.571Z" transform="translate(-387.661 -382.743)" fill="#4e84ff"/>
    <path id="パス_1672" data-name="パス 1672" d="M494.59,498.827H466.839a.079.079,0,1,1,0-.159H494.59a.079.079,0,1,1,0,.159Z" transform="translate(-394.151 -386.849)" fill="#ccc"/>
    <path id="パス_1673" data-name="パス 1673" d="M494.59,503.909H466.839a.079.079,0,1,1,0-.159H494.59a.079.079,0,1,1,0,.159Z" transform="translate(-394.151 -390.028)" fill="#ccc"/>
    <path id="パス_1674" data-name="パス 1674" d="M494.59,508.99H466.839a.079.079,0,1,1,0-.159H494.59a.079.079,0,1,1,0,.159Z" transform="translate(-394.151 -393.207)" fill="#ccc"/>
    <path id="パス_1675" data-name="パス 1675" d="M494.59,514.072H466.839a.079.079,0,0,1,0-.159H494.59a.079.079,0,0,1,0,.159Z" transform="translate(-394.151 -396.385)" fill="#ccc"/>
    <path id="パス_1676" data-name="パス 1676" d="M476.027,463.735v10.308H450.2a5.157,5.157,0,1,1,0-10.308Z" transform="translate(-380.457 -364.995)" fill="#f2f2f2"/>
    <path id="パス_1677" data-name="パス 1677" d="M475.734,473.571a.4.4,0,0,1-.4.4H448.816a5.431,5.431,0,1,1,0-10.863h26.522a.4.4,0,0,1,0,.793H448.816a4.638,4.638,0,1,0,0,9.277h26.522A.4.4,0,0,1,475.734,473.571Z" transform="translate(-379.529 -364.603)" fill="#3f3d56"/>
    <path id="パス_1678" data-name="パス 1678" d="M481.59,469.827H453.839a.079.079,0,0,1,0-.159H481.59a.079.079,0,0,1,0,.159Z" transform="translate(-386.019 -368.709)" fill="#ccc"/>
    <path id="パス_1679" data-name="パス 1679" d="M481.59,474.909H453.839a.079.079,0,0,1,0-.159H481.59a.079.079,0,0,1,0,.159Z" transform="translate(-386.019 -371.888)" fill="#ccc"/>
    <path id="パス_1680" data-name="パス 1680" d="M481.59,479.99H453.839a.079.079,0,0,1,0-.159H481.59a.079.079,0,1,1,0,.159Z" transform="translate(-386.019 -375.066)" fill="#ccc"/>
    <path id="パス_1681" data-name="パス 1681" d="M481.59,485.072H453.839a.079.079,0,0,1,0-.159H481.59a.079.079,0,0,1,0,.159Z" transform="translate(-386.019 -378.245)" fill="#ccc"/>
    <path id="パス_1682" data-name="パス 1682" d="M546.376,600.59V591.6a1.5,1.5,0,0,0-1.5-1.5H510.8a1.5,1.5,0,0,0-1.5,1.5v8.987Z" transform="translate(-420.763 -444.045)" fill="#ccc"/>
    <rect id="長方形_229" data-name="長方形 229" width="37.073" height="11.609" transform="translate(88.54 159.915)" fill="#ccc"/>
    <path id="パス_1683" data-name="パス 1683" d="M509.3,667.1v8.987a1.5,1.5,0,0,0,1.5,1.5h34.077a1.5,1.5,0,0,0,1.5-1.5V667.1Z" transform="translate(-420.763 -492.211)" fill="#ccc"/>
    <circle id="楕円形_267" data-name="楕円形 267" cx="1.123" cy="1.123" r="1.123" transform="translate(105.765 150.553)" fill="#fff"/>
    <circle id="楕円形_268" data-name="楕円形 268" cx="1.123" cy="1.123" r="1.123" transform="translate(105.765 165.532)" fill="#fff"/>
    <circle id="楕円形_269" data-name="楕円形 269" cx="1.123" cy="1.123" r="1.123" transform="translate(105.826 180.194)" fill="#fff"/>
    <path id="パス_1684" data-name="パス 1684" d="M545.027,562.735v10.308H519.2a5.157,5.157,0,1,1,0-10.308Z" transform="translate(-423.618 -426.922)" fill="#f2f2f2"/>
    <path id="パス_1685" data-name="パス 1685" d="M544.734,572.571a.4.4,0,0,1-.4.4H517.816a5.431,5.431,0,0,1,0-10.863h26.522a.4.4,0,1,1,0,.793H517.816a4.638,4.638,0,0,0,0,9.277h26.522A.4.4,0,0,1,544.734,572.571Z" transform="translate(-422.691 -426.53)" fill="#3f3d56"/>
    <path id="パス_1686" data-name="パス 1686" d="M550.59,568.827H522.839a.079.079,0,1,1,0-.159H550.59a.079.079,0,1,1,0,.159Z" transform="translate(-429.181 -430.636)" fill="#ccc"/>
    <path id="パス_1687" data-name="パス 1687" d="M550.59,573.909H522.839a.079.079,0,0,1,0-.159H550.59a.079.079,0,0,1,0,.159Z" transform="translate(-429.181 -433.815)" fill="#ccc"/>
    <path id="パス_1688" data-name="パス 1688" d="M550.59,578.99H522.839a.079.079,0,1,1,0-.159H550.59a.079.079,0,1,1,0,.159Z" transform="translate(-429.181 -436.994)" fill="#ccc"/>
    <path id="パス_1689" data-name="パス 1689" d="M550.59,584.072H522.839a.079.079,0,0,1,0-.159H550.59a.079.079,0,0,1,0,.159Z" transform="translate(-429.181 -440.172)" fill="#ccc"/>
    <path id="パス_1690" data-name="パス 1690" d="M504.11,268.6v-65.72a2.82,2.82,0,0,1,2.817-2.817h51.95a2.82,2.82,0,0,1,2.817,2.817V268.6a2.82,2.82,0,0,1-2.817,2.817h-51.95A2.82,2.82,0,0,1,504.11,268.6Zm2.817-67.91a2.193,2.193,0,0,0-2.191,2.191V268.6a2.193,2.193,0,0,0,2.191,2.191h51.95a2.193,2.193,0,0,0,2.191-2.191v-65.72a2.193,2.193,0,0,0-2.191-2.191Z" transform="translate(-417.515 -200.062)" fill="#e6e6e6"/>
    <path id="パス_1691" data-name="パス 1691" d="M588.776,255.766V242.271a1.41,1.41,0,0,1,1.408-1.408h11.435a1.41,1.41,0,0,1,1.408,1.408v13.494a1.41,1.41,0,0,1-1.408,1.408H590.184A1.41,1.41,0,0,1,588.776,255.766Z" transform="translate(-470.476 -225.584)" fill="#4e84ff"/>
    <path id="パス_1692" data-name="パス 1692" d="M529.44,272.48V258.986a1.41,1.41,0,0,1,1.408-1.408h11.435a1.41,1.41,0,0,1,1.408,1.408V272.48a1.41,1.41,0,0,1-1.408,1.408H530.848a1.41,1.41,0,0,1-1.408-1.408Z" transform="translate(-433.359 -236.039)" fill="#ccc"/>
    <path id="パス_1693" data-name="パス 1693" d="M577.076,323.458V309.964a1.41,1.41,0,0,1,1.408-1.408h11.435a1.41,1.41,0,0,1,1.408,1.408v13.494a1.41,1.41,0,0,1-1.408,1.408H578.484a1.41,1.41,0,0,1-1.408-1.408Z" transform="translate(-463.157 -267.928)" fill="#96bf46"/>
    <path id="パス_1694" data-name="パス 1694" d="M733.86,513.1H722.094a.728.728,0,0,0-.322.075l-2.97,1.487a.541.541,0,0,0,0,1l2.97,1.487a.727.727,0,0,0,.322.075H733.86a.618.618,0,0,0,.652-.573v-2.973A.618.618,0,0,0,733.86,513.1Z" transform="translate(-551.605 -395.878)" fill="#3f3d56"/>
    <path id="パス_1695" data-name="パス 1695" d="M756.3,513.676v2.973a.618.618,0,0,1-.652.573H753.3V513.1h2.344A.618.618,0,0,1,756.3,513.676Z" transform="translate(-573.393 -395.878)" fill="#4e84ff"/>
    <path id="パス_1696" data-name="パス 1696" d="M755.172,453.141a4.12,4.12,0,0,1,5.576,2.589,3.975,3.975,0,0,1,.12.537l16.453,8.159,3.808-2.523,4.738,5.454-5.814,4.722a4.175,4.175,0,0,1-4.981.192l-16.694-11.544a3.938,3.938,0,0,1-.38.139,4.12,4.12,0,0,1-5.246-3.206,4.006,4.006,0,0,1-.061-.5A4.133,4.133,0,0,1,755.172,453.141Z" transform="translate(-573.005 -358.159)" fill="#ffb8b8"/>
    <path id="パス_1697" data-name="パス 1697" d="M786.724,587.853H768.746c0,.517-18.529.936-18.529.936a4.819,4.819,0,0,0-.79.749,4.647,4.647,0,0,0-1.086,3v.749a4.683,4.683,0,0,0,4.681,4.681h33.7a4.685,4.685,0,0,0,4.681-4.681v-.749A4.687,4.687,0,0,0,786.724,587.853Z" transform="translate(-570.289 -442.637)" fill="#3f3d56"/>
    <rect id="長方形_230" data-name="長方形 230" width="4.868" height="31.456" transform="translate(201.748 186.597) rotate(180)" fill="#3f3d56"/>
    <path id="パス_1698" data-name="パス 1698" d="M761.618,690.054c0,.526,7.377.2,16.477.2s16.477.323,16.477-.2-7.377-4.7-16.477-4.7S761.618,689.528,761.618,690.054Z" transform="translate(-578.594 -503.628)" fill="#3f3d56"/>
    <path id="パス_1699" data-name="パス 1699" d="M508.036,468.1h-4.591L501.261,456.2h6.776Z" transform="translate(-320.617 -285.363)" fill="#ffb8b8"/>
    <path id="パス_1700" data-name="パス 1700" d="M751.752,690h-14.8v-.187a5.762,5.762,0,0,1,5.762-5.762h9.041Z" transform="translate(-563.163 -502.811)" fill="#2f2e41"/>
    <path id="パス_1701" data-name="パス 1701" d="M738.655,597.586,729.5,577.062a7.522,7.522,0,0,1,3.3-9.655l19.852-10.645,9.059-.771,8.356-.76.06.1a8.457,8.457,0,0,1,.659,6.636c-.921,2.581-3.317,4.6-7.122,5.992-8.88,3.256-19.139,6.039-23.137,7.084a1.292,1.292,0,0,0-.828.659,1.31,1.31,0,0,0-.073,1.048l8.5,19.1a1.685,1.685,0,0,1-1.427,2.258l-6.353.463q-.081.008-.161.008a1.684,1.684,0,0,1-1.538-1Z" transform="translate(-558.102 -422.231)" fill="#8eb540"/>
    <path id="パス_1702" data-name="パス 1702" d="M514.036,468.1h-4.591L507.261,456.2h6.776Z" transform="translate(-324.37 -285.363)" fill="#ffb8b8"/>
    <path id="パス_1703" data-name="パス 1703" d="M757.752,690h-14.8v-.187a5.762,5.762,0,0,1,5.762-5.762h9.041Z" transform="translate(-566.916 -502.811)" fill="#2f2e41"/>
    <path id="パス_1704" data-name="パス 1704" d="M745.655,600.586,736.5,580.062a7.522,7.522,0,0,1,3.3-9.655l19.852-10.645,9.059-.771,8.356-.76.06.1a8.457,8.457,0,0,1,.659,6.636c-.921,2.581-3.317,4.6-7.122,5.992-8.88,3.256-19.139,6.039-23.137,7.084a1.292,1.292,0,0,0-.828.659,1.31,1.31,0,0,0-.073,1.048l8.5,19.1a1.685,1.685,0,0,1-1.427,2.258l-6.353.463q-.081.008-.161.008A1.684,1.684,0,0,1,745.655,600.586Z" transform="translate(-562.481 -424.107)" fill="#96bf46"/>
    <path id="パス_1705" data-name="パス 1705" d="M734.63,460.461a62.725,62.725,0,0,1-9.016-16.826,1.611,1.611,0,0,1,.761-1.94l13.161-7.052a1.591,1.591,0,0,1,1.4-.057,1.617,1.617,0,0,1,.922,1.08,38.319,38.319,0,0,0,8.405,15.687,1.617,1.617,0,0,1,.389,1.365,1.591,1.591,0,0,1-.82,1.13L736.666,460.9A1.611,1.611,0,0,1,734.63,460.461Z" transform="translate(-556.018 -346.681)" fill="#ccc"/>
    <path id="パス_1706" data-name="パス 1706" d="M737.4,461.663a.486.486,0,0,0,.607.125l13.161-7.052a.467.467,0,0,0,.244-.336.494.494,0,0,0-.122-.422,39.447,39.447,0,0,1-8.653-16.149.494.494,0,0,0-.284-.335.467.467,0,0,0-.416.017l-13.161,7.052a.486.486,0,0,0-.232.576A61.6,61.6,0,0,0,737.4,461.663Z" transform="translate(-557.894 -348.557)" fill="#fff"/>
    <path id="パス_1707" data-name="パス 1707" d="M844.758,484.4l-10.307,3.917-2.516-6.99a4.182,4.182,0,0,1,1.873-5.055h0a4.182,4.182,0,0,1,5.341,1.043Z" transform="translate(-622.424 -372.496)" fill="#4e84ff"/>
    <path id="パス_1708" data-name="パス 1708" d="M794.307,511.8a1.872,1.872,0,0,1-.78-1.329c-1.32-12.324-.4-21.968,2.811-29.484a9.359,9.359,0,0,1,6.2-5.31l8.332-.421.043.021a9.738,9.738,0,0,1,5.325,10.331c-2.68,7.064-4.924,14.418-3.212,20.351a1.918,1.918,0,0,1-.181,1.492,1.829,1.829,0,0,1-1.167.865l-15.87,3.775A1.859,1.859,0,0,1,794.307,511.8Z" transform="translate(-598.189 -372.204)" fill="#4e84ff"/>
    <circle id="楕円形_270" data-name="楕円形 270" cx="9.197" cy="9.197" r="9.197" transform="translate(200.706 81.545)" fill="#ffb8b8"/>
    <path id="パス_1709" data-name="パス 1709" d="M750.339,457.574l-7.168,3.164a1.125,1.125,0,0,1-1.481-.574l-.177-.4a1.125,1.125,0,0,1,.574-1.481l7.168-3.164a1.125,1.125,0,0,1,1.481.574l.177.4A1.125,1.125,0,0,1,750.339,457.574Z" transform="translate(-565.958 -359.546)" fill="#ccc"/>
    <path id="パス_1710" data-name="パス 1710" d="M757.339,470.574l-7.168,3.164a1.125,1.125,0,0,1-1.481-.574l-.177-.4a1.125,1.125,0,0,1,.574-1.481l7.168-3.164a1.125,1.125,0,0,1,1.481.574l.177.4A1.125,1.125,0,0,1,757.339,470.574Z" transform="translate(-570.336 -367.678)" fill="#ccc"/>
    <path id="パス_1711" data-name="パス 1711" d="M751.207,491.167l-15.98-12.607a3.958,3.958,0,0,1-.388.114,4.129,4.129,0,0,1-3.3-.633,4.086,4.086,0,0,1-1.732-2.9,4.12,4.12,0,0,1,8.1-1.423,3.952,3.952,0,0,1,.086.544l15.908,9.177,3.959-2.279,4.385,5.741-6.147,4.381a4.1,4.1,0,0,1-4.89-.119Z" transform="translate(-558.676 -369.257)" fill="#ffb8b8"/>
    <path id="パス_1712" data-name="パス 1712" d="M806.455,495.557l-9.118-6.2,4.285-6.069a4.182,4.182,0,0,1,5.216-1.363h0a4.182,4.182,0,0,1,2.207,4.974Z" transform="translate(-600.937 -376.12)" fill="#4e84ff"/>
    <path id="パス_1713" data-name="パス 1713" d="M808.361,419.77c-2.364,1.618-5.468,3.281-7.882,1.558a4.393,4.393,0,0,1-1.442-5.065c1.156-3.306,4.332-4.762,7.37-5.877,3.949-1.45,8.248-2.6,12.324-1.566s7.679,4.985,6.943,9.127c-.592,3.331-3.733,6.1-3.287,9.455.449,3.375,4.244,5.151,7.595,5.754s7.1.8,9.508,3.2c3.072,3.07,2.3,8.558-.586,11.8s-7.252,4.711-11.479,5.71c-5.6,1.323-11.657,2.019-16.975-.177s-9.458-8.109-7.917-13.653a19.048,19.048,0,0,1,3.666-6.248,17.411,17.411,0,0,0,3.547-6.306,6.555,6.555,0,0,0-1.184-5.735,1.661,1.661,0,0,1-.223-1.942Z" transform="translate(-601.83 -330.397)" fill="#5a3414"/>
    <rect id="長方形_315" data-name="長方形 315" width="3" height="4" transform="translate(133.089 106.877)" fill="#a0616a"/>
    <path id="パス_1666" data-name="パス 1666" d="M627.608,493.705s-4.553-1.27-7.058,1.059,3.187,7.622,3.187,7.622Z" transform="translate(-489.989 -383.528)" fill="#2f2e41"/>
    <path id="パス_1668" data-name="パス 1668" d="M623.459,497.689a.829.829,0,0,0-.64-.67.266.266,0,0,0-.031-.022l-6.412-4.351a.74.74,0,0,0-1.091.34l-1.754,3.438-2.641-3.2-.042-.051a.713.713,0,0,0-1.044-.111l-5.27,4.468c-.009,0-.019,0-.028,0a1.3,1.3,0,0,0-.937,1.269l-.136,3.329h21.043Z" transform="translate(-478.606 -383.003)" fill="#4e84ff"/>
    <path id="パス_1669" data-name="パス 1669" d="M613.67,515.95h-4.916a.517.517,0,0,0-.517-.518h-1.552a.517.517,0,0,0-.517.518h-1.552a.517.517,0,0,0-.517-.518h-1.552a.518.518,0,0,0-.518.518h-1.552a.517.517,0,0,0-.517-.518h-1.552a.518.518,0,0,0-.518.518h-1.552a.518.518,0,0,0-.518-.518h-1.552a.517.517,0,0,0-.517.518H592.2a.517.517,0,0,0-.517-.518h-1.552a.518.518,0,0,0-.518.518h-1.552a.517.517,0,0,0-.517-.518h-1.552a.517.517,0,0,0-.517.518h-1.552a.518.518,0,0,0-.518-.518h-1.552a.517.517,0,0,0-.517.518h-1.552a.517.517,0,0,0-.517-.518h-1.552a.517.517,0,0,0-.517.518h-1.552a.517.517,0,0,0-.517-.518h-1.552a.517.517,0,0,0-.517.518H571.5a.517.517,0,0,0-.517-.518h-1.552a.517.517,0,0,0-.517.518h-1.552a.517.517,0,0,0-.517-.518h-1.552a.518.518,0,0,0-.518.518h-4.916a1.552,1.552,0,0,0,0,3.1H613.67a1.552,1.552,0,0,0,0-3.1Z" transform="translate(-451.414 -397.335)" fill="#3f3d56"/>
  </g>
</svg>
