<svg xmlns="http://www.w3.org/2000/svg" width="263.078" height="169.811" viewBox="0 0 263.078 169.811">
  <g id="イラスト" transform="translate(2380 -6946.279)">
    <g id="グループ_1276" data-name="グループ 1276" transform="translate(-2265.636 6946.279)">
      <circle id="楕円形_301" data-name="楕円形 301" cx="2.636" cy="2.636" r="2.636" fill="#fff"/>
      <circle id="楕円形_302" data-name="楕円形 302" cx="2.636" cy="2.636" r="2.636" transform="translate(0 10.505)" fill="#fff"/>
      <circle id="楕円形_303" data-name="楕円形 303" cx="2.636" cy="2.636" r="2.636" transform="translate(11.005)" fill="#fff"/>
      <circle id="楕円形_304" data-name="楕円形 304" cx="2.636" cy="2.636" r="2.636" transform="translate(11.005 10.505)" fill="#fff"/>
      <circle id="楕円形_305" data-name="楕円形 305" cx="2.636" cy="2.636" r="2.636" transform="translate(22.01)" fill="#fff"/>
      <circle id="楕円形_306" data-name="楕円形 306" cx="2.636" cy="2.636" r="2.636" transform="translate(22.01 10.505)" fill="#fff"/>
      <circle id="楕円形_307" data-name="楕円形 307" cx="2.636" cy="2.636" r="2.636" transform="translate(22.01 21.01)" fill="#fff"/>
      <circle id="楕円形_308" data-name="楕円形 308" cx="2.636" cy="2.636" r="2.636" transform="translate(22.01 31.515)" fill="#fff"/>
      <circle id="楕円形_309" data-name="楕円形 309" cx="2.636" cy="2.636" r="2.636" transform="translate(33.015)" fill="#fff"/>
      <circle id="楕円形_310" data-name="楕円形 310" cx="2.636" cy="2.636" r="2.636" transform="translate(33.015 10.505)" fill="#fff"/>
      <circle id="楕円形_311" data-name="楕円形 311" cx="2.636" cy="2.636" r="2.636" transform="translate(33.015 21.01)" fill="#fff"/>
      <circle id="楕円形_312" data-name="楕円形 312" cx="2.636" cy="2.636" r="2.636" transform="translate(33.015 31.515)" fill="#fff"/>
      <circle id="楕円形_313" data-name="楕円形 313" cx="2.636" cy="2.636" r="2.636" transform="translate(44.02)" fill="#fff"/>
      <circle id="楕円形_314" data-name="楕円形 314" cx="2.636" cy="2.636" r="2.636" transform="translate(44.02 10.505)" fill="#fff"/>
      <circle id="楕円形_315" data-name="楕円形 315" cx="2.636" cy="2.636" r="2.636" transform="translate(55.025)" fill="#fff"/>
      <circle id="楕円形_316" data-name="楕円形 316" cx="2.636" cy="2.636" r="2.636" transform="translate(55.025 10.505)" fill="#fff"/>
      <circle id="楕円形_334" data-name="楕円形 334" cx="2.636" cy="2.636" r="2.636" transform="translate(44.02 21.01)" fill="#fff"/>
      <circle id="楕円形_335" data-name="楕円形 335" cx="2.636" cy="2.636" r="2.636" transform="translate(44.02 31.515)" fill="#fff"/>
      <circle id="楕円形_336" data-name="楕円形 336" cx="2.636" cy="2.636" r="2.636" transform="translate(55.025 21.01)" fill="#fff"/>
      <circle id="楕円形_337" data-name="楕円形 337" cx="2.636" cy="2.636" r="2.636" transform="translate(55.025 31.515)" fill="#fff"/>
    </g>
    <path id="パス_2058" data-name="パス 2058" d="M206.49,675.145H468.761a.493.493,0,0,0,0-.971H206.49a.493.493,0,0,0,0,.971Z" transform="translate(-2586.086 6440.944)" fill="#3f3d56"/>
    <path id="パス_2059" data-name="パス 2059" d="M246.516,569.8v.815a5.1,5.1,0,0,0,5.095,5.095h36.683a5.1,5.1,0,0,0,5.095-5.095V569.8a5.058,5.058,0,0,0-1.182-3.261,5.243,5.243,0,0,0-.86-.815s-20.168-.456-20.168-1.019H251.611A5.1,5.1,0,0,0,246.516,569.8Z" transform="translate(-2610.037 6505.796)" fill="#3f3d56"/>
    <rect id="長方形_282" data-name="長方形 282" width="5.299" height="34.238" transform="translate(-2337.637 7115.539) rotate(180)" fill="#3f3d56"/>
    <path id="パス_2060" data-name="パス 2060" d="M260.021,667.318c0,.573,8.029.221,17.934.221s17.934.351,17.934-.221-8.029-5.113-17.934-5.113S260.021,666.746,260.021,667.318Z" transform="translate(-2618.038 6448.034)" fill="#3f3d56"/>
    <path id="パス_2061" data-name="パス 2061" d="M163.529,413h5L170.9,393.73h-7.375Z" transform="translate(-2476.875 6698.156)" fill="#a0616a"/>
    <path id="パス_2062" data-name="パス 2062" d="M0,0H15.7V6.068H6.068A6.068,6.068,0,0,1,0,0H0Z" transform="translate(-2298.713 7115.8) rotate(179.997)" fill="#0d00ff"/>
    <path id="パス_2063" data-name="パス 2063" d="M174.28,404.238l4.768-1.5-3.5-19.1-7.037,2.208Z" transform="translate(-2479.826 6704.133)" fill="#a0616a"/>
    <path id="パス_2064" data-name="パス 2064" d="M0,0H15.7V6.068H6.068A6.068,6.068,0,0,1,0,0H0Z" transform="translate(-2290.195 7108.417) rotate(162.577)" fill="#0d00ff"/>
    <path id="パス_2065" data-name="パス 2065" d="M328.247,579l-9.141-24c-2.051.482-19.249,4.287-25.009-1.846-1.974-2.1-2.359-5.147-1.144-9.052l3.362-4.224.1.006c1.271.067,31.154,1.742,33.2,10.756,1.727,7.6,4.882,21.767,5.807,25.929a1.841,1.841,0,0,1-1.147,2.113l-3.676,1.378a1.818,1.818,0,0,1-.641.117A1.839,1.839,0,0,1,328.247,579Z" transform="translate(-2637.136 6520.5)" fill="#a76700"/>
    <path id="パス_2066" data-name="パス 2066" d="M315.247,586l-9.141-24c-2.051.482-19.249,4.287-25.009-1.846-1.974-2.1-2.359-5.147-1.144-9.052l3.362-4.224.1.006c1.271.067,31.154,1.742,33.2,10.756,1.727,7.6,4.882,21.767,5.807,25.929a1.84,1.84,0,0,1-1.147,2.113l-3.676,1.378a1.819,1.819,0,0,1-.641.117A1.839,1.839,0,0,1,315.247,586Z" transform="translate(-2629.435 6516.353)" fill="#b77100"/>
    <path id="パス_2067" data-name="パス 2067" d="M333.394,509.94a7.824,7.824,0,0,1-6.719-3.82l-2.9-4.918,6.9-3.771,2.93,4.017,19.88-2.094a4.306,4.306,0,0,1,.326-.5h0a4.49,4.49,0,0,1,3.209-1.758,4.44,4.44,0,0,1,3.462,1.228,4.484,4.484,0,0,1-5.81,6.813,4.232,4.232,0,0,1-.335-.285l-19.04,4.855A7.68,7.68,0,0,1,333.394,509.94Z" transform="translate(-2655.804 6545.858)" fill="#a0616a"/>
    <path id="パス_2068" data-name="パス 2068" d="M277.226,503.047a1.837,1.837,0,0,1-.741-1.772c1.134-7.476-.171-18.186-1.465-25.855A10.106,10.106,0,0,1,286.252,463.7a32.541,32.541,0,0,1,4.04.8h0a10.025,10.025,0,0,1,7.574,9.973c-.194,7.4,1.309,16.632,1.964,20.258a1.842,1.842,0,0,1-.34,1.431,1.79,1.79,0,0,1-1.262.713c-7.258.741-15.086,4.281-19.106,6.324a1.835,1.835,0,0,1-.835.2,1.805,1.805,0,0,1-1.062-.35Z" transform="translate(-2626.838 6565.681)" fill="#00309b"/>
    <path id="パス_2069" data-name="パス 2069" d="M320.8,488.513a1.823,1.823,0,0,1-1.008-.977l-4.048-9.351a4.687,4.687,0,0,1,8.6-3.724l4.048,9.351a1.836,1.836,0,0,1-.955,2.412L322.2,488.49A1.821,1.821,0,0,1,320.8,488.513Z" transform="translate(-2650.82 6560.93)" fill="#00309b"/>
    <circle id="楕円形_319" data-name="楕円形 319" cx="10.011" cy="10.011" r="10.011" transform="translate(-2351.341 7006.174)" fill="#a0616a"/>
    <path id="パス_2071" data-name="パス 2071" d="M348.794,570.068H332.543a1.731,1.731,0,0,1-1.368-.663,1.76,1.76,0,0,1-.329-1.51,41.708,41.708,0,0,0,0-19.371,1.76,1.76,0,0,1,.329-1.51,1.73,1.73,0,0,1,1.368-.663h16.252a1.754,1.754,0,0,1,1.727,1.47,68.275,68.275,0,0,1,0,20.777A1.754,1.754,0,0,1,348.794,570.068Z" transform="translate(-2659.965 6516.668)" fill="#ccc"/>
    <path id="パス_2072" data-name="パス 2072" d="M344.352,565.557v-.478a1.224,1.224,0,0,1,1.223-1.223H354.1a1.224,1.224,0,0,1,1.223,1.223v.478a1.224,1.224,0,0,1-1.223,1.223h-8.528A1.224,1.224,0,0,1,344.352,565.557Z" transform="translate(-2667.996 6506.297)" fill="#fff"/>
    <path id="パス_2073" data-name="パス 2073" d="M344.352,577.9v-.478a1.224,1.224,0,0,1,1.223-1.223H354.1a1.224,1.224,0,0,1,1.223,1.223v.478a1.224,1.224,0,0,1-1.223,1.223h-8.528A1.224,1.224,0,0,1,344.352,577.9Z" transform="translate(-2667.996 6498.985)" fill="#fff"/>
    <path id="パス_2074" data-name="パス 2074" d="M356.654,498.227a1.79,1.79,0,0,1-.335-1.535,42.39,42.39,0,0,0,0-19.689,1.79,1.79,0,0,1,.335-1.535,1.76,1.76,0,0,1,1.39-.674h16.519a1.782,1.782,0,0,1,1.755,1.494,69.388,69.388,0,0,1,0,21.118,1.782,1.782,0,0,1-1.755,1.494H358.044A1.76,1.76,0,0,1,356.654,498.227Z" transform="translate(-2675.055 6559.058)" fill="#4e84ff"/>
    <path id="パス_2075" data-name="パス 2075" d="M378.907,492.307h-8.7a1.224,1.224,0,0,1-1.223-1.223v-.519a1.224,1.224,0,0,1,1.223-1.223h8.7a1.224,1.224,0,0,1,1.223,1.223v.519A1.224,1.224,0,0,1,378.907,492.307Z" transform="translate(-2682.587 6550.439)" fill="#fff"/>
    <path id="パス_2076" data-name="パス 2076" d="M378.907,504.855h-8.7a1.224,1.224,0,0,1-1.223-1.223v-.519a1.224,1.224,0,0,1,1.223-1.223h8.7a1.224,1.224,0,0,1,1.223,1.223v.519A1.224,1.224,0,0,1,378.907,504.855Z" transform="translate(-2682.587 6543.007)" fill="#fff"/>
    <path id="パス_2077" data-name="パス 2077" d="M298.807,523.114a4.491,4.491,0,0,1-2.663-2.51,4.2,4.2,0,0,1-.146-.415l-21.326-6.07a4.435,4.435,0,0,1-3.2-4.216l-.052-8.234,7.861.21.512,4.946,18.236,8.187a4.317,4.317,0,0,1,.535-.271h0a4.488,4.488,0,1,1,.248,8.372Z" transform="translate(-2624.788 6543.138)" fill="#a0616a"/>
    <path id="パス_2078" data-name="パス 2078" d="M271.047,487.431a1.822,1.822,0,0,1-.456-1.328l.625-10.17a4.687,4.687,0,0,1,9.357.576l-.625,10.17A1.836,1.836,0,0,1,278,488.4l-5.7-.35A1.822,1.822,0,0,1,271.047,487.431Z" transform="translate(-2624.297 6560.99)" fill="#00309b"/>
    <g id="グループ_1279" data-name="グループ 1279" transform="translate(-2201.25 6991.333)">
      <path id="パス_2044" data-name="パス 2044" d="M884.479,564.7H864.91c0,.562-20.168,1.019-20.168,1.019a5.238,5.238,0,0,0-.86.815A5.057,5.057,0,0,0,842.7,569.8v.815a5.1,5.1,0,0,0,5.095,5.095h36.683a5.1,5.1,0,0,0,5.095-5.095V569.8a5.1,5.1,0,0,0-5.095-5.095Z" transform="translate(-816.484 -485.538)" fill="#3f3d56"/>
      <rect id="長方形_281" data-name="長方形 281" width="5.299" height="34.238" transform="translate(47.205 89.968)" fill="#3f3d56"/>
      <path id="パス_2045" data-name="パス 2045" d="M892.064,667.318c0,.573-8.029.221-17.934.221s-17.934.351-17.934-.221,8.029-5.113,17.934-5.113S892.064,666.746,892.064,667.318Z" transform="translate(-824.479 -543.299)" fill="#3f3d56"/>
      <path id="パス_2046" data-name="パス 2046" d="M618.382,412.243h-5l-2.377-19.274h7.375Z" transform="translate(-595.228 -292.727)" fill="#ffb8b8"/>
      <path id="パス_2047" data-name="パス 2047" d="M599.264,436.753H608.9v6.068H593.2A6.068,6.068,0,0,1,599.264,436.753Z" transform="translate(-584.677 -318.665)" fill="#500053"/>
      <path id="パス_2048" data-name="パス 2048" d="M603.033,403.476l-4.768-1.5,3.5-19.1,7.037,2.208Z" transform="translate(-587.68 -286.749)" fill="#ffb8b8"/>
      <path id="パス_2049" data-name="パス 2049" d="M6.068,0H15.7V6.068H0A6.068,6.068,0,0,1,6.068,0Z" transform="translate(1.817 110.983) rotate(17.423)" fill="#500053"/>
      <path id="パス_2050" data-name="パス 2050" d="M849.665,546.209a15.427,15.427,0,0,0-.62-2.861l-.933-1.174-2.429-3.049-.106,0c-.18.008-.925.049-2.079.139h-.012c-.713.057-1.586.13-2.576.224-.261.029-.534.053-.815.082v4.255h5.095a1.021,1.021,0,0,1,1.011.889c0,.045.008.086.008.13a1.019,1.019,0,0,1-1.019,1.019H815.6a11.554,11.554,0,0,0-1.084.815,6.065,6.065,0,0,0-2.14,3.2c-1.728,7.6-4.879,21.765-5.808,25.927a1.85,1.85,0,0,0,.55,1.745,1.81,1.81,0,0,0,.6.371l3.676,1.378a1.957,1.957,0,0,0,.469.11c.02,0,.037,0,.057,0a1.108,1.108,0,0,0,.114,0,1.847,1.847,0,0,0,1.716-1.182l2.9-7.614,4.471-11.739,1.769-4.642c2.05.481,19.251,4.288,25.01-1.846a6.549,6.549,0,0,0,1.321-2.083,8.477,8.477,0,0,0,.444-4.109Z" transform="translate(-795.054 -470.385)" fill="#76415b"/>
      <path id="パス_2051" data-name="パス 2051" d="M862.357,551.465c-.089-.363-.191-.738-.31-1.117l-3.363-4.223-.106,0c-.212.012-1.219.065-2.764.192-1.753.147-4.2.383-6.954.754-.081.008-.167.02-.249.032-.269.037-.542.073-.815.114v.754h5.095a1.021,1.021,0,0,1,1.011.888c0,.045.008.086.008.13a1.019,1.019,0,0,1-1.019,1.019H834.886c-.787.257-1.545.526-2.27.815-3.807,1.508-6.656,3.485-7.239,6.057-.2.864-.412,1.814-.64,2.825-.848,3.758-1.879,8.36-2.812,12.542v0c-.192.864-.383,1.7-.567,2.519-.779,3.505-1.439,6.477-1.789,8.038-.008.045-.016.086-.024.13v.008a1.9,1.9,0,0,0,.114.933l0,0v0a1.8,1.8,0,0,0,.53.73,1.871,1.871,0,0,0,.526.306l3.676,1.378a1.869,1.869,0,0,0,.64.118,1.809,1.809,0,0,0,.876-.224,1.835,1.835,0,0,0,.84-.958l7.915-20.771,1.227-3.224c2.05.481,19.251,4.284,25.01-1.846a6.884,6.884,0,0,0,1.826-4.512A12.1,12.1,0,0,0,862.357,551.465Z" transform="translate(-802.757 -474.532)" fill="#763957"/>
      <path id="パス_2052" data-name="パス 2052" d="M893.883,466.168c-.065-.077-.134-.155-.208-.228a9.975,9.975,0,0,0-8.547-3.012,32.36,32.36,0,0,0-4.039.795,10.182,10.182,0,0,0-4.557,2.556,9.951,9.951,0,0,0-3.02,7.418c.016.558.02,1.129.012,1.708,0,.269,0,.542-.008.815h4.019a2.158,2.158,0,0,1,.518.061,2.246,2.246,0,0,1,1.724,2.181v18.961c.273.077.546.155.815.236.086.029.167.053.249.077l.277.086q1.241.385,2.425.815h1.329a1.021,1.021,0,0,1,1.011.889c.277.11.546.22.811.33.942.391,1.834.783,2.654,1.162,1.1.505,2.087.986,2.91,1.406a1.872,1.872,0,0,0,.835.2,1.8,1.8,0,0,0,1.06-.351,2.262,2.262,0,0,0,.183-.151,1.836,1.836,0,0,0,.559-1.622,52.2,52.2,0,0,1-.367-9.66c.114-2.711.359-5.49.677-8.176.171-1.455.363-2.882.562-4.255.192-1.312.4-2.572.6-3.762a10.03,10.03,0,0,0-2.478-8.482Z" transform="translate(-834.735 -425.193)" fill="#4e84ff"/>
      <path id="パス_2053" data-name="パス 2053" d="M868.97,471.264a4.826,4.826,0,0,0-.644-.224,4.687,4.687,0,0,0-5.519,2.661l-2.8,6.464-.35.815h9.672a2.168,2.168,0,0,1,.518.061l.326-.754,1.239-2.861A4.692,4.692,0,0,0,868.97,471.264Z" transform="translate(-826.529 -429.955)" fill="#4e84ff"/>
      <circle id="楕円形_317" data-name="楕円形 317" cx="10.011" cy="10.011" r="10.011" transform="translate(41.127 14.53)" fill="#ffb8b8"/>
      <path id="パス_2054" data-name="パス 2054" d="M904.877,500.962l-5.714.155-.416,4.015-.094.929L889.7,510.08l-.815.367v7.145l.815-.232,2.576-.734h.012l11.347-3.232.13-.037a4.434,4.434,0,0,0,3.2-4.219L907,504.4l.024-3.493Z" transform="translate(-843.845 -447.743)" fill="#ffb8b8"/>
      <path id="パス_2055" data-name="パス 2055" d="M919.062,475.169a4.688,4.688,0,1,0-9.358.575l.624,10.174a1.828,1.828,0,0,0,.746,1.361,1.808,1.808,0,0,0,1.2.355l4.369-.269,1.325-.082a1.788,1.788,0,0,0,1.264-.615,1.3,1.3,0,0,0,.1-.122,1.821,1.821,0,0,0,.359-1.206Z" transform="translate(-856.172 -429.89)" fill="#4e84ff"/>
      <path id="パス_2056" data-name="パス 2056" d="M829.8,516.083h-.526v-.053c-.269.037-.542.073-.815.114v.754h3.766Q831.041,516.47,829.8,516.083Zm0,0h-.526v-.053c-.269.037-.542.073-.815.114v.754h3.766Q831.041,516.47,829.8,516.083Zm3.754,0h-4.28V496.722a3.061,3.061,0,0,0-2.213-2.935,2.878,2.878,0,0,0-.844-.122H789.944a3.061,3.061,0,0,0-3.057,3.057v19.972a3.058,3.058,0,0,0,3.057,3.057h43.612a1.836,1.836,0,0,0,1.822-1.634,1.583,1.583,0,0,0,.012-.2A1.837,1.837,0,0,0,833.556,516.083Zm1.019,1.834a1.02,1.02,0,0,1-1.019,1.019H789.944a2.243,2.243,0,0,1-2.242-2.242V496.722a2.243,2.243,0,0,1,2.242-2.242h36.276a2.168,2.168,0,0,1,.518.061,2.246,2.246,0,0,1,1.724,2.181V516.9h5.095a1.021,1.021,0,0,1,1.011.889C834.571,517.831,834.575,517.872,834.575,517.917Zm-4.773-1.834h-.526v-.053c-.269.037-.542.073-.815.114v.754h3.766Q831.041,516.47,829.8,516.083Z" transform="translate(-783.42 -443.454)" fill="#3f3d56"/>
      <circle id="楕円形_318" data-name="楕円形 318" cx="2.446" cy="2.446" r="2.446" transform="translate(22.215 60.809)" fill="#4e84ff"/>
      <path id="パス_2161" data-name="パス 2161" d="M5.99,9.4c3.24-2.228,6.092-2.567,8.436-1.935a3.081,3.081,0,0,1,1.232-1.094A10.5,10.5,0,0,1,27.821.341a10.492,10.492,0,0,1,7.215,11.583c-.56,3.043-2.475,5.677-3.245,8.674a12.379,12.379,0,0,0,7.836,14.314,12.085,12.085,0,0,1-13.249-7.352,25.523,25.523,0,0,1-1.115-7.892,18.922,18.922,0,0,0-1.542-7.792,7.963,7.963,0,0,0-3.811-3.7,3.04,3.04,0,0,1-.444,2.736,8.089,8.089,0,0,1,1.951,4.319c2.624,4.8-1.129,8.917-5.925,11.541a9.827,9.827,0,0,1-6.279,1.095l-.2-.857-.272.772S5.617,38.1,4.587,38.7c.391-1.836.839-10.335,1.056-12.127.3-2.438-.749-6.068-1.507-8.276a13.031,13.031,0,0,1-.713-4.229V14.01l-.738,2.369L0,15.233C.5,12.368,0,9.115,5.99,9.4Z" transform="translate(37.011 8.914) rotate(-13)" fill="#2f2e41"/>
    </g>
    <path id="パス_2199" data-name="パス 2199" d="M751.4,300.8a7.054,7.054,0,0,0-.752-2.55,2.041,2.041,0,0,1-2.746.645,7.726,7.726,0,0,1-2.235-2.187,11,11,0,0,0-6.953-4.185c-2.755-.316-5.791,1.075-6.832,3.645a1.727,1.727,0,0,0-2.169-.344,3.9,3.9,0,0,0-1.521,1.8,11.483,11.483,0,0,0-.382,9.188c1.16,2.935,4.025,6.89,6.98,8,1.794.673,3.607-.188,5.515,0-.1-2.083-.5-4.652-.6-6.735a4.361,4.361,0,0,1,.716-3.251,2.249,2.249,0,0,1,3.431.4,5.169,5.169,0,0,1,.644-1.837,1.757,1.757,0,0,1,1.65-.845c.8.131,1.289.948,2.02,1.291a2.2,2.2,0,0,0,2.44-.56A3.32,3.32,0,0,0,751.4,300.8Z" transform="translate(-3080.731 6710.872)" fill="#2f2e41"/>
    <g id="グループ_1278" data-name="グループ 1278" transform="translate(-2262.499 6978.624)">
      <path id="パス_2220" data-name="パス 2220" d="M2,2H96.4V32.991H92.827V41.1l-8.105-8.105H2Z" transform="translate(-1.57 -1.57)" fill="#fff"/>
      <path id="パス_2221" data-name="パス 2221" d="M306.174,216.8l-8.714-8.714H214.486V176.235H309.75v31.851h-3.576Zm-90.827-9.574h82.47l7.5,7.5v-7.5h3.576V177.1H215.346Z" transform="translate(-214.486 -176.235)" fill="#e5e5e5"/>
      <rect id="長方形_286" data-name="長方形 286" width="42.928" height="1.303" transform="translate(9.57 10.925)" fill="#4e84ff"/>
      <rect id="長方形_287" data-name="長方形 287" width="74.819" height="1.303" transform="translate(9.507 15.432)" fill="#4e84ff"/>
      <rect id="長方形_288" data-name="長方形 288" width="74.746" height="1.303" transform="translate(9.58 19.938)" fill="#4e84ff"/>
    </g>
    <g id="グループ_1277" data-name="グループ 1277" transform="translate(-2326.978 6962.783)">
      <path id="パス_2222" data-name="パス 2222" d="M80.889,2H2V32.991H4.988V41.1l6.773-8.105H80.889Z" transform="translate(-1.641 -1.57)" fill="#fff"/>
      <path id="パス_2223" data-name="パス 2223" d="M217.474,216.8l7.282-8.714h69.338V176.235H214.486v31.851h2.988Zm75.9-9.574H224.458l-6.265,7.5v-7.5h-2.988V177.1h78.17Z" transform="translate(-214.486 -176.235)" fill="#e5e5e5"/>
      <rect id="長方形_289" data-name="長方形 289" width="35.873" height="1.303" transform="translate(35.737 10.925)" fill="#4e84ff"/>
      <rect id="長方形_290" data-name="長方形 290" width="62.523" height="1.303" transform="translate(9.139 15.432)" fill="#4e84ff"/>
      <rect id="長方形_291" data-name="長方形 291" width="62.462" height="1.303" transform="translate(9.14 19.938)" fill="#4e84ff"/>
    </g>
  </g>
</svg>
